M48
; DRILL file {KiCad (5.1.5)-3} date 16.03.2023 00:37:53
; FORMAT={-:-/ absolute / metric / decimal}
; #@! TF.CreationDate,2023-03-16T00:37:53+01:00
; #@! TF.GenerationSoftware,Kicad,Pcbnew,(5.1.5)-3
; #@! TF.FileFunction,Plated,1,2,PTH
FMAT,2
METRIC
T1C0.800
T2C1.000
T3C1.320
%
G90
G05
T1
X143.256Y-83.947
X143.256Y-86.487
X143.256Y-89.027
X143.256Y-91.567
X143.256Y-94.107
X143.256Y-96.647
X143.256Y-99.187
X143.256Y-101.727
X143.256Y-104.267
X143.256Y-106.807
X145.796Y-83.947
X145.796Y-86.487
X145.796Y-89.027
X145.796Y-91.567
X145.796Y-94.107
X145.796Y-96.647
X145.796Y-99.187
X145.796Y-101.727
X145.796Y-104.267
X145.796Y-106.807
X168.656Y-83.947
X168.656Y-86.487
X168.656Y-89.027
X168.656Y-91.567
X168.656Y-94.107
X168.656Y-96.647
X168.656Y-99.187
X168.656Y-101.727
X168.656Y-104.267
X168.656Y-106.807
X171.196Y-83.947
X171.196Y-86.487
X171.196Y-89.027
X171.196Y-91.567
X171.196Y-94.107
X171.196Y-96.647
X171.196Y-99.187
X171.196Y-101.727
X171.196Y-104.267
X171.196Y-106.807
T2
X176.276Y-106.934
X178.816Y-106.934
X181.356Y-106.934
X183.896Y-106.934
X183.896Y-116.459
X183.896Y-124.059
X176.276Y-99.949
X178.816Y-99.949
X181.356Y-99.949
X183.896Y-99.949
X176.276Y-85.471
X178.816Y-85.471
X181.356Y-85.471
X176.276Y-92.329
X178.816Y-92.329
X181.356Y-92.329
X183.896Y-92.329
T3
X169.037Y-120.269
X174.037Y-120.269
T0
M30
