%FSLAX45Y45*%
G04 Gerber Fmt 4.5, Leading zero omitted, Abs format (unit mm)*
G04 Created by KiCad (PCBNEW (5.1.5)-3) date 2023-03-15 23:12:14*
%MOMM*%
%LPD*%
G04 APERTURE LIST*
%TA.AperFunction,Profile*%
%ADD10C,0.050000*%
%TD*%
%ADD11C,0.200000*%
%ADD12C,0.300000*%
G04 APERTURE END LIST*
D10*
X14526000Y-7965700D02*
G75*
G03X14526000Y-7965700I-175000J0D01*
G01*
X14526000Y-12321800D02*
G75*
G03X14526000Y-12321800I-175000J0D01*
G01*
X18907500Y-7962900D02*
G75*
G03X18907500Y-7962900I-175000J0D01*
G01*
X13970000Y-7620000D02*
X13970000Y-12700000D01*
X19050000Y-7620000D02*
X13970000Y-7620000D01*
X19050000Y-12700000D02*
X19050000Y-7620000D01*
X13970000Y-12700000D02*
X19050000Y-12700000D01*
D11*
X14285600Y-8354700D02*
X14365600Y-8434700D01*
X14365600Y-8354700D02*
X14285600Y-8434700D01*
X14285600Y-8608700D02*
X14365600Y-8688700D01*
X14365600Y-8608700D02*
X14285600Y-8688700D01*
X14285600Y-8862700D02*
X14365600Y-8942700D01*
X14365600Y-8862700D02*
X14285600Y-8942700D01*
X14285600Y-9116700D02*
X14365600Y-9196700D01*
X14365600Y-9116700D02*
X14285600Y-9196700D01*
X14285600Y-9370700D02*
X14365600Y-9450700D01*
X14365600Y-9370700D02*
X14285600Y-9450700D01*
X14285600Y-9624700D02*
X14365600Y-9704700D01*
X14365600Y-9624700D02*
X14285600Y-9704700D01*
X14285600Y-9878700D02*
X14365600Y-9958700D01*
X14365600Y-9878700D02*
X14285600Y-9958700D01*
X14285600Y-10132700D02*
X14365600Y-10212700D01*
X14365600Y-10132700D02*
X14285600Y-10212700D01*
X14285600Y-10386700D02*
X14365600Y-10466700D01*
X14365600Y-10386700D02*
X14285600Y-10466700D01*
X14285600Y-10640700D02*
X14365600Y-10720700D01*
X14365600Y-10640700D02*
X14285600Y-10720700D01*
X14539600Y-8354700D02*
X14619600Y-8434700D01*
X14619600Y-8354700D02*
X14539600Y-8434700D01*
X14539600Y-8608700D02*
X14619600Y-8688700D01*
X14619600Y-8608700D02*
X14539600Y-8688700D01*
X14539600Y-8862700D02*
X14619600Y-8942700D01*
X14619600Y-8862700D02*
X14539600Y-8942700D01*
X14539600Y-9116700D02*
X14619600Y-9196700D01*
X14619600Y-9116700D02*
X14539600Y-9196700D01*
X14539600Y-9370700D02*
X14619600Y-9450700D01*
X14619600Y-9370700D02*
X14539600Y-9450700D01*
X14539600Y-9624700D02*
X14619600Y-9704700D01*
X14619600Y-9624700D02*
X14539600Y-9704700D01*
X14539600Y-9878700D02*
X14619600Y-9958700D01*
X14619600Y-9878700D02*
X14539600Y-9958700D01*
X14539600Y-10132700D02*
X14619600Y-10212700D01*
X14619600Y-10132700D02*
X14539600Y-10212700D01*
X14539600Y-10386700D02*
X14619600Y-10466700D01*
X14619600Y-10386700D02*
X14539600Y-10466700D01*
X14539600Y-10640700D02*
X14619600Y-10720700D01*
X14619600Y-10640700D02*
X14539600Y-10720700D01*
X16825600Y-8354700D02*
X16905600Y-8434700D01*
X16905600Y-8354700D02*
X16825600Y-8434700D01*
X16825600Y-8608700D02*
X16905600Y-8688700D01*
X16905600Y-8608700D02*
X16825600Y-8688700D01*
X16825600Y-8862700D02*
X16905600Y-8942700D01*
X16905600Y-8862700D02*
X16825600Y-8942700D01*
X16825600Y-9116700D02*
X16905600Y-9196700D01*
X16905600Y-9116700D02*
X16825600Y-9196700D01*
X16825600Y-9370700D02*
X16905600Y-9450700D01*
X16905600Y-9370700D02*
X16825600Y-9450700D01*
X16825600Y-9624700D02*
X16905600Y-9704700D01*
X16905600Y-9624700D02*
X16825600Y-9704700D01*
X16825600Y-9878700D02*
X16905600Y-9958700D01*
X16905600Y-9878700D02*
X16825600Y-9958700D01*
X16825600Y-10132700D02*
X16905600Y-10212700D01*
X16905600Y-10132700D02*
X16825600Y-10212700D01*
X16825600Y-10386700D02*
X16905600Y-10466700D01*
X16905600Y-10386700D02*
X16825600Y-10466700D01*
X16825600Y-10640700D02*
X16905600Y-10720700D01*
X16905600Y-10640700D02*
X16825600Y-10720700D01*
X17079600Y-8354700D02*
X17159600Y-8434700D01*
X17159600Y-8354700D02*
X17079600Y-8434700D01*
X17079600Y-8608700D02*
X17159600Y-8688700D01*
X17159600Y-8608700D02*
X17079600Y-8688700D01*
X17079600Y-8862700D02*
X17159600Y-8942700D01*
X17159600Y-8862700D02*
X17079600Y-8942700D01*
X17079600Y-9116700D02*
X17159600Y-9196700D01*
X17159600Y-9116700D02*
X17079600Y-9196700D01*
X17079600Y-9370700D02*
X17159600Y-9450700D01*
X17159600Y-9370700D02*
X17079600Y-9450700D01*
X17079600Y-9624700D02*
X17159600Y-9704700D01*
X17159600Y-9624700D02*
X17079600Y-9704700D01*
X17079600Y-9878700D02*
X17159600Y-9958700D01*
X17159600Y-9878700D02*
X17079600Y-9958700D01*
X17079600Y-10132700D02*
X17159600Y-10212700D01*
X17159600Y-10132700D02*
X17079600Y-10212700D01*
X17079600Y-10386700D02*
X17159600Y-10466700D01*
X17159600Y-10386700D02*
X17079600Y-10466700D01*
X17079600Y-10640700D02*
X17159600Y-10720700D01*
X17159600Y-10640700D02*
X17079600Y-10720700D01*
X17677600Y-8547100D02*
G75*
G03X17677600Y-8547100I-50000J0D01*
G01*
X17931600Y-8547100D02*
G75*
G03X17931600Y-8547100I-50000J0D01*
G01*
X18185600Y-8547100D02*
G75*
G03X18185600Y-8547100I-50000J0D01*
G01*
X17677600Y-10693400D02*
G75*
G03X17677600Y-10693400I-50000J0D01*
G01*
X17931600Y-10693400D02*
G75*
G03X17931600Y-10693400I-50000J0D01*
G01*
X18185600Y-10693400D02*
G75*
G03X18185600Y-10693400I-50000J0D01*
G01*
X18439600Y-10693400D02*
G75*
G03X18439600Y-10693400I-50000J0D01*
G01*
X18439600Y-11645900D02*
G75*
G03X18439600Y-11645900I-50000J0D01*
G01*
X18439600Y-12405900D02*
G75*
G03X18439600Y-12405900I-50000J0D01*
G01*
X17677600Y-9232900D02*
G75*
G03X17677600Y-9232900I-50000J0D01*
G01*
X17931600Y-9232900D02*
G75*
G03X17931600Y-9232900I-50000J0D01*
G01*
X18185600Y-9232900D02*
G75*
G03X18185600Y-9232900I-50000J0D01*
G01*
X18439600Y-9232900D02*
G75*
G03X18439600Y-9232900I-50000J0D01*
G01*
X17677600Y-9994900D02*
G75*
G03X17677600Y-9994900I-50000J0D01*
G01*
X17931600Y-9994900D02*
G75*
G03X17931600Y-9994900I-50000J0D01*
G01*
X18185600Y-9994900D02*
G75*
G03X18185600Y-9994900I-50000J0D01*
G01*
X18439600Y-9994900D02*
G75*
G03X18439600Y-9994900I-50000J0D01*
G01*
X16903700Y-11960900D02*
X16903700Y-12092900D01*
X16837700Y-12026900D02*
X16969700Y-12026900D01*
X17403700Y-11960900D02*
X17403700Y-12092900D01*
X17337700Y-12026900D02*
X17469700Y-12026900D01*
D12*
X14253928Y-13168214D02*
X14253928Y-12868214D01*
X14325357Y-12868214D01*
X14368214Y-12882500D01*
X14396786Y-12911071D01*
X14411071Y-12939643D01*
X14425357Y-12996786D01*
X14425357Y-13039643D01*
X14411071Y-13096786D01*
X14396786Y-13125357D01*
X14368214Y-13153929D01*
X14325357Y-13168214D01*
X14253928Y-13168214D01*
X14553928Y-13168214D02*
X14553928Y-12968214D01*
X14553928Y-13025357D02*
X14568214Y-12996786D01*
X14582500Y-12982500D01*
X14611071Y-12968214D01*
X14639643Y-12968214D01*
X14739643Y-13168214D02*
X14739643Y-12968214D01*
X14739643Y-12868214D02*
X14725357Y-12882500D01*
X14739643Y-12896786D01*
X14753928Y-12882500D01*
X14739643Y-12868214D01*
X14739643Y-12896786D01*
X14925357Y-13168214D02*
X14896786Y-13153929D01*
X14882500Y-13125357D01*
X14882500Y-12868214D01*
X15082500Y-13168214D02*
X15053928Y-13153929D01*
X15039643Y-13125357D01*
X15039643Y-12868214D01*
X15425357Y-13168214D02*
X15425357Y-12868214D01*
X15525357Y-13082500D01*
X15625357Y-12868214D01*
X15625357Y-13168214D01*
X15896786Y-13168214D02*
X15896786Y-13011071D01*
X15882500Y-12982500D01*
X15853928Y-12968214D01*
X15796786Y-12968214D01*
X15768214Y-12982500D01*
X15896786Y-13153929D02*
X15868214Y-13168214D01*
X15796786Y-13168214D01*
X15768214Y-13153929D01*
X15753928Y-13125357D01*
X15753928Y-13096786D01*
X15768214Y-13068214D01*
X15796786Y-13053929D01*
X15868214Y-13053929D01*
X15896786Y-13039643D01*
X16039643Y-12968214D02*
X16039643Y-13268214D01*
X16039643Y-12982500D02*
X16068214Y-12968214D01*
X16125357Y-12968214D01*
X16153928Y-12982500D01*
X16168214Y-12996786D01*
X16182500Y-13025357D01*
X16182500Y-13111071D01*
X16168214Y-13139643D01*
X16153928Y-13153929D01*
X16125357Y-13168214D01*
X16068214Y-13168214D01*
X16039643Y-13153929D01*
X16311071Y-13139643D02*
X16325357Y-13153929D01*
X16311071Y-13168214D01*
X16296786Y-13153929D01*
X16311071Y-13139643D01*
X16311071Y-13168214D01*
X16311071Y-12982500D02*
X16325357Y-12996786D01*
X16311071Y-13011071D01*
X16296786Y-12996786D01*
X16311071Y-12982500D01*
X16311071Y-13011071D01*
X13887500Y-13622500D02*
X13967500Y-13702500D01*
X13967500Y-13622500D02*
X13887500Y-13702500D01*
X14311071Y-13498214D02*
X14339643Y-13498214D01*
X14368214Y-13512500D01*
X14382500Y-13526786D01*
X14396786Y-13555357D01*
X14411071Y-13612500D01*
X14411071Y-13683929D01*
X14396786Y-13741071D01*
X14382500Y-13769643D01*
X14368214Y-13783929D01*
X14339643Y-13798214D01*
X14311071Y-13798214D01*
X14282500Y-13783929D01*
X14268214Y-13769643D01*
X14253928Y-13741071D01*
X14239643Y-13683929D01*
X14239643Y-13612500D01*
X14253928Y-13555357D01*
X14268214Y-13526786D01*
X14282500Y-13512500D01*
X14311071Y-13498214D01*
X14539643Y-13769643D02*
X14553928Y-13783929D01*
X14539643Y-13798214D01*
X14525357Y-13783929D01*
X14539643Y-13769643D01*
X14539643Y-13798214D01*
X14725357Y-13626786D02*
X14696786Y-13612500D01*
X14682500Y-13598214D01*
X14668214Y-13569643D01*
X14668214Y-13555357D01*
X14682500Y-13526786D01*
X14696786Y-13512500D01*
X14725357Y-13498214D01*
X14782500Y-13498214D01*
X14811071Y-13512500D01*
X14825357Y-13526786D01*
X14839643Y-13555357D01*
X14839643Y-13569643D01*
X14825357Y-13598214D01*
X14811071Y-13612500D01*
X14782500Y-13626786D01*
X14725357Y-13626786D01*
X14696786Y-13641071D01*
X14682500Y-13655357D01*
X14668214Y-13683929D01*
X14668214Y-13741071D01*
X14682500Y-13769643D01*
X14696786Y-13783929D01*
X14725357Y-13798214D01*
X14782500Y-13798214D01*
X14811071Y-13783929D01*
X14825357Y-13769643D01*
X14839643Y-13741071D01*
X14839643Y-13683929D01*
X14825357Y-13655357D01*
X14811071Y-13641071D01*
X14782500Y-13626786D01*
X15025357Y-13498214D02*
X15053928Y-13498214D01*
X15082500Y-13512500D01*
X15096786Y-13526786D01*
X15111071Y-13555357D01*
X15125357Y-13612500D01*
X15125357Y-13683929D01*
X15111071Y-13741071D01*
X15096786Y-13769643D01*
X15082500Y-13783929D01*
X15053928Y-13798214D01*
X15025357Y-13798214D01*
X14996786Y-13783929D01*
X14982500Y-13769643D01*
X14968214Y-13741071D01*
X14953928Y-13683929D01*
X14953928Y-13612500D01*
X14968214Y-13555357D01*
X14982500Y-13526786D01*
X14996786Y-13512500D01*
X15025357Y-13498214D01*
X15253928Y-13798214D02*
X15253928Y-13598214D01*
X15253928Y-13626786D02*
X15268214Y-13612500D01*
X15296786Y-13598214D01*
X15339643Y-13598214D01*
X15368214Y-13612500D01*
X15382500Y-13641071D01*
X15382500Y-13798214D01*
X15382500Y-13641071D02*
X15396786Y-13612500D01*
X15425357Y-13598214D01*
X15468214Y-13598214D01*
X15496786Y-13612500D01*
X15511071Y-13641071D01*
X15511071Y-13798214D01*
X15653928Y-13798214D02*
X15653928Y-13598214D01*
X15653928Y-13626786D02*
X15668214Y-13612500D01*
X15696786Y-13598214D01*
X15739643Y-13598214D01*
X15768214Y-13612500D01*
X15782500Y-13641071D01*
X15782500Y-13798214D01*
X15782500Y-13641071D02*
X15796786Y-13612500D01*
X15825357Y-13598214D01*
X15868214Y-13598214D01*
X15896786Y-13612500D01*
X15911071Y-13641071D01*
X15911071Y-13798214D01*
X16496786Y-13483929D02*
X16239643Y-13869643D01*
X16882500Y-13498214D02*
X16911071Y-13498214D01*
X16939643Y-13512500D01*
X16953928Y-13526786D01*
X16968214Y-13555357D01*
X16982500Y-13612500D01*
X16982500Y-13683929D01*
X16968214Y-13741071D01*
X16953928Y-13769643D01*
X16939643Y-13783929D01*
X16911071Y-13798214D01*
X16882500Y-13798214D01*
X16853928Y-13783929D01*
X16839643Y-13769643D01*
X16825357Y-13741071D01*
X16811071Y-13683929D01*
X16811071Y-13612500D01*
X16825357Y-13555357D01*
X16839643Y-13526786D01*
X16853928Y-13512500D01*
X16882500Y-13498214D01*
X17111071Y-13769643D02*
X17125357Y-13783929D01*
X17111071Y-13798214D01*
X17096786Y-13783929D01*
X17111071Y-13769643D01*
X17111071Y-13798214D01*
X17311071Y-13498214D02*
X17339643Y-13498214D01*
X17368214Y-13512500D01*
X17382500Y-13526786D01*
X17396786Y-13555357D01*
X17411071Y-13612500D01*
X17411071Y-13683929D01*
X17396786Y-13741071D01*
X17382500Y-13769643D01*
X17368214Y-13783929D01*
X17339643Y-13798214D01*
X17311071Y-13798214D01*
X17282500Y-13783929D01*
X17268214Y-13769643D01*
X17253928Y-13741071D01*
X17239643Y-13683929D01*
X17239643Y-13612500D01*
X17253928Y-13555357D01*
X17268214Y-13526786D01*
X17282500Y-13512500D01*
X17311071Y-13498214D01*
X17511071Y-13498214D02*
X17696786Y-13498214D01*
X17596786Y-13612500D01*
X17639643Y-13612500D01*
X17668214Y-13626786D01*
X17682500Y-13641071D01*
X17696786Y-13669643D01*
X17696786Y-13741071D01*
X17682500Y-13769643D01*
X17668214Y-13783929D01*
X17639643Y-13798214D01*
X17553928Y-13798214D01*
X17525357Y-13783929D01*
X17511071Y-13769643D01*
X17982500Y-13798214D02*
X17811071Y-13798214D01*
X17896786Y-13798214D02*
X17896786Y-13498214D01*
X17868214Y-13541071D01*
X17839643Y-13569643D01*
X17811071Y-13583929D01*
X18096786Y-13498214D02*
X18096786Y-13555357D01*
X18211071Y-13498214D02*
X18211071Y-13555357D01*
X18653928Y-13912500D02*
X18639643Y-13898214D01*
X18611071Y-13855357D01*
X18596786Y-13826786D01*
X18582500Y-13783929D01*
X18568214Y-13712500D01*
X18568214Y-13655357D01*
X18582500Y-13583929D01*
X18596786Y-13541071D01*
X18611071Y-13512500D01*
X18639643Y-13469643D01*
X18653928Y-13455357D01*
X18896786Y-13598214D02*
X18896786Y-13798214D01*
X18825357Y-13483929D02*
X18753928Y-13698214D01*
X18939643Y-13698214D01*
X19111071Y-13498214D02*
X19139643Y-13498214D01*
X19168214Y-13512500D01*
X19182500Y-13526786D01*
X19196786Y-13555357D01*
X19211071Y-13612500D01*
X19211071Y-13683929D01*
X19196786Y-13741071D01*
X19182500Y-13769643D01*
X19168214Y-13783929D01*
X19139643Y-13798214D01*
X19111071Y-13798214D01*
X19082500Y-13783929D01*
X19068214Y-13769643D01*
X19053928Y-13741071D01*
X19039643Y-13683929D01*
X19039643Y-13612500D01*
X19053928Y-13555357D01*
X19068214Y-13526786D01*
X19082500Y-13512500D01*
X19111071Y-13498214D01*
X19568214Y-13798214D02*
X19568214Y-13498214D01*
X19696786Y-13798214D02*
X19696786Y-13641071D01*
X19682500Y-13612500D01*
X19653928Y-13598214D01*
X19611071Y-13598214D01*
X19582500Y-13612500D01*
X19568214Y-13626786D01*
X19882500Y-13798214D02*
X19853928Y-13783929D01*
X19839643Y-13769643D01*
X19825357Y-13741071D01*
X19825357Y-13655357D01*
X19839643Y-13626786D01*
X19853928Y-13612500D01*
X19882500Y-13598214D01*
X19925357Y-13598214D01*
X19953928Y-13612500D01*
X19968214Y-13626786D01*
X19982500Y-13655357D01*
X19982500Y-13741071D01*
X19968214Y-13769643D01*
X19953928Y-13783929D01*
X19925357Y-13798214D01*
X19882500Y-13798214D01*
X20153928Y-13798214D02*
X20125357Y-13783929D01*
X20111071Y-13755357D01*
X20111071Y-13498214D01*
X20382500Y-13783929D02*
X20353928Y-13798214D01*
X20296786Y-13798214D01*
X20268214Y-13783929D01*
X20253928Y-13755357D01*
X20253928Y-13641071D01*
X20268214Y-13612500D01*
X20296786Y-13598214D01*
X20353928Y-13598214D01*
X20382500Y-13612500D01*
X20396786Y-13641071D01*
X20396786Y-13669643D01*
X20253928Y-13698214D01*
X20511071Y-13783929D02*
X20539643Y-13798214D01*
X20596786Y-13798214D01*
X20625357Y-13783929D01*
X20639643Y-13755357D01*
X20639643Y-13741071D01*
X20625357Y-13712500D01*
X20596786Y-13698214D01*
X20553928Y-13698214D01*
X20525357Y-13683929D01*
X20511071Y-13655357D01*
X20511071Y-13641071D01*
X20525357Y-13612500D01*
X20553928Y-13598214D01*
X20596786Y-13598214D01*
X20625357Y-13612500D01*
X20739643Y-13912500D02*
X20753928Y-13898214D01*
X20782500Y-13855357D01*
X20796786Y-13826786D01*
X20811071Y-13783929D01*
X20825357Y-13712500D01*
X20825357Y-13655357D01*
X20811071Y-13583929D01*
X20796786Y-13541071D01*
X20782500Y-13512500D01*
X20753928Y-13469643D01*
X20739643Y-13455357D01*
X13967500Y-14058500D02*
G75*
G03X13967500Y-14058500I-50000J0D01*
G01*
X14411071Y-14194214D02*
X14239643Y-14194214D01*
X14325357Y-14194214D02*
X14325357Y-13894214D01*
X14296786Y-13937071D01*
X14268214Y-13965643D01*
X14239643Y-13979929D01*
X14539643Y-14165643D02*
X14553928Y-14179929D01*
X14539643Y-14194214D01*
X14525357Y-14179929D01*
X14539643Y-14165643D01*
X14539643Y-14194214D01*
X14739643Y-13894214D02*
X14768214Y-13894214D01*
X14796786Y-13908500D01*
X14811071Y-13922786D01*
X14825357Y-13951357D01*
X14839643Y-14008500D01*
X14839643Y-14079929D01*
X14825357Y-14137071D01*
X14811071Y-14165643D01*
X14796786Y-14179929D01*
X14768214Y-14194214D01*
X14739643Y-14194214D01*
X14711071Y-14179929D01*
X14696786Y-14165643D01*
X14682500Y-14137071D01*
X14668214Y-14079929D01*
X14668214Y-14008500D01*
X14682500Y-13951357D01*
X14696786Y-13922786D01*
X14711071Y-13908500D01*
X14739643Y-13894214D01*
X15025357Y-13894214D02*
X15053928Y-13894214D01*
X15082500Y-13908500D01*
X15096786Y-13922786D01*
X15111071Y-13951357D01*
X15125357Y-14008500D01*
X15125357Y-14079929D01*
X15111071Y-14137071D01*
X15096786Y-14165643D01*
X15082500Y-14179929D01*
X15053928Y-14194214D01*
X15025357Y-14194214D01*
X14996786Y-14179929D01*
X14982500Y-14165643D01*
X14968214Y-14137071D01*
X14953928Y-14079929D01*
X14953928Y-14008500D01*
X14968214Y-13951357D01*
X14982500Y-13922786D01*
X14996786Y-13908500D01*
X15025357Y-13894214D01*
X15253928Y-14194214D02*
X15253928Y-13994214D01*
X15253928Y-14022786D02*
X15268214Y-14008500D01*
X15296786Y-13994214D01*
X15339643Y-13994214D01*
X15368214Y-14008500D01*
X15382500Y-14037071D01*
X15382500Y-14194214D01*
X15382500Y-14037071D02*
X15396786Y-14008500D01*
X15425357Y-13994214D01*
X15468214Y-13994214D01*
X15496786Y-14008500D01*
X15511071Y-14037071D01*
X15511071Y-14194214D01*
X15653928Y-14194214D02*
X15653928Y-13994214D01*
X15653928Y-14022786D02*
X15668214Y-14008500D01*
X15696786Y-13994214D01*
X15739643Y-13994214D01*
X15768214Y-14008500D01*
X15782500Y-14037071D01*
X15782500Y-14194214D01*
X15782500Y-14037071D02*
X15796786Y-14008500D01*
X15825357Y-13994214D01*
X15868214Y-13994214D01*
X15896786Y-14008500D01*
X15911071Y-14037071D01*
X15911071Y-14194214D01*
X16496786Y-13879929D02*
X16239643Y-14265643D01*
X16882500Y-13894214D02*
X16911071Y-13894214D01*
X16939643Y-13908500D01*
X16953928Y-13922786D01*
X16968214Y-13951357D01*
X16982500Y-14008500D01*
X16982500Y-14079929D01*
X16968214Y-14137071D01*
X16953928Y-14165643D01*
X16939643Y-14179929D01*
X16911071Y-14194214D01*
X16882500Y-14194214D01*
X16853928Y-14179929D01*
X16839643Y-14165643D01*
X16825357Y-14137071D01*
X16811071Y-14079929D01*
X16811071Y-14008500D01*
X16825357Y-13951357D01*
X16839643Y-13922786D01*
X16853928Y-13908500D01*
X16882500Y-13894214D01*
X17111071Y-14165643D02*
X17125357Y-14179929D01*
X17111071Y-14194214D01*
X17096786Y-14179929D01*
X17111071Y-14165643D01*
X17111071Y-14194214D01*
X17311071Y-13894214D02*
X17339643Y-13894214D01*
X17368214Y-13908500D01*
X17382500Y-13922786D01*
X17396786Y-13951357D01*
X17411071Y-14008500D01*
X17411071Y-14079929D01*
X17396786Y-14137071D01*
X17382500Y-14165643D01*
X17368214Y-14179929D01*
X17339643Y-14194214D01*
X17311071Y-14194214D01*
X17282500Y-14179929D01*
X17268214Y-14165643D01*
X17253928Y-14137071D01*
X17239643Y-14079929D01*
X17239643Y-14008500D01*
X17253928Y-13951357D01*
X17268214Y-13922786D01*
X17282500Y-13908500D01*
X17311071Y-13894214D01*
X17511071Y-13894214D02*
X17696786Y-13894214D01*
X17596786Y-14008500D01*
X17639643Y-14008500D01*
X17668214Y-14022786D01*
X17682500Y-14037071D01*
X17696786Y-14065643D01*
X17696786Y-14137071D01*
X17682500Y-14165643D01*
X17668214Y-14179929D01*
X17639643Y-14194214D01*
X17553928Y-14194214D01*
X17525357Y-14179929D01*
X17511071Y-14165643D01*
X17839643Y-14194214D02*
X17896786Y-14194214D01*
X17925357Y-14179929D01*
X17939643Y-14165643D01*
X17968214Y-14122786D01*
X17982500Y-14065643D01*
X17982500Y-13951357D01*
X17968214Y-13922786D01*
X17953928Y-13908500D01*
X17925357Y-13894214D01*
X17868214Y-13894214D01*
X17839643Y-13908500D01*
X17825357Y-13922786D01*
X17811071Y-13951357D01*
X17811071Y-14022786D01*
X17825357Y-14051357D01*
X17839643Y-14065643D01*
X17868214Y-14079929D01*
X17925357Y-14079929D01*
X17953928Y-14065643D01*
X17968214Y-14051357D01*
X17982500Y-14022786D01*
X18096786Y-13894214D02*
X18096786Y-13951357D01*
X18211071Y-13894214D02*
X18211071Y-13951357D01*
X18653928Y-14308500D02*
X18639643Y-14294214D01*
X18611071Y-14251357D01*
X18596786Y-14222786D01*
X18582500Y-14179929D01*
X18568214Y-14108500D01*
X18568214Y-14051357D01*
X18582500Y-13979929D01*
X18596786Y-13937071D01*
X18611071Y-13908500D01*
X18639643Y-13865643D01*
X18653928Y-13851357D01*
X18925357Y-14194214D02*
X18753928Y-14194214D01*
X18839643Y-14194214D02*
X18839643Y-13894214D01*
X18811071Y-13937071D01*
X18782500Y-13965643D01*
X18753928Y-13979929D01*
X19025357Y-13894214D02*
X19225357Y-13894214D01*
X19096786Y-14194214D01*
X19568214Y-14194214D02*
X19568214Y-13894214D01*
X19696786Y-14194214D02*
X19696786Y-14037071D01*
X19682500Y-14008500D01*
X19653928Y-13994214D01*
X19611071Y-13994214D01*
X19582500Y-14008500D01*
X19568214Y-14022786D01*
X19882500Y-14194214D02*
X19853928Y-14179929D01*
X19839643Y-14165643D01*
X19825357Y-14137071D01*
X19825357Y-14051357D01*
X19839643Y-14022786D01*
X19853928Y-14008500D01*
X19882500Y-13994214D01*
X19925357Y-13994214D01*
X19953928Y-14008500D01*
X19968214Y-14022786D01*
X19982500Y-14051357D01*
X19982500Y-14137071D01*
X19968214Y-14165643D01*
X19953928Y-14179929D01*
X19925357Y-14194214D01*
X19882500Y-14194214D01*
X20153928Y-14194214D02*
X20125357Y-14179929D01*
X20111071Y-14151357D01*
X20111071Y-13894214D01*
X20382500Y-14179929D02*
X20353928Y-14194214D01*
X20296786Y-14194214D01*
X20268214Y-14179929D01*
X20253928Y-14151357D01*
X20253928Y-14037071D01*
X20268214Y-14008500D01*
X20296786Y-13994214D01*
X20353928Y-13994214D01*
X20382500Y-14008500D01*
X20396786Y-14037071D01*
X20396786Y-14065643D01*
X20253928Y-14094214D01*
X20511071Y-14179929D02*
X20539643Y-14194214D01*
X20596786Y-14194214D01*
X20625357Y-14179929D01*
X20639643Y-14151357D01*
X20639643Y-14137071D01*
X20625357Y-14108500D01*
X20596786Y-14094214D01*
X20553928Y-14094214D01*
X20525357Y-14079929D01*
X20511071Y-14051357D01*
X20511071Y-14037071D01*
X20525357Y-14008500D01*
X20553928Y-13994214D01*
X20596786Y-13994214D01*
X20625357Y-14008500D01*
X20739643Y-14308500D02*
X20753928Y-14294214D01*
X20782500Y-14251357D01*
X20796786Y-14222786D01*
X20811071Y-14179929D01*
X20825357Y-14108500D01*
X20825357Y-14051357D01*
X20811071Y-13979929D01*
X20796786Y-13937071D01*
X20782500Y-13908500D01*
X20753928Y-13865643D01*
X20739643Y-13851357D01*
X13901500Y-14388500D02*
X13901500Y-14520500D01*
X13835500Y-14454500D02*
X13967500Y-14454500D01*
X14411071Y-14590214D02*
X14239643Y-14590214D01*
X14325357Y-14590214D02*
X14325357Y-14290214D01*
X14296786Y-14333071D01*
X14268214Y-14361643D01*
X14239643Y-14375929D01*
X14539643Y-14561643D02*
X14553928Y-14575929D01*
X14539643Y-14590214D01*
X14525357Y-14575929D01*
X14539643Y-14561643D01*
X14539643Y-14590214D01*
X14653928Y-14290214D02*
X14839643Y-14290214D01*
X14739643Y-14404500D01*
X14782500Y-14404500D01*
X14811071Y-14418786D01*
X14825357Y-14433071D01*
X14839643Y-14461643D01*
X14839643Y-14533071D01*
X14825357Y-14561643D01*
X14811071Y-14575929D01*
X14782500Y-14590214D01*
X14696786Y-14590214D01*
X14668214Y-14575929D01*
X14653928Y-14561643D01*
X14953928Y-14318786D02*
X14968214Y-14304500D01*
X14996786Y-14290214D01*
X15068214Y-14290214D01*
X15096786Y-14304500D01*
X15111071Y-14318786D01*
X15125357Y-14347357D01*
X15125357Y-14375929D01*
X15111071Y-14418786D01*
X14939643Y-14590214D01*
X15125357Y-14590214D01*
X15253928Y-14590214D02*
X15253928Y-14390214D01*
X15253928Y-14418786D02*
X15268214Y-14404500D01*
X15296786Y-14390214D01*
X15339643Y-14390214D01*
X15368214Y-14404500D01*
X15382500Y-14433071D01*
X15382500Y-14590214D01*
X15382500Y-14433071D02*
X15396786Y-14404500D01*
X15425357Y-14390214D01*
X15468214Y-14390214D01*
X15496786Y-14404500D01*
X15511071Y-14433071D01*
X15511071Y-14590214D01*
X15653928Y-14590214D02*
X15653928Y-14390214D01*
X15653928Y-14418786D02*
X15668214Y-14404500D01*
X15696786Y-14390214D01*
X15739643Y-14390214D01*
X15768214Y-14404500D01*
X15782500Y-14433071D01*
X15782500Y-14590214D01*
X15782500Y-14433071D02*
X15796786Y-14404500D01*
X15825357Y-14390214D01*
X15868214Y-14390214D01*
X15896786Y-14404500D01*
X15911071Y-14433071D01*
X15911071Y-14590214D01*
X16496786Y-14275929D02*
X16239643Y-14661643D01*
X16882500Y-14290214D02*
X16911071Y-14290214D01*
X16939643Y-14304500D01*
X16953928Y-14318786D01*
X16968214Y-14347357D01*
X16982500Y-14404500D01*
X16982500Y-14475929D01*
X16968214Y-14533071D01*
X16953928Y-14561643D01*
X16939643Y-14575929D01*
X16911071Y-14590214D01*
X16882500Y-14590214D01*
X16853928Y-14575929D01*
X16839643Y-14561643D01*
X16825357Y-14533071D01*
X16811071Y-14475929D01*
X16811071Y-14404500D01*
X16825357Y-14347357D01*
X16839643Y-14318786D01*
X16853928Y-14304500D01*
X16882500Y-14290214D01*
X17111071Y-14561643D02*
X17125357Y-14575929D01*
X17111071Y-14590214D01*
X17096786Y-14575929D01*
X17111071Y-14561643D01*
X17111071Y-14590214D01*
X17311071Y-14290214D02*
X17339643Y-14290214D01*
X17368214Y-14304500D01*
X17382500Y-14318786D01*
X17396786Y-14347357D01*
X17411071Y-14404500D01*
X17411071Y-14475929D01*
X17396786Y-14533071D01*
X17382500Y-14561643D01*
X17368214Y-14575929D01*
X17339643Y-14590214D01*
X17311071Y-14590214D01*
X17282500Y-14575929D01*
X17268214Y-14561643D01*
X17253928Y-14533071D01*
X17239643Y-14475929D01*
X17239643Y-14404500D01*
X17253928Y-14347357D01*
X17268214Y-14318786D01*
X17282500Y-14304500D01*
X17311071Y-14290214D01*
X17682500Y-14290214D02*
X17539643Y-14290214D01*
X17525357Y-14433071D01*
X17539643Y-14418786D01*
X17568214Y-14404500D01*
X17639643Y-14404500D01*
X17668214Y-14418786D01*
X17682500Y-14433071D01*
X17696786Y-14461643D01*
X17696786Y-14533071D01*
X17682500Y-14561643D01*
X17668214Y-14575929D01*
X17639643Y-14590214D01*
X17568214Y-14590214D01*
X17539643Y-14575929D01*
X17525357Y-14561643D01*
X17811071Y-14318786D02*
X17825357Y-14304500D01*
X17853928Y-14290214D01*
X17925357Y-14290214D01*
X17953928Y-14304500D01*
X17968214Y-14318786D01*
X17982500Y-14347357D01*
X17982500Y-14375929D01*
X17968214Y-14418786D01*
X17796786Y-14590214D01*
X17982500Y-14590214D01*
X18096786Y-14290214D02*
X18096786Y-14347357D01*
X18211071Y-14290214D02*
X18211071Y-14347357D01*
X18653928Y-14704500D02*
X18639643Y-14690214D01*
X18611071Y-14647357D01*
X18596786Y-14618786D01*
X18582500Y-14575929D01*
X18568214Y-14504500D01*
X18568214Y-14447357D01*
X18582500Y-14375929D01*
X18596786Y-14333071D01*
X18611071Y-14304500D01*
X18639643Y-14261643D01*
X18653928Y-14247357D01*
X18753928Y-14318786D02*
X18768214Y-14304500D01*
X18796786Y-14290214D01*
X18868214Y-14290214D01*
X18896786Y-14304500D01*
X18911071Y-14318786D01*
X18925357Y-14347357D01*
X18925357Y-14375929D01*
X18911071Y-14418786D01*
X18739643Y-14590214D01*
X18925357Y-14590214D01*
X19282500Y-14590214D02*
X19282500Y-14290214D01*
X19411071Y-14590214D02*
X19411071Y-14433071D01*
X19396786Y-14404500D01*
X19368214Y-14390214D01*
X19325357Y-14390214D01*
X19296786Y-14404500D01*
X19282500Y-14418786D01*
X19596786Y-14590214D02*
X19568214Y-14575929D01*
X19553928Y-14561643D01*
X19539643Y-14533071D01*
X19539643Y-14447357D01*
X19553928Y-14418786D01*
X19568214Y-14404500D01*
X19596786Y-14390214D01*
X19639643Y-14390214D01*
X19668214Y-14404500D01*
X19682500Y-14418786D01*
X19696786Y-14447357D01*
X19696786Y-14533071D01*
X19682500Y-14561643D01*
X19668214Y-14575929D01*
X19639643Y-14590214D01*
X19596786Y-14590214D01*
X19868214Y-14590214D02*
X19839643Y-14575929D01*
X19825357Y-14547357D01*
X19825357Y-14290214D01*
X20096786Y-14575929D02*
X20068214Y-14590214D01*
X20011071Y-14590214D01*
X19982500Y-14575929D01*
X19968214Y-14547357D01*
X19968214Y-14433071D01*
X19982500Y-14404500D01*
X20011071Y-14390214D01*
X20068214Y-14390214D01*
X20096786Y-14404500D01*
X20111071Y-14433071D01*
X20111071Y-14461643D01*
X19968214Y-14490214D01*
X20225357Y-14575929D02*
X20253928Y-14590214D01*
X20311071Y-14590214D01*
X20339643Y-14575929D01*
X20353928Y-14547357D01*
X20353928Y-14533071D01*
X20339643Y-14504500D01*
X20311071Y-14490214D01*
X20268214Y-14490214D01*
X20239643Y-14475929D01*
X20225357Y-14447357D01*
X20225357Y-14433071D01*
X20239643Y-14404500D01*
X20268214Y-14390214D01*
X20311071Y-14390214D01*
X20339643Y-14404500D01*
X20453928Y-14704500D02*
X20468214Y-14690214D01*
X20496786Y-14647357D01*
X20511071Y-14618786D01*
X20525357Y-14575929D01*
X20539643Y-14504500D01*
X20539643Y-14447357D01*
X20525357Y-14375929D01*
X20511071Y-14333071D01*
X20496786Y-14304500D01*
X20468214Y-14261643D01*
X20453928Y-14247357D01*
M02*
