G04 #@! TF.GenerationSoftware,KiCad,Pcbnew,(5.1.5)-3*
G04 #@! TF.CreationDate,2023-03-16T00:37:57+01:00*
G04 #@! TF.ProjectId,barcode_scanner,62617263-6f64-4655-9f73-63616e6e6572,rev?*
G04 #@! TF.SameCoordinates,Original*
G04 #@! TF.FileFunction,Copper,L1,Top*
G04 #@! TF.FilePolarity,Positive*
%FSLAX46Y46*%
G04 Gerber Fmt 4.6, Leading zero omitted, Abs format (unit mm)*
G04 Created by KiCad (PCBNEW (5.1.5)-3) date 2023-03-16 00:37:57*
%MOMM*%
%LPD*%
G04 APERTURE LIST*
%ADD10R,1.980000X3.960000*%
%ADD11O,1.980000X3.960000*%
%ADD12C,1.400000*%
%ADD13R,1.700000X1.700000*%
%ADD14O,1.700000X1.700000*%
%ADD15C,2.000000*%
%ADD16R,2.000000X2.000000*%
%ADD17C,0.250000*%
%ADD18C,0.400000*%
%ADD19C,0.254000*%
G04 APERTURE END LIST*
D10*
X169037000Y-120269000D03*
D11*
X174037000Y-120269000D03*
D12*
X171196000Y-106807000D03*
X168656000Y-106807000D03*
X171196000Y-104267000D03*
X168656000Y-104267000D03*
X171196000Y-101727000D03*
X168656000Y-101727000D03*
X171196000Y-99187000D03*
X168656000Y-99187000D03*
X171196000Y-96647000D03*
X168656000Y-96647000D03*
X171196000Y-94107000D03*
X168656000Y-94107000D03*
X171196000Y-91567000D03*
X168656000Y-91567000D03*
X171196000Y-89027000D03*
X168656000Y-89027000D03*
X171196000Y-86487000D03*
X168656000Y-86487000D03*
X171196000Y-83947000D03*
X168656000Y-83947000D03*
X145796000Y-106807000D03*
X143256000Y-106807000D03*
X145796000Y-104267000D03*
X143256000Y-104267000D03*
X145796000Y-101727000D03*
X143256000Y-101727000D03*
X145796000Y-99187000D03*
X143256000Y-99187000D03*
X145796000Y-96647000D03*
X143256000Y-96647000D03*
X145796000Y-94107000D03*
X143256000Y-94107000D03*
X145796000Y-91567000D03*
X143256000Y-91567000D03*
X145796000Y-89027000D03*
X143256000Y-89027000D03*
X145796000Y-86487000D03*
X143256000Y-86487000D03*
X143256000Y-83947000D03*
X145796000Y-83947000D03*
D13*
X176276000Y-92329000D03*
D14*
X178816000Y-92329000D03*
X181356000Y-92329000D03*
X183896000Y-92329000D03*
X183896000Y-99949000D03*
X181356000Y-99949000D03*
X178816000Y-99949000D03*
D13*
X176276000Y-99949000D03*
D14*
X176276000Y-106934000D03*
X178816000Y-106934000D03*
X181356000Y-106934000D03*
D13*
X183896000Y-106934000D03*
D14*
X181356000Y-85471000D03*
X178816000Y-85471000D03*
D13*
X176276000Y-85471000D03*
D15*
X183896000Y-124059000D03*
D16*
X183896000Y-116459000D03*
D17*
X167666051Y-91567000D02*
X163830000Y-95403051D01*
X168656000Y-91567000D02*
X167666051Y-91567000D01*
X163830000Y-95403051D02*
X163830000Y-122047000D01*
X163830000Y-122047000D02*
X165989000Y-124206000D01*
X165989000Y-124206000D02*
X179451000Y-124206000D01*
X179451000Y-124206000D02*
X186563000Y-117094000D01*
X186563000Y-102616000D02*
X183896000Y-99949000D01*
X186563000Y-117094000D02*
X186563000Y-102616000D01*
X162814000Y-122682000D02*
X162814000Y-93879051D01*
X162814000Y-93879051D02*
X167666051Y-89027000D01*
X183007000Y-98298000D02*
X185166000Y-98298000D01*
X180086000Y-124968000D02*
X165100000Y-124968000D01*
X181356000Y-99949000D02*
X183007000Y-98298000D01*
X167666051Y-89027000D02*
X168656000Y-89027000D01*
X185166000Y-98298000D02*
X187325000Y-100457000D01*
X165100000Y-124968000D02*
X162814000Y-122682000D01*
X187325000Y-117729000D02*
X180086000Y-124968000D01*
X187325000Y-100457000D02*
X187325000Y-117729000D01*
X167666051Y-96647000D02*
X164846000Y-99467051D01*
X168656000Y-96647000D02*
X167666051Y-96647000D01*
X164846000Y-99467051D02*
X164846000Y-121793000D01*
X164846000Y-121793000D02*
X166624000Y-123571000D01*
X166624000Y-123571000D02*
X178308000Y-123571000D01*
X183896000Y-117983000D02*
X183896000Y-116459000D01*
X178308000Y-123571000D02*
X183896000Y-117983000D01*
D18*
X167666051Y-101727000D02*
X166497000Y-102896051D01*
X168656000Y-101727000D02*
X167666051Y-101727000D01*
X166497000Y-119119000D02*
X167647000Y-120269000D01*
X167647000Y-120269000D02*
X169037000Y-120269000D01*
X166497000Y-102896051D02*
X166497000Y-119119000D01*
X174625000Y-88900000D02*
X180594000Y-88900000D01*
X173609000Y-89916000D02*
X174625000Y-88900000D01*
X169037000Y-117889000D02*
X170467000Y-116459000D01*
X169037000Y-120269000D02*
X169037000Y-117889000D01*
X181356000Y-88138000D02*
X181356000Y-85471000D01*
X170467000Y-116459000D02*
X172847000Y-116459000D01*
X180594000Y-88900000D02*
X181356000Y-88138000D01*
X172847000Y-116459000D02*
X173609000Y-115697000D01*
X173609000Y-115697000D02*
X173609000Y-89916000D01*
D19*
G36*
X189840000Y-126340000D02*
G01*
X140360000Y-126340000D01*
X140360000Y-122979818D01*
X141091701Y-122979818D01*
X141091701Y-123456182D01*
X141184635Y-123923392D01*
X141366931Y-124363494D01*
X141631585Y-124759576D01*
X141968424Y-125096415D01*
X142364506Y-125361069D01*
X142804608Y-125543365D01*
X143271818Y-125636299D01*
X143748182Y-125636299D01*
X144215392Y-125543365D01*
X144655494Y-125361069D01*
X145051576Y-125096415D01*
X145388415Y-124759576D01*
X145653069Y-124363494D01*
X145835365Y-123923392D01*
X145928299Y-123456182D01*
X145928299Y-122979818D01*
X145835365Y-122512608D01*
X145653069Y-122072506D01*
X145388415Y-121676424D01*
X145051576Y-121339585D01*
X144655494Y-121074931D01*
X144215392Y-120892635D01*
X143748182Y-120799701D01*
X143271818Y-120799701D01*
X142804608Y-120892635D01*
X142364506Y-121074931D01*
X141968424Y-121339585D01*
X141631585Y-121676424D01*
X141366931Y-122072506D01*
X141184635Y-122512608D01*
X141091701Y-122979818D01*
X140360000Y-122979818D01*
X140360000Y-82804000D01*
X142563685Y-82804000D01*
X142404987Y-82910038D01*
X142219038Y-83095987D01*
X142072939Y-83314641D01*
X141972304Y-83557595D01*
X141921000Y-83815514D01*
X141921000Y-84078486D01*
X141972304Y-84336405D01*
X142072939Y-84579359D01*
X142219038Y-84798013D01*
X142404987Y-84983962D01*
X142623641Y-85130061D01*
X142833530Y-85217000D01*
X142623641Y-85303939D01*
X142404987Y-85450038D01*
X142219038Y-85635987D01*
X142072939Y-85854641D01*
X141972304Y-86097595D01*
X141921000Y-86355514D01*
X141921000Y-86618486D01*
X141972304Y-86876405D01*
X142072939Y-87119359D01*
X142219038Y-87338013D01*
X142404987Y-87523962D01*
X142623641Y-87670061D01*
X142833530Y-87757000D01*
X142623641Y-87843939D01*
X142404987Y-87990038D01*
X142219038Y-88175987D01*
X142072939Y-88394641D01*
X141972304Y-88637595D01*
X141921000Y-88895514D01*
X141921000Y-89158486D01*
X141972304Y-89416405D01*
X142072939Y-89659359D01*
X142219038Y-89878013D01*
X142404987Y-90063962D01*
X142623641Y-90210061D01*
X142833530Y-90297000D01*
X142623641Y-90383939D01*
X142404987Y-90530038D01*
X142219038Y-90715987D01*
X142072939Y-90934641D01*
X141972304Y-91177595D01*
X141921000Y-91435514D01*
X141921000Y-91698486D01*
X141972304Y-91956405D01*
X142072939Y-92199359D01*
X142219038Y-92418013D01*
X142404987Y-92603962D01*
X142623641Y-92750061D01*
X142833530Y-92837000D01*
X142623641Y-92923939D01*
X142404987Y-93070038D01*
X142219038Y-93255987D01*
X142072939Y-93474641D01*
X141972304Y-93717595D01*
X141921000Y-93975514D01*
X141921000Y-94238486D01*
X141972304Y-94496405D01*
X142072939Y-94739359D01*
X142219038Y-94958013D01*
X142404987Y-95143962D01*
X142623641Y-95290061D01*
X142833530Y-95377000D01*
X142623641Y-95463939D01*
X142404987Y-95610038D01*
X142219038Y-95795987D01*
X142072939Y-96014641D01*
X141972304Y-96257595D01*
X141921000Y-96515514D01*
X141921000Y-96778486D01*
X141972304Y-97036405D01*
X142072939Y-97279359D01*
X142219038Y-97498013D01*
X142404987Y-97683962D01*
X142623641Y-97830061D01*
X142833530Y-97917000D01*
X142623641Y-98003939D01*
X142404987Y-98150038D01*
X142219038Y-98335987D01*
X142072939Y-98554641D01*
X141972304Y-98797595D01*
X141921000Y-99055514D01*
X141921000Y-99318486D01*
X141972304Y-99576405D01*
X142072939Y-99819359D01*
X142219038Y-100038013D01*
X142404987Y-100223962D01*
X142623641Y-100370061D01*
X142833530Y-100457000D01*
X142623641Y-100543939D01*
X142404987Y-100690038D01*
X142219038Y-100875987D01*
X142072939Y-101094641D01*
X141972304Y-101337595D01*
X141921000Y-101595514D01*
X141921000Y-101858486D01*
X141972304Y-102116405D01*
X142072939Y-102359359D01*
X142219038Y-102578013D01*
X142404987Y-102763962D01*
X142623641Y-102910061D01*
X142833530Y-102997000D01*
X142623641Y-103083939D01*
X142404987Y-103230038D01*
X142219038Y-103415987D01*
X142072939Y-103634641D01*
X141972304Y-103877595D01*
X141921000Y-104135514D01*
X141921000Y-104398486D01*
X141972304Y-104656405D01*
X142072939Y-104899359D01*
X142219038Y-105118013D01*
X142404987Y-105303962D01*
X142623641Y-105450061D01*
X142833530Y-105537000D01*
X142623641Y-105623939D01*
X142404987Y-105770038D01*
X142219038Y-105955987D01*
X142072939Y-106174641D01*
X141972304Y-106417595D01*
X141921000Y-106675514D01*
X141921000Y-106938486D01*
X141972304Y-107196405D01*
X142072939Y-107439359D01*
X142219038Y-107658013D01*
X142404987Y-107843962D01*
X142623641Y-107990061D01*
X142866595Y-108090696D01*
X143124514Y-108142000D01*
X143387486Y-108142000D01*
X143645405Y-108090696D01*
X143888359Y-107990061D01*
X144107013Y-107843962D01*
X144292962Y-107658013D01*
X144439061Y-107439359D01*
X144526000Y-107229470D01*
X144612939Y-107439359D01*
X144759038Y-107658013D01*
X144944987Y-107843962D01*
X145163641Y-107990061D01*
X145406595Y-108090696D01*
X145664514Y-108142000D01*
X145927486Y-108142000D01*
X146185405Y-108090696D01*
X146428359Y-107990061D01*
X146647013Y-107843962D01*
X146832962Y-107658013D01*
X146979061Y-107439359D01*
X147079696Y-107196405D01*
X147131000Y-106938486D01*
X147131000Y-106675514D01*
X147079696Y-106417595D01*
X146979061Y-106174641D01*
X146832962Y-105955987D01*
X146647013Y-105770038D01*
X146428359Y-105623939D01*
X146218470Y-105537000D01*
X146428359Y-105450061D01*
X146647013Y-105303962D01*
X146832962Y-105118013D01*
X146979061Y-104899359D01*
X147079696Y-104656405D01*
X147131000Y-104398486D01*
X147131000Y-104135514D01*
X147079696Y-103877595D01*
X146979061Y-103634641D01*
X146832962Y-103415987D01*
X146647013Y-103230038D01*
X146428359Y-103083939D01*
X146214556Y-102995379D01*
X146377366Y-102935935D01*
X146478203Y-102882037D01*
X146537664Y-102648269D01*
X145796000Y-101906605D01*
X145054336Y-102648269D01*
X145113797Y-102882037D01*
X145352242Y-102992934D01*
X145371827Y-102997706D01*
X145163641Y-103083939D01*
X144944987Y-103230038D01*
X144759038Y-103415987D01*
X144612939Y-103634641D01*
X144526000Y-103844530D01*
X144439061Y-103634641D01*
X144292962Y-103415987D01*
X144107013Y-103230038D01*
X143888359Y-103083939D01*
X143678470Y-102997000D01*
X143888359Y-102910061D01*
X144107013Y-102763962D01*
X144292962Y-102578013D01*
X144439061Y-102359359D01*
X144527621Y-102145556D01*
X144587065Y-102308366D01*
X144640963Y-102409203D01*
X144874731Y-102468664D01*
X145616395Y-101727000D01*
X145975605Y-101727000D01*
X146717269Y-102468664D01*
X146951037Y-102409203D01*
X147061934Y-102170758D01*
X147124183Y-101915260D01*
X147135390Y-101652527D01*
X147095125Y-101392656D01*
X147004935Y-101145634D01*
X146951037Y-101044797D01*
X146717269Y-100985336D01*
X145975605Y-101727000D01*
X145616395Y-101727000D01*
X144874731Y-100985336D01*
X144640963Y-101044797D01*
X144530066Y-101283242D01*
X144525294Y-101302827D01*
X144439061Y-101094641D01*
X144292962Y-100875987D01*
X144107013Y-100690038D01*
X143888359Y-100543939D01*
X143678470Y-100457000D01*
X143888359Y-100370061D01*
X144107013Y-100223962D01*
X144292962Y-100038013D01*
X144439061Y-99819359D01*
X144526000Y-99609470D01*
X144612939Y-99819359D01*
X144759038Y-100038013D01*
X144944987Y-100223962D01*
X145163641Y-100370061D01*
X145377444Y-100458621D01*
X145214634Y-100518065D01*
X145113797Y-100571963D01*
X145054336Y-100805731D01*
X145796000Y-101547395D01*
X146537664Y-100805731D01*
X146478203Y-100571963D01*
X146239758Y-100461066D01*
X146220173Y-100456294D01*
X146428359Y-100370061D01*
X146647013Y-100223962D01*
X146832962Y-100038013D01*
X146979061Y-99819359D01*
X147079696Y-99576405D01*
X147131000Y-99318486D01*
X147131000Y-99055514D01*
X147079696Y-98797595D01*
X146979061Y-98554641D01*
X146832962Y-98335987D01*
X146647013Y-98150038D01*
X146428359Y-98003939D01*
X146218470Y-97917000D01*
X146428359Y-97830061D01*
X146647013Y-97683962D01*
X146832962Y-97498013D01*
X146979061Y-97279359D01*
X147079696Y-97036405D01*
X147131000Y-96778486D01*
X147131000Y-96515514D01*
X147079696Y-96257595D01*
X146979061Y-96014641D01*
X146832962Y-95795987D01*
X146647013Y-95610038D01*
X146428359Y-95463939D01*
X146218470Y-95377000D01*
X146428359Y-95290061D01*
X146647013Y-95143962D01*
X146832962Y-94958013D01*
X146979061Y-94739359D01*
X147079696Y-94496405D01*
X147131000Y-94238486D01*
X147131000Y-93975514D01*
X147079696Y-93717595D01*
X146979061Y-93474641D01*
X146832962Y-93255987D01*
X146647013Y-93070038D01*
X146428359Y-92923939D01*
X146218470Y-92837000D01*
X146428359Y-92750061D01*
X146647013Y-92603962D01*
X146832962Y-92418013D01*
X146979061Y-92199359D01*
X147079696Y-91956405D01*
X147131000Y-91698486D01*
X147131000Y-91435514D01*
X147079696Y-91177595D01*
X146979061Y-90934641D01*
X146832962Y-90715987D01*
X146647013Y-90530038D01*
X146428359Y-90383939D01*
X146218470Y-90297000D01*
X146428359Y-90210061D01*
X146647013Y-90063962D01*
X146832962Y-89878013D01*
X146979061Y-89659359D01*
X147079696Y-89416405D01*
X147131000Y-89158486D01*
X147131000Y-88895514D01*
X147079696Y-88637595D01*
X146979061Y-88394641D01*
X146832962Y-88175987D01*
X146647013Y-87990038D01*
X146428359Y-87843939D01*
X146218470Y-87757000D01*
X146428359Y-87670061D01*
X146647013Y-87523962D01*
X146832962Y-87338013D01*
X146979061Y-87119359D01*
X147079696Y-86876405D01*
X147131000Y-86618486D01*
X147131000Y-86355514D01*
X147079696Y-86097595D01*
X146979061Y-85854641D01*
X146832962Y-85635987D01*
X146647013Y-85450038D01*
X146428359Y-85303939D01*
X146218470Y-85217000D01*
X146428359Y-85130061D01*
X146647013Y-84983962D01*
X146832962Y-84798013D01*
X146979061Y-84579359D01*
X147079696Y-84336405D01*
X147131000Y-84078486D01*
X147131000Y-83815514D01*
X147079696Y-83557595D01*
X146979061Y-83314641D01*
X146832962Y-83095987D01*
X146647013Y-82910038D01*
X146488315Y-82804000D01*
X167963685Y-82804000D01*
X167804987Y-82910038D01*
X167619038Y-83095987D01*
X167472939Y-83314641D01*
X167372304Y-83557595D01*
X167321000Y-83815514D01*
X167321000Y-84078486D01*
X167372304Y-84336405D01*
X167472939Y-84579359D01*
X167619038Y-84798013D01*
X167804987Y-84983962D01*
X168023641Y-85130061D01*
X168233530Y-85217000D01*
X168023641Y-85303939D01*
X167804987Y-85450038D01*
X167619038Y-85635987D01*
X167472939Y-85854641D01*
X167372304Y-86097595D01*
X167321000Y-86355514D01*
X167321000Y-86618486D01*
X167372304Y-86876405D01*
X167472939Y-87119359D01*
X167619038Y-87338013D01*
X167804987Y-87523962D01*
X168023641Y-87670061D01*
X168233530Y-87757000D01*
X168023641Y-87843939D01*
X167804987Y-87990038D01*
X167619038Y-88175987D01*
X167553260Y-88274432D01*
X167517065Y-88277997D01*
X167373804Y-88321454D01*
X167241775Y-88392026D01*
X167126050Y-88486999D01*
X167102252Y-88515997D01*
X162302998Y-93315252D01*
X162274000Y-93339050D01*
X162250202Y-93368048D01*
X162250201Y-93368049D01*
X162179026Y-93454775D01*
X162108454Y-93586805D01*
X162089541Y-93649155D01*
X162064998Y-93730065D01*
X162054001Y-93841718D01*
X162050324Y-93879051D01*
X162054001Y-93916384D01*
X162054000Y-122644678D01*
X162050324Y-122682000D01*
X162054000Y-122719322D01*
X162054000Y-122719332D01*
X162064997Y-122830985D01*
X162108454Y-122974246D01*
X162179026Y-123106276D01*
X162212221Y-123146724D01*
X162273999Y-123222001D01*
X162303003Y-123245804D01*
X164536201Y-125479003D01*
X164559999Y-125508001D01*
X164675724Y-125602974D01*
X164807753Y-125673546D01*
X164951014Y-125717003D01*
X165062667Y-125728000D01*
X165062676Y-125728000D01*
X165099999Y-125731676D01*
X165137322Y-125728000D01*
X180048678Y-125728000D01*
X180086000Y-125731676D01*
X180123322Y-125728000D01*
X180123333Y-125728000D01*
X180234986Y-125717003D01*
X180378247Y-125673546D01*
X180510276Y-125602974D01*
X180626001Y-125508001D01*
X180649804Y-125478997D01*
X182268490Y-123860311D01*
X182261000Y-123897967D01*
X182261000Y-124220033D01*
X182323832Y-124535912D01*
X182447082Y-124833463D01*
X182626013Y-125101252D01*
X182853748Y-125328987D01*
X183121537Y-125507918D01*
X183419088Y-125631168D01*
X183734967Y-125694000D01*
X184057033Y-125694000D01*
X184372912Y-125631168D01*
X184670463Y-125507918D01*
X184938252Y-125328987D01*
X185165987Y-125101252D01*
X185344918Y-124833463D01*
X185468168Y-124535912D01*
X185531000Y-124220033D01*
X185531000Y-123897967D01*
X185468168Y-123582088D01*
X185344918Y-123284537D01*
X185165987Y-123016748D01*
X184938252Y-122789013D01*
X184670463Y-122610082D01*
X184372912Y-122486832D01*
X184057033Y-122424000D01*
X183734967Y-122424000D01*
X183697311Y-122431490D01*
X187836003Y-118292799D01*
X187865001Y-118269001D01*
X187891332Y-118236917D01*
X187959974Y-118153277D01*
X188030546Y-118021247D01*
X188040165Y-117989537D01*
X188074003Y-117877986D01*
X188085000Y-117766333D01*
X188085000Y-117766323D01*
X188088676Y-117729000D01*
X188085000Y-117691677D01*
X188085000Y-100494322D01*
X188088676Y-100456999D01*
X188085000Y-100419676D01*
X188085000Y-100419667D01*
X188074003Y-100308014D01*
X188030546Y-100164753D01*
X187997017Y-100102025D01*
X187959974Y-100032723D01*
X187888799Y-99945997D01*
X187865001Y-99916999D01*
X187836004Y-99893202D01*
X185729804Y-97787003D01*
X185706001Y-97757999D01*
X185590276Y-97663026D01*
X185458247Y-97592454D01*
X185314986Y-97548997D01*
X185203333Y-97538000D01*
X185203322Y-97538000D01*
X185166000Y-97534324D01*
X185128678Y-97538000D01*
X183044333Y-97538000D01*
X183007000Y-97534323D01*
X182969667Y-97538000D01*
X182858014Y-97548997D01*
X182714753Y-97592454D01*
X182582724Y-97663026D01*
X182466999Y-97757999D01*
X182443201Y-97786997D01*
X181722408Y-98507790D01*
X181502260Y-98464000D01*
X181209740Y-98464000D01*
X180922842Y-98521068D01*
X180652589Y-98633010D01*
X180409368Y-98795525D01*
X180202525Y-99002368D01*
X180080805Y-99184534D01*
X180011178Y-99067645D01*
X179816269Y-98851412D01*
X179582920Y-98677359D01*
X179320099Y-98552175D01*
X179172890Y-98507524D01*
X178943000Y-98628845D01*
X178943000Y-99822000D01*
X178963000Y-99822000D01*
X178963000Y-100076000D01*
X178943000Y-100076000D01*
X178943000Y-101269155D01*
X179172890Y-101390476D01*
X179320099Y-101345825D01*
X179582920Y-101220641D01*
X179816269Y-101046588D01*
X180011178Y-100830355D01*
X180080805Y-100713466D01*
X180202525Y-100895632D01*
X180409368Y-101102475D01*
X180652589Y-101264990D01*
X180922842Y-101376932D01*
X181209740Y-101434000D01*
X181502260Y-101434000D01*
X181789158Y-101376932D01*
X182059411Y-101264990D01*
X182302632Y-101102475D01*
X182509475Y-100895632D01*
X182626000Y-100721240D01*
X182742525Y-100895632D01*
X182949368Y-101102475D01*
X183192589Y-101264990D01*
X183462842Y-101376932D01*
X183749740Y-101434000D01*
X184042260Y-101434000D01*
X184262408Y-101390209D01*
X185803001Y-102930803D01*
X185803000Y-116779198D01*
X185534072Y-117048126D01*
X185534072Y-115459000D01*
X185521812Y-115334518D01*
X185485502Y-115214820D01*
X185426537Y-115104506D01*
X185347185Y-115007815D01*
X185250494Y-114928463D01*
X185140180Y-114869498D01*
X185020482Y-114833188D01*
X184896000Y-114820928D01*
X182896000Y-114820928D01*
X182771518Y-114833188D01*
X182651820Y-114869498D01*
X182541506Y-114928463D01*
X182444815Y-115007815D01*
X182365463Y-115104506D01*
X182306498Y-115214820D01*
X182270188Y-115334518D01*
X182257928Y-115459000D01*
X182257928Y-117459000D01*
X182270188Y-117583482D01*
X182306498Y-117703180D01*
X182365463Y-117813494D01*
X182444815Y-117910185D01*
X182541506Y-117989537D01*
X182651820Y-118048502D01*
X182731519Y-118072678D01*
X177993199Y-122811000D01*
X174518693Y-122811000D01*
X174661869Y-122767568D01*
X174944170Y-122616675D01*
X175191608Y-122413608D01*
X175394675Y-122166170D01*
X175545568Y-121883869D01*
X175638487Y-121577556D01*
X175662000Y-121338824D01*
X175662000Y-119199176D01*
X175638487Y-118960444D01*
X175545568Y-118654131D01*
X175394675Y-118371830D01*
X175191608Y-118124392D01*
X174944169Y-117921325D01*
X174661868Y-117770432D01*
X174355555Y-117677513D01*
X174037000Y-117646138D01*
X173718444Y-117677513D01*
X173412131Y-117770432D01*
X173129830Y-117921325D01*
X172882392Y-118124392D01*
X172679325Y-118371831D01*
X172528432Y-118654132D01*
X172435513Y-118960445D01*
X172412000Y-119199177D01*
X172412001Y-121338824D01*
X172435514Y-121577556D01*
X172528433Y-121883869D01*
X172679326Y-122166170D01*
X172882393Y-122413608D01*
X173129831Y-122616675D01*
X173412132Y-122767568D01*
X173555308Y-122811000D01*
X170322632Y-122811000D01*
X170381494Y-122779537D01*
X170478185Y-122700185D01*
X170557537Y-122603494D01*
X170616502Y-122493180D01*
X170652812Y-122373482D01*
X170665072Y-122249000D01*
X170665072Y-118289000D01*
X170652812Y-118164518D01*
X170616502Y-118044820D01*
X170557537Y-117934506D01*
X170478185Y-117837815D01*
X170381494Y-117758463D01*
X170359931Y-117746937D01*
X170812868Y-117294000D01*
X172805982Y-117294000D01*
X172847000Y-117298040D01*
X172888018Y-117294000D01*
X172888019Y-117294000D01*
X173010689Y-117281918D01*
X173168087Y-117234172D01*
X173313146Y-117156636D01*
X173440291Y-117052291D01*
X173466445Y-117020422D01*
X174170433Y-116316436D01*
X174202291Y-116290291D01*
X174306636Y-116163146D01*
X174384172Y-116018087D01*
X174431918Y-115860689D01*
X174444000Y-115738019D01*
X174444000Y-115738018D01*
X174448040Y-115697000D01*
X174444000Y-115655982D01*
X174444000Y-106787740D01*
X174791000Y-106787740D01*
X174791000Y-107080260D01*
X174848068Y-107367158D01*
X174960010Y-107637411D01*
X175122525Y-107880632D01*
X175329368Y-108087475D01*
X175572589Y-108249990D01*
X175842842Y-108361932D01*
X176129740Y-108419000D01*
X176422260Y-108419000D01*
X176709158Y-108361932D01*
X176979411Y-108249990D01*
X177222632Y-108087475D01*
X177429475Y-107880632D01*
X177546000Y-107706240D01*
X177662525Y-107880632D01*
X177869368Y-108087475D01*
X178112589Y-108249990D01*
X178382842Y-108361932D01*
X178669740Y-108419000D01*
X178962260Y-108419000D01*
X179249158Y-108361932D01*
X179519411Y-108249990D01*
X179762632Y-108087475D01*
X179969475Y-107880632D01*
X180086000Y-107706240D01*
X180202525Y-107880632D01*
X180409368Y-108087475D01*
X180652589Y-108249990D01*
X180922842Y-108361932D01*
X181209740Y-108419000D01*
X181502260Y-108419000D01*
X181789158Y-108361932D01*
X182059411Y-108249990D01*
X182302632Y-108087475D01*
X182434487Y-107955620D01*
X182456498Y-108028180D01*
X182515463Y-108138494D01*
X182594815Y-108235185D01*
X182691506Y-108314537D01*
X182801820Y-108373502D01*
X182921518Y-108409812D01*
X183046000Y-108422072D01*
X184746000Y-108422072D01*
X184870482Y-108409812D01*
X184990180Y-108373502D01*
X185100494Y-108314537D01*
X185197185Y-108235185D01*
X185276537Y-108138494D01*
X185335502Y-108028180D01*
X185371812Y-107908482D01*
X185384072Y-107784000D01*
X185384072Y-106084000D01*
X185371812Y-105959518D01*
X185335502Y-105839820D01*
X185276537Y-105729506D01*
X185197185Y-105632815D01*
X185100494Y-105553463D01*
X184990180Y-105494498D01*
X184870482Y-105458188D01*
X184746000Y-105445928D01*
X183046000Y-105445928D01*
X182921518Y-105458188D01*
X182801820Y-105494498D01*
X182691506Y-105553463D01*
X182594815Y-105632815D01*
X182515463Y-105729506D01*
X182456498Y-105839820D01*
X182434487Y-105912380D01*
X182302632Y-105780525D01*
X182059411Y-105618010D01*
X181789158Y-105506068D01*
X181502260Y-105449000D01*
X181209740Y-105449000D01*
X180922842Y-105506068D01*
X180652589Y-105618010D01*
X180409368Y-105780525D01*
X180202525Y-105987368D01*
X180086000Y-106161760D01*
X179969475Y-105987368D01*
X179762632Y-105780525D01*
X179519411Y-105618010D01*
X179249158Y-105506068D01*
X178962260Y-105449000D01*
X178669740Y-105449000D01*
X178382842Y-105506068D01*
X178112589Y-105618010D01*
X177869368Y-105780525D01*
X177662525Y-105987368D01*
X177546000Y-106161760D01*
X177429475Y-105987368D01*
X177222632Y-105780525D01*
X176979411Y-105618010D01*
X176709158Y-105506068D01*
X176422260Y-105449000D01*
X176129740Y-105449000D01*
X175842842Y-105506068D01*
X175572589Y-105618010D01*
X175329368Y-105780525D01*
X175122525Y-105987368D01*
X174960010Y-106230589D01*
X174848068Y-106500842D01*
X174791000Y-106787740D01*
X174444000Y-106787740D01*
X174444000Y-99099000D01*
X174787928Y-99099000D01*
X174787928Y-100799000D01*
X174800188Y-100923482D01*
X174836498Y-101043180D01*
X174895463Y-101153494D01*
X174974815Y-101250185D01*
X175071506Y-101329537D01*
X175181820Y-101388502D01*
X175301518Y-101424812D01*
X175426000Y-101437072D01*
X177126000Y-101437072D01*
X177250482Y-101424812D01*
X177370180Y-101388502D01*
X177480494Y-101329537D01*
X177577185Y-101250185D01*
X177656537Y-101153494D01*
X177715502Y-101043180D01*
X177739966Y-100962534D01*
X177815731Y-101046588D01*
X178049080Y-101220641D01*
X178311901Y-101345825D01*
X178459110Y-101390476D01*
X178689000Y-101269155D01*
X178689000Y-100076000D01*
X178669000Y-100076000D01*
X178669000Y-99822000D01*
X178689000Y-99822000D01*
X178689000Y-98628845D01*
X178459110Y-98507524D01*
X178311901Y-98552175D01*
X178049080Y-98677359D01*
X177815731Y-98851412D01*
X177739966Y-98935466D01*
X177715502Y-98854820D01*
X177656537Y-98744506D01*
X177577185Y-98647815D01*
X177480494Y-98568463D01*
X177370180Y-98509498D01*
X177250482Y-98473188D01*
X177126000Y-98460928D01*
X175426000Y-98460928D01*
X175301518Y-98473188D01*
X175181820Y-98509498D01*
X175071506Y-98568463D01*
X174974815Y-98647815D01*
X174895463Y-98744506D01*
X174836498Y-98854820D01*
X174800188Y-98974518D01*
X174787928Y-99099000D01*
X174444000Y-99099000D01*
X174444000Y-91479000D01*
X174787928Y-91479000D01*
X174787928Y-93179000D01*
X174800188Y-93303482D01*
X174836498Y-93423180D01*
X174895463Y-93533494D01*
X174974815Y-93630185D01*
X175071506Y-93709537D01*
X175181820Y-93768502D01*
X175301518Y-93804812D01*
X175426000Y-93817072D01*
X177126000Y-93817072D01*
X177250482Y-93804812D01*
X177370180Y-93768502D01*
X177480494Y-93709537D01*
X177577185Y-93630185D01*
X177656537Y-93533494D01*
X177715502Y-93423180D01*
X177739966Y-93342534D01*
X177815731Y-93426588D01*
X178049080Y-93600641D01*
X178311901Y-93725825D01*
X178459110Y-93770476D01*
X178689000Y-93649155D01*
X178689000Y-92456000D01*
X178669000Y-92456000D01*
X178669000Y-92202000D01*
X178689000Y-92202000D01*
X178689000Y-91008845D01*
X178943000Y-91008845D01*
X178943000Y-92202000D01*
X178963000Y-92202000D01*
X178963000Y-92456000D01*
X178943000Y-92456000D01*
X178943000Y-93649155D01*
X179172890Y-93770476D01*
X179320099Y-93725825D01*
X179582920Y-93600641D01*
X179816269Y-93426588D01*
X180011178Y-93210355D01*
X180080805Y-93093466D01*
X180202525Y-93275632D01*
X180409368Y-93482475D01*
X180652589Y-93644990D01*
X180922842Y-93756932D01*
X181209740Y-93814000D01*
X181502260Y-93814000D01*
X181789158Y-93756932D01*
X182059411Y-93644990D01*
X182302632Y-93482475D01*
X182509475Y-93275632D01*
X182626000Y-93101240D01*
X182742525Y-93275632D01*
X182949368Y-93482475D01*
X183192589Y-93644990D01*
X183462842Y-93756932D01*
X183749740Y-93814000D01*
X184042260Y-93814000D01*
X184329158Y-93756932D01*
X184599411Y-93644990D01*
X184842632Y-93482475D01*
X185049475Y-93275632D01*
X185211990Y-93032411D01*
X185323932Y-92762158D01*
X185381000Y-92475260D01*
X185381000Y-92182740D01*
X185323932Y-91895842D01*
X185211990Y-91625589D01*
X185049475Y-91382368D01*
X184842632Y-91175525D01*
X184599411Y-91013010D01*
X184329158Y-90901068D01*
X184042260Y-90844000D01*
X183749740Y-90844000D01*
X183462842Y-90901068D01*
X183192589Y-91013010D01*
X182949368Y-91175525D01*
X182742525Y-91382368D01*
X182626000Y-91556760D01*
X182509475Y-91382368D01*
X182302632Y-91175525D01*
X182059411Y-91013010D01*
X181789158Y-90901068D01*
X181502260Y-90844000D01*
X181209740Y-90844000D01*
X180922842Y-90901068D01*
X180652589Y-91013010D01*
X180409368Y-91175525D01*
X180202525Y-91382368D01*
X180080805Y-91564534D01*
X180011178Y-91447645D01*
X179816269Y-91231412D01*
X179582920Y-91057359D01*
X179320099Y-90932175D01*
X179172890Y-90887524D01*
X178943000Y-91008845D01*
X178689000Y-91008845D01*
X178459110Y-90887524D01*
X178311901Y-90932175D01*
X178049080Y-91057359D01*
X177815731Y-91231412D01*
X177739966Y-91315466D01*
X177715502Y-91234820D01*
X177656537Y-91124506D01*
X177577185Y-91027815D01*
X177480494Y-90948463D01*
X177370180Y-90889498D01*
X177250482Y-90853188D01*
X177126000Y-90840928D01*
X175426000Y-90840928D01*
X175301518Y-90853188D01*
X175181820Y-90889498D01*
X175071506Y-90948463D01*
X174974815Y-91027815D01*
X174895463Y-91124506D01*
X174836498Y-91234820D01*
X174800188Y-91354518D01*
X174787928Y-91479000D01*
X174444000Y-91479000D01*
X174444000Y-90261867D01*
X174970868Y-89735000D01*
X180552982Y-89735000D01*
X180594000Y-89739040D01*
X180635018Y-89735000D01*
X180635019Y-89735000D01*
X180757689Y-89722918D01*
X180915087Y-89675172D01*
X181060146Y-89597636D01*
X181187291Y-89493291D01*
X181213445Y-89461422D01*
X181917433Y-88757436D01*
X181949291Y-88731291D01*
X182053636Y-88604146D01*
X182131172Y-88459087D01*
X182178918Y-88301689D01*
X182191000Y-88179019D01*
X182191000Y-88179018D01*
X182195040Y-88138000D01*
X182191000Y-88096982D01*
X182191000Y-86699065D01*
X182302632Y-86624475D01*
X182509475Y-86417632D01*
X182671990Y-86174411D01*
X182783932Y-85904158D01*
X182841000Y-85617260D01*
X182841000Y-85324740D01*
X182783932Y-85037842D01*
X182671990Y-84767589D01*
X182509475Y-84524368D01*
X182302632Y-84317525D01*
X182059411Y-84155010D01*
X181789158Y-84043068D01*
X181502260Y-83986000D01*
X181209740Y-83986000D01*
X180922842Y-84043068D01*
X180652589Y-84155010D01*
X180409368Y-84317525D01*
X180202525Y-84524368D01*
X180080805Y-84706534D01*
X180011178Y-84589645D01*
X179816269Y-84373412D01*
X179582920Y-84199359D01*
X179320099Y-84074175D01*
X179172890Y-84029524D01*
X178943000Y-84150845D01*
X178943000Y-85344000D01*
X178963000Y-85344000D01*
X178963000Y-85598000D01*
X178943000Y-85598000D01*
X178943000Y-86791155D01*
X179172890Y-86912476D01*
X179320099Y-86867825D01*
X179582920Y-86742641D01*
X179816269Y-86568588D01*
X180011178Y-86352355D01*
X180080805Y-86235466D01*
X180202525Y-86417632D01*
X180409368Y-86624475D01*
X180521001Y-86699065D01*
X180521000Y-87792132D01*
X180248132Y-88065000D01*
X174666018Y-88065000D01*
X174625000Y-88060960D01*
X174583981Y-88065000D01*
X174461311Y-88077082D01*
X174303913Y-88124828D01*
X174158854Y-88202364D01*
X174031709Y-88306709D01*
X174005561Y-88338571D01*
X173047574Y-89296559D01*
X173015710Y-89322709D01*
X172938816Y-89416405D01*
X172911364Y-89449855D01*
X172833828Y-89594914D01*
X172786082Y-89752312D01*
X172769960Y-89916000D01*
X172774001Y-89957029D01*
X172774000Y-115351132D01*
X172501132Y-115624000D01*
X170508007Y-115624000D01*
X170466999Y-115619961D01*
X170425991Y-115624000D01*
X170425981Y-115624000D01*
X170303311Y-115636082D01*
X170145913Y-115683828D01*
X170000854Y-115761364D01*
X169873709Y-115865709D01*
X169847561Y-115897571D01*
X168475574Y-117269559D01*
X168443710Y-117295709D01*
X168417562Y-117327571D01*
X168339364Y-117422855D01*
X168261828Y-117567914D01*
X168236646Y-117650928D01*
X168047000Y-117650928D01*
X167922518Y-117663188D01*
X167802820Y-117699498D01*
X167692506Y-117758463D01*
X167595815Y-117837815D01*
X167516463Y-117934506D01*
X167457498Y-118044820D01*
X167421188Y-118164518D01*
X167408928Y-118289000D01*
X167408928Y-118850060D01*
X167332000Y-118773133D01*
X167332000Y-106993786D01*
X167372304Y-107196405D01*
X167472939Y-107439359D01*
X167619038Y-107658013D01*
X167804987Y-107843962D01*
X168023641Y-107990061D01*
X168266595Y-108090696D01*
X168524514Y-108142000D01*
X168787486Y-108142000D01*
X169045405Y-108090696D01*
X169288359Y-107990061D01*
X169507013Y-107843962D01*
X169692962Y-107658013D01*
X169839061Y-107439359D01*
X169926000Y-107229470D01*
X170012939Y-107439359D01*
X170159038Y-107658013D01*
X170344987Y-107843962D01*
X170563641Y-107990061D01*
X170806595Y-108090696D01*
X171064514Y-108142000D01*
X171327486Y-108142000D01*
X171585405Y-108090696D01*
X171828359Y-107990061D01*
X172047013Y-107843962D01*
X172232962Y-107658013D01*
X172379061Y-107439359D01*
X172479696Y-107196405D01*
X172531000Y-106938486D01*
X172531000Y-106675514D01*
X172479696Y-106417595D01*
X172379061Y-106174641D01*
X172232962Y-105955987D01*
X172047013Y-105770038D01*
X171828359Y-105623939D01*
X171618470Y-105537000D01*
X171828359Y-105450061D01*
X172047013Y-105303962D01*
X172232962Y-105118013D01*
X172379061Y-104899359D01*
X172479696Y-104656405D01*
X172531000Y-104398486D01*
X172531000Y-104135514D01*
X172479696Y-103877595D01*
X172379061Y-103634641D01*
X172232962Y-103415987D01*
X172047013Y-103230038D01*
X171828359Y-103083939D01*
X171618470Y-102997000D01*
X171828359Y-102910061D01*
X172047013Y-102763962D01*
X172232962Y-102578013D01*
X172379061Y-102359359D01*
X172479696Y-102116405D01*
X172531000Y-101858486D01*
X172531000Y-101595514D01*
X172479696Y-101337595D01*
X172379061Y-101094641D01*
X172232962Y-100875987D01*
X172047013Y-100690038D01*
X171828359Y-100543939D01*
X171618470Y-100457000D01*
X171828359Y-100370061D01*
X172047013Y-100223962D01*
X172232962Y-100038013D01*
X172379061Y-99819359D01*
X172479696Y-99576405D01*
X172531000Y-99318486D01*
X172531000Y-99055514D01*
X172479696Y-98797595D01*
X172379061Y-98554641D01*
X172232962Y-98335987D01*
X172047013Y-98150038D01*
X171828359Y-98003939D01*
X171618470Y-97917000D01*
X171828359Y-97830061D01*
X172047013Y-97683962D01*
X172232962Y-97498013D01*
X172379061Y-97279359D01*
X172479696Y-97036405D01*
X172531000Y-96778486D01*
X172531000Y-96515514D01*
X172479696Y-96257595D01*
X172379061Y-96014641D01*
X172232962Y-95795987D01*
X172047013Y-95610038D01*
X171828359Y-95463939D01*
X171618470Y-95377000D01*
X171828359Y-95290061D01*
X172047013Y-95143962D01*
X172232962Y-94958013D01*
X172379061Y-94739359D01*
X172479696Y-94496405D01*
X172531000Y-94238486D01*
X172531000Y-93975514D01*
X172479696Y-93717595D01*
X172379061Y-93474641D01*
X172232962Y-93255987D01*
X172047013Y-93070038D01*
X171828359Y-92923939D01*
X171618470Y-92837000D01*
X171828359Y-92750061D01*
X172047013Y-92603962D01*
X172232962Y-92418013D01*
X172379061Y-92199359D01*
X172479696Y-91956405D01*
X172531000Y-91698486D01*
X172531000Y-91435514D01*
X172479696Y-91177595D01*
X172379061Y-90934641D01*
X172232962Y-90715987D01*
X172047013Y-90530038D01*
X171828359Y-90383939D01*
X171618470Y-90297000D01*
X171828359Y-90210061D01*
X172047013Y-90063962D01*
X172232962Y-89878013D01*
X172379061Y-89659359D01*
X172479696Y-89416405D01*
X172531000Y-89158486D01*
X172531000Y-88895514D01*
X172479696Y-88637595D01*
X172379061Y-88394641D01*
X172232962Y-88175987D01*
X172047013Y-87990038D01*
X171828359Y-87843939D01*
X171618470Y-87757000D01*
X171828359Y-87670061D01*
X172047013Y-87523962D01*
X172232962Y-87338013D01*
X172379061Y-87119359D01*
X172479696Y-86876405D01*
X172531000Y-86618486D01*
X172531000Y-86355514D01*
X172479696Y-86097595D01*
X172379061Y-85854641D01*
X172232962Y-85635987D01*
X172047013Y-85450038D01*
X171828359Y-85303939D01*
X171618470Y-85217000D01*
X171828359Y-85130061D01*
X172047013Y-84983962D01*
X172232962Y-84798013D01*
X172351237Y-84621000D01*
X174787928Y-84621000D01*
X174787928Y-86321000D01*
X174800188Y-86445482D01*
X174836498Y-86565180D01*
X174895463Y-86675494D01*
X174974815Y-86772185D01*
X175071506Y-86851537D01*
X175181820Y-86910502D01*
X175301518Y-86946812D01*
X175426000Y-86959072D01*
X177126000Y-86959072D01*
X177250482Y-86946812D01*
X177370180Y-86910502D01*
X177480494Y-86851537D01*
X177577185Y-86772185D01*
X177656537Y-86675494D01*
X177715502Y-86565180D01*
X177739966Y-86484534D01*
X177815731Y-86568588D01*
X178049080Y-86742641D01*
X178311901Y-86867825D01*
X178459110Y-86912476D01*
X178689000Y-86791155D01*
X178689000Y-85598000D01*
X178669000Y-85598000D01*
X178669000Y-85344000D01*
X178689000Y-85344000D01*
X178689000Y-84150845D01*
X178459110Y-84029524D01*
X178311901Y-84074175D01*
X178049080Y-84199359D01*
X177815731Y-84373412D01*
X177739966Y-84457466D01*
X177715502Y-84376820D01*
X177656537Y-84266506D01*
X177577185Y-84169815D01*
X177480494Y-84090463D01*
X177370180Y-84031498D01*
X177250482Y-83995188D01*
X177126000Y-83982928D01*
X175426000Y-83982928D01*
X175301518Y-83995188D01*
X175181820Y-84031498D01*
X175071506Y-84090463D01*
X174974815Y-84169815D01*
X174895463Y-84266506D01*
X174836498Y-84376820D01*
X174800188Y-84496518D01*
X174787928Y-84621000D01*
X172351237Y-84621000D01*
X172379061Y-84579359D01*
X172479696Y-84336405D01*
X172531000Y-84078486D01*
X172531000Y-83815514D01*
X172479696Y-83557595D01*
X172379061Y-83314641D01*
X172232962Y-83095987D01*
X172047013Y-82910038D01*
X171888315Y-82804000D01*
X174498000Y-82804000D01*
X174522776Y-82801560D01*
X174546601Y-82794333D01*
X174568557Y-82782597D01*
X174587803Y-82766803D01*
X174603597Y-82747557D01*
X174615333Y-82725601D01*
X174622560Y-82701776D01*
X174625000Y-82677000D01*
X174625000Y-79390818D01*
X184906701Y-79390818D01*
X184906701Y-79867182D01*
X184999635Y-80334392D01*
X185181931Y-80774494D01*
X185446585Y-81170576D01*
X185783424Y-81507415D01*
X186179506Y-81772069D01*
X186619608Y-81954365D01*
X187086818Y-82047299D01*
X187563182Y-82047299D01*
X188030392Y-81954365D01*
X188470494Y-81772069D01*
X188866576Y-81507415D01*
X189203415Y-81170576D01*
X189468069Y-80774494D01*
X189650365Y-80334392D01*
X189743299Y-79867182D01*
X189743299Y-79390818D01*
X189650365Y-78923608D01*
X189468069Y-78483506D01*
X189203415Y-78087424D01*
X188866576Y-77750585D01*
X188470494Y-77485931D01*
X188030392Y-77303635D01*
X187563182Y-77210701D01*
X187086818Y-77210701D01*
X186619608Y-77303635D01*
X186179506Y-77485931D01*
X185783424Y-77750585D01*
X185446585Y-78087424D01*
X185181931Y-78483506D01*
X184999635Y-78923608D01*
X184906701Y-79390818D01*
X174625000Y-79390818D01*
X174625000Y-76860000D01*
X189840001Y-76860000D01*
X189840000Y-126340000D01*
G37*
X189840000Y-126340000D02*
X140360000Y-126340000D01*
X140360000Y-122979818D01*
X141091701Y-122979818D01*
X141091701Y-123456182D01*
X141184635Y-123923392D01*
X141366931Y-124363494D01*
X141631585Y-124759576D01*
X141968424Y-125096415D01*
X142364506Y-125361069D01*
X142804608Y-125543365D01*
X143271818Y-125636299D01*
X143748182Y-125636299D01*
X144215392Y-125543365D01*
X144655494Y-125361069D01*
X145051576Y-125096415D01*
X145388415Y-124759576D01*
X145653069Y-124363494D01*
X145835365Y-123923392D01*
X145928299Y-123456182D01*
X145928299Y-122979818D01*
X145835365Y-122512608D01*
X145653069Y-122072506D01*
X145388415Y-121676424D01*
X145051576Y-121339585D01*
X144655494Y-121074931D01*
X144215392Y-120892635D01*
X143748182Y-120799701D01*
X143271818Y-120799701D01*
X142804608Y-120892635D01*
X142364506Y-121074931D01*
X141968424Y-121339585D01*
X141631585Y-121676424D01*
X141366931Y-122072506D01*
X141184635Y-122512608D01*
X141091701Y-122979818D01*
X140360000Y-122979818D01*
X140360000Y-82804000D01*
X142563685Y-82804000D01*
X142404987Y-82910038D01*
X142219038Y-83095987D01*
X142072939Y-83314641D01*
X141972304Y-83557595D01*
X141921000Y-83815514D01*
X141921000Y-84078486D01*
X141972304Y-84336405D01*
X142072939Y-84579359D01*
X142219038Y-84798013D01*
X142404987Y-84983962D01*
X142623641Y-85130061D01*
X142833530Y-85217000D01*
X142623641Y-85303939D01*
X142404987Y-85450038D01*
X142219038Y-85635987D01*
X142072939Y-85854641D01*
X141972304Y-86097595D01*
X141921000Y-86355514D01*
X141921000Y-86618486D01*
X141972304Y-86876405D01*
X142072939Y-87119359D01*
X142219038Y-87338013D01*
X142404987Y-87523962D01*
X142623641Y-87670061D01*
X142833530Y-87757000D01*
X142623641Y-87843939D01*
X142404987Y-87990038D01*
X142219038Y-88175987D01*
X142072939Y-88394641D01*
X141972304Y-88637595D01*
X141921000Y-88895514D01*
X141921000Y-89158486D01*
X141972304Y-89416405D01*
X142072939Y-89659359D01*
X142219038Y-89878013D01*
X142404987Y-90063962D01*
X142623641Y-90210061D01*
X142833530Y-90297000D01*
X142623641Y-90383939D01*
X142404987Y-90530038D01*
X142219038Y-90715987D01*
X142072939Y-90934641D01*
X141972304Y-91177595D01*
X141921000Y-91435514D01*
X141921000Y-91698486D01*
X141972304Y-91956405D01*
X142072939Y-92199359D01*
X142219038Y-92418013D01*
X142404987Y-92603962D01*
X142623641Y-92750061D01*
X142833530Y-92837000D01*
X142623641Y-92923939D01*
X142404987Y-93070038D01*
X142219038Y-93255987D01*
X142072939Y-93474641D01*
X141972304Y-93717595D01*
X141921000Y-93975514D01*
X141921000Y-94238486D01*
X141972304Y-94496405D01*
X142072939Y-94739359D01*
X142219038Y-94958013D01*
X142404987Y-95143962D01*
X142623641Y-95290061D01*
X142833530Y-95377000D01*
X142623641Y-95463939D01*
X142404987Y-95610038D01*
X142219038Y-95795987D01*
X142072939Y-96014641D01*
X141972304Y-96257595D01*
X141921000Y-96515514D01*
X141921000Y-96778486D01*
X141972304Y-97036405D01*
X142072939Y-97279359D01*
X142219038Y-97498013D01*
X142404987Y-97683962D01*
X142623641Y-97830061D01*
X142833530Y-97917000D01*
X142623641Y-98003939D01*
X142404987Y-98150038D01*
X142219038Y-98335987D01*
X142072939Y-98554641D01*
X141972304Y-98797595D01*
X141921000Y-99055514D01*
X141921000Y-99318486D01*
X141972304Y-99576405D01*
X142072939Y-99819359D01*
X142219038Y-100038013D01*
X142404987Y-100223962D01*
X142623641Y-100370061D01*
X142833530Y-100457000D01*
X142623641Y-100543939D01*
X142404987Y-100690038D01*
X142219038Y-100875987D01*
X142072939Y-101094641D01*
X141972304Y-101337595D01*
X141921000Y-101595514D01*
X141921000Y-101858486D01*
X141972304Y-102116405D01*
X142072939Y-102359359D01*
X142219038Y-102578013D01*
X142404987Y-102763962D01*
X142623641Y-102910061D01*
X142833530Y-102997000D01*
X142623641Y-103083939D01*
X142404987Y-103230038D01*
X142219038Y-103415987D01*
X142072939Y-103634641D01*
X141972304Y-103877595D01*
X141921000Y-104135514D01*
X141921000Y-104398486D01*
X141972304Y-104656405D01*
X142072939Y-104899359D01*
X142219038Y-105118013D01*
X142404987Y-105303962D01*
X142623641Y-105450061D01*
X142833530Y-105537000D01*
X142623641Y-105623939D01*
X142404987Y-105770038D01*
X142219038Y-105955987D01*
X142072939Y-106174641D01*
X141972304Y-106417595D01*
X141921000Y-106675514D01*
X141921000Y-106938486D01*
X141972304Y-107196405D01*
X142072939Y-107439359D01*
X142219038Y-107658013D01*
X142404987Y-107843962D01*
X142623641Y-107990061D01*
X142866595Y-108090696D01*
X143124514Y-108142000D01*
X143387486Y-108142000D01*
X143645405Y-108090696D01*
X143888359Y-107990061D01*
X144107013Y-107843962D01*
X144292962Y-107658013D01*
X144439061Y-107439359D01*
X144526000Y-107229470D01*
X144612939Y-107439359D01*
X144759038Y-107658013D01*
X144944987Y-107843962D01*
X145163641Y-107990061D01*
X145406595Y-108090696D01*
X145664514Y-108142000D01*
X145927486Y-108142000D01*
X146185405Y-108090696D01*
X146428359Y-107990061D01*
X146647013Y-107843962D01*
X146832962Y-107658013D01*
X146979061Y-107439359D01*
X147079696Y-107196405D01*
X147131000Y-106938486D01*
X147131000Y-106675514D01*
X147079696Y-106417595D01*
X146979061Y-106174641D01*
X146832962Y-105955987D01*
X146647013Y-105770038D01*
X146428359Y-105623939D01*
X146218470Y-105537000D01*
X146428359Y-105450061D01*
X146647013Y-105303962D01*
X146832962Y-105118013D01*
X146979061Y-104899359D01*
X147079696Y-104656405D01*
X147131000Y-104398486D01*
X147131000Y-104135514D01*
X147079696Y-103877595D01*
X146979061Y-103634641D01*
X146832962Y-103415987D01*
X146647013Y-103230038D01*
X146428359Y-103083939D01*
X146214556Y-102995379D01*
X146377366Y-102935935D01*
X146478203Y-102882037D01*
X146537664Y-102648269D01*
X145796000Y-101906605D01*
X145054336Y-102648269D01*
X145113797Y-102882037D01*
X145352242Y-102992934D01*
X145371827Y-102997706D01*
X145163641Y-103083939D01*
X144944987Y-103230038D01*
X144759038Y-103415987D01*
X144612939Y-103634641D01*
X144526000Y-103844530D01*
X144439061Y-103634641D01*
X144292962Y-103415987D01*
X144107013Y-103230038D01*
X143888359Y-103083939D01*
X143678470Y-102997000D01*
X143888359Y-102910061D01*
X144107013Y-102763962D01*
X144292962Y-102578013D01*
X144439061Y-102359359D01*
X144527621Y-102145556D01*
X144587065Y-102308366D01*
X144640963Y-102409203D01*
X144874731Y-102468664D01*
X145616395Y-101727000D01*
X145975605Y-101727000D01*
X146717269Y-102468664D01*
X146951037Y-102409203D01*
X147061934Y-102170758D01*
X147124183Y-101915260D01*
X147135390Y-101652527D01*
X147095125Y-101392656D01*
X147004935Y-101145634D01*
X146951037Y-101044797D01*
X146717269Y-100985336D01*
X145975605Y-101727000D01*
X145616395Y-101727000D01*
X144874731Y-100985336D01*
X144640963Y-101044797D01*
X144530066Y-101283242D01*
X144525294Y-101302827D01*
X144439061Y-101094641D01*
X144292962Y-100875987D01*
X144107013Y-100690038D01*
X143888359Y-100543939D01*
X143678470Y-100457000D01*
X143888359Y-100370061D01*
X144107013Y-100223962D01*
X144292962Y-100038013D01*
X144439061Y-99819359D01*
X144526000Y-99609470D01*
X144612939Y-99819359D01*
X144759038Y-100038013D01*
X144944987Y-100223962D01*
X145163641Y-100370061D01*
X145377444Y-100458621D01*
X145214634Y-100518065D01*
X145113797Y-100571963D01*
X145054336Y-100805731D01*
X145796000Y-101547395D01*
X146537664Y-100805731D01*
X146478203Y-100571963D01*
X146239758Y-100461066D01*
X146220173Y-100456294D01*
X146428359Y-100370061D01*
X146647013Y-100223962D01*
X146832962Y-100038013D01*
X146979061Y-99819359D01*
X147079696Y-99576405D01*
X147131000Y-99318486D01*
X147131000Y-99055514D01*
X147079696Y-98797595D01*
X146979061Y-98554641D01*
X146832962Y-98335987D01*
X146647013Y-98150038D01*
X146428359Y-98003939D01*
X146218470Y-97917000D01*
X146428359Y-97830061D01*
X146647013Y-97683962D01*
X146832962Y-97498013D01*
X146979061Y-97279359D01*
X147079696Y-97036405D01*
X147131000Y-96778486D01*
X147131000Y-96515514D01*
X147079696Y-96257595D01*
X146979061Y-96014641D01*
X146832962Y-95795987D01*
X146647013Y-95610038D01*
X146428359Y-95463939D01*
X146218470Y-95377000D01*
X146428359Y-95290061D01*
X146647013Y-95143962D01*
X146832962Y-94958013D01*
X146979061Y-94739359D01*
X147079696Y-94496405D01*
X147131000Y-94238486D01*
X147131000Y-93975514D01*
X147079696Y-93717595D01*
X146979061Y-93474641D01*
X146832962Y-93255987D01*
X146647013Y-93070038D01*
X146428359Y-92923939D01*
X146218470Y-92837000D01*
X146428359Y-92750061D01*
X146647013Y-92603962D01*
X146832962Y-92418013D01*
X146979061Y-92199359D01*
X147079696Y-91956405D01*
X147131000Y-91698486D01*
X147131000Y-91435514D01*
X147079696Y-91177595D01*
X146979061Y-90934641D01*
X146832962Y-90715987D01*
X146647013Y-90530038D01*
X146428359Y-90383939D01*
X146218470Y-90297000D01*
X146428359Y-90210061D01*
X146647013Y-90063962D01*
X146832962Y-89878013D01*
X146979061Y-89659359D01*
X147079696Y-89416405D01*
X147131000Y-89158486D01*
X147131000Y-88895514D01*
X147079696Y-88637595D01*
X146979061Y-88394641D01*
X146832962Y-88175987D01*
X146647013Y-87990038D01*
X146428359Y-87843939D01*
X146218470Y-87757000D01*
X146428359Y-87670061D01*
X146647013Y-87523962D01*
X146832962Y-87338013D01*
X146979061Y-87119359D01*
X147079696Y-86876405D01*
X147131000Y-86618486D01*
X147131000Y-86355514D01*
X147079696Y-86097595D01*
X146979061Y-85854641D01*
X146832962Y-85635987D01*
X146647013Y-85450038D01*
X146428359Y-85303939D01*
X146218470Y-85217000D01*
X146428359Y-85130061D01*
X146647013Y-84983962D01*
X146832962Y-84798013D01*
X146979061Y-84579359D01*
X147079696Y-84336405D01*
X147131000Y-84078486D01*
X147131000Y-83815514D01*
X147079696Y-83557595D01*
X146979061Y-83314641D01*
X146832962Y-83095987D01*
X146647013Y-82910038D01*
X146488315Y-82804000D01*
X167963685Y-82804000D01*
X167804987Y-82910038D01*
X167619038Y-83095987D01*
X167472939Y-83314641D01*
X167372304Y-83557595D01*
X167321000Y-83815514D01*
X167321000Y-84078486D01*
X167372304Y-84336405D01*
X167472939Y-84579359D01*
X167619038Y-84798013D01*
X167804987Y-84983962D01*
X168023641Y-85130061D01*
X168233530Y-85217000D01*
X168023641Y-85303939D01*
X167804987Y-85450038D01*
X167619038Y-85635987D01*
X167472939Y-85854641D01*
X167372304Y-86097595D01*
X167321000Y-86355514D01*
X167321000Y-86618486D01*
X167372304Y-86876405D01*
X167472939Y-87119359D01*
X167619038Y-87338013D01*
X167804987Y-87523962D01*
X168023641Y-87670061D01*
X168233530Y-87757000D01*
X168023641Y-87843939D01*
X167804987Y-87990038D01*
X167619038Y-88175987D01*
X167553260Y-88274432D01*
X167517065Y-88277997D01*
X167373804Y-88321454D01*
X167241775Y-88392026D01*
X167126050Y-88486999D01*
X167102252Y-88515997D01*
X162302998Y-93315252D01*
X162274000Y-93339050D01*
X162250202Y-93368048D01*
X162250201Y-93368049D01*
X162179026Y-93454775D01*
X162108454Y-93586805D01*
X162089541Y-93649155D01*
X162064998Y-93730065D01*
X162054001Y-93841718D01*
X162050324Y-93879051D01*
X162054001Y-93916384D01*
X162054000Y-122644678D01*
X162050324Y-122682000D01*
X162054000Y-122719322D01*
X162054000Y-122719332D01*
X162064997Y-122830985D01*
X162108454Y-122974246D01*
X162179026Y-123106276D01*
X162212221Y-123146724D01*
X162273999Y-123222001D01*
X162303003Y-123245804D01*
X164536201Y-125479003D01*
X164559999Y-125508001D01*
X164675724Y-125602974D01*
X164807753Y-125673546D01*
X164951014Y-125717003D01*
X165062667Y-125728000D01*
X165062676Y-125728000D01*
X165099999Y-125731676D01*
X165137322Y-125728000D01*
X180048678Y-125728000D01*
X180086000Y-125731676D01*
X180123322Y-125728000D01*
X180123333Y-125728000D01*
X180234986Y-125717003D01*
X180378247Y-125673546D01*
X180510276Y-125602974D01*
X180626001Y-125508001D01*
X180649804Y-125478997D01*
X182268490Y-123860311D01*
X182261000Y-123897967D01*
X182261000Y-124220033D01*
X182323832Y-124535912D01*
X182447082Y-124833463D01*
X182626013Y-125101252D01*
X182853748Y-125328987D01*
X183121537Y-125507918D01*
X183419088Y-125631168D01*
X183734967Y-125694000D01*
X184057033Y-125694000D01*
X184372912Y-125631168D01*
X184670463Y-125507918D01*
X184938252Y-125328987D01*
X185165987Y-125101252D01*
X185344918Y-124833463D01*
X185468168Y-124535912D01*
X185531000Y-124220033D01*
X185531000Y-123897967D01*
X185468168Y-123582088D01*
X185344918Y-123284537D01*
X185165987Y-123016748D01*
X184938252Y-122789013D01*
X184670463Y-122610082D01*
X184372912Y-122486832D01*
X184057033Y-122424000D01*
X183734967Y-122424000D01*
X183697311Y-122431490D01*
X187836003Y-118292799D01*
X187865001Y-118269001D01*
X187891332Y-118236917D01*
X187959974Y-118153277D01*
X188030546Y-118021247D01*
X188040165Y-117989537D01*
X188074003Y-117877986D01*
X188085000Y-117766333D01*
X188085000Y-117766323D01*
X188088676Y-117729000D01*
X188085000Y-117691677D01*
X188085000Y-100494322D01*
X188088676Y-100456999D01*
X188085000Y-100419676D01*
X188085000Y-100419667D01*
X188074003Y-100308014D01*
X188030546Y-100164753D01*
X187997017Y-100102025D01*
X187959974Y-100032723D01*
X187888799Y-99945997D01*
X187865001Y-99916999D01*
X187836004Y-99893202D01*
X185729804Y-97787003D01*
X185706001Y-97757999D01*
X185590276Y-97663026D01*
X185458247Y-97592454D01*
X185314986Y-97548997D01*
X185203333Y-97538000D01*
X185203322Y-97538000D01*
X185166000Y-97534324D01*
X185128678Y-97538000D01*
X183044333Y-97538000D01*
X183007000Y-97534323D01*
X182969667Y-97538000D01*
X182858014Y-97548997D01*
X182714753Y-97592454D01*
X182582724Y-97663026D01*
X182466999Y-97757999D01*
X182443201Y-97786997D01*
X181722408Y-98507790D01*
X181502260Y-98464000D01*
X181209740Y-98464000D01*
X180922842Y-98521068D01*
X180652589Y-98633010D01*
X180409368Y-98795525D01*
X180202525Y-99002368D01*
X180080805Y-99184534D01*
X180011178Y-99067645D01*
X179816269Y-98851412D01*
X179582920Y-98677359D01*
X179320099Y-98552175D01*
X179172890Y-98507524D01*
X178943000Y-98628845D01*
X178943000Y-99822000D01*
X178963000Y-99822000D01*
X178963000Y-100076000D01*
X178943000Y-100076000D01*
X178943000Y-101269155D01*
X179172890Y-101390476D01*
X179320099Y-101345825D01*
X179582920Y-101220641D01*
X179816269Y-101046588D01*
X180011178Y-100830355D01*
X180080805Y-100713466D01*
X180202525Y-100895632D01*
X180409368Y-101102475D01*
X180652589Y-101264990D01*
X180922842Y-101376932D01*
X181209740Y-101434000D01*
X181502260Y-101434000D01*
X181789158Y-101376932D01*
X182059411Y-101264990D01*
X182302632Y-101102475D01*
X182509475Y-100895632D01*
X182626000Y-100721240D01*
X182742525Y-100895632D01*
X182949368Y-101102475D01*
X183192589Y-101264990D01*
X183462842Y-101376932D01*
X183749740Y-101434000D01*
X184042260Y-101434000D01*
X184262408Y-101390209D01*
X185803001Y-102930803D01*
X185803000Y-116779198D01*
X185534072Y-117048126D01*
X185534072Y-115459000D01*
X185521812Y-115334518D01*
X185485502Y-115214820D01*
X185426537Y-115104506D01*
X185347185Y-115007815D01*
X185250494Y-114928463D01*
X185140180Y-114869498D01*
X185020482Y-114833188D01*
X184896000Y-114820928D01*
X182896000Y-114820928D01*
X182771518Y-114833188D01*
X182651820Y-114869498D01*
X182541506Y-114928463D01*
X182444815Y-115007815D01*
X182365463Y-115104506D01*
X182306498Y-115214820D01*
X182270188Y-115334518D01*
X182257928Y-115459000D01*
X182257928Y-117459000D01*
X182270188Y-117583482D01*
X182306498Y-117703180D01*
X182365463Y-117813494D01*
X182444815Y-117910185D01*
X182541506Y-117989537D01*
X182651820Y-118048502D01*
X182731519Y-118072678D01*
X177993199Y-122811000D01*
X174518693Y-122811000D01*
X174661869Y-122767568D01*
X174944170Y-122616675D01*
X175191608Y-122413608D01*
X175394675Y-122166170D01*
X175545568Y-121883869D01*
X175638487Y-121577556D01*
X175662000Y-121338824D01*
X175662000Y-119199176D01*
X175638487Y-118960444D01*
X175545568Y-118654131D01*
X175394675Y-118371830D01*
X175191608Y-118124392D01*
X174944169Y-117921325D01*
X174661868Y-117770432D01*
X174355555Y-117677513D01*
X174037000Y-117646138D01*
X173718444Y-117677513D01*
X173412131Y-117770432D01*
X173129830Y-117921325D01*
X172882392Y-118124392D01*
X172679325Y-118371831D01*
X172528432Y-118654132D01*
X172435513Y-118960445D01*
X172412000Y-119199177D01*
X172412001Y-121338824D01*
X172435514Y-121577556D01*
X172528433Y-121883869D01*
X172679326Y-122166170D01*
X172882393Y-122413608D01*
X173129831Y-122616675D01*
X173412132Y-122767568D01*
X173555308Y-122811000D01*
X170322632Y-122811000D01*
X170381494Y-122779537D01*
X170478185Y-122700185D01*
X170557537Y-122603494D01*
X170616502Y-122493180D01*
X170652812Y-122373482D01*
X170665072Y-122249000D01*
X170665072Y-118289000D01*
X170652812Y-118164518D01*
X170616502Y-118044820D01*
X170557537Y-117934506D01*
X170478185Y-117837815D01*
X170381494Y-117758463D01*
X170359931Y-117746937D01*
X170812868Y-117294000D01*
X172805982Y-117294000D01*
X172847000Y-117298040D01*
X172888018Y-117294000D01*
X172888019Y-117294000D01*
X173010689Y-117281918D01*
X173168087Y-117234172D01*
X173313146Y-117156636D01*
X173440291Y-117052291D01*
X173466445Y-117020422D01*
X174170433Y-116316436D01*
X174202291Y-116290291D01*
X174306636Y-116163146D01*
X174384172Y-116018087D01*
X174431918Y-115860689D01*
X174444000Y-115738019D01*
X174444000Y-115738018D01*
X174448040Y-115697000D01*
X174444000Y-115655982D01*
X174444000Y-106787740D01*
X174791000Y-106787740D01*
X174791000Y-107080260D01*
X174848068Y-107367158D01*
X174960010Y-107637411D01*
X175122525Y-107880632D01*
X175329368Y-108087475D01*
X175572589Y-108249990D01*
X175842842Y-108361932D01*
X176129740Y-108419000D01*
X176422260Y-108419000D01*
X176709158Y-108361932D01*
X176979411Y-108249990D01*
X177222632Y-108087475D01*
X177429475Y-107880632D01*
X177546000Y-107706240D01*
X177662525Y-107880632D01*
X177869368Y-108087475D01*
X178112589Y-108249990D01*
X178382842Y-108361932D01*
X178669740Y-108419000D01*
X178962260Y-108419000D01*
X179249158Y-108361932D01*
X179519411Y-108249990D01*
X179762632Y-108087475D01*
X179969475Y-107880632D01*
X180086000Y-107706240D01*
X180202525Y-107880632D01*
X180409368Y-108087475D01*
X180652589Y-108249990D01*
X180922842Y-108361932D01*
X181209740Y-108419000D01*
X181502260Y-108419000D01*
X181789158Y-108361932D01*
X182059411Y-108249990D01*
X182302632Y-108087475D01*
X182434487Y-107955620D01*
X182456498Y-108028180D01*
X182515463Y-108138494D01*
X182594815Y-108235185D01*
X182691506Y-108314537D01*
X182801820Y-108373502D01*
X182921518Y-108409812D01*
X183046000Y-108422072D01*
X184746000Y-108422072D01*
X184870482Y-108409812D01*
X184990180Y-108373502D01*
X185100494Y-108314537D01*
X185197185Y-108235185D01*
X185276537Y-108138494D01*
X185335502Y-108028180D01*
X185371812Y-107908482D01*
X185384072Y-107784000D01*
X185384072Y-106084000D01*
X185371812Y-105959518D01*
X185335502Y-105839820D01*
X185276537Y-105729506D01*
X185197185Y-105632815D01*
X185100494Y-105553463D01*
X184990180Y-105494498D01*
X184870482Y-105458188D01*
X184746000Y-105445928D01*
X183046000Y-105445928D01*
X182921518Y-105458188D01*
X182801820Y-105494498D01*
X182691506Y-105553463D01*
X182594815Y-105632815D01*
X182515463Y-105729506D01*
X182456498Y-105839820D01*
X182434487Y-105912380D01*
X182302632Y-105780525D01*
X182059411Y-105618010D01*
X181789158Y-105506068D01*
X181502260Y-105449000D01*
X181209740Y-105449000D01*
X180922842Y-105506068D01*
X180652589Y-105618010D01*
X180409368Y-105780525D01*
X180202525Y-105987368D01*
X180086000Y-106161760D01*
X179969475Y-105987368D01*
X179762632Y-105780525D01*
X179519411Y-105618010D01*
X179249158Y-105506068D01*
X178962260Y-105449000D01*
X178669740Y-105449000D01*
X178382842Y-105506068D01*
X178112589Y-105618010D01*
X177869368Y-105780525D01*
X177662525Y-105987368D01*
X177546000Y-106161760D01*
X177429475Y-105987368D01*
X177222632Y-105780525D01*
X176979411Y-105618010D01*
X176709158Y-105506068D01*
X176422260Y-105449000D01*
X176129740Y-105449000D01*
X175842842Y-105506068D01*
X175572589Y-105618010D01*
X175329368Y-105780525D01*
X175122525Y-105987368D01*
X174960010Y-106230589D01*
X174848068Y-106500842D01*
X174791000Y-106787740D01*
X174444000Y-106787740D01*
X174444000Y-99099000D01*
X174787928Y-99099000D01*
X174787928Y-100799000D01*
X174800188Y-100923482D01*
X174836498Y-101043180D01*
X174895463Y-101153494D01*
X174974815Y-101250185D01*
X175071506Y-101329537D01*
X175181820Y-101388502D01*
X175301518Y-101424812D01*
X175426000Y-101437072D01*
X177126000Y-101437072D01*
X177250482Y-101424812D01*
X177370180Y-101388502D01*
X177480494Y-101329537D01*
X177577185Y-101250185D01*
X177656537Y-101153494D01*
X177715502Y-101043180D01*
X177739966Y-100962534D01*
X177815731Y-101046588D01*
X178049080Y-101220641D01*
X178311901Y-101345825D01*
X178459110Y-101390476D01*
X178689000Y-101269155D01*
X178689000Y-100076000D01*
X178669000Y-100076000D01*
X178669000Y-99822000D01*
X178689000Y-99822000D01*
X178689000Y-98628845D01*
X178459110Y-98507524D01*
X178311901Y-98552175D01*
X178049080Y-98677359D01*
X177815731Y-98851412D01*
X177739966Y-98935466D01*
X177715502Y-98854820D01*
X177656537Y-98744506D01*
X177577185Y-98647815D01*
X177480494Y-98568463D01*
X177370180Y-98509498D01*
X177250482Y-98473188D01*
X177126000Y-98460928D01*
X175426000Y-98460928D01*
X175301518Y-98473188D01*
X175181820Y-98509498D01*
X175071506Y-98568463D01*
X174974815Y-98647815D01*
X174895463Y-98744506D01*
X174836498Y-98854820D01*
X174800188Y-98974518D01*
X174787928Y-99099000D01*
X174444000Y-99099000D01*
X174444000Y-91479000D01*
X174787928Y-91479000D01*
X174787928Y-93179000D01*
X174800188Y-93303482D01*
X174836498Y-93423180D01*
X174895463Y-93533494D01*
X174974815Y-93630185D01*
X175071506Y-93709537D01*
X175181820Y-93768502D01*
X175301518Y-93804812D01*
X175426000Y-93817072D01*
X177126000Y-93817072D01*
X177250482Y-93804812D01*
X177370180Y-93768502D01*
X177480494Y-93709537D01*
X177577185Y-93630185D01*
X177656537Y-93533494D01*
X177715502Y-93423180D01*
X177739966Y-93342534D01*
X177815731Y-93426588D01*
X178049080Y-93600641D01*
X178311901Y-93725825D01*
X178459110Y-93770476D01*
X178689000Y-93649155D01*
X178689000Y-92456000D01*
X178669000Y-92456000D01*
X178669000Y-92202000D01*
X178689000Y-92202000D01*
X178689000Y-91008845D01*
X178943000Y-91008845D01*
X178943000Y-92202000D01*
X178963000Y-92202000D01*
X178963000Y-92456000D01*
X178943000Y-92456000D01*
X178943000Y-93649155D01*
X179172890Y-93770476D01*
X179320099Y-93725825D01*
X179582920Y-93600641D01*
X179816269Y-93426588D01*
X180011178Y-93210355D01*
X180080805Y-93093466D01*
X180202525Y-93275632D01*
X180409368Y-93482475D01*
X180652589Y-93644990D01*
X180922842Y-93756932D01*
X181209740Y-93814000D01*
X181502260Y-93814000D01*
X181789158Y-93756932D01*
X182059411Y-93644990D01*
X182302632Y-93482475D01*
X182509475Y-93275632D01*
X182626000Y-93101240D01*
X182742525Y-93275632D01*
X182949368Y-93482475D01*
X183192589Y-93644990D01*
X183462842Y-93756932D01*
X183749740Y-93814000D01*
X184042260Y-93814000D01*
X184329158Y-93756932D01*
X184599411Y-93644990D01*
X184842632Y-93482475D01*
X185049475Y-93275632D01*
X185211990Y-93032411D01*
X185323932Y-92762158D01*
X185381000Y-92475260D01*
X185381000Y-92182740D01*
X185323932Y-91895842D01*
X185211990Y-91625589D01*
X185049475Y-91382368D01*
X184842632Y-91175525D01*
X184599411Y-91013010D01*
X184329158Y-90901068D01*
X184042260Y-90844000D01*
X183749740Y-90844000D01*
X183462842Y-90901068D01*
X183192589Y-91013010D01*
X182949368Y-91175525D01*
X182742525Y-91382368D01*
X182626000Y-91556760D01*
X182509475Y-91382368D01*
X182302632Y-91175525D01*
X182059411Y-91013010D01*
X181789158Y-90901068D01*
X181502260Y-90844000D01*
X181209740Y-90844000D01*
X180922842Y-90901068D01*
X180652589Y-91013010D01*
X180409368Y-91175525D01*
X180202525Y-91382368D01*
X180080805Y-91564534D01*
X180011178Y-91447645D01*
X179816269Y-91231412D01*
X179582920Y-91057359D01*
X179320099Y-90932175D01*
X179172890Y-90887524D01*
X178943000Y-91008845D01*
X178689000Y-91008845D01*
X178459110Y-90887524D01*
X178311901Y-90932175D01*
X178049080Y-91057359D01*
X177815731Y-91231412D01*
X177739966Y-91315466D01*
X177715502Y-91234820D01*
X177656537Y-91124506D01*
X177577185Y-91027815D01*
X177480494Y-90948463D01*
X177370180Y-90889498D01*
X177250482Y-90853188D01*
X177126000Y-90840928D01*
X175426000Y-90840928D01*
X175301518Y-90853188D01*
X175181820Y-90889498D01*
X175071506Y-90948463D01*
X174974815Y-91027815D01*
X174895463Y-91124506D01*
X174836498Y-91234820D01*
X174800188Y-91354518D01*
X174787928Y-91479000D01*
X174444000Y-91479000D01*
X174444000Y-90261867D01*
X174970868Y-89735000D01*
X180552982Y-89735000D01*
X180594000Y-89739040D01*
X180635018Y-89735000D01*
X180635019Y-89735000D01*
X180757689Y-89722918D01*
X180915087Y-89675172D01*
X181060146Y-89597636D01*
X181187291Y-89493291D01*
X181213445Y-89461422D01*
X181917433Y-88757436D01*
X181949291Y-88731291D01*
X182053636Y-88604146D01*
X182131172Y-88459087D01*
X182178918Y-88301689D01*
X182191000Y-88179019D01*
X182191000Y-88179018D01*
X182195040Y-88138000D01*
X182191000Y-88096982D01*
X182191000Y-86699065D01*
X182302632Y-86624475D01*
X182509475Y-86417632D01*
X182671990Y-86174411D01*
X182783932Y-85904158D01*
X182841000Y-85617260D01*
X182841000Y-85324740D01*
X182783932Y-85037842D01*
X182671990Y-84767589D01*
X182509475Y-84524368D01*
X182302632Y-84317525D01*
X182059411Y-84155010D01*
X181789158Y-84043068D01*
X181502260Y-83986000D01*
X181209740Y-83986000D01*
X180922842Y-84043068D01*
X180652589Y-84155010D01*
X180409368Y-84317525D01*
X180202525Y-84524368D01*
X180080805Y-84706534D01*
X180011178Y-84589645D01*
X179816269Y-84373412D01*
X179582920Y-84199359D01*
X179320099Y-84074175D01*
X179172890Y-84029524D01*
X178943000Y-84150845D01*
X178943000Y-85344000D01*
X178963000Y-85344000D01*
X178963000Y-85598000D01*
X178943000Y-85598000D01*
X178943000Y-86791155D01*
X179172890Y-86912476D01*
X179320099Y-86867825D01*
X179582920Y-86742641D01*
X179816269Y-86568588D01*
X180011178Y-86352355D01*
X180080805Y-86235466D01*
X180202525Y-86417632D01*
X180409368Y-86624475D01*
X180521001Y-86699065D01*
X180521000Y-87792132D01*
X180248132Y-88065000D01*
X174666018Y-88065000D01*
X174625000Y-88060960D01*
X174583981Y-88065000D01*
X174461311Y-88077082D01*
X174303913Y-88124828D01*
X174158854Y-88202364D01*
X174031709Y-88306709D01*
X174005561Y-88338571D01*
X173047574Y-89296559D01*
X173015710Y-89322709D01*
X172938816Y-89416405D01*
X172911364Y-89449855D01*
X172833828Y-89594914D01*
X172786082Y-89752312D01*
X172769960Y-89916000D01*
X172774001Y-89957029D01*
X172774000Y-115351132D01*
X172501132Y-115624000D01*
X170508007Y-115624000D01*
X170466999Y-115619961D01*
X170425991Y-115624000D01*
X170425981Y-115624000D01*
X170303311Y-115636082D01*
X170145913Y-115683828D01*
X170000854Y-115761364D01*
X169873709Y-115865709D01*
X169847561Y-115897571D01*
X168475574Y-117269559D01*
X168443710Y-117295709D01*
X168417562Y-117327571D01*
X168339364Y-117422855D01*
X168261828Y-117567914D01*
X168236646Y-117650928D01*
X168047000Y-117650928D01*
X167922518Y-117663188D01*
X167802820Y-117699498D01*
X167692506Y-117758463D01*
X167595815Y-117837815D01*
X167516463Y-117934506D01*
X167457498Y-118044820D01*
X167421188Y-118164518D01*
X167408928Y-118289000D01*
X167408928Y-118850060D01*
X167332000Y-118773133D01*
X167332000Y-106993786D01*
X167372304Y-107196405D01*
X167472939Y-107439359D01*
X167619038Y-107658013D01*
X167804987Y-107843962D01*
X168023641Y-107990061D01*
X168266595Y-108090696D01*
X168524514Y-108142000D01*
X168787486Y-108142000D01*
X169045405Y-108090696D01*
X169288359Y-107990061D01*
X169507013Y-107843962D01*
X169692962Y-107658013D01*
X169839061Y-107439359D01*
X169926000Y-107229470D01*
X170012939Y-107439359D01*
X170159038Y-107658013D01*
X170344987Y-107843962D01*
X170563641Y-107990061D01*
X170806595Y-108090696D01*
X171064514Y-108142000D01*
X171327486Y-108142000D01*
X171585405Y-108090696D01*
X171828359Y-107990061D01*
X172047013Y-107843962D01*
X172232962Y-107658013D01*
X172379061Y-107439359D01*
X172479696Y-107196405D01*
X172531000Y-106938486D01*
X172531000Y-106675514D01*
X172479696Y-106417595D01*
X172379061Y-106174641D01*
X172232962Y-105955987D01*
X172047013Y-105770038D01*
X171828359Y-105623939D01*
X171618470Y-105537000D01*
X171828359Y-105450061D01*
X172047013Y-105303962D01*
X172232962Y-105118013D01*
X172379061Y-104899359D01*
X172479696Y-104656405D01*
X172531000Y-104398486D01*
X172531000Y-104135514D01*
X172479696Y-103877595D01*
X172379061Y-103634641D01*
X172232962Y-103415987D01*
X172047013Y-103230038D01*
X171828359Y-103083939D01*
X171618470Y-102997000D01*
X171828359Y-102910061D01*
X172047013Y-102763962D01*
X172232962Y-102578013D01*
X172379061Y-102359359D01*
X172479696Y-102116405D01*
X172531000Y-101858486D01*
X172531000Y-101595514D01*
X172479696Y-101337595D01*
X172379061Y-101094641D01*
X172232962Y-100875987D01*
X172047013Y-100690038D01*
X171828359Y-100543939D01*
X171618470Y-100457000D01*
X171828359Y-100370061D01*
X172047013Y-100223962D01*
X172232962Y-100038013D01*
X172379061Y-99819359D01*
X172479696Y-99576405D01*
X172531000Y-99318486D01*
X172531000Y-99055514D01*
X172479696Y-98797595D01*
X172379061Y-98554641D01*
X172232962Y-98335987D01*
X172047013Y-98150038D01*
X171828359Y-98003939D01*
X171618470Y-97917000D01*
X171828359Y-97830061D01*
X172047013Y-97683962D01*
X172232962Y-97498013D01*
X172379061Y-97279359D01*
X172479696Y-97036405D01*
X172531000Y-96778486D01*
X172531000Y-96515514D01*
X172479696Y-96257595D01*
X172379061Y-96014641D01*
X172232962Y-95795987D01*
X172047013Y-95610038D01*
X171828359Y-95463939D01*
X171618470Y-95377000D01*
X171828359Y-95290061D01*
X172047013Y-95143962D01*
X172232962Y-94958013D01*
X172379061Y-94739359D01*
X172479696Y-94496405D01*
X172531000Y-94238486D01*
X172531000Y-93975514D01*
X172479696Y-93717595D01*
X172379061Y-93474641D01*
X172232962Y-93255987D01*
X172047013Y-93070038D01*
X171828359Y-92923939D01*
X171618470Y-92837000D01*
X171828359Y-92750061D01*
X172047013Y-92603962D01*
X172232962Y-92418013D01*
X172379061Y-92199359D01*
X172479696Y-91956405D01*
X172531000Y-91698486D01*
X172531000Y-91435514D01*
X172479696Y-91177595D01*
X172379061Y-90934641D01*
X172232962Y-90715987D01*
X172047013Y-90530038D01*
X171828359Y-90383939D01*
X171618470Y-90297000D01*
X171828359Y-90210061D01*
X172047013Y-90063962D01*
X172232962Y-89878013D01*
X172379061Y-89659359D01*
X172479696Y-89416405D01*
X172531000Y-89158486D01*
X172531000Y-88895514D01*
X172479696Y-88637595D01*
X172379061Y-88394641D01*
X172232962Y-88175987D01*
X172047013Y-87990038D01*
X171828359Y-87843939D01*
X171618470Y-87757000D01*
X171828359Y-87670061D01*
X172047013Y-87523962D01*
X172232962Y-87338013D01*
X172379061Y-87119359D01*
X172479696Y-86876405D01*
X172531000Y-86618486D01*
X172531000Y-86355514D01*
X172479696Y-86097595D01*
X172379061Y-85854641D01*
X172232962Y-85635987D01*
X172047013Y-85450038D01*
X171828359Y-85303939D01*
X171618470Y-85217000D01*
X171828359Y-85130061D01*
X172047013Y-84983962D01*
X172232962Y-84798013D01*
X172351237Y-84621000D01*
X174787928Y-84621000D01*
X174787928Y-86321000D01*
X174800188Y-86445482D01*
X174836498Y-86565180D01*
X174895463Y-86675494D01*
X174974815Y-86772185D01*
X175071506Y-86851537D01*
X175181820Y-86910502D01*
X175301518Y-86946812D01*
X175426000Y-86959072D01*
X177126000Y-86959072D01*
X177250482Y-86946812D01*
X177370180Y-86910502D01*
X177480494Y-86851537D01*
X177577185Y-86772185D01*
X177656537Y-86675494D01*
X177715502Y-86565180D01*
X177739966Y-86484534D01*
X177815731Y-86568588D01*
X178049080Y-86742641D01*
X178311901Y-86867825D01*
X178459110Y-86912476D01*
X178689000Y-86791155D01*
X178689000Y-85598000D01*
X178669000Y-85598000D01*
X178669000Y-85344000D01*
X178689000Y-85344000D01*
X178689000Y-84150845D01*
X178459110Y-84029524D01*
X178311901Y-84074175D01*
X178049080Y-84199359D01*
X177815731Y-84373412D01*
X177739966Y-84457466D01*
X177715502Y-84376820D01*
X177656537Y-84266506D01*
X177577185Y-84169815D01*
X177480494Y-84090463D01*
X177370180Y-84031498D01*
X177250482Y-83995188D01*
X177126000Y-83982928D01*
X175426000Y-83982928D01*
X175301518Y-83995188D01*
X175181820Y-84031498D01*
X175071506Y-84090463D01*
X174974815Y-84169815D01*
X174895463Y-84266506D01*
X174836498Y-84376820D01*
X174800188Y-84496518D01*
X174787928Y-84621000D01*
X172351237Y-84621000D01*
X172379061Y-84579359D01*
X172479696Y-84336405D01*
X172531000Y-84078486D01*
X172531000Y-83815514D01*
X172479696Y-83557595D01*
X172379061Y-83314641D01*
X172232962Y-83095987D01*
X172047013Y-82910038D01*
X171888315Y-82804000D01*
X174498000Y-82804000D01*
X174522776Y-82801560D01*
X174546601Y-82794333D01*
X174568557Y-82782597D01*
X174587803Y-82766803D01*
X174603597Y-82747557D01*
X174615333Y-82725601D01*
X174622560Y-82701776D01*
X174625000Y-82677000D01*
X174625000Y-79390818D01*
X184906701Y-79390818D01*
X184906701Y-79867182D01*
X184999635Y-80334392D01*
X185181931Y-80774494D01*
X185446585Y-81170576D01*
X185783424Y-81507415D01*
X186179506Y-81772069D01*
X186619608Y-81954365D01*
X187086818Y-82047299D01*
X187563182Y-82047299D01*
X188030392Y-81954365D01*
X188470494Y-81772069D01*
X188866576Y-81507415D01*
X189203415Y-81170576D01*
X189468069Y-80774494D01*
X189650365Y-80334392D01*
X189743299Y-79867182D01*
X189743299Y-79390818D01*
X189650365Y-78923608D01*
X189468069Y-78483506D01*
X189203415Y-78087424D01*
X188866576Y-77750585D01*
X188470494Y-77485931D01*
X188030392Y-77303635D01*
X187563182Y-77210701D01*
X187086818Y-77210701D01*
X186619608Y-77303635D01*
X186179506Y-77485931D01*
X185783424Y-77750585D01*
X185446585Y-78087424D01*
X185181931Y-78483506D01*
X184999635Y-78923608D01*
X184906701Y-79390818D01*
X174625000Y-79390818D01*
X174625000Y-76860000D01*
X189840001Y-76860000D01*
X189840000Y-126340000D01*
M02*
