G04 #@! TF.GenerationSoftware,KiCad,Pcbnew,(5.1.5)-3*
G04 #@! TF.CreationDate,2023-03-16T00:37:57+01:00*
G04 #@! TF.ProjectId,barcode_scanner,62617263-6f64-4655-9f73-63616e6e6572,rev?*
G04 #@! TF.SameCoordinates,Original*
G04 #@! TF.FileFunction,Copper,L2,Bot*
G04 #@! TF.FilePolarity,Positive*
%FSLAX46Y46*%
G04 Gerber Fmt 4.6, Leading zero omitted, Abs format (unit mm)*
G04 Created by KiCad (PCBNEW (5.1.5)-3) date 2023-03-16 00:37:57*
%MOMM*%
%LPD*%
G04 APERTURE LIST*
%ADD10R,1.980000X3.960000*%
%ADD11O,1.980000X3.960000*%
%ADD12C,1.400000*%
%ADD13R,1.700000X1.700000*%
%ADD14O,1.700000X1.700000*%
%ADD15C,2.000000*%
%ADD16R,2.000000X2.000000*%
%ADD17C,0.250000*%
%ADD18C,0.254000*%
G04 APERTURE END LIST*
D10*
X169037000Y-120269000D03*
D11*
X174037000Y-120269000D03*
D12*
X171196000Y-106807000D03*
X168656000Y-106807000D03*
X171196000Y-104267000D03*
X168656000Y-104267000D03*
X171196000Y-101727000D03*
X168656000Y-101727000D03*
X171196000Y-99187000D03*
X168656000Y-99187000D03*
X171196000Y-96647000D03*
X168656000Y-96647000D03*
X171196000Y-94107000D03*
X168656000Y-94107000D03*
X171196000Y-91567000D03*
X168656000Y-91567000D03*
X171196000Y-89027000D03*
X168656000Y-89027000D03*
X171196000Y-86487000D03*
X168656000Y-86487000D03*
X171196000Y-83947000D03*
X168656000Y-83947000D03*
X145796000Y-106807000D03*
X143256000Y-106807000D03*
X145796000Y-104267000D03*
X143256000Y-104267000D03*
X145796000Y-101727000D03*
X143256000Y-101727000D03*
X145796000Y-99187000D03*
X143256000Y-99187000D03*
X145796000Y-96647000D03*
X143256000Y-96647000D03*
X145796000Y-94107000D03*
X143256000Y-94107000D03*
X145796000Y-91567000D03*
X143256000Y-91567000D03*
X145796000Y-89027000D03*
X143256000Y-89027000D03*
X145796000Y-86487000D03*
X143256000Y-86487000D03*
X143256000Y-83947000D03*
X145796000Y-83947000D03*
D13*
X176276000Y-92329000D03*
D14*
X178816000Y-92329000D03*
X181356000Y-92329000D03*
X183896000Y-92329000D03*
X183896000Y-99949000D03*
X181356000Y-99949000D03*
X178816000Y-99949000D03*
D13*
X176276000Y-99949000D03*
D14*
X176276000Y-106934000D03*
X178816000Y-106934000D03*
X181356000Y-106934000D03*
D13*
X183896000Y-106934000D03*
D14*
X181356000Y-85471000D03*
X178816000Y-85471000D03*
D13*
X176276000Y-85471000D03*
D15*
X183896000Y-124059000D03*
D16*
X183896000Y-116459000D03*
D17*
X181356000Y-91186000D02*
X181356000Y-92329000D01*
X181864000Y-90678000D02*
X181356000Y-91186000D01*
X186817000Y-91694000D02*
X185801000Y-90678000D01*
X182626000Y-114300000D02*
X186817000Y-110109000D01*
X142240000Y-104267000D02*
X141859000Y-104648000D01*
X186817000Y-110109000D02*
X186817000Y-91694000D01*
X143256000Y-104267000D02*
X142240000Y-104267000D01*
X141859000Y-104648000D02*
X141859000Y-109474000D01*
X185801000Y-90678000D02*
X181864000Y-90678000D01*
X141859000Y-109474000D02*
X146685000Y-114300000D01*
X146685000Y-114300000D02*
X182626000Y-114300000D01*
X152273000Y-113284000D02*
X145796000Y-106807000D01*
X185098081Y-92329000D02*
X186055000Y-93285919D01*
X183896000Y-92329000D02*
X185098081Y-92329000D01*
X186055000Y-93285919D02*
X186055000Y-109601000D01*
X186055000Y-109601000D02*
X182372000Y-113284000D01*
X182372000Y-113284000D02*
X152273000Y-113284000D01*
X146785949Y-99187000D02*
X150622000Y-103023051D01*
X145796000Y-99187000D02*
X146785949Y-99187000D01*
X150622000Y-103023051D02*
X150622000Y-109093000D01*
X150622000Y-109093000D02*
X153670000Y-112141000D01*
X153670000Y-112141000D02*
X182626000Y-112141000D01*
X183896000Y-110871000D02*
X183896000Y-106934000D01*
X182626000Y-112141000D02*
X183896000Y-110871000D01*
X146785949Y-96647000D02*
X151765000Y-101626051D01*
X145796000Y-96647000D02*
X146785949Y-96647000D01*
X151765000Y-101626051D02*
X151765000Y-108712000D01*
X151765000Y-108712000D02*
X154178000Y-111125000D01*
X154178000Y-111125000D02*
X180467000Y-111125000D01*
X181356000Y-110236000D02*
X181356000Y-106934000D01*
X180467000Y-111125000D02*
X181356000Y-110236000D01*
X146785949Y-94107000D02*
X152908000Y-100229051D01*
X145796000Y-94107000D02*
X146785949Y-94107000D01*
X152908000Y-100229051D02*
X152908000Y-108331000D01*
X152908000Y-108331000D02*
X154813000Y-110236000D01*
X154813000Y-110236000D02*
X177927000Y-110236000D01*
X178816000Y-109347000D02*
X178816000Y-106934000D01*
X177927000Y-110236000D02*
X178816000Y-109347000D01*
X146785949Y-91567000D02*
X154051000Y-98832051D01*
X145796000Y-91567000D02*
X146785949Y-91567000D01*
X154051000Y-98832051D02*
X154051000Y-107823000D01*
X154051000Y-107823000D02*
X155575000Y-109347000D01*
X155575000Y-109347000D02*
X175514000Y-109347000D01*
X176276000Y-108585000D02*
X176276000Y-106934000D01*
X175514000Y-109347000D02*
X176276000Y-108585000D01*
D18*
G36*
X189840000Y-126340000D02*
G01*
X140360000Y-126340000D01*
X140360000Y-122979818D01*
X141091701Y-122979818D01*
X141091701Y-123456182D01*
X141184635Y-123923392D01*
X141366931Y-124363494D01*
X141631585Y-124759576D01*
X141968424Y-125096415D01*
X142364506Y-125361069D01*
X142804608Y-125543365D01*
X143271818Y-125636299D01*
X143748182Y-125636299D01*
X144215392Y-125543365D01*
X144655494Y-125361069D01*
X144904911Y-125194413D01*
X182940192Y-125194413D01*
X183035956Y-125458814D01*
X183325571Y-125599704D01*
X183637108Y-125681384D01*
X183958595Y-125700718D01*
X184277675Y-125656961D01*
X184582088Y-125551795D01*
X184756044Y-125458814D01*
X184851808Y-125194413D01*
X183896000Y-124238605D01*
X182940192Y-125194413D01*
X144904911Y-125194413D01*
X145051576Y-125096415D01*
X145388415Y-124759576D01*
X145653069Y-124363494D01*
X145753266Y-124121595D01*
X182254282Y-124121595D01*
X182298039Y-124440675D01*
X182403205Y-124745088D01*
X182496186Y-124919044D01*
X182760587Y-125014808D01*
X183716395Y-124059000D01*
X184075605Y-124059000D01*
X185031413Y-125014808D01*
X185295814Y-124919044D01*
X185436704Y-124629429D01*
X185518384Y-124317892D01*
X185537718Y-123996405D01*
X185493961Y-123677325D01*
X185388795Y-123372912D01*
X185295814Y-123198956D01*
X185031413Y-123103192D01*
X184075605Y-124059000D01*
X183716395Y-124059000D01*
X182760587Y-123103192D01*
X182496186Y-123198956D01*
X182355296Y-123488571D01*
X182273616Y-123800108D01*
X182254282Y-124121595D01*
X145753266Y-124121595D01*
X145835365Y-123923392D01*
X145928299Y-123456182D01*
X145928299Y-122979818D01*
X145917114Y-122923587D01*
X182940192Y-122923587D01*
X183896000Y-123879395D01*
X184851808Y-122923587D01*
X184756044Y-122659186D01*
X184466429Y-122518296D01*
X184154892Y-122436616D01*
X183833405Y-122417282D01*
X183514325Y-122461039D01*
X183209912Y-122566205D01*
X183035956Y-122659186D01*
X182940192Y-122923587D01*
X145917114Y-122923587D01*
X145835365Y-122512608D01*
X145653069Y-122072506D01*
X145388415Y-121676424D01*
X145051576Y-121339585D01*
X144655494Y-121074931D01*
X144215392Y-120892635D01*
X143748182Y-120799701D01*
X143271818Y-120799701D01*
X142804608Y-120892635D01*
X142364506Y-121074931D01*
X141968424Y-121339585D01*
X141631585Y-121676424D01*
X141366931Y-122072506D01*
X141184635Y-122512608D01*
X141091701Y-122979818D01*
X140360000Y-122979818D01*
X140360000Y-118289000D01*
X167408928Y-118289000D01*
X167408928Y-122249000D01*
X167421188Y-122373482D01*
X167457498Y-122493180D01*
X167516463Y-122603494D01*
X167595815Y-122700185D01*
X167692506Y-122779537D01*
X167802820Y-122838502D01*
X167922518Y-122874812D01*
X168047000Y-122887072D01*
X170027000Y-122887072D01*
X170151482Y-122874812D01*
X170271180Y-122838502D01*
X170381494Y-122779537D01*
X170478185Y-122700185D01*
X170557537Y-122603494D01*
X170616502Y-122493180D01*
X170652812Y-122373482D01*
X170665072Y-122249000D01*
X170665072Y-120396000D01*
X172412000Y-120396000D01*
X172412000Y-121386000D01*
X172468000Y-121700582D01*
X172584296Y-121998194D01*
X172756419Y-122267399D01*
X172977754Y-122497852D01*
X173239795Y-122680696D01*
X173532472Y-122808905D01*
X173658135Y-122839218D01*
X173910000Y-122719740D01*
X173910000Y-120396000D01*
X174164000Y-120396000D01*
X174164000Y-122719740D01*
X174415865Y-122839218D01*
X174541528Y-122808905D01*
X174834205Y-122680696D01*
X175096246Y-122497852D01*
X175317581Y-122267399D01*
X175489704Y-121998194D01*
X175606000Y-121700582D01*
X175662000Y-121386000D01*
X175662000Y-120396000D01*
X174164000Y-120396000D01*
X173910000Y-120396000D01*
X172412000Y-120396000D01*
X170665072Y-120396000D01*
X170665072Y-119152000D01*
X172412000Y-119152000D01*
X172412000Y-120142000D01*
X173910000Y-120142000D01*
X173910000Y-117818260D01*
X174164000Y-117818260D01*
X174164000Y-120142000D01*
X175662000Y-120142000D01*
X175662000Y-119152000D01*
X175606000Y-118837418D01*
X175489704Y-118539806D01*
X175317581Y-118270601D01*
X175096246Y-118040148D01*
X174834205Y-117857304D01*
X174541528Y-117729095D01*
X174415865Y-117698782D01*
X174164000Y-117818260D01*
X173910000Y-117818260D01*
X173658135Y-117698782D01*
X173532472Y-117729095D01*
X173239795Y-117857304D01*
X172977754Y-118040148D01*
X172756419Y-118270601D01*
X172584296Y-118539806D01*
X172468000Y-118837418D01*
X172412000Y-119152000D01*
X170665072Y-119152000D01*
X170665072Y-118289000D01*
X170652812Y-118164518D01*
X170616502Y-118044820D01*
X170557537Y-117934506D01*
X170478185Y-117837815D01*
X170381494Y-117758463D01*
X170271180Y-117699498D01*
X170151482Y-117663188D01*
X170027000Y-117650928D01*
X168047000Y-117650928D01*
X167922518Y-117663188D01*
X167802820Y-117699498D01*
X167692506Y-117758463D01*
X167595815Y-117837815D01*
X167516463Y-117934506D01*
X167457498Y-118044820D01*
X167421188Y-118164518D01*
X167408928Y-118289000D01*
X140360000Y-118289000D01*
X140360000Y-84021473D01*
X141916610Y-84021473D01*
X141956875Y-84281344D01*
X142047065Y-84528366D01*
X142100963Y-84629203D01*
X142334731Y-84688664D01*
X143076395Y-83947000D01*
X142334731Y-83205336D01*
X142100963Y-83264797D01*
X141990066Y-83503242D01*
X141927817Y-83758740D01*
X141916610Y-84021473D01*
X140360000Y-84021473D01*
X140360000Y-82804000D01*
X142570735Y-82804000D01*
X142514336Y-83025731D01*
X143256000Y-83767395D01*
X143997664Y-83025731D01*
X143941265Y-82804000D01*
X145103685Y-82804000D01*
X144944987Y-82910038D01*
X144759038Y-83095987D01*
X144612939Y-83314641D01*
X144524379Y-83528444D01*
X144464935Y-83365634D01*
X144411037Y-83264797D01*
X144177269Y-83205336D01*
X143435605Y-83947000D01*
X144177269Y-84688664D01*
X144411037Y-84629203D01*
X144521934Y-84390758D01*
X144526706Y-84371173D01*
X144612939Y-84579359D01*
X144759038Y-84798013D01*
X144944987Y-84983962D01*
X145163641Y-85130061D01*
X145373530Y-85217000D01*
X145163641Y-85303939D01*
X144944987Y-85450038D01*
X144759038Y-85635987D01*
X144612939Y-85854641D01*
X144526000Y-86064530D01*
X144439061Y-85854641D01*
X144292962Y-85635987D01*
X144107013Y-85450038D01*
X143888359Y-85303939D01*
X143674556Y-85215379D01*
X143837366Y-85155935D01*
X143938203Y-85102037D01*
X143997664Y-84868269D01*
X143256000Y-84126605D01*
X142514336Y-84868269D01*
X142573797Y-85102037D01*
X142812242Y-85212934D01*
X142831827Y-85217706D01*
X142623641Y-85303939D01*
X142404987Y-85450038D01*
X142219038Y-85635987D01*
X142072939Y-85854641D01*
X141972304Y-86097595D01*
X141921000Y-86355514D01*
X141921000Y-86618486D01*
X141972304Y-86876405D01*
X142072939Y-87119359D01*
X142219038Y-87338013D01*
X142404987Y-87523962D01*
X142623641Y-87670061D01*
X142833530Y-87757000D01*
X142623641Y-87843939D01*
X142404987Y-87990038D01*
X142219038Y-88175987D01*
X142072939Y-88394641D01*
X141972304Y-88637595D01*
X141921000Y-88895514D01*
X141921000Y-89158486D01*
X141972304Y-89416405D01*
X142072939Y-89659359D01*
X142219038Y-89878013D01*
X142404987Y-90063962D01*
X142623641Y-90210061D01*
X142833530Y-90297000D01*
X142623641Y-90383939D01*
X142404987Y-90530038D01*
X142219038Y-90715987D01*
X142072939Y-90934641D01*
X141972304Y-91177595D01*
X141921000Y-91435514D01*
X141921000Y-91698486D01*
X141972304Y-91956405D01*
X142072939Y-92199359D01*
X142219038Y-92418013D01*
X142404987Y-92603962D01*
X142623641Y-92750061D01*
X142833530Y-92837000D01*
X142623641Y-92923939D01*
X142404987Y-93070038D01*
X142219038Y-93255987D01*
X142072939Y-93474641D01*
X141972304Y-93717595D01*
X141921000Y-93975514D01*
X141921000Y-94238486D01*
X141972304Y-94496405D01*
X142072939Y-94739359D01*
X142219038Y-94958013D01*
X142404987Y-95143962D01*
X142623641Y-95290061D01*
X142833530Y-95377000D01*
X142623641Y-95463939D01*
X142404987Y-95610038D01*
X142219038Y-95795987D01*
X142072939Y-96014641D01*
X141972304Y-96257595D01*
X141921000Y-96515514D01*
X141921000Y-96778486D01*
X141972304Y-97036405D01*
X142072939Y-97279359D01*
X142219038Y-97498013D01*
X142404987Y-97683962D01*
X142623641Y-97830061D01*
X142833530Y-97917000D01*
X142623641Y-98003939D01*
X142404987Y-98150038D01*
X142219038Y-98335987D01*
X142072939Y-98554641D01*
X141972304Y-98797595D01*
X141921000Y-99055514D01*
X141921000Y-99318486D01*
X141972304Y-99576405D01*
X142072939Y-99819359D01*
X142219038Y-100038013D01*
X142404987Y-100223962D01*
X142623641Y-100370061D01*
X142833530Y-100457000D01*
X142623641Y-100543939D01*
X142404987Y-100690038D01*
X142219038Y-100875987D01*
X142072939Y-101094641D01*
X141972304Y-101337595D01*
X141921000Y-101595514D01*
X141921000Y-101858486D01*
X141972304Y-102116405D01*
X142072939Y-102359359D01*
X142219038Y-102578013D01*
X142404987Y-102763962D01*
X142623641Y-102910061D01*
X142833530Y-102997000D01*
X142623641Y-103083939D01*
X142404987Y-103230038D01*
X142219038Y-103415987D01*
X142155095Y-103511686D01*
X142091014Y-103517997D01*
X141947753Y-103561454D01*
X141815724Y-103632026D01*
X141699999Y-103726999D01*
X141676196Y-103756003D01*
X141348003Y-104084196D01*
X141318999Y-104107999D01*
X141263871Y-104175174D01*
X141224026Y-104223724D01*
X141200894Y-104267001D01*
X141153454Y-104355754D01*
X141109997Y-104499015D01*
X141099000Y-104610668D01*
X141099000Y-104610678D01*
X141095324Y-104648000D01*
X141099000Y-104685323D01*
X141099001Y-109436668D01*
X141095324Y-109474000D01*
X141099001Y-109511333D01*
X141109998Y-109622986D01*
X141114931Y-109639247D01*
X141153454Y-109766246D01*
X141224026Y-109898276D01*
X141292715Y-109981973D01*
X141319000Y-110014001D01*
X141347998Y-110037799D01*
X146121201Y-114811003D01*
X146144999Y-114840001D01*
X146260724Y-114934974D01*
X146392753Y-115005546D01*
X146536014Y-115049003D01*
X146647667Y-115060000D01*
X146647675Y-115060000D01*
X146685000Y-115063676D01*
X146722325Y-115060000D01*
X182401988Y-115060000D01*
X182365463Y-115104506D01*
X182306498Y-115214820D01*
X182270188Y-115334518D01*
X182257928Y-115459000D01*
X182257928Y-117459000D01*
X182270188Y-117583482D01*
X182306498Y-117703180D01*
X182365463Y-117813494D01*
X182444815Y-117910185D01*
X182541506Y-117989537D01*
X182651820Y-118048502D01*
X182771518Y-118084812D01*
X182896000Y-118097072D01*
X184896000Y-118097072D01*
X185020482Y-118084812D01*
X185140180Y-118048502D01*
X185250494Y-117989537D01*
X185347185Y-117910185D01*
X185426537Y-117813494D01*
X185485502Y-117703180D01*
X185521812Y-117583482D01*
X185534072Y-117459000D01*
X185534072Y-115459000D01*
X185521812Y-115334518D01*
X185485502Y-115214820D01*
X185426537Y-115104506D01*
X185347185Y-115007815D01*
X185250494Y-114928463D01*
X185140180Y-114869498D01*
X185020482Y-114833188D01*
X184896000Y-114820928D01*
X183181654Y-114820928D01*
X183189804Y-114810997D01*
X187328004Y-110672798D01*
X187357001Y-110649001D01*
X187409526Y-110584999D01*
X187451974Y-110533277D01*
X187522546Y-110401247D01*
X187551074Y-110307201D01*
X187566003Y-110257986D01*
X187577000Y-110146333D01*
X187577000Y-110146324D01*
X187580676Y-110109001D01*
X187577000Y-110071678D01*
X187577000Y-91731322D01*
X187580676Y-91694000D01*
X187577000Y-91656677D01*
X187577000Y-91656667D01*
X187566003Y-91545014D01*
X187522546Y-91401753D01*
X187497298Y-91354518D01*
X187451974Y-91269723D01*
X187380799Y-91182997D01*
X187357001Y-91153999D01*
X187328003Y-91130201D01*
X186364804Y-90167002D01*
X186341001Y-90137999D01*
X186225276Y-90043026D01*
X186093247Y-89972454D01*
X185949986Y-89928997D01*
X185838333Y-89918000D01*
X185838322Y-89918000D01*
X185801000Y-89914324D01*
X185763678Y-89918000D01*
X181901322Y-89918000D01*
X181863999Y-89914324D01*
X181826676Y-89918000D01*
X181826667Y-89918000D01*
X181715014Y-89928997D01*
X181571753Y-89972454D01*
X181439724Y-90043026D01*
X181323999Y-90137999D01*
X181300200Y-90166998D01*
X180845002Y-90622197D01*
X180815999Y-90645999D01*
X180789737Y-90678000D01*
X180721026Y-90761724D01*
X180686142Y-90826987D01*
X180650454Y-90893754D01*
X180606997Y-91037015D01*
X180606316Y-91043929D01*
X180409368Y-91175525D01*
X180202525Y-91382368D01*
X180086000Y-91556760D01*
X179969475Y-91382368D01*
X179762632Y-91175525D01*
X179519411Y-91013010D01*
X179249158Y-90901068D01*
X178962260Y-90844000D01*
X178669740Y-90844000D01*
X178382842Y-90901068D01*
X178112589Y-91013010D01*
X177869368Y-91175525D01*
X177737513Y-91307380D01*
X177715502Y-91234820D01*
X177656537Y-91124506D01*
X177577185Y-91027815D01*
X177480494Y-90948463D01*
X177370180Y-90889498D01*
X177250482Y-90853188D01*
X177126000Y-90840928D01*
X176561750Y-90844000D01*
X176403000Y-91002750D01*
X176403000Y-92202000D01*
X176423000Y-92202000D01*
X176423000Y-92456000D01*
X176403000Y-92456000D01*
X176403000Y-93655250D01*
X176561750Y-93814000D01*
X177126000Y-93817072D01*
X177250482Y-93804812D01*
X177370180Y-93768502D01*
X177480494Y-93709537D01*
X177577185Y-93630185D01*
X177656537Y-93533494D01*
X177715502Y-93423180D01*
X177737513Y-93350620D01*
X177869368Y-93482475D01*
X178112589Y-93644990D01*
X178382842Y-93756932D01*
X178669740Y-93814000D01*
X178962260Y-93814000D01*
X179249158Y-93756932D01*
X179519411Y-93644990D01*
X179762632Y-93482475D01*
X179969475Y-93275632D01*
X180086000Y-93101240D01*
X180202525Y-93275632D01*
X180409368Y-93482475D01*
X180652589Y-93644990D01*
X180922842Y-93756932D01*
X181209740Y-93814000D01*
X181502260Y-93814000D01*
X181789158Y-93756932D01*
X182059411Y-93644990D01*
X182302632Y-93482475D01*
X182509475Y-93275632D01*
X182626000Y-93101240D01*
X182742525Y-93275632D01*
X182949368Y-93482475D01*
X183192589Y-93644990D01*
X183462842Y-93756932D01*
X183749740Y-93814000D01*
X184042260Y-93814000D01*
X184329158Y-93756932D01*
X184599411Y-93644990D01*
X184842632Y-93482475D01*
X185009693Y-93315414D01*
X185295000Y-93600721D01*
X185295000Y-99445995D01*
X185211990Y-99245589D01*
X185049475Y-99002368D01*
X184842632Y-98795525D01*
X184599411Y-98633010D01*
X184329158Y-98521068D01*
X184042260Y-98464000D01*
X183749740Y-98464000D01*
X183462842Y-98521068D01*
X183192589Y-98633010D01*
X182949368Y-98795525D01*
X182742525Y-99002368D01*
X182626000Y-99176760D01*
X182509475Y-99002368D01*
X182302632Y-98795525D01*
X182059411Y-98633010D01*
X181789158Y-98521068D01*
X181502260Y-98464000D01*
X181209740Y-98464000D01*
X180922842Y-98521068D01*
X180652589Y-98633010D01*
X180409368Y-98795525D01*
X180202525Y-99002368D01*
X180086000Y-99176760D01*
X179969475Y-99002368D01*
X179762632Y-98795525D01*
X179519411Y-98633010D01*
X179249158Y-98521068D01*
X178962260Y-98464000D01*
X178669740Y-98464000D01*
X178382842Y-98521068D01*
X178112589Y-98633010D01*
X177869368Y-98795525D01*
X177737513Y-98927380D01*
X177715502Y-98854820D01*
X177656537Y-98744506D01*
X177577185Y-98647815D01*
X177480494Y-98568463D01*
X177370180Y-98509498D01*
X177250482Y-98473188D01*
X177126000Y-98460928D01*
X176561750Y-98464000D01*
X176403000Y-98622750D01*
X176403000Y-99822000D01*
X176423000Y-99822000D01*
X176423000Y-100076000D01*
X176403000Y-100076000D01*
X176403000Y-101275250D01*
X176561750Y-101434000D01*
X177126000Y-101437072D01*
X177250482Y-101424812D01*
X177370180Y-101388502D01*
X177480494Y-101329537D01*
X177577185Y-101250185D01*
X177656537Y-101153494D01*
X177715502Y-101043180D01*
X177737513Y-100970620D01*
X177869368Y-101102475D01*
X178112589Y-101264990D01*
X178382842Y-101376932D01*
X178669740Y-101434000D01*
X178962260Y-101434000D01*
X179249158Y-101376932D01*
X179519411Y-101264990D01*
X179762632Y-101102475D01*
X179969475Y-100895632D01*
X180086000Y-100721240D01*
X180202525Y-100895632D01*
X180409368Y-101102475D01*
X180652589Y-101264990D01*
X180922842Y-101376932D01*
X181209740Y-101434000D01*
X181502260Y-101434000D01*
X181789158Y-101376932D01*
X182059411Y-101264990D01*
X182302632Y-101102475D01*
X182509475Y-100895632D01*
X182626000Y-100721240D01*
X182742525Y-100895632D01*
X182949368Y-101102475D01*
X183192589Y-101264990D01*
X183462842Y-101376932D01*
X183749740Y-101434000D01*
X184042260Y-101434000D01*
X184329158Y-101376932D01*
X184599411Y-101264990D01*
X184842632Y-101102475D01*
X185049475Y-100895632D01*
X185211990Y-100652411D01*
X185295000Y-100452005D01*
X185295001Y-105764049D01*
X185276537Y-105729506D01*
X185197185Y-105632815D01*
X185100494Y-105553463D01*
X184990180Y-105494498D01*
X184870482Y-105458188D01*
X184746000Y-105445928D01*
X183046000Y-105445928D01*
X182921518Y-105458188D01*
X182801820Y-105494498D01*
X182691506Y-105553463D01*
X182594815Y-105632815D01*
X182515463Y-105729506D01*
X182456498Y-105839820D01*
X182434487Y-105912380D01*
X182302632Y-105780525D01*
X182059411Y-105618010D01*
X181789158Y-105506068D01*
X181502260Y-105449000D01*
X181209740Y-105449000D01*
X180922842Y-105506068D01*
X180652589Y-105618010D01*
X180409368Y-105780525D01*
X180202525Y-105987368D01*
X180086000Y-106161760D01*
X179969475Y-105987368D01*
X179762632Y-105780525D01*
X179519411Y-105618010D01*
X179249158Y-105506068D01*
X178962260Y-105449000D01*
X178669740Y-105449000D01*
X178382842Y-105506068D01*
X178112589Y-105618010D01*
X177869368Y-105780525D01*
X177662525Y-105987368D01*
X177546000Y-106161760D01*
X177429475Y-105987368D01*
X177222632Y-105780525D01*
X176979411Y-105618010D01*
X176709158Y-105506068D01*
X176422260Y-105449000D01*
X176129740Y-105449000D01*
X175842842Y-105506068D01*
X175572589Y-105618010D01*
X175329368Y-105780525D01*
X175122525Y-105987368D01*
X174960010Y-106230589D01*
X174848068Y-106500842D01*
X174791000Y-106787740D01*
X174791000Y-107080260D01*
X174848068Y-107367158D01*
X174960010Y-107637411D01*
X175122525Y-107880632D01*
X175329368Y-108087475D01*
X175516000Y-108212179D01*
X175516000Y-108270198D01*
X175199199Y-108587000D01*
X155889803Y-108587000D01*
X154811000Y-107508199D01*
X154811000Y-99261473D01*
X167316610Y-99261473D01*
X167356875Y-99521344D01*
X167447065Y-99768366D01*
X167500963Y-99869203D01*
X167734731Y-99928664D01*
X168476395Y-99187000D01*
X167734731Y-98445336D01*
X167500963Y-98504797D01*
X167390066Y-98743242D01*
X167327817Y-98998740D01*
X167316610Y-99261473D01*
X154811000Y-99261473D01*
X154811000Y-98869376D01*
X154814676Y-98832051D01*
X154811000Y-98794726D01*
X154811000Y-98794718D01*
X154800003Y-98683065D01*
X154756546Y-98539804D01*
X154685974Y-98407775D01*
X154591001Y-98292050D01*
X154562004Y-98268253D01*
X147349753Y-91056003D01*
X147325950Y-91026999D01*
X147210225Y-90932026D01*
X147078196Y-90861454D01*
X146934935Y-90817997D01*
X146898740Y-90814432D01*
X146832962Y-90715987D01*
X146647013Y-90530038D01*
X146428359Y-90383939D01*
X146218470Y-90297000D01*
X146428359Y-90210061D01*
X146647013Y-90063962D01*
X146832962Y-89878013D01*
X146979061Y-89659359D01*
X147079696Y-89416405D01*
X147131000Y-89158486D01*
X147131000Y-88895514D01*
X147079696Y-88637595D01*
X146979061Y-88394641D01*
X146832962Y-88175987D01*
X146647013Y-87990038D01*
X146428359Y-87843939D01*
X146218470Y-87757000D01*
X146428359Y-87670061D01*
X146647013Y-87523962D01*
X146832962Y-87338013D01*
X146979061Y-87119359D01*
X147079696Y-86876405D01*
X147131000Y-86618486D01*
X147131000Y-86355514D01*
X147079696Y-86097595D01*
X146979061Y-85854641D01*
X146832962Y-85635987D01*
X146647013Y-85450038D01*
X146428359Y-85303939D01*
X146218470Y-85217000D01*
X146428359Y-85130061D01*
X146647013Y-84983962D01*
X146832962Y-84798013D01*
X146979061Y-84579359D01*
X147079696Y-84336405D01*
X147131000Y-84078486D01*
X147131000Y-83815514D01*
X147079696Y-83557595D01*
X146979061Y-83314641D01*
X146832962Y-83095987D01*
X146647013Y-82910038D01*
X146488315Y-82804000D01*
X167963685Y-82804000D01*
X167804987Y-82910038D01*
X167619038Y-83095987D01*
X167472939Y-83314641D01*
X167372304Y-83557595D01*
X167321000Y-83815514D01*
X167321000Y-84078486D01*
X167372304Y-84336405D01*
X167472939Y-84579359D01*
X167619038Y-84798013D01*
X167804987Y-84983962D01*
X168023641Y-85130061D01*
X168233530Y-85217000D01*
X168023641Y-85303939D01*
X167804987Y-85450038D01*
X167619038Y-85635987D01*
X167472939Y-85854641D01*
X167372304Y-86097595D01*
X167321000Y-86355514D01*
X167321000Y-86618486D01*
X167372304Y-86876405D01*
X167472939Y-87119359D01*
X167619038Y-87338013D01*
X167804987Y-87523962D01*
X168023641Y-87670061D01*
X168233530Y-87757000D01*
X168023641Y-87843939D01*
X167804987Y-87990038D01*
X167619038Y-88175987D01*
X167472939Y-88394641D01*
X167372304Y-88637595D01*
X167321000Y-88895514D01*
X167321000Y-89158486D01*
X167372304Y-89416405D01*
X167472939Y-89659359D01*
X167619038Y-89878013D01*
X167804987Y-90063962D01*
X168023641Y-90210061D01*
X168233530Y-90297000D01*
X168023641Y-90383939D01*
X167804987Y-90530038D01*
X167619038Y-90715987D01*
X167472939Y-90934641D01*
X167372304Y-91177595D01*
X167321000Y-91435514D01*
X167321000Y-91698486D01*
X167372304Y-91956405D01*
X167472939Y-92199359D01*
X167619038Y-92418013D01*
X167804987Y-92603962D01*
X168023641Y-92750061D01*
X168233530Y-92837000D01*
X168023641Y-92923939D01*
X167804987Y-93070038D01*
X167619038Y-93255987D01*
X167472939Y-93474641D01*
X167372304Y-93717595D01*
X167321000Y-93975514D01*
X167321000Y-94238486D01*
X167372304Y-94496405D01*
X167472939Y-94739359D01*
X167619038Y-94958013D01*
X167804987Y-95143962D01*
X168023641Y-95290061D01*
X168233530Y-95377000D01*
X168023641Y-95463939D01*
X167804987Y-95610038D01*
X167619038Y-95795987D01*
X167472939Y-96014641D01*
X167372304Y-96257595D01*
X167321000Y-96515514D01*
X167321000Y-96778486D01*
X167372304Y-97036405D01*
X167472939Y-97279359D01*
X167619038Y-97498013D01*
X167804987Y-97683962D01*
X168023641Y-97830061D01*
X168237444Y-97918621D01*
X168074634Y-97978065D01*
X167973797Y-98031963D01*
X167914336Y-98265731D01*
X168656000Y-99007395D01*
X169397664Y-98265731D01*
X169338203Y-98031963D01*
X169099758Y-97921066D01*
X169080173Y-97916294D01*
X169288359Y-97830061D01*
X169507013Y-97683962D01*
X169692962Y-97498013D01*
X169839061Y-97279359D01*
X169926000Y-97069470D01*
X170012939Y-97279359D01*
X170159038Y-97498013D01*
X170344987Y-97683962D01*
X170563641Y-97830061D01*
X170773530Y-97917000D01*
X170563641Y-98003939D01*
X170344987Y-98150038D01*
X170159038Y-98335987D01*
X170012939Y-98554641D01*
X169924379Y-98768444D01*
X169864935Y-98605634D01*
X169811037Y-98504797D01*
X169577269Y-98445336D01*
X168835605Y-99187000D01*
X169577269Y-99928664D01*
X169811037Y-99869203D01*
X169921934Y-99630758D01*
X169926706Y-99611173D01*
X170012939Y-99819359D01*
X170159038Y-100038013D01*
X170344987Y-100223962D01*
X170563641Y-100370061D01*
X170773530Y-100457000D01*
X170563641Y-100543939D01*
X170344987Y-100690038D01*
X170159038Y-100875987D01*
X170012939Y-101094641D01*
X169926000Y-101304530D01*
X169839061Y-101094641D01*
X169692962Y-100875987D01*
X169507013Y-100690038D01*
X169288359Y-100543939D01*
X169074556Y-100455379D01*
X169237366Y-100395935D01*
X169338203Y-100342037D01*
X169397664Y-100108269D01*
X168656000Y-99366605D01*
X167914336Y-100108269D01*
X167973797Y-100342037D01*
X168212242Y-100452934D01*
X168231827Y-100457706D01*
X168023641Y-100543939D01*
X167804987Y-100690038D01*
X167619038Y-100875987D01*
X167472939Y-101094641D01*
X167372304Y-101337595D01*
X167321000Y-101595514D01*
X167321000Y-101858486D01*
X167372304Y-102116405D01*
X167472939Y-102359359D01*
X167619038Y-102578013D01*
X167804987Y-102763962D01*
X168023641Y-102910061D01*
X168233530Y-102997000D01*
X168023641Y-103083939D01*
X167804987Y-103230038D01*
X167619038Y-103415987D01*
X167472939Y-103634641D01*
X167372304Y-103877595D01*
X167321000Y-104135514D01*
X167321000Y-104398486D01*
X167372304Y-104656405D01*
X167472939Y-104899359D01*
X167619038Y-105118013D01*
X167804987Y-105303962D01*
X168023641Y-105450061D01*
X168233530Y-105537000D01*
X168023641Y-105623939D01*
X167804987Y-105770038D01*
X167619038Y-105955987D01*
X167472939Y-106174641D01*
X167372304Y-106417595D01*
X167321000Y-106675514D01*
X167321000Y-106938486D01*
X167372304Y-107196405D01*
X167472939Y-107439359D01*
X167619038Y-107658013D01*
X167804987Y-107843962D01*
X168023641Y-107990061D01*
X168266595Y-108090696D01*
X168524514Y-108142000D01*
X168787486Y-108142000D01*
X169045405Y-108090696D01*
X169288359Y-107990061D01*
X169507013Y-107843962D01*
X169692962Y-107658013D01*
X169839061Y-107439359D01*
X169926000Y-107229470D01*
X170012939Y-107439359D01*
X170159038Y-107658013D01*
X170344987Y-107843962D01*
X170563641Y-107990061D01*
X170806595Y-108090696D01*
X171064514Y-108142000D01*
X171327486Y-108142000D01*
X171585405Y-108090696D01*
X171828359Y-107990061D01*
X172047013Y-107843962D01*
X172232962Y-107658013D01*
X172379061Y-107439359D01*
X172479696Y-107196405D01*
X172531000Y-106938486D01*
X172531000Y-106675514D01*
X172479696Y-106417595D01*
X172379061Y-106174641D01*
X172232962Y-105955987D01*
X172047013Y-105770038D01*
X171828359Y-105623939D01*
X171618470Y-105537000D01*
X171828359Y-105450061D01*
X172047013Y-105303962D01*
X172232962Y-105118013D01*
X172379061Y-104899359D01*
X172479696Y-104656405D01*
X172531000Y-104398486D01*
X172531000Y-104135514D01*
X172479696Y-103877595D01*
X172379061Y-103634641D01*
X172232962Y-103415987D01*
X172047013Y-103230038D01*
X171828359Y-103083939D01*
X171618470Y-102997000D01*
X171828359Y-102910061D01*
X172047013Y-102763962D01*
X172232962Y-102578013D01*
X172379061Y-102359359D01*
X172479696Y-102116405D01*
X172531000Y-101858486D01*
X172531000Y-101595514D01*
X172479696Y-101337595D01*
X172379061Y-101094641D01*
X172232962Y-100875987D01*
X172155975Y-100799000D01*
X174787928Y-100799000D01*
X174800188Y-100923482D01*
X174836498Y-101043180D01*
X174895463Y-101153494D01*
X174974815Y-101250185D01*
X175071506Y-101329537D01*
X175181820Y-101388502D01*
X175301518Y-101424812D01*
X175426000Y-101437072D01*
X175990250Y-101434000D01*
X176149000Y-101275250D01*
X176149000Y-100076000D01*
X174949750Y-100076000D01*
X174791000Y-100234750D01*
X174787928Y-100799000D01*
X172155975Y-100799000D01*
X172047013Y-100690038D01*
X171828359Y-100543939D01*
X171618470Y-100457000D01*
X171828359Y-100370061D01*
X172047013Y-100223962D01*
X172232962Y-100038013D01*
X172379061Y-99819359D01*
X172479696Y-99576405D01*
X172531000Y-99318486D01*
X172531000Y-99099000D01*
X174787928Y-99099000D01*
X174791000Y-99663250D01*
X174949750Y-99822000D01*
X176149000Y-99822000D01*
X176149000Y-98622750D01*
X175990250Y-98464000D01*
X175426000Y-98460928D01*
X175301518Y-98473188D01*
X175181820Y-98509498D01*
X175071506Y-98568463D01*
X174974815Y-98647815D01*
X174895463Y-98744506D01*
X174836498Y-98854820D01*
X174800188Y-98974518D01*
X174787928Y-99099000D01*
X172531000Y-99099000D01*
X172531000Y-99055514D01*
X172479696Y-98797595D01*
X172379061Y-98554641D01*
X172232962Y-98335987D01*
X172047013Y-98150038D01*
X171828359Y-98003939D01*
X171618470Y-97917000D01*
X171828359Y-97830061D01*
X172047013Y-97683962D01*
X172232962Y-97498013D01*
X172379061Y-97279359D01*
X172479696Y-97036405D01*
X172531000Y-96778486D01*
X172531000Y-96515514D01*
X172479696Y-96257595D01*
X172379061Y-96014641D01*
X172232962Y-95795987D01*
X172047013Y-95610038D01*
X171828359Y-95463939D01*
X171618470Y-95377000D01*
X171828359Y-95290061D01*
X172047013Y-95143962D01*
X172232962Y-94958013D01*
X172379061Y-94739359D01*
X172479696Y-94496405D01*
X172531000Y-94238486D01*
X172531000Y-93975514D01*
X172479696Y-93717595D01*
X172379061Y-93474641D01*
X172232962Y-93255987D01*
X172155975Y-93179000D01*
X174787928Y-93179000D01*
X174800188Y-93303482D01*
X174836498Y-93423180D01*
X174895463Y-93533494D01*
X174974815Y-93630185D01*
X175071506Y-93709537D01*
X175181820Y-93768502D01*
X175301518Y-93804812D01*
X175426000Y-93817072D01*
X175990250Y-93814000D01*
X176149000Y-93655250D01*
X176149000Y-92456000D01*
X174949750Y-92456000D01*
X174791000Y-92614750D01*
X174787928Y-93179000D01*
X172155975Y-93179000D01*
X172047013Y-93070038D01*
X171828359Y-92923939D01*
X171618470Y-92837000D01*
X171828359Y-92750061D01*
X172047013Y-92603962D01*
X172232962Y-92418013D01*
X172379061Y-92199359D01*
X172479696Y-91956405D01*
X172531000Y-91698486D01*
X172531000Y-91479000D01*
X174787928Y-91479000D01*
X174791000Y-92043250D01*
X174949750Y-92202000D01*
X176149000Y-92202000D01*
X176149000Y-91002750D01*
X175990250Y-90844000D01*
X175426000Y-90840928D01*
X175301518Y-90853188D01*
X175181820Y-90889498D01*
X175071506Y-90948463D01*
X174974815Y-91027815D01*
X174895463Y-91124506D01*
X174836498Y-91234820D01*
X174800188Y-91354518D01*
X174787928Y-91479000D01*
X172531000Y-91479000D01*
X172531000Y-91435514D01*
X172479696Y-91177595D01*
X172379061Y-90934641D01*
X172232962Y-90715987D01*
X172047013Y-90530038D01*
X171828359Y-90383939D01*
X171618470Y-90297000D01*
X171828359Y-90210061D01*
X172047013Y-90063962D01*
X172232962Y-89878013D01*
X172379061Y-89659359D01*
X172479696Y-89416405D01*
X172531000Y-89158486D01*
X172531000Y-88895514D01*
X172479696Y-88637595D01*
X172379061Y-88394641D01*
X172232962Y-88175987D01*
X172047013Y-87990038D01*
X171828359Y-87843939D01*
X171618470Y-87757000D01*
X171828359Y-87670061D01*
X172047013Y-87523962D01*
X172232962Y-87338013D01*
X172379061Y-87119359D01*
X172479696Y-86876405D01*
X172531000Y-86618486D01*
X172531000Y-86355514D01*
X172524135Y-86321000D01*
X174787928Y-86321000D01*
X174800188Y-86445482D01*
X174836498Y-86565180D01*
X174895463Y-86675494D01*
X174974815Y-86772185D01*
X175071506Y-86851537D01*
X175181820Y-86910502D01*
X175301518Y-86946812D01*
X175426000Y-86959072D01*
X175990250Y-86956000D01*
X176149000Y-86797250D01*
X176149000Y-85598000D01*
X174949750Y-85598000D01*
X174791000Y-85756750D01*
X174787928Y-86321000D01*
X172524135Y-86321000D01*
X172479696Y-86097595D01*
X172379061Y-85854641D01*
X172232962Y-85635987D01*
X172047013Y-85450038D01*
X171828359Y-85303939D01*
X171614556Y-85215379D01*
X171777366Y-85155935D01*
X171878203Y-85102037D01*
X171937664Y-84868269D01*
X171196000Y-84126605D01*
X170454336Y-84868269D01*
X170513797Y-85102037D01*
X170752242Y-85212934D01*
X170771827Y-85217706D01*
X170563641Y-85303939D01*
X170344987Y-85450038D01*
X170159038Y-85635987D01*
X170012939Y-85854641D01*
X169926000Y-86064530D01*
X169839061Y-85854641D01*
X169692962Y-85635987D01*
X169507013Y-85450038D01*
X169288359Y-85303939D01*
X169078470Y-85217000D01*
X169288359Y-85130061D01*
X169507013Y-84983962D01*
X169692962Y-84798013D01*
X169839061Y-84579359D01*
X169927621Y-84365556D01*
X169987065Y-84528366D01*
X170040963Y-84629203D01*
X170274731Y-84688664D01*
X171016395Y-83947000D01*
X171375605Y-83947000D01*
X172117269Y-84688664D01*
X172351037Y-84629203D01*
X172354852Y-84621000D01*
X174787928Y-84621000D01*
X174791000Y-85185250D01*
X174949750Y-85344000D01*
X176149000Y-85344000D01*
X176149000Y-84144750D01*
X176403000Y-84144750D01*
X176403000Y-85344000D01*
X176423000Y-85344000D01*
X176423000Y-85598000D01*
X176403000Y-85598000D01*
X176403000Y-86797250D01*
X176561750Y-86956000D01*
X177126000Y-86959072D01*
X177250482Y-86946812D01*
X177370180Y-86910502D01*
X177480494Y-86851537D01*
X177577185Y-86772185D01*
X177656537Y-86675494D01*
X177715502Y-86565180D01*
X177737513Y-86492620D01*
X177869368Y-86624475D01*
X178112589Y-86786990D01*
X178382842Y-86898932D01*
X178669740Y-86956000D01*
X178962260Y-86956000D01*
X179249158Y-86898932D01*
X179519411Y-86786990D01*
X179762632Y-86624475D01*
X179969475Y-86417632D01*
X180086000Y-86243240D01*
X180202525Y-86417632D01*
X180409368Y-86624475D01*
X180652589Y-86786990D01*
X180922842Y-86898932D01*
X181209740Y-86956000D01*
X181502260Y-86956000D01*
X181789158Y-86898932D01*
X182059411Y-86786990D01*
X182302632Y-86624475D01*
X182509475Y-86417632D01*
X182671990Y-86174411D01*
X182783932Y-85904158D01*
X182841000Y-85617260D01*
X182841000Y-85324740D01*
X182783932Y-85037842D01*
X182671990Y-84767589D01*
X182509475Y-84524368D01*
X182302632Y-84317525D01*
X182059411Y-84155010D01*
X181789158Y-84043068D01*
X181502260Y-83986000D01*
X181209740Y-83986000D01*
X180922842Y-84043068D01*
X180652589Y-84155010D01*
X180409368Y-84317525D01*
X180202525Y-84524368D01*
X180086000Y-84698760D01*
X179969475Y-84524368D01*
X179762632Y-84317525D01*
X179519411Y-84155010D01*
X179249158Y-84043068D01*
X178962260Y-83986000D01*
X178669740Y-83986000D01*
X178382842Y-84043068D01*
X178112589Y-84155010D01*
X177869368Y-84317525D01*
X177737513Y-84449380D01*
X177715502Y-84376820D01*
X177656537Y-84266506D01*
X177577185Y-84169815D01*
X177480494Y-84090463D01*
X177370180Y-84031498D01*
X177250482Y-83995188D01*
X177126000Y-83982928D01*
X176561750Y-83986000D01*
X176403000Y-84144750D01*
X176149000Y-84144750D01*
X175990250Y-83986000D01*
X175426000Y-83982928D01*
X175301518Y-83995188D01*
X175181820Y-84031498D01*
X175071506Y-84090463D01*
X174974815Y-84169815D01*
X174895463Y-84266506D01*
X174836498Y-84376820D01*
X174800188Y-84496518D01*
X174787928Y-84621000D01*
X172354852Y-84621000D01*
X172461934Y-84390758D01*
X172524183Y-84135260D01*
X172535390Y-83872527D01*
X172495125Y-83612656D01*
X172404935Y-83365634D01*
X172351037Y-83264797D01*
X172117269Y-83205336D01*
X171375605Y-83947000D01*
X171016395Y-83947000D01*
X170274731Y-83205336D01*
X170040963Y-83264797D01*
X169930066Y-83503242D01*
X169925294Y-83522827D01*
X169839061Y-83314641D01*
X169692962Y-83095987D01*
X169507013Y-82910038D01*
X169348315Y-82804000D01*
X170510735Y-82804000D01*
X170454336Y-83025731D01*
X171196000Y-83767395D01*
X171937664Y-83025731D01*
X171881265Y-82804000D01*
X174498000Y-82804000D01*
X174522776Y-82801560D01*
X174546601Y-82794333D01*
X174568557Y-82782597D01*
X174587803Y-82766803D01*
X174603597Y-82747557D01*
X174615333Y-82725601D01*
X174622560Y-82701776D01*
X174625000Y-82677000D01*
X174625000Y-79390818D01*
X184906701Y-79390818D01*
X184906701Y-79867182D01*
X184999635Y-80334392D01*
X185181931Y-80774494D01*
X185446585Y-81170576D01*
X185783424Y-81507415D01*
X186179506Y-81772069D01*
X186619608Y-81954365D01*
X187086818Y-82047299D01*
X187563182Y-82047299D01*
X188030392Y-81954365D01*
X188470494Y-81772069D01*
X188866576Y-81507415D01*
X189203415Y-81170576D01*
X189468069Y-80774494D01*
X189650365Y-80334392D01*
X189743299Y-79867182D01*
X189743299Y-79390818D01*
X189650365Y-78923608D01*
X189468069Y-78483506D01*
X189203415Y-78087424D01*
X188866576Y-77750585D01*
X188470494Y-77485931D01*
X188030392Y-77303635D01*
X187563182Y-77210701D01*
X187086818Y-77210701D01*
X186619608Y-77303635D01*
X186179506Y-77485931D01*
X185783424Y-77750585D01*
X185446585Y-78087424D01*
X185181931Y-78483506D01*
X184999635Y-78923608D01*
X184906701Y-79390818D01*
X174625000Y-79390818D01*
X174625000Y-76860000D01*
X189840001Y-76860000D01*
X189840000Y-126340000D01*
G37*
X189840000Y-126340000D02*
X140360000Y-126340000D01*
X140360000Y-122979818D01*
X141091701Y-122979818D01*
X141091701Y-123456182D01*
X141184635Y-123923392D01*
X141366931Y-124363494D01*
X141631585Y-124759576D01*
X141968424Y-125096415D01*
X142364506Y-125361069D01*
X142804608Y-125543365D01*
X143271818Y-125636299D01*
X143748182Y-125636299D01*
X144215392Y-125543365D01*
X144655494Y-125361069D01*
X144904911Y-125194413D01*
X182940192Y-125194413D01*
X183035956Y-125458814D01*
X183325571Y-125599704D01*
X183637108Y-125681384D01*
X183958595Y-125700718D01*
X184277675Y-125656961D01*
X184582088Y-125551795D01*
X184756044Y-125458814D01*
X184851808Y-125194413D01*
X183896000Y-124238605D01*
X182940192Y-125194413D01*
X144904911Y-125194413D01*
X145051576Y-125096415D01*
X145388415Y-124759576D01*
X145653069Y-124363494D01*
X145753266Y-124121595D01*
X182254282Y-124121595D01*
X182298039Y-124440675D01*
X182403205Y-124745088D01*
X182496186Y-124919044D01*
X182760587Y-125014808D01*
X183716395Y-124059000D01*
X184075605Y-124059000D01*
X185031413Y-125014808D01*
X185295814Y-124919044D01*
X185436704Y-124629429D01*
X185518384Y-124317892D01*
X185537718Y-123996405D01*
X185493961Y-123677325D01*
X185388795Y-123372912D01*
X185295814Y-123198956D01*
X185031413Y-123103192D01*
X184075605Y-124059000D01*
X183716395Y-124059000D01*
X182760587Y-123103192D01*
X182496186Y-123198956D01*
X182355296Y-123488571D01*
X182273616Y-123800108D01*
X182254282Y-124121595D01*
X145753266Y-124121595D01*
X145835365Y-123923392D01*
X145928299Y-123456182D01*
X145928299Y-122979818D01*
X145917114Y-122923587D01*
X182940192Y-122923587D01*
X183896000Y-123879395D01*
X184851808Y-122923587D01*
X184756044Y-122659186D01*
X184466429Y-122518296D01*
X184154892Y-122436616D01*
X183833405Y-122417282D01*
X183514325Y-122461039D01*
X183209912Y-122566205D01*
X183035956Y-122659186D01*
X182940192Y-122923587D01*
X145917114Y-122923587D01*
X145835365Y-122512608D01*
X145653069Y-122072506D01*
X145388415Y-121676424D01*
X145051576Y-121339585D01*
X144655494Y-121074931D01*
X144215392Y-120892635D01*
X143748182Y-120799701D01*
X143271818Y-120799701D01*
X142804608Y-120892635D01*
X142364506Y-121074931D01*
X141968424Y-121339585D01*
X141631585Y-121676424D01*
X141366931Y-122072506D01*
X141184635Y-122512608D01*
X141091701Y-122979818D01*
X140360000Y-122979818D01*
X140360000Y-118289000D01*
X167408928Y-118289000D01*
X167408928Y-122249000D01*
X167421188Y-122373482D01*
X167457498Y-122493180D01*
X167516463Y-122603494D01*
X167595815Y-122700185D01*
X167692506Y-122779537D01*
X167802820Y-122838502D01*
X167922518Y-122874812D01*
X168047000Y-122887072D01*
X170027000Y-122887072D01*
X170151482Y-122874812D01*
X170271180Y-122838502D01*
X170381494Y-122779537D01*
X170478185Y-122700185D01*
X170557537Y-122603494D01*
X170616502Y-122493180D01*
X170652812Y-122373482D01*
X170665072Y-122249000D01*
X170665072Y-120396000D01*
X172412000Y-120396000D01*
X172412000Y-121386000D01*
X172468000Y-121700582D01*
X172584296Y-121998194D01*
X172756419Y-122267399D01*
X172977754Y-122497852D01*
X173239795Y-122680696D01*
X173532472Y-122808905D01*
X173658135Y-122839218D01*
X173910000Y-122719740D01*
X173910000Y-120396000D01*
X174164000Y-120396000D01*
X174164000Y-122719740D01*
X174415865Y-122839218D01*
X174541528Y-122808905D01*
X174834205Y-122680696D01*
X175096246Y-122497852D01*
X175317581Y-122267399D01*
X175489704Y-121998194D01*
X175606000Y-121700582D01*
X175662000Y-121386000D01*
X175662000Y-120396000D01*
X174164000Y-120396000D01*
X173910000Y-120396000D01*
X172412000Y-120396000D01*
X170665072Y-120396000D01*
X170665072Y-119152000D01*
X172412000Y-119152000D01*
X172412000Y-120142000D01*
X173910000Y-120142000D01*
X173910000Y-117818260D01*
X174164000Y-117818260D01*
X174164000Y-120142000D01*
X175662000Y-120142000D01*
X175662000Y-119152000D01*
X175606000Y-118837418D01*
X175489704Y-118539806D01*
X175317581Y-118270601D01*
X175096246Y-118040148D01*
X174834205Y-117857304D01*
X174541528Y-117729095D01*
X174415865Y-117698782D01*
X174164000Y-117818260D01*
X173910000Y-117818260D01*
X173658135Y-117698782D01*
X173532472Y-117729095D01*
X173239795Y-117857304D01*
X172977754Y-118040148D01*
X172756419Y-118270601D01*
X172584296Y-118539806D01*
X172468000Y-118837418D01*
X172412000Y-119152000D01*
X170665072Y-119152000D01*
X170665072Y-118289000D01*
X170652812Y-118164518D01*
X170616502Y-118044820D01*
X170557537Y-117934506D01*
X170478185Y-117837815D01*
X170381494Y-117758463D01*
X170271180Y-117699498D01*
X170151482Y-117663188D01*
X170027000Y-117650928D01*
X168047000Y-117650928D01*
X167922518Y-117663188D01*
X167802820Y-117699498D01*
X167692506Y-117758463D01*
X167595815Y-117837815D01*
X167516463Y-117934506D01*
X167457498Y-118044820D01*
X167421188Y-118164518D01*
X167408928Y-118289000D01*
X140360000Y-118289000D01*
X140360000Y-84021473D01*
X141916610Y-84021473D01*
X141956875Y-84281344D01*
X142047065Y-84528366D01*
X142100963Y-84629203D01*
X142334731Y-84688664D01*
X143076395Y-83947000D01*
X142334731Y-83205336D01*
X142100963Y-83264797D01*
X141990066Y-83503242D01*
X141927817Y-83758740D01*
X141916610Y-84021473D01*
X140360000Y-84021473D01*
X140360000Y-82804000D01*
X142570735Y-82804000D01*
X142514336Y-83025731D01*
X143256000Y-83767395D01*
X143997664Y-83025731D01*
X143941265Y-82804000D01*
X145103685Y-82804000D01*
X144944987Y-82910038D01*
X144759038Y-83095987D01*
X144612939Y-83314641D01*
X144524379Y-83528444D01*
X144464935Y-83365634D01*
X144411037Y-83264797D01*
X144177269Y-83205336D01*
X143435605Y-83947000D01*
X144177269Y-84688664D01*
X144411037Y-84629203D01*
X144521934Y-84390758D01*
X144526706Y-84371173D01*
X144612939Y-84579359D01*
X144759038Y-84798013D01*
X144944987Y-84983962D01*
X145163641Y-85130061D01*
X145373530Y-85217000D01*
X145163641Y-85303939D01*
X144944987Y-85450038D01*
X144759038Y-85635987D01*
X144612939Y-85854641D01*
X144526000Y-86064530D01*
X144439061Y-85854641D01*
X144292962Y-85635987D01*
X144107013Y-85450038D01*
X143888359Y-85303939D01*
X143674556Y-85215379D01*
X143837366Y-85155935D01*
X143938203Y-85102037D01*
X143997664Y-84868269D01*
X143256000Y-84126605D01*
X142514336Y-84868269D01*
X142573797Y-85102037D01*
X142812242Y-85212934D01*
X142831827Y-85217706D01*
X142623641Y-85303939D01*
X142404987Y-85450038D01*
X142219038Y-85635987D01*
X142072939Y-85854641D01*
X141972304Y-86097595D01*
X141921000Y-86355514D01*
X141921000Y-86618486D01*
X141972304Y-86876405D01*
X142072939Y-87119359D01*
X142219038Y-87338013D01*
X142404987Y-87523962D01*
X142623641Y-87670061D01*
X142833530Y-87757000D01*
X142623641Y-87843939D01*
X142404987Y-87990038D01*
X142219038Y-88175987D01*
X142072939Y-88394641D01*
X141972304Y-88637595D01*
X141921000Y-88895514D01*
X141921000Y-89158486D01*
X141972304Y-89416405D01*
X142072939Y-89659359D01*
X142219038Y-89878013D01*
X142404987Y-90063962D01*
X142623641Y-90210061D01*
X142833530Y-90297000D01*
X142623641Y-90383939D01*
X142404987Y-90530038D01*
X142219038Y-90715987D01*
X142072939Y-90934641D01*
X141972304Y-91177595D01*
X141921000Y-91435514D01*
X141921000Y-91698486D01*
X141972304Y-91956405D01*
X142072939Y-92199359D01*
X142219038Y-92418013D01*
X142404987Y-92603962D01*
X142623641Y-92750061D01*
X142833530Y-92837000D01*
X142623641Y-92923939D01*
X142404987Y-93070038D01*
X142219038Y-93255987D01*
X142072939Y-93474641D01*
X141972304Y-93717595D01*
X141921000Y-93975514D01*
X141921000Y-94238486D01*
X141972304Y-94496405D01*
X142072939Y-94739359D01*
X142219038Y-94958013D01*
X142404987Y-95143962D01*
X142623641Y-95290061D01*
X142833530Y-95377000D01*
X142623641Y-95463939D01*
X142404987Y-95610038D01*
X142219038Y-95795987D01*
X142072939Y-96014641D01*
X141972304Y-96257595D01*
X141921000Y-96515514D01*
X141921000Y-96778486D01*
X141972304Y-97036405D01*
X142072939Y-97279359D01*
X142219038Y-97498013D01*
X142404987Y-97683962D01*
X142623641Y-97830061D01*
X142833530Y-97917000D01*
X142623641Y-98003939D01*
X142404987Y-98150038D01*
X142219038Y-98335987D01*
X142072939Y-98554641D01*
X141972304Y-98797595D01*
X141921000Y-99055514D01*
X141921000Y-99318486D01*
X141972304Y-99576405D01*
X142072939Y-99819359D01*
X142219038Y-100038013D01*
X142404987Y-100223962D01*
X142623641Y-100370061D01*
X142833530Y-100457000D01*
X142623641Y-100543939D01*
X142404987Y-100690038D01*
X142219038Y-100875987D01*
X142072939Y-101094641D01*
X141972304Y-101337595D01*
X141921000Y-101595514D01*
X141921000Y-101858486D01*
X141972304Y-102116405D01*
X142072939Y-102359359D01*
X142219038Y-102578013D01*
X142404987Y-102763962D01*
X142623641Y-102910061D01*
X142833530Y-102997000D01*
X142623641Y-103083939D01*
X142404987Y-103230038D01*
X142219038Y-103415987D01*
X142155095Y-103511686D01*
X142091014Y-103517997D01*
X141947753Y-103561454D01*
X141815724Y-103632026D01*
X141699999Y-103726999D01*
X141676196Y-103756003D01*
X141348003Y-104084196D01*
X141318999Y-104107999D01*
X141263871Y-104175174D01*
X141224026Y-104223724D01*
X141200894Y-104267001D01*
X141153454Y-104355754D01*
X141109997Y-104499015D01*
X141099000Y-104610668D01*
X141099000Y-104610678D01*
X141095324Y-104648000D01*
X141099000Y-104685323D01*
X141099001Y-109436668D01*
X141095324Y-109474000D01*
X141099001Y-109511333D01*
X141109998Y-109622986D01*
X141114931Y-109639247D01*
X141153454Y-109766246D01*
X141224026Y-109898276D01*
X141292715Y-109981973D01*
X141319000Y-110014001D01*
X141347998Y-110037799D01*
X146121201Y-114811003D01*
X146144999Y-114840001D01*
X146260724Y-114934974D01*
X146392753Y-115005546D01*
X146536014Y-115049003D01*
X146647667Y-115060000D01*
X146647675Y-115060000D01*
X146685000Y-115063676D01*
X146722325Y-115060000D01*
X182401988Y-115060000D01*
X182365463Y-115104506D01*
X182306498Y-115214820D01*
X182270188Y-115334518D01*
X182257928Y-115459000D01*
X182257928Y-117459000D01*
X182270188Y-117583482D01*
X182306498Y-117703180D01*
X182365463Y-117813494D01*
X182444815Y-117910185D01*
X182541506Y-117989537D01*
X182651820Y-118048502D01*
X182771518Y-118084812D01*
X182896000Y-118097072D01*
X184896000Y-118097072D01*
X185020482Y-118084812D01*
X185140180Y-118048502D01*
X185250494Y-117989537D01*
X185347185Y-117910185D01*
X185426537Y-117813494D01*
X185485502Y-117703180D01*
X185521812Y-117583482D01*
X185534072Y-117459000D01*
X185534072Y-115459000D01*
X185521812Y-115334518D01*
X185485502Y-115214820D01*
X185426537Y-115104506D01*
X185347185Y-115007815D01*
X185250494Y-114928463D01*
X185140180Y-114869498D01*
X185020482Y-114833188D01*
X184896000Y-114820928D01*
X183181654Y-114820928D01*
X183189804Y-114810997D01*
X187328004Y-110672798D01*
X187357001Y-110649001D01*
X187409526Y-110584999D01*
X187451974Y-110533277D01*
X187522546Y-110401247D01*
X187551074Y-110307201D01*
X187566003Y-110257986D01*
X187577000Y-110146333D01*
X187577000Y-110146324D01*
X187580676Y-110109001D01*
X187577000Y-110071678D01*
X187577000Y-91731322D01*
X187580676Y-91694000D01*
X187577000Y-91656677D01*
X187577000Y-91656667D01*
X187566003Y-91545014D01*
X187522546Y-91401753D01*
X187497298Y-91354518D01*
X187451974Y-91269723D01*
X187380799Y-91182997D01*
X187357001Y-91153999D01*
X187328003Y-91130201D01*
X186364804Y-90167002D01*
X186341001Y-90137999D01*
X186225276Y-90043026D01*
X186093247Y-89972454D01*
X185949986Y-89928997D01*
X185838333Y-89918000D01*
X185838322Y-89918000D01*
X185801000Y-89914324D01*
X185763678Y-89918000D01*
X181901322Y-89918000D01*
X181863999Y-89914324D01*
X181826676Y-89918000D01*
X181826667Y-89918000D01*
X181715014Y-89928997D01*
X181571753Y-89972454D01*
X181439724Y-90043026D01*
X181323999Y-90137999D01*
X181300200Y-90166998D01*
X180845002Y-90622197D01*
X180815999Y-90645999D01*
X180789737Y-90678000D01*
X180721026Y-90761724D01*
X180686142Y-90826987D01*
X180650454Y-90893754D01*
X180606997Y-91037015D01*
X180606316Y-91043929D01*
X180409368Y-91175525D01*
X180202525Y-91382368D01*
X180086000Y-91556760D01*
X179969475Y-91382368D01*
X179762632Y-91175525D01*
X179519411Y-91013010D01*
X179249158Y-90901068D01*
X178962260Y-90844000D01*
X178669740Y-90844000D01*
X178382842Y-90901068D01*
X178112589Y-91013010D01*
X177869368Y-91175525D01*
X177737513Y-91307380D01*
X177715502Y-91234820D01*
X177656537Y-91124506D01*
X177577185Y-91027815D01*
X177480494Y-90948463D01*
X177370180Y-90889498D01*
X177250482Y-90853188D01*
X177126000Y-90840928D01*
X176561750Y-90844000D01*
X176403000Y-91002750D01*
X176403000Y-92202000D01*
X176423000Y-92202000D01*
X176423000Y-92456000D01*
X176403000Y-92456000D01*
X176403000Y-93655250D01*
X176561750Y-93814000D01*
X177126000Y-93817072D01*
X177250482Y-93804812D01*
X177370180Y-93768502D01*
X177480494Y-93709537D01*
X177577185Y-93630185D01*
X177656537Y-93533494D01*
X177715502Y-93423180D01*
X177737513Y-93350620D01*
X177869368Y-93482475D01*
X178112589Y-93644990D01*
X178382842Y-93756932D01*
X178669740Y-93814000D01*
X178962260Y-93814000D01*
X179249158Y-93756932D01*
X179519411Y-93644990D01*
X179762632Y-93482475D01*
X179969475Y-93275632D01*
X180086000Y-93101240D01*
X180202525Y-93275632D01*
X180409368Y-93482475D01*
X180652589Y-93644990D01*
X180922842Y-93756932D01*
X181209740Y-93814000D01*
X181502260Y-93814000D01*
X181789158Y-93756932D01*
X182059411Y-93644990D01*
X182302632Y-93482475D01*
X182509475Y-93275632D01*
X182626000Y-93101240D01*
X182742525Y-93275632D01*
X182949368Y-93482475D01*
X183192589Y-93644990D01*
X183462842Y-93756932D01*
X183749740Y-93814000D01*
X184042260Y-93814000D01*
X184329158Y-93756932D01*
X184599411Y-93644990D01*
X184842632Y-93482475D01*
X185009693Y-93315414D01*
X185295000Y-93600721D01*
X185295000Y-99445995D01*
X185211990Y-99245589D01*
X185049475Y-99002368D01*
X184842632Y-98795525D01*
X184599411Y-98633010D01*
X184329158Y-98521068D01*
X184042260Y-98464000D01*
X183749740Y-98464000D01*
X183462842Y-98521068D01*
X183192589Y-98633010D01*
X182949368Y-98795525D01*
X182742525Y-99002368D01*
X182626000Y-99176760D01*
X182509475Y-99002368D01*
X182302632Y-98795525D01*
X182059411Y-98633010D01*
X181789158Y-98521068D01*
X181502260Y-98464000D01*
X181209740Y-98464000D01*
X180922842Y-98521068D01*
X180652589Y-98633010D01*
X180409368Y-98795525D01*
X180202525Y-99002368D01*
X180086000Y-99176760D01*
X179969475Y-99002368D01*
X179762632Y-98795525D01*
X179519411Y-98633010D01*
X179249158Y-98521068D01*
X178962260Y-98464000D01*
X178669740Y-98464000D01*
X178382842Y-98521068D01*
X178112589Y-98633010D01*
X177869368Y-98795525D01*
X177737513Y-98927380D01*
X177715502Y-98854820D01*
X177656537Y-98744506D01*
X177577185Y-98647815D01*
X177480494Y-98568463D01*
X177370180Y-98509498D01*
X177250482Y-98473188D01*
X177126000Y-98460928D01*
X176561750Y-98464000D01*
X176403000Y-98622750D01*
X176403000Y-99822000D01*
X176423000Y-99822000D01*
X176423000Y-100076000D01*
X176403000Y-100076000D01*
X176403000Y-101275250D01*
X176561750Y-101434000D01*
X177126000Y-101437072D01*
X177250482Y-101424812D01*
X177370180Y-101388502D01*
X177480494Y-101329537D01*
X177577185Y-101250185D01*
X177656537Y-101153494D01*
X177715502Y-101043180D01*
X177737513Y-100970620D01*
X177869368Y-101102475D01*
X178112589Y-101264990D01*
X178382842Y-101376932D01*
X178669740Y-101434000D01*
X178962260Y-101434000D01*
X179249158Y-101376932D01*
X179519411Y-101264990D01*
X179762632Y-101102475D01*
X179969475Y-100895632D01*
X180086000Y-100721240D01*
X180202525Y-100895632D01*
X180409368Y-101102475D01*
X180652589Y-101264990D01*
X180922842Y-101376932D01*
X181209740Y-101434000D01*
X181502260Y-101434000D01*
X181789158Y-101376932D01*
X182059411Y-101264990D01*
X182302632Y-101102475D01*
X182509475Y-100895632D01*
X182626000Y-100721240D01*
X182742525Y-100895632D01*
X182949368Y-101102475D01*
X183192589Y-101264990D01*
X183462842Y-101376932D01*
X183749740Y-101434000D01*
X184042260Y-101434000D01*
X184329158Y-101376932D01*
X184599411Y-101264990D01*
X184842632Y-101102475D01*
X185049475Y-100895632D01*
X185211990Y-100652411D01*
X185295000Y-100452005D01*
X185295001Y-105764049D01*
X185276537Y-105729506D01*
X185197185Y-105632815D01*
X185100494Y-105553463D01*
X184990180Y-105494498D01*
X184870482Y-105458188D01*
X184746000Y-105445928D01*
X183046000Y-105445928D01*
X182921518Y-105458188D01*
X182801820Y-105494498D01*
X182691506Y-105553463D01*
X182594815Y-105632815D01*
X182515463Y-105729506D01*
X182456498Y-105839820D01*
X182434487Y-105912380D01*
X182302632Y-105780525D01*
X182059411Y-105618010D01*
X181789158Y-105506068D01*
X181502260Y-105449000D01*
X181209740Y-105449000D01*
X180922842Y-105506068D01*
X180652589Y-105618010D01*
X180409368Y-105780525D01*
X180202525Y-105987368D01*
X180086000Y-106161760D01*
X179969475Y-105987368D01*
X179762632Y-105780525D01*
X179519411Y-105618010D01*
X179249158Y-105506068D01*
X178962260Y-105449000D01*
X178669740Y-105449000D01*
X178382842Y-105506068D01*
X178112589Y-105618010D01*
X177869368Y-105780525D01*
X177662525Y-105987368D01*
X177546000Y-106161760D01*
X177429475Y-105987368D01*
X177222632Y-105780525D01*
X176979411Y-105618010D01*
X176709158Y-105506068D01*
X176422260Y-105449000D01*
X176129740Y-105449000D01*
X175842842Y-105506068D01*
X175572589Y-105618010D01*
X175329368Y-105780525D01*
X175122525Y-105987368D01*
X174960010Y-106230589D01*
X174848068Y-106500842D01*
X174791000Y-106787740D01*
X174791000Y-107080260D01*
X174848068Y-107367158D01*
X174960010Y-107637411D01*
X175122525Y-107880632D01*
X175329368Y-108087475D01*
X175516000Y-108212179D01*
X175516000Y-108270198D01*
X175199199Y-108587000D01*
X155889803Y-108587000D01*
X154811000Y-107508199D01*
X154811000Y-99261473D01*
X167316610Y-99261473D01*
X167356875Y-99521344D01*
X167447065Y-99768366D01*
X167500963Y-99869203D01*
X167734731Y-99928664D01*
X168476395Y-99187000D01*
X167734731Y-98445336D01*
X167500963Y-98504797D01*
X167390066Y-98743242D01*
X167327817Y-98998740D01*
X167316610Y-99261473D01*
X154811000Y-99261473D01*
X154811000Y-98869376D01*
X154814676Y-98832051D01*
X154811000Y-98794726D01*
X154811000Y-98794718D01*
X154800003Y-98683065D01*
X154756546Y-98539804D01*
X154685974Y-98407775D01*
X154591001Y-98292050D01*
X154562004Y-98268253D01*
X147349753Y-91056003D01*
X147325950Y-91026999D01*
X147210225Y-90932026D01*
X147078196Y-90861454D01*
X146934935Y-90817997D01*
X146898740Y-90814432D01*
X146832962Y-90715987D01*
X146647013Y-90530038D01*
X146428359Y-90383939D01*
X146218470Y-90297000D01*
X146428359Y-90210061D01*
X146647013Y-90063962D01*
X146832962Y-89878013D01*
X146979061Y-89659359D01*
X147079696Y-89416405D01*
X147131000Y-89158486D01*
X147131000Y-88895514D01*
X147079696Y-88637595D01*
X146979061Y-88394641D01*
X146832962Y-88175987D01*
X146647013Y-87990038D01*
X146428359Y-87843939D01*
X146218470Y-87757000D01*
X146428359Y-87670061D01*
X146647013Y-87523962D01*
X146832962Y-87338013D01*
X146979061Y-87119359D01*
X147079696Y-86876405D01*
X147131000Y-86618486D01*
X147131000Y-86355514D01*
X147079696Y-86097595D01*
X146979061Y-85854641D01*
X146832962Y-85635987D01*
X146647013Y-85450038D01*
X146428359Y-85303939D01*
X146218470Y-85217000D01*
X146428359Y-85130061D01*
X146647013Y-84983962D01*
X146832962Y-84798013D01*
X146979061Y-84579359D01*
X147079696Y-84336405D01*
X147131000Y-84078486D01*
X147131000Y-83815514D01*
X147079696Y-83557595D01*
X146979061Y-83314641D01*
X146832962Y-83095987D01*
X146647013Y-82910038D01*
X146488315Y-82804000D01*
X167963685Y-82804000D01*
X167804987Y-82910038D01*
X167619038Y-83095987D01*
X167472939Y-83314641D01*
X167372304Y-83557595D01*
X167321000Y-83815514D01*
X167321000Y-84078486D01*
X167372304Y-84336405D01*
X167472939Y-84579359D01*
X167619038Y-84798013D01*
X167804987Y-84983962D01*
X168023641Y-85130061D01*
X168233530Y-85217000D01*
X168023641Y-85303939D01*
X167804987Y-85450038D01*
X167619038Y-85635987D01*
X167472939Y-85854641D01*
X167372304Y-86097595D01*
X167321000Y-86355514D01*
X167321000Y-86618486D01*
X167372304Y-86876405D01*
X167472939Y-87119359D01*
X167619038Y-87338013D01*
X167804987Y-87523962D01*
X168023641Y-87670061D01*
X168233530Y-87757000D01*
X168023641Y-87843939D01*
X167804987Y-87990038D01*
X167619038Y-88175987D01*
X167472939Y-88394641D01*
X167372304Y-88637595D01*
X167321000Y-88895514D01*
X167321000Y-89158486D01*
X167372304Y-89416405D01*
X167472939Y-89659359D01*
X167619038Y-89878013D01*
X167804987Y-90063962D01*
X168023641Y-90210061D01*
X168233530Y-90297000D01*
X168023641Y-90383939D01*
X167804987Y-90530038D01*
X167619038Y-90715987D01*
X167472939Y-90934641D01*
X167372304Y-91177595D01*
X167321000Y-91435514D01*
X167321000Y-91698486D01*
X167372304Y-91956405D01*
X167472939Y-92199359D01*
X167619038Y-92418013D01*
X167804987Y-92603962D01*
X168023641Y-92750061D01*
X168233530Y-92837000D01*
X168023641Y-92923939D01*
X167804987Y-93070038D01*
X167619038Y-93255987D01*
X167472939Y-93474641D01*
X167372304Y-93717595D01*
X167321000Y-93975514D01*
X167321000Y-94238486D01*
X167372304Y-94496405D01*
X167472939Y-94739359D01*
X167619038Y-94958013D01*
X167804987Y-95143962D01*
X168023641Y-95290061D01*
X168233530Y-95377000D01*
X168023641Y-95463939D01*
X167804987Y-95610038D01*
X167619038Y-95795987D01*
X167472939Y-96014641D01*
X167372304Y-96257595D01*
X167321000Y-96515514D01*
X167321000Y-96778486D01*
X167372304Y-97036405D01*
X167472939Y-97279359D01*
X167619038Y-97498013D01*
X167804987Y-97683962D01*
X168023641Y-97830061D01*
X168237444Y-97918621D01*
X168074634Y-97978065D01*
X167973797Y-98031963D01*
X167914336Y-98265731D01*
X168656000Y-99007395D01*
X169397664Y-98265731D01*
X169338203Y-98031963D01*
X169099758Y-97921066D01*
X169080173Y-97916294D01*
X169288359Y-97830061D01*
X169507013Y-97683962D01*
X169692962Y-97498013D01*
X169839061Y-97279359D01*
X169926000Y-97069470D01*
X170012939Y-97279359D01*
X170159038Y-97498013D01*
X170344987Y-97683962D01*
X170563641Y-97830061D01*
X170773530Y-97917000D01*
X170563641Y-98003939D01*
X170344987Y-98150038D01*
X170159038Y-98335987D01*
X170012939Y-98554641D01*
X169924379Y-98768444D01*
X169864935Y-98605634D01*
X169811037Y-98504797D01*
X169577269Y-98445336D01*
X168835605Y-99187000D01*
X169577269Y-99928664D01*
X169811037Y-99869203D01*
X169921934Y-99630758D01*
X169926706Y-99611173D01*
X170012939Y-99819359D01*
X170159038Y-100038013D01*
X170344987Y-100223962D01*
X170563641Y-100370061D01*
X170773530Y-100457000D01*
X170563641Y-100543939D01*
X170344987Y-100690038D01*
X170159038Y-100875987D01*
X170012939Y-101094641D01*
X169926000Y-101304530D01*
X169839061Y-101094641D01*
X169692962Y-100875987D01*
X169507013Y-100690038D01*
X169288359Y-100543939D01*
X169074556Y-100455379D01*
X169237366Y-100395935D01*
X169338203Y-100342037D01*
X169397664Y-100108269D01*
X168656000Y-99366605D01*
X167914336Y-100108269D01*
X167973797Y-100342037D01*
X168212242Y-100452934D01*
X168231827Y-100457706D01*
X168023641Y-100543939D01*
X167804987Y-100690038D01*
X167619038Y-100875987D01*
X167472939Y-101094641D01*
X167372304Y-101337595D01*
X167321000Y-101595514D01*
X167321000Y-101858486D01*
X167372304Y-102116405D01*
X167472939Y-102359359D01*
X167619038Y-102578013D01*
X167804987Y-102763962D01*
X168023641Y-102910061D01*
X168233530Y-102997000D01*
X168023641Y-103083939D01*
X167804987Y-103230038D01*
X167619038Y-103415987D01*
X167472939Y-103634641D01*
X167372304Y-103877595D01*
X167321000Y-104135514D01*
X167321000Y-104398486D01*
X167372304Y-104656405D01*
X167472939Y-104899359D01*
X167619038Y-105118013D01*
X167804987Y-105303962D01*
X168023641Y-105450061D01*
X168233530Y-105537000D01*
X168023641Y-105623939D01*
X167804987Y-105770038D01*
X167619038Y-105955987D01*
X167472939Y-106174641D01*
X167372304Y-106417595D01*
X167321000Y-106675514D01*
X167321000Y-106938486D01*
X167372304Y-107196405D01*
X167472939Y-107439359D01*
X167619038Y-107658013D01*
X167804987Y-107843962D01*
X168023641Y-107990061D01*
X168266595Y-108090696D01*
X168524514Y-108142000D01*
X168787486Y-108142000D01*
X169045405Y-108090696D01*
X169288359Y-107990061D01*
X169507013Y-107843962D01*
X169692962Y-107658013D01*
X169839061Y-107439359D01*
X169926000Y-107229470D01*
X170012939Y-107439359D01*
X170159038Y-107658013D01*
X170344987Y-107843962D01*
X170563641Y-107990061D01*
X170806595Y-108090696D01*
X171064514Y-108142000D01*
X171327486Y-108142000D01*
X171585405Y-108090696D01*
X171828359Y-107990061D01*
X172047013Y-107843962D01*
X172232962Y-107658013D01*
X172379061Y-107439359D01*
X172479696Y-107196405D01*
X172531000Y-106938486D01*
X172531000Y-106675514D01*
X172479696Y-106417595D01*
X172379061Y-106174641D01*
X172232962Y-105955987D01*
X172047013Y-105770038D01*
X171828359Y-105623939D01*
X171618470Y-105537000D01*
X171828359Y-105450061D01*
X172047013Y-105303962D01*
X172232962Y-105118013D01*
X172379061Y-104899359D01*
X172479696Y-104656405D01*
X172531000Y-104398486D01*
X172531000Y-104135514D01*
X172479696Y-103877595D01*
X172379061Y-103634641D01*
X172232962Y-103415987D01*
X172047013Y-103230038D01*
X171828359Y-103083939D01*
X171618470Y-102997000D01*
X171828359Y-102910061D01*
X172047013Y-102763962D01*
X172232962Y-102578013D01*
X172379061Y-102359359D01*
X172479696Y-102116405D01*
X172531000Y-101858486D01*
X172531000Y-101595514D01*
X172479696Y-101337595D01*
X172379061Y-101094641D01*
X172232962Y-100875987D01*
X172155975Y-100799000D01*
X174787928Y-100799000D01*
X174800188Y-100923482D01*
X174836498Y-101043180D01*
X174895463Y-101153494D01*
X174974815Y-101250185D01*
X175071506Y-101329537D01*
X175181820Y-101388502D01*
X175301518Y-101424812D01*
X175426000Y-101437072D01*
X175990250Y-101434000D01*
X176149000Y-101275250D01*
X176149000Y-100076000D01*
X174949750Y-100076000D01*
X174791000Y-100234750D01*
X174787928Y-100799000D01*
X172155975Y-100799000D01*
X172047013Y-100690038D01*
X171828359Y-100543939D01*
X171618470Y-100457000D01*
X171828359Y-100370061D01*
X172047013Y-100223962D01*
X172232962Y-100038013D01*
X172379061Y-99819359D01*
X172479696Y-99576405D01*
X172531000Y-99318486D01*
X172531000Y-99099000D01*
X174787928Y-99099000D01*
X174791000Y-99663250D01*
X174949750Y-99822000D01*
X176149000Y-99822000D01*
X176149000Y-98622750D01*
X175990250Y-98464000D01*
X175426000Y-98460928D01*
X175301518Y-98473188D01*
X175181820Y-98509498D01*
X175071506Y-98568463D01*
X174974815Y-98647815D01*
X174895463Y-98744506D01*
X174836498Y-98854820D01*
X174800188Y-98974518D01*
X174787928Y-99099000D01*
X172531000Y-99099000D01*
X172531000Y-99055514D01*
X172479696Y-98797595D01*
X172379061Y-98554641D01*
X172232962Y-98335987D01*
X172047013Y-98150038D01*
X171828359Y-98003939D01*
X171618470Y-97917000D01*
X171828359Y-97830061D01*
X172047013Y-97683962D01*
X172232962Y-97498013D01*
X172379061Y-97279359D01*
X172479696Y-97036405D01*
X172531000Y-96778486D01*
X172531000Y-96515514D01*
X172479696Y-96257595D01*
X172379061Y-96014641D01*
X172232962Y-95795987D01*
X172047013Y-95610038D01*
X171828359Y-95463939D01*
X171618470Y-95377000D01*
X171828359Y-95290061D01*
X172047013Y-95143962D01*
X172232962Y-94958013D01*
X172379061Y-94739359D01*
X172479696Y-94496405D01*
X172531000Y-94238486D01*
X172531000Y-93975514D01*
X172479696Y-93717595D01*
X172379061Y-93474641D01*
X172232962Y-93255987D01*
X172155975Y-93179000D01*
X174787928Y-93179000D01*
X174800188Y-93303482D01*
X174836498Y-93423180D01*
X174895463Y-93533494D01*
X174974815Y-93630185D01*
X175071506Y-93709537D01*
X175181820Y-93768502D01*
X175301518Y-93804812D01*
X175426000Y-93817072D01*
X175990250Y-93814000D01*
X176149000Y-93655250D01*
X176149000Y-92456000D01*
X174949750Y-92456000D01*
X174791000Y-92614750D01*
X174787928Y-93179000D01*
X172155975Y-93179000D01*
X172047013Y-93070038D01*
X171828359Y-92923939D01*
X171618470Y-92837000D01*
X171828359Y-92750061D01*
X172047013Y-92603962D01*
X172232962Y-92418013D01*
X172379061Y-92199359D01*
X172479696Y-91956405D01*
X172531000Y-91698486D01*
X172531000Y-91479000D01*
X174787928Y-91479000D01*
X174791000Y-92043250D01*
X174949750Y-92202000D01*
X176149000Y-92202000D01*
X176149000Y-91002750D01*
X175990250Y-90844000D01*
X175426000Y-90840928D01*
X175301518Y-90853188D01*
X175181820Y-90889498D01*
X175071506Y-90948463D01*
X174974815Y-91027815D01*
X174895463Y-91124506D01*
X174836498Y-91234820D01*
X174800188Y-91354518D01*
X174787928Y-91479000D01*
X172531000Y-91479000D01*
X172531000Y-91435514D01*
X172479696Y-91177595D01*
X172379061Y-90934641D01*
X172232962Y-90715987D01*
X172047013Y-90530038D01*
X171828359Y-90383939D01*
X171618470Y-90297000D01*
X171828359Y-90210061D01*
X172047013Y-90063962D01*
X172232962Y-89878013D01*
X172379061Y-89659359D01*
X172479696Y-89416405D01*
X172531000Y-89158486D01*
X172531000Y-88895514D01*
X172479696Y-88637595D01*
X172379061Y-88394641D01*
X172232962Y-88175987D01*
X172047013Y-87990038D01*
X171828359Y-87843939D01*
X171618470Y-87757000D01*
X171828359Y-87670061D01*
X172047013Y-87523962D01*
X172232962Y-87338013D01*
X172379061Y-87119359D01*
X172479696Y-86876405D01*
X172531000Y-86618486D01*
X172531000Y-86355514D01*
X172524135Y-86321000D01*
X174787928Y-86321000D01*
X174800188Y-86445482D01*
X174836498Y-86565180D01*
X174895463Y-86675494D01*
X174974815Y-86772185D01*
X175071506Y-86851537D01*
X175181820Y-86910502D01*
X175301518Y-86946812D01*
X175426000Y-86959072D01*
X175990250Y-86956000D01*
X176149000Y-86797250D01*
X176149000Y-85598000D01*
X174949750Y-85598000D01*
X174791000Y-85756750D01*
X174787928Y-86321000D01*
X172524135Y-86321000D01*
X172479696Y-86097595D01*
X172379061Y-85854641D01*
X172232962Y-85635987D01*
X172047013Y-85450038D01*
X171828359Y-85303939D01*
X171614556Y-85215379D01*
X171777366Y-85155935D01*
X171878203Y-85102037D01*
X171937664Y-84868269D01*
X171196000Y-84126605D01*
X170454336Y-84868269D01*
X170513797Y-85102037D01*
X170752242Y-85212934D01*
X170771827Y-85217706D01*
X170563641Y-85303939D01*
X170344987Y-85450038D01*
X170159038Y-85635987D01*
X170012939Y-85854641D01*
X169926000Y-86064530D01*
X169839061Y-85854641D01*
X169692962Y-85635987D01*
X169507013Y-85450038D01*
X169288359Y-85303939D01*
X169078470Y-85217000D01*
X169288359Y-85130061D01*
X169507013Y-84983962D01*
X169692962Y-84798013D01*
X169839061Y-84579359D01*
X169927621Y-84365556D01*
X169987065Y-84528366D01*
X170040963Y-84629203D01*
X170274731Y-84688664D01*
X171016395Y-83947000D01*
X171375605Y-83947000D01*
X172117269Y-84688664D01*
X172351037Y-84629203D01*
X172354852Y-84621000D01*
X174787928Y-84621000D01*
X174791000Y-85185250D01*
X174949750Y-85344000D01*
X176149000Y-85344000D01*
X176149000Y-84144750D01*
X176403000Y-84144750D01*
X176403000Y-85344000D01*
X176423000Y-85344000D01*
X176423000Y-85598000D01*
X176403000Y-85598000D01*
X176403000Y-86797250D01*
X176561750Y-86956000D01*
X177126000Y-86959072D01*
X177250482Y-86946812D01*
X177370180Y-86910502D01*
X177480494Y-86851537D01*
X177577185Y-86772185D01*
X177656537Y-86675494D01*
X177715502Y-86565180D01*
X177737513Y-86492620D01*
X177869368Y-86624475D01*
X178112589Y-86786990D01*
X178382842Y-86898932D01*
X178669740Y-86956000D01*
X178962260Y-86956000D01*
X179249158Y-86898932D01*
X179519411Y-86786990D01*
X179762632Y-86624475D01*
X179969475Y-86417632D01*
X180086000Y-86243240D01*
X180202525Y-86417632D01*
X180409368Y-86624475D01*
X180652589Y-86786990D01*
X180922842Y-86898932D01*
X181209740Y-86956000D01*
X181502260Y-86956000D01*
X181789158Y-86898932D01*
X182059411Y-86786990D01*
X182302632Y-86624475D01*
X182509475Y-86417632D01*
X182671990Y-86174411D01*
X182783932Y-85904158D01*
X182841000Y-85617260D01*
X182841000Y-85324740D01*
X182783932Y-85037842D01*
X182671990Y-84767589D01*
X182509475Y-84524368D01*
X182302632Y-84317525D01*
X182059411Y-84155010D01*
X181789158Y-84043068D01*
X181502260Y-83986000D01*
X181209740Y-83986000D01*
X180922842Y-84043068D01*
X180652589Y-84155010D01*
X180409368Y-84317525D01*
X180202525Y-84524368D01*
X180086000Y-84698760D01*
X179969475Y-84524368D01*
X179762632Y-84317525D01*
X179519411Y-84155010D01*
X179249158Y-84043068D01*
X178962260Y-83986000D01*
X178669740Y-83986000D01*
X178382842Y-84043068D01*
X178112589Y-84155010D01*
X177869368Y-84317525D01*
X177737513Y-84449380D01*
X177715502Y-84376820D01*
X177656537Y-84266506D01*
X177577185Y-84169815D01*
X177480494Y-84090463D01*
X177370180Y-84031498D01*
X177250482Y-83995188D01*
X177126000Y-83982928D01*
X176561750Y-83986000D01*
X176403000Y-84144750D01*
X176149000Y-84144750D01*
X175990250Y-83986000D01*
X175426000Y-83982928D01*
X175301518Y-83995188D01*
X175181820Y-84031498D01*
X175071506Y-84090463D01*
X174974815Y-84169815D01*
X174895463Y-84266506D01*
X174836498Y-84376820D01*
X174800188Y-84496518D01*
X174787928Y-84621000D01*
X172354852Y-84621000D01*
X172461934Y-84390758D01*
X172524183Y-84135260D01*
X172535390Y-83872527D01*
X172495125Y-83612656D01*
X172404935Y-83365634D01*
X172351037Y-83264797D01*
X172117269Y-83205336D01*
X171375605Y-83947000D01*
X171016395Y-83947000D01*
X170274731Y-83205336D01*
X170040963Y-83264797D01*
X169930066Y-83503242D01*
X169925294Y-83522827D01*
X169839061Y-83314641D01*
X169692962Y-83095987D01*
X169507013Y-82910038D01*
X169348315Y-82804000D01*
X170510735Y-82804000D01*
X170454336Y-83025731D01*
X171196000Y-83767395D01*
X171937664Y-83025731D01*
X171881265Y-82804000D01*
X174498000Y-82804000D01*
X174522776Y-82801560D01*
X174546601Y-82794333D01*
X174568557Y-82782597D01*
X174587803Y-82766803D01*
X174603597Y-82747557D01*
X174615333Y-82725601D01*
X174622560Y-82701776D01*
X174625000Y-82677000D01*
X174625000Y-79390818D01*
X184906701Y-79390818D01*
X184906701Y-79867182D01*
X184999635Y-80334392D01*
X185181931Y-80774494D01*
X185446585Y-81170576D01*
X185783424Y-81507415D01*
X186179506Y-81772069D01*
X186619608Y-81954365D01*
X187086818Y-82047299D01*
X187563182Y-82047299D01*
X188030392Y-81954365D01*
X188470494Y-81772069D01*
X188866576Y-81507415D01*
X189203415Y-81170576D01*
X189468069Y-80774494D01*
X189650365Y-80334392D01*
X189743299Y-79867182D01*
X189743299Y-79390818D01*
X189650365Y-78923608D01*
X189468069Y-78483506D01*
X189203415Y-78087424D01*
X188866576Y-77750585D01*
X188470494Y-77485931D01*
X188030392Y-77303635D01*
X187563182Y-77210701D01*
X187086818Y-77210701D01*
X186619608Y-77303635D01*
X186179506Y-77485931D01*
X185783424Y-77750585D01*
X185446585Y-78087424D01*
X185181931Y-78483506D01*
X184999635Y-78923608D01*
X184906701Y-79390818D01*
X174625000Y-79390818D01*
X174625000Y-76860000D01*
X189840001Y-76860000D01*
X189840000Y-126340000D01*
M02*
