%FSLAX45Y45*%
G04 Gerber Fmt 4.5, Leading zero omitted, Abs format (unit mm)*
G04 Created by KiCad (PCBNEW (5.1.5)-3) date 2023-03-15 23:12:14*
%MOMM*%
%LPD*%
G04 APERTURE LIST*
%TA.AperFunction,Profile*%
%ADD10C,0.050000*%
%TD*%
%ADD11C,0.200000*%
%ADD12C,0.300000*%
G04 APERTURE END LIST*
D10*
X14526000Y-7965700D02*
G75*
G03X14526000Y-7965700I-175000J0D01*
G01*
X14526000Y-12321800D02*
G75*
G03X14526000Y-12321800I-175000J0D01*
G01*
X18907500Y-7962900D02*
G75*
G03X18907500Y-7962900I-175000J0D01*
G01*
X13970000Y-7620000D02*
X13970000Y-12700000D01*
X19050000Y-7620000D02*
X13970000Y-7620000D01*
X19050000Y-12700000D02*
X19050000Y-7620000D01*
X13970000Y-12700000D02*
X19050000Y-12700000D01*
D11*
D12*
X14253928Y-13168214D02*
X14253928Y-12868214D01*
X14325357Y-12868214D01*
X14368214Y-12882500D01*
X14396786Y-12911071D01*
X14411071Y-12939643D01*
X14425357Y-12996786D01*
X14425357Y-13039643D01*
X14411071Y-13096786D01*
X14396786Y-13125357D01*
X14368214Y-13153929D01*
X14325357Y-13168214D01*
X14253928Y-13168214D01*
X14553928Y-13168214D02*
X14553928Y-12968214D01*
X14553928Y-13025357D02*
X14568214Y-12996786D01*
X14582500Y-12982500D01*
X14611071Y-12968214D01*
X14639643Y-12968214D01*
X14739643Y-13168214D02*
X14739643Y-12968214D01*
X14739643Y-12868214D02*
X14725357Y-12882500D01*
X14739643Y-12896786D01*
X14753928Y-12882500D01*
X14739643Y-12868214D01*
X14739643Y-12896786D01*
X14925357Y-13168214D02*
X14896786Y-13153929D01*
X14882500Y-13125357D01*
X14882500Y-12868214D01*
X15082500Y-13168214D02*
X15053928Y-13153929D01*
X15039643Y-13125357D01*
X15039643Y-12868214D01*
X15425357Y-13168214D02*
X15425357Y-12868214D01*
X15525357Y-13082500D01*
X15625357Y-12868214D01*
X15625357Y-13168214D01*
X15896786Y-13168214D02*
X15896786Y-13011071D01*
X15882500Y-12982500D01*
X15853928Y-12968214D01*
X15796786Y-12968214D01*
X15768214Y-12982500D01*
X15896786Y-13153929D02*
X15868214Y-13168214D01*
X15796786Y-13168214D01*
X15768214Y-13153929D01*
X15753928Y-13125357D01*
X15753928Y-13096786D01*
X15768214Y-13068214D01*
X15796786Y-13053929D01*
X15868214Y-13053929D01*
X15896786Y-13039643D01*
X16039643Y-12968214D02*
X16039643Y-13268214D01*
X16039643Y-12982500D02*
X16068214Y-12968214D01*
X16125357Y-12968214D01*
X16153928Y-12982500D01*
X16168214Y-12996786D01*
X16182500Y-13025357D01*
X16182500Y-13111071D01*
X16168214Y-13139643D01*
X16153928Y-13153929D01*
X16125357Y-13168214D01*
X16068214Y-13168214D01*
X16039643Y-13153929D01*
X16311071Y-13139643D02*
X16325357Y-13153929D01*
X16311071Y-13168214D01*
X16296786Y-13153929D01*
X16311071Y-13139643D01*
X16311071Y-13168214D01*
X16311071Y-12982500D02*
X16325357Y-12996786D01*
X16311071Y-13011071D01*
X16296786Y-12996786D01*
X16311071Y-12982500D01*
X16311071Y-13011071D01*
M02*
