G04 #@! TF.GenerationSoftware,KiCad,Pcbnew,(5.1.5)-3*
G04 #@! TF.CreationDate,2021-07-04T23:47:11+02:00*
G04 #@! TF.ProjectId,RGB_Treppe,5247425f-5472-4657-9070-652e6b696361,rev?*
G04 #@! TF.SameCoordinates,Original*
G04 #@! TF.FileFunction,Legend,Top*
G04 #@! TF.FilePolarity,Positive*
%FSLAX46Y46*%
G04 Gerber Fmt 4.6, Leading zero omitted, Abs format (unit mm)*
G04 Created by KiCad (PCBNEW (5.1.5)-3) date 2021-07-04 23:47:11*
%MOMM*%
%LPD*%
G04 APERTURE LIST*
%ADD10C,0.150000*%
%ADD11C,0.010000*%
%ADD12C,0.120000*%
G04 APERTURE END LIST*
D10*
X183316619Y-66643095D02*
X183269000Y-66595476D01*
X183221380Y-66500238D01*
X183221380Y-66262142D01*
X183269000Y-66166904D01*
X183316619Y-66119285D01*
X183411857Y-66071666D01*
X183507095Y-66071666D01*
X183649952Y-66119285D01*
X184221380Y-66690714D01*
X184221380Y-66071666D01*
X183316619Y-65690714D02*
X183269000Y-65643095D01*
X183221380Y-65547857D01*
X183221380Y-65309761D01*
X183269000Y-65214523D01*
X183316619Y-65166904D01*
X183411857Y-65119285D01*
X183507095Y-65119285D01*
X183649952Y-65166904D01*
X184221380Y-65738333D01*
X184221380Y-65119285D01*
X183221380Y-64500238D02*
X183221380Y-64405000D01*
X183269000Y-64309761D01*
X183316619Y-64262142D01*
X183411857Y-64214523D01*
X183602333Y-64166904D01*
X183840428Y-64166904D01*
X184030904Y-64214523D01*
X184126142Y-64262142D01*
X184173761Y-64309761D01*
X184221380Y-64405000D01*
X184221380Y-64500238D01*
X184173761Y-64595476D01*
X184126142Y-64643095D01*
X184030904Y-64690714D01*
X183840428Y-64738333D01*
X183602333Y-64738333D01*
X183411857Y-64690714D01*
X183316619Y-64643095D01*
X183269000Y-64595476D01*
X183221380Y-64500238D01*
X189666619Y-66643095D02*
X189619000Y-66595476D01*
X189571380Y-66500238D01*
X189571380Y-66262142D01*
X189619000Y-66166904D01*
X189666619Y-66119285D01*
X189761857Y-66071666D01*
X189857095Y-66071666D01*
X189999952Y-66119285D01*
X190571380Y-66690714D01*
X190571380Y-66071666D01*
X189666619Y-65690714D02*
X189619000Y-65643095D01*
X189571380Y-65547857D01*
X189571380Y-65309761D01*
X189619000Y-65214523D01*
X189666619Y-65166904D01*
X189761857Y-65119285D01*
X189857095Y-65119285D01*
X189999952Y-65166904D01*
X190571380Y-65738333D01*
X190571380Y-65119285D01*
X189571380Y-64500238D02*
X189571380Y-64405000D01*
X189619000Y-64309761D01*
X189666619Y-64262142D01*
X189761857Y-64214523D01*
X189952333Y-64166904D01*
X190190428Y-64166904D01*
X190380904Y-64214523D01*
X190476142Y-64262142D01*
X190523761Y-64309761D01*
X190571380Y-64405000D01*
X190571380Y-64500238D01*
X190523761Y-64595476D01*
X190476142Y-64643095D01*
X190380904Y-64690714D01*
X190190428Y-64738333D01*
X189952333Y-64738333D01*
X189761857Y-64690714D01*
X189666619Y-64643095D01*
X189619000Y-64595476D01*
X189571380Y-64500238D01*
X175553809Y-70302380D02*
X175553809Y-69302380D01*
X175982380Y-69397619D02*
X176030000Y-69350000D01*
X176125238Y-69302380D01*
X176363333Y-69302380D01*
X176458571Y-69350000D01*
X176506190Y-69397619D01*
X176553809Y-69492857D01*
X176553809Y-69588095D01*
X176506190Y-69730952D01*
X175934761Y-70302380D01*
X176553809Y-70302380D01*
X177553809Y-70207142D02*
X177506190Y-70254761D01*
X177363333Y-70302380D01*
X177268095Y-70302380D01*
X177125238Y-70254761D01*
X177030000Y-70159523D01*
X176982380Y-70064285D01*
X176934761Y-69873809D01*
X176934761Y-69730952D01*
X176982380Y-69540476D01*
X177030000Y-69445238D01*
X177125238Y-69350000D01*
X177268095Y-69302380D01*
X177363333Y-69302380D01*
X177506190Y-69350000D01*
X177553809Y-69397619D01*
X174553809Y-83002380D02*
X174553809Y-82002380D01*
X174934761Y-82002380D01*
X175030000Y-82050000D01*
X175077619Y-82097619D01*
X175125238Y-82192857D01*
X175125238Y-82335714D01*
X175077619Y-82430952D01*
X175030000Y-82478571D01*
X174934761Y-82526190D01*
X174553809Y-82526190D01*
X175696666Y-83002380D02*
X175601428Y-82954761D01*
X175553809Y-82907142D01*
X175506190Y-82811904D01*
X175506190Y-82526190D01*
X175553809Y-82430952D01*
X175601428Y-82383333D01*
X175696666Y-82335714D01*
X175839523Y-82335714D01*
X175934761Y-82383333D01*
X175982380Y-82430952D01*
X176030000Y-82526190D01*
X176030000Y-82811904D01*
X175982380Y-82907142D01*
X175934761Y-82954761D01*
X175839523Y-83002380D01*
X175696666Y-83002380D01*
X176363333Y-82335714D02*
X176553809Y-83002380D01*
X176744285Y-82526190D01*
X176934761Y-83002380D01*
X177125238Y-82335714D01*
X177887142Y-82954761D02*
X177791904Y-83002380D01*
X177601428Y-83002380D01*
X177506190Y-82954761D01*
X177458571Y-82859523D01*
X177458571Y-82478571D01*
X177506190Y-82383333D01*
X177601428Y-82335714D01*
X177791904Y-82335714D01*
X177887142Y-82383333D01*
X177934761Y-82478571D01*
X177934761Y-82573809D01*
X177458571Y-82669047D01*
X178363333Y-83002380D02*
X178363333Y-82335714D01*
X178363333Y-82526190D02*
X178410952Y-82430952D01*
X178458571Y-82383333D01*
X178553809Y-82335714D01*
X178649047Y-82335714D01*
X175506190Y-110894761D02*
X175649047Y-110942380D01*
X175887142Y-110942380D01*
X175982380Y-110894761D01*
X176030000Y-110847142D01*
X176077619Y-110751904D01*
X176077619Y-110656666D01*
X176030000Y-110561428D01*
X175982380Y-110513809D01*
X175887142Y-110466190D01*
X175696666Y-110418571D01*
X175601428Y-110370952D01*
X175553809Y-110323333D01*
X175506190Y-110228095D01*
X175506190Y-110132857D01*
X175553809Y-110037619D01*
X175601428Y-109990000D01*
X175696666Y-109942380D01*
X175934761Y-109942380D01*
X176077619Y-109990000D01*
X176506190Y-110942380D02*
X176506190Y-109942380D01*
X176887142Y-109942380D01*
X176982380Y-109990000D01*
X177030000Y-110037619D01*
X177077619Y-110132857D01*
X177077619Y-110275714D01*
X177030000Y-110370952D01*
X176982380Y-110418571D01*
X176887142Y-110466190D01*
X176506190Y-110466190D01*
X177506190Y-110942380D02*
X177506190Y-109942380D01*
X127555714Y-103036666D02*
X128031904Y-103036666D01*
X127460476Y-103322380D02*
X127793809Y-102322380D01*
X128127142Y-103322380D01*
X128650952Y-102322380D02*
X128746190Y-102322380D01*
X128841428Y-102370000D01*
X128889047Y-102417619D01*
X128936666Y-102512857D01*
X128984285Y-102703333D01*
X128984285Y-102941428D01*
X128936666Y-103131904D01*
X128889047Y-103227142D01*
X128841428Y-103274761D01*
X128746190Y-103322380D01*
X128650952Y-103322380D01*
X128555714Y-103274761D01*
X128508095Y-103227142D01*
X128460476Y-103131904D01*
X128412857Y-102941428D01*
X128412857Y-102703333D01*
X128460476Y-102512857D01*
X128508095Y-102417619D01*
X128555714Y-102370000D01*
X128650952Y-102322380D01*
X128079523Y-99782380D02*
X127603333Y-99782380D01*
X127555714Y-100258571D01*
X127603333Y-100210952D01*
X127698571Y-100163333D01*
X127936666Y-100163333D01*
X128031904Y-100210952D01*
X128079523Y-100258571D01*
X128127142Y-100353809D01*
X128127142Y-100591904D01*
X128079523Y-100687142D01*
X128031904Y-100734761D01*
X127936666Y-100782380D01*
X127698571Y-100782380D01*
X127603333Y-100734761D01*
X127555714Y-100687142D01*
X128412857Y-99782380D02*
X128746190Y-100782380D01*
X129079523Y-99782380D01*
X128079523Y-89622380D02*
X127603333Y-89622380D01*
X127555714Y-90098571D01*
X127603333Y-90050952D01*
X127698571Y-90003333D01*
X127936666Y-90003333D01*
X128031904Y-90050952D01*
X128079523Y-90098571D01*
X128127142Y-90193809D01*
X128127142Y-90431904D01*
X128079523Y-90527142D01*
X128031904Y-90574761D01*
X127936666Y-90622380D01*
X127698571Y-90622380D01*
X127603333Y-90574761D01*
X127555714Y-90527142D01*
X128412857Y-89622380D02*
X128746190Y-90622380D01*
X129079523Y-89622380D01*
X127508095Y-87130000D02*
X127412857Y-87082380D01*
X127270000Y-87082380D01*
X127127142Y-87130000D01*
X127031904Y-87225238D01*
X126984285Y-87320476D01*
X126936666Y-87510952D01*
X126936666Y-87653809D01*
X126984285Y-87844285D01*
X127031904Y-87939523D01*
X127127142Y-88034761D01*
X127270000Y-88082380D01*
X127365238Y-88082380D01*
X127508095Y-88034761D01*
X127555714Y-87987142D01*
X127555714Y-87653809D01*
X127365238Y-87653809D01*
X127984285Y-88082380D02*
X127984285Y-87082380D01*
X128555714Y-88082380D01*
X128555714Y-87082380D01*
X129031904Y-88082380D02*
X129031904Y-87082380D01*
X129270000Y-87082380D01*
X129412857Y-87130000D01*
X129508095Y-87225238D01*
X129555714Y-87320476D01*
X129603333Y-87510952D01*
X129603333Y-87653809D01*
X129555714Y-87844285D01*
X129508095Y-87939523D01*
X129412857Y-88034761D01*
X129270000Y-88082380D01*
X129031904Y-88082380D01*
X127008095Y-85494761D02*
X127150952Y-85542380D01*
X127389047Y-85542380D01*
X127484285Y-85494761D01*
X127531904Y-85447142D01*
X127579523Y-85351904D01*
X127579523Y-85256666D01*
X127531904Y-85161428D01*
X127484285Y-85113809D01*
X127389047Y-85066190D01*
X127198571Y-85018571D01*
X127103333Y-84970952D01*
X127055714Y-84923333D01*
X127008095Y-84828095D01*
X127008095Y-84732857D01*
X127055714Y-84637619D01*
X127103333Y-84590000D01*
X127198571Y-84542380D01*
X127436666Y-84542380D01*
X127579523Y-84590000D01*
X128008095Y-85542380D02*
X128008095Y-84542380D01*
X128246190Y-84542380D01*
X128389047Y-84590000D01*
X128484285Y-84685238D01*
X128531904Y-84780476D01*
X128579523Y-84970952D01*
X128579523Y-85113809D01*
X128531904Y-85304285D01*
X128484285Y-85399523D01*
X128389047Y-85494761D01*
X128246190Y-85542380D01*
X128008095Y-85542380D01*
X128960476Y-84637619D02*
X129008095Y-84590000D01*
X129103333Y-84542380D01*
X129341428Y-84542380D01*
X129436666Y-84590000D01*
X129484285Y-84637619D01*
X129531904Y-84732857D01*
X129531904Y-84828095D01*
X129484285Y-84970952D01*
X128912857Y-85542380D01*
X129531904Y-85542380D01*
X128079523Y-74382380D02*
X127603333Y-74382380D01*
X127555714Y-74858571D01*
X127603333Y-74810952D01*
X127698571Y-74763333D01*
X127936666Y-74763333D01*
X128031904Y-74810952D01*
X128079523Y-74858571D01*
X128127142Y-74953809D01*
X128127142Y-75191904D01*
X128079523Y-75287142D01*
X128031904Y-75334761D01*
X127936666Y-75382380D01*
X127698571Y-75382380D01*
X127603333Y-75334761D01*
X127555714Y-75287142D01*
X128412857Y-74382380D02*
X128746190Y-75382380D01*
X129079523Y-74382380D01*
X127508095Y-71890000D02*
X127412857Y-71842380D01*
X127270000Y-71842380D01*
X127127142Y-71890000D01*
X127031904Y-71985238D01*
X126984285Y-72080476D01*
X126936666Y-72270952D01*
X126936666Y-72413809D01*
X126984285Y-72604285D01*
X127031904Y-72699523D01*
X127127142Y-72794761D01*
X127270000Y-72842380D01*
X127365238Y-72842380D01*
X127508095Y-72794761D01*
X127555714Y-72747142D01*
X127555714Y-72413809D01*
X127365238Y-72413809D01*
X127984285Y-72842380D02*
X127984285Y-71842380D01*
X128555714Y-72842380D01*
X128555714Y-71842380D01*
X129031904Y-72842380D02*
X129031904Y-71842380D01*
X129270000Y-71842380D01*
X129412857Y-71890000D01*
X129508095Y-71985238D01*
X129555714Y-72080476D01*
X129603333Y-72270952D01*
X129603333Y-72413809D01*
X129555714Y-72604285D01*
X129508095Y-72699523D01*
X129412857Y-72794761D01*
X129270000Y-72842380D01*
X129031904Y-72842380D01*
X127008095Y-70254761D02*
X127150952Y-70302380D01*
X127389047Y-70302380D01*
X127484285Y-70254761D01*
X127531904Y-70207142D01*
X127579523Y-70111904D01*
X127579523Y-70016666D01*
X127531904Y-69921428D01*
X127484285Y-69873809D01*
X127389047Y-69826190D01*
X127198571Y-69778571D01*
X127103333Y-69730952D01*
X127055714Y-69683333D01*
X127008095Y-69588095D01*
X127008095Y-69492857D01*
X127055714Y-69397619D01*
X127103333Y-69350000D01*
X127198571Y-69302380D01*
X127436666Y-69302380D01*
X127579523Y-69350000D01*
X128008095Y-70302380D02*
X128008095Y-69302380D01*
X128246190Y-69302380D01*
X128389047Y-69350000D01*
X128484285Y-69445238D01*
X128531904Y-69540476D01*
X128579523Y-69730952D01*
X128579523Y-69873809D01*
X128531904Y-70064285D01*
X128484285Y-70159523D01*
X128389047Y-70254761D01*
X128246190Y-70302380D01*
X128008095Y-70302380D01*
X128912857Y-69302380D02*
X129531904Y-69302380D01*
X129198571Y-69683333D01*
X129341428Y-69683333D01*
X129436666Y-69730952D01*
X129484285Y-69778571D01*
X129531904Y-69873809D01*
X129531904Y-70111904D01*
X129484285Y-70207142D01*
X129436666Y-70254761D01*
X129341428Y-70302380D01*
X129055714Y-70302380D01*
X128960476Y-70254761D01*
X128912857Y-70207142D01*
X170783904Y-55443380D02*
X170783904Y-54443380D01*
X171164857Y-54443380D01*
X171260095Y-54491000D01*
X171307714Y-54538619D01*
X171355333Y-54633857D01*
X171355333Y-54776714D01*
X171307714Y-54871952D01*
X171260095Y-54919571D01*
X171164857Y-54967190D01*
X170783904Y-54967190D01*
X171926761Y-55443380D02*
X171831523Y-55395761D01*
X171783904Y-55348142D01*
X171736285Y-55252904D01*
X171736285Y-54967190D01*
X171783904Y-54871952D01*
X171831523Y-54824333D01*
X171926761Y-54776714D01*
X172069619Y-54776714D01*
X172164857Y-54824333D01*
X172212476Y-54871952D01*
X172260095Y-54967190D01*
X172260095Y-55252904D01*
X172212476Y-55348142D01*
X172164857Y-55395761D01*
X172069619Y-55443380D01*
X171926761Y-55443380D01*
X172593428Y-54776714D02*
X172783904Y-55443380D01*
X172974380Y-54967190D01*
X173164857Y-55443380D01*
X173355333Y-54776714D01*
X174117238Y-55395761D02*
X174022000Y-55443380D01*
X173831523Y-55443380D01*
X173736285Y-55395761D01*
X173688666Y-55300523D01*
X173688666Y-54919571D01*
X173736285Y-54824333D01*
X173831523Y-54776714D01*
X174022000Y-54776714D01*
X174117238Y-54824333D01*
X174164857Y-54919571D01*
X174164857Y-55014809D01*
X173688666Y-55110047D01*
X174593428Y-55443380D02*
X174593428Y-54776714D01*
X174593428Y-54967190D02*
X174641047Y-54871952D01*
X174688666Y-54824333D01*
X174783904Y-54776714D01*
X174879142Y-54776714D01*
X175974380Y-55062428D02*
X176736285Y-55062428D01*
X177974380Y-55443380D02*
X177974380Y-54443380D01*
X178450571Y-54776714D02*
X178450571Y-55443380D01*
X178450571Y-54871952D02*
X178498190Y-54824333D01*
X178593428Y-54776714D01*
X178736285Y-54776714D01*
X178831523Y-54824333D01*
X178879142Y-54919571D01*
X178879142Y-55443380D01*
X179355333Y-54776714D02*
X179355333Y-55776714D01*
X179355333Y-54824333D02*
X179450571Y-54776714D01*
X179641047Y-54776714D01*
X179736285Y-54824333D01*
X179783904Y-54871952D01*
X179831523Y-54967190D01*
X179831523Y-55252904D01*
X179783904Y-55348142D01*
X179736285Y-55395761D01*
X179641047Y-55443380D01*
X179450571Y-55443380D01*
X179355333Y-55395761D01*
X180688666Y-54776714D02*
X180688666Y-55443380D01*
X180260095Y-54776714D02*
X180260095Y-55300523D01*
X180307714Y-55395761D01*
X180402952Y-55443380D01*
X180545809Y-55443380D01*
X180641047Y-55395761D01*
X180688666Y-55348142D01*
X181022000Y-54776714D02*
X181402952Y-54776714D01*
X181164857Y-54443380D02*
X181164857Y-55300523D01*
X181212476Y-55395761D01*
X181307714Y-55443380D01*
X181402952Y-55443380D01*
X170672428Y-56142000D02*
X170577190Y-56094380D01*
X170434333Y-56094380D01*
X170291476Y-56142000D01*
X170196238Y-56237238D01*
X170148619Y-56332476D01*
X170101000Y-56522952D01*
X170101000Y-56665809D01*
X170148619Y-56856285D01*
X170196238Y-56951523D01*
X170291476Y-57046761D01*
X170434333Y-57094380D01*
X170529571Y-57094380D01*
X170672428Y-57046761D01*
X170720047Y-56999142D01*
X170720047Y-56665809D01*
X170529571Y-56665809D01*
X171148619Y-57094380D02*
X171148619Y-56094380D01*
X171720047Y-57094380D01*
X171720047Y-56094380D01*
X172196238Y-57094380D02*
X172196238Y-56094380D01*
X172434333Y-56094380D01*
X172577190Y-56142000D01*
X172672428Y-56237238D01*
X172720047Y-56332476D01*
X172767666Y-56522952D01*
X172767666Y-56665809D01*
X172720047Y-56856285D01*
X172672428Y-56951523D01*
X172577190Y-57046761D01*
X172434333Y-57094380D01*
X172196238Y-57094380D01*
X174243857Y-57475333D02*
X174196238Y-57427714D01*
X174101000Y-57284857D01*
X174053380Y-57189619D01*
X174005761Y-57046761D01*
X173958142Y-56808666D01*
X173958142Y-56618190D01*
X174005761Y-56380095D01*
X174053380Y-56237238D01*
X174101000Y-56142000D01*
X174196238Y-55999142D01*
X174243857Y-55951523D01*
X174624809Y-56713428D02*
X175386714Y-56713428D01*
X175767666Y-57475333D02*
X175815285Y-57427714D01*
X175910523Y-57284857D01*
X175958142Y-57189619D01*
X176005761Y-57046761D01*
X176053380Y-56808666D01*
X176053380Y-56618190D01*
X176005761Y-56380095D01*
X175958142Y-56237238D01*
X175910523Y-56142000D01*
X175815285Y-55999142D01*
X175767666Y-55951523D01*
X177593857Y-56221380D02*
X177117666Y-56221380D01*
X177070047Y-56697571D01*
X177117666Y-56649952D01*
X177212904Y-56602333D01*
X177451000Y-56602333D01*
X177546238Y-56649952D01*
X177593857Y-56697571D01*
X177641476Y-56792809D01*
X177641476Y-57030904D01*
X177593857Y-57126142D01*
X177546238Y-57173761D01*
X177451000Y-57221380D01*
X177212904Y-57221380D01*
X177117666Y-57173761D01*
X177070047Y-57126142D01*
X177927190Y-56221380D02*
X178260523Y-57221380D01*
X178593857Y-56221380D01*
X179974809Y-57602333D02*
X179927190Y-57554714D01*
X179831952Y-57411857D01*
X179784333Y-57316619D01*
X179736714Y-57173761D01*
X179689095Y-56935666D01*
X179689095Y-56745190D01*
X179736714Y-56507095D01*
X179784333Y-56364238D01*
X179831952Y-56269000D01*
X179927190Y-56126142D01*
X179974809Y-56078523D01*
X180355761Y-56840428D02*
X181117666Y-56840428D01*
X180736714Y-57221380D02*
X180736714Y-56459476D01*
X181498619Y-57602333D02*
X181546238Y-57554714D01*
X181641476Y-57411857D01*
X181689095Y-57316619D01*
X181736714Y-57173761D01*
X181784333Y-56935666D01*
X181784333Y-56745190D01*
X181736714Y-56507095D01*
X181689095Y-56364238D01*
X181641476Y-56269000D01*
X181546238Y-56126142D01*
X181498619Y-56078523D01*
X178649523Y-121054761D02*
X178792380Y-121102380D01*
X179030476Y-121102380D01*
X179125714Y-121054761D01*
X179173333Y-121007142D01*
X179220952Y-120911904D01*
X179220952Y-120816666D01*
X179173333Y-120721428D01*
X179125714Y-120673809D01*
X179030476Y-120626190D01*
X178840000Y-120578571D01*
X178744761Y-120530952D01*
X178697142Y-120483333D01*
X178649523Y-120388095D01*
X178649523Y-120292857D01*
X178697142Y-120197619D01*
X178744761Y-120150000D01*
X178840000Y-120102380D01*
X179078095Y-120102380D01*
X179220952Y-120150000D01*
X180220952Y-121007142D02*
X180173333Y-121054761D01*
X180030476Y-121102380D01*
X179935238Y-121102380D01*
X179792380Y-121054761D01*
X179697142Y-120959523D01*
X179649523Y-120864285D01*
X179601904Y-120673809D01*
X179601904Y-120530952D01*
X179649523Y-120340476D01*
X179697142Y-120245238D01*
X179792380Y-120150000D01*
X179935238Y-120102380D01*
X180030476Y-120102380D01*
X180173333Y-120150000D01*
X180220952Y-120197619D01*
X181125714Y-121102380D02*
X180649523Y-121102380D01*
X180649523Y-120102380D01*
X181459047Y-121102380D02*
X181459047Y-120102380D01*
X182030476Y-121102380D02*
X181601904Y-120530952D01*
X182030476Y-120102380D02*
X181459047Y-120673809D01*
X178768571Y-118562380D02*
X178768571Y-117562380D01*
X179101904Y-118276666D01*
X179435238Y-117562380D01*
X179435238Y-118562380D01*
X179911428Y-118562380D02*
X179911428Y-117562380D01*
X180340000Y-118514761D02*
X180482857Y-118562380D01*
X180720952Y-118562380D01*
X180816190Y-118514761D01*
X180863809Y-118467142D01*
X180911428Y-118371904D01*
X180911428Y-118276666D01*
X180863809Y-118181428D01*
X180816190Y-118133809D01*
X180720952Y-118086190D01*
X180530476Y-118038571D01*
X180435238Y-117990952D01*
X180387619Y-117943333D01*
X180340000Y-117848095D01*
X180340000Y-117752857D01*
X180387619Y-117657619D01*
X180435238Y-117610000D01*
X180530476Y-117562380D01*
X180768571Y-117562380D01*
X180911428Y-117610000D01*
X181530476Y-117562380D02*
X181720952Y-117562380D01*
X181816190Y-117610000D01*
X181911428Y-117705238D01*
X181959047Y-117895714D01*
X181959047Y-118229047D01*
X181911428Y-118419523D01*
X181816190Y-118514761D01*
X181720952Y-118562380D01*
X181530476Y-118562380D01*
X181435238Y-118514761D01*
X181340000Y-118419523D01*
X181292380Y-118229047D01*
X181292380Y-117895714D01*
X181340000Y-117705238D01*
X181435238Y-117610000D01*
X181530476Y-117562380D01*
X180173333Y-115927142D02*
X180125714Y-115974761D01*
X179982857Y-116022380D01*
X179887619Y-116022380D01*
X179744761Y-115974761D01*
X179649523Y-115879523D01*
X179601904Y-115784285D01*
X179554285Y-115593809D01*
X179554285Y-115450952D01*
X179601904Y-115260476D01*
X179649523Y-115165238D01*
X179744761Y-115070000D01*
X179887619Y-115022380D01*
X179982857Y-115022380D01*
X180125714Y-115070000D01*
X180173333Y-115117619D01*
X180554285Y-115974761D02*
X180697142Y-116022380D01*
X180935238Y-116022380D01*
X181030476Y-115974761D01*
X181078095Y-115927142D01*
X181125714Y-115831904D01*
X181125714Y-115736666D01*
X181078095Y-115641428D01*
X181030476Y-115593809D01*
X180935238Y-115546190D01*
X180744761Y-115498571D01*
X180649523Y-115450952D01*
X180601904Y-115403333D01*
X180554285Y-115308095D01*
X180554285Y-115212857D01*
X180601904Y-115117619D01*
X180649523Y-115070000D01*
X180744761Y-115022380D01*
X180982857Y-115022380D01*
X181125714Y-115070000D01*
X178768571Y-113482380D02*
X178768571Y-112482380D01*
X179101904Y-113196666D01*
X179435238Y-112482380D01*
X179435238Y-113482380D01*
X180101904Y-112482380D02*
X180292380Y-112482380D01*
X180387619Y-112530000D01*
X180482857Y-112625238D01*
X180530476Y-112815714D01*
X180530476Y-113149047D01*
X180482857Y-113339523D01*
X180387619Y-113434761D01*
X180292380Y-113482380D01*
X180101904Y-113482380D01*
X180006666Y-113434761D01*
X179911428Y-113339523D01*
X179863809Y-113149047D01*
X179863809Y-112815714D01*
X179911428Y-112625238D01*
X180006666Y-112530000D01*
X180101904Y-112482380D01*
X180911428Y-113434761D02*
X181054285Y-113482380D01*
X181292380Y-113482380D01*
X181387619Y-113434761D01*
X181435238Y-113387142D01*
X181482857Y-113291904D01*
X181482857Y-113196666D01*
X181435238Y-113101428D01*
X181387619Y-113053809D01*
X181292380Y-113006190D01*
X181101904Y-112958571D01*
X181006666Y-112910952D01*
X180959047Y-112863333D01*
X180911428Y-112768095D01*
X180911428Y-112672857D01*
X180959047Y-112577619D01*
X181006666Y-112530000D01*
X181101904Y-112482380D01*
X181340000Y-112482380D01*
X181482857Y-112530000D01*
X181911428Y-113482380D02*
X181911428Y-112482380D01*
X183832857Y-104592380D02*
X183356666Y-104592380D01*
X183356666Y-103592380D01*
X184166190Y-104592380D02*
X184166190Y-103925714D01*
X184166190Y-103592380D02*
X184118571Y-103640000D01*
X184166190Y-103687619D01*
X184213809Y-103640000D01*
X184166190Y-103592380D01*
X184166190Y-103687619D01*
X185070952Y-104544761D02*
X184975714Y-104592380D01*
X184785238Y-104592380D01*
X184690000Y-104544761D01*
X184642380Y-104497142D01*
X184594761Y-104401904D01*
X184594761Y-104116190D01*
X184642380Y-104020952D01*
X184690000Y-103973333D01*
X184785238Y-103925714D01*
X184975714Y-103925714D01*
X185070952Y-103973333D01*
X185499523Y-104592380D02*
X185499523Y-103592380D01*
X185928095Y-104592380D02*
X185928095Y-104068571D01*
X185880476Y-103973333D01*
X185785238Y-103925714D01*
X185642380Y-103925714D01*
X185547142Y-103973333D01*
X185499523Y-104020952D01*
X186261428Y-103925714D02*
X186642380Y-103925714D01*
X186404285Y-103592380D02*
X186404285Y-104449523D01*
X186451904Y-104544761D01*
X186547142Y-104592380D01*
X186642380Y-104592380D01*
X187118571Y-104592380D02*
X187023333Y-104544761D01*
X186975714Y-104449523D01*
X186975714Y-103592380D01*
X187880476Y-104544761D02*
X187785238Y-104592380D01*
X187594761Y-104592380D01*
X187499523Y-104544761D01*
X187451904Y-104449523D01*
X187451904Y-104068571D01*
X187499523Y-103973333D01*
X187594761Y-103925714D01*
X187785238Y-103925714D01*
X187880476Y-103973333D01*
X187928095Y-104068571D01*
X187928095Y-104163809D01*
X187451904Y-104259047D01*
X188261428Y-103925714D02*
X188499523Y-104592380D01*
X188737619Y-103925714D01*
X189499523Y-104544761D02*
X189404285Y-104592380D01*
X189213809Y-104592380D01*
X189118571Y-104544761D01*
X189070952Y-104449523D01*
X189070952Y-104068571D01*
X189118571Y-103973333D01*
X189213809Y-103925714D01*
X189404285Y-103925714D01*
X189499523Y-103973333D01*
X189547142Y-104068571D01*
X189547142Y-104163809D01*
X189070952Y-104259047D01*
X190118571Y-104592380D02*
X190023333Y-104544761D01*
X189975714Y-104449523D01*
X189975714Y-103592380D01*
X183237619Y-95702380D02*
X183237619Y-94702380D01*
X183618571Y-94702380D01*
X183713809Y-94750000D01*
X183761428Y-94797619D01*
X183809047Y-94892857D01*
X183809047Y-95035714D01*
X183761428Y-95130952D01*
X183713809Y-95178571D01*
X183618571Y-95226190D01*
X183237619Y-95226190D01*
X184237619Y-95702380D02*
X184237619Y-94702380D01*
X185285238Y-95702380D02*
X184951904Y-95226190D01*
X184713809Y-95702380D02*
X184713809Y-94702380D01*
X185094761Y-94702380D01*
X185190000Y-94750000D01*
X185237619Y-94797619D01*
X185285238Y-94892857D01*
X185285238Y-95035714D01*
X185237619Y-95130952D01*
X185190000Y-95178571D01*
X185094761Y-95226190D01*
X184713809Y-95226190D01*
X186904285Y-95035714D02*
X186904285Y-95702380D01*
X186475714Y-95035714D02*
X186475714Y-95559523D01*
X186523333Y-95654761D01*
X186618571Y-95702380D01*
X186761428Y-95702380D01*
X186856666Y-95654761D01*
X186904285Y-95607142D01*
X187380476Y-95035714D02*
X187380476Y-95702380D01*
X187380476Y-95130952D02*
X187428095Y-95083333D01*
X187523333Y-95035714D01*
X187666190Y-95035714D01*
X187761428Y-95083333D01*
X187809047Y-95178571D01*
X187809047Y-95702380D01*
X188142380Y-95035714D02*
X188523333Y-95035714D01*
X188285238Y-94702380D02*
X188285238Y-95559523D01*
X188332857Y-95654761D01*
X188428095Y-95702380D01*
X188523333Y-95702380D01*
X189237619Y-95654761D02*
X189142380Y-95702380D01*
X188951904Y-95702380D01*
X188856666Y-95654761D01*
X188809047Y-95559523D01*
X188809047Y-95178571D01*
X188856666Y-95083333D01*
X188951904Y-95035714D01*
X189142380Y-95035714D01*
X189237619Y-95083333D01*
X189285238Y-95178571D01*
X189285238Y-95273809D01*
X188809047Y-95369047D01*
X189713809Y-95035714D02*
X189713809Y-95702380D01*
X189713809Y-95130952D02*
X189761428Y-95083333D01*
X189856666Y-95035714D01*
X189999523Y-95035714D01*
X190094761Y-95083333D01*
X190142380Y-95178571D01*
X190142380Y-95702380D01*
X183523333Y-86812380D02*
X183523333Y-85812380D01*
X183904285Y-85812380D01*
X183999523Y-85860000D01*
X184047142Y-85907619D01*
X184094761Y-86002857D01*
X184094761Y-86145714D01*
X184047142Y-86240952D01*
X183999523Y-86288571D01*
X183904285Y-86336190D01*
X183523333Y-86336190D01*
X184523333Y-86812380D02*
X184523333Y-85812380D01*
X185570952Y-86812380D02*
X185237619Y-86336190D01*
X184999523Y-86812380D02*
X184999523Y-85812380D01*
X185380476Y-85812380D01*
X185475714Y-85860000D01*
X185523333Y-85907619D01*
X185570952Y-86002857D01*
X185570952Y-86145714D01*
X185523333Y-86240952D01*
X185475714Y-86288571D01*
X185380476Y-86336190D01*
X184999523Y-86336190D01*
X186904285Y-86812380D02*
X186809047Y-86764761D01*
X186761428Y-86717142D01*
X186713809Y-86621904D01*
X186713809Y-86336190D01*
X186761428Y-86240952D01*
X186809047Y-86193333D01*
X186904285Y-86145714D01*
X187047142Y-86145714D01*
X187142380Y-86193333D01*
X187190000Y-86240952D01*
X187237619Y-86336190D01*
X187237619Y-86621904D01*
X187190000Y-86717142D01*
X187142380Y-86764761D01*
X187047142Y-86812380D01*
X186904285Y-86812380D01*
X187666190Y-86812380D02*
X187666190Y-85812380D01*
X187666190Y-86193333D02*
X187761428Y-86145714D01*
X187951904Y-86145714D01*
X188047142Y-86193333D01*
X188094761Y-86240952D01*
X188142380Y-86336190D01*
X188142380Y-86621904D01*
X188094761Y-86717142D01*
X188047142Y-86764761D01*
X187951904Y-86812380D01*
X187761428Y-86812380D01*
X187666190Y-86764761D01*
X188951904Y-86764761D02*
X188856666Y-86812380D01*
X188666190Y-86812380D01*
X188570952Y-86764761D01*
X188523333Y-86669523D01*
X188523333Y-86288571D01*
X188570952Y-86193333D01*
X188666190Y-86145714D01*
X188856666Y-86145714D01*
X188951904Y-86193333D01*
X188999523Y-86288571D01*
X188999523Y-86383809D01*
X188523333Y-86479047D01*
X189428095Y-86145714D02*
X189428095Y-86812380D01*
X189428095Y-86240952D02*
X189475714Y-86193333D01*
X189570952Y-86145714D01*
X189713809Y-86145714D01*
X189809047Y-86193333D01*
X189856666Y-86288571D01*
X189856666Y-86812380D01*
X180149523Y-102322380D02*
X179673333Y-102322380D01*
X179625714Y-102798571D01*
X179673333Y-102750952D01*
X179768571Y-102703333D01*
X180006666Y-102703333D01*
X180101904Y-102750952D01*
X180149523Y-102798571D01*
X180197142Y-102893809D01*
X180197142Y-103131904D01*
X180149523Y-103227142D01*
X180101904Y-103274761D01*
X180006666Y-103322380D01*
X179768571Y-103322380D01*
X179673333Y-103274761D01*
X179625714Y-103227142D01*
X180482857Y-102322380D02*
X180816190Y-103322380D01*
X181149523Y-102322380D01*
X180149523Y-99782380D02*
X179673333Y-99782380D01*
X179625714Y-100258571D01*
X179673333Y-100210952D01*
X179768571Y-100163333D01*
X180006666Y-100163333D01*
X180101904Y-100210952D01*
X180149523Y-100258571D01*
X180197142Y-100353809D01*
X180197142Y-100591904D01*
X180149523Y-100687142D01*
X180101904Y-100734761D01*
X180006666Y-100782380D01*
X179768571Y-100782380D01*
X179673333Y-100734761D01*
X179625714Y-100687142D01*
X180482857Y-99782380D02*
X180816190Y-100782380D01*
X181149523Y-99782380D01*
X179578095Y-97242380D02*
X180197142Y-97242380D01*
X179863809Y-97623333D01*
X180006666Y-97623333D01*
X180101904Y-97670952D01*
X180149523Y-97718571D01*
X180197142Y-97813809D01*
X180197142Y-98051904D01*
X180149523Y-98147142D01*
X180101904Y-98194761D01*
X180006666Y-98242380D01*
X179720952Y-98242380D01*
X179625714Y-98194761D01*
X179578095Y-98147142D01*
X180482857Y-97242380D02*
X180816190Y-98242380D01*
X181149523Y-97242380D01*
X179578095Y-94702380D02*
X180197142Y-94702380D01*
X179863809Y-95083333D01*
X180006666Y-95083333D01*
X180101904Y-95130952D01*
X180149523Y-95178571D01*
X180197142Y-95273809D01*
X180197142Y-95511904D01*
X180149523Y-95607142D01*
X180101904Y-95654761D01*
X180006666Y-95702380D01*
X179720952Y-95702380D01*
X179625714Y-95654761D01*
X179578095Y-95607142D01*
X180482857Y-94702380D02*
X180816190Y-95702380D01*
X181149523Y-94702380D01*
X179578095Y-92210000D02*
X179482857Y-92162380D01*
X179340000Y-92162380D01*
X179197142Y-92210000D01*
X179101904Y-92305238D01*
X179054285Y-92400476D01*
X179006666Y-92590952D01*
X179006666Y-92733809D01*
X179054285Y-92924285D01*
X179101904Y-93019523D01*
X179197142Y-93114761D01*
X179340000Y-93162380D01*
X179435238Y-93162380D01*
X179578095Y-93114761D01*
X179625714Y-93067142D01*
X179625714Y-92733809D01*
X179435238Y-92733809D01*
X180054285Y-93162380D02*
X180054285Y-92162380D01*
X180625714Y-93162380D01*
X180625714Y-92162380D01*
X181101904Y-93162380D02*
X181101904Y-92162380D01*
X181340000Y-92162380D01*
X181482857Y-92210000D01*
X181578095Y-92305238D01*
X181625714Y-92400476D01*
X181673333Y-92590952D01*
X181673333Y-92733809D01*
X181625714Y-92924285D01*
X181578095Y-93019523D01*
X181482857Y-93114761D01*
X181340000Y-93162380D01*
X181101904Y-93162380D01*
X179578095Y-89670000D02*
X179482857Y-89622380D01*
X179340000Y-89622380D01*
X179197142Y-89670000D01*
X179101904Y-89765238D01*
X179054285Y-89860476D01*
X179006666Y-90050952D01*
X179006666Y-90193809D01*
X179054285Y-90384285D01*
X179101904Y-90479523D01*
X179197142Y-90574761D01*
X179340000Y-90622380D01*
X179435238Y-90622380D01*
X179578095Y-90574761D01*
X179625714Y-90527142D01*
X179625714Y-90193809D01*
X179435238Y-90193809D01*
X180054285Y-90622380D02*
X180054285Y-89622380D01*
X180625714Y-90622380D01*
X180625714Y-89622380D01*
X181101904Y-90622380D02*
X181101904Y-89622380D01*
X181340000Y-89622380D01*
X181482857Y-89670000D01*
X181578095Y-89765238D01*
X181625714Y-89860476D01*
X181673333Y-90050952D01*
X181673333Y-90193809D01*
X181625714Y-90384285D01*
X181578095Y-90479523D01*
X181482857Y-90574761D01*
X181340000Y-90622380D01*
X181101904Y-90622380D01*
X179578095Y-87130000D02*
X179482857Y-87082380D01*
X179340000Y-87082380D01*
X179197142Y-87130000D01*
X179101904Y-87225238D01*
X179054285Y-87320476D01*
X179006666Y-87510952D01*
X179006666Y-87653809D01*
X179054285Y-87844285D01*
X179101904Y-87939523D01*
X179197142Y-88034761D01*
X179340000Y-88082380D01*
X179435238Y-88082380D01*
X179578095Y-88034761D01*
X179625714Y-87987142D01*
X179625714Y-87653809D01*
X179435238Y-87653809D01*
X180054285Y-88082380D02*
X180054285Y-87082380D01*
X180625714Y-88082380D01*
X180625714Y-87082380D01*
X181101904Y-88082380D02*
X181101904Y-87082380D01*
X181340000Y-87082380D01*
X181482857Y-87130000D01*
X181578095Y-87225238D01*
X181625714Y-87320476D01*
X181673333Y-87510952D01*
X181673333Y-87653809D01*
X181625714Y-87844285D01*
X181578095Y-87939523D01*
X181482857Y-88034761D01*
X181340000Y-88082380D01*
X181101904Y-88082380D01*
X179578095Y-84590000D02*
X179482857Y-84542380D01*
X179340000Y-84542380D01*
X179197142Y-84590000D01*
X179101904Y-84685238D01*
X179054285Y-84780476D01*
X179006666Y-84970952D01*
X179006666Y-85113809D01*
X179054285Y-85304285D01*
X179101904Y-85399523D01*
X179197142Y-85494761D01*
X179340000Y-85542380D01*
X179435238Y-85542380D01*
X179578095Y-85494761D01*
X179625714Y-85447142D01*
X179625714Y-85113809D01*
X179435238Y-85113809D01*
X180054285Y-85542380D02*
X180054285Y-84542380D01*
X180625714Y-85542380D01*
X180625714Y-84542380D01*
X181101904Y-85542380D02*
X181101904Y-84542380D01*
X181340000Y-84542380D01*
X181482857Y-84590000D01*
X181578095Y-84685238D01*
X181625714Y-84780476D01*
X181673333Y-84970952D01*
X181673333Y-85113809D01*
X181625714Y-85304285D01*
X181578095Y-85399523D01*
X181482857Y-85494761D01*
X181340000Y-85542380D01*
X181101904Y-85542380D01*
X178712904Y-75255380D02*
X178712904Y-74255380D01*
X178951000Y-74255380D01*
X179093857Y-74303000D01*
X179189095Y-74398238D01*
X179236714Y-74493476D01*
X179284333Y-74683952D01*
X179284333Y-74826809D01*
X179236714Y-75017285D01*
X179189095Y-75112523D01*
X179093857Y-75207761D01*
X178951000Y-75255380D01*
X178712904Y-75255380D01*
X179665285Y-74350619D02*
X179712904Y-74303000D01*
X179808142Y-74255380D01*
X180046238Y-74255380D01*
X180141476Y-74303000D01*
X180189095Y-74350619D01*
X180236714Y-74445857D01*
X180236714Y-74541095D01*
X180189095Y-74683952D01*
X179617666Y-75255380D01*
X180236714Y-75255380D01*
X178712904Y-72842380D02*
X178712904Y-71842380D01*
X178951000Y-71842380D01*
X179093857Y-71890000D01*
X179189095Y-71985238D01*
X179236714Y-72080476D01*
X179284333Y-72270952D01*
X179284333Y-72413809D01*
X179236714Y-72604285D01*
X179189095Y-72699523D01*
X179093857Y-72794761D01*
X178951000Y-72842380D01*
X178712904Y-72842380D01*
X180236714Y-72842380D02*
X179665285Y-72842380D01*
X179951000Y-72842380D02*
X179951000Y-71842380D01*
X179855761Y-71985238D01*
X179760523Y-72080476D01*
X179665285Y-72128095D01*
X157932380Y-56618095D02*
X156932380Y-56618095D01*
X156932380Y-56380000D01*
X156980000Y-56237142D01*
X157075238Y-56141904D01*
X157170476Y-56094285D01*
X157360952Y-56046666D01*
X157503809Y-56046666D01*
X157694285Y-56094285D01*
X157789523Y-56141904D01*
X157884761Y-56237142D01*
X157932380Y-56380000D01*
X157932380Y-56618095D01*
X156932380Y-55427619D02*
X156932380Y-55332380D01*
X156980000Y-55237142D01*
X157027619Y-55189523D01*
X157122857Y-55141904D01*
X157313333Y-55094285D01*
X157551428Y-55094285D01*
X157741904Y-55141904D01*
X157837142Y-55189523D01*
X157884761Y-55237142D01*
X157932380Y-55332380D01*
X157932380Y-55427619D01*
X157884761Y-55522857D01*
X157837142Y-55570476D01*
X157741904Y-55618095D01*
X157551428Y-55665714D01*
X157313333Y-55665714D01*
X157122857Y-55618095D01*
X157027619Y-55570476D01*
X156980000Y-55522857D01*
X156932380Y-55427619D01*
X155392380Y-56046666D02*
X154916190Y-56380000D01*
X155392380Y-56618095D02*
X154392380Y-56618095D01*
X154392380Y-56237142D01*
X154440000Y-56141904D01*
X154487619Y-56094285D01*
X154582857Y-56046666D01*
X154725714Y-56046666D01*
X154820952Y-56094285D01*
X154868571Y-56141904D01*
X154916190Y-56237142D01*
X154916190Y-56618095D01*
X154392380Y-55713333D02*
X155392380Y-55046666D01*
X154392380Y-55046666D02*
X155392380Y-55713333D01*
X151852380Y-56641904D02*
X151852380Y-56070476D01*
X152852380Y-56356190D02*
X151852380Y-56356190D01*
X151852380Y-55832380D02*
X152852380Y-55165714D01*
X151852380Y-55165714D02*
X152852380Y-55832380D01*
X150312380Y-56427619D02*
X149836190Y-56760952D01*
X150312380Y-56999047D02*
X149312380Y-56999047D01*
X149312380Y-56618095D01*
X149360000Y-56522857D01*
X149407619Y-56475238D01*
X149502857Y-56427619D01*
X149645714Y-56427619D01*
X149740952Y-56475238D01*
X149788571Y-56522857D01*
X149836190Y-56618095D01*
X149836190Y-56999047D01*
X150264761Y-56046666D02*
X150312380Y-55903809D01*
X150312380Y-55665714D01*
X150264761Y-55570476D01*
X150217142Y-55522857D01*
X150121904Y-55475238D01*
X150026666Y-55475238D01*
X149931428Y-55522857D01*
X149883809Y-55570476D01*
X149836190Y-55665714D01*
X149788571Y-55856190D01*
X149740952Y-55951428D01*
X149693333Y-55999047D01*
X149598095Y-56046666D01*
X149502857Y-56046666D01*
X149407619Y-55999047D01*
X149360000Y-55951428D01*
X149312380Y-55856190D01*
X149312380Y-55618095D01*
X149360000Y-55475238D01*
X149312380Y-55189523D02*
X149312380Y-54618095D01*
X150312380Y-54903809D02*
X149312380Y-54903809D01*
X147248571Y-56618095D02*
X147248571Y-56284761D01*
X147772380Y-56141904D02*
X147772380Y-56618095D01*
X146772380Y-56618095D01*
X146772380Y-56141904D01*
X147772380Y-55713333D02*
X146772380Y-55713333D01*
X147772380Y-55141904D01*
X146772380Y-55141904D01*
X131310476Y-52412380D02*
X131548571Y-53412380D01*
X131739047Y-52698095D01*
X131929523Y-53412380D01*
X132167619Y-52412380D01*
X132500952Y-53364761D02*
X132643809Y-53412380D01*
X132881904Y-53412380D01*
X132977142Y-53364761D01*
X133024761Y-53317142D01*
X133072380Y-53221904D01*
X133072380Y-53126666D01*
X133024761Y-53031428D01*
X132977142Y-52983809D01*
X132881904Y-52936190D01*
X132691428Y-52888571D01*
X132596190Y-52840952D01*
X132548571Y-52793333D01*
X132500952Y-52698095D01*
X132500952Y-52602857D01*
X132548571Y-52507619D01*
X132596190Y-52460000D01*
X132691428Y-52412380D01*
X132929523Y-52412380D01*
X133072380Y-52460000D01*
X133453333Y-52507619D02*
X133500952Y-52460000D01*
X133596190Y-52412380D01*
X133834285Y-52412380D01*
X133929523Y-52460000D01*
X133977142Y-52507619D01*
X134024761Y-52602857D01*
X134024761Y-52698095D01*
X133977142Y-52840952D01*
X133405714Y-53412380D01*
X134024761Y-53412380D01*
X134596190Y-52840952D02*
X134500952Y-52793333D01*
X134453333Y-52745714D01*
X134405714Y-52650476D01*
X134405714Y-52602857D01*
X134453333Y-52507619D01*
X134500952Y-52460000D01*
X134596190Y-52412380D01*
X134786666Y-52412380D01*
X134881904Y-52460000D01*
X134929523Y-52507619D01*
X134977142Y-52602857D01*
X134977142Y-52650476D01*
X134929523Y-52745714D01*
X134881904Y-52793333D01*
X134786666Y-52840952D01*
X134596190Y-52840952D01*
X134500952Y-52888571D01*
X134453333Y-52936190D01*
X134405714Y-53031428D01*
X134405714Y-53221904D01*
X134453333Y-53317142D01*
X134500952Y-53364761D01*
X134596190Y-53412380D01*
X134786666Y-53412380D01*
X134881904Y-53364761D01*
X134929523Y-53317142D01*
X134977142Y-53221904D01*
X134977142Y-53031428D01*
X134929523Y-52936190D01*
X134881904Y-52888571D01*
X134786666Y-52840952D01*
X135929523Y-53412380D02*
X135358095Y-53412380D01*
X135643809Y-53412380D02*
X135643809Y-52412380D01*
X135548571Y-52555238D01*
X135453333Y-52650476D01*
X135358095Y-52698095D01*
X136310476Y-52507619D02*
X136358095Y-52460000D01*
X136453333Y-52412380D01*
X136691428Y-52412380D01*
X136786666Y-52460000D01*
X136834285Y-52507619D01*
X136881904Y-52602857D01*
X136881904Y-52698095D01*
X136834285Y-52840952D01*
X136262857Y-53412380D01*
X136881904Y-53412380D01*
X137643809Y-52888571D02*
X137786666Y-52936190D01*
X137834285Y-52983809D01*
X137881904Y-53079047D01*
X137881904Y-53221904D01*
X137834285Y-53317142D01*
X137786666Y-53364761D01*
X137691428Y-53412380D01*
X137310476Y-53412380D01*
X137310476Y-52412380D01*
X137643809Y-52412380D01*
X137739047Y-52460000D01*
X137786666Y-52507619D01*
X137834285Y-52602857D01*
X137834285Y-52698095D01*
X137786666Y-52793333D01*
X137739047Y-52840952D01*
X137643809Y-52888571D01*
X137310476Y-52888571D01*
X131167619Y-55062380D02*
X130691428Y-55062380D01*
X130691428Y-54062380D01*
X131500952Y-54538571D02*
X131834285Y-54538571D01*
X131977142Y-55062380D02*
X131500952Y-55062380D01*
X131500952Y-54062380D01*
X131977142Y-54062380D01*
X132405714Y-55062380D02*
X132405714Y-54062380D01*
X132643809Y-54062380D01*
X132786666Y-54110000D01*
X132881904Y-54205238D01*
X132929523Y-54300476D01*
X132977142Y-54490952D01*
X132977142Y-54633809D01*
X132929523Y-54824285D01*
X132881904Y-54919523D01*
X132786666Y-55014761D01*
X132643809Y-55062380D01*
X132405714Y-55062380D01*
X133405714Y-54681428D02*
X134167619Y-54681428D01*
X134596190Y-55014761D02*
X134739047Y-55062380D01*
X134977142Y-55062380D01*
X135072380Y-55014761D01*
X135120000Y-54967142D01*
X135167619Y-54871904D01*
X135167619Y-54776666D01*
X135120000Y-54681428D01*
X135072380Y-54633809D01*
X134977142Y-54586190D01*
X134786666Y-54538571D01*
X134691428Y-54490952D01*
X134643809Y-54443333D01*
X134596190Y-54348095D01*
X134596190Y-54252857D01*
X134643809Y-54157619D01*
X134691428Y-54110000D01*
X134786666Y-54062380D01*
X135024761Y-54062380D01*
X135167619Y-54110000D01*
X135453333Y-54395714D02*
X135834285Y-54395714D01*
X135596190Y-54062380D02*
X135596190Y-54919523D01*
X135643809Y-55014761D01*
X135739047Y-55062380D01*
X135834285Y-55062380D01*
X136167619Y-55062380D02*
X136167619Y-54395714D01*
X136167619Y-54586190D02*
X136215238Y-54490952D01*
X136262857Y-54443333D01*
X136358095Y-54395714D01*
X136453333Y-54395714D01*
X136786666Y-55062380D02*
X136786666Y-54395714D01*
X136786666Y-54062380D02*
X136739047Y-54110000D01*
X136786666Y-54157619D01*
X136834285Y-54110000D01*
X136786666Y-54062380D01*
X136786666Y-54157619D01*
X137262857Y-54395714D02*
X137262857Y-55395714D01*
X137262857Y-54443333D02*
X137358095Y-54395714D01*
X137548571Y-54395714D01*
X137643809Y-54443333D01*
X137691428Y-54490952D01*
X137739047Y-54586190D01*
X137739047Y-54871904D01*
X137691428Y-54967142D01*
X137643809Y-55014761D01*
X137548571Y-55062380D01*
X137358095Y-55062380D01*
X137262857Y-55014761D01*
X138548571Y-55014761D02*
X138453333Y-55062380D01*
X138262857Y-55062380D01*
X138167619Y-55014761D01*
X138120000Y-54919523D01*
X138120000Y-54538571D01*
X138167619Y-54443333D01*
X138262857Y-54395714D01*
X138453333Y-54395714D01*
X138548571Y-54443333D01*
X138596190Y-54538571D01*
X138596190Y-54633809D01*
X138120000Y-54729047D01*
X131429523Y-55712380D02*
X130953333Y-55712380D01*
X130905714Y-56188571D01*
X130953333Y-56140952D01*
X131048571Y-56093333D01*
X131286666Y-56093333D01*
X131381904Y-56140952D01*
X131429523Y-56188571D01*
X131477142Y-56283809D01*
X131477142Y-56521904D01*
X131429523Y-56617142D01*
X131381904Y-56664761D01*
X131286666Y-56712380D01*
X131048571Y-56712380D01*
X130953333Y-56664761D01*
X130905714Y-56617142D01*
X131762857Y-55712380D02*
X132096190Y-56712380D01*
X132429523Y-55712380D01*
X134810476Y-55760000D02*
X134715238Y-55712380D01*
X134572380Y-55712380D01*
X134429523Y-55760000D01*
X134334285Y-55855238D01*
X134286666Y-55950476D01*
X134239047Y-56140952D01*
X134239047Y-56283809D01*
X134286666Y-56474285D01*
X134334285Y-56569523D01*
X134429523Y-56664761D01*
X134572380Y-56712380D01*
X134667619Y-56712380D01*
X134810476Y-56664761D01*
X134858095Y-56617142D01*
X134858095Y-56283809D01*
X134667619Y-56283809D01*
X136810476Y-56712380D02*
X136810476Y-55712380D01*
X137048571Y-55712380D01*
X137191428Y-55760000D01*
X137286666Y-55855238D01*
X137334285Y-55950476D01*
X137381904Y-56140952D01*
X137381904Y-56283809D01*
X137334285Y-56474285D01*
X137286666Y-56569523D01*
X137191428Y-56664761D01*
X137048571Y-56712380D01*
X136810476Y-56712380D01*
X138239047Y-56045714D02*
X138239047Y-56712380D01*
X138000952Y-55664761D02*
X137762857Y-56379047D01*
X138381904Y-56379047D01*
X124087380Y-76199523D02*
X123087380Y-76199523D01*
X123563571Y-76199523D02*
X123563571Y-75628095D01*
X124087380Y-75628095D02*
X123087380Y-75628095D01*
X123992142Y-74580476D02*
X124039761Y-74628095D01*
X124087380Y-74770952D01*
X124087380Y-74866190D01*
X124039761Y-75009047D01*
X123944523Y-75104285D01*
X123849285Y-75151904D01*
X123658809Y-75199523D01*
X123515952Y-75199523D01*
X123325476Y-75151904D01*
X123230238Y-75104285D01*
X123135000Y-75009047D01*
X123087380Y-74866190D01*
X123087380Y-74770952D01*
X123135000Y-74628095D01*
X123182619Y-74580476D01*
X123706428Y-74151904D02*
X123706428Y-73390000D01*
X124039761Y-72961428D02*
X124087380Y-72818571D01*
X124087380Y-72580476D01*
X124039761Y-72485238D01*
X123992142Y-72437619D01*
X123896904Y-72390000D01*
X123801666Y-72390000D01*
X123706428Y-72437619D01*
X123658809Y-72485238D01*
X123611190Y-72580476D01*
X123563571Y-72770952D01*
X123515952Y-72866190D01*
X123468333Y-72913809D01*
X123373095Y-72961428D01*
X123277857Y-72961428D01*
X123182619Y-72913809D01*
X123135000Y-72866190D01*
X123087380Y-72770952D01*
X123087380Y-72532857D01*
X123135000Y-72390000D01*
X124087380Y-71390000D02*
X123611190Y-71723333D01*
X124087380Y-71961428D02*
X123087380Y-71961428D01*
X123087380Y-71580476D01*
X123135000Y-71485238D01*
X123182619Y-71437619D01*
X123277857Y-71390000D01*
X123420714Y-71390000D01*
X123515952Y-71437619D01*
X123563571Y-71485238D01*
X123611190Y-71580476D01*
X123611190Y-71961428D01*
X123087380Y-70485238D02*
X123087380Y-70961428D01*
X123563571Y-71009047D01*
X123515952Y-70961428D01*
X123468333Y-70866190D01*
X123468333Y-70628095D01*
X123515952Y-70532857D01*
X123563571Y-70485238D01*
X123658809Y-70437619D01*
X123896904Y-70437619D01*
X123992142Y-70485238D01*
X124039761Y-70532857D01*
X124087380Y-70628095D01*
X124087380Y-70866190D01*
X124039761Y-70961428D01*
X123992142Y-71009047D01*
X123087380Y-69818571D02*
X123087380Y-69723333D01*
X123135000Y-69628095D01*
X123182619Y-69580476D01*
X123277857Y-69532857D01*
X123468333Y-69485238D01*
X123706428Y-69485238D01*
X123896904Y-69532857D01*
X123992142Y-69580476D01*
X124039761Y-69628095D01*
X124087380Y-69723333D01*
X124087380Y-69818571D01*
X124039761Y-69913809D01*
X123992142Y-69961428D01*
X123896904Y-70009047D01*
X123706428Y-70056666D01*
X123468333Y-70056666D01*
X123277857Y-70009047D01*
X123182619Y-69961428D01*
X123135000Y-69913809D01*
X123087380Y-69818571D01*
X124087380Y-68532857D02*
X124087380Y-69104285D01*
X124087380Y-68818571D02*
X123087380Y-68818571D01*
X123230238Y-68913809D01*
X123325476Y-69009047D01*
X123373095Y-69104285D01*
X126118333Y-74318571D02*
X126070714Y-74366190D01*
X125927857Y-74461428D01*
X125832619Y-74509047D01*
X125689761Y-74556666D01*
X125451666Y-74604285D01*
X125261190Y-74604285D01*
X125023095Y-74556666D01*
X124880238Y-74509047D01*
X124785000Y-74461428D01*
X124642142Y-74366190D01*
X124594523Y-74318571D01*
X125737380Y-73794761D02*
X125689761Y-73890000D01*
X125642142Y-73937619D01*
X125546904Y-73985238D01*
X125261190Y-73985238D01*
X125165952Y-73937619D01*
X125118333Y-73890000D01*
X125070714Y-73794761D01*
X125070714Y-73651904D01*
X125118333Y-73556666D01*
X125165952Y-73509047D01*
X125261190Y-73461428D01*
X125546904Y-73461428D01*
X125642142Y-73509047D01*
X125689761Y-73556666D01*
X125737380Y-73651904D01*
X125737380Y-73794761D01*
X125737380Y-73032857D02*
X124737380Y-73032857D01*
X125118333Y-73032857D02*
X125070714Y-72937619D01*
X125070714Y-72747142D01*
X125118333Y-72651904D01*
X125165952Y-72604285D01*
X125261190Y-72556666D01*
X125546904Y-72556666D01*
X125642142Y-72604285D01*
X125689761Y-72651904D01*
X125737380Y-72747142D01*
X125737380Y-72937619D01*
X125689761Y-73032857D01*
X125689761Y-71747142D02*
X125737380Y-71842380D01*
X125737380Y-72032857D01*
X125689761Y-72128095D01*
X125594523Y-72175714D01*
X125213571Y-72175714D01*
X125118333Y-72128095D01*
X125070714Y-72032857D01*
X125070714Y-71842380D01*
X125118333Y-71747142D01*
X125213571Y-71699523D01*
X125308809Y-71699523D01*
X125404047Y-72175714D01*
X125070714Y-71270952D02*
X125737380Y-71270952D01*
X125165952Y-71270952D02*
X125118333Y-71223333D01*
X125070714Y-71128095D01*
X125070714Y-70985238D01*
X125118333Y-70890000D01*
X125213571Y-70842380D01*
X125737380Y-70842380D01*
X126118333Y-70461428D02*
X126070714Y-70413809D01*
X125927857Y-70318571D01*
X125832619Y-70270952D01*
X125689761Y-70223333D01*
X125451666Y-70175714D01*
X125261190Y-70175714D01*
X125023095Y-70223333D01*
X124880238Y-70270952D01*
X124785000Y-70318571D01*
X124642142Y-70413809D01*
X124594523Y-70461428D01*
X124087380Y-91439523D02*
X123087380Y-91439523D01*
X123563571Y-91439523D02*
X123563571Y-90868095D01*
X124087380Y-90868095D02*
X123087380Y-90868095D01*
X123992142Y-89820476D02*
X124039761Y-89868095D01*
X124087380Y-90010952D01*
X124087380Y-90106190D01*
X124039761Y-90249047D01*
X123944523Y-90344285D01*
X123849285Y-90391904D01*
X123658809Y-90439523D01*
X123515952Y-90439523D01*
X123325476Y-90391904D01*
X123230238Y-90344285D01*
X123135000Y-90249047D01*
X123087380Y-90106190D01*
X123087380Y-90010952D01*
X123135000Y-89868095D01*
X123182619Y-89820476D01*
X123706428Y-89391904D02*
X123706428Y-88630000D01*
X124039761Y-88201428D02*
X124087380Y-88058571D01*
X124087380Y-87820476D01*
X124039761Y-87725238D01*
X123992142Y-87677619D01*
X123896904Y-87630000D01*
X123801666Y-87630000D01*
X123706428Y-87677619D01*
X123658809Y-87725238D01*
X123611190Y-87820476D01*
X123563571Y-88010952D01*
X123515952Y-88106190D01*
X123468333Y-88153809D01*
X123373095Y-88201428D01*
X123277857Y-88201428D01*
X123182619Y-88153809D01*
X123135000Y-88106190D01*
X123087380Y-88010952D01*
X123087380Y-87772857D01*
X123135000Y-87630000D01*
X124087380Y-86630000D02*
X123611190Y-86963333D01*
X124087380Y-87201428D02*
X123087380Y-87201428D01*
X123087380Y-86820476D01*
X123135000Y-86725238D01*
X123182619Y-86677619D01*
X123277857Y-86630000D01*
X123420714Y-86630000D01*
X123515952Y-86677619D01*
X123563571Y-86725238D01*
X123611190Y-86820476D01*
X123611190Y-87201428D01*
X123087380Y-85725238D02*
X123087380Y-86201428D01*
X123563571Y-86249047D01*
X123515952Y-86201428D01*
X123468333Y-86106190D01*
X123468333Y-85868095D01*
X123515952Y-85772857D01*
X123563571Y-85725238D01*
X123658809Y-85677619D01*
X123896904Y-85677619D01*
X123992142Y-85725238D01*
X124039761Y-85772857D01*
X124087380Y-85868095D01*
X124087380Y-86106190D01*
X124039761Y-86201428D01*
X123992142Y-86249047D01*
X123087380Y-85058571D02*
X123087380Y-84963333D01*
X123135000Y-84868095D01*
X123182619Y-84820476D01*
X123277857Y-84772857D01*
X123468333Y-84725238D01*
X123706428Y-84725238D01*
X123896904Y-84772857D01*
X123992142Y-84820476D01*
X124039761Y-84868095D01*
X124087380Y-84963333D01*
X124087380Y-85058571D01*
X124039761Y-85153809D01*
X123992142Y-85201428D01*
X123896904Y-85249047D01*
X123706428Y-85296666D01*
X123468333Y-85296666D01*
X123277857Y-85249047D01*
X123182619Y-85201428D01*
X123135000Y-85153809D01*
X123087380Y-85058571D01*
X124087380Y-83772857D02*
X124087380Y-84344285D01*
X124087380Y-84058571D02*
X123087380Y-84058571D01*
X123230238Y-84153809D01*
X123325476Y-84249047D01*
X123373095Y-84344285D01*
X126118333Y-89844285D02*
X126070714Y-89891904D01*
X125927857Y-89987142D01*
X125832619Y-90034761D01*
X125689761Y-90082380D01*
X125451666Y-90130000D01*
X125261190Y-90130000D01*
X125023095Y-90082380D01*
X124880238Y-90034761D01*
X124785000Y-89987142D01*
X124642142Y-89891904D01*
X124594523Y-89844285D01*
X125070714Y-89034761D02*
X125737380Y-89034761D01*
X125070714Y-89463333D02*
X125594523Y-89463333D01*
X125689761Y-89415714D01*
X125737380Y-89320476D01*
X125737380Y-89177619D01*
X125689761Y-89082380D01*
X125642142Y-89034761D01*
X125070714Y-88558571D02*
X125737380Y-88558571D01*
X125165952Y-88558571D02*
X125118333Y-88510952D01*
X125070714Y-88415714D01*
X125070714Y-88272857D01*
X125118333Y-88177619D01*
X125213571Y-88130000D01*
X125737380Y-88130000D01*
X125070714Y-87796666D02*
X125070714Y-87415714D01*
X124737380Y-87653809D02*
X125594523Y-87653809D01*
X125689761Y-87606190D01*
X125737380Y-87510952D01*
X125737380Y-87415714D01*
X125689761Y-86701428D02*
X125737380Y-86796666D01*
X125737380Y-86987142D01*
X125689761Y-87082380D01*
X125594523Y-87130000D01*
X125213571Y-87130000D01*
X125118333Y-87082380D01*
X125070714Y-86987142D01*
X125070714Y-86796666D01*
X125118333Y-86701428D01*
X125213571Y-86653809D01*
X125308809Y-86653809D01*
X125404047Y-87130000D01*
X125070714Y-86225238D02*
X125737380Y-86225238D01*
X125165952Y-86225238D02*
X125118333Y-86177619D01*
X125070714Y-86082380D01*
X125070714Y-85939523D01*
X125118333Y-85844285D01*
X125213571Y-85796666D01*
X125737380Y-85796666D01*
X126118333Y-85415714D02*
X126070714Y-85368095D01*
X125927857Y-85272857D01*
X125832619Y-85225238D01*
X125689761Y-85177619D01*
X125451666Y-85130000D01*
X125261190Y-85130000D01*
X125023095Y-85177619D01*
X124880238Y-85225238D01*
X124785000Y-85272857D01*
X124642142Y-85368095D01*
X124594523Y-85415714D01*
X124912380Y-106338095D02*
X123912380Y-106338095D01*
X123912380Y-105957142D01*
X123960000Y-105861904D01*
X124007619Y-105814285D01*
X124102857Y-105766666D01*
X124245714Y-105766666D01*
X124340952Y-105814285D01*
X124388571Y-105861904D01*
X124436190Y-105957142D01*
X124436190Y-106338095D01*
X124912380Y-105338095D02*
X123912380Y-105338095D01*
X124912380Y-104909523D02*
X124388571Y-104909523D01*
X124293333Y-104957142D01*
X124245714Y-105052380D01*
X124245714Y-105195238D01*
X124293333Y-105290476D01*
X124340952Y-105338095D01*
X124912380Y-104290476D02*
X124864761Y-104385714D01*
X124817142Y-104433333D01*
X124721904Y-104480952D01*
X124436190Y-104480952D01*
X124340952Y-104433333D01*
X124293333Y-104385714D01*
X124245714Y-104290476D01*
X124245714Y-104147619D01*
X124293333Y-104052380D01*
X124340952Y-104004761D01*
X124436190Y-103957142D01*
X124721904Y-103957142D01*
X124817142Y-104004761D01*
X124864761Y-104052380D01*
X124912380Y-104147619D01*
X124912380Y-104290476D01*
X124245714Y-103671428D02*
X124245714Y-103290476D01*
X123912380Y-103528571D02*
X124769523Y-103528571D01*
X124864761Y-103480952D01*
X124912380Y-103385714D01*
X124912380Y-103290476D01*
X124912380Y-102814285D02*
X124864761Y-102909523D01*
X124817142Y-102957142D01*
X124721904Y-103004761D01*
X124436190Y-103004761D01*
X124340952Y-102957142D01*
X124293333Y-102909523D01*
X124245714Y-102814285D01*
X124245714Y-102671428D01*
X124293333Y-102576190D01*
X124340952Y-102528571D01*
X124436190Y-102480952D01*
X124721904Y-102480952D01*
X124817142Y-102528571D01*
X124864761Y-102576190D01*
X124912380Y-102671428D01*
X124912380Y-102814285D01*
X124912380Y-102052380D02*
X124245714Y-102052380D01*
X124436190Y-102052380D02*
X124340952Y-102004761D01*
X124293333Y-101957142D01*
X124245714Y-101861904D01*
X124245714Y-101766666D01*
X124864761Y-101052380D02*
X124912380Y-101147619D01*
X124912380Y-101338095D01*
X124864761Y-101433333D01*
X124769523Y-101480952D01*
X124388571Y-101480952D01*
X124293333Y-101433333D01*
X124245714Y-101338095D01*
X124245714Y-101147619D01*
X124293333Y-101052380D01*
X124388571Y-101004761D01*
X124483809Y-101004761D01*
X124579047Y-101480952D01*
X124864761Y-100623809D02*
X124912380Y-100528571D01*
X124912380Y-100338095D01*
X124864761Y-100242857D01*
X124769523Y-100195238D01*
X124721904Y-100195238D01*
X124626666Y-100242857D01*
X124579047Y-100338095D01*
X124579047Y-100480952D01*
X124531428Y-100576190D01*
X124436190Y-100623809D01*
X124388571Y-100623809D01*
X124293333Y-100576190D01*
X124245714Y-100480952D01*
X124245714Y-100338095D01*
X124293333Y-100242857D01*
X124912380Y-99766666D02*
X124245714Y-99766666D01*
X123912380Y-99766666D02*
X123960000Y-99814285D01*
X124007619Y-99766666D01*
X123960000Y-99719047D01*
X123912380Y-99766666D01*
X124007619Y-99766666D01*
X124864761Y-99338095D02*
X124912380Y-99242857D01*
X124912380Y-99052380D01*
X124864761Y-98957142D01*
X124769523Y-98909523D01*
X124721904Y-98909523D01*
X124626666Y-98957142D01*
X124579047Y-99052380D01*
X124579047Y-99195238D01*
X124531428Y-99290476D01*
X124436190Y-99338095D01*
X124388571Y-99338095D01*
X124293333Y-99290476D01*
X124245714Y-99195238D01*
X124245714Y-99052380D01*
X124293333Y-98957142D01*
X124245714Y-98623809D02*
X124245714Y-98242857D01*
X123912380Y-98480952D02*
X124769523Y-98480952D01*
X124864761Y-98433333D01*
X124912380Y-98338095D01*
X124912380Y-98242857D01*
X124912380Y-97766666D02*
X124864761Y-97861904D01*
X124817142Y-97909523D01*
X124721904Y-97957142D01*
X124436190Y-97957142D01*
X124340952Y-97909523D01*
X124293333Y-97861904D01*
X124245714Y-97766666D01*
X124245714Y-97623809D01*
X124293333Y-97528571D01*
X124340952Y-97480952D01*
X124436190Y-97433333D01*
X124721904Y-97433333D01*
X124817142Y-97480952D01*
X124864761Y-97528571D01*
X124912380Y-97623809D01*
X124912380Y-97766666D01*
X124912380Y-97004761D02*
X124245714Y-97004761D01*
X124436190Y-97004761D02*
X124340952Y-96957142D01*
X124293333Y-96909523D01*
X124245714Y-96814285D01*
X124245714Y-96719047D01*
X136342380Y-114990476D02*
X136342380Y-115561904D01*
X136342380Y-115276190D02*
X135342380Y-115276190D01*
X135485238Y-115371428D01*
X135580476Y-115466666D01*
X135628095Y-115561904D01*
X135342380Y-114371428D02*
X135342380Y-114276190D01*
X135390000Y-114180952D01*
X135437619Y-114133333D01*
X135532857Y-114085714D01*
X135723333Y-114038095D01*
X135961428Y-114038095D01*
X136151904Y-114085714D01*
X136247142Y-114133333D01*
X136294761Y-114180952D01*
X136342380Y-114276190D01*
X136342380Y-114371428D01*
X136294761Y-114466666D01*
X136247142Y-114514285D01*
X136151904Y-114561904D01*
X135961428Y-114609523D01*
X135723333Y-114609523D01*
X135532857Y-114561904D01*
X135437619Y-114514285D01*
X135390000Y-114466666D01*
X135342380Y-114371428D01*
X136342380Y-113609523D02*
X135342380Y-113609523D01*
X136342380Y-113038095D02*
X135770952Y-113466666D01*
X135342380Y-113038095D02*
X135913809Y-113609523D01*
X184713619Y-115538095D02*
X184666000Y-115490476D01*
X184618380Y-115395238D01*
X184618380Y-115157142D01*
X184666000Y-115061904D01*
X184713619Y-115014285D01*
X184808857Y-114966666D01*
X184904095Y-114966666D01*
X185046952Y-115014285D01*
X185618380Y-115585714D01*
X185618380Y-114966666D01*
X184713619Y-114585714D02*
X184666000Y-114538095D01*
X184618380Y-114442857D01*
X184618380Y-114204761D01*
X184666000Y-114109523D01*
X184713619Y-114061904D01*
X184808857Y-114014285D01*
X184904095Y-114014285D01*
X185046952Y-114061904D01*
X185618380Y-114633333D01*
X185618380Y-114014285D01*
X184618380Y-113395238D02*
X184618380Y-113300000D01*
X184666000Y-113204761D01*
X184713619Y-113157142D01*
X184808857Y-113109523D01*
X184999333Y-113061904D01*
X185237428Y-113061904D01*
X185427904Y-113109523D01*
X185523142Y-113157142D01*
X185570761Y-113204761D01*
X185618380Y-113300000D01*
X185618380Y-113395238D01*
X185570761Y-113490476D01*
X185523142Y-113538095D01*
X185427904Y-113585714D01*
X185237428Y-113633333D01*
X184999333Y-113633333D01*
X184808857Y-113585714D01*
X184713619Y-113538095D01*
X184666000Y-113490476D01*
X184618380Y-113395238D01*
D11*
G36*
X156495750Y-108839000D02*
G01*
X153638250Y-108839000D01*
X153638250Y-108585000D01*
X156495750Y-108585000D01*
X156495750Y-108839000D01*
G37*
X156495750Y-108839000D02*
X153638250Y-108839000D01*
X153638250Y-108585000D01*
X156495750Y-108585000D01*
X156495750Y-108839000D01*
G36*
X156495750Y-109474000D02*
G01*
X153638250Y-109474000D01*
X153638250Y-109220000D01*
X156495750Y-109220000D01*
X156495750Y-109474000D01*
G37*
X156495750Y-109474000D02*
X153638250Y-109474000D01*
X153638250Y-109220000D01*
X156495750Y-109220000D01*
X156495750Y-109474000D01*
G36*
X156495750Y-110077250D02*
G01*
X153638250Y-110077250D01*
X153638250Y-109855000D01*
X156495750Y-109855000D01*
X156495750Y-110077250D01*
G37*
X156495750Y-110077250D02*
X153638250Y-110077250D01*
X153638250Y-109855000D01*
X156495750Y-109855000D01*
X156495750Y-110077250D01*
G36*
X156495750Y-110712250D02*
G01*
X153638250Y-110712250D01*
X153638250Y-110490000D01*
X156495750Y-110490000D01*
X156495750Y-110712250D01*
G37*
X156495750Y-110712250D02*
X153638250Y-110712250D01*
X153638250Y-110490000D01*
X156495750Y-110490000D01*
X156495750Y-110712250D01*
G36*
X160430162Y-112813051D02*
G01*
X160532292Y-112878283D01*
X160582786Y-112969072D01*
X160578440Y-113071540D01*
X160516049Y-113171809D01*
X160513568Y-113174318D01*
X160411535Y-113240002D01*
X160302977Y-113243848D01*
X160221192Y-113205365D01*
X160151561Y-113125768D01*
X160131106Y-113032040D01*
X160152215Y-112938472D01*
X160207277Y-112859352D01*
X160288681Y-112808967D01*
X160388818Y-112801608D01*
X160430162Y-112813051D01*
G37*
X160430162Y-112813051D02*
X160532292Y-112878283D01*
X160582786Y-112969072D01*
X160578440Y-113071540D01*
X160516049Y-113171809D01*
X160513568Y-113174318D01*
X160411535Y-113240002D01*
X160302977Y-113243848D01*
X160221192Y-113205365D01*
X160151561Y-113125768D01*
X160131106Y-113032040D01*
X160152215Y-112938472D01*
X160207277Y-112859352D01*
X160288681Y-112808967D01*
X160388818Y-112801608D01*
X160430162Y-112813051D01*
G36*
X159376489Y-112851064D02*
G01*
X159434548Y-112917354D01*
X159468605Y-112986219D01*
X159463829Y-113051862D01*
X159447919Y-113094900D01*
X159378653Y-113198096D01*
X159286192Y-113247445D01*
X159182971Y-113240250D01*
X159081931Y-113174318D01*
X159017334Y-113074396D01*
X159008683Y-112971747D01*
X159052965Y-112881315D01*
X159147164Y-112818045D01*
X159154306Y-112815450D01*
X159273254Y-112803042D01*
X159376489Y-112851064D01*
G37*
X159376489Y-112851064D02*
X159434548Y-112917354D01*
X159468605Y-112986219D01*
X159463829Y-113051862D01*
X159447919Y-113094900D01*
X159378653Y-113198096D01*
X159286192Y-113247445D01*
X159182971Y-113240250D01*
X159081931Y-113174318D01*
X159017334Y-113074396D01*
X159008683Y-112971747D01*
X159052965Y-112881315D01*
X159147164Y-112818045D01*
X159154306Y-112815450D01*
X159273254Y-112803042D01*
X159376489Y-112851064D01*
G36*
X155478276Y-98904173D02*
G01*
X155759792Y-99003024D01*
X156019917Y-99148534D01*
X156251827Y-99337682D01*
X156448699Y-99567443D01*
X156603708Y-99834796D01*
X156703624Y-100111908D01*
X156743618Y-100355459D01*
X156746008Y-100624002D01*
X156713019Y-100895440D01*
X156646876Y-101147675D01*
X156584341Y-101296470D01*
X156497503Y-101440770D01*
X156381844Y-101596941D01*
X156256842Y-101740403D01*
X156159604Y-101832499D01*
X156051250Y-101922123D01*
X156051250Y-102596086D01*
X156049973Y-102846614D01*
X156045982Y-103038262D01*
X156039031Y-103175599D01*
X156028875Y-103263197D01*
X156015270Y-103305626D01*
X156013150Y-103308149D01*
X155960457Y-103330796D01*
X155870729Y-103344443D01*
X155822650Y-103346250D01*
X155670250Y-103346250D01*
X155670250Y-103632000D01*
X154463750Y-103632000D01*
X154463750Y-103346250D01*
X154334662Y-103346250D01*
X154254062Y-103345767D01*
X154192786Y-103339223D01*
X154148187Y-103318967D01*
X154117620Y-103277352D01*
X154098437Y-103206729D01*
X154087993Y-103099451D01*
X154083642Y-102947870D01*
X154083579Y-102933500D01*
X154336750Y-102933500D01*
X154336750Y-103093420D01*
X155074937Y-103084897D01*
X155813125Y-103076375D01*
X155823270Y-103004937D01*
X155833416Y-102933500D01*
X154336750Y-102933500D01*
X154083579Y-102933500D01*
X154082737Y-102744336D01*
X154082743Y-102680670D01*
X154336750Y-102680670D01*
X155074937Y-102672147D01*
X155813125Y-102663625D01*
X155813125Y-102409625D01*
X155074937Y-102401102D01*
X154336750Y-102392579D01*
X154336750Y-102680670D01*
X154082743Y-102680670D01*
X154082750Y-102618167D01*
X154082750Y-101955818D01*
X153867589Y-101738221D01*
X153648840Y-101477364D01*
X153491105Y-101199182D01*
X153394535Y-100904177D01*
X153359282Y-100592846D01*
X153362038Y-100558437D01*
X153608478Y-100558437D01*
X153644083Y-100839671D01*
X153653860Y-100879487D01*
X153742696Y-101133157D01*
X153873291Y-101360352D01*
X154053203Y-101572071D01*
X154250959Y-101748410D01*
X154304093Y-101801540D01*
X154329572Y-101864800D01*
X154336688Y-101963116D01*
X154336750Y-101978597D01*
X154336750Y-102139750D01*
X155829000Y-102139750D01*
X155829000Y-101963449D01*
X155830764Y-101875263D01*
X155842341Y-101812295D01*
X155873155Y-101757162D01*
X155932632Y-101692484D01*
X156020955Y-101609432D01*
X156227646Y-101382398D01*
X156374239Y-101137829D01*
X156462822Y-100871054D01*
X156495479Y-100577400D01*
X156495750Y-100546277D01*
X156465943Y-100241965D01*
X156378563Y-99961411D01*
X156236665Y-99709503D01*
X156043306Y-99491129D01*
X155801542Y-99311177D01*
X155682892Y-99246546D01*
X155413369Y-99145619D01*
X155142707Y-99102674D01*
X154876683Y-99113064D01*
X154621071Y-99172139D01*
X154381647Y-99275252D01*
X154164187Y-99417755D01*
X153974465Y-99595000D01*
X153818258Y-99802338D01*
X153701341Y-100035123D01*
X153629489Y-100288705D01*
X153608478Y-100558437D01*
X153362038Y-100558437D01*
X153385494Y-100265689D01*
X153400471Y-100187125D01*
X153493729Y-99890481D01*
X153640383Y-99614723D01*
X153832956Y-99369695D01*
X154063973Y-99165243D01*
X154274756Y-99035831D01*
X154573607Y-98917812D01*
X154878360Y-98858544D01*
X155182190Y-98855006D01*
X155478276Y-98904173D01*
G37*
X155478276Y-98904173D02*
X155759792Y-99003024D01*
X156019917Y-99148534D01*
X156251827Y-99337682D01*
X156448699Y-99567443D01*
X156603708Y-99834796D01*
X156703624Y-100111908D01*
X156743618Y-100355459D01*
X156746008Y-100624002D01*
X156713019Y-100895440D01*
X156646876Y-101147675D01*
X156584341Y-101296470D01*
X156497503Y-101440770D01*
X156381844Y-101596941D01*
X156256842Y-101740403D01*
X156159604Y-101832499D01*
X156051250Y-101922123D01*
X156051250Y-102596086D01*
X156049973Y-102846614D01*
X156045982Y-103038262D01*
X156039031Y-103175599D01*
X156028875Y-103263197D01*
X156015270Y-103305626D01*
X156013150Y-103308149D01*
X155960457Y-103330796D01*
X155870729Y-103344443D01*
X155822650Y-103346250D01*
X155670250Y-103346250D01*
X155670250Y-103632000D01*
X154463750Y-103632000D01*
X154463750Y-103346250D01*
X154334662Y-103346250D01*
X154254062Y-103345767D01*
X154192786Y-103339223D01*
X154148187Y-103318967D01*
X154117620Y-103277352D01*
X154098437Y-103206729D01*
X154087993Y-103099451D01*
X154083642Y-102947870D01*
X154083579Y-102933500D01*
X154336750Y-102933500D01*
X154336750Y-103093420D01*
X155074937Y-103084897D01*
X155813125Y-103076375D01*
X155823270Y-103004937D01*
X155833416Y-102933500D01*
X154336750Y-102933500D01*
X154083579Y-102933500D01*
X154082737Y-102744336D01*
X154082743Y-102680670D01*
X154336750Y-102680670D01*
X155074937Y-102672147D01*
X155813125Y-102663625D01*
X155813125Y-102409625D01*
X155074937Y-102401102D01*
X154336750Y-102392579D01*
X154336750Y-102680670D01*
X154082743Y-102680670D01*
X154082750Y-102618167D01*
X154082750Y-101955818D01*
X153867589Y-101738221D01*
X153648840Y-101477364D01*
X153491105Y-101199182D01*
X153394535Y-100904177D01*
X153359282Y-100592846D01*
X153362038Y-100558437D01*
X153608478Y-100558437D01*
X153644083Y-100839671D01*
X153653860Y-100879487D01*
X153742696Y-101133157D01*
X153873291Y-101360352D01*
X154053203Y-101572071D01*
X154250959Y-101748410D01*
X154304093Y-101801540D01*
X154329572Y-101864800D01*
X154336688Y-101963116D01*
X154336750Y-101978597D01*
X154336750Y-102139750D01*
X155829000Y-102139750D01*
X155829000Y-101963449D01*
X155830764Y-101875263D01*
X155842341Y-101812295D01*
X155873155Y-101757162D01*
X155932632Y-101692484D01*
X156020955Y-101609432D01*
X156227646Y-101382398D01*
X156374239Y-101137829D01*
X156462822Y-100871054D01*
X156495479Y-100577400D01*
X156495750Y-100546277D01*
X156465943Y-100241965D01*
X156378563Y-99961411D01*
X156236665Y-99709503D01*
X156043306Y-99491129D01*
X155801542Y-99311177D01*
X155682892Y-99246546D01*
X155413369Y-99145619D01*
X155142707Y-99102674D01*
X154876683Y-99113064D01*
X154621071Y-99172139D01*
X154381647Y-99275252D01*
X154164187Y-99417755D01*
X153974465Y-99595000D01*
X153818258Y-99802338D01*
X153701341Y-100035123D01*
X153629489Y-100288705D01*
X153608478Y-100558437D01*
X153362038Y-100558437D01*
X153385494Y-100265689D01*
X153400471Y-100187125D01*
X153493729Y-99890481D01*
X153640383Y-99614723D01*
X153832956Y-99369695D01*
X154063973Y-99165243D01*
X154274756Y-99035831D01*
X154573607Y-98917812D01*
X154878360Y-98858544D01*
X155182190Y-98855006D01*
X155478276Y-98904173D01*
G36*
X161022561Y-104894105D02*
G01*
X161317629Y-105210792D01*
X161600286Y-105514439D01*
X161867538Y-105801815D01*
X162116389Y-106069687D01*
X162343847Y-106314823D01*
X162546917Y-106533991D01*
X162722606Y-106723958D01*
X162867918Y-106881491D01*
X162979860Y-107003360D01*
X163055438Y-107086331D01*
X163091658Y-107127171D01*
X163094458Y-107130841D01*
X163064095Y-107133082D01*
X162972896Y-107135270D01*
X162823524Y-107137397D01*
X162618643Y-107139454D01*
X162360916Y-107141433D01*
X162053007Y-107143325D01*
X161697580Y-107145123D01*
X161297298Y-107146817D01*
X160854824Y-107148399D01*
X160372823Y-107149861D01*
X159853958Y-107151195D01*
X159300892Y-107152392D01*
X158716289Y-107153443D01*
X158102813Y-107154340D01*
X157463128Y-107155075D01*
X156799896Y-107155640D01*
X156115781Y-107156025D01*
X155413448Y-107156223D01*
X155047327Y-107156250D01*
X146989612Y-107156250D01*
X147101891Y-107037187D01*
X147146594Y-106989598D01*
X147229715Y-106900925D01*
X147346299Y-106776461D01*
X147491390Y-106621499D01*
X147660033Y-106441332D01*
X147847271Y-106241255D01*
X148048150Y-106026561D01*
X148209112Y-105854500D01*
X148578398Y-105459831D01*
X148932498Y-105081608D01*
X149269097Y-104722294D01*
X149585880Y-104384352D01*
X149880533Y-104070244D01*
X150150740Y-103782435D01*
X150394186Y-103523388D01*
X150608556Y-103295564D01*
X150791535Y-103101429D01*
X150940808Y-102943445D01*
X151054060Y-102824075D01*
X151128976Y-102745782D01*
X151163241Y-102711029D01*
X151164817Y-102709658D01*
X151191333Y-102726590D01*
X151247466Y-102783704D01*
X151323872Y-102871039D01*
X151378815Y-102937843D01*
X151733592Y-103331059D01*
X152127943Y-103680986D01*
X152556067Y-103985084D01*
X153012165Y-104240814D01*
X153490436Y-104445634D01*
X153985080Y-104597004D01*
X154490296Y-104692384D01*
X155000284Y-104729234D01*
X155431470Y-104712795D01*
X155983974Y-104632452D01*
X156514377Y-104494371D01*
X157019222Y-104300453D01*
X157495050Y-104052599D01*
X157938403Y-103752710D01*
X158345825Y-103402689D01*
X158713858Y-103004436D01*
X158847686Y-102834165D01*
X158961247Y-102682778D01*
X161022561Y-104894105D01*
G37*
X161022561Y-104894105D02*
X161317629Y-105210792D01*
X161600286Y-105514439D01*
X161867538Y-105801815D01*
X162116389Y-106069687D01*
X162343847Y-106314823D01*
X162546917Y-106533991D01*
X162722606Y-106723958D01*
X162867918Y-106881491D01*
X162979860Y-107003360D01*
X163055438Y-107086331D01*
X163091658Y-107127171D01*
X163094458Y-107130841D01*
X163064095Y-107133082D01*
X162972896Y-107135270D01*
X162823524Y-107137397D01*
X162618643Y-107139454D01*
X162360916Y-107141433D01*
X162053007Y-107143325D01*
X161697580Y-107145123D01*
X161297298Y-107146817D01*
X160854824Y-107148399D01*
X160372823Y-107149861D01*
X159853958Y-107151195D01*
X159300892Y-107152392D01*
X158716289Y-107153443D01*
X158102813Y-107154340D01*
X157463128Y-107155075D01*
X156799896Y-107155640D01*
X156115781Y-107156025D01*
X155413448Y-107156223D01*
X155047327Y-107156250D01*
X146989612Y-107156250D01*
X147101891Y-107037187D01*
X147146594Y-106989598D01*
X147229715Y-106900925D01*
X147346299Y-106776461D01*
X147491390Y-106621499D01*
X147660033Y-106441332D01*
X147847271Y-106241255D01*
X148048150Y-106026561D01*
X148209112Y-105854500D01*
X148578398Y-105459831D01*
X148932498Y-105081608D01*
X149269097Y-104722294D01*
X149585880Y-104384352D01*
X149880533Y-104070244D01*
X150150740Y-103782435D01*
X150394186Y-103523388D01*
X150608556Y-103295564D01*
X150791535Y-103101429D01*
X150940808Y-102943445D01*
X151054060Y-102824075D01*
X151128976Y-102745782D01*
X151163241Y-102711029D01*
X151164817Y-102709658D01*
X151191333Y-102726590D01*
X151247466Y-102783704D01*
X151323872Y-102871039D01*
X151378815Y-102937843D01*
X151733592Y-103331059D01*
X152127943Y-103680986D01*
X152556067Y-103985084D01*
X153012165Y-104240814D01*
X153490436Y-104445634D01*
X153985080Y-104597004D01*
X154490296Y-104692384D01*
X155000284Y-104729234D01*
X155431470Y-104712795D01*
X155983974Y-104632452D01*
X156514377Y-104494371D01*
X157019222Y-104300453D01*
X157495050Y-104052599D01*
X157938403Y-103752710D01*
X158345825Y-103402689D01*
X158713858Y-103004436D01*
X158847686Y-102834165D01*
X158961247Y-102682778D01*
X161022561Y-104894105D01*
G36*
X162242500Y-115284250D02*
G01*
X147859750Y-115284250D01*
X147859750Y-112109250D01*
X149066250Y-112109250D01*
X149066250Y-114300000D01*
X149542500Y-114300000D01*
X149542500Y-112109250D01*
X149669500Y-112109250D01*
X149669500Y-114300000D01*
X150145750Y-114300000D01*
X150145750Y-112109250D01*
X150272750Y-112109250D01*
X150272750Y-114300000D01*
X150749000Y-114300000D01*
X150749000Y-112109250D01*
X150876000Y-112109250D01*
X150876000Y-114300000D01*
X151352250Y-114300000D01*
X151352250Y-113001595D01*
X158226484Y-113001595D01*
X158252772Y-113289194D01*
X158334361Y-113570652D01*
X158466065Y-113826579D01*
X158649338Y-114057506D01*
X158876138Y-114254445D01*
X159132821Y-114407437D01*
X159393399Y-114503387D01*
X159505374Y-114529089D01*
X159569824Y-114531122D01*
X159599512Y-114505761D01*
X159607199Y-114449284D01*
X159607250Y-114441001D01*
X159611530Y-114398031D01*
X159634299Y-114374830D01*
X159690448Y-114365339D01*
X159794869Y-114363500D01*
X159988250Y-114363500D01*
X159988250Y-114459354D01*
X159991567Y-114509236D01*
X160009077Y-114536036D01*
X160052115Y-114540706D01*
X160132018Y-114524197D01*
X160260122Y-114487459D01*
X160274000Y-114483314D01*
X160543678Y-114370804D01*
X160783788Y-114207789D01*
X160989295Y-114002332D01*
X161155168Y-113762496D01*
X161276372Y-113496345D01*
X161347874Y-113211942D01*
X161364641Y-112917350D01*
X161349657Y-112760125D01*
X161274159Y-112464233D01*
X161143126Y-112190155D01*
X160962808Y-111946414D01*
X160739451Y-111741531D01*
X160491741Y-111589991D01*
X160364356Y-111532805D01*
X160242349Y-111485832D01*
X160149321Y-111458035D01*
X160139062Y-111456028D01*
X160061614Y-111445763D01*
X160028117Y-111459547D01*
X160020159Y-111509473D01*
X160020000Y-111534216D01*
X160020000Y-111633000D01*
X159575500Y-111633000D01*
X159575500Y-111534216D01*
X159571725Y-111470612D01*
X159548127Y-111446902D01*
X159486293Y-111450996D01*
X159456437Y-111456028D01*
X159369978Y-111480069D01*
X159250901Y-111524670D01*
X159122806Y-111580866D01*
X159103758Y-111589991D01*
X158845607Y-111748329D01*
X158629224Y-111947985D01*
X158456865Y-112181050D01*
X158330786Y-112439613D01*
X158253240Y-112715764D01*
X158226484Y-113001595D01*
X151352250Y-113001595D01*
X151352250Y-112490250D01*
X151479250Y-112490250D01*
X151959333Y-112490250D01*
X151949479Y-112371187D01*
X151939625Y-112252125D01*
X151709437Y-112242796D01*
X151479250Y-112233468D01*
X151479250Y-112490250D01*
X151352250Y-112490250D01*
X151352250Y-112109250D01*
X150876000Y-112109250D01*
X150749000Y-112109250D01*
X150272750Y-112109250D01*
X150145750Y-112109250D01*
X149669500Y-112109250D01*
X149542500Y-112109250D01*
X149066250Y-112109250D01*
X147859750Y-112109250D01*
X147859750Y-111125000D01*
X153256615Y-111125000D01*
X156845000Y-111125000D01*
X156845000Y-108171721D01*
X155059062Y-108179923D01*
X153273125Y-108188125D01*
X153264870Y-109656562D01*
X153256615Y-111125000D01*
X147859750Y-111125000D01*
X147859750Y-107505500D01*
X162242500Y-107505500D01*
X162242500Y-115284250D01*
G37*
X162242500Y-115284250D02*
X147859750Y-115284250D01*
X147859750Y-112109250D01*
X149066250Y-112109250D01*
X149066250Y-114300000D01*
X149542500Y-114300000D01*
X149542500Y-112109250D01*
X149669500Y-112109250D01*
X149669500Y-114300000D01*
X150145750Y-114300000D01*
X150145750Y-112109250D01*
X150272750Y-112109250D01*
X150272750Y-114300000D01*
X150749000Y-114300000D01*
X150749000Y-112109250D01*
X150876000Y-112109250D01*
X150876000Y-114300000D01*
X151352250Y-114300000D01*
X151352250Y-113001595D01*
X158226484Y-113001595D01*
X158252772Y-113289194D01*
X158334361Y-113570652D01*
X158466065Y-113826579D01*
X158649338Y-114057506D01*
X158876138Y-114254445D01*
X159132821Y-114407437D01*
X159393399Y-114503387D01*
X159505374Y-114529089D01*
X159569824Y-114531122D01*
X159599512Y-114505761D01*
X159607199Y-114449284D01*
X159607250Y-114441001D01*
X159611530Y-114398031D01*
X159634299Y-114374830D01*
X159690448Y-114365339D01*
X159794869Y-114363500D01*
X159988250Y-114363500D01*
X159988250Y-114459354D01*
X159991567Y-114509236D01*
X160009077Y-114536036D01*
X160052115Y-114540706D01*
X160132018Y-114524197D01*
X160260122Y-114487459D01*
X160274000Y-114483314D01*
X160543678Y-114370804D01*
X160783788Y-114207789D01*
X160989295Y-114002332D01*
X161155168Y-113762496D01*
X161276372Y-113496345D01*
X161347874Y-113211942D01*
X161364641Y-112917350D01*
X161349657Y-112760125D01*
X161274159Y-112464233D01*
X161143126Y-112190155D01*
X160962808Y-111946414D01*
X160739451Y-111741531D01*
X160491741Y-111589991D01*
X160364356Y-111532805D01*
X160242349Y-111485832D01*
X160149321Y-111458035D01*
X160139062Y-111456028D01*
X160061614Y-111445763D01*
X160028117Y-111459547D01*
X160020159Y-111509473D01*
X160020000Y-111534216D01*
X160020000Y-111633000D01*
X159575500Y-111633000D01*
X159575500Y-111534216D01*
X159571725Y-111470612D01*
X159548127Y-111446902D01*
X159486293Y-111450996D01*
X159456437Y-111456028D01*
X159369978Y-111480069D01*
X159250901Y-111524670D01*
X159122806Y-111580866D01*
X159103758Y-111589991D01*
X158845607Y-111748329D01*
X158629224Y-111947985D01*
X158456865Y-112181050D01*
X158330786Y-112439613D01*
X158253240Y-112715764D01*
X158226484Y-113001595D01*
X151352250Y-113001595D01*
X151352250Y-112490250D01*
X151479250Y-112490250D01*
X151959333Y-112490250D01*
X151949479Y-112371187D01*
X151939625Y-112252125D01*
X151709437Y-112242796D01*
X151479250Y-112233468D01*
X151479250Y-112490250D01*
X151352250Y-112490250D01*
X151352250Y-112109250D01*
X150876000Y-112109250D01*
X150749000Y-112109250D01*
X150272750Y-112109250D01*
X150145750Y-112109250D01*
X149669500Y-112109250D01*
X149542500Y-112109250D01*
X149066250Y-112109250D01*
X147859750Y-112109250D01*
X147859750Y-111125000D01*
X153256615Y-111125000D01*
X156845000Y-111125000D01*
X156845000Y-108171721D01*
X155059062Y-108179923D01*
X153273125Y-108188125D01*
X153264870Y-109656562D01*
X153256615Y-111125000D01*
X147859750Y-111125000D01*
X147859750Y-107505500D01*
X162242500Y-107505500D01*
X162242500Y-115284250D01*
D12*
X189250000Y-82825000D02*
X189250000Y-79735000D01*
X189190000Y-81280000D02*
G75*
G03X189190000Y-81280000I-2500000J0D01*
G01*
X183700000Y-81280462D02*
G75*
G02X189250000Y-79735170I2990000J462D01*
G01*
X183700000Y-81279538D02*
G75*
G03X189250000Y-82824830I2990000J-462D01*
G01*
X183700000Y-90169538D02*
G75*
G03X189250000Y-91714830I2990000J-462D01*
G01*
X183700000Y-90170462D02*
G75*
G02X189250000Y-88625170I2990000J462D01*
G01*
X189190000Y-90170000D02*
G75*
G03X189190000Y-90170000I-2500000J0D01*
G01*
X189250000Y-91715000D02*
X189250000Y-88625000D01*
X189250000Y-100605000D02*
X189250000Y-97515000D01*
X189190000Y-99060000D02*
G75*
G03X189190000Y-99060000I-2500000J0D01*
G01*
X183700000Y-99060462D02*
G75*
G02X189250000Y-97515170I2990000J462D01*
G01*
X183700000Y-99059538D02*
G75*
G03X189250000Y-100604830I2990000J-462D01*
G01*
D10*
X138717020Y-64058800D02*
X138717020Y-57861200D01*
X130520440Y-57861200D02*
X130520440Y-64058800D01*
X135917940Y-57861200D02*
X135917940Y-58359040D01*
X130718560Y-58359040D02*
X130718560Y-57861200D01*
X138518900Y-57861200D02*
X138518900Y-58359040D01*
X133319520Y-58359040D02*
X133319520Y-57861200D01*
X138719560Y-57861200D02*
X130520440Y-57861200D01*
X130520440Y-58359040D02*
X138719560Y-58359040D01*
X130520440Y-63660020D02*
X138719560Y-63660020D01*
X130520440Y-64058800D02*
X138719560Y-64058800D01*
X136448800Y-76489560D02*
X136448800Y-68290440D01*
X136050020Y-76489560D02*
X136050020Y-68290440D01*
X130749040Y-76489560D02*
X130749040Y-68290440D01*
X130251200Y-68290440D02*
X130251200Y-76489560D01*
X130749040Y-73690480D02*
X130251200Y-73690480D01*
X130251200Y-68491100D02*
X130749040Y-68491100D01*
X130749040Y-76291440D02*
X130251200Y-76291440D01*
X130251200Y-71092060D02*
X130749040Y-71092060D01*
X130251200Y-76489560D02*
X136448800Y-76489560D01*
X136448800Y-68292980D02*
X130251200Y-68292980D01*
X136448800Y-83532980D02*
X130251200Y-83532980D01*
X130251200Y-91729560D02*
X136448800Y-91729560D01*
X130251200Y-86332060D02*
X130749040Y-86332060D01*
X130749040Y-91531440D02*
X130251200Y-91531440D01*
X130251200Y-83731100D02*
X130749040Y-83731100D01*
X130749040Y-88930480D02*
X130251200Y-88930480D01*
X130251200Y-83530440D02*
X130251200Y-91729560D01*
X130749040Y-91729560D02*
X130749040Y-83530440D01*
X136050020Y-91729560D02*
X136050020Y-83530440D01*
X136448800Y-91729560D02*
X136448800Y-83530440D01*
X136448800Y-98800920D02*
X130251200Y-98800920D01*
X136448800Y-104399080D02*
X136448800Y-98800920D01*
X130251200Y-104399080D02*
X136448800Y-104399080D01*
X130251200Y-98800920D02*
X130251200Y-104399080D01*
X136050020Y-98800920D02*
X136050020Y-104399080D01*
X130251200Y-101600000D02*
X130749040Y-101600000D01*
X130749040Y-104200960D02*
X130251200Y-104200960D01*
X130251200Y-98999040D02*
X130749040Y-98999040D01*
X130749040Y-104399080D02*
X130749040Y-98800920D01*
D12*
X175200000Y-111700000D02*
X176530000Y-111700000D01*
X175200000Y-113030000D02*
X175200000Y-111700000D01*
X175200000Y-114300000D02*
X177860000Y-114300000D01*
X177860000Y-114300000D02*
X177860000Y-121980000D01*
X175200000Y-114300000D02*
X175200000Y-121980000D01*
X175200000Y-121980000D02*
X177860000Y-121980000D01*
D10*
X172804000Y-65457000D02*
X179804000Y-65457000D01*
X172804000Y-57857000D02*
X172804000Y-65457000D01*
X179804000Y-65457000D02*
X179804000Y-57857000D01*
X179804000Y-58257000D02*
X172804000Y-58257000D01*
X179804000Y-59357000D02*
X172804000Y-59357000D01*
X176304000Y-58257000D02*
X176304000Y-57857000D01*
D12*
X177860000Y-104200000D02*
X176530000Y-104200000D01*
X177860000Y-102870000D02*
X177860000Y-104200000D01*
X177860000Y-101600000D02*
X175200000Y-101600000D01*
X175200000Y-101600000D02*
X175200000Y-83760000D01*
X177860000Y-101600000D02*
X177860000Y-83760000D01*
X177860000Y-83760000D02*
X175200000Y-83760000D01*
X137750000Y-109290000D02*
X137270000Y-109290000D01*
X137750000Y-119310000D02*
X137750000Y-109290000D01*
X137270000Y-119310000D02*
X137750000Y-119310000D01*
X134030000Y-109290000D02*
X134510000Y-109290000D01*
X134030000Y-119310000D02*
X134030000Y-109290000D01*
X134510000Y-119310000D02*
X134030000Y-119310000D01*
X191372000Y-60522000D02*
X191852000Y-60522000D01*
X191852000Y-60522000D02*
X191852000Y-70542000D01*
X191852000Y-70542000D02*
X191372000Y-70542000D01*
X188612000Y-60522000D02*
X188132000Y-60522000D01*
X188132000Y-60522000D02*
X188132000Y-70542000D01*
X188132000Y-70542000D02*
X188612000Y-70542000D01*
D10*
X148940000Y-72250000D02*
X160940000Y-72250000D01*
X160940000Y-72250000D02*
X160940000Y-86250000D01*
X160940000Y-86250000D02*
X148940000Y-86250000D01*
X148940000Y-86250000D02*
X148940000Y-72250000D01*
X157480000Y-71120000D02*
X149860000Y-71120000D01*
X149860000Y-71120000D02*
X149860000Y-66040000D01*
X149860000Y-66040000D02*
X151130000Y-66040000D01*
X151130000Y-66040000D02*
X151130000Y-69850000D01*
X151130000Y-69850000D02*
X152400000Y-69850000D01*
X152400000Y-69850000D02*
X152400000Y-66040000D01*
X152400000Y-66040000D02*
X153670000Y-66040000D01*
X153670000Y-66040000D02*
X153670000Y-69850000D01*
X153670000Y-69850000D02*
X154940000Y-69850000D01*
X154940000Y-69850000D02*
X154940000Y-66040000D01*
X154940000Y-66040000D02*
X156210000Y-66040000D01*
X156210000Y-66040000D02*
X156210000Y-69850000D01*
X156210000Y-69850000D02*
X157480000Y-69850000D01*
X157480000Y-69850000D02*
X157480000Y-66040000D01*
X157480000Y-66040000D02*
X161290000Y-66040000D01*
X151130000Y-123190000D02*
X158750000Y-123190000D01*
X158750000Y-123190000D02*
X158750000Y-116840000D01*
X158750000Y-116840000D02*
X151130000Y-116840000D01*
X151130000Y-116840000D02*
X151130000Y-123190000D01*
X169436051Y-119380000D02*
G75*
G03X169436051Y-119380000I-1796051J0D01*
G01*
X144036051Y-119380000D02*
G75*
G03X144036051Y-119380000I-1796051J0D01*
G01*
X144036051Y-67310000D02*
G75*
G03X144036051Y-67310000I-1796051J0D01*
G01*
X169436051Y-67310000D02*
G75*
G03X169436051Y-67310000I-1796051J0D01*
G01*
X170190000Y-64750000D02*
X140190000Y-64750000D01*
X140190000Y-64750000D02*
X139690000Y-64750000D01*
X139690000Y-64750000D02*
X139690000Y-121750000D01*
X139690000Y-121750000D02*
X170190000Y-121750000D01*
X170190000Y-121750000D02*
X170190000Y-64750000D01*
D12*
X145990000Y-61020000D02*
X145990000Y-59690000D01*
X147320000Y-61020000D02*
X145990000Y-61020000D01*
X148590000Y-61020000D02*
X148590000Y-58360000D01*
X148590000Y-58360000D02*
X158810000Y-58360000D01*
X148590000Y-61020000D02*
X158810000Y-61020000D01*
X158810000Y-61020000D02*
X158810000Y-58360000D01*
X185022000Y-60522000D02*
X185502000Y-60522000D01*
X185502000Y-60522000D02*
X185502000Y-70542000D01*
X185502000Y-70542000D02*
X185022000Y-70542000D01*
X182262000Y-60522000D02*
X181782000Y-60522000D01*
X181782000Y-60522000D02*
X181782000Y-70542000D01*
X181782000Y-70542000D02*
X182262000Y-70542000D01*
X183052000Y-119310000D02*
X183532000Y-119310000D01*
X183052000Y-109290000D02*
X183052000Y-119310000D01*
X183532000Y-109290000D02*
X183052000Y-109290000D01*
X186772000Y-119310000D02*
X186292000Y-119310000D01*
X186772000Y-109290000D02*
X186772000Y-119310000D01*
X186292000Y-109290000D02*
X186772000Y-109290000D01*
D10*
X185951904Y-85692380D02*
X185951904Y-84692380D01*
X186190000Y-84692380D01*
X186332857Y-84740000D01*
X186428095Y-84835238D01*
X186475714Y-84930476D01*
X186523333Y-85120952D01*
X186523333Y-85263809D01*
X186475714Y-85454285D01*
X186428095Y-85549523D01*
X186332857Y-85644761D01*
X186190000Y-85692380D01*
X185951904Y-85692380D01*
X187475714Y-85692380D02*
X186904285Y-85692380D01*
X187190000Y-85692380D02*
X187190000Y-84692380D01*
X187094761Y-84835238D01*
X186999523Y-84930476D01*
X186904285Y-84978095D01*
X185951904Y-94582380D02*
X185951904Y-93582380D01*
X186190000Y-93582380D01*
X186332857Y-93630000D01*
X186428095Y-93725238D01*
X186475714Y-93820476D01*
X186523333Y-94010952D01*
X186523333Y-94153809D01*
X186475714Y-94344285D01*
X186428095Y-94439523D01*
X186332857Y-94534761D01*
X186190000Y-94582380D01*
X185951904Y-94582380D01*
X186904285Y-93677619D02*
X186951904Y-93630000D01*
X187047142Y-93582380D01*
X187285238Y-93582380D01*
X187380476Y-93630000D01*
X187428095Y-93677619D01*
X187475714Y-93772857D01*
X187475714Y-93868095D01*
X187428095Y-94010952D01*
X186856666Y-94582380D01*
X187475714Y-94582380D01*
X185951904Y-103472380D02*
X185951904Y-102472380D01*
X186190000Y-102472380D01*
X186332857Y-102520000D01*
X186428095Y-102615238D01*
X186475714Y-102710476D01*
X186523333Y-102900952D01*
X186523333Y-103043809D01*
X186475714Y-103234285D01*
X186428095Y-103329523D01*
X186332857Y-103424761D01*
X186190000Y-103472380D01*
X185951904Y-103472380D01*
X186856666Y-102472380D02*
X187475714Y-102472380D01*
X187142380Y-102853333D01*
X187285238Y-102853333D01*
X187380476Y-102900952D01*
X187428095Y-102948571D01*
X187475714Y-103043809D01*
X187475714Y-103281904D01*
X187428095Y-103377142D01*
X187380476Y-103424761D01*
X187285238Y-103472380D01*
X186999523Y-103472380D01*
X186904285Y-103424761D01*
X186856666Y-103377142D01*
X134286666Y-64913260D02*
X134286666Y-65627546D01*
X134239047Y-65770403D01*
X134143809Y-65865641D01*
X134000952Y-65913260D01*
X133905714Y-65913260D01*
X135286666Y-65913260D02*
X134715238Y-65913260D01*
X135000952Y-65913260D02*
X135000952Y-64913260D01*
X134905714Y-65056118D01*
X134810476Y-65151356D01*
X134715238Y-65198975D01*
X137303260Y-72723333D02*
X138017546Y-72723333D01*
X138160403Y-72770952D01*
X138255641Y-72866190D01*
X138303260Y-73009047D01*
X138303260Y-73104285D01*
X137398499Y-72294761D02*
X137350880Y-72247142D01*
X137303260Y-72151904D01*
X137303260Y-71913809D01*
X137350880Y-71818571D01*
X137398499Y-71770952D01*
X137493737Y-71723333D01*
X137588975Y-71723333D01*
X137731832Y-71770952D01*
X138303260Y-72342380D01*
X138303260Y-71723333D01*
X137303260Y-87963333D02*
X138017546Y-87963333D01*
X138160403Y-88010952D01*
X138255641Y-88106190D01*
X138303260Y-88249047D01*
X138303260Y-88344285D01*
X137303260Y-87582380D02*
X137303260Y-86963333D01*
X137684213Y-87296666D01*
X137684213Y-87153809D01*
X137731832Y-87058571D01*
X137779451Y-87010952D01*
X137874689Y-86963333D01*
X138112784Y-86963333D01*
X138208022Y-87010952D01*
X138255641Y-87058571D01*
X138303260Y-87153809D01*
X138303260Y-87439523D01*
X138255641Y-87534761D01*
X138208022Y-87582380D01*
X137303260Y-101933333D02*
X138017546Y-101933333D01*
X138160403Y-101980952D01*
X138255641Y-102076190D01*
X138303260Y-102219047D01*
X138303260Y-102314285D01*
X137636594Y-101028571D02*
X138303260Y-101028571D01*
X137255641Y-101266666D02*
X137969927Y-101504761D01*
X137969927Y-100885714D01*
X176196666Y-122642380D02*
X176196666Y-123356666D01*
X176149047Y-123499523D01*
X176053809Y-123594761D01*
X175910952Y-123642380D01*
X175815714Y-123642380D01*
X177149047Y-122642380D02*
X176672857Y-122642380D01*
X176625238Y-123118571D01*
X176672857Y-123070952D01*
X176768095Y-123023333D01*
X177006190Y-123023333D01*
X177101428Y-123070952D01*
X177149047Y-123118571D01*
X177196666Y-123213809D01*
X177196666Y-123451904D01*
X177149047Y-123547142D01*
X177101428Y-123594761D01*
X177006190Y-123642380D01*
X176768095Y-123642380D01*
X176672857Y-123594761D01*
X176625238Y-123547142D01*
X175970666Y-66109380D02*
X175970666Y-66823666D01*
X175923047Y-66966523D01*
X175827809Y-67061761D01*
X175684952Y-67109380D01*
X175589714Y-67109380D01*
X176351619Y-66109380D02*
X177018285Y-66109380D01*
X176589714Y-67109380D01*
X176196666Y-104652380D02*
X176196666Y-105366666D01*
X176149047Y-105509523D01*
X176053809Y-105604761D01*
X175910952Y-105652380D01*
X175815714Y-105652380D01*
X176815714Y-105080952D02*
X176720476Y-105033333D01*
X176672857Y-104985714D01*
X176625238Y-104890476D01*
X176625238Y-104842857D01*
X176672857Y-104747619D01*
X176720476Y-104700000D01*
X176815714Y-104652380D01*
X177006190Y-104652380D01*
X177101428Y-104700000D01*
X177149047Y-104747619D01*
X177196666Y-104842857D01*
X177196666Y-104890476D01*
X177149047Y-104985714D01*
X177101428Y-105033333D01*
X177006190Y-105080952D01*
X176815714Y-105080952D01*
X176720476Y-105128571D01*
X176672857Y-105176190D01*
X176625238Y-105271428D01*
X176625238Y-105461904D01*
X176672857Y-105557142D01*
X176720476Y-105604761D01*
X176815714Y-105652380D01*
X177006190Y-105652380D01*
X177101428Y-105604761D01*
X177149047Y-105557142D01*
X177196666Y-105461904D01*
X177196666Y-105271428D01*
X177149047Y-105176190D01*
X177101428Y-105128571D01*
X177006190Y-105080952D01*
X133482380Y-114466666D02*
X133006190Y-114800000D01*
X133482380Y-115038095D02*
X132482380Y-115038095D01*
X132482380Y-114657142D01*
X132530000Y-114561904D01*
X132577619Y-114514285D01*
X132672857Y-114466666D01*
X132815714Y-114466666D01*
X132910952Y-114514285D01*
X132958571Y-114561904D01*
X133006190Y-114657142D01*
X133006190Y-115038095D01*
X133482380Y-113514285D02*
X133482380Y-114085714D01*
X133482380Y-113800000D02*
X132482380Y-113800000D01*
X132625238Y-113895238D01*
X132720476Y-113990476D01*
X132768095Y-114085714D01*
X193304380Y-65698666D02*
X192828190Y-66032000D01*
X193304380Y-66270095D02*
X192304380Y-66270095D01*
X192304380Y-65889142D01*
X192352000Y-65793904D01*
X192399619Y-65746285D01*
X192494857Y-65698666D01*
X192637714Y-65698666D01*
X192732952Y-65746285D01*
X192780571Y-65793904D01*
X192828190Y-65889142D01*
X192828190Y-66270095D01*
X192399619Y-65317714D02*
X192352000Y-65270095D01*
X192304380Y-65174857D01*
X192304380Y-64936761D01*
X192352000Y-64841523D01*
X192399619Y-64793904D01*
X192494857Y-64746285D01*
X192590095Y-64746285D01*
X192732952Y-64793904D01*
X193304380Y-65365333D01*
X193304380Y-64746285D01*
X154178095Y-94702380D02*
X154178095Y-95511904D01*
X154225714Y-95607142D01*
X154273333Y-95654761D01*
X154368571Y-95702380D01*
X154559047Y-95702380D01*
X154654285Y-95654761D01*
X154701904Y-95607142D01*
X154749523Y-95511904D01*
X154749523Y-94702380D01*
X155749523Y-95702380D02*
X155178095Y-95702380D01*
X155463809Y-95702380D02*
X155463809Y-94702380D01*
X155368571Y-94845238D01*
X155273333Y-94940476D01*
X155178095Y-94988095D01*
X142414761Y-109307380D02*
X142748095Y-110307380D01*
X143081428Y-109307380D01*
X143414761Y-110307380D02*
X143414761Y-109307380D01*
X143890952Y-110307380D02*
X143890952Y-109307380D01*
X144462380Y-110307380D01*
X144462380Y-109307380D01*
X143771904Y-106815000D02*
X143676666Y-106767380D01*
X143533809Y-106767380D01*
X143390952Y-106815000D01*
X143295714Y-106910238D01*
X143248095Y-107005476D01*
X143200476Y-107195952D01*
X143200476Y-107338809D01*
X143248095Y-107529285D01*
X143295714Y-107624523D01*
X143390952Y-107719761D01*
X143533809Y-107767380D01*
X143629047Y-107767380D01*
X143771904Y-107719761D01*
X143819523Y-107672142D01*
X143819523Y-107338809D01*
X143629047Y-107338809D01*
X142962380Y-105227380D02*
X142629047Y-104751190D01*
X142390952Y-105227380D02*
X142390952Y-104227380D01*
X142771904Y-104227380D01*
X142867142Y-104275000D01*
X142914761Y-104322619D01*
X142962380Y-104417857D01*
X142962380Y-104560714D01*
X142914761Y-104655952D01*
X142867142Y-104703571D01*
X142771904Y-104751190D01*
X142390952Y-104751190D01*
X143343333Y-105179761D02*
X143486190Y-105227380D01*
X143724285Y-105227380D01*
X143819523Y-105179761D01*
X143867142Y-105132142D01*
X143914761Y-105036904D01*
X143914761Y-104941666D01*
X143867142Y-104846428D01*
X143819523Y-104798809D01*
X143724285Y-104751190D01*
X143533809Y-104703571D01*
X143438571Y-104655952D01*
X143390952Y-104608333D01*
X143343333Y-104513095D01*
X143343333Y-104417857D01*
X143390952Y-104322619D01*
X143438571Y-104275000D01*
X143533809Y-104227380D01*
X143771904Y-104227380D01*
X143914761Y-104275000D01*
X144200476Y-104227380D02*
X144771904Y-104227380D01*
X144486190Y-105227380D02*
X144486190Y-104227380D01*
X142771904Y-102163571D02*
X143105238Y-102163571D01*
X143248095Y-102687380D02*
X142771904Y-102687380D01*
X142771904Y-101687380D01*
X143248095Y-101687380D01*
X143676666Y-102687380D02*
X143676666Y-101687380D01*
X144248095Y-102687380D01*
X144248095Y-101687380D01*
X142748095Y-99147380D02*
X143367142Y-99147380D01*
X143033809Y-99528333D01*
X143176666Y-99528333D01*
X143271904Y-99575952D01*
X143319523Y-99623571D01*
X143367142Y-99718809D01*
X143367142Y-99956904D01*
X143319523Y-100052142D01*
X143271904Y-100099761D01*
X143176666Y-100147380D01*
X142890952Y-100147380D01*
X142795714Y-100099761D01*
X142748095Y-100052142D01*
X143652857Y-99147380D02*
X143986190Y-100147380D01*
X144319523Y-99147380D01*
X143771904Y-96655000D02*
X143676666Y-96607380D01*
X143533809Y-96607380D01*
X143390952Y-96655000D01*
X143295714Y-96750238D01*
X143248095Y-96845476D01*
X143200476Y-97035952D01*
X143200476Y-97178809D01*
X143248095Y-97369285D01*
X143295714Y-97464523D01*
X143390952Y-97559761D01*
X143533809Y-97607380D01*
X143629047Y-97607380D01*
X143771904Y-97559761D01*
X143819523Y-97512142D01*
X143819523Y-97178809D01*
X143629047Y-97178809D01*
X142724285Y-95019761D02*
X142867142Y-95067380D01*
X143105238Y-95067380D01*
X143200476Y-95019761D01*
X143248095Y-94972142D01*
X143295714Y-94876904D01*
X143295714Y-94781666D01*
X143248095Y-94686428D01*
X143200476Y-94638809D01*
X143105238Y-94591190D01*
X142914761Y-94543571D01*
X142819523Y-94495952D01*
X142771904Y-94448333D01*
X142724285Y-94353095D01*
X142724285Y-94257857D01*
X142771904Y-94162619D01*
X142819523Y-94115000D01*
X142914761Y-94067380D01*
X143152857Y-94067380D01*
X143295714Y-94115000D01*
X143724285Y-95067380D02*
X143724285Y-94067380D01*
X144295714Y-95067380D02*
X143867142Y-94495952D01*
X144295714Y-94067380D02*
X143724285Y-94638809D01*
X142700476Y-92479761D02*
X142843333Y-92527380D01*
X143081428Y-92527380D01*
X143176666Y-92479761D01*
X143224285Y-92432142D01*
X143271904Y-92336904D01*
X143271904Y-92241666D01*
X143224285Y-92146428D01*
X143176666Y-92098809D01*
X143081428Y-92051190D01*
X142890952Y-92003571D01*
X142795714Y-91955952D01*
X142748095Y-91908333D01*
X142700476Y-91813095D01*
X142700476Y-91717857D01*
X142748095Y-91622619D01*
X142795714Y-91575000D01*
X142890952Y-91527380D01*
X143129047Y-91527380D01*
X143271904Y-91575000D01*
X143890952Y-91527380D02*
X144081428Y-91527380D01*
X144176666Y-91575000D01*
X144271904Y-91670238D01*
X144319523Y-91860714D01*
X144319523Y-92194047D01*
X144271904Y-92384523D01*
X144176666Y-92479761D01*
X144081428Y-92527380D01*
X143890952Y-92527380D01*
X143795714Y-92479761D01*
X143700476Y-92384523D01*
X143652857Y-92194047D01*
X143652857Y-91860714D01*
X143700476Y-91670238D01*
X143795714Y-91575000D01*
X143890952Y-91527380D01*
X142724285Y-89939761D02*
X142867142Y-89987380D01*
X143105238Y-89987380D01*
X143200476Y-89939761D01*
X143248095Y-89892142D01*
X143295714Y-89796904D01*
X143295714Y-89701666D01*
X143248095Y-89606428D01*
X143200476Y-89558809D01*
X143105238Y-89511190D01*
X142914761Y-89463571D01*
X142819523Y-89415952D01*
X142771904Y-89368333D01*
X142724285Y-89273095D01*
X142724285Y-89177857D01*
X142771904Y-89082619D01*
X142819523Y-89035000D01*
X142914761Y-88987380D01*
X143152857Y-88987380D01*
X143295714Y-89035000D01*
X144295714Y-89892142D02*
X144248095Y-89939761D01*
X144105238Y-89987380D01*
X144010000Y-89987380D01*
X143867142Y-89939761D01*
X143771904Y-89844523D01*
X143724285Y-89749285D01*
X143676666Y-89558809D01*
X143676666Y-89415952D01*
X143724285Y-89225476D01*
X143771904Y-89130238D01*
X143867142Y-89035000D01*
X144010000Y-88987380D01*
X144105238Y-88987380D01*
X144248095Y-89035000D01*
X144295714Y-89082619D01*
X142748095Y-87399761D02*
X142890952Y-87447380D01*
X143129047Y-87447380D01*
X143224285Y-87399761D01*
X143271904Y-87352142D01*
X143319523Y-87256904D01*
X143319523Y-87161666D01*
X143271904Y-87066428D01*
X143224285Y-87018809D01*
X143129047Y-86971190D01*
X142938571Y-86923571D01*
X142843333Y-86875952D01*
X142795714Y-86828333D01*
X142748095Y-86733095D01*
X142748095Y-86637857D01*
X142795714Y-86542619D01*
X142843333Y-86495000D01*
X142938571Y-86447380D01*
X143176666Y-86447380D01*
X143319523Y-86495000D01*
X144271904Y-87447380D02*
X143700476Y-87447380D01*
X143986190Y-87447380D02*
X143986190Y-86447380D01*
X143890952Y-86590238D01*
X143795714Y-86685476D01*
X143700476Y-86733095D01*
X142748095Y-84859761D02*
X142890952Y-84907380D01*
X143129047Y-84907380D01*
X143224285Y-84859761D01*
X143271904Y-84812142D01*
X143319523Y-84716904D01*
X143319523Y-84621666D01*
X143271904Y-84526428D01*
X143224285Y-84478809D01*
X143129047Y-84431190D01*
X142938571Y-84383571D01*
X142843333Y-84335952D01*
X142795714Y-84288333D01*
X142748095Y-84193095D01*
X142748095Y-84097857D01*
X142795714Y-84002619D01*
X142843333Y-83955000D01*
X142938571Y-83907380D01*
X143176666Y-83907380D01*
X143319523Y-83955000D01*
X143700476Y-84002619D02*
X143748095Y-83955000D01*
X143843333Y-83907380D01*
X144081428Y-83907380D01*
X144176666Y-83955000D01*
X144224285Y-84002619D01*
X144271904Y-84097857D01*
X144271904Y-84193095D01*
X144224285Y-84335952D01*
X143652857Y-84907380D01*
X144271904Y-84907380D01*
X142748095Y-82319761D02*
X142890952Y-82367380D01*
X143129047Y-82367380D01*
X143224285Y-82319761D01*
X143271904Y-82272142D01*
X143319523Y-82176904D01*
X143319523Y-82081666D01*
X143271904Y-81986428D01*
X143224285Y-81938809D01*
X143129047Y-81891190D01*
X142938571Y-81843571D01*
X142843333Y-81795952D01*
X142795714Y-81748333D01*
X142748095Y-81653095D01*
X142748095Y-81557857D01*
X142795714Y-81462619D01*
X142843333Y-81415000D01*
X142938571Y-81367380D01*
X143176666Y-81367380D01*
X143319523Y-81415000D01*
X143652857Y-81367380D02*
X144271904Y-81367380D01*
X143938571Y-81748333D01*
X144081428Y-81748333D01*
X144176666Y-81795952D01*
X144224285Y-81843571D01*
X144271904Y-81938809D01*
X144271904Y-82176904D01*
X144224285Y-82272142D01*
X144176666Y-82319761D01*
X144081428Y-82367380D01*
X143795714Y-82367380D01*
X143700476Y-82319761D01*
X143652857Y-82272142D01*
X142652857Y-78827380D02*
X142986190Y-79827380D01*
X143319523Y-78827380D01*
X143652857Y-78827380D02*
X143652857Y-79636904D01*
X143700476Y-79732142D01*
X143748095Y-79779761D01*
X143843333Y-79827380D01*
X144033809Y-79827380D01*
X144129047Y-79779761D01*
X144176666Y-79732142D01*
X144224285Y-79636904D01*
X144224285Y-78827380D01*
X143771904Y-76335000D02*
X143676666Y-76287380D01*
X143533809Y-76287380D01*
X143390952Y-76335000D01*
X143295714Y-76430238D01*
X143248095Y-76525476D01*
X143200476Y-76715952D01*
X143200476Y-76858809D01*
X143248095Y-77049285D01*
X143295714Y-77144523D01*
X143390952Y-77239761D01*
X143533809Y-77287380D01*
X143629047Y-77287380D01*
X143771904Y-77239761D01*
X143819523Y-77192142D01*
X143819523Y-76858809D01*
X143629047Y-76858809D01*
X142795714Y-74461666D02*
X143271904Y-74461666D01*
X142700476Y-74747380D02*
X143033809Y-73747380D01*
X143367142Y-74747380D01*
X143890952Y-73747380D02*
X143986190Y-73747380D01*
X144081428Y-73795000D01*
X144129047Y-73842619D01*
X144176666Y-73937857D01*
X144224285Y-74128333D01*
X144224285Y-74366428D01*
X144176666Y-74556904D01*
X144129047Y-74652142D01*
X144081428Y-74699761D01*
X143986190Y-74747380D01*
X143890952Y-74747380D01*
X143795714Y-74699761D01*
X143748095Y-74652142D01*
X143700476Y-74556904D01*
X143652857Y-74366428D01*
X143652857Y-74128333D01*
X143700476Y-73937857D01*
X143748095Y-73842619D01*
X143795714Y-73795000D01*
X143890952Y-73747380D01*
X165608095Y-109307380D02*
X166227142Y-109307380D01*
X165893809Y-109688333D01*
X166036666Y-109688333D01*
X166131904Y-109735952D01*
X166179523Y-109783571D01*
X166227142Y-109878809D01*
X166227142Y-110116904D01*
X166179523Y-110212142D01*
X166131904Y-110259761D01*
X166036666Y-110307380D01*
X165750952Y-110307380D01*
X165655714Y-110259761D01*
X165608095Y-110212142D01*
X166512857Y-109307380D02*
X166846190Y-110307380D01*
X167179523Y-109307380D01*
X166631904Y-106815000D02*
X166536666Y-106767380D01*
X166393809Y-106767380D01*
X166250952Y-106815000D01*
X166155714Y-106910238D01*
X166108095Y-107005476D01*
X166060476Y-107195952D01*
X166060476Y-107338809D01*
X166108095Y-107529285D01*
X166155714Y-107624523D01*
X166250952Y-107719761D01*
X166393809Y-107767380D01*
X166489047Y-107767380D01*
X166631904Y-107719761D01*
X166679523Y-107672142D01*
X166679523Y-107338809D01*
X166489047Y-107338809D01*
X165608095Y-104227380D02*
X166179523Y-104227380D01*
X165893809Y-105227380D02*
X165893809Y-104227380D01*
X166417619Y-104227380D02*
X167084285Y-105227380D01*
X167084285Y-104227380D02*
X166417619Y-105227380D01*
X166203333Y-102687380D02*
X165870000Y-102211190D01*
X165631904Y-102687380D02*
X165631904Y-101687380D01*
X166012857Y-101687380D01*
X166108095Y-101735000D01*
X166155714Y-101782619D01*
X166203333Y-101877857D01*
X166203333Y-102020714D01*
X166155714Y-102115952D01*
X166108095Y-102163571D01*
X166012857Y-102211190D01*
X165631904Y-102211190D01*
X166536666Y-101687380D02*
X167203333Y-102687380D01*
X167203333Y-101687380D02*
X166536666Y-102687380D01*
X165631904Y-100147380D02*
X165631904Y-99147380D01*
X165870000Y-99147380D01*
X166012857Y-99195000D01*
X166108095Y-99290238D01*
X166155714Y-99385476D01*
X166203333Y-99575952D01*
X166203333Y-99718809D01*
X166155714Y-99909285D01*
X166108095Y-100004523D01*
X166012857Y-100099761D01*
X165870000Y-100147380D01*
X165631904Y-100147380D01*
X166774761Y-99575952D02*
X166679523Y-99528333D01*
X166631904Y-99480714D01*
X166584285Y-99385476D01*
X166584285Y-99337857D01*
X166631904Y-99242619D01*
X166679523Y-99195000D01*
X166774761Y-99147380D01*
X166965238Y-99147380D01*
X167060476Y-99195000D01*
X167108095Y-99242619D01*
X167155714Y-99337857D01*
X167155714Y-99385476D01*
X167108095Y-99480714D01*
X167060476Y-99528333D01*
X166965238Y-99575952D01*
X166774761Y-99575952D01*
X166679523Y-99623571D01*
X166631904Y-99671190D01*
X166584285Y-99766428D01*
X166584285Y-99956904D01*
X166631904Y-100052142D01*
X166679523Y-100099761D01*
X166774761Y-100147380D01*
X166965238Y-100147380D01*
X167060476Y-100099761D01*
X167108095Y-100052142D01*
X167155714Y-99956904D01*
X167155714Y-99766428D01*
X167108095Y-99671190D01*
X167060476Y-99623571D01*
X166965238Y-99575952D01*
X165631904Y-97607380D02*
X165631904Y-96607380D01*
X165870000Y-96607380D01*
X166012857Y-96655000D01*
X166108095Y-96750238D01*
X166155714Y-96845476D01*
X166203333Y-97035952D01*
X166203333Y-97178809D01*
X166155714Y-97369285D01*
X166108095Y-97464523D01*
X166012857Y-97559761D01*
X165870000Y-97607380D01*
X165631904Y-97607380D01*
X166536666Y-96607380D02*
X167203333Y-96607380D01*
X166774761Y-97607380D01*
X165631904Y-95067380D02*
X165631904Y-94067380D01*
X165870000Y-94067380D01*
X166012857Y-94115000D01*
X166108095Y-94210238D01*
X166155714Y-94305476D01*
X166203333Y-94495952D01*
X166203333Y-94638809D01*
X166155714Y-94829285D01*
X166108095Y-94924523D01*
X166012857Y-95019761D01*
X165870000Y-95067380D01*
X165631904Y-95067380D01*
X167060476Y-94067380D02*
X166870000Y-94067380D01*
X166774761Y-94115000D01*
X166727142Y-94162619D01*
X166631904Y-94305476D01*
X166584285Y-94495952D01*
X166584285Y-94876904D01*
X166631904Y-94972142D01*
X166679523Y-95019761D01*
X166774761Y-95067380D01*
X166965238Y-95067380D01*
X167060476Y-95019761D01*
X167108095Y-94972142D01*
X167155714Y-94876904D01*
X167155714Y-94638809D01*
X167108095Y-94543571D01*
X167060476Y-94495952D01*
X166965238Y-94448333D01*
X166774761Y-94448333D01*
X166679523Y-94495952D01*
X166631904Y-94543571D01*
X166584285Y-94638809D01*
X165631904Y-92527380D02*
X165631904Y-91527380D01*
X165870000Y-91527380D01*
X166012857Y-91575000D01*
X166108095Y-91670238D01*
X166155714Y-91765476D01*
X166203333Y-91955952D01*
X166203333Y-92098809D01*
X166155714Y-92289285D01*
X166108095Y-92384523D01*
X166012857Y-92479761D01*
X165870000Y-92527380D01*
X165631904Y-92527380D01*
X167108095Y-91527380D02*
X166631904Y-91527380D01*
X166584285Y-92003571D01*
X166631904Y-91955952D01*
X166727142Y-91908333D01*
X166965238Y-91908333D01*
X167060476Y-91955952D01*
X167108095Y-92003571D01*
X167155714Y-92098809D01*
X167155714Y-92336904D01*
X167108095Y-92432142D01*
X167060476Y-92479761D01*
X166965238Y-92527380D01*
X166727142Y-92527380D01*
X166631904Y-92479761D01*
X166584285Y-92432142D01*
X166631904Y-89035000D02*
X166536666Y-88987380D01*
X166393809Y-88987380D01*
X166250952Y-89035000D01*
X166155714Y-89130238D01*
X166108095Y-89225476D01*
X166060476Y-89415952D01*
X166060476Y-89558809D01*
X166108095Y-89749285D01*
X166155714Y-89844523D01*
X166250952Y-89939761D01*
X166393809Y-89987380D01*
X166489047Y-89987380D01*
X166631904Y-89939761D01*
X166679523Y-89892142D01*
X166679523Y-89558809D01*
X166489047Y-89558809D01*
X165608095Y-86447380D02*
X166227142Y-86447380D01*
X165893809Y-86828333D01*
X166036666Y-86828333D01*
X166131904Y-86875952D01*
X166179523Y-86923571D01*
X166227142Y-87018809D01*
X166227142Y-87256904D01*
X166179523Y-87352142D01*
X166131904Y-87399761D01*
X166036666Y-87447380D01*
X165750952Y-87447380D01*
X165655714Y-87399761D01*
X165608095Y-87352142D01*
X166512857Y-86447380D02*
X166846190Y-87447380D01*
X167179523Y-86447380D01*
X165631904Y-84907380D02*
X165631904Y-83907380D01*
X165870000Y-83907380D01*
X166012857Y-83955000D01*
X166108095Y-84050238D01*
X166155714Y-84145476D01*
X166203333Y-84335952D01*
X166203333Y-84478809D01*
X166155714Y-84669285D01*
X166108095Y-84764523D01*
X166012857Y-84859761D01*
X165870000Y-84907380D01*
X165631904Y-84907380D01*
X167060476Y-84240714D02*
X167060476Y-84907380D01*
X166822380Y-83859761D02*
X166584285Y-84574047D01*
X167203333Y-84574047D01*
X165631904Y-82367380D02*
X165631904Y-81367380D01*
X165870000Y-81367380D01*
X166012857Y-81415000D01*
X166108095Y-81510238D01*
X166155714Y-81605476D01*
X166203333Y-81795952D01*
X166203333Y-81938809D01*
X166155714Y-82129285D01*
X166108095Y-82224523D01*
X166012857Y-82319761D01*
X165870000Y-82367380D01*
X165631904Y-82367380D01*
X166536666Y-81367380D02*
X167155714Y-81367380D01*
X166822380Y-81748333D01*
X166965238Y-81748333D01*
X167060476Y-81795952D01*
X167108095Y-81843571D01*
X167155714Y-81938809D01*
X167155714Y-82176904D01*
X167108095Y-82272142D01*
X167060476Y-82319761D01*
X166965238Y-82367380D01*
X166679523Y-82367380D01*
X166584285Y-82319761D01*
X166536666Y-82272142D01*
X165631904Y-79827380D02*
X165631904Y-78827380D01*
X165870000Y-78827380D01*
X166012857Y-78875000D01*
X166108095Y-78970238D01*
X166155714Y-79065476D01*
X166203333Y-79255952D01*
X166203333Y-79398809D01*
X166155714Y-79589285D01*
X166108095Y-79684523D01*
X166012857Y-79779761D01*
X165870000Y-79827380D01*
X165631904Y-79827380D01*
X166584285Y-78922619D02*
X166631904Y-78875000D01*
X166727142Y-78827380D01*
X166965238Y-78827380D01*
X167060476Y-78875000D01*
X167108095Y-78922619D01*
X167155714Y-79017857D01*
X167155714Y-79113095D01*
X167108095Y-79255952D01*
X166536666Y-79827380D01*
X167155714Y-79827380D01*
X165631904Y-77287380D02*
X165631904Y-76287380D01*
X165870000Y-76287380D01*
X166012857Y-76335000D01*
X166108095Y-76430238D01*
X166155714Y-76525476D01*
X166203333Y-76715952D01*
X166203333Y-76858809D01*
X166155714Y-77049285D01*
X166108095Y-77144523D01*
X166012857Y-77239761D01*
X165870000Y-77287380D01*
X165631904Y-77287380D01*
X167155714Y-77287380D02*
X166584285Y-77287380D01*
X166870000Y-77287380D02*
X166870000Y-76287380D01*
X166774761Y-76430238D01*
X166679523Y-76525476D01*
X166584285Y-76573095D01*
X165631904Y-74747380D02*
X165631904Y-73747380D01*
X165870000Y-73747380D01*
X166012857Y-73795000D01*
X166108095Y-73890238D01*
X166155714Y-73985476D01*
X166203333Y-74175952D01*
X166203333Y-74318809D01*
X166155714Y-74509285D01*
X166108095Y-74604523D01*
X166012857Y-74699761D01*
X165870000Y-74747380D01*
X165631904Y-74747380D01*
X166822380Y-73747380D02*
X166917619Y-73747380D01*
X167012857Y-73795000D01*
X167060476Y-73842619D01*
X167108095Y-73937857D01*
X167155714Y-74128333D01*
X167155714Y-74366428D01*
X167108095Y-74556904D01*
X167060476Y-74652142D01*
X167012857Y-74699761D01*
X166917619Y-74747380D01*
X166822380Y-74747380D01*
X166727142Y-74699761D01*
X166679523Y-74652142D01*
X166631904Y-74556904D01*
X166584285Y-74366428D01*
X166584285Y-74128333D01*
X166631904Y-73937857D01*
X166679523Y-73842619D01*
X166727142Y-73795000D01*
X166822380Y-73747380D01*
X144442380Y-60023333D02*
X145156666Y-60023333D01*
X145299523Y-60070952D01*
X145394761Y-60166190D01*
X145442380Y-60309047D01*
X145442380Y-60404285D01*
X145442380Y-59499523D02*
X145442380Y-59309047D01*
X145394761Y-59213809D01*
X145347142Y-59166190D01*
X145204285Y-59070952D01*
X145013809Y-59023333D01*
X144632857Y-59023333D01*
X144537619Y-59070952D01*
X144490000Y-59118571D01*
X144442380Y-59213809D01*
X144442380Y-59404285D01*
X144490000Y-59499523D01*
X144537619Y-59547142D01*
X144632857Y-59594761D01*
X144870952Y-59594761D01*
X144966190Y-59547142D01*
X145013809Y-59499523D01*
X145061428Y-59404285D01*
X145061428Y-59213809D01*
X145013809Y-59118571D01*
X144966190Y-59070952D01*
X144870952Y-59023333D01*
X186954380Y-65698666D02*
X186478190Y-66032000D01*
X186954380Y-66270095D02*
X185954380Y-66270095D01*
X185954380Y-65889142D01*
X186002000Y-65793904D01*
X186049619Y-65746285D01*
X186144857Y-65698666D01*
X186287714Y-65698666D01*
X186382952Y-65746285D01*
X186430571Y-65793904D01*
X186478190Y-65889142D01*
X186478190Y-66270095D01*
X185954380Y-65365333D02*
X185954380Y-64746285D01*
X186335333Y-65079619D01*
X186335333Y-64936761D01*
X186382952Y-64841523D01*
X186430571Y-64793904D01*
X186525809Y-64746285D01*
X186763904Y-64746285D01*
X186859142Y-64793904D01*
X186906761Y-64841523D01*
X186954380Y-64936761D01*
X186954380Y-65222476D01*
X186906761Y-65317714D01*
X186859142Y-65365333D01*
X188190381Y-114388665D02*
X187714191Y-114721999D01*
X188190381Y-114960094D02*
X187190381Y-114960094D01*
X187190381Y-114579141D01*
X187238001Y-114483903D01*
X187285620Y-114436284D01*
X187380858Y-114388665D01*
X187523715Y-114388665D01*
X187618953Y-114436284D01*
X187666572Y-114483903D01*
X187714191Y-114579141D01*
X187714191Y-114960094D01*
X187523715Y-113531522D02*
X188190381Y-113531522D01*
X187142762Y-113769618D02*
X187857048Y-114007713D01*
X187857048Y-113388665D01*
M02*
