M48
; DRILL file {KiCad (5.1.5)-3} date 04.07.2021 23:47:09
; FORMAT={-:-/ absolute / metric / decimal}
; #@! TF.CreationDate,2021-07-04T23:47:09+02:00
; #@! TF.GenerationSoftware,Kicad,Pcbnew,(5.1.5)-3
; #@! TF.FileFunction,Plated,1,2,PTH
FMAT,2
METRIC
T1C0.762
T2C0.900
T3C1.000
T4C1.097
T5C1.200
%
G90
G05
T1
X140.97Y-74.295
X140.97Y-76.835
X140.97Y-79.375
X140.97Y-81.915
X140.97Y-84.455
X140.97Y-86.995
X140.97Y-89.535
X140.97Y-92.075
X140.97Y-94.615
X140.97Y-97.155
X140.97Y-99.695
X140.97Y-102.235
X140.97Y-104.775
X140.97Y-107.315
X140.97Y-109.855
X168.91Y-74.295
X168.91Y-76.835
X168.91Y-79.375
X168.91Y-81.915
X168.91Y-84.455
X168.91Y-86.995
X168.91Y-89.535
X168.91Y-92.075
X168.91Y-94.615
X168.91Y-97.155
X168.91Y-99.695
X168.91Y-102.235
X168.91Y-104.775
X168.91Y-107.315
X168.91Y-109.855
T2
X185.42Y-90.17
X187.96Y-90.17
X185.42Y-81.28
X187.96Y-81.28
X185.42Y-99.06
X187.96Y-99.06
T3
X147.32Y-59.69
X149.86Y-59.69
X152.4Y-59.69
X154.94Y-59.69
X157.48Y-59.69
X176.53Y-85.09
X176.53Y-87.63
X176.53Y-90.17
X176.53Y-92.71
X176.53Y-95.25
X176.53Y-97.79
X176.53Y-100.33
X176.53Y-102.87
X176.53Y-113.03
X176.53Y-115.57
X176.53Y-118.11
X176.53Y-120.65
T4
X132.08Y-60.96
X134.62Y-60.96
X137.16Y-60.96
X133.35Y-69.85
X133.35Y-72.39
X133.35Y-74.93
X133.35Y-100.33
X133.35Y-102.87
X133.35Y-85.09
X133.35Y-87.63
X133.35Y-90.17
T5
X135.89Y-107.95
X135.89Y-120.65
X189.992Y-59.182
X189.992Y-71.882
X183.642Y-59.182
X183.642Y-71.882
X174.554Y-62.357
X178.054Y-62.357
X184.912Y-107.95
X184.912Y-120.65
T0
M30
