G04 #@! TF.GenerationSoftware,KiCad,Pcbnew,(5.1.5)-3*
G04 #@! TF.CreationDate,2021-07-04T23:47:12+02:00*
G04 #@! TF.ProjectId,RGB_Treppe,5247425f-5472-4657-9070-652e6b696361,rev?*
G04 #@! TF.SameCoordinates,Original*
G04 #@! TF.FileFunction,Soldermask,Bot*
G04 #@! TF.FilePolarity,Negative*
%FSLAX46Y46*%
G04 Gerber Fmt 4.6, Leading zero omitted, Abs format (unit mm)*
G04 Created by KiCad (PCBNEW (5.1.5)-3) date 2021-07-04 23:47:12*
%MOMM*%
%LPD*%
G04 APERTURE LIST*
%ADD10C,0.100000*%
G04 APERTURE END LIST*
D10*
G36*
X185276903Y-119447075D02*
G01*
X185504571Y-119541378D01*
X185709466Y-119678285D01*
X185883715Y-119852534D01*
X186020622Y-120057429D01*
X186114925Y-120285097D01*
X186163000Y-120526787D01*
X186163000Y-120773213D01*
X186114925Y-121014903D01*
X186020622Y-121242571D01*
X185883715Y-121447466D01*
X185709466Y-121621715D01*
X185504571Y-121758622D01*
X185504570Y-121758623D01*
X185504569Y-121758623D01*
X185276903Y-121852925D01*
X185035214Y-121901000D01*
X184788786Y-121901000D01*
X184547097Y-121852925D01*
X184319431Y-121758623D01*
X184319430Y-121758623D01*
X184319429Y-121758622D01*
X184114534Y-121621715D01*
X183940285Y-121447466D01*
X183803378Y-121242571D01*
X183709075Y-121014903D01*
X183661000Y-120773213D01*
X183661000Y-120526787D01*
X183709075Y-120285097D01*
X183803378Y-120057429D01*
X183940285Y-119852534D01*
X184114534Y-119678285D01*
X184319429Y-119541378D01*
X184547097Y-119447075D01*
X184788786Y-119399000D01*
X185035214Y-119399000D01*
X185276903Y-119447075D01*
G37*
G36*
X136254903Y-119447075D02*
G01*
X136482571Y-119541378D01*
X136687466Y-119678285D01*
X136861715Y-119852534D01*
X136998622Y-120057429D01*
X137092925Y-120285097D01*
X137141000Y-120526787D01*
X137141000Y-120773213D01*
X137092925Y-121014903D01*
X136998622Y-121242571D01*
X136861715Y-121447466D01*
X136687466Y-121621715D01*
X136482571Y-121758622D01*
X136482570Y-121758623D01*
X136482569Y-121758623D01*
X136254903Y-121852925D01*
X136013214Y-121901000D01*
X135766786Y-121901000D01*
X135525097Y-121852925D01*
X135297431Y-121758623D01*
X135297430Y-121758623D01*
X135297429Y-121758622D01*
X135092534Y-121621715D01*
X134918285Y-121447466D01*
X134781378Y-121242571D01*
X134687075Y-121014903D01*
X134639000Y-120773213D01*
X134639000Y-120526787D01*
X134687075Y-120285097D01*
X134781378Y-120057429D01*
X134918285Y-119852534D01*
X135092534Y-119678285D01*
X135297429Y-119541378D01*
X135525097Y-119447075D01*
X135766786Y-119399000D01*
X136013214Y-119399000D01*
X136254903Y-119447075D01*
G37*
G36*
X176643512Y-119753927D02*
G01*
X176792812Y-119783624D01*
X176956784Y-119851544D01*
X177104354Y-119950147D01*
X177229853Y-120075646D01*
X177328456Y-120223216D01*
X177396376Y-120387188D01*
X177431000Y-120561259D01*
X177431000Y-120738741D01*
X177396376Y-120912812D01*
X177328456Y-121076784D01*
X177229853Y-121224354D01*
X177104354Y-121349853D01*
X176956784Y-121448456D01*
X176792812Y-121516376D01*
X176643512Y-121546073D01*
X176618742Y-121551000D01*
X176441258Y-121551000D01*
X176416488Y-121546073D01*
X176267188Y-121516376D01*
X176103216Y-121448456D01*
X175955646Y-121349853D01*
X175830147Y-121224354D01*
X175731544Y-121076784D01*
X175663624Y-120912812D01*
X175629000Y-120738741D01*
X175629000Y-120561259D01*
X175663624Y-120387188D01*
X175731544Y-120223216D01*
X175830147Y-120075646D01*
X175955646Y-119950147D01*
X176103216Y-119851544D01*
X176267188Y-119783624D01*
X176416488Y-119753927D01*
X176441258Y-119749000D01*
X176618742Y-119749000D01*
X176643512Y-119753927D01*
G37*
G36*
X176643512Y-117213927D02*
G01*
X176792812Y-117243624D01*
X176956784Y-117311544D01*
X177104354Y-117410147D01*
X177229853Y-117535646D01*
X177328456Y-117683216D01*
X177396376Y-117847188D01*
X177431000Y-118021259D01*
X177431000Y-118198741D01*
X177396376Y-118372812D01*
X177328456Y-118536784D01*
X177229853Y-118684354D01*
X177104354Y-118809853D01*
X176956784Y-118908456D01*
X176792812Y-118976376D01*
X176643512Y-119006073D01*
X176618742Y-119011000D01*
X176441258Y-119011000D01*
X176416488Y-119006073D01*
X176267188Y-118976376D01*
X176103216Y-118908456D01*
X175955646Y-118809853D01*
X175830147Y-118684354D01*
X175731544Y-118536784D01*
X175663624Y-118372812D01*
X175629000Y-118198741D01*
X175629000Y-118021259D01*
X175663624Y-117847188D01*
X175731544Y-117683216D01*
X175830147Y-117535646D01*
X175955646Y-117410147D01*
X176103216Y-117311544D01*
X176267188Y-117243624D01*
X176416488Y-117213927D01*
X176441258Y-117209000D01*
X176618742Y-117209000D01*
X176643512Y-117213927D01*
G37*
G36*
X176643512Y-114673927D02*
G01*
X176792812Y-114703624D01*
X176956784Y-114771544D01*
X177104354Y-114870147D01*
X177229853Y-114995646D01*
X177328456Y-115143216D01*
X177396376Y-115307188D01*
X177431000Y-115481259D01*
X177431000Y-115658741D01*
X177396376Y-115832812D01*
X177328456Y-115996784D01*
X177229853Y-116144354D01*
X177104354Y-116269853D01*
X176956784Y-116368456D01*
X176792812Y-116436376D01*
X176643512Y-116466073D01*
X176618742Y-116471000D01*
X176441258Y-116471000D01*
X176416488Y-116466073D01*
X176267188Y-116436376D01*
X176103216Y-116368456D01*
X175955646Y-116269853D01*
X175830147Y-116144354D01*
X175731544Y-115996784D01*
X175663624Y-115832812D01*
X175629000Y-115658741D01*
X175629000Y-115481259D01*
X175663624Y-115307188D01*
X175731544Y-115143216D01*
X175830147Y-114995646D01*
X175955646Y-114870147D01*
X176103216Y-114771544D01*
X176267188Y-114703624D01*
X176416488Y-114673927D01*
X176441258Y-114669000D01*
X176618742Y-114669000D01*
X176643512Y-114673927D01*
G37*
G36*
X177431000Y-113931000D02*
G01*
X175629000Y-113931000D01*
X175629000Y-112129000D01*
X177431000Y-112129000D01*
X177431000Y-113931000D01*
G37*
G36*
X169147142Y-109073242D02*
G01*
X169295101Y-109134529D01*
X169428255Y-109223499D01*
X169541501Y-109336745D01*
X169630471Y-109469899D01*
X169691758Y-109617858D01*
X169723000Y-109774925D01*
X169723000Y-109935075D01*
X169691758Y-110092142D01*
X169630471Y-110240101D01*
X169541501Y-110373255D01*
X169428255Y-110486501D01*
X169295101Y-110575471D01*
X169147142Y-110636758D01*
X168990075Y-110668000D01*
X168829925Y-110668000D01*
X168672858Y-110636758D01*
X168524899Y-110575471D01*
X168391745Y-110486501D01*
X168278499Y-110373255D01*
X168189529Y-110240101D01*
X168128242Y-110092142D01*
X168097000Y-109935075D01*
X168097000Y-109774925D01*
X168128242Y-109617858D01*
X168189529Y-109469899D01*
X168278499Y-109336745D01*
X168391745Y-109223499D01*
X168524899Y-109134529D01*
X168672858Y-109073242D01*
X168829925Y-109042000D01*
X168990075Y-109042000D01*
X169147142Y-109073242D01*
G37*
G36*
X141207142Y-109073242D02*
G01*
X141355101Y-109134529D01*
X141488255Y-109223499D01*
X141601501Y-109336745D01*
X141690471Y-109469899D01*
X141751758Y-109617858D01*
X141783000Y-109774925D01*
X141783000Y-109935075D01*
X141751758Y-110092142D01*
X141690471Y-110240101D01*
X141601501Y-110373255D01*
X141488255Y-110486501D01*
X141355101Y-110575471D01*
X141207142Y-110636758D01*
X141050075Y-110668000D01*
X140889925Y-110668000D01*
X140732858Y-110636758D01*
X140584899Y-110575471D01*
X140451745Y-110486501D01*
X140338499Y-110373255D01*
X140249529Y-110240101D01*
X140188242Y-110092142D01*
X140157000Y-109935075D01*
X140157000Y-109774925D01*
X140188242Y-109617858D01*
X140249529Y-109469899D01*
X140338499Y-109336745D01*
X140451745Y-109223499D01*
X140584899Y-109134529D01*
X140732858Y-109073242D01*
X140889925Y-109042000D01*
X141050075Y-109042000D01*
X141207142Y-109073242D01*
G37*
G36*
X185276903Y-106747075D02*
G01*
X185396813Y-106796743D01*
X185504571Y-106841378D01*
X185709466Y-106978285D01*
X185883715Y-107152534D01*
X186020622Y-107357429D01*
X186020623Y-107357431D01*
X186114925Y-107585097D01*
X186137801Y-107700100D01*
X186163000Y-107826787D01*
X186163000Y-108073213D01*
X186114925Y-108314903D01*
X186020622Y-108542571D01*
X185883715Y-108747466D01*
X185709466Y-108921715D01*
X185504571Y-109058622D01*
X185504570Y-109058623D01*
X185504569Y-109058623D01*
X185276903Y-109152925D01*
X185035214Y-109201000D01*
X184788786Y-109201000D01*
X184547097Y-109152925D01*
X184319431Y-109058623D01*
X184319430Y-109058623D01*
X184319429Y-109058622D01*
X184114534Y-108921715D01*
X183940285Y-108747466D01*
X183803378Y-108542571D01*
X183709075Y-108314903D01*
X183661000Y-108073213D01*
X183661000Y-107826787D01*
X183686200Y-107700100D01*
X183709075Y-107585097D01*
X183803377Y-107357431D01*
X183803378Y-107357429D01*
X183940285Y-107152534D01*
X184114534Y-106978285D01*
X184319429Y-106841378D01*
X184427188Y-106796743D01*
X184547097Y-106747075D01*
X184788786Y-106699000D01*
X185035214Y-106699000D01*
X185276903Y-106747075D01*
G37*
G36*
X136254903Y-106747075D02*
G01*
X136374813Y-106796743D01*
X136482571Y-106841378D01*
X136687466Y-106978285D01*
X136861715Y-107152534D01*
X136998622Y-107357429D01*
X136998623Y-107357431D01*
X137092925Y-107585097D01*
X137115801Y-107700100D01*
X137141000Y-107826787D01*
X137141000Y-108073213D01*
X137092925Y-108314903D01*
X136998622Y-108542571D01*
X136861715Y-108747466D01*
X136687466Y-108921715D01*
X136482571Y-109058622D01*
X136482570Y-109058623D01*
X136482569Y-109058623D01*
X136254903Y-109152925D01*
X136013214Y-109201000D01*
X135766786Y-109201000D01*
X135525097Y-109152925D01*
X135297431Y-109058623D01*
X135297430Y-109058623D01*
X135297429Y-109058622D01*
X135092534Y-108921715D01*
X134918285Y-108747466D01*
X134781378Y-108542571D01*
X134687075Y-108314903D01*
X134639000Y-108073213D01*
X134639000Y-107826787D01*
X134664200Y-107700100D01*
X134687075Y-107585097D01*
X134781377Y-107357431D01*
X134781378Y-107357429D01*
X134918285Y-107152534D01*
X135092534Y-106978285D01*
X135297429Y-106841378D01*
X135405188Y-106796743D01*
X135525097Y-106747075D01*
X135766786Y-106699000D01*
X136013214Y-106699000D01*
X136254903Y-106747075D01*
G37*
G36*
X169147142Y-106533242D02*
G01*
X169295101Y-106594529D01*
X169428255Y-106683499D01*
X169541501Y-106796745D01*
X169630471Y-106929899D01*
X169691758Y-107077858D01*
X169723000Y-107234925D01*
X169723000Y-107395075D01*
X169691758Y-107552142D01*
X169630471Y-107700101D01*
X169541501Y-107833255D01*
X169428255Y-107946501D01*
X169295101Y-108035471D01*
X169147142Y-108096758D01*
X168990075Y-108128000D01*
X168829925Y-108128000D01*
X168672858Y-108096758D01*
X168524899Y-108035471D01*
X168391745Y-107946501D01*
X168278499Y-107833255D01*
X168189529Y-107700101D01*
X168128242Y-107552142D01*
X168097000Y-107395075D01*
X168097000Y-107234925D01*
X168128242Y-107077858D01*
X168189529Y-106929899D01*
X168278499Y-106796745D01*
X168391745Y-106683499D01*
X168524899Y-106594529D01*
X168672858Y-106533242D01*
X168829925Y-106502000D01*
X168990075Y-106502000D01*
X169147142Y-106533242D01*
G37*
G36*
X141207142Y-106533242D02*
G01*
X141355101Y-106594529D01*
X141488255Y-106683499D01*
X141601501Y-106796745D01*
X141690471Y-106929899D01*
X141751758Y-107077858D01*
X141783000Y-107234925D01*
X141783000Y-107395075D01*
X141751758Y-107552142D01*
X141690471Y-107700101D01*
X141601501Y-107833255D01*
X141488255Y-107946501D01*
X141355101Y-108035471D01*
X141207142Y-108096758D01*
X141050075Y-108128000D01*
X140889925Y-108128000D01*
X140732858Y-108096758D01*
X140584899Y-108035471D01*
X140451745Y-107946501D01*
X140338499Y-107833255D01*
X140249529Y-107700101D01*
X140188242Y-107552142D01*
X140157000Y-107395075D01*
X140157000Y-107234925D01*
X140188242Y-107077858D01*
X140249529Y-106929899D01*
X140338499Y-106796745D01*
X140451745Y-106683499D01*
X140584899Y-106594529D01*
X140732858Y-106533242D01*
X140889925Y-106502000D01*
X141050075Y-106502000D01*
X141207142Y-106533242D01*
G37*
G36*
X141207142Y-103993242D02*
G01*
X141355101Y-104054529D01*
X141488255Y-104143499D01*
X141601501Y-104256745D01*
X141690471Y-104389899D01*
X141751758Y-104537858D01*
X141783000Y-104694925D01*
X141783000Y-104855075D01*
X141751758Y-105012142D01*
X141690471Y-105160101D01*
X141601501Y-105293255D01*
X141488255Y-105406501D01*
X141355101Y-105495471D01*
X141207142Y-105556758D01*
X141050075Y-105588000D01*
X140889925Y-105588000D01*
X140732858Y-105556758D01*
X140584899Y-105495471D01*
X140451745Y-105406501D01*
X140338499Y-105293255D01*
X140249529Y-105160101D01*
X140188242Y-105012142D01*
X140157000Y-104855075D01*
X140157000Y-104694925D01*
X140188242Y-104537858D01*
X140249529Y-104389899D01*
X140338499Y-104256745D01*
X140451745Y-104143499D01*
X140584899Y-104054529D01*
X140732858Y-103993242D01*
X140889925Y-103962000D01*
X141050075Y-103962000D01*
X141207142Y-103993242D01*
G37*
G36*
X169147142Y-103993242D02*
G01*
X169295101Y-104054529D01*
X169428255Y-104143499D01*
X169541501Y-104256745D01*
X169630471Y-104389899D01*
X169691758Y-104537858D01*
X169723000Y-104694925D01*
X169723000Y-104855075D01*
X169691758Y-105012142D01*
X169630471Y-105160101D01*
X169541501Y-105293255D01*
X169428255Y-105406501D01*
X169295101Y-105495471D01*
X169147142Y-105556758D01*
X168990075Y-105588000D01*
X168829925Y-105588000D01*
X168672858Y-105556758D01*
X168524899Y-105495471D01*
X168391745Y-105406501D01*
X168278499Y-105293255D01*
X168189529Y-105160101D01*
X168128242Y-105012142D01*
X168097000Y-104855075D01*
X168097000Y-104694925D01*
X168128242Y-104537858D01*
X168189529Y-104389899D01*
X168278499Y-104256745D01*
X168391745Y-104143499D01*
X168524899Y-104054529D01*
X168672858Y-103993242D01*
X168829925Y-103962000D01*
X168990075Y-103962000D01*
X169147142Y-103993242D01*
G37*
G36*
X133656416Y-101859879D02*
G01*
X133847592Y-101939067D01*
X133847594Y-101939068D01*
X134019648Y-102054031D01*
X134165969Y-102200352D01*
X134257542Y-102337400D01*
X134280933Y-102372408D01*
X134360121Y-102563584D01*
X134400490Y-102766534D01*
X134400490Y-102973466D01*
X134360121Y-103176416D01*
X134328351Y-103253115D01*
X134280932Y-103367594D01*
X134165969Y-103539648D01*
X134019648Y-103685969D01*
X133847594Y-103800932D01*
X133847593Y-103800933D01*
X133847592Y-103800933D01*
X133656416Y-103880121D01*
X133453466Y-103920490D01*
X133246534Y-103920490D01*
X133043584Y-103880121D01*
X132852408Y-103800933D01*
X132852407Y-103800933D01*
X132852406Y-103800932D01*
X132680352Y-103685969D01*
X132534031Y-103539648D01*
X132419068Y-103367594D01*
X132371649Y-103253115D01*
X132339879Y-103176416D01*
X132299510Y-102973466D01*
X132299510Y-102766534D01*
X132339879Y-102563584D01*
X132419067Y-102372408D01*
X132442459Y-102337400D01*
X132534031Y-102200352D01*
X132680352Y-102054031D01*
X132852406Y-101939068D01*
X132852408Y-101939067D01*
X133043584Y-101859879D01*
X133246534Y-101819510D01*
X133453466Y-101819510D01*
X133656416Y-101859879D01*
G37*
G36*
X177431000Y-103771000D02*
G01*
X175629000Y-103771000D01*
X175629000Y-101969000D01*
X177431000Y-101969000D01*
X177431000Y-103771000D01*
G37*
G36*
X130946601Y-102284397D02*
G01*
X130985305Y-102292096D01*
X131017340Y-102305365D01*
X131094680Y-102337400D01*
X131193115Y-102403173D01*
X131276827Y-102486885D01*
X131342600Y-102585320D01*
X131357006Y-102620101D01*
X131387904Y-102694695D01*
X131411000Y-102810807D01*
X131411000Y-102929193D01*
X131387904Y-103045305D01*
X131374635Y-103077340D01*
X131342600Y-103154680D01*
X131276827Y-103253115D01*
X131193115Y-103336827D01*
X131094680Y-103402600D01*
X131017340Y-103434635D01*
X130985305Y-103447904D01*
X130946601Y-103455603D01*
X130869195Y-103471000D01*
X130750805Y-103471000D01*
X130673399Y-103455603D01*
X130634695Y-103447904D01*
X130602660Y-103434635D01*
X130525320Y-103402600D01*
X130426885Y-103336827D01*
X130343173Y-103253115D01*
X130277400Y-103154680D01*
X130245365Y-103077340D01*
X130232096Y-103045305D01*
X130209000Y-102929193D01*
X130209000Y-102810807D01*
X130232096Y-102694695D01*
X130262994Y-102620101D01*
X130277400Y-102585320D01*
X130343173Y-102486885D01*
X130426885Y-102403173D01*
X130525320Y-102337400D01*
X130602660Y-102305365D01*
X130634695Y-102292096D01*
X130673399Y-102284397D01*
X130750805Y-102269000D01*
X130869195Y-102269000D01*
X130946601Y-102284397D01*
G37*
G36*
X169147142Y-101453242D02*
G01*
X169295101Y-101514529D01*
X169428255Y-101603499D01*
X169541501Y-101716745D01*
X169630471Y-101849899D01*
X169691758Y-101997858D01*
X169723000Y-102154925D01*
X169723000Y-102315075D01*
X169691758Y-102472142D01*
X169630471Y-102620101D01*
X169541501Y-102753255D01*
X169428255Y-102866501D01*
X169295101Y-102955471D01*
X169147142Y-103016758D01*
X168990075Y-103048000D01*
X168829925Y-103048000D01*
X168672858Y-103016758D01*
X168524899Y-102955471D01*
X168391745Y-102866501D01*
X168278499Y-102753255D01*
X168189529Y-102620101D01*
X168128242Y-102472142D01*
X168097000Y-102315075D01*
X168097000Y-102154925D01*
X168128242Y-101997858D01*
X168189529Y-101849899D01*
X168278499Y-101716745D01*
X168391745Y-101603499D01*
X168524899Y-101514529D01*
X168672858Y-101453242D01*
X168829925Y-101422000D01*
X168990075Y-101422000D01*
X169147142Y-101453242D01*
G37*
G36*
X141207142Y-101453242D02*
G01*
X141355101Y-101514529D01*
X141488255Y-101603499D01*
X141601501Y-101716745D01*
X141690471Y-101849899D01*
X141751758Y-101997858D01*
X141783000Y-102154925D01*
X141783000Y-102315075D01*
X141751758Y-102472142D01*
X141690471Y-102620101D01*
X141601501Y-102753255D01*
X141488255Y-102866501D01*
X141355101Y-102955471D01*
X141207142Y-103016758D01*
X141050075Y-103048000D01*
X140889925Y-103048000D01*
X140732858Y-103016758D01*
X140584899Y-102955471D01*
X140451745Y-102866501D01*
X140338499Y-102753255D01*
X140249529Y-102620101D01*
X140188242Y-102472142D01*
X140157000Y-102315075D01*
X140157000Y-102154925D01*
X140188242Y-101997858D01*
X140249529Y-101849899D01*
X140338499Y-101716745D01*
X140451745Y-101603499D01*
X140584899Y-101514529D01*
X140732858Y-101453242D01*
X140889925Y-101422000D01*
X141050075Y-101422000D01*
X141207142Y-101453242D01*
G37*
G36*
X134400490Y-101380490D02*
G01*
X132299510Y-101380490D01*
X132299510Y-99279510D01*
X134400490Y-99279510D01*
X134400490Y-101380490D01*
G37*
G36*
X176643512Y-99433927D02*
G01*
X176792812Y-99463624D01*
X176956784Y-99531544D01*
X177104354Y-99630147D01*
X177229853Y-99755646D01*
X177328456Y-99903216D01*
X177396376Y-100067188D01*
X177431000Y-100241259D01*
X177431000Y-100418741D01*
X177396376Y-100592812D01*
X177328456Y-100756784D01*
X177229853Y-100904354D01*
X177104354Y-101029853D01*
X176956784Y-101128456D01*
X176792812Y-101196376D01*
X176643512Y-101226073D01*
X176618742Y-101231000D01*
X176441258Y-101231000D01*
X176416488Y-101226073D01*
X176267188Y-101196376D01*
X176103216Y-101128456D01*
X175955646Y-101029853D01*
X175830147Y-100904354D01*
X175731544Y-100756784D01*
X175663624Y-100592812D01*
X175629000Y-100418741D01*
X175629000Y-100241259D01*
X175663624Y-100067188D01*
X175731544Y-99903216D01*
X175830147Y-99755646D01*
X175955646Y-99630147D01*
X176103216Y-99531544D01*
X176267188Y-99463624D01*
X176416488Y-99433927D01*
X176441258Y-99429000D01*
X176618742Y-99429000D01*
X176643512Y-99433927D01*
G37*
G36*
X130946601Y-99744397D02*
G01*
X130985305Y-99752096D01*
X131017340Y-99765365D01*
X131094680Y-99797400D01*
X131193115Y-99863173D01*
X131276827Y-99946885D01*
X131342600Y-100045320D01*
X131387904Y-100154696D01*
X131411000Y-100270805D01*
X131411000Y-100389195D01*
X131395603Y-100466601D01*
X131387904Y-100505305D01*
X131374635Y-100537340D01*
X131342600Y-100614680D01*
X131276827Y-100713115D01*
X131193115Y-100796827D01*
X131094680Y-100862600D01*
X131017340Y-100894635D01*
X130985305Y-100907904D01*
X130946601Y-100915603D01*
X130869195Y-100931000D01*
X130750805Y-100931000D01*
X130673399Y-100915603D01*
X130634695Y-100907904D01*
X130602660Y-100894635D01*
X130525320Y-100862600D01*
X130426885Y-100796827D01*
X130343173Y-100713115D01*
X130277400Y-100614680D01*
X130245365Y-100537340D01*
X130232096Y-100505305D01*
X130224397Y-100466601D01*
X130209000Y-100389195D01*
X130209000Y-100270805D01*
X130232096Y-100154696D01*
X130277400Y-100045320D01*
X130343173Y-99946885D01*
X130426885Y-99863173D01*
X130525320Y-99797400D01*
X130602660Y-99765365D01*
X130634695Y-99752096D01*
X130673399Y-99744397D01*
X130750805Y-99729000D01*
X130869195Y-99729000D01*
X130946601Y-99744397D01*
G37*
G36*
X141207142Y-98913242D02*
G01*
X141355101Y-98974529D01*
X141488255Y-99063499D01*
X141601501Y-99176745D01*
X141690471Y-99309899D01*
X141751758Y-99457858D01*
X141783000Y-99614925D01*
X141783000Y-99775075D01*
X141751758Y-99932142D01*
X141690471Y-100080101D01*
X141601501Y-100213255D01*
X141488255Y-100326501D01*
X141355101Y-100415471D01*
X141207142Y-100476758D01*
X141050075Y-100508000D01*
X140889925Y-100508000D01*
X140732858Y-100476758D01*
X140584899Y-100415471D01*
X140451745Y-100326501D01*
X140338499Y-100213255D01*
X140249529Y-100080101D01*
X140188242Y-99932142D01*
X140157000Y-99775075D01*
X140157000Y-99614925D01*
X140188242Y-99457858D01*
X140249529Y-99309899D01*
X140338499Y-99176745D01*
X140451745Y-99063499D01*
X140584899Y-98974529D01*
X140732858Y-98913242D01*
X140889925Y-98882000D01*
X141050075Y-98882000D01*
X141207142Y-98913242D01*
G37*
G36*
X169147142Y-98913242D02*
G01*
X169295101Y-98974529D01*
X169428255Y-99063499D01*
X169541501Y-99176745D01*
X169630471Y-99309899D01*
X169691758Y-99457858D01*
X169723000Y-99614925D01*
X169723000Y-99775075D01*
X169691758Y-99932142D01*
X169630471Y-100080101D01*
X169541501Y-100213255D01*
X169428255Y-100326501D01*
X169295101Y-100415471D01*
X169147142Y-100476758D01*
X168990075Y-100508000D01*
X168829925Y-100508000D01*
X168672858Y-100476758D01*
X168524899Y-100415471D01*
X168391745Y-100326501D01*
X168278499Y-100213255D01*
X168189529Y-100080101D01*
X168128242Y-99932142D01*
X168097000Y-99775075D01*
X168097000Y-99614925D01*
X168128242Y-99457858D01*
X168189529Y-99309899D01*
X168278499Y-99176745D01*
X168391745Y-99063499D01*
X168524899Y-98974529D01*
X168672858Y-98913242D01*
X168829925Y-98882000D01*
X168990075Y-98882000D01*
X169147142Y-98913242D01*
G37*
G36*
X185697395Y-98145546D02*
G01*
X185870466Y-98217234D01*
X185870467Y-98217235D01*
X186026227Y-98321310D01*
X186158690Y-98453773D01*
X186158691Y-98453775D01*
X186262766Y-98609534D01*
X186334454Y-98782605D01*
X186371000Y-98966333D01*
X186371000Y-99153667D01*
X186334454Y-99337395D01*
X186262766Y-99510466D01*
X186262765Y-99510467D01*
X186158690Y-99666227D01*
X186026227Y-99798690D01*
X185947818Y-99851081D01*
X185870466Y-99902766D01*
X185697395Y-99974454D01*
X185513667Y-100011000D01*
X185326333Y-100011000D01*
X185142605Y-99974454D01*
X184969534Y-99902766D01*
X184892182Y-99851081D01*
X184813773Y-99798690D01*
X184681310Y-99666227D01*
X184577235Y-99510467D01*
X184577234Y-99510466D01*
X184505546Y-99337395D01*
X184469000Y-99153667D01*
X184469000Y-98966333D01*
X184505546Y-98782605D01*
X184577234Y-98609534D01*
X184681309Y-98453775D01*
X184681310Y-98453773D01*
X184813773Y-98321310D01*
X184969533Y-98217235D01*
X184969534Y-98217234D01*
X185142605Y-98145546D01*
X185326333Y-98109000D01*
X185513667Y-98109000D01*
X185697395Y-98145546D01*
G37*
G36*
X188911000Y-100011000D02*
G01*
X187009000Y-100011000D01*
X187009000Y-98109000D01*
X188911000Y-98109000D01*
X188911000Y-100011000D01*
G37*
G36*
X176643512Y-96893927D02*
G01*
X176792812Y-96923624D01*
X176956784Y-96991544D01*
X177104354Y-97090147D01*
X177229853Y-97215646D01*
X177328456Y-97363216D01*
X177396376Y-97527188D01*
X177431000Y-97701259D01*
X177431000Y-97878741D01*
X177396376Y-98052812D01*
X177328456Y-98216784D01*
X177229853Y-98364354D01*
X177104354Y-98489853D01*
X176956784Y-98588456D01*
X176792812Y-98656376D01*
X176643512Y-98686073D01*
X176618742Y-98691000D01*
X176441258Y-98691000D01*
X176416488Y-98686073D01*
X176267188Y-98656376D01*
X176103216Y-98588456D01*
X175955646Y-98489853D01*
X175830147Y-98364354D01*
X175731544Y-98216784D01*
X175663624Y-98052812D01*
X175629000Y-97878741D01*
X175629000Y-97701259D01*
X175663624Y-97527188D01*
X175731544Y-97363216D01*
X175830147Y-97215646D01*
X175955646Y-97090147D01*
X176103216Y-96991544D01*
X176267188Y-96923624D01*
X176416488Y-96893927D01*
X176441258Y-96889000D01*
X176618742Y-96889000D01*
X176643512Y-96893927D01*
G37*
G36*
X169147142Y-96373242D02*
G01*
X169295101Y-96434529D01*
X169428255Y-96523499D01*
X169541501Y-96636745D01*
X169630471Y-96769899D01*
X169691758Y-96917858D01*
X169723000Y-97074925D01*
X169723000Y-97235075D01*
X169691758Y-97392142D01*
X169630471Y-97540101D01*
X169541501Y-97673255D01*
X169428255Y-97786501D01*
X169295101Y-97875471D01*
X169147142Y-97936758D01*
X168990075Y-97968000D01*
X168829925Y-97968000D01*
X168672858Y-97936758D01*
X168524899Y-97875471D01*
X168391745Y-97786501D01*
X168278499Y-97673255D01*
X168189529Y-97540101D01*
X168128242Y-97392142D01*
X168097000Y-97235075D01*
X168097000Y-97074925D01*
X168128242Y-96917858D01*
X168189529Y-96769899D01*
X168278499Y-96636745D01*
X168391745Y-96523499D01*
X168524899Y-96434529D01*
X168672858Y-96373242D01*
X168829925Y-96342000D01*
X168990075Y-96342000D01*
X169147142Y-96373242D01*
G37*
G36*
X141207142Y-96373242D02*
G01*
X141355101Y-96434529D01*
X141488255Y-96523499D01*
X141601501Y-96636745D01*
X141690471Y-96769899D01*
X141751758Y-96917858D01*
X141783000Y-97074925D01*
X141783000Y-97235075D01*
X141751758Y-97392142D01*
X141690471Y-97540101D01*
X141601501Y-97673255D01*
X141488255Y-97786501D01*
X141355101Y-97875471D01*
X141207142Y-97936758D01*
X141050075Y-97968000D01*
X140889925Y-97968000D01*
X140732858Y-97936758D01*
X140584899Y-97875471D01*
X140451745Y-97786501D01*
X140338499Y-97673255D01*
X140249529Y-97540101D01*
X140188242Y-97392142D01*
X140157000Y-97235075D01*
X140157000Y-97074925D01*
X140188242Y-96917858D01*
X140249529Y-96769899D01*
X140338499Y-96636745D01*
X140451745Y-96523499D01*
X140584899Y-96434529D01*
X140732858Y-96373242D01*
X140889925Y-96342000D01*
X141050075Y-96342000D01*
X141207142Y-96373242D01*
G37*
G36*
X176643512Y-94353927D02*
G01*
X176792812Y-94383624D01*
X176956784Y-94451544D01*
X177104354Y-94550147D01*
X177229853Y-94675646D01*
X177328456Y-94823216D01*
X177396376Y-94987188D01*
X177431000Y-95161259D01*
X177431000Y-95338741D01*
X177396376Y-95512812D01*
X177328456Y-95676784D01*
X177229853Y-95824354D01*
X177104354Y-95949853D01*
X176956784Y-96048456D01*
X176792812Y-96116376D01*
X176643512Y-96146073D01*
X176618742Y-96151000D01*
X176441258Y-96151000D01*
X176416488Y-96146073D01*
X176267188Y-96116376D01*
X176103216Y-96048456D01*
X175955646Y-95949853D01*
X175830147Y-95824354D01*
X175731544Y-95676784D01*
X175663624Y-95512812D01*
X175629000Y-95338741D01*
X175629000Y-95161259D01*
X175663624Y-94987188D01*
X175731544Y-94823216D01*
X175830147Y-94675646D01*
X175955646Y-94550147D01*
X176103216Y-94451544D01*
X176267188Y-94383624D01*
X176416488Y-94353927D01*
X176441258Y-94349000D01*
X176618742Y-94349000D01*
X176643512Y-94353927D01*
G37*
G36*
X169147142Y-93833242D02*
G01*
X169295101Y-93894529D01*
X169428255Y-93983499D01*
X169541501Y-94096745D01*
X169630471Y-94229899D01*
X169691758Y-94377858D01*
X169723000Y-94534925D01*
X169723000Y-94695075D01*
X169691758Y-94852142D01*
X169630471Y-95000101D01*
X169541501Y-95133255D01*
X169428255Y-95246501D01*
X169295101Y-95335471D01*
X169147142Y-95396758D01*
X168990075Y-95428000D01*
X168829925Y-95428000D01*
X168672858Y-95396758D01*
X168524899Y-95335471D01*
X168391745Y-95246501D01*
X168278499Y-95133255D01*
X168189529Y-95000101D01*
X168128242Y-94852142D01*
X168097000Y-94695075D01*
X168097000Y-94534925D01*
X168128242Y-94377858D01*
X168189529Y-94229899D01*
X168278499Y-94096745D01*
X168391745Y-93983499D01*
X168524899Y-93894529D01*
X168672858Y-93833242D01*
X168829925Y-93802000D01*
X168990075Y-93802000D01*
X169147142Y-93833242D01*
G37*
G36*
X141207142Y-93833242D02*
G01*
X141355101Y-93894529D01*
X141488255Y-93983499D01*
X141601501Y-94096745D01*
X141690471Y-94229899D01*
X141751758Y-94377858D01*
X141783000Y-94534925D01*
X141783000Y-94695075D01*
X141751758Y-94852142D01*
X141690471Y-95000101D01*
X141601501Y-95133255D01*
X141488255Y-95246501D01*
X141355101Y-95335471D01*
X141207142Y-95396758D01*
X141050075Y-95428000D01*
X140889925Y-95428000D01*
X140732858Y-95396758D01*
X140584899Y-95335471D01*
X140451745Y-95246501D01*
X140338499Y-95133255D01*
X140249529Y-95000101D01*
X140188242Y-94852142D01*
X140157000Y-94695075D01*
X140157000Y-94534925D01*
X140188242Y-94377858D01*
X140249529Y-94229899D01*
X140338499Y-94096745D01*
X140451745Y-93983499D01*
X140584899Y-93894529D01*
X140732858Y-93833242D01*
X140889925Y-93802000D01*
X141050075Y-93802000D01*
X141207142Y-93833242D01*
G37*
G36*
X176643512Y-91813927D02*
G01*
X176792812Y-91843624D01*
X176956784Y-91911544D01*
X177104354Y-92010147D01*
X177229853Y-92135646D01*
X177328456Y-92283216D01*
X177396376Y-92447188D01*
X177431000Y-92621259D01*
X177431000Y-92798741D01*
X177396376Y-92972812D01*
X177328456Y-93136784D01*
X177229853Y-93284354D01*
X177104354Y-93409853D01*
X176956784Y-93508456D01*
X176792812Y-93576376D01*
X176643512Y-93606073D01*
X176618742Y-93611000D01*
X176441258Y-93611000D01*
X176416488Y-93606073D01*
X176267188Y-93576376D01*
X176103216Y-93508456D01*
X175955646Y-93409853D01*
X175830147Y-93284354D01*
X175731544Y-93136784D01*
X175663624Y-92972812D01*
X175629000Y-92798741D01*
X175629000Y-92621259D01*
X175663624Y-92447188D01*
X175731544Y-92283216D01*
X175830147Y-92135646D01*
X175955646Y-92010147D01*
X176103216Y-91911544D01*
X176267188Y-91843624D01*
X176416488Y-91813927D01*
X176441258Y-91809000D01*
X176618742Y-91809000D01*
X176643512Y-91813927D01*
G37*
G36*
X141207142Y-91293242D02*
G01*
X141355101Y-91354529D01*
X141488255Y-91443499D01*
X141601501Y-91556745D01*
X141690471Y-91689899D01*
X141751758Y-91837858D01*
X141783000Y-91994925D01*
X141783000Y-92155075D01*
X141751758Y-92312142D01*
X141690471Y-92460101D01*
X141601501Y-92593255D01*
X141488255Y-92706501D01*
X141355101Y-92795471D01*
X141207142Y-92856758D01*
X141050075Y-92888000D01*
X140889925Y-92888000D01*
X140732858Y-92856758D01*
X140584899Y-92795471D01*
X140451745Y-92706501D01*
X140338499Y-92593255D01*
X140249529Y-92460101D01*
X140188242Y-92312142D01*
X140157000Y-92155075D01*
X140157000Y-91994925D01*
X140188242Y-91837858D01*
X140249529Y-91689899D01*
X140338499Y-91556745D01*
X140451745Y-91443499D01*
X140584899Y-91354529D01*
X140732858Y-91293242D01*
X140889925Y-91262000D01*
X141050075Y-91262000D01*
X141207142Y-91293242D01*
G37*
G36*
X169147142Y-91293242D02*
G01*
X169295101Y-91354529D01*
X169428255Y-91443499D01*
X169541501Y-91556745D01*
X169630471Y-91689899D01*
X169691758Y-91837858D01*
X169723000Y-91994925D01*
X169723000Y-92155075D01*
X169691758Y-92312142D01*
X169630471Y-92460101D01*
X169541501Y-92593255D01*
X169428255Y-92706501D01*
X169295101Y-92795471D01*
X169147142Y-92856758D01*
X168990075Y-92888000D01*
X168829925Y-92888000D01*
X168672858Y-92856758D01*
X168524899Y-92795471D01*
X168391745Y-92706501D01*
X168278499Y-92593255D01*
X168189529Y-92460101D01*
X168128242Y-92312142D01*
X168097000Y-92155075D01*
X168097000Y-91994925D01*
X168128242Y-91837858D01*
X168189529Y-91689899D01*
X168278499Y-91556745D01*
X168391745Y-91443499D01*
X168524899Y-91354529D01*
X168672858Y-91293242D01*
X168829925Y-91262000D01*
X168990075Y-91262000D01*
X169147142Y-91293242D01*
G37*
G36*
X133656416Y-89159879D02*
G01*
X133847592Y-89239067D01*
X133847594Y-89239068D01*
X134019648Y-89354031D01*
X134165969Y-89500352D01*
X134257542Y-89637400D01*
X134280933Y-89672408D01*
X134360121Y-89863584D01*
X134400490Y-90066534D01*
X134400490Y-90273466D01*
X134360121Y-90476416D01*
X134300453Y-90620466D01*
X134280932Y-90667594D01*
X134165969Y-90839648D01*
X134019648Y-90985969D01*
X133847594Y-91100932D01*
X133847593Y-91100933D01*
X133847592Y-91100933D01*
X133656416Y-91180121D01*
X133453466Y-91220490D01*
X133246534Y-91220490D01*
X133043584Y-91180121D01*
X132852408Y-91100933D01*
X132852407Y-91100933D01*
X132852406Y-91100932D01*
X132680352Y-90985969D01*
X132534031Y-90839648D01*
X132419068Y-90667594D01*
X132399547Y-90620466D01*
X132339879Y-90476416D01*
X132299510Y-90273466D01*
X132299510Y-90066534D01*
X132339879Y-89863584D01*
X132419067Y-89672408D01*
X132442459Y-89637400D01*
X132534031Y-89500352D01*
X132680352Y-89354031D01*
X132852406Y-89239068D01*
X132852408Y-89239067D01*
X133043584Y-89159879D01*
X133246534Y-89119510D01*
X133453466Y-89119510D01*
X133656416Y-89159879D01*
G37*
G36*
X188911000Y-91121000D02*
G01*
X187009000Y-91121000D01*
X187009000Y-89219000D01*
X188911000Y-89219000D01*
X188911000Y-91121000D01*
G37*
G36*
X185697395Y-89255546D02*
G01*
X185870466Y-89327234D01*
X185870467Y-89327235D01*
X186026227Y-89431310D01*
X186158690Y-89563773D01*
X186177615Y-89592096D01*
X186262766Y-89719534D01*
X186334454Y-89892605D01*
X186371000Y-90076333D01*
X186371000Y-90263667D01*
X186334454Y-90447395D01*
X186262766Y-90620466D01*
X186262765Y-90620467D01*
X186158690Y-90776227D01*
X186026227Y-90908690D01*
X185947818Y-90961081D01*
X185870466Y-91012766D01*
X185697395Y-91084454D01*
X185513667Y-91121000D01*
X185326333Y-91121000D01*
X185142605Y-91084454D01*
X184969534Y-91012766D01*
X184892182Y-90961081D01*
X184813773Y-90908690D01*
X184681310Y-90776227D01*
X184577235Y-90620467D01*
X184577234Y-90620466D01*
X184505546Y-90447395D01*
X184469000Y-90263667D01*
X184469000Y-90076333D01*
X184505546Y-89892605D01*
X184577234Y-89719534D01*
X184662385Y-89592096D01*
X184681310Y-89563773D01*
X184813773Y-89431310D01*
X184969533Y-89327235D01*
X184969534Y-89327234D01*
X185142605Y-89255546D01*
X185326333Y-89219000D01*
X185513667Y-89219000D01*
X185697395Y-89255546D01*
G37*
G36*
X176643512Y-89273927D02*
G01*
X176792812Y-89303624D01*
X176956784Y-89371544D01*
X177104354Y-89470147D01*
X177229853Y-89595646D01*
X177328456Y-89743216D01*
X177396376Y-89907188D01*
X177425430Y-90053255D01*
X177431000Y-90081258D01*
X177431000Y-90258742D01*
X177428071Y-90273466D01*
X177396376Y-90432812D01*
X177328456Y-90596784D01*
X177229853Y-90744354D01*
X177104354Y-90869853D01*
X176956784Y-90968456D01*
X176792812Y-91036376D01*
X176643512Y-91066073D01*
X176618742Y-91071000D01*
X176441258Y-91071000D01*
X176416488Y-91066073D01*
X176267188Y-91036376D01*
X176103216Y-90968456D01*
X175955646Y-90869853D01*
X175830147Y-90744354D01*
X175731544Y-90596784D01*
X175663624Y-90432812D01*
X175631929Y-90273466D01*
X175629000Y-90258742D01*
X175629000Y-90081258D01*
X175634570Y-90053255D01*
X175663624Y-89907188D01*
X175731544Y-89743216D01*
X175830147Y-89595646D01*
X175955646Y-89470147D01*
X176103216Y-89371544D01*
X176267188Y-89303624D01*
X176416488Y-89273927D01*
X176441258Y-89269000D01*
X176618742Y-89269000D01*
X176643512Y-89273927D01*
G37*
G36*
X130946601Y-89584397D02*
G01*
X130985305Y-89592096D01*
X131017340Y-89605365D01*
X131094680Y-89637400D01*
X131193115Y-89703173D01*
X131276827Y-89786885D01*
X131342600Y-89885320D01*
X131387904Y-89994696D01*
X131411000Y-90110805D01*
X131411000Y-90229195D01*
X131404143Y-90263665D01*
X131387904Y-90345305D01*
X131374635Y-90377340D01*
X131342600Y-90454680D01*
X131276827Y-90553115D01*
X131193115Y-90636827D01*
X131094680Y-90702600D01*
X131017340Y-90734635D01*
X130985305Y-90747904D01*
X130946601Y-90755603D01*
X130869195Y-90771000D01*
X130750805Y-90771000D01*
X130673399Y-90755603D01*
X130634695Y-90747904D01*
X130602660Y-90734635D01*
X130525320Y-90702600D01*
X130426885Y-90636827D01*
X130343173Y-90553115D01*
X130277400Y-90454680D01*
X130245365Y-90377340D01*
X130232096Y-90345305D01*
X130215857Y-90263665D01*
X130209000Y-90229195D01*
X130209000Y-90110805D01*
X130232096Y-89994696D01*
X130277400Y-89885320D01*
X130343173Y-89786885D01*
X130426885Y-89703173D01*
X130525320Y-89637400D01*
X130602660Y-89605365D01*
X130634695Y-89592096D01*
X130673399Y-89584397D01*
X130750805Y-89569000D01*
X130869195Y-89569000D01*
X130946601Y-89584397D01*
G37*
G36*
X169147142Y-88753242D02*
G01*
X169295101Y-88814529D01*
X169428255Y-88903499D01*
X169541501Y-89016745D01*
X169630471Y-89149899D01*
X169691758Y-89297858D01*
X169723000Y-89454925D01*
X169723000Y-89615075D01*
X169691758Y-89772142D01*
X169630471Y-89920101D01*
X169541501Y-90053255D01*
X169428255Y-90166501D01*
X169295101Y-90255471D01*
X169147142Y-90316758D01*
X168990075Y-90348000D01*
X168829925Y-90348000D01*
X168672858Y-90316758D01*
X168524899Y-90255471D01*
X168391745Y-90166501D01*
X168278499Y-90053255D01*
X168189529Y-89920101D01*
X168128242Y-89772142D01*
X168097000Y-89615075D01*
X168097000Y-89454925D01*
X168128242Y-89297858D01*
X168189529Y-89149899D01*
X168278499Y-89016745D01*
X168391745Y-88903499D01*
X168524899Y-88814529D01*
X168672858Y-88753242D01*
X168829925Y-88722000D01*
X168990075Y-88722000D01*
X169147142Y-88753242D01*
G37*
G36*
X141207142Y-88753242D02*
G01*
X141355101Y-88814529D01*
X141488255Y-88903499D01*
X141601501Y-89016745D01*
X141690471Y-89149899D01*
X141751758Y-89297858D01*
X141783000Y-89454925D01*
X141783000Y-89615075D01*
X141751758Y-89772142D01*
X141690471Y-89920101D01*
X141601501Y-90053255D01*
X141488255Y-90166501D01*
X141355101Y-90255471D01*
X141207142Y-90316758D01*
X141050075Y-90348000D01*
X140889925Y-90348000D01*
X140732858Y-90316758D01*
X140584899Y-90255471D01*
X140451745Y-90166501D01*
X140338499Y-90053255D01*
X140249529Y-89920101D01*
X140188242Y-89772142D01*
X140157000Y-89615075D01*
X140157000Y-89454925D01*
X140188242Y-89297858D01*
X140249529Y-89149899D01*
X140338499Y-89016745D01*
X140451745Y-88903499D01*
X140584899Y-88814529D01*
X140732858Y-88753242D01*
X140889925Y-88722000D01*
X141050075Y-88722000D01*
X141207142Y-88753242D01*
G37*
G36*
X133656416Y-86619879D02*
G01*
X133847592Y-86699067D01*
X133847594Y-86699068D01*
X134019648Y-86814031D01*
X134165969Y-86960352D01*
X134257542Y-87097400D01*
X134280933Y-87132408D01*
X134360121Y-87323584D01*
X134400490Y-87526534D01*
X134400490Y-87733466D01*
X134360121Y-87936416D01*
X134293676Y-88096827D01*
X134280932Y-88127594D01*
X134165969Y-88299648D01*
X134019648Y-88445969D01*
X133847594Y-88560932D01*
X133847593Y-88560933D01*
X133847592Y-88560933D01*
X133656416Y-88640121D01*
X133453466Y-88680490D01*
X133246534Y-88680490D01*
X133043584Y-88640121D01*
X132852408Y-88560933D01*
X132852407Y-88560933D01*
X132852406Y-88560932D01*
X132680352Y-88445969D01*
X132534031Y-88299648D01*
X132419068Y-88127594D01*
X132406324Y-88096827D01*
X132339879Y-87936416D01*
X132299510Y-87733466D01*
X132299510Y-87526534D01*
X132339879Y-87323584D01*
X132419067Y-87132408D01*
X132442459Y-87097400D01*
X132534031Y-86960352D01*
X132680352Y-86814031D01*
X132852406Y-86699068D01*
X132852408Y-86699067D01*
X133043584Y-86619879D01*
X133246534Y-86579510D01*
X133453466Y-86579510D01*
X133656416Y-86619879D01*
G37*
G36*
X176643512Y-86733927D02*
G01*
X176792812Y-86763624D01*
X176956784Y-86831544D01*
X177104354Y-86930147D01*
X177229853Y-87055646D01*
X177328456Y-87203216D01*
X177396376Y-87367188D01*
X177425430Y-87513255D01*
X177431000Y-87541258D01*
X177431000Y-87718742D01*
X177428071Y-87733466D01*
X177396376Y-87892812D01*
X177328456Y-88056784D01*
X177229853Y-88204354D01*
X177104354Y-88329853D01*
X176956784Y-88428456D01*
X176792812Y-88496376D01*
X176643512Y-88526073D01*
X176618742Y-88531000D01*
X176441258Y-88531000D01*
X176416488Y-88526073D01*
X176267188Y-88496376D01*
X176103216Y-88428456D01*
X175955646Y-88329853D01*
X175830147Y-88204354D01*
X175731544Y-88056784D01*
X175663624Y-87892812D01*
X175631929Y-87733466D01*
X175629000Y-87718742D01*
X175629000Y-87541258D01*
X175634570Y-87513255D01*
X175663624Y-87367188D01*
X175731544Y-87203216D01*
X175830147Y-87055646D01*
X175955646Y-86930147D01*
X176103216Y-86831544D01*
X176267188Y-86763624D01*
X176416488Y-86733927D01*
X176441258Y-86729000D01*
X176618742Y-86729000D01*
X176643512Y-86733927D01*
G37*
G36*
X130946601Y-87044397D02*
G01*
X130985305Y-87052096D01*
X131017340Y-87065365D01*
X131094680Y-87097400D01*
X131193115Y-87163173D01*
X131276827Y-87246885D01*
X131342600Y-87345320D01*
X131387904Y-87454696D01*
X131411000Y-87570805D01*
X131411000Y-87689195D01*
X131402194Y-87733464D01*
X131387904Y-87805305D01*
X131374635Y-87837340D01*
X131342600Y-87914680D01*
X131276827Y-88013115D01*
X131193115Y-88096827D01*
X131094680Y-88162600D01*
X131017340Y-88194635D01*
X130985305Y-88207904D01*
X130946601Y-88215603D01*
X130869195Y-88231000D01*
X130750805Y-88231000D01*
X130673399Y-88215603D01*
X130634695Y-88207904D01*
X130602660Y-88194635D01*
X130525320Y-88162600D01*
X130426885Y-88096827D01*
X130343173Y-88013115D01*
X130277400Y-87914680D01*
X130245365Y-87837340D01*
X130232096Y-87805305D01*
X130217806Y-87733464D01*
X130209000Y-87689195D01*
X130209000Y-87570805D01*
X130232096Y-87454696D01*
X130277400Y-87345320D01*
X130343173Y-87246885D01*
X130426885Y-87163173D01*
X130525320Y-87097400D01*
X130602660Y-87065365D01*
X130634695Y-87052096D01*
X130673399Y-87044397D01*
X130750805Y-87029000D01*
X130869195Y-87029000D01*
X130946601Y-87044397D01*
G37*
G36*
X141207142Y-86213242D02*
G01*
X141355101Y-86274529D01*
X141488255Y-86363499D01*
X141601501Y-86476745D01*
X141690471Y-86609899D01*
X141751758Y-86757858D01*
X141783000Y-86914925D01*
X141783000Y-87075075D01*
X141751758Y-87232142D01*
X141690471Y-87380101D01*
X141601501Y-87513255D01*
X141488255Y-87626501D01*
X141355101Y-87715471D01*
X141207142Y-87776758D01*
X141050075Y-87808000D01*
X140889925Y-87808000D01*
X140732858Y-87776758D01*
X140584899Y-87715471D01*
X140451745Y-87626501D01*
X140338499Y-87513255D01*
X140249529Y-87380101D01*
X140188242Y-87232142D01*
X140157000Y-87075075D01*
X140157000Y-86914925D01*
X140188242Y-86757858D01*
X140249529Y-86609899D01*
X140338499Y-86476745D01*
X140451745Y-86363499D01*
X140584899Y-86274529D01*
X140732858Y-86213242D01*
X140889925Y-86182000D01*
X141050075Y-86182000D01*
X141207142Y-86213242D01*
G37*
G36*
X169147142Y-86213242D02*
G01*
X169295101Y-86274529D01*
X169428255Y-86363499D01*
X169541501Y-86476745D01*
X169630471Y-86609899D01*
X169691758Y-86757858D01*
X169723000Y-86914925D01*
X169723000Y-87075075D01*
X169691758Y-87232142D01*
X169630471Y-87380101D01*
X169541501Y-87513255D01*
X169428255Y-87626501D01*
X169295101Y-87715471D01*
X169147142Y-87776758D01*
X168990075Y-87808000D01*
X168829925Y-87808000D01*
X168672858Y-87776758D01*
X168524899Y-87715471D01*
X168391745Y-87626501D01*
X168278499Y-87513255D01*
X168189529Y-87380101D01*
X168128242Y-87232142D01*
X168097000Y-87075075D01*
X168097000Y-86914925D01*
X168128242Y-86757858D01*
X168189529Y-86609899D01*
X168278499Y-86476745D01*
X168391745Y-86363499D01*
X168524899Y-86274529D01*
X168672858Y-86213242D01*
X168829925Y-86182000D01*
X168990075Y-86182000D01*
X169147142Y-86213242D01*
G37*
G36*
X134400490Y-86140490D02*
G01*
X132299510Y-86140490D01*
X132299510Y-84039510D01*
X134400490Y-84039510D01*
X134400490Y-86140490D01*
G37*
G36*
X176643512Y-84193927D02*
G01*
X176792812Y-84223624D01*
X176956784Y-84291544D01*
X177104354Y-84390147D01*
X177229853Y-84515646D01*
X177328456Y-84663216D01*
X177396376Y-84827188D01*
X177431000Y-85001259D01*
X177431000Y-85178741D01*
X177396376Y-85352812D01*
X177328456Y-85516784D01*
X177229853Y-85664354D01*
X177104354Y-85789853D01*
X176956784Y-85888456D01*
X176792812Y-85956376D01*
X176643512Y-85986073D01*
X176618742Y-85991000D01*
X176441258Y-85991000D01*
X176416488Y-85986073D01*
X176267188Y-85956376D01*
X176103216Y-85888456D01*
X175955646Y-85789853D01*
X175830147Y-85664354D01*
X175731544Y-85516784D01*
X175663624Y-85352812D01*
X175629000Y-85178741D01*
X175629000Y-85001259D01*
X175663624Y-84827188D01*
X175731544Y-84663216D01*
X175830147Y-84515646D01*
X175955646Y-84390147D01*
X176103216Y-84291544D01*
X176267188Y-84223624D01*
X176416488Y-84193927D01*
X176441258Y-84189000D01*
X176618742Y-84189000D01*
X176643512Y-84193927D01*
G37*
G36*
X130946601Y-84504397D02*
G01*
X130985305Y-84512096D01*
X131017340Y-84525365D01*
X131094680Y-84557400D01*
X131193115Y-84623173D01*
X131276827Y-84706885D01*
X131342600Y-84805320D01*
X131387904Y-84914696D01*
X131411000Y-85030805D01*
X131411000Y-85149195D01*
X131395603Y-85226601D01*
X131387904Y-85265305D01*
X131374635Y-85297340D01*
X131342600Y-85374680D01*
X131276827Y-85473115D01*
X131193115Y-85556827D01*
X131094680Y-85622600D01*
X131017340Y-85654635D01*
X130985305Y-85667904D01*
X130946601Y-85675603D01*
X130869195Y-85691000D01*
X130750805Y-85691000D01*
X130673399Y-85675603D01*
X130634695Y-85667904D01*
X130602660Y-85654635D01*
X130525320Y-85622600D01*
X130426885Y-85556827D01*
X130343173Y-85473115D01*
X130277400Y-85374680D01*
X130245365Y-85297340D01*
X130232096Y-85265305D01*
X130224397Y-85226601D01*
X130209000Y-85149195D01*
X130209000Y-85030805D01*
X130232096Y-84914696D01*
X130277400Y-84805320D01*
X130343173Y-84706885D01*
X130426885Y-84623173D01*
X130525320Y-84557400D01*
X130602660Y-84525365D01*
X130634695Y-84512096D01*
X130673399Y-84504397D01*
X130750805Y-84489000D01*
X130869195Y-84489000D01*
X130946601Y-84504397D01*
G37*
G36*
X169147142Y-83673242D02*
G01*
X169295101Y-83734529D01*
X169428255Y-83823499D01*
X169541501Y-83936745D01*
X169630471Y-84069899D01*
X169691758Y-84217858D01*
X169723000Y-84374925D01*
X169723000Y-84535075D01*
X169691758Y-84692142D01*
X169630471Y-84840101D01*
X169541501Y-84973255D01*
X169428255Y-85086501D01*
X169295101Y-85175471D01*
X169147142Y-85236758D01*
X168990075Y-85268000D01*
X168829925Y-85268000D01*
X168672858Y-85236758D01*
X168524899Y-85175471D01*
X168391745Y-85086501D01*
X168278499Y-84973255D01*
X168189529Y-84840101D01*
X168128242Y-84692142D01*
X168097000Y-84535075D01*
X168097000Y-84374925D01*
X168128242Y-84217858D01*
X168189529Y-84069899D01*
X168278499Y-83936745D01*
X168391745Y-83823499D01*
X168524899Y-83734529D01*
X168672858Y-83673242D01*
X168829925Y-83642000D01*
X168990075Y-83642000D01*
X169147142Y-83673242D01*
G37*
G36*
X141207142Y-83673242D02*
G01*
X141355101Y-83734529D01*
X141488255Y-83823499D01*
X141601501Y-83936745D01*
X141690471Y-84069899D01*
X141751758Y-84217858D01*
X141783000Y-84374925D01*
X141783000Y-84535075D01*
X141751758Y-84692142D01*
X141690471Y-84840101D01*
X141601501Y-84973255D01*
X141488255Y-85086501D01*
X141355101Y-85175471D01*
X141207142Y-85236758D01*
X141050075Y-85268000D01*
X140889925Y-85268000D01*
X140732858Y-85236758D01*
X140584899Y-85175471D01*
X140451745Y-85086501D01*
X140338499Y-84973255D01*
X140249529Y-84840101D01*
X140188242Y-84692142D01*
X140157000Y-84535075D01*
X140157000Y-84374925D01*
X140188242Y-84217858D01*
X140249529Y-84069899D01*
X140338499Y-83936745D01*
X140451745Y-83823499D01*
X140584899Y-83734529D01*
X140732858Y-83673242D01*
X140889925Y-83642000D01*
X141050075Y-83642000D01*
X141207142Y-83673242D01*
G37*
G36*
X169147142Y-81133242D02*
G01*
X169295101Y-81194529D01*
X169428255Y-81283499D01*
X169541501Y-81396745D01*
X169630471Y-81529899D01*
X169691758Y-81677858D01*
X169723000Y-81834925D01*
X169723000Y-81995075D01*
X169691758Y-82152142D01*
X169630471Y-82300101D01*
X169541501Y-82433255D01*
X169428255Y-82546501D01*
X169295101Y-82635471D01*
X169147142Y-82696758D01*
X168990075Y-82728000D01*
X168829925Y-82728000D01*
X168672858Y-82696758D01*
X168524899Y-82635471D01*
X168391745Y-82546501D01*
X168278499Y-82433255D01*
X168189529Y-82300101D01*
X168128242Y-82152142D01*
X168097000Y-81995075D01*
X168097000Y-81834925D01*
X168128242Y-81677858D01*
X168189529Y-81529899D01*
X168278499Y-81396745D01*
X168391745Y-81283499D01*
X168524899Y-81194529D01*
X168672858Y-81133242D01*
X168829925Y-81102000D01*
X168990075Y-81102000D01*
X169147142Y-81133242D01*
G37*
G36*
X141207142Y-81133242D02*
G01*
X141355101Y-81194529D01*
X141488255Y-81283499D01*
X141601501Y-81396745D01*
X141690471Y-81529899D01*
X141751758Y-81677858D01*
X141783000Y-81834925D01*
X141783000Y-81995075D01*
X141751758Y-82152142D01*
X141690471Y-82300101D01*
X141601501Y-82433255D01*
X141488255Y-82546501D01*
X141355101Y-82635471D01*
X141207142Y-82696758D01*
X141050075Y-82728000D01*
X140889925Y-82728000D01*
X140732858Y-82696758D01*
X140584899Y-82635471D01*
X140451745Y-82546501D01*
X140338499Y-82433255D01*
X140249529Y-82300101D01*
X140188242Y-82152142D01*
X140157000Y-81995075D01*
X140157000Y-81834925D01*
X140188242Y-81677858D01*
X140249529Y-81529899D01*
X140338499Y-81396745D01*
X140451745Y-81283499D01*
X140584899Y-81194529D01*
X140732858Y-81133242D01*
X140889925Y-81102000D01*
X141050075Y-81102000D01*
X141207142Y-81133242D01*
G37*
G36*
X188911000Y-82231000D02*
G01*
X187009000Y-82231000D01*
X187009000Y-80329000D01*
X188911000Y-80329000D01*
X188911000Y-82231000D01*
G37*
G36*
X185697395Y-80365546D02*
G01*
X185870466Y-80437234D01*
X185870467Y-80437235D01*
X186026227Y-80541310D01*
X186158690Y-80673773D01*
X186158691Y-80673775D01*
X186262766Y-80829534D01*
X186334454Y-81002605D01*
X186371000Y-81186333D01*
X186371000Y-81373667D01*
X186334454Y-81557395D01*
X186262766Y-81730466D01*
X186262765Y-81730467D01*
X186158690Y-81886227D01*
X186026227Y-82018690D01*
X185947818Y-82071081D01*
X185870466Y-82122766D01*
X185697395Y-82194454D01*
X185513667Y-82231000D01*
X185326333Y-82231000D01*
X185142605Y-82194454D01*
X184969534Y-82122766D01*
X184892182Y-82071081D01*
X184813773Y-82018690D01*
X184681310Y-81886227D01*
X184577235Y-81730467D01*
X184577234Y-81730466D01*
X184505546Y-81557395D01*
X184469000Y-81373667D01*
X184469000Y-81186333D01*
X184505546Y-81002605D01*
X184577234Y-80829534D01*
X184681309Y-80673775D01*
X184681310Y-80673773D01*
X184813773Y-80541310D01*
X184969533Y-80437235D01*
X184969534Y-80437234D01*
X185142605Y-80365546D01*
X185326333Y-80329000D01*
X185513667Y-80329000D01*
X185697395Y-80365546D01*
G37*
G36*
X169147142Y-78593242D02*
G01*
X169295101Y-78654529D01*
X169428255Y-78743499D01*
X169541501Y-78856745D01*
X169630471Y-78989899D01*
X169691758Y-79137858D01*
X169723000Y-79294925D01*
X169723000Y-79455075D01*
X169691758Y-79612142D01*
X169630471Y-79760101D01*
X169541501Y-79893255D01*
X169428255Y-80006501D01*
X169295101Y-80095471D01*
X169147142Y-80156758D01*
X168990075Y-80188000D01*
X168829925Y-80188000D01*
X168672858Y-80156758D01*
X168524899Y-80095471D01*
X168391745Y-80006501D01*
X168278499Y-79893255D01*
X168189529Y-79760101D01*
X168128242Y-79612142D01*
X168097000Y-79455075D01*
X168097000Y-79294925D01*
X168128242Y-79137858D01*
X168189529Y-78989899D01*
X168278499Y-78856745D01*
X168391745Y-78743499D01*
X168524899Y-78654529D01*
X168672858Y-78593242D01*
X168829925Y-78562000D01*
X168990075Y-78562000D01*
X169147142Y-78593242D01*
G37*
G36*
X141207142Y-78593242D02*
G01*
X141355101Y-78654529D01*
X141488255Y-78743499D01*
X141601501Y-78856745D01*
X141690471Y-78989899D01*
X141751758Y-79137858D01*
X141783000Y-79294925D01*
X141783000Y-79455075D01*
X141751758Y-79612142D01*
X141690471Y-79760101D01*
X141601501Y-79893255D01*
X141488255Y-80006501D01*
X141355101Y-80095471D01*
X141207142Y-80156758D01*
X141050075Y-80188000D01*
X140889925Y-80188000D01*
X140732858Y-80156758D01*
X140584899Y-80095471D01*
X140451745Y-80006501D01*
X140338499Y-79893255D01*
X140249529Y-79760101D01*
X140188242Y-79612142D01*
X140157000Y-79455075D01*
X140157000Y-79294925D01*
X140188242Y-79137858D01*
X140249529Y-78989899D01*
X140338499Y-78856745D01*
X140451745Y-78743499D01*
X140584899Y-78654529D01*
X140732858Y-78593242D01*
X140889925Y-78562000D01*
X141050075Y-78562000D01*
X141207142Y-78593242D01*
G37*
G36*
X169147142Y-76053242D02*
G01*
X169295101Y-76114529D01*
X169428255Y-76203499D01*
X169541501Y-76316745D01*
X169630471Y-76449899D01*
X169691758Y-76597858D01*
X169723000Y-76754925D01*
X169723000Y-76915075D01*
X169691758Y-77072142D01*
X169630471Y-77220101D01*
X169541501Y-77353255D01*
X169428255Y-77466501D01*
X169295101Y-77555471D01*
X169147142Y-77616758D01*
X168990075Y-77648000D01*
X168829925Y-77648000D01*
X168672858Y-77616758D01*
X168524899Y-77555471D01*
X168391745Y-77466501D01*
X168278499Y-77353255D01*
X168189529Y-77220101D01*
X168128242Y-77072142D01*
X168097000Y-76915075D01*
X168097000Y-76754925D01*
X168128242Y-76597858D01*
X168189529Y-76449899D01*
X168278499Y-76316745D01*
X168391745Y-76203499D01*
X168524899Y-76114529D01*
X168672858Y-76053242D01*
X168829925Y-76022000D01*
X168990075Y-76022000D01*
X169147142Y-76053242D01*
G37*
G36*
X141207142Y-76053242D02*
G01*
X141355101Y-76114529D01*
X141488255Y-76203499D01*
X141601501Y-76316745D01*
X141690471Y-76449899D01*
X141751758Y-76597858D01*
X141783000Y-76754925D01*
X141783000Y-76915075D01*
X141751758Y-77072142D01*
X141690471Y-77220101D01*
X141601501Y-77353255D01*
X141488255Y-77466501D01*
X141355101Y-77555471D01*
X141207142Y-77616758D01*
X141050075Y-77648000D01*
X140889925Y-77648000D01*
X140732858Y-77616758D01*
X140584899Y-77555471D01*
X140451745Y-77466501D01*
X140338499Y-77353255D01*
X140249529Y-77220101D01*
X140188242Y-77072142D01*
X140157000Y-76915075D01*
X140157000Y-76754925D01*
X140188242Y-76597858D01*
X140249529Y-76449899D01*
X140338499Y-76316745D01*
X140451745Y-76203499D01*
X140584899Y-76114529D01*
X140732858Y-76053242D01*
X140889925Y-76022000D01*
X141050075Y-76022000D01*
X141207142Y-76053242D01*
G37*
G36*
X133656416Y-73919879D02*
G01*
X133847592Y-73999067D01*
X133847594Y-73999068D01*
X134019648Y-74114031D01*
X134165969Y-74260352D01*
X134257542Y-74397400D01*
X134280933Y-74432408D01*
X134360121Y-74623584D01*
X134400490Y-74826534D01*
X134400490Y-75033466D01*
X134360121Y-75236416D01*
X134328351Y-75313115D01*
X134280932Y-75427594D01*
X134165969Y-75599648D01*
X134019648Y-75745969D01*
X133847594Y-75860932D01*
X133847593Y-75860933D01*
X133847592Y-75860933D01*
X133656416Y-75940121D01*
X133453466Y-75980490D01*
X133246534Y-75980490D01*
X133043584Y-75940121D01*
X132852408Y-75860933D01*
X132852407Y-75860933D01*
X132852406Y-75860932D01*
X132680352Y-75745969D01*
X132534031Y-75599648D01*
X132419068Y-75427594D01*
X132371649Y-75313115D01*
X132339879Y-75236416D01*
X132299510Y-75033466D01*
X132299510Y-74826534D01*
X132339879Y-74623584D01*
X132419067Y-74432408D01*
X132442459Y-74397400D01*
X132534031Y-74260352D01*
X132680352Y-74114031D01*
X132852406Y-73999068D01*
X132852408Y-73999067D01*
X133043584Y-73919879D01*
X133246534Y-73879510D01*
X133453466Y-73879510D01*
X133656416Y-73919879D01*
G37*
G36*
X130946601Y-74344397D02*
G01*
X130985305Y-74352096D01*
X131017340Y-74365365D01*
X131094680Y-74397400D01*
X131193115Y-74463173D01*
X131276827Y-74546885D01*
X131342600Y-74645320D01*
X131357006Y-74680101D01*
X131387904Y-74754695D01*
X131411000Y-74870807D01*
X131411000Y-74989193D01*
X131387904Y-75105305D01*
X131374635Y-75137340D01*
X131342600Y-75214680D01*
X131276827Y-75313115D01*
X131193115Y-75396827D01*
X131094680Y-75462600D01*
X131017340Y-75494635D01*
X130985305Y-75507904D01*
X130946601Y-75515603D01*
X130869195Y-75531000D01*
X130750805Y-75531000D01*
X130673399Y-75515603D01*
X130634695Y-75507904D01*
X130602660Y-75494635D01*
X130525320Y-75462600D01*
X130426885Y-75396827D01*
X130343173Y-75313115D01*
X130277400Y-75214680D01*
X130245365Y-75137340D01*
X130232096Y-75105305D01*
X130209000Y-74989193D01*
X130209000Y-74870807D01*
X130232096Y-74754695D01*
X130262994Y-74680101D01*
X130277400Y-74645320D01*
X130343173Y-74546885D01*
X130426885Y-74463173D01*
X130525320Y-74397400D01*
X130602660Y-74365365D01*
X130634695Y-74352096D01*
X130673399Y-74344397D01*
X130750805Y-74329000D01*
X130869195Y-74329000D01*
X130946601Y-74344397D01*
G37*
G36*
X169147142Y-73513242D02*
G01*
X169295101Y-73574529D01*
X169428255Y-73663499D01*
X169541501Y-73776745D01*
X169630471Y-73909899D01*
X169691758Y-74057858D01*
X169723000Y-74214925D01*
X169723000Y-74375075D01*
X169691758Y-74532142D01*
X169630471Y-74680101D01*
X169541501Y-74813255D01*
X169428255Y-74926501D01*
X169295101Y-75015471D01*
X169147142Y-75076758D01*
X168990075Y-75108000D01*
X168829925Y-75108000D01*
X168672858Y-75076758D01*
X168524899Y-75015471D01*
X168391745Y-74926501D01*
X168278499Y-74813255D01*
X168189529Y-74680101D01*
X168128242Y-74532142D01*
X168097000Y-74375075D01*
X168097000Y-74214925D01*
X168128242Y-74057858D01*
X168189529Y-73909899D01*
X168278499Y-73776745D01*
X168391745Y-73663499D01*
X168524899Y-73574529D01*
X168672858Y-73513242D01*
X168829925Y-73482000D01*
X168990075Y-73482000D01*
X169147142Y-73513242D01*
G37*
G36*
X141207142Y-73513242D02*
G01*
X141355101Y-73574529D01*
X141488255Y-73663499D01*
X141601501Y-73776745D01*
X141690471Y-73909899D01*
X141751758Y-74057858D01*
X141783000Y-74214925D01*
X141783000Y-74375075D01*
X141751758Y-74532142D01*
X141690471Y-74680101D01*
X141601501Y-74813255D01*
X141488255Y-74926501D01*
X141355101Y-75015471D01*
X141207142Y-75076758D01*
X141050075Y-75108000D01*
X140889925Y-75108000D01*
X140732858Y-75076758D01*
X140584899Y-75015471D01*
X140451745Y-74926501D01*
X140338499Y-74813255D01*
X140249529Y-74680101D01*
X140188242Y-74532142D01*
X140157000Y-74375075D01*
X140157000Y-74214925D01*
X140188242Y-74057858D01*
X140249529Y-73909899D01*
X140338499Y-73776745D01*
X140451745Y-73663499D01*
X140584899Y-73574529D01*
X140732858Y-73513242D01*
X140889925Y-73482000D01*
X141050075Y-73482000D01*
X141207142Y-73513242D01*
G37*
G36*
X133656416Y-71379879D02*
G01*
X133847592Y-71459067D01*
X133847594Y-71459068D01*
X134019648Y-71574031D01*
X134165969Y-71720352D01*
X134257542Y-71857400D01*
X134280933Y-71892408D01*
X134360121Y-72083584D01*
X134400490Y-72286534D01*
X134400490Y-72493466D01*
X134360121Y-72696416D01*
X134328351Y-72773115D01*
X134280932Y-72887594D01*
X134165969Y-73059648D01*
X134019648Y-73205969D01*
X133847594Y-73320932D01*
X133847593Y-73320933D01*
X133847592Y-73320933D01*
X133656416Y-73400121D01*
X133453466Y-73440490D01*
X133246534Y-73440490D01*
X133043584Y-73400121D01*
X132852408Y-73320933D01*
X132852407Y-73320933D01*
X132852406Y-73320932D01*
X132680352Y-73205969D01*
X132534031Y-73059648D01*
X132419068Y-72887594D01*
X132371649Y-72773115D01*
X132339879Y-72696416D01*
X132299510Y-72493466D01*
X132299510Y-72286534D01*
X132339879Y-72083584D01*
X132419067Y-71892408D01*
X132442459Y-71857400D01*
X132534031Y-71720352D01*
X132680352Y-71574031D01*
X132852406Y-71459068D01*
X132852408Y-71459067D01*
X133043584Y-71379879D01*
X133246534Y-71339510D01*
X133453466Y-71339510D01*
X133656416Y-71379879D01*
G37*
G36*
X190356903Y-70679075D02*
G01*
X190584571Y-70773378D01*
X190789466Y-70910285D01*
X190963715Y-71084534D01*
X190963716Y-71084536D01*
X191100623Y-71289431D01*
X191194925Y-71517097D01*
X191243000Y-71758786D01*
X191243000Y-72005214D01*
X191227411Y-72083583D01*
X191194925Y-72246903D01*
X191100622Y-72474571D01*
X190963715Y-72679466D01*
X190789466Y-72853715D01*
X190584571Y-72990622D01*
X190584570Y-72990623D01*
X190584569Y-72990623D01*
X190356903Y-73084925D01*
X190115214Y-73133000D01*
X189868786Y-73133000D01*
X189627097Y-73084925D01*
X189399431Y-72990623D01*
X189399430Y-72990623D01*
X189399429Y-72990622D01*
X189194534Y-72853715D01*
X189020285Y-72679466D01*
X188883378Y-72474571D01*
X188789075Y-72246903D01*
X188756589Y-72083583D01*
X188741000Y-72005214D01*
X188741000Y-71758786D01*
X188789075Y-71517097D01*
X188883377Y-71289431D01*
X189020284Y-71084536D01*
X189020285Y-71084534D01*
X189194534Y-70910285D01*
X189399429Y-70773378D01*
X189627097Y-70679075D01*
X189868786Y-70631000D01*
X190115214Y-70631000D01*
X190356903Y-70679075D01*
G37*
G36*
X184006903Y-70679075D02*
G01*
X184234571Y-70773378D01*
X184439466Y-70910285D01*
X184613715Y-71084534D01*
X184613716Y-71084536D01*
X184750623Y-71289431D01*
X184844925Y-71517097D01*
X184893000Y-71758786D01*
X184893000Y-72005214D01*
X184877411Y-72083583D01*
X184844925Y-72246903D01*
X184750622Y-72474571D01*
X184613715Y-72679466D01*
X184439466Y-72853715D01*
X184234571Y-72990622D01*
X184234570Y-72990623D01*
X184234569Y-72990623D01*
X184006903Y-73084925D01*
X183765214Y-73133000D01*
X183518786Y-73133000D01*
X183277097Y-73084925D01*
X183049431Y-72990623D01*
X183049430Y-72990623D01*
X183049429Y-72990622D01*
X182844534Y-72853715D01*
X182670285Y-72679466D01*
X182533378Y-72474571D01*
X182439075Y-72246903D01*
X182406589Y-72083583D01*
X182391000Y-72005214D01*
X182391000Y-71758786D01*
X182439075Y-71517097D01*
X182533377Y-71289431D01*
X182670284Y-71084536D01*
X182670285Y-71084534D01*
X182844534Y-70910285D01*
X183049429Y-70773378D01*
X183277097Y-70679075D01*
X183518786Y-70631000D01*
X183765214Y-70631000D01*
X184006903Y-70679075D01*
G37*
G36*
X130946601Y-71804397D02*
G01*
X130985305Y-71812096D01*
X131017340Y-71825365D01*
X131094680Y-71857400D01*
X131193115Y-71923173D01*
X131276827Y-72006885D01*
X131342600Y-72105320D01*
X131387904Y-72214696D01*
X131411000Y-72330805D01*
X131411000Y-72449195D01*
X131387904Y-72565304D01*
X131342600Y-72674680D01*
X131276827Y-72773115D01*
X131193115Y-72856827D01*
X131094680Y-72922600D01*
X131017340Y-72954635D01*
X130985305Y-72967904D01*
X130946601Y-72975603D01*
X130869195Y-72991000D01*
X130750805Y-72991000D01*
X130673399Y-72975603D01*
X130634695Y-72967904D01*
X130602660Y-72954635D01*
X130525320Y-72922600D01*
X130426885Y-72856827D01*
X130343173Y-72773115D01*
X130277400Y-72674680D01*
X130232096Y-72565304D01*
X130209000Y-72449195D01*
X130209000Y-72330805D01*
X130232096Y-72214696D01*
X130277400Y-72105320D01*
X130343173Y-72006885D01*
X130426885Y-71923173D01*
X130525320Y-71857400D01*
X130602660Y-71825365D01*
X130634695Y-71812096D01*
X130673399Y-71804397D01*
X130750805Y-71789000D01*
X130869195Y-71789000D01*
X130946601Y-71804397D01*
G37*
G36*
X134400490Y-70900490D02*
G01*
X132299510Y-70900490D01*
X132299510Y-68799510D01*
X134400490Y-68799510D01*
X134400490Y-70900490D01*
G37*
G36*
X130946601Y-69264397D02*
G01*
X130985305Y-69272096D01*
X131017340Y-69285365D01*
X131094680Y-69317400D01*
X131193115Y-69383173D01*
X131276827Y-69466885D01*
X131342600Y-69565320D01*
X131387904Y-69674696D01*
X131411000Y-69790805D01*
X131411000Y-69909195D01*
X131387904Y-70025304D01*
X131342600Y-70134680D01*
X131276827Y-70233115D01*
X131193115Y-70316827D01*
X131094680Y-70382600D01*
X131017340Y-70414635D01*
X130985305Y-70427904D01*
X130946601Y-70435603D01*
X130869195Y-70451000D01*
X130750805Y-70451000D01*
X130673399Y-70435603D01*
X130634695Y-70427904D01*
X130602660Y-70414635D01*
X130525320Y-70382600D01*
X130426885Y-70316827D01*
X130343173Y-70233115D01*
X130277400Y-70134680D01*
X130232096Y-70025304D01*
X130209000Y-69909195D01*
X130209000Y-69790805D01*
X130232096Y-69674696D01*
X130277400Y-69565320D01*
X130343173Y-69466885D01*
X130426885Y-69383173D01*
X130525320Y-69317400D01*
X130602660Y-69285365D01*
X130634695Y-69272096D01*
X130673399Y-69264397D01*
X130750805Y-69249000D01*
X130869195Y-69249000D01*
X130946601Y-69264397D01*
G37*
G36*
X179305000Y-63608000D02*
G01*
X176803000Y-63608000D01*
X176803000Y-61106000D01*
X179305000Y-61106000D01*
X179305000Y-63608000D01*
G37*
G36*
X174918903Y-61154075D02*
G01*
X175146571Y-61248378D01*
X175351466Y-61385285D01*
X175525715Y-61559534D01*
X175662622Y-61764429D01*
X175756925Y-61992097D01*
X175805000Y-62233787D01*
X175805000Y-62480213D01*
X175756925Y-62721903D01*
X175662622Y-62949571D01*
X175525715Y-63154466D01*
X175351466Y-63328715D01*
X175146571Y-63465622D01*
X175146570Y-63465623D01*
X175146569Y-63465623D01*
X174918903Y-63559925D01*
X174677214Y-63608000D01*
X174430786Y-63608000D01*
X174189097Y-63559925D01*
X173961431Y-63465623D01*
X173961430Y-63465623D01*
X173961429Y-63465622D01*
X173756534Y-63328715D01*
X173582285Y-63154466D01*
X173445378Y-62949571D01*
X173351075Y-62721903D01*
X173303000Y-62480213D01*
X173303000Y-62233787D01*
X173351075Y-61992097D01*
X173445378Y-61764429D01*
X173582285Y-61559534D01*
X173756534Y-61385285D01*
X173961429Y-61248378D01*
X174189097Y-61154075D01*
X174430786Y-61106000D01*
X174677214Y-61106000D01*
X174918903Y-61154075D01*
G37*
G36*
X138210490Y-62010490D02*
G01*
X136109510Y-62010490D01*
X136109510Y-59909510D01*
X138210490Y-59909510D01*
X138210490Y-62010490D01*
G37*
G36*
X134926416Y-59949879D02*
G01*
X135117592Y-60029067D01*
X135117594Y-60029068D01*
X135289648Y-60144031D01*
X135435969Y-60290352D01*
X135531284Y-60433000D01*
X135550933Y-60462408D01*
X135630121Y-60653584D01*
X135670490Y-60856534D01*
X135670490Y-61063466D01*
X135630121Y-61266416D01*
X135550933Y-61457592D01*
X135550932Y-61457594D01*
X135435969Y-61629648D01*
X135289648Y-61775969D01*
X135117594Y-61890932D01*
X135117593Y-61890933D01*
X135117592Y-61890933D01*
X134926416Y-61970121D01*
X134723466Y-62010490D01*
X134516534Y-62010490D01*
X134313584Y-61970121D01*
X134122408Y-61890933D01*
X134122407Y-61890933D01*
X134122406Y-61890932D01*
X133950352Y-61775969D01*
X133804031Y-61629648D01*
X133689068Y-61457594D01*
X133689067Y-61457592D01*
X133609879Y-61266416D01*
X133569510Y-61063466D01*
X133569510Y-60856534D01*
X133609879Y-60653584D01*
X133689067Y-60462408D01*
X133708717Y-60433000D01*
X133804031Y-60290352D01*
X133950352Y-60144031D01*
X134122406Y-60029068D01*
X134122408Y-60029067D01*
X134313584Y-59949879D01*
X134516534Y-59909510D01*
X134723466Y-59909510D01*
X134926416Y-59949879D01*
G37*
G36*
X132386416Y-59949879D02*
G01*
X132577592Y-60029067D01*
X132577594Y-60029068D01*
X132749648Y-60144031D01*
X132895969Y-60290352D01*
X132991284Y-60433000D01*
X133010933Y-60462408D01*
X133090121Y-60653584D01*
X133130490Y-60856534D01*
X133130490Y-61063466D01*
X133090121Y-61266416D01*
X133010933Y-61457592D01*
X133010932Y-61457594D01*
X132895969Y-61629648D01*
X132749648Y-61775969D01*
X132577594Y-61890932D01*
X132577593Y-61890933D01*
X132577592Y-61890933D01*
X132386416Y-61970121D01*
X132183466Y-62010490D01*
X131976534Y-62010490D01*
X131773584Y-61970121D01*
X131582408Y-61890933D01*
X131582407Y-61890933D01*
X131582406Y-61890932D01*
X131410352Y-61775969D01*
X131264031Y-61629648D01*
X131149068Y-61457594D01*
X131149067Y-61457592D01*
X131069879Y-61266416D01*
X131029510Y-61063466D01*
X131029510Y-60856534D01*
X131069879Y-60653584D01*
X131149067Y-60462408D01*
X131168717Y-60433000D01*
X131264031Y-60290352D01*
X131410352Y-60144031D01*
X131582406Y-60029068D01*
X131582408Y-60029067D01*
X131773584Y-59949879D01*
X131976534Y-59909510D01*
X132183466Y-59909510D01*
X132386416Y-59949879D01*
G37*
G36*
X148221000Y-60591000D02*
G01*
X146419000Y-60591000D01*
X146419000Y-58789000D01*
X148221000Y-58789000D01*
X148221000Y-60591000D01*
G37*
G36*
X152513512Y-58793927D02*
G01*
X152662812Y-58823624D01*
X152826784Y-58891544D01*
X152974354Y-58990147D01*
X153099853Y-59115646D01*
X153198456Y-59263216D01*
X153266376Y-59427188D01*
X153301000Y-59601259D01*
X153301000Y-59778741D01*
X153266376Y-59952812D01*
X153198456Y-60116784D01*
X153099853Y-60264354D01*
X152974354Y-60389853D01*
X152826784Y-60488456D01*
X152662812Y-60556376D01*
X152513512Y-60586073D01*
X152488742Y-60591000D01*
X152311258Y-60591000D01*
X152286488Y-60586073D01*
X152137188Y-60556376D01*
X151973216Y-60488456D01*
X151825646Y-60389853D01*
X151700147Y-60264354D01*
X151601544Y-60116784D01*
X151533624Y-59952812D01*
X151499000Y-59778741D01*
X151499000Y-59601259D01*
X151533624Y-59427188D01*
X151601544Y-59263216D01*
X151700147Y-59115646D01*
X151825646Y-58990147D01*
X151973216Y-58891544D01*
X152137188Y-58823624D01*
X152286488Y-58793927D01*
X152311258Y-58789000D01*
X152488742Y-58789000D01*
X152513512Y-58793927D01*
G37*
G36*
X155053512Y-58793927D02*
G01*
X155202812Y-58823624D01*
X155366784Y-58891544D01*
X155514354Y-58990147D01*
X155639853Y-59115646D01*
X155738456Y-59263216D01*
X155806376Y-59427188D01*
X155841000Y-59601259D01*
X155841000Y-59778741D01*
X155806376Y-59952812D01*
X155738456Y-60116784D01*
X155639853Y-60264354D01*
X155514354Y-60389853D01*
X155366784Y-60488456D01*
X155202812Y-60556376D01*
X155053512Y-60586073D01*
X155028742Y-60591000D01*
X154851258Y-60591000D01*
X154826488Y-60586073D01*
X154677188Y-60556376D01*
X154513216Y-60488456D01*
X154365646Y-60389853D01*
X154240147Y-60264354D01*
X154141544Y-60116784D01*
X154073624Y-59952812D01*
X154039000Y-59778741D01*
X154039000Y-59601259D01*
X154073624Y-59427188D01*
X154141544Y-59263216D01*
X154240147Y-59115646D01*
X154365646Y-58990147D01*
X154513216Y-58891544D01*
X154677188Y-58823624D01*
X154826488Y-58793927D01*
X154851258Y-58789000D01*
X155028742Y-58789000D01*
X155053512Y-58793927D01*
G37*
G36*
X157593512Y-58793927D02*
G01*
X157742812Y-58823624D01*
X157906784Y-58891544D01*
X158054354Y-58990147D01*
X158179853Y-59115646D01*
X158278456Y-59263216D01*
X158346376Y-59427188D01*
X158381000Y-59601259D01*
X158381000Y-59778741D01*
X158346376Y-59952812D01*
X158278456Y-60116784D01*
X158179853Y-60264354D01*
X158054354Y-60389853D01*
X157906784Y-60488456D01*
X157742812Y-60556376D01*
X157593512Y-60586073D01*
X157568742Y-60591000D01*
X157391258Y-60591000D01*
X157366488Y-60586073D01*
X157217188Y-60556376D01*
X157053216Y-60488456D01*
X156905646Y-60389853D01*
X156780147Y-60264354D01*
X156681544Y-60116784D01*
X156613624Y-59952812D01*
X156579000Y-59778741D01*
X156579000Y-59601259D01*
X156613624Y-59427188D01*
X156681544Y-59263216D01*
X156780147Y-59115646D01*
X156905646Y-58990147D01*
X157053216Y-58891544D01*
X157217188Y-58823624D01*
X157366488Y-58793927D01*
X157391258Y-58789000D01*
X157568742Y-58789000D01*
X157593512Y-58793927D01*
G37*
G36*
X149973512Y-58793927D02*
G01*
X150122812Y-58823624D01*
X150286784Y-58891544D01*
X150434354Y-58990147D01*
X150559853Y-59115646D01*
X150658456Y-59263216D01*
X150726376Y-59427188D01*
X150761000Y-59601259D01*
X150761000Y-59778741D01*
X150726376Y-59952812D01*
X150658456Y-60116784D01*
X150559853Y-60264354D01*
X150434354Y-60389853D01*
X150286784Y-60488456D01*
X150122812Y-60556376D01*
X149973512Y-60586073D01*
X149948742Y-60591000D01*
X149771258Y-60591000D01*
X149746488Y-60586073D01*
X149597188Y-60556376D01*
X149433216Y-60488456D01*
X149285646Y-60389853D01*
X149160147Y-60264354D01*
X149061544Y-60116784D01*
X148993624Y-59952812D01*
X148959000Y-59778741D01*
X148959000Y-59601259D01*
X148993624Y-59427188D01*
X149061544Y-59263216D01*
X149160147Y-59115646D01*
X149285646Y-58990147D01*
X149433216Y-58891544D01*
X149597188Y-58823624D01*
X149746488Y-58793927D01*
X149771258Y-58789000D01*
X149948742Y-58789000D01*
X149973512Y-58793927D01*
G37*
G36*
X183876685Y-57953173D02*
G01*
X184006903Y-57979075D01*
X184234571Y-58073378D01*
X184439466Y-58210285D01*
X184613715Y-58384534D01*
X184750622Y-58589429D01*
X184750623Y-58589431D01*
X184844925Y-58817097D01*
X184893000Y-59058786D01*
X184893000Y-59305214D01*
X184844925Y-59546903D01*
X184822411Y-59601258D01*
X184750622Y-59774571D01*
X184613715Y-59979466D01*
X184439466Y-60153715D01*
X184234571Y-60290622D01*
X184234570Y-60290623D01*
X184234569Y-60290623D01*
X184006903Y-60384925D01*
X183765214Y-60433000D01*
X183518786Y-60433000D01*
X183277097Y-60384925D01*
X183049431Y-60290623D01*
X183049430Y-60290623D01*
X183049429Y-60290622D01*
X182844534Y-60153715D01*
X182670285Y-59979466D01*
X182533378Y-59774571D01*
X182461590Y-59601258D01*
X182439075Y-59546903D01*
X182391000Y-59305214D01*
X182391000Y-59058786D01*
X182439075Y-58817097D01*
X182533377Y-58589431D01*
X182533378Y-58589429D01*
X182670285Y-58384534D01*
X182844534Y-58210285D01*
X183049429Y-58073378D01*
X183277097Y-57979075D01*
X183407315Y-57953173D01*
X183518786Y-57931000D01*
X183765214Y-57931000D01*
X183876685Y-57953173D01*
G37*
G36*
X190226685Y-57953173D02*
G01*
X190356903Y-57979075D01*
X190584571Y-58073378D01*
X190789466Y-58210285D01*
X190963715Y-58384534D01*
X191100622Y-58589429D01*
X191100623Y-58589431D01*
X191194925Y-58817097D01*
X191243000Y-59058786D01*
X191243000Y-59305214D01*
X191194925Y-59546903D01*
X191172411Y-59601258D01*
X191100622Y-59774571D01*
X190963715Y-59979466D01*
X190789466Y-60153715D01*
X190584571Y-60290622D01*
X190584570Y-60290623D01*
X190584569Y-60290623D01*
X190356903Y-60384925D01*
X190115214Y-60433000D01*
X189868786Y-60433000D01*
X189627097Y-60384925D01*
X189399431Y-60290623D01*
X189399430Y-60290623D01*
X189399429Y-60290622D01*
X189194534Y-60153715D01*
X189020285Y-59979466D01*
X188883378Y-59774571D01*
X188811590Y-59601258D01*
X188789075Y-59546903D01*
X188741000Y-59305214D01*
X188741000Y-59058786D01*
X188789075Y-58817097D01*
X188883377Y-58589431D01*
X188883378Y-58589429D01*
X189020285Y-58384534D01*
X189194534Y-58210285D01*
X189399429Y-58073378D01*
X189627097Y-57979075D01*
X189757315Y-57953173D01*
X189868786Y-57931000D01*
X190115214Y-57931000D01*
X190226685Y-57953173D01*
G37*
G36*
X137296601Y-57834397D02*
G01*
X137335305Y-57842096D01*
X137367340Y-57855365D01*
X137444680Y-57887400D01*
X137543115Y-57953173D01*
X137626827Y-58036885D01*
X137692600Y-58135320D01*
X137737904Y-58244696D01*
X137761000Y-58360805D01*
X137761000Y-58479195D01*
X137737904Y-58595304D01*
X137692600Y-58704680D01*
X137626827Y-58803115D01*
X137543115Y-58886827D01*
X137444680Y-58952600D01*
X137367340Y-58984635D01*
X137335305Y-58997904D01*
X137296601Y-59005603D01*
X137219195Y-59021000D01*
X137100805Y-59021000D01*
X137023399Y-59005603D01*
X136984695Y-58997904D01*
X136952660Y-58984635D01*
X136875320Y-58952600D01*
X136776885Y-58886827D01*
X136693173Y-58803115D01*
X136627400Y-58704680D01*
X136582096Y-58595304D01*
X136559000Y-58479195D01*
X136559000Y-58360805D01*
X136582096Y-58244696D01*
X136627400Y-58135320D01*
X136693173Y-58036885D01*
X136776885Y-57953173D01*
X136875320Y-57887400D01*
X136952660Y-57855365D01*
X136984695Y-57842096D01*
X137023399Y-57834397D01*
X137100805Y-57819000D01*
X137219195Y-57819000D01*
X137296601Y-57834397D01*
G37*
G36*
X132216601Y-57834397D02*
G01*
X132255305Y-57842096D01*
X132287340Y-57855365D01*
X132364680Y-57887400D01*
X132463115Y-57953173D01*
X132546827Y-58036885D01*
X132612600Y-58135320D01*
X132657904Y-58244696D01*
X132681000Y-58360805D01*
X132681000Y-58479195D01*
X132657904Y-58595304D01*
X132612600Y-58704680D01*
X132546827Y-58803115D01*
X132463115Y-58886827D01*
X132364680Y-58952600D01*
X132287340Y-58984635D01*
X132255305Y-58997904D01*
X132216601Y-59005603D01*
X132139195Y-59021000D01*
X132020805Y-59021000D01*
X131943399Y-59005603D01*
X131904695Y-58997904D01*
X131872660Y-58984635D01*
X131795320Y-58952600D01*
X131696885Y-58886827D01*
X131613173Y-58803115D01*
X131547400Y-58704680D01*
X131502096Y-58595304D01*
X131479000Y-58479195D01*
X131479000Y-58360805D01*
X131502096Y-58244696D01*
X131547400Y-58135320D01*
X131613173Y-58036885D01*
X131696885Y-57953173D01*
X131795320Y-57887400D01*
X131872660Y-57855365D01*
X131904695Y-57842096D01*
X131943399Y-57834397D01*
X132020805Y-57819000D01*
X132139195Y-57819000D01*
X132216601Y-57834397D01*
G37*
G36*
X134756601Y-57834397D02*
G01*
X134795305Y-57842096D01*
X134827340Y-57855365D01*
X134904680Y-57887400D01*
X135003115Y-57953173D01*
X135086827Y-58036885D01*
X135152600Y-58135320D01*
X135197904Y-58244696D01*
X135221000Y-58360805D01*
X135221000Y-58479195D01*
X135197904Y-58595304D01*
X135152600Y-58704680D01*
X135086827Y-58803115D01*
X135003115Y-58886827D01*
X134904680Y-58952600D01*
X134827340Y-58984635D01*
X134795305Y-58997904D01*
X134756601Y-59005603D01*
X134679195Y-59021000D01*
X134560805Y-59021000D01*
X134483399Y-59005603D01*
X134444695Y-58997904D01*
X134412660Y-58984635D01*
X134335320Y-58952600D01*
X134236885Y-58886827D01*
X134153173Y-58803115D01*
X134087400Y-58704680D01*
X134042096Y-58595304D01*
X134019000Y-58479195D01*
X134019000Y-58360805D01*
X134042096Y-58244696D01*
X134087400Y-58135320D01*
X134153173Y-58036885D01*
X134236885Y-57953173D01*
X134335320Y-57887400D01*
X134412660Y-57855365D01*
X134444695Y-57842096D01*
X134483399Y-57834397D01*
X134560805Y-57819000D01*
X134679195Y-57819000D01*
X134756601Y-57834397D01*
G37*
M02*
