G04 #@! TF.GenerationSoftware,KiCad,Pcbnew,(5.1.5)-3*
G04 #@! TF.CreationDate,2021-07-04T23:47:11+02:00*
G04 #@! TF.ProjectId,RGB_Treppe,5247425f-5472-4657-9070-652e6b696361,rev?*
G04 #@! TF.SameCoordinates,Original*
G04 #@! TF.FileFunction,Copper,L1,Top*
G04 #@! TF.FilePolarity,Positive*
%FSLAX46Y46*%
G04 Gerber Fmt 4.6, Leading zero omitted, Abs format (unit mm)*
G04 Created by KiCad (PCBNEW (5.1.5)-3) date 2021-07-04 23:47:11*
%MOMM*%
%LPD*%
G04 APERTURE LIST*
%ADD10C,1.800000*%
%ADD11R,1.800000X1.800000*%
%ADD12O,1.998980X1.998980*%
%ADD13R,1.998980X1.998980*%
%ADD14O,1.700000X1.700000*%
%ADD15R,1.700000X1.700000*%
%ADD16R,2.400000X2.400000*%
%ADD17C,2.400000*%
%ADD18O,2.400000X2.400000*%
%ADD19C,1.524000*%
%ADD20C,0.500000*%
%ADD21C,1.200000*%
%ADD22C,0.254000*%
G04 APERTURE END LIST*
D10*
X185420000Y-81280000D03*
D11*
X187960000Y-81280000D03*
X187960000Y-90170000D03*
D10*
X185420000Y-90170000D03*
X185420000Y-99060000D03*
D11*
X187960000Y-99060000D03*
D12*
X134620000Y-60960000D03*
D13*
X137160000Y-60960000D03*
D12*
X132080000Y-60960000D03*
X133350000Y-74930000D03*
D13*
X133350000Y-69850000D03*
D12*
X133350000Y-72390000D03*
X133350000Y-87630000D03*
D13*
X133350000Y-85090000D03*
D12*
X133350000Y-90170000D03*
D13*
X133350000Y-100330000D03*
D12*
X133350000Y-102870000D03*
D14*
X176530000Y-120650000D03*
X176530000Y-118110000D03*
X176530000Y-115570000D03*
D15*
X176530000Y-113030000D03*
D16*
X178054000Y-62357000D03*
D17*
X174554000Y-62357000D03*
D14*
X176530000Y-85090000D03*
X176530000Y-87630000D03*
X176530000Y-90170000D03*
X176530000Y-92710000D03*
X176530000Y-95250000D03*
X176530000Y-97790000D03*
X176530000Y-100330000D03*
D15*
X176530000Y-102870000D03*
D18*
X135890000Y-107950000D03*
D17*
X135890000Y-120650000D03*
X189992000Y-59182000D03*
D18*
X189992000Y-71882000D03*
D19*
X140970000Y-74295000D03*
X140970000Y-76835000D03*
X140970000Y-79375000D03*
X140970000Y-81915000D03*
X140970000Y-84455000D03*
X140970000Y-86995000D03*
X140970000Y-89535000D03*
X140970000Y-92075000D03*
X140970000Y-94615000D03*
X140970000Y-97155000D03*
X140970000Y-99695000D03*
X140970000Y-102235000D03*
X140970000Y-104775000D03*
X140970000Y-107315000D03*
X140970000Y-109855000D03*
X168910000Y-109855000D03*
X168910000Y-107315000D03*
X168910000Y-104775000D03*
X168910000Y-102235000D03*
X168910000Y-99695000D03*
X168910000Y-97155000D03*
X168910000Y-94615000D03*
X168910000Y-92075000D03*
X168910000Y-89535000D03*
X168910000Y-86995000D03*
X168910000Y-84455000D03*
X168910000Y-81915000D03*
X168910000Y-79375000D03*
X168910000Y-76835000D03*
X168910000Y-74295000D03*
D14*
X157480000Y-59690000D03*
X154940000Y-59690000D03*
X152400000Y-59690000D03*
X149860000Y-59690000D03*
D15*
X147320000Y-59690000D03*
D17*
X183642000Y-59182000D03*
D18*
X183642000Y-71882000D03*
X184912000Y-120650000D03*
D17*
X184912000Y-107950000D03*
D20*
X187960000Y-76200000D02*
X187960000Y-81280000D01*
X183642000Y-71882000D02*
X187960000Y-76200000D01*
D21*
X174554000Y-62357000D02*
X170307000Y-62357000D01*
X170307000Y-62357000D02*
X162560000Y-54610000D01*
X162560000Y-54610000D02*
X144145000Y-54610000D01*
X144145000Y-54610000D02*
X142875000Y-55880000D01*
X142875000Y-55880000D02*
X142875000Y-63500000D01*
X142875000Y-63500000D02*
X140335000Y-66040000D01*
X140335000Y-66040000D02*
X137160000Y-66040000D01*
X134620000Y-63500000D02*
X134620000Y-60960000D01*
X137160000Y-66040000D02*
X134620000Y-63500000D01*
D20*
X132080000Y-119380000D02*
X132080000Y-104140000D01*
X132080000Y-104140000D02*
X133350000Y-102870000D01*
X135890000Y-120650000D02*
X133350000Y-120650000D01*
X133350000Y-120650000D02*
X132080000Y-119380000D01*
X138811000Y-74295000D02*
X140970000Y-74295000D01*
X137795000Y-99838492D02*
X137795000Y-75311000D01*
X137795000Y-75311000D02*
X138811000Y-74295000D01*
X133350000Y-102870000D02*
X134763492Y-102870000D01*
X134763492Y-102870000D02*
X137795000Y-99838492D01*
X168910000Y-71120000D02*
X168910000Y-74295000D01*
X157480000Y-59690000D02*
X168910000Y-71120000D01*
X154940000Y-88265000D02*
X168910000Y-102235000D01*
X154940000Y-59690000D02*
X154940000Y-88265000D01*
X152400000Y-88265000D02*
X168910000Y-104775000D01*
X152400000Y-59690000D02*
X152400000Y-88265000D01*
X149860000Y-95885000D02*
X140970000Y-104775000D01*
X149860000Y-59690000D02*
X149860000Y-95885000D01*
X147320000Y-95885000D02*
X140970000Y-102235000D01*
X147320000Y-59690000D02*
X147320000Y-95885000D01*
X180975000Y-81280000D02*
X185420000Y-81280000D01*
X168910000Y-76835000D02*
X176530000Y-76835000D01*
X176530000Y-76835000D02*
X180975000Y-81280000D01*
X189360000Y-90170000D02*
X187960000Y-90170000D01*
X191191999Y-88338001D02*
X189360000Y-90170000D01*
X191191999Y-73081999D02*
X191191999Y-88338001D01*
X189992000Y-71882000D02*
X191191999Y-73081999D01*
X180721000Y-88773000D02*
X182118000Y-90170000D01*
X180721000Y-83566000D02*
X180721000Y-88773000D01*
X182118000Y-90170000D02*
X185420000Y-90170000D01*
X168910000Y-79375000D02*
X176530000Y-79375000D01*
X176530000Y-79375000D02*
X180721000Y-83566000D01*
X169987630Y-99695000D02*
X172720000Y-102427370D01*
X168910000Y-99695000D02*
X169987630Y-99695000D01*
X172720000Y-102427370D02*
X172720000Y-104140000D01*
X172720000Y-104140000D02*
X175260000Y-106680000D01*
X175260000Y-106680000D02*
X177800000Y-106680000D01*
X177800000Y-106680000D02*
X180340000Y-104140000D01*
X180340000Y-104140000D02*
X180340000Y-100330000D01*
X181610000Y-99060000D02*
X185420000Y-99060000D01*
X180340000Y-100330000D02*
X181610000Y-99060000D01*
X184912000Y-118952944D02*
X187960000Y-115904944D01*
X184912000Y-120650000D02*
X184912000Y-118952944D01*
X187960000Y-115904944D02*
X187960000Y-99060000D01*
D22*
G36*
X193625001Y-125045000D02*
G01*
X122605000Y-125045000D01*
X122605000Y-121677305D01*
X123265872Y-121677305D01*
X123265872Y-122162695D01*
X123360567Y-122638760D01*
X123546318Y-123087202D01*
X123815987Y-123490790D01*
X124159210Y-123834013D01*
X124562798Y-124103682D01*
X125011240Y-124289433D01*
X125487305Y-124384128D01*
X125972695Y-124384128D01*
X126448760Y-124289433D01*
X126897202Y-124103682D01*
X127300790Y-123834013D01*
X127644013Y-123490790D01*
X127913682Y-123087202D01*
X128099433Y-122638760D01*
X128194128Y-122162695D01*
X128194128Y-121677305D01*
X128099433Y-121201240D01*
X127913682Y-120752798D01*
X127644013Y-120349210D01*
X127300790Y-120005987D01*
X126897202Y-119736318D01*
X126448760Y-119550567D01*
X125972695Y-119455872D01*
X125487305Y-119455872D01*
X125011240Y-119550567D01*
X124562798Y-119736318D01*
X124159210Y-120005987D01*
X123815987Y-120349210D01*
X123546318Y-120752798D01*
X123360567Y-121201240D01*
X123265872Y-121677305D01*
X122605000Y-121677305D01*
X122605000Y-100213288D01*
X129625000Y-100213288D01*
X129625000Y-100446712D01*
X129670539Y-100675652D01*
X129759866Y-100891308D01*
X129889550Y-101085394D01*
X130054606Y-101250450D01*
X130248692Y-101380134D01*
X130464348Y-101469461D01*
X130693288Y-101515000D01*
X130926712Y-101515000D01*
X131155652Y-101469461D01*
X131371308Y-101380134D01*
X131565394Y-101250450D01*
X131713415Y-101102429D01*
X131712438Y-101329490D01*
X131724698Y-101453972D01*
X131761008Y-101573670D01*
X131819973Y-101683984D01*
X131899325Y-101780675D01*
X131996016Y-101860027D01*
X132042467Y-101884856D01*
X131901533Y-102095778D01*
X131831248Y-102265461D01*
X131730450Y-102114606D01*
X131565394Y-101949550D01*
X131371308Y-101819866D01*
X131155652Y-101730539D01*
X130926712Y-101685000D01*
X130693288Y-101685000D01*
X130464348Y-101730539D01*
X130248692Y-101819866D01*
X130054606Y-101949550D01*
X129889550Y-102114606D01*
X129759866Y-102308692D01*
X129670539Y-102524348D01*
X129625000Y-102753288D01*
X129625000Y-102986712D01*
X129670539Y-103215652D01*
X129759866Y-103431308D01*
X129889550Y-103625394D01*
X130054606Y-103790450D01*
X130248692Y-103920134D01*
X130464348Y-104009461D01*
X130693288Y-104055000D01*
X130926712Y-104055000D01*
X131155652Y-104009461D01*
X131205613Y-103988767D01*
X131190719Y-104140000D01*
X131195001Y-104183476D01*
X131195000Y-119336531D01*
X131190719Y-119380000D01*
X131195000Y-119423469D01*
X131195000Y-119423476D01*
X131207805Y-119553489D01*
X131258411Y-119720312D01*
X131340589Y-119874058D01*
X131451183Y-120008817D01*
X131484956Y-120036534D01*
X132693470Y-121245049D01*
X132721183Y-121278817D01*
X132754951Y-121306530D01*
X132754953Y-121306532D01*
X132812075Y-121353411D01*
X132855941Y-121389411D01*
X133009687Y-121471589D01*
X133176510Y-121522195D01*
X133306523Y-121535000D01*
X133306533Y-121535000D01*
X133349999Y-121539281D01*
X133393465Y-121535000D01*
X134274402Y-121535000D01*
X134464662Y-121819744D01*
X134720256Y-122075338D01*
X135020801Y-122276156D01*
X135354750Y-122414482D01*
X135709268Y-122485000D01*
X136070732Y-122485000D01*
X136425250Y-122414482D01*
X136759199Y-122276156D01*
X137059744Y-122075338D01*
X137315338Y-121819744D01*
X137516156Y-121519199D01*
X137654482Y-121185250D01*
X137725000Y-120830732D01*
X137725000Y-120469268D01*
X137654482Y-120114750D01*
X137516156Y-119780801D01*
X137315338Y-119480256D01*
X137059744Y-119224662D01*
X136759199Y-119023844D01*
X136425250Y-118885518D01*
X136070732Y-118815000D01*
X135709268Y-118815000D01*
X135354750Y-118885518D01*
X135020801Y-119023844D01*
X134720256Y-119224662D01*
X134464662Y-119480256D01*
X134274402Y-119765000D01*
X133716579Y-119765000D01*
X132965000Y-119013422D01*
X132965000Y-112180000D01*
X175041928Y-112180000D01*
X175041928Y-113880000D01*
X175054188Y-114004482D01*
X175090498Y-114124180D01*
X175149463Y-114234494D01*
X175228815Y-114331185D01*
X175325506Y-114410537D01*
X175435820Y-114469502D01*
X175508380Y-114491513D01*
X175376525Y-114623368D01*
X175214010Y-114866589D01*
X175102068Y-115136842D01*
X175045000Y-115423740D01*
X175045000Y-115716260D01*
X175102068Y-116003158D01*
X175214010Y-116273411D01*
X175376525Y-116516632D01*
X175583368Y-116723475D01*
X175757760Y-116840000D01*
X175583368Y-116956525D01*
X175376525Y-117163368D01*
X175214010Y-117406589D01*
X175102068Y-117676842D01*
X175045000Y-117963740D01*
X175045000Y-118256260D01*
X175102068Y-118543158D01*
X175214010Y-118813411D01*
X175376525Y-119056632D01*
X175583368Y-119263475D01*
X175757760Y-119380000D01*
X175583368Y-119496525D01*
X175376525Y-119703368D01*
X175214010Y-119946589D01*
X175102068Y-120216842D01*
X175045000Y-120503740D01*
X175045000Y-120796260D01*
X175102068Y-121083158D01*
X175214010Y-121353411D01*
X175376525Y-121596632D01*
X175583368Y-121803475D01*
X175826589Y-121965990D01*
X176096842Y-122077932D01*
X176383740Y-122135000D01*
X176676260Y-122135000D01*
X176963158Y-122077932D01*
X177233411Y-121965990D01*
X177476632Y-121803475D01*
X177683475Y-121596632D01*
X177845990Y-121353411D01*
X177957932Y-121083158D01*
X178015000Y-120796260D01*
X178015000Y-120503740D01*
X177957932Y-120216842D01*
X177845990Y-119946589D01*
X177683475Y-119703368D01*
X177476632Y-119496525D01*
X177302240Y-119380000D01*
X177476632Y-119263475D01*
X177683475Y-119056632D01*
X177845990Y-118813411D01*
X177957932Y-118543158D01*
X178015000Y-118256260D01*
X178015000Y-117963740D01*
X177957932Y-117676842D01*
X177845990Y-117406589D01*
X177683475Y-117163368D01*
X177476632Y-116956525D01*
X177302240Y-116840000D01*
X177476632Y-116723475D01*
X177683475Y-116516632D01*
X177845990Y-116273411D01*
X177957932Y-116003158D01*
X178015000Y-115716260D01*
X178015000Y-115423740D01*
X177957932Y-115136842D01*
X177845990Y-114866589D01*
X177683475Y-114623368D01*
X177551620Y-114491513D01*
X177624180Y-114469502D01*
X177734494Y-114410537D01*
X177831185Y-114331185D01*
X177910537Y-114234494D01*
X177969502Y-114124180D01*
X178005812Y-114004482D01*
X178018072Y-113880000D01*
X178018072Y-112180000D01*
X178005812Y-112055518D01*
X177969502Y-111935820D01*
X177910537Y-111825506D01*
X177831185Y-111728815D01*
X177734494Y-111649463D01*
X177624180Y-111590498D01*
X177504482Y-111554188D01*
X177380000Y-111541928D01*
X175680000Y-111541928D01*
X175555518Y-111554188D01*
X175435820Y-111590498D01*
X175325506Y-111649463D01*
X175228815Y-111728815D01*
X175149463Y-111825506D01*
X175090498Y-111935820D01*
X175054188Y-112055518D01*
X175041928Y-112180000D01*
X132965000Y-112180000D01*
X132965000Y-110820565D01*
X140184040Y-110820565D01*
X140251020Y-111060656D01*
X140500048Y-111177756D01*
X140767135Y-111244023D01*
X141042017Y-111256910D01*
X141314133Y-111215922D01*
X141573023Y-111122636D01*
X141688980Y-111060656D01*
X141755960Y-110820565D01*
X140970000Y-110034605D01*
X140184040Y-110820565D01*
X132965000Y-110820565D01*
X132965000Y-109927017D01*
X139568090Y-109927017D01*
X139609078Y-110199133D01*
X139702364Y-110458023D01*
X139764344Y-110573980D01*
X140004435Y-110640960D01*
X140790395Y-109855000D01*
X141149605Y-109855000D01*
X141935565Y-110640960D01*
X142175656Y-110573980D01*
X142292756Y-110324952D01*
X142359023Y-110057865D01*
X142371910Y-109782983D01*
X142330922Y-109510867D01*
X142237636Y-109251977D01*
X142175656Y-109136020D01*
X141935565Y-109069040D01*
X141149605Y-109855000D01*
X140790395Y-109855000D01*
X140004435Y-109069040D01*
X139764344Y-109136020D01*
X139647244Y-109385048D01*
X139580977Y-109652135D01*
X139568090Y-109927017D01*
X132965000Y-109927017D01*
X132965000Y-107769268D01*
X134055000Y-107769268D01*
X134055000Y-108130732D01*
X134125518Y-108485250D01*
X134263844Y-108819199D01*
X134464662Y-109119744D01*
X134720256Y-109375338D01*
X135020801Y-109576156D01*
X135354750Y-109714482D01*
X135709268Y-109785000D01*
X136070732Y-109785000D01*
X136425250Y-109714482D01*
X136759199Y-109576156D01*
X137059744Y-109375338D01*
X137315338Y-109119744D01*
X137516156Y-108819199D01*
X137654482Y-108485250D01*
X137725000Y-108130732D01*
X137725000Y-107769268D01*
X137654482Y-107414750D01*
X137516156Y-107080801D01*
X137315338Y-106780256D01*
X137059744Y-106524662D01*
X136759199Y-106323844D01*
X136425250Y-106185518D01*
X136070732Y-106115000D01*
X135709268Y-106115000D01*
X135354750Y-106185518D01*
X135020801Y-106323844D01*
X134720256Y-106524662D01*
X134464662Y-106780256D01*
X134263844Y-107080801D01*
X134125518Y-107414750D01*
X134055000Y-107769268D01*
X132965000Y-107769268D01*
X132965000Y-104506578D01*
X133003908Y-104467670D01*
X133189017Y-104504490D01*
X133510983Y-104504490D01*
X133826763Y-104441678D01*
X134124222Y-104318467D01*
X134391927Y-104139592D01*
X134619592Y-103911927D01*
X134724174Y-103755409D01*
X134763492Y-103759281D01*
X134806961Y-103755000D01*
X134806969Y-103755000D01*
X134936982Y-103742195D01*
X135103805Y-103691589D01*
X135257551Y-103609411D01*
X135392309Y-103498817D01*
X135420026Y-103465044D01*
X138390050Y-100495021D01*
X138423817Y-100467309D01*
X138462398Y-100420299D01*
X138534411Y-100332551D01*
X138577299Y-100252312D01*
X138616589Y-100178805D01*
X138667195Y-100011982D01*
X138680000Y-99881969D01*
X138680000Y-99881961D01*
X138684281Y-99838492D01*
X138680000Y-99795023D01*
X138680000Y-75677578D01*
X139177579Y-75180000D01*
X139881182Y-75180000D01*
X139884880Y-75185535D01*
X140079465Y-75380120D01*
X140308273Y-75533005D01*
X140385515Y-75565000D01*
X140308273Y-75596995D01*
X140079465Y-75749880D01*
X139884880Y-75944465D01*
X139731995Y-76173273D01*
X139626686Y-76427510D01*
X139573000Y-76697408D01*
X139573000Y-76972592D01*
X139626686Y-77242490D01*
X139731995Y-77496727D01*
X139884880Y-77725535D01*
X140079465Y-77920120D01*
X140308273Y-78073005D01*
X140385515Y-78105000D01*
X140308273Y-78136995D01*
X140079465Y-78289880D01*
X139884880Y-78484465D01*
X139731995Y-78713273D01*
X139626686Y-78967510D01*
X139573000Y-79237408D01*
X139573000Y-79512592D01*
X139626686Y-79782490D01*
X139731995Y-80036727D01*
X139884880Y-80265535D01*
X140079465Y-80460120D01*
X140308273Y-80613005D01*
X140385515Y-80645000D01*
X140308273Y-80676995D01*
X140079465Y-80829880D01*
X139884880Y-81024465D01*
X139731995Y-81253273D01*
X139626686Y-81507510D01*
X139573000Y-81777408D01*
X139573000Y-82052592D01*
X139626686Y-82322490D01*
X139731995Y-82576727D01*
X139884880Y-82805535D01*
X140079465Y-83000120D01*
X140308273Y-83153005D01*
X140385515Y-83185000D01*
X140308273Y-83216995D01*
X140079465Y-83369880D01*
X139884880Y-83564465D01*
X139731995Y-83793273D01*
X139626686Y-84047510D01*
X139573000Y-84317408D01*
X139573000Y-84592592D01*
X139626686Y-84862490D01*
X139731995Y-85116727D01*
X139884880Y-85345535D01*
X140079465Y-85540120D01*
X140308273Y-85693005D01*
X140385515Y-85725000D01*
X140308273Y-85756995D01*
X140079465Y-85909880D01*
X139884880Y-86104465D01*
X139731995Y-86333273D01*
X139626686Y-86587510D01*
X139573000Y-86857408D01*
X139573000Y-87132592D01*
X139626686Y-87402490D01*
X139731995Y-87656727D01*
X139884880Y-87885535D01*
X140079465Y-88080120D01*
X140308273Y-88233005D01*
X140385515Y-88265000D01*
X140308273Y-88296995D01*
X140079465Y-88449880D01*
X139884880Y-88644465D01*
X139731995Y-88873273D01*
X139626686Y-89127510D01*
X139573000Y-89397408D01*
X139573000Y-89672592D01*
X139626686Y-89942490D01*
X139731995Y-90196727D01*
X139884880Y-90425535D01*
X140079465Y-90620120D01*
X140308273Y-90773005D01*
X140385515Y-90805000D01*
X140308273Y-90836995D01*
X140079465Y-90989880D01*
X139884880Y-91184465D01*
X139731995Y-91413273D01*
X139626686Y-91667510D01*
X139573000Y-91937408D01*
X139573000Y-92212592D01*
X139626686Y-92482490D01*
X139731995Y-92736727D01*
X139884880Y-92965535D01*
X140079465Y-93160120D01*
X140308273Y-93313005D01*
X140385515Y-93345000D01*
X140308273Y-93376995D01*
X140079465Y-93529880D01*
X139884880Y-93724465D01*
X139731995Y-93953273D01*
X139626686Y-94207510D01*
X139573000Y-94477408D01*
X139573000Y-94752592D01*
X139626686Y-95022490D01*
X139731995Y-95276727D01*
X139884880Y-95505535D01*
X140079465Y-95700120D01*
X140308273Y-95853005D01*
X140385515Y-95885000D01*
X140308273Y-95916995D01*
X140079465Y-96069880D01*
X139884880Y-96264465D01*
X139731995Y-96493273D01*
X139626686Y-96747510D01*
X139573000Y-97017408D01*
X139573000Y-97292592D01*
X139626686Y-97562490D01*
X139731995Y-97816727D01*
X139884880Y-98045535D01*
X140079465Y-98240120D01*
X140308273Y-98393005D01*
X140385515Y-98425000D01*
X140308273Y-98456995D01*
X140079465Y-98609880D01*
X139884880Y-98804465D01*
X139731995Y-99033273D01*
X139626686Y-99287510D01*
X139573000Y-99557408D01*
X139573000Y-99832592D01*
X139626686Y-100102490D01*
X139731995Y-100356727D01*
X139884880Y-100585535D01*
X140079465Y-100780120D01*
X140308273Y-100933005D01*
X140385515Y-100965000D01*
X140308273Y-100996995D01*
X140079465Y-101149880D01*
X139884880Y-101344465D01*
X139731995Y-101573273D01*
X139626686Y-101827510D01*
X139573000Y-102097408D01*
X139573000Y-102372592D01*
X139626686Y-102642490D01*
X139731995Y-102896727D01*
X139884880Y-103125535D01*
X140079465Y-103320120D01*
X140308273Y-103473005D01*
X140385515Y-103505000D01*
X140308273Y-103536995D01*
X140079465Y-103689880D01*
X139884880Y-103884465D01*
X139731995Y-104113273D01*
X139626686Y-104367510D01*
X139573000Y-104637408D01*
X139573000Y-104912592D01*
X139626686Y-105182490D01*
X139731995Y-105436727D01*
X139884880Y-105665535D01*
X140079465Y-105860120D01*
X140308273Y-106013005D01*
X140385515Y-106045000D01*
X140308273Y-106076995D01*
X140079465Y-106229880D01*
X139884880Y-106424465D01*
X139731995Y-106653273D01*
X139626686Y-106907510D01*
X139573000Y-107177408D01*
X139573000Y-107452592D01*
X139626686Y-107722490D01*
X139731995Y-107976727D01*
X139884880Y-108205535D01*
X140079465Y-108400120D01*
X140308273Y-108553005D01*
X140379943Y-108582692D01*
X140366977Y-108587364D01*
X140251020Y-108649344D01*
X140184040Y-108889435D01*
X140970000Y-109675395D01*
X141755960Y-108889435D01*
X141688980Y-108649344D01*
X141553240Y-108585515D01*
X141631727Y-108553005D01*
X141860535Y-108400120D01*
X142055120Y-108205535D01*
X142208005Y-107976727D01*
X142313314Y-107722490D01*
X142367000Y-107452592D01*
X142367000Y-107177408D01*
X142313314Y-106907510D01*
X142208005Y-106653273D01*
X142055120Y-106424465D01*
X141860535Y-106229880D01*
X141631727Y-106076995D01*
X141554485Y-106045000D01*
X141631727Y-106013005D01*
X141860535Y-105860120D01*
X142055120Y-105665535D01*
X142208005Y-105436727D01*
X142313314Y-105182490D01*
X142367000Y-104912592D01*
X142367000Y-104637408D01*
X142365701Y-104630877D01*
X150455049Y-96541530D01*
X150488817Y-96513817D01*
X150599411Y-96379059D01*
X150660662Y-96264465D01*
X150681589Y-96225314D01*
X150732195Y-96058490D01*
X150742544Y-95953411D01*
X150745000Y-95928477D01*
X150745000Y-95928469D01*
X150749281Y-95885000D01*
X150745000Y-95841531D01*
X150745000Y-60884656D01*
X150806632Y-60843475D01*
X151013475Y-60636632D01*
X151130000Y-60462240D01*
X151246525Y-60636632D01*
X151453368Y-60843475D01*
X151515000Y-60884656D01*
X151515001Y-88221521D01*
X151510719Y-88265000D01*
X151527805Y-88438490D01*
X151578412Y-88605313D01*
X151660590Y-88759059D01*
X151743468Y-88860046D01*
X151743471Y-88860049D01*
X151771184Y-88893817D01*
X151804952Y-88921530D01*
X167514299Y-104630878D01*
X167513000Y-104637408D01*
X167513000Y-104912592D01*
X167566686Y-105182490D01*
X167671995Y-105436727D01*
X167824880Y-105665535D01*
X168019465Y-105860120D01*
X168248273Y-106013005D01*
X168325515Y-106045000D01*
X168248273Y-106076995D01*
X168019465Y-106229880D01*
X167824880Y-106424465D01*
X167671995Y-106653273D01*
X167566686Y-106907510D01*
X167513000Y-107177408D01*
X167513000Y-107452592D01*
X167566686Y-107722490D01*
X167671995Y-107976727D01*
X167824880Y-108205535D01*
X168019465Y-108400120D01*
X168248273Y-108553005D01*
X168325515Y-108585000D01*
X168248273Y-108616995D01*
X168019465Y-108769880D01*
X167824880Y-108964465D01*
X167671995Y-109193273D01*
X167566686Y-109447510D01*
X167513000Y-109717408D01*
X167513000Y-109992592D01*
X167566686Y-110262490D01*
X167671995Y-110516727D01*
X167824880Y-110745535D01*
X168019465Y-110940120D01*
X168248273Y-111093005D01*
X168502510Y-111198314D01*
X168772408Y-111252000D01*
X169047592Y-111252000D01*
X169317490Y-111198314D01*
X169571727Y-111093005D01*
X169800535Y-110940120D01*
X169995120Y-110745535D01*
X170148005Y-110516727D01*
X170253314Y-110262490D01*
X170307000Y-109992592D01*
X170307000Y-109717408D01*
X170253314Y-109447510D01*
X170148005Y-109193273D01*
X169995120Y-108964465D01*
X169800535Y-108769880D01*
X169571727Y-108616995D01*
X169494485Y-108585000D01*
X169571727Y-108553005D01*
X169800535Y-108400120D01*
X169995120Y-108205535D01*
X170148005Y-107976727D01*
X170233937Y-107769268D01*
X183077000Y-107769268D01*
X183077000Y-108130732D01*
X183147518Y-108485250D01*
X183285844Y-108819199D01*
X183486662Y-109119744D01*
X183742256Y-109375338D01*
X184042801Y-109576156D01*
X184376750Y-109714482D01*
X184731268Y-109785000D01*
X185092732Y-109785000D01*
X185447250Y-109714482D01*
X185781199Y-109576156D01*
X186081744Y-109375338D01*
X186337338Y-109119744D01*
X186538156Y-108819199D01*
X186676482Y-108485250D01*
X186747000Y-108130732D01*
X186747000Y-107769268D01*
X186676482Y-107414750D01*
X186538156Y-107080801D01*
X186337338Y-106780256D01*
X186081744Y-106524662D01*
X185781199Y-106323844D01*
X185447250Y-106185518D01*
X185092732Y-106115000D01*
X184731268Y-106115000D01*
X184376750Y-106185518D01*
X184042801Y-106323844D01*
X183742256Y-106524662D01*
X183486662Y-106780256D01*
X183285844Y-107080801D01*
X183147518Y-107414750D01*
X183077000Y-107769268D01*
X170233937Y-107769268D01*
X170253314Y-107722490D01*
X170307000Y-107452592D01*
X170307000Y-107177408D01*
X170253314Y-106907510D01*
X170148005Y-106653273D01*
X169995120Y-106424465D01*
X169800535Y-106229880D01*
X169571727Y-106076995D01*
X169494485Y-106045000D01*
X169571727Y-106013005D01*
X169800535Y-105860120D01*
X169995120Y-105665535D01*
X170148005Y-105436727D01*
X170253314Y-105182490D01*
X170307000Y-104912592D01*
X170307000Y-104637408D01*
X170253314Y-104367510D01*
X170148005Y-104113273D01*
X169995120Y-103884465D01*
X169800535Y-103689880D01*
X169571727Y-103536995D01*
X169494485Y-103505000D01*
X169571727Y-103473005D01*
X169800535Y-103320120D01*
X169995120Y-103125535D01*
X170148005Y-102896727D01*
X170253314Y-102642490D01*
X170307000Y-102372592D01*
X170307000Y-102097408D01*
X170253314Y-101827510D01*
X170148005Y-101573273D01*
X169995120Y-101344465D01*
X169800535Y-101149880D01*
X169571727Y-100996995D01*
X169494485Y-100965000D01*
X169571727Y-100933005D01*
X169800535Y-100780120D01*
X169810853Y-100769802D01*
X171835000Y-102793949D01*
X171835001Y-104096521D01*
X171830719Y-104140000D01*
X171847805Y-104313490D01*
X171898412Y-104480313D01*
X171980590Y-104634059D01*
X172063468Y-104735046D01*
X172063469Y-104735047D01*
X172091184Y-104768817D01*
X172124951Y-104796529D01*
X174603470Y-107275049D01*
X174631183Y-107308817D01*
X174664951Y-107336530D01*
X174664953Y-107336532D01*
X174736452Y-107395210D01*
X174765941Y-107419411D01*
X174919687Y-107501589D01*
X175086510Y-107552195D01*
X175216523Y-107565000D01*
X175216533Y-107565000D01*
X175259999Y-107569281D01*
X175303465Y-107565000D01*
X177756531Y-107565000D01*
X177800000Y-107569281D01*
X177843469Y-107565000D01*
X177843477Y-107565000D01*
X177973490Y-107552195D01*
X178140313Y-107501589D01*
X178294059Y-107419411D01*
X178428817Y-107308817D01*
X178456534Y-107275044D01*
X180935050Y-104796529D01*
X180968817Y-104768817D01*
X180996533Y-104735046D01*
X181055210Y-104663548D01*
X181079411Y-104634059D01*
X181161589Y-104480313D01*
X181212195Y-104313490D01*
X181225000Y-104183477D01*
X181225000Y-104183467D01*
X181229281Y-104140001D01*
X181225000Y-104096535D01*
X181225000Y-100696578D01*
X181976579Y-99945000D01*
X184165210Y-99945000D01*
X184227688Y-100038505D01*
X184441495Y-100252312D01*
X184692905Y-100420299D01*
X184972257Y-100536011D01*
X185268816Y-100595000D01*
X185571184Y-100595000D01*
X185867743Y-100536011D01*
X186147095Y-100420299D01*
X186398505Y-100252312D01*
X186464944Y-100185873D01*
X186470498Y-100204180D01*
X186529463Y-100314494D01*
X186608815Y-100411185D01*
X186705506Y-100490537D01*
X186815820Y-100549502D01*
X186935518Y-100585812D01*
X187060000Y-100598072D01*
X187075001Y-100598072D01*
X187075000Y-115538365D01*
X184316951Y-118296415D01*
X184283184Y-118324127D01*
X184255471Y-118357895D01*
X184255468Y-118357898D01*
X184172590Y-118458885D01*
X184090412Y-118612631D01*
X184039805Y-118779454D01*
X184022719Y-118952944D01*
X184027001Y-118996423D01*
X184027001Y-119034401D01*
X183742256Y-119224662D01*
X183486662Y-119480256D01*
X183285844Y-119780801D01*
X183147518Y-120114750D01*
X183077000Y-120469268D01*
X183077000Y-120830732D01*
X183147518Y-121185250D01*
X183285844Y-121519199D01*
X183486662Y-121819744D01*
X183742256Y-122075338D01*
X184042801Y-122276156D01*
X184376750Y-122414482D01*
X184731268Y-122485000D01*
X185092732Y-122485000D01*
X185447250Y-122414482D01*
X185781199Y-122276156D01*
X186081744Y-122075338D01*
X186337338Y-121819744D01*
X186432512Y-121677305D01*
X188035872Y-121677305D01*
X188035872Y-122162695D01*
X188130567Y-122638760D01*
X188316318Y-123087202D01*
X188585987Y-123490790D01*
X188929210Y-123834013D01*
X189332798Y-124103682D01*
X189781240Y-124289433D01*
X190257305Y-124384128D01*
X190742695Y-124384128D01*
X191218760Y-124289433D01*
X191667202Y-124103682D01*
X192070790Y-123834013D01*
X192414013Y-123490790D01*
X192683682Y-123087202D01*
X192869433Y-122638760D01*
X192964128Y-122162695D01*
X192964128Y-121677305D01*
X192869433Y-121201240D01*
X192683682Y-120752798D01*
X192414013Y-120349210D01*
X192070790Y-120005987D01*
X191667202Y-119736318D01*
X191218760Y-119550567D01*
X190742695Y-119455872D01*
X190257305Y-119455872D01*
X189781240Y-119550567D01*
X189332798Y-119736318D01*
X188929210Y-120005987D01*
X188585987Y-120349210D01*
X188316318Y-120752798D01*
X188130567Y-121201240D01*
X188035872Y-121677305D01*
X186432512Y-121677305D01*
X186538156Y-121519199D01*
X186676482Y-121185250D01*
X186747000Y-120830732D01*
X186747000Y-120469268D01*
X186676482Y-120114750D01*
X186538156Y-119780801D01*
X186337338Y-119480256D01*
X186081744Y-119224662D01*
X185967917Y-119148605D01*
X188555050Y-116561473D01*
X188588817Y-116533761D01*
X188699411Y-116399003D01*
X188781589Y-116245257D01*
X188832195Y-116078434D01*
X188845000Y-115948421D01*
X188845000Y-115948413D01*
X188849281Y-115904944D01*
X188845000Y-115861475D01*
X188845000Y-100598072D01*
X188860000Y-100598072D01*
X188984482Y-100585812D01*
X189104180Y-100549502D01*
X189214494Y-100490537D01*
X189311185Y-100411185D01*
X189390537Y-100314494D01*
X189449502Y-100204180D01*
X189485812Y-100084482D01*
X189498072Y-99960000D01*
X189498072Y-98160000D01*
X189485812Y-98035518D01*
X189449502Y-97915820D01*
X189390537Y-97805506D01*
X189311185Y-97708815D01*
X189214494Y-97629463D01*
X189104180Y-97570498D01*
X188984482Y-97534188D01*
X188860000Y-97521928D01*
X187060000Y-97521928D01*
X186935518Y-97534188D01*
X186815820Y-97570498D01*
X186705506Y-97629463D01*
X186608815Y-97708815D01*
X186529463Y-97805506D01*
X186470498Y-97915820D01*
X186464944Y-97934127D01*
X186398505Y-97867688D01*
X186147095Y-97699701D01*
X185867743Y-97583989D01*
X185571184Y-97525000D01*
X185268816Y-97525000D01*
X184972257Y-97583989D01*
X184692905Y-97699701D01*
X184441495Y-97867688D01*
X184227688Y-98081495D01*
X184165210Y-98175000D01*
X181653465Y-98175000D01*
X181609999Y-98170719D01*
X181566533Y-98175000D01*
X181566523Y-98175000D01*
X181436510Y-98187805D01*
X181269687Y-98238411D01*
X181115941Y-98320589D01*
X181115939Y-98320590D01*
X181115940Y-98320590D01*
X181014953Y-98403468D01*
X181014951Y-98403470D01*
X180981183Y-98431183D01*
X180953470Y-98464951D01*
X179744951Y-99673471D01*
X179711184Y-99701183D01*
X179683471Y-99734951D01*
X179683468Y-99734954D01*
X179600590Y-99835941D01*
X179518412Y-99989687D01*
X179467805Y-100156510D01*
X179450719Y-100330000D01*
X179455001Y-100373479D01*
X179455000Y-103773421D01*
X177433422Y-105795000D01*
X175626579Y-105795000D01*
X173605000Y-103773422D01*
X173605000Y-103720000D01*
X175041928Y-103720000D01*
X175054188Y-103844482D01*
X175090498Y-103964180D01*
X175149463Y-104074494D01*
X175228815Y-104171185D01*
X175325506Y-104250537D01*
X175435820Y-104309502D01*
X175555518Y-104345812D01*
X175680000Y-104358072D01*
X176244250Y-104355000D01*
X176403000Y-104196250D01*
X176403000Y-102997000D01*
X176657000Y-102997000D01*
X176657000Y-104196250D01*
X176815750Y-104355000D01*
X177380000Y-104358072D01*
X177504482Y-104345812D01*
X177624180Y-104309502D01*
X177734494Y-104250537D01*
X177831185Y-104171185D01*
X177910537Y-104074494D01*
X177969502Y-103964180D01*
X178005812Y-103844482D01*
X178018072Y-103720000D01*
X178015000Y-103155750D01*
X177856250Y-102997000D01*
X176657000Y-102997000D01*
X176403000Y-102997000D01*
X175203750Y-102997000D01*
X175045000Y-103155750D01*
X175041928Y-103720000D01*
X173605000Y-103720000D01*
X173605000Y-102470839D01*
X173609281Y-102427370D01*
X173605000Y-102383901D01*
X173605000Y-102383893D01*
X173592195Y-102253880D01*
X173541589Y-102087057D01*
X173505747Y-102020000D01*
X175041928Y-102020000D01*
X175045000Y-102584250D01*
X175203750Y-102743000D01*
X176403000Y-102743000D01*
X176403000Y-100457000D01*
X176657000Y-100457000D01*
X176657000Y-102743000D01*
X177856250Y-102743000D01*
X178015000Y-102584250D01*
X178018072Y-102020000D01*
X178005812Y-101895518D01*
X177969502Y-101775820D01*
X177910537Y-101665506D01*
X177831185Y-101568815D01*
X177734494Y-101489463D01*
X177624180Y-101430498D01*
X177543534Y-101406034D01*
X177627588Y-101330269D01*
X177801641Y-101096920D01*
X177926825Y-100834099D01*
X177971476Y-100686890D01*
X177850155Y-100457000D01*
X176657000Y-100457000D01*
X176403000Y-100457000D01*
X175209845Y-100457000D01*
X175088524Y-100686890D01*
X175133175Y-100834099D01*
X175258359Y-101096920D01*
X175432412Y-101330269D01*
X175516466Y-101406034D01*
X175435820Y-101430498D01*
X175325506Y-101489463D01*
X175228815Y-101568815D01*
X175149463Y-101665506D01*
X175090498Y-101775820D01*
X175054188Y-101895518D01*
X175041928Y-102020000D01*
X173505747Y-102020000D01*
X173459411Y-101933311D01*
X173348817Y-101798553D01*
X173315050Y-101770841D01*
X170644164Y-99099956D01*
X170616447Y-99066183D01*
X170481689Y-98955589D01*
X170327943Y-98873411D01*
X170161120Y-98822805D01*
X170031107Y-98810000D01*
X170031099Y-98810000D01*
X169996545Y-98806597D01*
X169995120Y-98804465D01*
X169800535Y-98609880D01*
X169571727Y-98456995D01*
X169494485Y-98425000D01*
X169571727Y-98393005D01*
X169800535Y-98240120D01*
X169995120Y-98045535D01*
X170148005Y-97816727D01*
X170253314Y-97562490D01*
X170307000Y-97292592D01*
X170307000Y-97017408D01*
X170253314Y-96747510D01*
X170148005Y-96493273D01*
X169995120Y-96264465D01*
X169800535Y-96069880D01*
X169571727Y-95916995D01*
X169494485Y-95885000D01*
X169571727Y-95853005D01*
X169800535Y-95700120D01*
X169995120Y-95505535D01*
X170148005Y-95276727D01*
X170253314Y-95022490D01*
X170307000Y-94752592D01*
X170307000Y-94477408D01*
X170253314Y-94207510D01*
X170148005Y-93953273D01*
X169995120Y-93724465D01*
X169800535Y-93529880D01*
X169571727Y-93376995D01*
X169494485Y-93345000D01*
X169571727Y-93313005D01*
X169800535Y-93160120D01*
X169995120Y-92965535D01*
X170148005Y-92736727D01*
X170253314Y-92482490D01*
X170307000Y-92212592D01*
X170307000Y-91937408D01*
X170253314Y-91667510D01*
X170148005Y-91413273D01*
X169995120Y-91184465D01*
X169800535Y-90989880D01*
X169571727Y-90836995D01*
X169494485Y-90805000D01*
X169571727Y-90773005D01*
X169800535Y-90620120D01*
X169995120Y-90425535D01*
X170148005Y-90196727D01*
X170253314Y-89942490D01*
X170307000Y-89672592D01*
X170307000Y-89397408D01*
X170253314Y-89127510D01*
X170148005Y-88873273D01*
X169995120Y-88644465D01*
X169800535Y-88449880D01*
X169571727Y-88296995D01*
X169494485Y-88265000D01*
X169571727Y-88233005D01*
X169800535Y-88080120D01*
X169995120Y-87885535D01*
X170148005Y-87656727D01*
X170253314Y-87402490D01*
X170307000Y-87132592D01*
X170307000Y-86857408D01*
X170253314Y-86587510D01*
X170148005Y-86333273D01*
X169995120Y-86104465D01*
X169800535Y-85909880D01*
X169571727Y-85756995D01*
X169494485Y-85725000D01*
X169571727Y-85693005D01*
X169800535Y-85540120D01*
X169995120Y-85345535D01*
X170148005Y-85116727D01*
X170219658Y-84943740D01*
X175045000Y-84943740D01*
X175045000Y-85236260D01*
X175102068Y-85523158D01*
X175214010Y-85793411D01*
X175376525Y-86036632D01*
X175583368Y-86243475D01*
X175757760Y-86360000D01*
X175583368Y-86476525D01*
X175376525Y-86683368D01*
X175214010Y-86926589D01*
X175102068Y-87196842D01*
X175045000Y-87483740D01*
X175045000Y-87776260D01*
X175102068Y-88063158D01*
X175214010Y-88333411D01*
X175376525Y-88576632D01*
X175583368Y-88783475D01*
X175757760Y-88900000D01*
X175583368Y-89016525D01*
X175376525Y-89223368D01*
X175214010Y-89466589D01*
X175102068Y-89736842D01*
X175045000Y-90023740D01*
X175045000Y-90316260D01*
X175102068Y-90603158D01*
X175214010Y-90873411D01*
X175376525Y-91116632D01*
X175583368Y-91323475D01*
X175757760Y-91440000D01*
X175583368Y-91556525D01*
X175376525Y-91763368D01*
X175214010Y-92006589D01*
X175102068Y-92276842D01*
X175045000Y-92563740D01*
X175045000Y-92856260D01*
X175102068Y-93143158D01*
X175214010Y-93413411D01*
X175376525Y-93656632D01*
X175583368Y-93863475D01*
X175757760Y-93980000D01*
X175583368Y-94096525D01*
X175376525Y-94303368D01*
X175214010Y-94546589D01*
X175102068Y-94816842D01*
X175045000Y-95103740D01*
X175045000Y-95396260D01*
X175102068Y-95683158D01*
X175214010Y-95953411D01*
X175376525Y-96196632D01*
X175583368Y-96403475D01*
X175757760Y-96520000D01*
X175583368Y-96636525D01*
X175376525Y-96843368D01*
X175214010Y-97086589D01*
X175102068Y-97356842D01*
X175045000Y-97643740D01*
X175045000Y-97936260D01*
X175102068Y-98223158D01*
X175214010Y-98493411D01*
X175376525Y-98736632D01*
X175583368Y-98943475D01*
X175765534Y-99065195D01*
X175648645Y-99134822D01*
X175432412Y-99329731D01*
X175258359Y-99563080D01*
X175133175Y-99825901D01*
X175088524Y-99973110D01*
X175209845Y-100203000D01*
X176403000Y-100203000D01*
X176403000Y-100183000D01*
X176657000Y-100183000D01*
X176657000Y-100203000D01*
X177850155Y-100203000D01*
X177971476Y-99973110D01*
X177926825Y-99825901D01*
X177801641Y-99563080D01*
X177627588Y-99329731D01*
X177411355Y-99134822D01*
X177294466Y-99065195D01*
X177476632Y-98943475D01*
X177683475Y-98736632D01*
X177845990Y-98493411D01*
X177957932Y-98223158D01*
X178015000Y-97936260D01*
X178015000Y-97643740D01*
X177957932Y-97356842D01*
X177845990Y-97086589D01*
X177683475Y-96843368D01*
X177476632Y-96636525D01*
X177302240Y-96520000D01*
X177476632Y-96403475D01*
X177683475Y-96196632D01*
X177845990Y-95953411D01*
X177957932Y-95683158D01*
X178015000Y-95396260D01*
X178015000Y-95103740D01*
X177957932Y-94816842D01*
X177845990Y-94546589D01*
X177683475Y-94303368D01*
X177476632Y-94096525D01*
X177302240Y-93980000D01*
X177476632Y-93863475D01*
X177683475Y-93656632D01*
X177845990Y-93413411D01*
X177957932Y-93143158D01*
X178015000Y-92856260D01*
X178015000Y-92563740D01*
X177957932Y-92276842D01*
X177845990Y-92006589D01*
X177683475Y-91763368D01*
X177476632Y-91556525D01*
X177302240Y-91440000D01*
X177476632Y-91323475D01*
X177683475Y-91116632D01*
X177845990Y-90873411D01*
X177957932Y-90603158D01*
X178015000Y-90316260D01*
X178015000Y-90023740D01*
X177957932Y-89736842D01*
X177845990Y-89466589D01*
X177683475Y-89223368D01*
X177476632Y-89016525D01*
X177302240Y-88900000D01*
X177476632Y-88783475D01*
X177683475Y-88576632D01*
X177845990Y-88333411D01*
X177957932Y-88063158D01*
X178015000Y-87776260D01*
X178015000Y-87483740D01*
X177957932Y-87196842D01*
X177845990Y-86926589D01*
X177683475Y-86683368D01*
X177476632Y-86476525D01*
X177302240Y-86360000D01*
X177476632Y-86243475D01*
X177683475Y-86036632D01*
X177845990Y-85793411D01*
X177957932Y-85523158D01*
X178015000Y-85236260D01*
X178015000Y-84943740D01*
X177957932Y-84656842D01*
X177845990Y-84386589D01*
X177683475Y-84143368D01*
X177476632Y-83936525D01*
X177233411Y-83774010D01*
X176963158Y-83662068D01*
X176676260Y-83605000D01*
X176383740Y-83605000D01*
X176096842Y-83662068D01*
X175826589Y-83774010D01*
X175583368Y-83936525D01*
X175376525Y-84143368D01*
X175214010Y-84386589D01*
X175102068Y-84656842D01*
X175045000Y-84943740D01*
X170219658Y-84943740D01*
X170253314Y-84862490D01*
X170307000Y-84592592D01*
X170307000Y-84317408D01*
X170253314Y-84047510D01*
X170148005Y-83793273D01*
X169995120Y-83564465D01*
X169800535Y-83369880D01*
X169571727Y-83216995D01*
X169494485Y-83185000D01*
X169571727Y-83153005D01*
X169800535Y-83000120D01*
X169995120Y-82805535D01*
X170148005Y-82576727D01*
X170253314Y-82322490D01*
X170307000Y-82052592D01*
X170307000Y-81777408D01*
X170253314Y-81507510D01*
X170148005Y-81253273D01*
X169995120Y-81024465D01*
X169800535Y-80829880D01*
X169571727Y-80676995D01*
X169494485Y-80645000D01*
X169571727Y-80613005D01*
X169800535Y-80460120D01*
X169995120Y-80265535D01*
X169998818Y-80260000D01*
X176163422Y-80260000D01*
X179836000Y-83932579D01*
X179836001Y-88729521D01*
X179831719Y-88773000D01*
X179848805Y-88946490D01*
X179899412Y-89113313D01*
X179981590Y-89267059D01*
X180064468Y-89368046D01*
X180064471Y-89368049D01*
X180092184Y-89401817D01*
X180125951Y-89429529D01*
X181461470Y-90765049D01*
X181489183Y-90798817D01*
X181522951Y-90826530D01*
X181522953Y-90826532D01*
X181594452Y-90885210D01*
X181623941Y-90909411D01*
X181777687Y-90991589D01*
X181944510Y-91042195D01*
X182074523Y-91055000D01*
X182074533Y-91055000D01*
X182117999Y-91059281D01*
X182161465Y-91055000D01*
X184165210Y-91055000D01*
X184227688Y-91148505D01*
X184441495Y-91362312D01*
X184692905Y-91530299D01*
X184972257Y-91646011D01*
X185268816Y-91705000D01*
X185571184Y-91705000D01*
X185867743Y-91646011D01*
X186147095Y-91530299D01*
X186398505Y-91362312D01*
X186464944Y-91295873D01*
X186470498Y-91314180D01*
X186529463Y-91424494D01*
X186608815Y-91521185D01*
X186705506Y-91600537D01*
X186815820Y-91659502D01*
X186935518Y-91695812D01*
X187060000Y-91708072D01*
X188860000Y-91708072D01*
X188984482Y-91695812D01*
X189104180Y-91659502D01*
X189214494Y-91600537D01*
X189311185Y-91521185D01*
X189390537Y-91424494D01*
X189449502Y-91314180D01*
X189485812Y-91194482D01*
X189498072Y-91070000D01*
X189498072Y-91045683D01*
X189533490Y-91042195D01*
X189700313Y-90991589D01*
X189854059Y-90909411D01*
X189988817Y-90798817D01*
X190016534Y-90765044D01*
X191787048Y-88994531D01*
X191820816Y-88966818D01*
X191875988Y-88899592D01*
X191931410Y-88832060D01*
X192013588Y-88678314D01*
X192064194Y-88511491D01*
X192076999Y-88381478D01*
X192076999Y-88381470D01*
X192081280Y-88338001D01*
X192076999Y-88294532D01*
X192076999Y-73125468D01*
X192081280Y-73081999D01*
X192076999Y-73038530D01*
X192076999Y-73038522D01*
X192064194Y-72908509D01*
X192013588Y-72741686D01*
X191931410Y-72587940D01*
X191901080Y-72550983D01*
X191848531Y-72486952D01*
X191848529Y-72486950D01*
X191820816Y-72453182D01*
X191787049Y-72425470D01*
X191760190Y-72398611D01*
X191827000Y-72062732D01*
X191827000Y-71701268D01*
X191756482Y-71346750D01*
X191618156Y-71012801D01*
X191417338Y-70712256D01*
X191161744Y-70456662D01*
X190861199Y-70255844D01*
X190527250Y-70117518D01*
X190172732Y-70047000D01*
X189811268Y-70047000D01*
X189456750Y-70117518D01*
X189122801Y-70255844D01*
X188822256Y-70456662D01*
X188566662Y-70712256D01*
X188365844Y-71012801D01*
X188227518Y-71346750D01*
X188157000Y-71701268D01*
X188157000Y-72062732D01*
X188227518Y-72417250D01*
X188365844Y-72751199D01*
X188566662Y-73051744D01*
X188822256Y-73307338D01*
X189122801Y-73508156D01*
X189456750Y-73646482D01*
X189811268Y-73717000D01*
X190172732Y-73717000D01*
X190306999Y-73690293D01*
X190307000Y-87971421D01*
X189378087Y-88900335D01*
X189311185Y-88818815D01*
X189214494Y-88739463D01*
X189104180Y-88680498D01*
X188984482Y-88644188D01*
X188860000Y-88631928D01*
X187060000Y-88631928D01*
X186935518Y-88644188D01*
X186815820Y-88680498D01*
X186705506Y-88739463D01*
X186608815Y-88818815D01*
X186529463Y-88915506D01*
X186470498Y-89025820D01*
X186464944Y-89044127D01*
X186398505Y-88977688D01*
X186147095Y-88809701D01*
X185867743Y-88693989D01*
X185571184Y-88635000D01*
X185268816Y-88635000D01*
X184972257Y-88693989D01*
X184692905Y-88809701D01*
X184441495Y-88977688D01*
X184227688Y-89191495D01*
X184165210Y-89285000D01*
X182484579Y-89285000D01*
X181606000Y-88406422D01*
X181606000Y-83609466D01*
X181610281Y-83565999D01*
X181606000Y-83522533D01*
X181606000Y-83522523D01*
X181593195Y-83392510D01*
X181542589Y-83225687D01*
X181460411Y-83071941D01*
X181349817Y-82937183D01*
X181316050Y-82909472D01*
X177186534Y-78779956D01*
X177158817Y-78746183D01*
X177024059Y-78635589D01*
X176870313Y-78553411D01*
X176703490Y-78502805D01*
X176573477Y-78490000D01*
X176573469Y-78490000D01*
X176530000Y-78485719D01*
X176486531Y-78490000D01*
X169998818Y-78490000D01*
X169995120Y-78484465D01*
X169800535Y-78289880D01*
X169571727Y-78136995D01*
X169494485Y-78105000D01*
X169571727Y-78073005D01*
X169800535Y-77920120D01*
X169995120Y-77725535D01*
X169998818Y-77720000D01*
X176163422Y-77720000D01*
X180318470Y-81875049D01*
X180346183Y-81908817D01*
X180379951Y-81936530D01*
X180379953Y-81936532D01*
X180451452Y-81995210D01*
X180480941Y-82019411D01*
X180634687Y-82101589D01*
X180801510Y-82152195D01*
X180931523Y-82165000D01*
X180931533Y-82165000D01*
X180974999Y-82169281D01*
X181018465Y-82165000D01*
X184165210Y-82165000D01*
X184227688Y-82258505D01*
X184441495Y-82472312D01*
X184692905Y-82640299D01*
X184972257Y-82756011D01*
X185268816Y-82815000D01*
X185571184Y-82815000D01*
X185867743Y-82756011D01*
X186147095Y-82640299D01*
X186398505Y-82472312D01*
X186464944Y-82405873D01*
X186470498Y-82424180D01*
X186529463Y-82534494D01*
X186608815Y-82631185D01*
X186705506Y-82710537D01*
X186815820Y-82769502D01*
X186935518Y-82805812D01*
X187060000Y-82818072D01*
X188860000Y-82818072D01*
X188984482Y-82805812D01*
X189104180Y-82769502D01*
X189214494Y-82710537D01*
X189311185Y-82631185D01*
X189390537Y-82534494D01*
X189449502Y-82424180D01*
X189485812Y-82304482D01*
X189498072Y-82180000D01*
X189498072Y-80380000D01*
X189485812Y-80255518D01*
X189449502Y-80135820D01*
X189390537Y-80025506D01*
X189311185Y-79928815D01*
X189214494Y-79849463D01*
X189104180Y-79790498D01*
X188984482Y-79754188D01*
X188860000Y-79741928D01*
X188845000Y-79741928D01*
X188845000Y-76243465D01*
X188849281Y-76199999D01*
X188845000Y-76156533D01*
X188845000Y-76156523D01*
X188832195Y-76026510D01*
X188781589Y-75859687D01*
X188699411Y-75705941D01*
X188654579Y-75651313D01*
X188616532Y-75604953D01*
X188616530Y-75604951D01*
X188588817Y-75571183D01*
X188555050Y-75543472D01*
X185410189Y-72398611D01*
X185477000Y-72062732D01*
X185477000Y-71701268D01*
X185406482Y-71346750D01*
X185268156Y-71012801D01*
X185067338Y-70712256D01*
X184811744Y-70456662D01*
X184511199Y-70255844D01*
X184177250Y-70117518D01*
X183822732Y-70047000D01*
X183461268Y-70047000D01*
X183106750Y-70117518D01*
X182772801Y-70255844D01*
X182472256Y-70456662D01*
X182216662Y-70712256D01*
X182015844Y-71012801D01*
X181877518Y-71346750D01*
X181807000Y-71701268D01*
X181807000Y-72062732D01*
X181877518Y-72417250D01*
X182015844Y-72751199D01*
X182216662Y-73051744D01*
X182472256Y-73307338D01*
X182772801Y-73508156D01*
X183106750Y-73646482D01*
X183461268Y-73717000D01*
X183822732Y-73717000D01*
X184158611Y-73650189D01*
X187075000Y-76566579D01*
X187075001Y-79741928D01*
X187060000Y-79741928D01*
X186935518Y-79754188D01*
X186815820Y-79790498D01*
X186705506Y-79849463D01*
X186608815Y-79928815D01*
X186529463Y-80025506D01*
X186470498Y-80135820D01*
X186464944Y-80154127D01*
X186398505Y-80087688D01*
X186147095Y-79919701D01*
X185867743Y-79803989D01*
X185571184Y-79745000D01*
X185268816Y-79745000D01*
X184972257Y-79803989D01*
X184692905Y-79919701D01*
X184441495Y-80087688D01*
X184227688Y-80301495D01*
X184165210Y-80395000D01*
X181341579Y-80395000D01*
X177186534Y-76239956D01*
X177158817Y-76206183D01*
X177024059Y-76095589D01*
X176870313Y-76013411D01*
X176703490Y-75962805D01*
X176573477Y-75950000D01*
X176573469Y-75950000D01*
X176530000Y-75945719D01*
X176486531Y-75950000D01*
X169998818Y-75950000D01*
X169995120Y-75944465D01*
X169800535Y-75749880D01*
X169571727Y-75596995D01*
X169494485Y-75565000D01*
X169571727Y-75533005D01*
X169800535Y-75380120D01*
X169995120Y-75185535D01*
X170148005Y-74956727D01*
X170253314Y-74702490D01*
X170307000Y-74432592D01*
X170307000Y-74157408D01*
X170253314Y-73887510D01*
X170148005Y-73633273D01*
X169995120Y-73404465D01*
X169800535Y-73209880D01*
X169795000Y-73206182D01*
X169795000Y-71163466D01*
X169799281Y-71119999D01*
X169795000Y-71076533D01*
X169795000Y-71076523D01*
X169782195Y-70946510D01*
X169731589Y-70779687D01*
X169649411Y-70625941D01*
X169538817Y-70491183D01*
X169505051Y-70463472D01*
X158950539Y-59908961D01*
X158965000Y-59836260D01*
X158965000Y-59543740D01*
X158907932Y-59256842D01*
X158795990Y-58986589D01*
X158633475Y-58743368D01*
X158426632Y-58536525D01*
X158183411Y-58374010D01*
X157913158Y-58262068D01*
X157626260Y-58205000D01*
X157333740Y-58205000D01*
X157046842Y-58262068D01*
X156776589Y-58374010D01*
X156533368Y-58536525D01*
X156326525Y-58743368D01*
X156210000Y-58917760D01*
X156093475Y-58743368D01*
X155886632Y-58536525D01*
X155643411Y-58374010D01*
X155373158Y-58262068D01*
X155086260Y-58205000D01*
X154793740Y-58205000D01*
X154506842Y-58262068D01*
X154236589Y-58374010D01*
X153993368Y-58536525D01*
X153786525Y-58743368D01*
X153670000Y-58917760D01*
X153553475Y-58743368D01*
X153346632Y-58536525D01*
X153103411Y-58374010D01*
X152833158Y-58262068D01*
X152546260Y-58205000D01*
X152253740Y-58205000D01*
X151966842Y-58262068D01*
X151696589Y-58374010D01*
X151453368Y-58536525D01*
X151246525Y-58743368D01*
X151130000Y-58917760D01*
X151013475Y-58743368D01*
X150806632Y-58536525D01*
X150563411Y-58374010D01*
X150293158Y-58262068D01*
X150006260Y-58205000D01*
X149713740Y-58205000D01*
X149426842Y-58262068D01*
X149156589Y-58374010D01*
X148913368Y-58536525D01*
X148781513Y-58668380D01*
X148759502Y-58595820D01*
X148700537Y-58485506D01*
X148621185Y-58388815D01*
X148524494Y-58309463D01*
X148414180Y-58250498D01*
X148294482Y-58214188D01*
X148170000Y-58201928D01*
X146470000Y-58201928D01*
X146345518Y-58214188D01*
X146225820Y-58250498D01*
X146115506Y-58309463D01*
X146018815Y-58388815D01*
X145939463Y-58485506D01*
X145880498Y-58595820D01*
X145844188Y-58715518D01*
X145831928Y-58840000D01*
X145831928Y-60540000D01*
X145844188Y-60664482D01*
X145880498Y-60784180D01*
X145939463Y-60894494D01*
X146018815Y-60991185D01*
X146115506Y-61070537D01*
X146225820Y-61129502D01*
X146345518Y-61165812D01*
X146435000Y-61174625D01*
X146435001Y-95518420D01*
X142367000Y-99586422D01*
X142367000Y-99557408D01*
X142313314Y-99287510D01*
X142208005Y-99033273D01*
X142055120Y-98804465D01*
X141860535Y-98609880D01*
X141631727Y-98456995D01*
X141554485Y-98425000D01*
X141631727Y-98393005D01*
X141860535Y-98240120D01*
X142055120Y-98045535D01*
X142208005Y-97816727D01*
X142313314Y-97562490D01*
X142367000Y-97292592D01*
X142367000Y-97017408D01*
X142313314Y-96747510D01*
X142208005Y-96493273D01*
X142055120Y-96264465D01*
X141860535Y-96069880D01*
X141631727Y-95916995D01*
X141554485Y-95885000D01*
X141631727Y-95853005D01*
X141860535Y-95700120D01*
X142055120Y-95505535D01*
X142208005Y-95276727D01*
X142313314Y-95022490D01*
X142367000Y-94752592D01*
X142367000Y-94477408D01*
X142313314Y-94207510D01*
X142208005Y-93953273D01*
X142055120Y-93724465D01*
X141860535Y-93529880D01*
X141631727Y-93376995D01*
X141554485Y-93345000D01*
X141631727Y-93313005D01*
X141860535Y-93160120D01*
X142055120Y-92965535D01*
X142208005Y-92736727D01*
X142313314Y-92482490D01*
X142367000Y-92212592D01*
X142367000Y-91937408D01*
X142313314Y-91667510D01*
X142208005Y-91413273D01*
X142055120Y-91184465D01*
X141860535Y-90989880D01*
X141631727Y-90836995D01*
X141554485Y-90805000D01*
X141631727Y-90773005D01*
X141860535Y-90620120D01*
X142055120Y-90425535D01*
X142208005Y-90196727D01*
X142313314Y-89942490D01*
X142367000Y-89672592D01*
X142367000Y-89397408D01*
X142313314Y-89127510D01*
X142208005Y-88873273D01*
X142055120Y-88644465D01*
X141860535Y-88449880D01*
X141631727Y-88296995D01*
X141554485Y-88265000D01*
X141631727Y-88233005D01*
X141860535Y-88080120D01*
X142055120Y-87885535D01*
X142208005Y-87656727D01*
X142313314Y-87402490D01*
X142367000Y-87132592D01*
X142367000Y-86857408D01*
X142313314Y-86587510D01*
X142208005Y-86333273D01*
X142055120Y-86104465D01*
X141860535Y-85909880D01*
X141631727Y-85756995D01*
X141554485Y-85725000D01*
X141631727Y-85693005D01*
X141860535Y-85540120D01*
X142055120Y-85345535D01*
X142208005Y-85116727D01*
X142313314Y-84862490D01*
X142367000Y-84592592D01*
X142367000Y-84317408D01*
X142313314Y-84047510D01*
X142208005Y-83793273D01*
X142055120Y-83564465D01*
X141860535Y-83369880D01*
X141631727Y-83216995D01*
X141554485Y-83185000D01*
X141631727Y-83153005D01*
X141860535Y-83000120D01*
X142055120Y-82805535D01*
X142208005Y-82576727D01*
X142313314Y-82322490D01*
X142367000Y-82052592D01*
X142367000Y-81777408D01*
X142313314Y-81507510D01*
X142208005Y-81253273D01*
X142055120Y-81024465D01*
X141860535Y-80829880D01*
X141631727Y-80676995D01*
X141554485Y-80645000D01*
X141631727Y-80613005D01*
X141860535Y-80460120D01*
X142055120Y-80265535D01*
X142208005Y-80036727D01*
X142313314Y-79782490D01*
X142367000Y-79512592D01*
X142367000Y-79237408D01*
X142313314Y-78967510D01*
X142208005Y-78713273D01*
X142055120Y-78484465D01*
X141860535Y-78289880D01*
X141631727Y-78136995D01*
X141554485Y-78105000D01*
X141631727Y-78073005D01*
X141860535Y-77920120D01*
X142055120Y-77725535D01*
X142208005Y-77496727D01*
X142313314Y-77242490D01*
X142367000Y-76972592D01*
X142367000Y-76697408D01*
X142313314Y-76427510D01*
X142208005Y-76173273D01*
X142055120Y-75944465D01*
X141860535Y-75749880D01*
X141631727Y-75596995D01*
X141554485Y-75565000D01*
X141631727Y-75533005D01*
X141860535Y-75380120D01*
X142055120Y-75185535D01*
X142208005Y-74956727D01*
X142313314Y-74702490D01*
X142367000Y-74432592D01*
X142367000Y-74157408D01*
X142313314Y-73887510D01*
X142208005Y-73633273D01*
X142055120Y-73404465D01*
X141860535Y-73209880D01*
X141631727Y-73056995D01*
X141377490Y-72951686D01*
X141107592Y-72898000D01*
X140832408Y-72898000D01*
X140562510Y-72951686D01*
X140308273Y-73056995D01*
X140079465Y-73209880D01*
X139884880Y-73404465D01*
X139881182Y-73410000D01*
X138854469Y-73410000D01*
X138811000Y-73405719D01*
X138767531Y-73410000D01*
X138767523Y-73410000D01*
X138652306Y-73421348D01*
X138637509Y-73422805D01*
X138607439Y-73431927D01*
X138470687Y-73473411D01*
X138316941Y-73555589D01*
X138316939Y-73555590D01*
X138316940Y-73555590D01*
X138215953Y-73638468D01*
X138215951Y-73638470D01*
X138182183Y-73666183D01*
X138154470Y-73699951D01*
X137199951Y-74654471D01*
X137166184Y-74682183D01*
X137138471Y-74715951D01*
X137138468Y-74715954D01*
X137055590Y-74816941D01*
X136973412Y-74970687D01*
X136922805Y-75137510D01*
X136905719Y-75311000D01*
X136910001Y-75354479D01*
X136910000Y-99471913D01*
X134980476Y-101401438D01*
X134987562Y-101329490D01*
X134984490Y-100615750D01*
X134825740Y-100457000D01*
X133477000Y-100457000D01*
X133477000Y-100477000D01*
X133223000Y-100477000D01*
X133223000Y-100457000D01*
X133203000Y-100457000D01*
X133203000Y-100203000D01*
X133223000Y-100203000D01*
X133223000Y-98854260D01*
X133477000Y-98854260D01*
X133477000Y-100203000D01*
X134825740Y-100203000D01*
X134984490Y-100044250D01*
X134987562Y-99330510D01*
X134975302Y-99206028D01*
X134938992Y-99086330D01*
X134880027Y-98976016D01*
X134800675Y-98879325D01*
X134703984Y-98799973D01*
X134593670Y-98741008D01*
X134473972Y-98704698D01*
X134349490Y-98692438D01*
X133635750Y-98695510D01*
X133477000Y-98854260D01*
X133223000Y-98854260D01*
X133064250Y-98695510D01*
X132350510Y-98692438D01*
X132226028Y-98704698D01*
X132106330Y-98741008D01*
X131996016Y-98799973D01*
X131899325Y-98879325D01*
X131819973Y-98976016D01*
X131761008Y-99086330D01*
X131724698Y-99206028D01*
X131712438Y-99330510D01*
X131713415Y-99557571D01*
X131565394Y-99409550D01*
X131371308Y-99279866D01*
X131155652Y-99190539D01*
X130926712Y-99145000D01*
X130693288Y-99145000D01*
X130464348Y-99190539D01*
X130248692Y-99279866D01*
X130054606Y-99409550D01*
X129889550Y-99574606D01*
X129759866Y-99768692D01*
X129670539Y-99984348D01*
X129625000Y-100213288D01*
X122605000Y-100213288D01*
X122605000Y-84973288D01*
X129625000Y-84973288D01*
X129625000Y-85206712D01*
X129670539Y-85435652D01*
X129759866Y-85651308D01*
X129889550Y-85845394D01*
X130054606Y-86010450D01*
X130248692Y-86140134D01*
X130464348Y-86229461D01*
X130693288Y-86275000D01*
X130926712Y-86275000D01*
X131155652Y-86229461D01*
X131371308Y-86140134D01*
X131565394Y-86010450D01*
X131712438Y-85863406D01*
X131712438Y-86089490D01*
X131724698Y-86213972D01*
X131761008Y-86333670D01*
X131819973Y-86443984D01*
X131899325Y-86540675D01*
X131996016Y-86620027D01*
X132042467Y-86644856D01*
X131901533Y-86855778D01*
X131831248Y-87025461D01*
X131730450Y-86874606D01*
X131565394Y-86709550D01*
X131371308Y-86579866D01*
X131155652Y-86490539D01*
X130926712Y-86445000D01*
X130693288Y-86445000D01*
X130464348Y-86490539D01*
X130248692Y-86579866D01*
X130054606Y-86709550D01*
X129889550Y-86874606D01*
X129759866Y-87068692D01*
X129670539Y-87284348D01*
X129625000Y-87513288D01*
X129625000Y-87746712D01*
X129670539Y-87975652D01*
X129759866Y-88191308D01*
X129889550Y-88385394D01*
X130054606Y-88550450D01*
X130248692Y-88680134D01*
X130464348Y-88769461D01*
X130693288Y-88815000D01*
X130926712Y-88815000D01*
X131155652Y-88769461D01*
X131371308Y-88680134D01*
X131565394Y-88550450D01*
X131730450Y-88385394D01*
X131831248Y-88234539D01*
X131901533Y-88404222D01*
X132080408Y-88671927D01*
X132308073Y-88899592D01*
X132321454Y-88908533D01*
X132239591Y-88970599D01*
X132026936Y-89210275D01*
X131865125Y-89486833D01*
X131835648Y-89572046D01*
X131730450Y-89414606D01*
X131565394Y-89249550D01*
X131371308Y-89119866D01*
X131155652Y-89030539D01*
X130926712Y-88985000D01*
X130693288Y-88985000D01*
X130464348Y-89030539D01*
X130248692Y-89119866D01*
X130054606Y-89249550D01*
X129889550Y-89414606D01*
X129759866Y-89608692D01*
X129670539Y-89824348D01*
X129625000Y-90053288D01*
X129625000Y-90286712D01*
X129670539Y-90515652D01*
X129759866Y-90731308D01*
X129889550Y-90925394D01*
X130054606Y-91090450D01*
X130248692Y-91220134D01*
X130464348Y-91309461D01*
X130693288Y-91355000D01*
X130926712Y-91355000D01*
X131155652Y-91309461D01*
X131371308Y-91220134D01*
X131565394Y-91090450D01*
X131730450Y-90925394D01*
X131835648Y-90767954D01*
X131865125Y-90853167D01*
X132026936Y-91129725D01*
X132239591Y-91369401D01*
X132494919Y-91562985D01*
X132783107Y-91703037D01*
X132969646Y-91759619D01*
X133223000Y-91640265D01*
X133223000Y-90297000D01*
X133477000Y-90297000D01*
X133477000Y-91640265D01*
X133730354Y-91759619D01*
X133916893Y-91703037D01*
X134205081Y-91562985D01*
X134460409Y-91369401D01*
X134673064Y-91129725D01*
X134834875Y-90853167D01*
X134939623Y-90550355D01*
X134820803Y-90297000D01*
X133477000Y-90297000D01*
X133223000Y-90297000D01*
X133203000Y-90297000D01*
X133203000Y-90043000D01*
X133223000Y-90043000D01*
X133223000Y-90023000D01*
X133477000Y-90023000D01*
X133477000Y-90043000D01*
X134820803Y-90043000D01*
X134939623Y-89789645D01*
X134834875Y-89486833D01*
X134673064Y-89210275D01*
X134460409Y-88970599D01*
X134378546Y-88908533D01*
X134391927Y-88899592D01*
X134619592Y-88671927D01*
X134798467Y-88404222D01*
X134921678Y-88106763D01*
X134984490Y-87790983D01*
X134984490Y-87469017D01*
X134921678Y-87153237D01*
X134798467Y-86855778D01*
X134657533Y-86644856D01*
X134703984Y-86620027D01*
X134800675Y-86540675D01*
X134880027Y-86443984D01*
X134938992Y-86333670D01*
X134975302Y-86213972D01*
X134987562Y-86089490D01*
X134987562Y-84090510D01*
X134975302Y-83966028D01*
X134938992Y-83846330D01*
X134880027Y-83736016D01*
X134800675Y-83639325D01*
X134703984Y-83559973D01*
X134593670Y-83501008D01*
X134473972Y-83464698D01*
X134349490Y-83452438D01*
X132350510Y-83452438D01*
X132226028Y-83464698D01*
X132106330Y-83501008D01*
X131996016Y-83559973D01*
X131899325Y-83639325D01*
X131819973Y-83736016D01*
X131761008Y-83846330D01*
X131724698Y-83966028D01*
X131712438Y-84090510D01*
X131712438Y-84316594D01*
X131565394Y-84169550D01*
X131371308Y-84039866D01*
X131155652Y-83950539D01*
X130926712Y-83905000D01*
X130693288Y-83905000D01*
X130464348Y-83950539D01*
X130248692Y-84039866D01*
X130054606Y-84169550D01*
X129889550Y-84334606D01*
X129759866Y-84528692D01*
X129670539Y-84744348D01*
X129625000Y-84973288D01*
X122605000Y-84973288D01*
X122605000Y-69733288D01*
X129625000Y-69733288D01*
X129625000Y-69966712D01*
X129670539Y-70195652D01*
X129759866Y-70411308D01*
X129889550Y-70605394D01*
X130054606Y-70770450D01*
X130248692Y-70900134D01*
X130464348Y-70989461D01*
X130693288Y-71035000D01*
X130926712Y-71035000D01*
X131155652Y-70989461D01*
X131371308Y-70900134D01*
X131565394Y-70770450D01*
X131712438Y-70623406D01*
X131712438Y-70849490D01*
X131724698Y-70973972D01*
X131761008Y-71093670D01*
X131819973Y-71203984D01*
X131899325Y-71300675D01*
X131996016Y-71380027D01*
X132042467Y-71404856D01*
X131901533Y-71615778D01*
X131831248Y-71785461D01*
X131730450Y-71634606D01*
X131565394Y-71469550D01*
X131371308Y-71339866D01*
X131155652Y-71250539D01*
X130926712Y-71205000D01*
X130693288Y-71205000D01*
X130464348Y-71250539D01*
X130248692Y-71339866D01*
X130054606Y-71469550D01*
X129889550Y-71634606D01*
X129759866Y-71828692D01*
X129670539Y-72044348D01*
X129625000Y-72273288D01*
X129625000Y-72506712D01*
X129670539Y-72735652D01*
X129759866Y-72951308D01*
X129889550Y-73145394D01*
X130054606Y-73310450D01*
X130248692Y-73440134D01*
X130464348Y-73529461D01*
X130693288Y-73575000D01*
X130926712Y-73575000D01*
X131155652Y-73529461D01*
X131371308Y-73440134D01*
X131565394Y-73310450D01*
X131730450Y-73145394D01*
X131831248Y-72994539D01*
X131901533Y-73164222D01*
X132080408Y-73431927D01*
X132308073Y-73659592D01*
X132321454Y-73668533D01*
X132239591Y-73730599D01*
X132026936Y-73970275D01*
X131865125Y-74246833D01*
X131835648Y-74332046D01*
X131730450Y-74174606D01*
X131565394Y-74009550D01*
X131371308Y-73879866D01*
X131155652Y-73790539D01*
X130926712Y-73745000D01*
X130693288Y-73745000D01*
X130464348Y-73790539D01*
X130248692Y-73879866D01*
X130054606Y-74009550D01*
X129889550Y-74174606D01*
X129759866Y-74368692D01*
X129670539Y-74584348D01*
X129625000Y-74813288D01*
X129625000Y-75046712D01*
X129670539Y-75275652D01*
X129759866Y-75491308D01*
X129889550Y-75685394D01*
X130054606Y-75850450D01*
X130248692Y-75980134D01*
X130464348Y-76069461D01*
X130693288Y-76115000D01*
X130926712Y-76115000D01*
X131155652Y-76069461D01*
X131371308Y-75980134D01*
X131565394Y-75850450D01*
X131730450Y-75685394D01*
X131835648Y-75527954D01*
X131865125Y-75613167D01*
X132026936Y-75889725D01*
X132239591Y-76129401D01*
X132494919Y-76322985D01*
X132783107Y-76463037D01*
X132969646Y-76519619D01*
X133223000Y-76400265D01*
X133223000Y-75057000D01*
X133477000Y-75057000D01*
X133477000Y-76400265D01*
X133730354Y-76519619D01*
X133916893Y-76463037D01*
X134205081Y-76322985D01*
X134460409Y-76129401D01*
X134673064Y-75889725D01*
X134834875Y-75613167D01*
X134939623Y-75310355D01*
X134820803Y-75057000D01*
X133477000Y-75057000D01*
X133223000Y-75057000D01*
X133203000Y-75057000D01*
X133203000Y-74803000D01*
X133223000Y-74803000D01*
X133223000Y-74783000D01*
X133477000Y-74783000D01*
X133477000Y-74803000D01*
X134820803Y-74803000D01*
X134939623Y-74549645D01*
X134834875Y-74246833D01*
X134673064Y-73970275D01*
X134460409Y-73730599D01*
X134378546Y-73668533D01*
X134391927Y-73659592D01*
X134619592Y-73431927D01*
X134798467Y-73164222D01*
X134921678Y-72866763D01*
X134984490Y-72550983D01*
X134984490Y-72229017D01*
X134921678Y-71913237D01*
X134798467Y-71615778D01*
X134657533Y-71404856D01*
X134703984Y-71380027D01*
X134800675Y-71300675D01*
X134880027Y-71203984D01*
X134938992Y-71093670D01*
X134975302Y-70973972D01*
X134987562Y-70849490D01*
X134987562Y-68850510D01*
X134975302Y-68726028D01*
X134938992Y-68606330D01*
X134880027Y-68496016D01*
X134800675Y-68399325D01*
X134703984Y-68319973D01*
X134593670Y-68261008D01*
X134473972Y-68224698D01*
X134349490Y-68212438D01*
X132350510Y-68212438D01*
X132226028Y-68224698D01*
X132106330Y-68261008D01*
X131996016Y-68319973D01*
X131899325Y-68399325D01*
X131819973Y-68496016D01*
X131761008Y-68606330D01*
X131724698Y-68726028D01*
X131712438Y-68850510D01*
X131712438Y-69076594D01*
X131565394Y-68929550D01*
X131371308Y-68799866D01*
X131155652Y-68710539D01*
X130926712Y-68665000D01*
X130693288Y-68665000D01*
X130464348Y-68710539D01*
X130248692Y-68799866D01*
X130054606Y-68929550D01*
X129889550Y-69094606D01*
X129759866Y-69288692D01*
X129670539Y-69504348D01*
X129625000Y-69733288D01*
X122605000Y-69733288D01*
X122605000Y-61340354D01*
X130490381Y-61340354D01*
X130546963Y-61526893D01*
X130687015Y-61815081D01*
X130880599Y-62070409D01*
X131120275Y-62283064D01*
X131396833Y-62444875D01*
X131699645Y-62549623D01*
X131953000Y-62430803D01*
X131953000Y-61087000D01*
X130609735Y-61087000D01*
X130490381Y-61340354D01*
X122605000Y-61340354D01*
X122605000Y-60579646D01*
X130490381Y-60579646D01*
X130609735Y-60833000D01*
X131953000Y-60833000D01*
X131953000Y-60813000D01*
X132207000Y-60813000D01*
X132207000Y-60833000D01*
X132227000Y-60833000D01*
X132227000Y-61087000D01*
X132207000Y-61087000D01*
X132207000Y-62430803D01*
X132460355Y-62549623D01*
X132763167Y-62444875D01*
X133039725Y-62283064D01*
X133279401Y-62070409D01*
X133341467Y-61988546D01*
X133350408Y-62001927D01*
X133385001Y-62036520D01*
X133385000Y-63439334D01*
X133379025Y-63500000D01*
X133402870Y-63742102D01*
X133415076Y-63782338D01*
X133473489Y-63974900D01*
X133588167Y-64189448D01*
X133742498Y-64377502D01*
X133789625Y-64416178D01*
X136243826Y-66870380D01*
X136282498Y-66917502D01*
X136470551Y-67071833D01*
X136685099Y-67186511D01*
X136917898Y-67257130D01*
X137099335Y-67275000D01*
X137099344Y-67275000D01*
X137159999Y-67280974D01*
X137220654Y-67275000D01*
X140274335Y-67275000D01*
X140335000Y-67280975D01*
X140395665Y-67275000D01*
X140577102Y-67257130D01*
X140809901Y-67186511D01*
X141024449Y-67071833D01*
X141212502Y-66917502D01*
X141251178Y-66870375D01*
X143705380Y-64416174D01*
X143752502Y-64377502D01*
X143906833Y-64189449D01*
X144021511Y-63974901D01*
X144092130Y-63742102D01*
X144110000Y-63560665D01*
X144110000Y-63560656D01*
X144115974Y-63500001D01*
X144110000Y-63439346D01*
X144110000Y-56391553D01*
X144656554Y-55845000D01*
X162048447Y-55845000D01*
X169390826Y-63187380D01*
X169429498Y-63234502D01*
X169617551Y-63388833D01*
X169832099Y-63503511D01*
X170064898Y-63574130D01*
X170246335Y-63592000D01*
X170246344Y-63592000D01*
X170306999Y-63597974D01*
X170367654Y-63592000D01*
X173193918Y-63592000D01*
X173384256Y-63782338D01*
X173684801Y-63983156D01*
X174018750Y-64121482D01*
X174373268Y-64192000D01*
X174734732Y-64192000D01*
X175089250Y-64121482D01*
X175423199Y-63983156D01*
X175723744Y-63782338D01*
X175979338Y-63526744D01*
X176180156Y-63226199D01*
X176217341Y-63136426D01*
X176215928Y-63557000D01*
X176228188Y-63681482D01*
X176264498Y-63801180D01*
X176323463Y-63911494D01*
X176402815Y-64008185D01*
X176499506Y-64087537D01*
X176609820Y-64146502D01*
X176729518Y-64182812D01*
X176854000Y-64195072D01*
X177768250Y-64192000D01*
X177927000Y-64033250D01*
X177927000Y-62484000D01*
X178181000Y-62484000D01*
X178181000Y-64033250D01*
X178339750Y-64192000D01*
X179254000Y-64195072D01*
X179378482Y-64182812D01*
X179498180Y-64146502D01*
X179608494Y-64087537D01*
X179705185Y-64008185D01*
X179784537Y-63911494D01*
X179843502Y-63801180D01*
X179879812Y-63681482D01*
X179892072Y-63557000D01*
X179889000Y-62642750D01*
X179730250Y-62484000D01*
X178181000Y-62484000D01*
X177927000Y-62484000D01*
X177907000Y-62484000D01*
X177907000Y-62230000D01*
X177927000Y-62230000D01*
X177927000Y-60680750D01*
X178181000Y-60680750D01*
X178181000Y-62230000D01*
X179730250Y-62230000D01*
X179889000Y-62071250D01*
X179892072Y-61157000D01*
X179879812Y-61032518D01*
X179843502Y-60912820D01*
X179784537Y-60802506D01*
X179705185Y-60705815D01*
X179608494Y-60626463D01*
X179498180Y-60567498D01*
X179378482Y-60531188D01*
X179254000Y-60518928D01*
X178339750Y-60522000D01*
X178181000Y-60680750D01*
X177927000Y-60680750D01*
X177768250Y-60522000D01*
X176854000Y-60518928D01*
X176729518Y-60531188D01*
X176609820Y-60567498D01*
X176499506Y-60626463D01*
X176402815Y-60705815D01*
X176323463Y-60802506D01*
X176264498Y-60912820D01*
X176228188Y-61032518D01*
X176215928Y-61157000D01*
X176217341Y-61577574D01*
X176180156Y-61487801D01*
X175979338Y-61187256D01*
X175723744Y-60931662D01*
X175423199Y-60730844D01*
X175089250Y-60592518D01*
X174734732Y-60522000D01*
X174373268Y-60522000D01*
X174018750Y-60592518D01*
X173684801Y-60730844D01*
X173384256Y-60931662D01*
X173193918Y-61122000D01*
X170818554Y-61122000D01*
X168697822Y-59001268D01*
X181807000Y-59001268D01*
X181807000Y-59362732D01*
X181877518Y-59717250D01*
X182015844Y-60051199D01*
X182216662Y-60351744D01*
X182472256Y-60607338D01*
X182772801Y-60808156D01*
X183106750Y-60946482D01*
X183461268Y-61017000D01*
X183822732Y-61017000D01*
X184177250Y-60946482D01*
X184511199Y-60808156D01*
X184811744Y-60607338D01*
X185067338Y-60351744D01*
X185268156Y-60051199D01*
X185406482Y-59717250D01*
X185477000Y-59362732D01*
X185477000Y-59001268D01*
X188157000Y-59001268D01*
X188157000Y-59362732D01*
X188227518Y-59717250D01*
X188365844Y-60051199D01*
X188566662Y-60351744D01*
X188822256Y-60607338D01*
X189122801Y-60808156D01*
X189456750Y-60946482D01*
X189811268Y-61017000D01*
X190172732Y-61017000D01*
X190527250Y-60946482D01*
X190861199Y-60808156D01*
X191161744Y-60607338D01*
X191417338Y-60351744D01*
X191618156Y-60051199D01*
X191756482Y-59717250D01*
X191827000Y-59362732D01*
X191827000Y-59001268D01*
X191756482Y-58646750D01*
X191618156Y-58312801D01*
X191417338Y-58012256D01*
X191161744Y-57756662D01*
X190861199Y-57555844D01*
X190527250Y-57417518D01*
X190172732Y-57347000D01*
X189811268Y-57347000D01*
X189456750Y-57417518D01*
X189122801Y-57555844D01*
X188822256Y-57756662D01*
X188566662Y-58012256D01*
X188365844Y-58312801D01*
X188227518Y-58646750D01*
X188157000Y-59001268D01*
X185477000Y-59001268D01*
X185406482Y-58646750D01*
X185268156Y-58312801D01*
X185067338Y-58012256D01*
X184811744Y-57756662D01*
X184511199Y-57555844D01*
X184177250Y-57417518D01*
X183822732Y-57347000D01*
X183461268Y-57347000D01*
X183106750Y-57417518D01*
X182772801Y-57555844D01*
X182472256Y-57756662D01*
X182216662Y-58012256D01*
X182015844Y-58312801D01*
X181877518Y-58646750D01*
X181807000Y-59001268D01*
X168697822Y-59001268D01*
X164063859Y-54367305D01*
X188035872Y-54367305D01*
X188035872Y-54852695D01*
X188130567Y-55328760D01*
X188316318Y-55777202D01*
X188585987Y-56180790D01*
X188929210Y-56524013D01*
X189332798Y-56793682D01*
X189781240Y-56979433D01*
X190257305Y-57074128D01*
X190742695Y-57074128D01*
X191218760Y-56979433D01*
X191667202Y-56793682D01*
X192070790Y-56524013D01*
X192414013Y-56180790D01*
X192683682Y-55777202D01*
X192869433Y-55328760D01*
X192964128Y-54852695D01*
X192964128Y-54367305D01*
X192869433Y-53891240D01*
X192683682Y-53442798D01*
X192414013Y-53039210D01*
X192070790Y-52695987D01*
X191667202Y-52426318D01*
X191218760Y-52240567D01*
X190742695Y-52145872D01*
X190257305Y-52145872D01*
X189781240Y-52240567D01*
X189332798Y-52426318D01*
X188929210Y-52695987D01*
X188585987Y-53039210D01*
X188316318Y-53442798D01*
X188130567Y-53891240D01*
X188035872Y-54367305D01*
X164063859Y-54367305D01*
X163476179Y-53779626D01*
X163437502Y-53732498D01*
X163249449Y-53578167D01*
X163034901Y-53463489D01*
X162802102Y-53392870D01*
X162620665Y-53375000D01*
X162560000Y-53369025D01*
X162499335Y-53375000D01*
X144205664Y-53375000D01*
X144144999Y-53369025D01*
X143902897Y-53392870D01*
X143738308Y-53442798D01*
X143670099Y-53463489D01*
X143455551Y-53578167D01*
X143267498Y-53732498D01*
X143228826Y-53779620D01*
X142044625Y-54963822D01*
X141997498Y-55002498D01*
X141843167Y-55190552D01*
X141728489Y-55405100D01*
X141728489Y-55405101D01*
X141657870Y-55637898D01*
X141634025Y-55880000D01*
X141640000Y-55940665D01*
X141640001Y-62988445D01*
X139823447Y-64805000D01*
X137671554Y-64805000D01*
X135855000Y-62988447D01*
X135855000Y-62516210D01*
X135916330Y-62548992D01*
X136036028Y-62585302D01*
X136160510Y-62597562D01*
X138159490Y-62597562D01*
X138283972Y-62585302D01*
X138403670Y-62548992D01*
X138513984Y-62490027D01*
X138610675Y-62410675D01*
X138690027Y-62313984D01*
X138748992Y-62203670D01*
X138785302Y-62083972D01*
X138797562Y-61959490D01*
X138797562Y-59960510D01*
X138785302Y-59836028D01*
X138748992Y-59716330D01*
X138690027Y-59606016D01*
X138610675Y-59509325D01*
X138513984Y-59429973D01*
X138403670Y-59371008D01*
X138283972Y-59334698D01*
X138159490Y-59322438D01*
X137933406Y-59322438D01*
X138080450Y-59175394D01*
X138210134Y-58981308D01*
X138299461Y-58765652D01*
X138345000Y-58536712D01*
X138345000Y-58303288D01*
X138299461Y-58074348D01*
X138210134Y-57858692D01*
X138080450Y-57664606D01*
X137915394Y-57499550D01*
X137721308Y-57369866D01*
X137505652Y-57280539D01*
X137276712Y-57235000D01*
X137043288Y-57235000D01*
X136814348Y-57280539D01*
X136598692Y-57369866D01*
X136404606Y-57499550D01*
X136239550Y-57664606D01*
X136109866Y-57858692D01*
X136020539Y-58074348D01*
X135975000Y-58303288D01*
X135975000Y-58536712D01*
X136020539Y-58765652D01*
X136109866Y-58981308D01*
X136239550Y-59175394D01*
X136386594Y-59322438D01*
X136160510Y-59322438D01*
X136036028Y-59334698D01*
X135916330Y-59371008D01*
X135806016Y-59429973D01*
X135709325Y-59509325D01*
X135629973Y-59606016D01*
X135605144Y-59652467D01*
X135394222Y-59511533D01*
X135224539Y-59441248D01*
X135375394Y-59340450D01*
X135540450Y-59175394D01*
X135670134Y-58981308D01*
X135759461Y-58765652D01*
X135805000Y-58536712D01*
X135805000Y-58303288D01*
X135759461Y-58074348D01*
X135670134Y-57858692D01*
X135540450Y-57664606D01*
X135375394Y-57499550D01*
X135181308Y-57369866D01*
X134965652Y-57280539D01*
X134736712Y-57235000D01*
X134503288Y-57235000D01*
X134274348Y-57280539D01*
X134058692Y-57369866D01*
X133864606Y-57499550D01*
X133699550Y-57664606D01*
X133569866Y-57858692D01*
X133480539Y-58074348D01*
X133435000Y-58303288D01*
X133435000Y-58536712D01*
X133480539Y-58765652D01*
X133569866Y-58981308D01*
X133699550Y-59175394D01*
X133864606Y-59340450D01*
X134015461Y-59441248D01*
X133845778Y-59511533D01*
X133578073Y-59690408D01*
X133350408Y-59918073D01*
X133341467Y-59931454D01*
X133279401Y-59849591D01*
X133039725Y-59636936D01*
X132763167Y-59475125D01*
X132677954Y-59445648D01*
X132835394Y-59340450D01*
X133000450Y-59175394D01*
X133130134Y-58981308D01*
X133219461Y-58765652D01*
X133265000Y-58536712D01*
X133265000Y-58303288D01*
X133219461Y-58074348D01*
X133130134Y-57858692D01*
X133000450Y-57664606D01*
X132835394Y-57499550D01*
X132641308Y-57369866D01*
X132425652Y-57280539D01*
X132196712Y-57235000D01*
X131963288Y-57235000D01*
X131734348Y-57280539D01*
X131518692Y-57369866D01*
X131324606Y-57499550D01*
X131159550Y-57664606D01*
X131029866Y-57858692D01*
X130940539Y-58074348D01*
X130895000Y-58303288D01*
X130895000Y-58536712D01*
X130940539Y-58765652D01*
X131029866Y-58981308D01*
X131159550Y-59175394D01*
X131324606Y-59340450D01*
X131482046Y-59445648D01*
X131396833Y-59475125D01*
X131120275Y-59636936D01*
X130880599Y-59849591D01*
X130687015Y-60104919D01*
X130546963Y-60393107D01*
X130490381Y-60579646D01*
X122605000Y-60579646D01*
X122605000Y-54367305D01*
X123265872Y-54367305D01*
X123265872Y-54852695D01*
X123360567Y-55328760D01*
X123546318Y-55777202D01*
X123815987Y-56180790D01*
X124159210Y-56524013D01*
X124562798Y-56793682D01*
X125011240Y-56979433D01*
X125487305Y-57074128D01*
X125972695Y-57074128D01*
X126448760Y-56979433D01*
X126897202Y-56793682D01*
X127300790Y-56524013D01*
X127644013Y-56180790D01*
X127913682Y-55777202D01*
X128099433Y-55328760D01*
X128194128Y-54852695D01*
X128194128Y-54367305D01*
X128099433Y-53891240D01*
X127913682Y-53442798D01*
X127644013Y-53039210D01*
X127300790Y-52695987D01*
X126897202Y-52426318D01*
X126448760Y-52240567D01*
X125972695Y-52145872D01*
X125487305Y-52145872D01*
X125011240Y-52240567D01*
X124562798Y-52426318D01*
X124159210Y-52695987D01*
X123815987Y-53039210D01*
X123546318Y-53442798D01*
X123360567Y-53891240D01*
X123265872Y-54367305D01*
X122605000Y-54367305D01*
X122605000Y-51485000D01*
X193625000Y-51485000D01*
X193625001Y-125045000D01*
G37*
X193625001Y-125045000D02*
X122605000Y-125045000D01*
X122605000Y-121677305D01*
X123265872Y-121677305D01*
X123265872Y-122162695D01*
X123360567Y-122638760D01*
X123546318Y-123087202D01*
X123815987Y-123490790D01*
X124159210Y-123834013D01*
X124562798Y-124103682D01*
X125011240Y-124289433D01*
X125487305Y-124384128D01*
X125972695Y-124384128D01*
X126448760Y-124289433D01*
X126897202Y-124103682D01*
X127300790Y-123834013D01*
X127644013Y-123490790D01*
X127913682Y-123087202D01*
X128099433Y-122638760D01*
X128194128Y-122162695D01*
X128194128Y-121677305D01*
X128099433Y-121201240D01*
X127913682Y-120752798D01*
X127644013Y-120349210D01*
X127300790Y-120005987D01*
X126897202Y-119736318D01*
X126448760Y-119550567D01*
X125972695Y-119455872D01*
X125487305Y-119455872D01*
X125011240Y-119550567D01*
X124562798Y-119736318D01*
X124159210Y-120005987D01*
X123815987Y-120349210D01*
X123546318Y-120752798D01*
X123360567Y-121201240D01*
X123265872Y-121677305D01*
X122605000Y-121677305D01*
X122605000Y-100213288D01*
X129625000Y-100213288D01*
X129625000Y-100446712D01*
X129670539Y-100675652D01*
X129759866Y-100891308D01*
X129889550Y-101085394D01*
X130054606Y-101250450D01*
X130248692Y-101380134D01*
X130464348Y-101469461D01*
X130693288Y-101515000D01*
X130926712Y-101515000D01*
X131155652Y-101469461D01*
X131371308Y-101380134D01*
X131565394Y-101250450D01*
X131713415Y-101102429D01*
X131712438Y-101329490D01*
X131724698Y-101453972D01*
X131761008Y-101573670D01*
X131819973Y-101683984D01*
X131899325Y-101780675D01*
X131996016Y-101860027D01*
X132042467Y-101884856D01*
X131901533Y-102095778D01*
X131831248Y-102265461D01*
X131730450Y-102114606D01*
X131565394Y-101949550D01*
X131371308Y-101819866D01*
X131155652Y-101730539D01*
X130926712Y-101685000D01*
X130693288Y-101685000D01*
X130464348Y-101730539D01*
X130248692Y-101819866D01*
X130054606Y-101949550D01*
X129889550Y-102114606D01*
X129759866Y-102308692D01*
X129670539Y-102524348D01*
X129625000Y-102753288D01*
X129625000Y-102986712D01*
X129670539Y-103215652D01*
X129759866Y-103431308D01*
X129889550Y-103625394D01*
X130054606Y-103790450D01*
X130248692Y-103920134D01*
X130464348Y-104009461D01*
X130693288Y-104055000D01*
X130926712Y-104055000D01*
X131155652Y-104009461D01*
X131205613Y-103988767D01*
X131190719Y-104140000D01*
X131195001Y-104183476D01*
X131195000Y-119336531D01*
X131190719Y-119380000D01*
X131195000Y-119423469D01*
X131195000Y-119423476D01*
X131207805Y-119553489D01*
X131258411Y-119720312D01*
X131340589Y-119874058D01*
X131451183Y-120008817D01*
X131484956Y-120036534D01*
X132693470Y-121245049D01*
X132721183Y-121278817D01*
X132754951Y-121306530D01*
X132754953Y-121306532D01*
X132812075Y-121353411D01*
X132855941Y-121389411D01*
X133009687Y-121471589D01*
X133176510Y-121522195D01*
X133306523Y-121535000D01*
X133306533Y-121535000D01*
X133349999Y-121539281D01*
X133393465Y-121535000D01*
X134274402Y-121535000D01*
X134464662Y-121819744D01*
X134720256Y-122075338D01*
X135020801Y-122276156D01*
X135354750Y-122414482D01*
X135709268Y-122485000D01*
X136070732Y-122485000D01*
X136425250Y-122414482D01*
X136759199Y-122276156D01*
X137059744Y-122075338D01*
X137315338Y-121819744D01*
X137516156Y-121519199D01*
X137654482Y-121185250D01*
X137725000Y-120830732D01*
X137725000Y-120469268D01*
X137654482Y-120114750D01*
X137516156Y-119780801D01*
X137315338Y-119480256D01*
X137059744Y-119224662D01*
X136759199Y-119023844D01*
X136425250Y-118885518D01*
X136070732Y-118815000D01*
X135709268Y-118815000D01*
X135354750Y-118885518D01*
X135020801Y-119023844D01*
X134720256Y-119224662D01*
X134464662Y-119480256D01*
X134274402Y-119765000D01*
X133716579Y-119765000D01*
X132965000Y-119013422D01*
X132965000Y-112180000D01*
X175041928Y-112180000D01*
X175041928Y-113880000D01*
X175054188Y-114004482D01*
X175090498Y-114124180D01*
X175149463Y-114234494D01*
X175228815Y-114331185D01*
X175325506Y-114410537D01*
X175435820Y-114469502D01*
X175508380Y-114491513D01*
X175376525Y-114623368D01*
X175214010Y-114866589D01*
X175102068Y-115136842D01*
X175045000Y-115423740D01*
X175045000Y-115716260D01*
X175102068Y-116003158D01*
X175214010Y-116273411D01*
X175376525Y-116516632D01*
X175583368Y-116723475D01*
X175757760Y-116840000D01*
X175583368Y-116956525D01*
X175376525Y-117163368D01*
X175214010Y-117406589D01*
X175102068Y-117676842D01*
X175045000Y-117963740D01*
X175045000Y-118256260D01*
X175102068Y-118543158D01*
X175214010Y-118813411D01*
X175376525Y-119056632D01*
X175583368Y-119263475D01*
X175757760Y-119380000D01*
X175583368Y-119496525D01*
X175376525Y-119703368D01*
X175214010Y-119946589D01*
X175102068Y-120216842D01*
X175045000Y-120503740D01*
X175045000Y-120796260D01*
X175102068Y-121083158D01*
X175214010Y-121353411D01*
X175376525Y-121596632D01*
X175583368Y-121803475D01*
X175826589Y-121965990D01*
X176096842Y-122077932D01*
X176383740Y-122135000D01*
X176676260Y-122135000D01*
X176963158Y-122077932D01*
X177233411Y-121965990D01*
X177476632Y-121803475D01*
X177683475Y-121596632D01*
X177845990Y-121353411D01*
X177957932Y-121083158D01*
X178015000Y-120796260D01*
X178015000Y-120503740D01*
X177957932Y-120216842D01*
X177845990Y-119946589D01*
X177683475Y-119703368D01*
X177476632Y-119496525D01*
X177302240Y-119380000D01*
X177476632Y-119263475D01*
X177683475Y-119056632D01*
X177845990Y-118813411D01*
X177957932Y-118543158D01*
X178015000Y-118256260D01*
X178015000Y-117963740D01*
X177957932Y-117676842D01*
X177845990Y-117406589D01*
X177683475Y-117163368D01*
X177476632Y-116956525D01*
X177302240Y-116840000D01*
X177476632Y-116723475D01*
X177683475Y-116516632D01*
X177845990Y-116273411D01*
X177957932Y-116003158D01*
X178015000Y-115716260D01*
X178015000Y-115423740D01*
X177957932Y-115136842D01*
X177845990Y-114866589D01*
X177683475Y-114623368D01*
X177551620Y-114491513D01*
X177624180Y-114469502D01*
X177734494Y-114410537D01*
X177831185Y-114331185D01*
X177910537Y-114234494D01*
X177969502Y-114124180D01*
X178005812Y-114004482D01*
X178018072Y-113880000D01*
X178018072Y-112180000D01*
X178005812Y-112055518D01*
X177969502Y-111935820D01*
X177910537Y-111825506D01*
X177831185Y-111728815D01*
X177734494Y-111649463D01*
X177624180Y-111590498D01*
X177504482Y-111554188D01*
X177380000Y-111541928D01*
X175680000Y-111541928D01*
X175555518Y-111554188D01*
X175435820Y-111590498D01*
X175325506Y-111649463D01*
X175228815Y-111728815D01*
X175149463Y-111825506D01*
X175090498Y-111935820D01*
X175054188Y-112055518D01*
X175041928Y-112180000D01*
X132965000Y-112180000D01*
X132965000Y-110820565D01*
X140184040Y-110820565D01*
X140251020Y-111060656D01*
X140500048Y-111177756D01*
X140767135Y-111244023D01*
X141042017Y-111256910D01*
X141314133Y-111215922D01*
X141573023Y-111122636D01*
X141688980Y-111060656D01*
X141755960Y-110820565D01*
X140970000Y-110034605D01*
X140184040Y-110820565D01*
X132965000Y-110820565D01*
X132965000Y-109927017D01*
X139568090Y-109927017D01*
X139609078Y-110199133D01*
X139702364Y-110458023D01*
X139764344Y-110573980D01*
X140004435Y-110640960D01*
X140790395Y-109855000D01*
X141149605Y-109855000D01*
X141935565Y-110640960D01*
X142175656Y-110573980D01*
X142292756Y-110324952D01*
X142359023Y-110057865D01*
X142371910Y-109782983D01*
X142330922Y-109510867D01*
X142237636Y-109251977D01*
X142175656Y-109136020D01*
X141935565Y-109069040D01*
X141149605Y-109855000D01*
X140790395Y-109855000D01*
X140004435Y-109069040D01*
X139764344Y-109136020D01*
X139647244Y-109385048D01*
X139580977Y-109652135D01*
X139568090Y-109927017D01*
X132965000Y-109927017D01*
X132965000Y-107769268D01*
X134055000Y-107769268D01*
X134055000Y-108130732D01*
X134125518Y-108485250D01*
X134263844Y-108819199D01*
X134464662Y-109119744D01*
X134720256Y-109375338D01*
X135020801Y-109576156D01*
X135354750Y-109714482D01*
X135709268Y-109785000D01*
X136070732Y-109785000D01*
X136425250Y-109714482D01*
X136759199Y-109576156D01*
X137059744Y-109375338D01*
X137315338Y-109119744D01*
X137516156Y-108819199D01*
X137654482Y-108485250D01*
X137725000Y-108130732D01*
X137725000Y-107769268D01*
X137654482Y-107414750D01*
X137516156Y-107080801D01*
X137315338Y-106780256D01*
X137059744Y-106524662D01*
X136759199Y-106323844D01*
X136425250Y-106185518D01*
X136070732Y-106115000D01*
X135709268Y-106115000D01*
X135354750Y-106185518D01*
X135020801Y-106323844D01*
X134720256Y-106524662D01*
X134464662Y-106780256D01*
X134263844Y-107080801D01*
X134125518Y-107414750D01*
X134055000Y-107769268D01*
X132965000Y-107769268D01*
X132965000Y-104506578D01*
X133003908Y-104467670D01*
X133189017Y-104504490D01*
X133510983Y-104504490D01*
X133826763Y-104441678D01*
X134124222Y-104318467D01*
X134391927Y-104139592D01*
X134619592Y-103911927D01*
X134724174Y-103755409D01*
X134763492Y-103759281D01*
X134806961Y-103755000D01*
X134806969Y-103755000D01*
X134936982Y-103742195D01*
X135103805Y-103691589D01*
X135257551Y-103609411D01*
X135392309Y-103498817D01*
X135420026Y-103465044D01*
X138390050Y-100495021D01*
X138423817Y-100467309D01*
X138462398Y-100420299D01*
X138534411Y-100332551D01*
X138577299Y-100252312D01*
X138616589Y-100178805D01*
X138667195Y-100011982D01*
X138680000Y-99881969D01*
X138680000Y-99881961D01*
X138684281Y-99838492D01*
X138680000Y-99795023D01*
X138680000Y-75677578D01*
X139177579Y-75180000D01*
X139881182Y-75180000D01*
X139884880Y-75185535D01*
X140079465Y-75380120D01*
X140308273Y-75533005D01*
X140385515Y-75565000D01*
X140308273Y-75596995D01*
X140079465Y-75749880D01*
X139884880Y-75944465D01*
X139731995Y-76173273D01*
X139626686Y-76427510D01*
X139573000Y-76697408D01*
X139573000Y-76972592D01*
X139626686Y-77242490D01*
X139731995Y-77496727D01*
X139884880Y-77725535D01*
X140079465Y-77920120D01*
X140308273Y-78073005D01*
X140385515Y-78105000D01*
X140308273Y-78136995D01*
X140079465Y-78289880D01*
X139884880Y-78484465D01*
X139731995Y-78713273D01*
X139626686Y-78967510D01*
X139573000Y-79237408D01*
X139573000Y-79512592D01*
X139626686Y-79782490D01*
X139731995Y-80036727D01*
X139884880Y-80265535D01*
X140079465Y-80460120D01*
X140308273Y-80613005D01*
X140385515Y-80645000D01*
X140308273Y-80676995D01*
X140079465Y-80829880D01*
X139884880Y-81024465D01*
X139731995Y-81253273D01*
X139626686Y-81507510D01*
X139573000Y-81777408D01*
X139573000Y-82052592D01*
X139626686Y-82322490D01*
X139731995Y-82576727D01*
X139884880Y-82805535D01*
X140079465Y-83000120D01*
X140308273Y-83153005D01*
X140385515Y-83185000D01*
X140308273Y-83216995D01*
X140079465Y-83369880D01*
X139884880Y-83564465D01*
X139731995Y-83793273D01*
X139626686Y-84047510D01*
X139573000Y-84317408D01*
X139573000Y-84592592D01*
X139626686Y-84862490D01*
X139731995Y-85116727D01*
X139884880Y-85345535D01*
X140079465Y-85540120D01*
X140308273Y-85693005D01*
X140385515Y-85725000D01*
X140308273Y-85756995D01*
X140079465Y-85909880D01*
X139884880Y-86104465D01*
X139731995Y-86333273D01*
X139626686Y-86587510D01*
X139573000Y-86857408D01*
X139573000Y-87132592D01*
X139626686Y-87402490D01*
X139731995Y-87656727D01*
X139884880Y-87885535D01*
X140079465Y-88080120D01*
X140308273Y-88233005D01*
X140385515Y-88265000D01*
X140308273Y-88296995D01*
X140079465Y-88449880D01*
X139884880Y-88644465D01*
X139731995Y-88873273D01*
X139626686Y-89127510D01*
X139573000Y-89397408D01*
X139573000Y-89672592D01*
X139626686Y-89942490D01*
X139731995Y-90196727D01*
X139884880Y-90425535D01*
X140079465Y-90620120D01*
X140308273Y-90773005D01*
X140385515Y-90805000D01*
X140308273Y-90836995D01*
X140079465Y-90989880D01*
X139884880Y-91184465D01*
X139731995Y-91413273D01*
X139626686Y-91667510D01*
X139573000Y-91937408D01*
X139573000Y-92212592D01*
X139626686Y-92482490D01*
X139731995Y-92736727D01*
X139884880Y-92965535D01*
X140079465Y-93160120D01*
X140308273Y-93313005D01*
X140385515Y-93345000D01*
X140308273Y-93376995D01*
X140079465Y-93529880D01*
X139884880Y-93724465D01*
X139731995Y-93953273D01*
X139626686Y-94207510D01*
X139573000Y-94477408D01*
X139573000Y-94752592D01*
X139626686Y-95022490D01*
X139731995Y-95276727D01*
X139884880Y-95505535D01*
X140079465Y-95700120D01*
X140308273Y-95853005D01*
X140385515Y-95885000D01*
X140308273Y-95916995D01*
X140079465Y-96069880D01*
X139884880Y-96264465D01*
X139731995Y-96493273D01*
X139626686Y-96747510D01*
X139573000Y-97017408D01*
X139573000Y-97292592D01*
X139626686Y-97562490D01*
X139731995Y-97816727D01*
X139884880Y-98045535D01*
X140079465Y-98240120D01*
X140308273Y-98393005D01*
X140385515Y-98425000D01*
X140308273Y-98456995D01*
X140079465Y-98609880D01*
X139884880Y-98804465D01*
X139731995Y-99033273D01*
X139626686Y-99287510D01*
X139573000Y-99557408D01*
X139573000Y-99832592D01*
X139626686Y-100102490D01*
X139731995Y-100356727D01*
X139884880Y-100585535D01*
X140079465Y-100780120D01*
X140308273Y-100933005D01*
X140385515Y-100965000D01*
X140308273Y-100996995D01*
X140079465Y-101149880D01*
X139884880Y-101344465D01*
X139731995Y-101573273D01*
X139626686Y-101827510D01*
X139573000Y-102097408D01*
X139573000Y-102372592D01*
X139626686Y-102642490D01*
X139731995Y-102896727D01*
X139884880Y-103125535D01*
X140079465Y-103320120D01*
X140308273Y-103473005D01*
X140385515Y-103505000D01*
X140308273Y-103536995D01*
X140079465Y-103689880D01*
X139884880Y-103884465D01*
X139731995Y-104113273D01*
X139626686Y-104367510D01*
X139573000Y-104637408D01*
X139573000Y-104912592D01*
X139626686Y-105182490D01*
X139731995Y-105436727D01*
X139884880Y-105665535D01*
X140079465Y-105860120D01*
X140308273Y-106013005D01*
X140385515Y-106045000D01*
X140308273Y-106076995D01*
X140079465Y-106229880D01*
X139884880Y-106424465D01*
X139731995Y-106653273D01*
X139626686Y-106907510D01*
X139573000Y-107177408D01*
X139573000Y-107452592D01*
X139626686Y-107722490D01*
X139731995Y-107976727D01*
X139884880Y-108205535D01*
X140079465Y-108400120D01*
X140308273Y-108553005D01*
X140379943Y-108582692D01*
X140366977Y-108587364D01*
X140251020Y-108649344D01*
X140184040Y-108889435D01*
X140970000Y-109675395D01*
X141755960Y-108889435D01*
X141688980Y-108649344D01*
X141553240Y-108585515D01*
X141631727Y-108553005D01*
X141860535Y-108400120D01*
X142055120Y-108205535D01*
X142208005Y-107976727D01*
X142313314Y-107722490D01*
X142367000Y-107452592D01*
X142367000Y-107177408D01*
X142313314Y-106907510D01*
X142208005Y-106653273D01*
X142055120Y-106424465D01*
X141860535Y-106229880D01*
X141631727Y-106076995D01*
X141554485Y-106045000D01*
X141631727Y-106013005D01*
X141860535Y-105860120D01*
X142055120Y-105665535D01*
X142208005Y-105436727D01*
X142313314Y-105182490D01*
X142367000Y-104912592D01*
X142367000Y-104637408D01*
X142365701Y-104630877D01*
X150455049Y-96541530D01*
X150488817Y-96513817D01*
X150599411Y-96379059D01*
X150660662Y-96264465D01*
X150681589Y-96225314D01*
X150732195Y-96058490D01*
X150742544Y-95953411D01*
X150745000Y-95928477D01*
X150745000Y-95928469D01*
X150749281Y-95885000D01*
X150745000Y-95841531D01*
X150745000Y-60884656D01*
X150806632Y-60843475D01*
X151013475Y-60636632D01*
X151130000Y-60462240D01*
X151246525Y-60636632D01*
X151453368Y-60843475D01*
X151515000Y-60884656D01*
X151515001Y-88221521D01*
X151510719Y-88265000D01*
X151527805Y-88438490D01*
X151578412Y-88605313D01*
X151660590Y-88759059D01*
X151743468Y-88860046D01*
X151743471Y-88860049D01*
X151771184Y-88893817D01*
X151804952Y-88921530D01*
X167514299Y-104630878D01*
X167513000Y-104637408D01*
X167513000Y-104912592D01*
X167566686Y-105182490D01*
X167671995Y-105436727D01*
X167824880Y-105665535D01*
X168019465Y-105860120D01*
X168248273Y-106013005D01*
X168325515Y-106045000D01*
X168248273Y-106076995D01*
X168019465Y-106229880D01*
X167824880Y-106424465D01*
X167671995Y-106653273D01*
X167566686Y-106907510D01*
X167513000Y-107177408D01*
X167513000Y-107452592D01*
X167566686Y-107722490D01*
X167671995Y-107976727D01*
X167824880Y-108205535D01*
X168019465Y-108400120D01*
X168248273Y-108553005D01*
X168325515Y-108585000D01*
X168248273Y-108616995D01*
X168019465Y-108769880D01*
X167824880Y-108964465D01*
X167671995Y-109193273D01*
X167566686Y-109447510D01*
X167513000Y-109717408D01*
X167513000Y-109992592D01*
X167566686Y-110262490D01*
X167671995Y-110516727D01*
X167824880Y-110745535D01*
X168019465Y-110940120D01*
X168248273Y-111093005D01*
X168502510Y-111198314D01*
X168772408Y-111252000D01*
X169047592Y-111252000D01*
X169317490Y-111198314D01*
X169571727Y-111093005D01*
X169800535Y-110940120D01*
X169995120Y-110745535D01*
X170148005Y-110516727D01*
X170253314Y-110262490D01*
X170307000Y-109992592D01*
X170307000Y-109717408D01*
X170253314Y-109447510D01*
X170148005Y-109193273D01*
X169995120Y-108964465D01*
X169800535Y-108769880D01*
X169571727Y-108616995D01*
X169494485Y-108585000D01*
X169571727Y-108553005D01*
X169800535Y-108400120D01*
X169995120Y-108205535D01*
X170148005Y-107976727D01*
X170233937Y-107769268D01*
X183077000Y-107769268D01*
X183077000Y-108130732D01*
X183147518Y-108485250D01*
X183285844Y-108819199D01*
X183486662Y-109119744D01*
X183742256Y-109375338D01*
X184042801Y-109576156D01*
X184376750Y-109714482D01*
X184731268Y-109785000D01*
X185092732Y-109785000D01*
X185447250Y-109714482D01*
X185781199Y-109576156D01*
X186081744Y-109375338D01*
X186337338Y-109119744D01*
X186538156Y-108819199D01*
X186676482Y-108485250D01*
X186747000Y-108130732D01*
X186747000Y-107769268D01*
X186676482Y-107414750D01*
X186538156Y-107080801D01*
X186337338Y-106780256D01*
X186081744Y-106524662D01*
X185781199Y-106323844D01*
X185447250Y-106185518D01*
X185092732Y-106115000D01*
X184731268Y-106115000D01*
X184376750Y-106185518D01*
X184042801Y-106323844D01*
X183742256Y-106524662D01*
X183486662Y-106780256D01*
X183285844Y-107080801D01*
X183147518Y-107414750D01*
X183077000Y-107769268D01*
X170233937Y-107769268D01*
X170253314Y-107722490D01*
X170307000Y-107452592D01*
X170307000Y-107177408D01*
X170253314Y-106907510D01*
X170148005Y-106653273D01*
X169995120Y-106424465D01*
X169800535Y-106229880D01*
X169571727Y-106076995D01*
X169494485Y-106045000D01*
X169571727Y-106013005D01*
X169800535Y-105860120D01*
X169995120Y-105665535D01*
X170148005Y-105436727D01*
X170253314Y-105182490D01*
X170307000Y-104912592D01*
X170307000Y-104637408D01*
X170253314Y-104367510D01*
X170148005Y-104113273D01*
X169995120Y-103884465D01*
X169800535Y-103689880D01*
X169571727Y-103536995D01*
X169494485Y-103505000D01*
X169571727Y-103473005D01*
X169800535Y-103320120D01*
X169995120Y-103125535D01*
X170148005Y-102896727D01*
X170253314Y-102642490D01*
X170307000Y-102372592D01*
X170307000Y-102097408D01*
X170253314Y-101827510D01*
X170148005Y-101573273D01*
X169995120Y-101344465D01*
X169800535Y-101149880D01*
X169571727Y-100996995D01*
X169494485Y-100965000D01*
X169571727Y-100933005D01*
X169800535Y-100780120D01*
X169810853Y-100769802D01*
X171835000Y-102793949D01*
X171835001Y-104096521D01*
X171830719Y-104140000D01*
X171847805Y-104313490D01*
X171898412Y-104480313D01*
X171980590Y-104634059D01*
X172063468Y-104735046D01*
X172063469Y-104735047D01*
X172091184Y-104768817D01*
X172124951Y-104796529D01*
X174603470Y-107275049D01*
X174631183Y-107308817D01*
X174664951Y-107336530D01*
X174664953Y-107336532D01*
X174736452Y-107395210D01*
X174765941Y-107419411D01*
X174919687Y-107501589D01*
X175086510Y-107552195D01*
X175216523Y-107565000D01*
X175216533Y-107565000D01*
X175259999Y-107569281D01*
X175303465Y-107565000D01*
X177756531Y-107565000D01*
X177800000Y-107569281D01*
X177843469Y-107565000D01*
X177843477Y-107565000D01*
X177973490Y-107552195D01*
X178140313Y-107501589D01*
X178294059Y-107419411D01*
X178428817Y-107308817D01*
X178456534Y-107275044D01*
X180935050Y-104796529D01*
X180968817Y-104768817D01*
X180996533Y-104735046D01*
X181055210Y-104663548D01*
X181079411Y-104634059D01*
X181161589Y-104480313D01*
X181212195Y-104313490D01*
X181225000Y-104183477D01*
X181225000Y-104183467D01*
X181229281Y-104140001D01*
X181225000Y-104096535D01*
X181225000Y-100696578D01*
X181976579Y-99945000D01*
X184165210Y-99945000D01*
X184227688Y-100038505D01*
X184441495Y-100252312D01*
X184692905Y-100420299D01*
X184972257Y-100536011D01*
X185268816Y-100595000D01*
X185571184Y-100595000D01*
X185867743Y-100536011D01*
X186147095Y-100420299D01*
X186398505Y-100252312D01*
X186464944Y-100185873D01*
X186470498Y-100204180D01*
X186529463Y-100314494D01*
X186608815Y-100411185D01*
X186705506Y-100490537D01*
X186815820Y-100549502D01*
X186935518Y-100585812D01*
X187060000Y-100598072D01*
X187075001Y-100598072D01*
X187075000Y-115538365D01*
X184316951Y-118296415D01*
X184283184Y-118324127D01*
X184255471Y-118357895D01*
X184255468Y-118357898D01*
X184172590Y-118458885D01*
X184090412Y-118612631D01*
X184039805Y-118779454D01*
X184022719Y-118952944D01*
X184027001Y-118996423D01*
X184027001Y-119034401D01*
X183742256Y-119224662D01*
X183486662Y-119480256D01*
X183285844Y-119780801D01*
X183147518Y-120114750D01*
X183077000Y-120469268D01*
X183077000Y-120830732D01*
X183147518Y-121185250D01*
X183285844Y-121519199D01*
X183486662Y-121819744D01*
X183742256Y-122075338D01*
X184042801Y-122276156D01*
X184376750Y-122414482D01*
X184731268Y-122485000D01*
X185092732Y-122485000D01*
X185447250Y-122414482D01*
X185781199Y-122276156D01*
X186081744Y-122075338D01*
X186337338Y-121819744D01*
X186432512Y-121677305D01*
X188035872Y-121677305D01*
X188035872Y-122162695D01*
X188130567Y-122638760D01*
X188316318Y-123087202D01*
X188585987Y-123490790D01*
X188929210Y-123834013D01*
X189332798Y-124103682D01*
X189781240Y-124289433D01*
X190257305Y-124384128D01*
X190742695Y-124384128D01*
X191218760Y-124289433D01*
X191667202Y-124103682D01*
X192070790Y-123834013D01*
X192414013Y-123490790D01*
X192683682Y-123087202D01*
X192869433Y-122638760D01*
X192964128Y-122162695D01*
X192964128Y-121677305D01*
X192869433Y-121201240D01*
X192683682Y-120752798D01*
X192414013Y-120349210D01*
X192070790Y-120005987D01*
X191667202Y-119736318D01*
X191218760Y-119550567D01*
X190742695Y-119455872D01*
X190257305Y-119455872D01*
X189781240Y-119550567D01*
X189332798Y-119736318D01*
X188929210Y-120005987D01*
X188585987Y-120349210D01*
X188316318Y-120752798D01*
X188130567Y-121201240D01*
X188035872Y-121677305D01*
X186432512Y-121677305D01*
X186538156Y-121519199D01*
X186676482Y-121185250D01*
X186747000Y-120830732D01*
X186747000Y-120469268D01*
X186676482Y-120114750D01*
X186538156Y-119780801D01*
X186337338Y-119480256D01*
X186081744Y-119224662D01*
X185967917Y-119148605D01*
X188555050Y-116561473D01*
X188588817Y-116533761D01*
X188699411Y-116399003D01*
X188781589Y-116245257D01*
X188832195Y-116078434D01*
X188845000Y-115948421D01*
X188845000Y-115948413D01*
X188849281Y-115904944D01*
X188845000Y-115861475D01*
X188845000Y-100598072D01*
X188860000Y-100598072D01*
X188984482Y-100585812D01*
X189104180Y-100549502D01*
X189214494Y-100490537D01*
X189311185Y-100411185D01*
X189390537Y-100314494D01*
X189449502Y-100204180D01*
X189485812Y-100084482D01*
X189498072Y-99960000D01*
X189498072Y-98160000D01*
X189485812Y-98035518D01*
X189449502Y-97915820D01*
X189390537Y-97805506D01*
X189311185Y-97708815D01*
X189214494Y-97629463D01*
X189104180Y-97570498D01*
X188984482Y-97534188D01*
X188860000Y-97521928D01*
X187060000Y-97521928D01*
X186935518Y-97534188D01*
X186815820Y-97570498D01*
X186705506Y-97629463D01*
X186608815Y-97708815D01*
X186529463Y-97805506D01*
X186470498Y-97915820D01*
X186464944Y-97934127D01*
X186398505Y-97867688D01*
X186147095Y-97699701D01*
X185867743Y-97583989D01*
X185571184Y-97525000D01*
X185268816Y-97525000D01*
X184972257Y-97583989D01*
X184692905Y-97699701D01*
X184441495Y-97867688D01*
X184227688Y-98081495D01*
X184165210Y-98175000D01*
X181653465Y-98175000D01*
X181609999Y-98170719D01*
X181566533Y-98175000D01*
X181566523Y-98175000D01*
X181436510Y-98187805D01*
X181269687Y-98238411D01*
X181115941Y-98320589D01*
X181115939Y-98320590D01*
X181115940Y-98320590D01*
X181014953Y-98403468D01*
X181014951Y-98403470D01*
X180981183Y-98431183D01*
X180953470Y-98464951D01*
X179744951Y-99673471D01*
X179711184Y-99701183D01*
X179683471Y-99734951D01*
X179683468Y-99734954D01*
X179600590Y-99835941D01*
X179518412Y-99989687D01*
X179467805Y-100156510D01*
X179450719Y-100330000D01*
X179455001Y-100373479D01*
X179455000Y-103773421D01*
X177433422Y-105795000D01*
X175626579Y-105795000D01*
X173605000Y-103773422D01*
X173605000Y-103720000D01*
X175041928Y-103720000D01*
X175054188Y-103844482D01*
X175090498Y-103964180D01*
X175149463Y-104074494D01*
X175228815Y-104171185D01*
X175325506Y-104250537D01*
X175435820Y-104309502D01*
X175555518Y-104345812D01*
X175680000Y-104358072D01*
X176244250Y-104355000D01*
X176403000Y-104196250D01*
X176403000Y-102997000D01*
X176657000Y-102997000D01*
X176657000Y-104196250D01*
X176815750Y-104355000D01*
X177380000Y-104358072D01*
X177504482Y-104345812D01*
X177624180Y-104309502D01*
X177734494Y-104250537D01*
X177831185Y-104171185D01*
X177910537Y-104074494D01*
X177969502Y-103964180D01*
X178005812Y-103844482D01*
X178018072Y-103720000D01*
X178015000Y-103155750D01*
X177856250Y-102997000D01*
X176657000Y-102997000D01*
X176403000Y-102997000D01*
X175203750Y-102997000D01*
X175045000Y-103155750D01*
X175041928Y-103720000D01*
X173605000Y-103720000D01*
X173605000Y-102470839D01*
X173609281Y-102427370D01*
X173605000Y-102383901D01*
X173605000Y-102383893D01*
X173592195Y-102253880D01*
X173541589Y-102087057D01*
X173505747Y-102020000D01*
X175041928Y-102020000D01*
X175045000Y-102584250D01*
X175203750Y-102743000D01*
X176403000Y-102743000D01*
X176403000Y-100457000D01*
X176657000Y-100457000D01*
X176657000Y-102743000D01*
X177856250Y-102743000D01*
X178015000Y-102584250D01*
X178018072Y-102020000D01*
X178005812Y-101895518D01*
X177969502Y-101775820D01*
X177910537Y-101665506D01*
X177831185Y-101568815D01*
X177734494Y-101489463D01*
X177624180Y-101430498D01*
X177543534Y-101406034D01*
X177627588Y-101330269D01*
X177801641Y-101096920D01*
X177926825Y-100834099D01*
X177971476Y-100686890D01*
X177850155Y-100457000D01*
X176657000Y-100457000D01*
X176403000Y-100457000D01*
X175209845Y-100457000D01*
X175088524Y-100686890D01*
X175133175Y-100834099D01*
X175258359Y-101096920D01*
X175432412Y-101330269D01*
X175516466Y-101406034D01*
X175435820Y-101430498D01*
X175325506Y-101489463D01*
X175228815Y-101568815D01*
X175149463Y-101665506D01*
X175090498Y-101775820D01*
X175054188Y-101895518D01*
X175041928Y-102020000D01*
X173505747Y-102020000D01*
X173459411Y-101933311D01*
X173348817Y-101798553D01*
X173315050Y-101770841D01*
X170644164Y-99099956D01*
X170616447Y-99066183D01*
X170481689Y-98955589D01*
X170327943Y-98873411D01*
X170161120Y-98822805D01*
X170031107Y-98810000D01*
X170031099Y-98810000D01*
X169996545Y-98806597D01*
X169995120Y-98804465D01*
X169800535Y-98609880D01*
X169571727Y-98456995D01*
X169494485Y-98425000D01*
X169571727Y-98393005D01*
X169800535Y-98240120D01*
X169995120Y-98045535D01*
X170148005Y-97816727D01*
X170253314Y-97562490D01*
X170307000Y-97292592D01*
X170307000Y-97017408D01*
X170253314Y-96747510D01*
X170148005Y-96493273D01*
X169995120Y-96264465D01*
X169800535Y-96069880D01*
X169571727Y-95916995D01*
X169494485Y-95885000D01*
X169571727Y-95853005D01*
X169800535Y-95700120D01*
X169995120Y-95505535D01*
X170148005Y-95276727D01*
X170253314Y-95022490D01*
X170307000Y-94752592D01*
X170307000Y-94477408D01*
X170253314Y-94207510D01*
X170148005Y-93953273D01*
X169995120Y-93724465D01*
X169800535Y-93529880D01*
X169571727Y-93376995D01*
X169494485Y-93345000D01*
X169571727Y-93313005D01*
X169800535Y-93160120D01*
X169995120Y-92965535D01*
X170148005Y-92736727D01*
X170253314Y-92482490D01*
X170307000Y-92212592D01*
X170307000Y-91937408D01*
X170253314Y-91667510D01*
X170148005Y-91413273D01*
X169995120Y-91184465D01*
X169800535Y-90989880D01*
X169571727Y-90836995D01*
X169494485Y-90805000D01*
X169571727Y-90773005D01*
X169800535Y-90620120D01*
X169995120Y-90425535D01*
X170148005Y-90196727D01*
X170253314Y-89942490D01*
X170307000Y-89672592D01*
X170307000Y-89397408D01*
X170253314Y-89127510D01*
X170148005Y-88873273D01*
X169995120Y-88644465D01*
X169800535Y-88449880D01*
X169571727Y-88296995D01*
X169494485Y-88265000D01*
X169571727Y-88233005D01*
X169800535Y-88080120D01*
X169995120Y-87885535D01*
X170148005Y-87656727D01*
X170253314Y-87402490D01*
X170307000Y-87132592D01*
X170307000Y-86857408D01*
X170253314Y-86587510D01*
X170148005Y-86333273D01*
X169995120Y-86104465D01*
X169800535Y-85909880D01*
X169571727Y-85756995D01*
X169494485Y-85725000D01*
X169571727Y-85693005D01*
X169800535Y-85540120D01*
X169995120Y-85345535D01*
X170148005Y-85116727D01*
X170219658Y-84943740D01*
X175045000Y-84943740D01*
X175045000Y-85236260D01*
X175102068Y-85523158D01*
X175214010Y-85793411D01*
X175376525Y-86036632D01*
X175583368Y-86243475D01*
X175757760Y-86360000D01*
X175583368Y-86476525D01*
X175376525Y-86683368D01*
X175214010Y-86926589D01*
X175102068Y-87196842D01*
X175045000Y-87483740D01*
X175045000Y-87776260D01*
X175102068Y-88063158D01*
X175214010Y-88333411D01*
X175376525Y-88576632D01*
X175583368Y-88783475D01*
X175757760Y-88900000D01*
X175583368Y-89016525D01*
X175376525Y-89223368D01*
X175214010Y-89466589D01*
X175102068Y-89736842D01*
X175045000Y-90023740D01*
X175045000Y-90316260D01*
X175102068Y-90603158D01*
X175214010Y-90873411D01*
X175376525Y-91116632D01*
X175583368Y-91323475D01*
X175757760Y-91440000D01*
X175583368Y-91556525D01*
X175376525Y-91763368D01*
X175214010Y-92006589D01*
X175102068Y-92276842D01*
X175045000Y-92563740D01*
X175045000Y-92856260D01*
X175102068Y-93143158D01*
X175214010Y-93413411D01*
X175376525Y-93656632D01*
X175583368Y-93863475D01*
X175757760Y-93980000D01*
X175583368Y-94096525D01*
X175376525Y-94303368D01*
X175214010Y-94546589D01*
X175102068Y-94816842D01*
X175045000Y-95103740D01*
X175045000Y-95396260D01*
X175102068Y-95683158D01*
X175214010Y-95953411D01*
X175376525Y-96196632D01*
X175583368Y-96403475D01*
X175757760Y-96520000D01*
X175583368Y-96636525D01*
X175376525Y-96843368D01*
X175214010Y-97086589D01*
X175102068Y-97356842D01*
X175045000Y-97643740D01*
X175045000Y-97936260D01*
X175102068Y-98223158D01*
X175214010Y-98493411D01*
X175376525Y-98736632D01*
X175583368Y-98943475D01*
X175765534Y-99065195D01*
X175648645Y-99134822D01*
X175432412Y-99329731D01*
X175258359Y-99563080D01*
X175133175Y-99825901D01*
X175088524Y-99973110D01*
X175209845Y-100203000D01*
X176403000Y-100203000D01*
X176403000Y-100183000D01*
X176657000Y-100183000D01*
X176657000Y-100203000D01*
X177850155Y-100203000D01*
X177971476Y-99973110D01*
X177926825Y-99825901D01*
X177801641Y-99563080D01*
X177627588Y-99329731D01*
X177411355Y-99134822D01*
X177294466Y-99065195D01*
X177476632Y-98943475D01*
X177683475Y-98736632D01*
X177845990Y-98493411D01*
X177957932Y-98223158D01*
X178015000Y-97936260D01*
X178015000Y-97643740D01*
X177957932Y-97356842D01*
X177845990Y-97086589D01*
X177683475Y-96843368D01*
X177476632Y-96636525D01*
X177302240Y-96520000D01*
X177476632Y-96403475D01*
X177683475Y-96196632D01*
X177845990Y-95953411D01*
X177957932Y-95683158D01*
X178015000Y-95396260D01*
X178015000Y-95103740D01*
X177957932Y-94816842D01*
X177845990Y-94546589D01*
X177683475Y-94303368D01*
X177476632Y-94096525D01*
X177302240Y-93980000D01*
X177476632Y-93863475D01*
X177683475Y-93656632D01*
X177845990Y-93413411D01*
X177957932Y-93143158D01*
X178015000Y-92856260D01*
X178015000Y-92563740D01*
X177957932Y-92276842D01*
X177845990Y-92006589D01*
X177683475Y-91763368D01*
X177476632Y-91556525D01*
X177302240Y-91440000D01*
X177476632Y-91323475D01*
X177683475Y-91116632D01*
X177845990Y-90873411D01*
X177957932Y-90603158D01*
X178015000Y-90316260D01*
X178015000Y-90023740D01*
X177957932Y-89736842D01*
X177845990Y-89466589D01*
X177683475Y-89223368D01*
X177476632Y-89016525D01*
X177302240Y-88900000D01*
X177476632Y-88783475D01*
X177683475Y-88576632D01*
X177845990Y-88333411D01*
X177957932Y-88063158D01*
X178015000Y-87776260D01*
X178015000Y-87483740D01*
X177957932Y-87196842D01*
X177845990Y-86926589D01*
X177683475Y-86683368D01*
X177476632Y-86476525D01*
X177302240Y-86360000D01*
X177476632Y-86243475D01*
X177683475Y-86036632D01*
X177845990Y-85793411D01*
X177957932Y-85523158D01*
X178015000Y-85236260D01*
X178015000Y-84943740D01*
X177957932Y-84656842D01*
X177845990Y-84386589D01*
X177683475Y-84143368D01*
X177476632Y-83936525D01*
X177233411Y-83774010D01*
X176963158Y-83662068D01*
X176676260Y-83605000D01*
X176383740Y-83605000D01*
X176096842Y-83662068D01*
X175826589Y-83774010D01*
X175583368Y-83936525D01*
X175376525Y-84143368D01*
X175214010Y-84386589D01*
X175102068Y-84656842D01*
X175045000Y-84943740D01*
X170219658Y-84943740D01*
X170253314Y-84862490D01*
X170307000Y-84592592D01*
X170307000Y-84317408D01*
X170253314Y-84047510D01*
X170148005Y-83793273D01*
X169995120Y-83564465D01*
X169800535Y-83369880D01*
X169571727Y-83216995D01*
X169494485Y-83185000D01*
X169571727Y-83153005D01*
X169800535Y-83000120D01*
X169995120Y-82805535D01*
X170148005Y-82576727D01*
X170253314Y-82322490D01*
X170307000Y-82052592D01*
X170307000Y-81777408D01*
X170253314Y-81507510D01*
X170148005Y-81253273D01*
X169995120Y-81024465D01*
X169800535Y-80829880D01*
X169571727Y-80676995D01*
X169494485Y-80645000D01*
X169571727Y-80613005D01*
X169800535Y-80460120D01*
X169995120Y-80265535D01*
X169998818Y-80260000D01*
X176163422Y-80260000D01*
X179836000Y-83932579D01*
X179836001Y-88729521D01*
X179831719Y-88773000D01*
X179848805Y-88946490D01*
X179899412Y-89113313D01*
X179981590Y-89267059D01*
X180064468Y-89368046D01*
X180064471Y-89368049D01*
X180092184Y-89401817D01*
X180125951Y-89429529D01*
X181461470Y-90765049D01*
X181489183Y-90798817D01*
X181522951Y-90826530D01*
X181522953Y-90826532D01*
X181594452Y-90885210D01*
X181623941Y-90909411D01*
X181777687Y-90991589D01*
X181944510Y-91042195D01*
X182074523Y-91055000D01*
X182074533Y-91055000D01*
X182117999Y-91059281D01*
X182161465Y-91055000D01*
X184165210Y-91055000D01*
X184227688Y-91148505D01*
X184441495Y-91362312D01*
X184692905Y-91530299D01*
X184972257Y-91646011D01*
X185268816Y-91705000D01*
X185571184Y-91705000D01*
X185867743Y-91646011D01*
X186147095Y-91530299D01*
X186398505Y-91362312D01*
X186464944Y-91295873D01*
X186470498Y-91314180D01*
X186529463Y-91424494D01*
X186608815Y-91521185D01*
X186705506Y-91600537D01*
X186815820Y-91659502D01*
X186935518Y-91695812D01*
X187060000Y-91708072D01*
X188860000Y-91708072D01*
X188984482Y-91695812D01*
X189104180Y-91659502D01*
X189214494Y-91600537D01*
X189311185Y-91521185D01*
X189390537Y-91424494D01*
X189449502Y-91314180D01*
X189485812Y-91194482D01*
X189498072Y-91070000D01*
X189498072Y-91045683D01*
X189533490Y-91042195D01*
X189700313Y-90991589D01*
X189854059Y-90909411D01*
X189988817Y-90798817D01*
X190016534Y-90765044D01*
X191787048Y-88994531D01*
X191820816Y-88966818D01*
X191875988Y-88899592D01*
X191931410Y-88832060D01*
X192013588Y-88678314D01*
X192064194Y-88511491D01*
X192076999Y-88381478D01*
X192076999Y-88381470D01*
X192081280Y-88338001D01*
X192076999Y-88294532D01*
X192076999Y-73125468D01*
X192081280Y-73081999D01*
X192076999Y-73038530D01*
X192076999Y-73038522D01*
X192064194Y-72908509D01*
X192013588Y-72741686D01*
X191931410Y-72587940D01*
X191901080Y-72550983D01*
X191848531Y-72486952D01*
X191848529Y-72486950D01*
X191820816Y-72453182D01*
X191787049Y-72425470D01*
X191760190Y-72398611D01*
X191827000Y-72062732D01*
X191827000Y-71701268D01*
X191756482Y-71346750D01*
X191618156Y-71012801D01*
X191417338Y-70712256D01*
X191161744Y-70456662D01*
X190861199Y-70255844D01*
X190527250Y-70117518D01*
X190172732Y-70047000D01*
X189811268Y-70047000D01*
X189456750Y-70117518D01*
X189122801Y-70255844D01*
X188822256Y-70456662D01*
X188566662Y-70712256D01*
X188365844Y-71012801D01*
X188227518Y-71346750D01*
X188157000Y-71701268D01*
X188157000Y-72062732D01*
X188227518Y-72417250D01*
X188365844Y-72751199D01*
X188566662Y-73051744D01*
X188822256Y-73307338D01*
X189122801Y-73508156D01*
X189456750Y-73646482D01*
X189811268Y-73717000D01*
X190172732Y-73717000D01*
X190306999Y-73690293D01*
X190307000Y-87971421D01*
X189378087Y-88900335D01*
X189311185Y-88818815D01*
X189214494Y-88739463D01*
X189104180Y-88680498D01*
X188984482Y-88644188D01*
X188860000Y-88631928D01*
X187060000Y-88631928D01*
X186935518Y-88644188D01*
X186815820Y-88680498D01*
X186705506Y-88739463D01*
X186608815Y-88818815D01*
X186529463Y-88915506D01*
X186470498Y-89025820D01*
X186464944Y-89044127D01*
X186398505Y-88977688D01*
X186147095Y-88809701D01*
X185867743Y-88693989D01*
X185571184Y-88635000D01*
X185268816Y-88635000D01*
X184972257Y-88693989D01*
X184692905Y-88809701D01*
X184441495Y-88977688D01*
X184227688Y-89191495D01*
X184165210Y-89285000D01*
X182484579Y-89285000D01*
X181606000Y-88406422D01*
X181606000Y-83609466D01*
X181610281Y-83565999D01*
X181606000Y-83522533D01*
X181606000Y-83522523D01*
X181593195Y-83392510D01*
X181542589Y-83225687D01*
X181460411Y-83071941D01*
X181349817Y-82937183D01*
X181316050Y-82909472D01*
X177186534Y-78779956D01*
X177158817Y-78746183D01*
X177024059Y-78635589D01*
X176870313Y-78553411D01*
X176703490Y-78502805D01*
X176573477Y-78490000D01*
X176573469Y-78490000D01*
X176530000Y-78485719D01*
X176486531Y-78490000D01*
X169998818Y-78490000D01*
X169995120Y-78484465D01*
X169800535Y-78289880D01*
X169571727Y-78136995D01*
X169494485Y-78105000D01*
X169571727Y-78073005D01*
X169800535Y-77920120D01*
X169995120Y-77725535D01*
X169998818Y-77720000D01*
X176163422Y-77720000D01*
X180318470Y-81875049D01*
X180346183Y-81908817D01*
X180379951Y-81936530D01*
X180379953Y-81936532D01*
X180451452Y-81995210D01*
X180480941Y-82019411D01*
X180634687Y-82101589D01*
X180801510Y-82152195D01*
X180931523Y-82165000D01*
X180931533Y-82165000D01*
X180974999Y-82169281D01*
X181018465Y-82165000D01*
X184165210Y-82165000D01*
X184227688Y-82258505D01*
X184441495Y-82472312D01*
X184692905Y-82640299D01*
X184972257Y-82756011D01*
X185268816Y-82815000D01*
X185571184Y-82815000D01*
X185867743Y-82756011D01*
X186147095Y-82640299D01*
X186398505Y-82472312D01*
X186464944Y-82405873D01*
X186470498Y-82424180D01*
X186529463Y-82534494D01*
X186608815Y-82631185D01*
X186705506Y-82710537D01*
X186815820Y-82769502D01*
X186935518Y-82805812D01*
X187060000Y-82818072D01*
X188860000Y-82818072D01*
X188984482Y-82805812D01*
X189104180Y-82769502D01*
X189214494Y-82710537D01*
X189311185Y-82631185D01*
X189390537Y-82534494D01*
X189449502Y-82424180D01*
X189485812Y-82304482D01*
X189498072Y-82180000D01*
X189498072Y-80380000D01*
X189485812Y-80255518D01*
X189449502Y-80135820D01*
X189390537Y-80025506D01*
X189311185Y-79928815D01*
X189214494Y-79849463D01*
X189104180Y-79790498D01*
X188984482Y-79754188D01*
X188860000Y-79741928D01*
X188845000Y-79741928D01*
X188845000Y-76243465D01*
X188849281Y-76199999D01*
X188845000Y-76156533D01*
X188845000Y-76156523D01*
X188832195Y-76026510D01*
X188781589Y-75859687D01*
X188699411Y-75705941D01*
X188654579Y-75651313D01*
X188616532Y-75604953D01*
X188616530Y-75604951D01*
X188588817Y-75571183D01*
X188555050Y-75543472D01*
X185410189Y-72398611D01*
X185477000Y-72062732D01*
X185477000Y-71701268D01*
X185406482Y-71346750D01*
X185268156Y-71012801D01*
X185067338Y-70712256D01*
X184811744Y-70456662D01*
X184511199Y-70255844D01*
X184177250Y-70117518D01*
X183822732Y-70047000D01*
X183461268Y-70047000D01*
X183106750Y-70117518D01*
X182772801Y-70255844D01*
X182472256Y-70456662D01*
X182216662Y-70712256D01*
X182015844Y-71012801D01*
X181877518Y-71346750D01*
X181807000Y-71701268D01*
X181807000Y-72062732D01*
X181877518Y-72417250D01*
X182015844Y-72751199D01*
X182216662Y-73051744D01*
X182472256Y-73307338D01*
X182772801Y-73508156D01*
X183106750Y-73646482D01*
X183461268Y-73717000D01*
X183822732Y-73717000D01*
X184158611Y-73650189D01*
X187075000Y-76566579D01*
X187075001Y-79741928D01*
X187060000Y-79741928D01*
X186935518Y-79754188D01*
X186815820Y-79790498D01*
X186705506Y-79849463D01*
X186608815Y-79928815D01*
X186529463Y-80025506D01*
X186470498Y-80135820D01*
X186464944Y-80154127D01*
X186398505Y-80087688D01*
X186147095Y-79919701D01*
X185867743Y-79803989D01*
X185571184Y-79745000D01*
X185268816Y-79745000D01*
X184972257Y-79803989D01*
X184692905Y-79919701D01*
X184441495Y-80087688D01*
X184227688Y-80301495D01*
X184165210Y-80395000D01*
X181341579Y-80395000D01*
X177186534Y-76239956D01*
X177158817Y-76206183D01*
X177024059Y-76095589D01*
X176870313Y-76013411D01*
X176703490Y-75962805D01*
X176573477Y-75950000D01*
X176573469Y-75950000D01*
X176530000Y-75945719D01*
X176486531Y-75950000D01*
X169998818Y-75950000D01*
X169995120Y-75944465D01*
X169800535Y-75749880D01*
X169571727Y-75596995D01*
X169494485Y-75565000D01*
X169571727Y-75533005D01*
X169800535Y-75380120D01*
X169995120Y-75185535D01*
X170148005Y-74956727D01*
X170253314Y-74702490D01*
X170307000Y-74432592D01*
X170307000Y-74157408D01*
X170253314Y-73887510D01*
X170148005Y-73633273D01*
X169995120Y-73404465D01*
X169800535Y-73209880D01*
X169795000Y-73206182D01*
X169795000Y-71163466D01*
X169799281Y-71119999D01*
X169795000Y-71076533D01*
X169795000Y-71076523D01*
X169782195Y-70946510D01*
X169731589Y-70779687D01*
X169649411Y-70625941D01*
X169538817Y-70491183D01*
X169505051Y-70463472D01*
X158950539Y-59908961D01*
X158965000Y-59836260D01*
X158965000Y-59543740D01*
X158907932Y-59256842D01*
X158795990Y-58986589D01*
X158633475Y-58743368D01*
X158426632Y-58536525D01*
X158183411Y-58374010D01*
X157913158Y-58262068D01*
X157626260Y-58205000D01*
X157333740Y-58205000D01*
X157046842Y-58262068D01*
X156776589Y-58374010D01*
X156533368Y-58536525D01*
X156326525Y-58743368D01*
X156210000Y-58917760D01*
X156093475Y-58743368D01*
X155886632Y-58536525D01*
X155643411Y-58374010D01*
X155373158Y-58262068D01*
X155086260Y-58205000D01*
X154793740Y-58205000D01*
X154506842Y-58262068D01*
X154236589Y-58374010D01*
X153993368Y-58536525D01*
X153786525Y-58743368D01*
X153670000Y-58917760D01*
X153553475Y-58743368D01*
X153346632Y-58536525D01*
X153103411Y-58374010D01*
X152833158Y-58262068D01*
X152546260Y-58205000D01*
X152253740Y-58205000D01*
X151966842Y-58262068D01*
X151696589Y-58374010D01*
X151453368Y-58536525D01*
X151246525Y-58743368D01*
X151130000Y-58917760D01*
X151013475Y-58743368D01*
X150806632Y-58536525D01*
X150563411Y-58374010D01*
X150293158Y-58262068D01*
X150006260Y-58205000D01*
X149713740Y-58205000D01*
X149426842Y-58262068D01*
X149156589Y-58374010D01*
X148913368Y-58536525D01*
X148781513Y-58668380D01*
X148759502Y-58595820D01*
X148700537Y-58485506D01*
X148621185Y-58388815D01*
X148524494Y-58309463D01*
X148414180Y-58250498D01*
X148294482Y-58214188D01*
X148170000Y-58201928D01*
X146470000Y-58201928D01*
X146345518Y-58214188D01*
X146225820Y-58250498D01*
X146115506Y-58309463D01*
X146018815Y-58388815D01*
X145939463Y-58485506D01*
X145880498Y-58595820D01*
X145844188Y-58715518D01*
X145831928Y-58840000D01*
X145831928Y-60540000D01*
X145844188Y-60664482D01*
X145880498Y-60784180D01*
X145939463Y-60894494D01*
X146018815Y-60991185D01*
X146115506Y-61070537D01*
X146225820Y-61129502D01*
X146345518Y-61165812D01*
X146435000Y-61174625D01*
X146435001Y-95518420D01*
X142367000Y-99586422D01*
X142367000Y-99557408D01*
X142313314Y-99287510D01*
X142208005Y-99033273D01*
X142055120Y-98804465D01*
X141860535Y-98609880D01*
X141631727Y-98456995D01*
X141554485Y-98425000D01*
X141631727Y-98393005D01*
X141860535Y-98240120D01*
X142055120Y-98045535D01*
X142208005Y-97816727D01*
X142313314Y-97562490D01*
X142367000Y-97292592D01*
X142367000Y-97017408D01*
X142313314Y-96747510D01*
X142208005Y-96493273D01*
X142055120Y-96264465D01*
X141860535Y-96069880D01*
X141631727Y-95916995D01*
X141554485Y-95885000D01*
X141631727Y-95853005D01*
X141860535Y-95700120D01*
X142055120Y-95505535D01*
X142208005Y-95276727D01*
X142313314Y-95022490D01*
X142367000Y-94752592D01*
X142367000Y-94477408D01*
X142313314Y-94207510D01*
X142208005Y-93953273D01*
X142055120Y-93724465D01*
X141860535Y-93529880D01*
X141631727Y-93376995D01*
X141554485Y-93345000D01*
X141631727Y-93313005D01*
X141860535Y-93160120D01*
X142055120Y-92965535D01*
X142208005Y-92736727D01*
X142313314Y-92482490D01*
X142367000Y-92212592D01*
X142367000Y-91937408D01*
X142313314Y-91667510D01*
X142208005Y-91413273D01*
X142055120Y-91184465D01*
X141860535Y-90989880D01*
X141631727Y-90836995D01*
X141554485Y-90805000D01*
X141631727Y-90773005D01*
X141860535Y-90620120D01*
X142055120Y-90425535D01*
X142208005Y-90196727D01*
X142313314Y-89942490D01*
X142367000Y-89672592D01*
X142367000Y-89397408D01*
X142313314Y-89127510D01*
X142208005Y-88873273D01*
X142055120Y-88644465D01*
X141860535Y-88449880D01*
X141631727Y-88296995D01*
X141554485Y-88265000D01*
X141631727Y-88233005D01*
X141860535Y-88080120D01*
X142055120Y-87885535D01*
X142208005Y-87656727D01*
X142313314Y-87402490D01*
X142367000Y-87132592D01*
X142367000Y-86857408D01*
X142313314Y-86587510D01*
X142208005Y-86333273D01*
X142055120Y-86104465D01*
X141860535Y-85909880D01*
X141631727Y-85756995D01*
X141554485Y-85725000D01*
X141631727Y-85693005D01*
X141860535Y-85540120D01*
X142055120Y-85345535D01*
X142208005Y-85116727D01*
X142313314Y-84862490D01*
X142367000Y-84592592D01*
X142367000Y-84317408D01*
X142313314Y-84047510D01*
X142208005Y-83793273D01*
X142055120Y-83564465D01*
X141860535Y-83369880D01*
X141631727Y-83216995D01*
X141554485Y-83185000D01*
X141631727Y-83153005D01*
X141860535Y-83000120D01*
X142055120Y-82805535D01*
X142208005Y-82576727D01*
X142313314Y-82322490D01*
X142367000Y-82052592D01*
X142367000Y-81777408D01*
X142313314Y-81507510D01*
X142208005Y-81253273D01*
X142055120Y-81024465D01*
X141860535Y-80829880D01*
X141631727Y-80676995D01*
X141554485Y-80645000D01*
X141631727Y-80613005D01*
X141860535Y-80460120D01*
X142055120Y-80265535D01*
X142208005Y-80036727D01*
X142313314Y-79782490D01*
X142367000Y-79512592D01*
X142367000Y-79237408D01*
X142313314Y-78967510D01*
X142208005Y-78713273D01*
X142055120Y-78484465D01*
X141860535Y-78289880D01*
X141631727Y-78136995D01*
X141554485Y-78105000D01*
X141631727Y-78073005D01*
X141860535Y-77920120D01*
X142055120Y-77725535D01*
X142208005Y-77496727D01*
X142313314Y-77242490D01*
X142367000Y-76972592D01*
X142367000Y-76697408D01*
X142313314Y-76427510D01*
X142208005Y-76173273D01*
X142055120Y-75944465D01*
X141860535Y-75749880D01*
X141631727Y-75596995D01*
X141554485Y-75565000D01*
X141631727Y-75533005D01*
X141860535Y-75380120D01*
X142055120Y-75185535D01*
X142208005Y-74956727D01*
X142313314Y-74702490D01*
X142367000Y-74432592D01*
X142367000Y-74157408D01*
X142313314Y-73887510D01*
X142208005Y-73633273D01*
X142055120Y-73404465D01*
X141860535Y-73209880D01*
X141631727Y-73056995D01*
X141377490Y-72951686D01*
X141107592Y-72898000D01*
X140832408Y-72898000D01*
X140562510Y-72951686D01*
X140308273Y-73056995D01*
X140079465Y-73209880D01*
X139884880Y-73404465D01*
X139881182Y-73410000D01*
X138854469Y-73410000D01*
X138811000Y-73405719D01*
X138767531Y-73410000D01*
X138767523Y-73410000D01*
X138652306Y-73421348D01*
X138637509Y-73422805D01*
X138607439Y-73431927D01*
X138470687Y-73473411D01*
X138316941Y-73555589D01*
X138316939Y-73555590D01*
X138316940Y-73555590D01*
X138215953Y-73638468D01*
X138215951Y-73638470D01*
X138182183Y-73666183D01*
X138154470Y-73699951D01*
X137199951Y-74654471D01*
X137166184Y-74682183D01*
X137138471Y-74715951D01*
X137138468Y-74715954D01*
X137055590Y-74816941D01*
X136973412Y-74970687D01*
X136922805Y-75137510D01*
X136905719Y-75311000D01*
X136910001Y-75354479D01*
X136910000Y-99471913D01*
X134980476Y-101401438D01*
X134987562Y-101329490D01*
X134984490Y-100615750D01*
X134825740Y-100457000D01*
X133477000Y-100457000D01*
X133477000Y-100477000D01*
X133223000Y-100477000D01*
X133223000Y-100457000D01*
X133203000Y-100457000D01*
X133203000Y-100203000D01*
X133223000Y-100203000D01*
X133223000Y-98854260D01*
X133477000Y-98854260D01*
X133477000Y-100203000D01*
X134825740Y-100203000D01*
X134984490Y-100044250D01*
X134987562Y-99330510D01*
X134975302Y-99206028D01*
X134938992Y-99086330D01*
X134880027Y-98976016D01*
X134800675Y-98879325D01*
X134703984Y-98799973D01*
X134593670Y-98741008D01*
X134473972Y-98704698D01*
X134349490Y-98692438D01*
X133635750Y-98695510D01*
X133477000Y-98854260D01*
X133223000Y-98854260D01*
X133064250Y-98695510D01*
X132350510Y-98692438D01*
X132226028Y-98704698D01*
X132106330Y-98741008D01*
X131996016Y-98799973D01*
X131899325Y-98879325D01*
X131819973Y-98976016D01*
X131761008Y-99086330D01*
X131724698Y-99206028D01*
X131712438Y-99330510D01*
X131713415Y-99557571D01*
X131565394Y-99409550D01*
X131371308Y-99279866D01*
X131155652Y-99190539D01*
X130926712Y-99145000D01*
X130693288Y-99145000D01*
X130464348Y-99190539D01*
X130248692Y-99279866D01*
X130054606Y-99409550D01*
X129889550Y-99574606D01*
X129759866Y-99768692D01*
X129670539Y-99984348D01*
X129625000Y-100213288D01*
X122605000Y-100213288D01*
X122605000Y-84973288D01*
X129625000Y-84973288D01*
X129625000Y-85206712D01*
X129670539Y-85435652D01*
X129759866Y-85651308D01*
X129889550Y-85845394D01*
X130054606Y-86010450D01*
X130248692Y-86140134D01*
X130464348Y-86229461D01*
X130693288Y-86275000D01*
X130926712Y-86275000D01*
X131155652Y-86229461D01*
X131371308Y-86140134D01*
X131565394Y-86010450D01*
X131712438Y-85863406D01*
X131712438Y-86089490D01*
X131724698Y-86213972D01*
X131761008Y-86333670D01*
X131819973Y-86443984D01*
X131899325Y-86540675D01*
X131996016Y-86620027D01*
X132042467Y-86644856D01*
X131901533Y-86855778D01*
X131831248Y-87025461D01*
X131730450Y-86874606D01*
X131565394Y-86709550D01*
X131371308Y-86579866D01*
X131155652Y-86490539D01*
X130926712Y-86445000D01*
X130693288Y-86445000D01*
X130464348Y-86490539D01*
X130248692Y-86579866D01*
X130054606Y-86709550D01*
X129889550Y-86874606D01*
X129759866Y-87068692D01*
X129670539Y-87284348D01*
X129625000Y-87513288D01*
X129625000Y-87746712D01*
X129670539Y-87975652D01*
X129759866Y-88191308D01*
X129889550Y-88385394D01*
X130054606Y-88550450D01*
X130248692Y-88680134D01*
X130464348Y-88769461D01*
X130693288Y-88815000D01*
X130926712Y-88815000D01*
X131155652Y-88769461D01*
X131371308Y-88680134D01*
X131565394Y-88550450D01*
X131730450Y-88385394D01*
X131831248Y-88234539D01*
X131901533Y-88404222D01*
X132080408Y-88671927D01*
X132308073Y-88899592D01*
X132321454Y-88908533D01*
X132239591Y-88970599D01*
X132026936Y-89210275D01*
X131865125Y-89486833D01*
X131835648Y-89572046D01*
X131730450Y-89414606D01*
X131565394Y-89249550D01*
X131371308Y-89119866D01*
X131155652Y-89030539D01*
X130926712Y-88985000D01*
X130693288Y-88985000D01*
X130464348Y-89030539D01*
X130248692Y-89119866D01*
X130054606Y-89249550D01*
X129889550Y-89414606D01*
X129759866Y-89608692D01*
X129670539Y-89824348D01*
X129625000Y-90053288D01*
X129625000Y-90286712D01*
X129670539Y-90515652D01*
X129759866Y-90731308D01*
X129889550Y-90925394D01*
X130054606Y-91090450D01*
X130248692Y-91220134D01*
X130464348Y-91309461D01*
X130693288Y-91355000D01*
X130926712Y-91355000D01*
X131155652Y-91309461D01*
X131371308Y-91220134D01*
X131565394Y-91090450D01*
X131730450Y-90925394D01*
X131835648Y-90767954D01*
X131865125Y-90853167D01*
X132026936Y-91129725D01*
X132239591Y-91369401D01*
X132494919Y-91562985D01*
X132783107Y-91703037D01*
X132969646Y-91759619D01*
X133223000Y-91640265D01*
X133223000Y-90297000D01*
X133477000Y-90297000D01*
X133477000Y-91640265D01*
X133730354Y-91759619D01*
X133916893Y-91703037D01*
X134205081Y-91562985D01*
X134460409Y-91369401D01*
X134673064Y-91129725D01*
X134834875Y-90853167D01*
X134939623Y-90550355D01*
X134820803Y-90297000D01*
X133477000Y-90297000D01*
X133223000Y-90297000D01*
X133203000Y-90297000D01*
X133203000Y-90043000D01*
X133223000Y-90043000D01*
X133223000Y-90023000D01*
X133477000Y-90023000D01*
X133477000Y-90043000D01*
X134820803Y-90043000D01*
X134939623Y-89789645D01*
X134834875Y-89486833D01*
X134673064Y-89210275D01*
X134460409Y-88970599D01*
X134378546Y-88908533D01*
X134391927Y-88899592D01*
X134619592Y-88671927D01*
X134798467Y-88404222D01*
X134921678Y-88106763D01*
X134984490Y-87790983D01*
X134984490Y-87469017D01*
X134921678Y-87153237D01*
X134798467Y-86855778D01*
X134657533Y-86644856D01*
X134703984Y-86620027D01*
X134800675Y-86540675D01*
X134880027Y-86443984D01*
X134938992Y-86333670D01*
X134975302Y-86213972D01*
X134987562Y-86089490D01*
X134987562Y-84090510D01*
X134975302Y-83966028D01*
X134938992Y-83846330D01*
X134880027Y-83736016D01*
X134800675Y-83639325D01*
X134703984Y-83559973D01*
X134593670Y-83501008D01*
X134473972Y-83464698D01*
X134349490Y-83452438D01*
X132350510Y-83452438D01*
X132226028Y-83464698D01*
X132106330Y-83501008D01*
X131996016Y-83559973D01*
X131899325Y-83639325D01*
X131819973Y-83736016D01*
X131761008Y-83846330D01*
X131724698Y-83966028D01*
X131712438Y-84090510D01*
X131712438Y-84316594D01*
X131565394Y-84169550D01*
X131371308Y-84039866D01*
X131155652Y-83950539D01*
X130926712Y-83905000D01*
X130693288Y-83905000D01*
X130464348Y-83950539D01*
X130248692Y-84039866D01*
X130054606Y-84169550D01*
X129889550Y-84334606D01*
X129759866Y-84528692D01*
X129670539Y-84744348D01*
X129625000Y-84973288D01*
X122605000Y-84973288D01*
X122605000Y-69733288D01*
X129625000Y-69733288D01*
X129625000Y-69966712D01*
X129670539Y-70195652D01*
X129759866Y-70411308D01*
X129889550Y-70605394D01*
X130054606Y-70770450D01*
X130248692Y-70900134D01*
X130464348Y-70989461D01*
X130693288Y-71035000D01*
X130926712Y-71035000D01*
X131155652Y-70989461D01*
X131371308Y-70900134D01*
X131565394Y-70770450D01*
X131712438Y-70623406D01*
X131712438Y-70849490D01*
X131724698Y-70973972D01*
X131761008Y-71093670D01*
X131819973Y-71203984D01*
X131899325Y-71300675D01*
X131996016Y-71380027D01*
X132042467Y-71404856D01*
X131901533Y-71615778D01*
X131831248Y-71785461D01*
X131730450Y-71634606D01*
X131565394Y-71469550D01*
X131371308Y-71339866D01*
X131155652Y-71250539D01*
X130926712Y-71205000D01*
X130693288Y-71205000D01*
X130464348Y-71250539D01*
X130248692Y-71339866D01*
X130054606Y-71469550D01*
X129889550Y-71634606D01*
X129759866Y-71828692D01*
X129670539Y-72044348D01*
X129625000Y-72273288D01*
X129625000Y-72506712D01*
X129670539Y-72735652D01*
X129759866Y-72951308D01*
X129889550Y-73145394D01*
X130054606Y-73310450D01*
X130248692Y-73440134D01*
X130464348Y-73529461D01*
X130693288Y-73575000D01*
X130926712Y-73575000D01*
X131155652Y-73529461D01*
X131371308Y-73440134D01*
X131565394Y-73310450D01*
X131730450Y-73145394D01*
X131831248Y-72994539D01*
X131901533Y-73164222D01*
X132080408Y-73431927D01*
X132308073Y-73659592D01*
X132321454Y-73668533D01*
X132239591Y-73730599D01*
X132026936Y-73970275D01*
X131865125Y-74246833D01*
X131835648Y-74332046D01*
X131730450Y-74174606D01*
X131565394Y-74009550D01*
X131371308Y-73879866D01*
X131155652Y-73790539D01*
X130926712Y-73745000D01*
X130693288Y-73745000D01*
X130464348Y-73790539D01*
X130248692Y-73879866D01*
X130054606Y-74009550D01*
X129889550Y-74174606D01*
X129759866Y-74368692D01*
X129670539Y-74584348D01*
X129625000Y-74813288D01*
X129625000Y-75046712D01*
X129670539Y-75275652D01*
X129759866Y-75491308D01*
X129889550Y-75685394D01*
X130054606Y-75850450D01*
X130248692Y-75980134D01*
X130464348Y-76069461D01*
X130693288Y-76115000D01*
X130926712Y-76115000D01*
X131155652Y-76069461D01*
X131371308Y-75980134D01*
X131565394Y-75850450D01*
X131730450Y-75685394D01*
X131835648Y-75527954D01*
X131865125Y-75613167D01*
X132026936Y-75889725D01*
X132239591Y-76129401D01*
X132494919Y-76322985D01*
X132783107Y-76463037D01*
X132969646Y-76519619D01*
X133223000Y-76400265D01*
X133223000Y-75057000D01*
X133477000Y-75057000D01*
X133477000Y-76400265D01*
X133730354Y-76519619D01*
X133916893Y-76463037D01*
X134205081Y-76322985D01*
X134460409Y-76129401D01*
X134673064Y-75889725D01*
X134834875Y-75613167D01*
X134939623Y-75310355D01*
X134820803Y-75057000D01*
X133477000Y-75057000D01*
X133223000Y-75057000D01*
X133203000Y-75057000D01*
X133203000Y-74803000D01*
X133223000Y-74803000D01*
X133223000Y-74783000D01*
X133477000Y-74783000D01*
X133477000Y-74803000D01*
X134820803Y-74803000D01*
X134939623Y-74549645D01*
X134834875Y-74246833D01*
X134673064Y-73970275D01*
X134460409Y-73730599D01*
X134378546Y-73668533D01*
X134391927Y-73659592D01*
X134619592Y-73431927D01*
X134798467Y-73164222D01*
X134921678Y-72866763D01*
X134984490Y-72550983D01*
X134984490Y-72229017D01*
X134921678Y-71913237D01*
X134798467Y-71615778D01*
X134657533Y-71404856D01*
X134703984Y-71380027D01*
X134800675Y-71300675D01*
X134880027Y-71203984D01*
X134938992Y-71093670D01*
X134975302Y-70973972D01*
X134987562Y-70849490D01*
X134987562Y-68850510D01*
X134975302Y-68726028D01*
X134938992Y-68606330D01*
X134880027Y-68496016D01*
X134800675Y-68399325D01*
X134703984Y-68319973D01*
X134593670Y-68261008D01*
X134473972Y-68224698D01*
X134349490Y-68212438D01*
X132350510Y-68212438D01*
X132226028Y-68224698D01*
X132106330Y-68261008D01*
X131996016Y-68319973D01*
X131899325Y-68399325D01*
X131819973Y-68496016D01*
X131761008Y-68606330D01*
X131724698Y-68726028D01*
X131712438Y-68850510D01*
X131712438Y-69076594D01*
X131565394Y-68929550D01*
X131371308Y-68799866D01*
X131155652Y-68710539D01*
X130926712Y-68665000D01*
X130693288Y-68665000D01*
X130464348Y-68710539D01*
X130248692Y-68799866D01*
X130054606Y-68929550D01*
X129889550Y-69094606D01*
X129759866Y-69288692D01*
X129670539Y-69504348D01*
X129625000Y-69733288D01*
X122605000Y-69733288D01*
X122605000Y-61340354D01*
X130490381Y-61340354D01*
X130546963Y-61526893D01*
X130687015Y-61815081D01*
X130880599Y-62070409D01*
X131120275Y-62283064D01*
X131396833Y-62444875D01*
X131699645Y-62549623D01*
X131953000Y-62430803D01*
X131953000Y-61087000D01*
X130609735Y-61087000D01*
X130490381Y-61340354D01*
X122605000Y-61340354D01*
X122605000Y-60579646D01*
X130490381Y-60579646D01*
X130609735Y-60833000D01*
X131953000Y-60833000D01*
X131953000Y-60813000D01*
X132207000Y-60813000D01*
X132207000Y-60833000D01*
X132227000Y-60833000D01*
X132227000Y-61087000D01*
X132207000Y-61087000D01*
X132207000Y-62430803D01*
X132460355Y-62549623D01*
X132763167Y-62444875D01*
X133039725Y-62283064D01*
X133279401Y-62070409D01*
X133341467Y-61988546D01*
X133350408Y-62001927D01*
X133385001Y-62036520D01*
X133385000Y-63439334D01*
X133379025Y-63500000D01*
X133402870Y-63742102D01*
X133415076Y-63782338D01*
X133473489Y-63974900D01*
X133588167Y-64189448D01*
X133742498Y-64377502D01*
X133789625Y-64416178D01*
X136243826Y-66870380D01*
X136282498Y-66917502D01*
X136470551Y-67071833D01*
X136685099Y-67186511D01*
X136917898Y-67257130D01*
X137099335Y-67275000D01*
X137099344Y-67275000D01*
X137159999Y-67280974D01*
X137220654Y-67275000D01*
X140274335Y-67275000D01*
X140335000Y-67280975D01*
X140395665Y-67275000D01*
X140577102Y-67257130D01*
X140809901Y-67186511D01*
X141024449Y-67071833D01*
X141212502Y-66917502D01*
X141251178Y-66870375D01*
X143705380Y-64416174D01*
X143752502Y-64377502D01*
X143906833Y-64189449D01*
X144021511Y-63974901D01*
X144092130Y-63742102D01*
X144110000Y-63560665D01*
X144110000Y-63560656D01*
X144115974Y-63500001D01*
X144110000Y-63439346D01*
X144110000Y-56391553D01*
X144656554Y-55845000D01*
X162048447Y-55845000D01*
X169390826Y-63187380D01*
X169429498Y-63234502D01*
X169617551Y-63388833D01*
X169832099Y-63503511D01*
X170064898Y-63574130D01*
X170246335Y-63592000D01*
X170246344Y-63592000D01*
X170306999Y-63597974D01*
X170367654Y-63592000D01*
X173193918Y-63592000D01*
X173384256Y-63782338D01*
X173684801Y-63983156D01*
X174018750Y-64121482D01*
X174373268Y-64192000D01*
X174734732Y-64192000D01*
X175089250Y-64121482D01*
X175423199Y-63983156D01*
X175723744Y-63782338D01*
X175979338Y-63526744D01*
X176180156Y-63226199D01*
X176217341Y-63136426D01*
X176215928Y-63557000D01*
X176228188Y-63681482D01*
X176264498Y-63801180D01*
X176323463Y-63911494D01*
X176402815Y-64008185D01*
X176499506Y-64087537D01*
X176609820Y-64146502D01*
X176729518Y-64182812D01*
X176854000Y-64195072D01*
X177768250Y-64192000D01*
X177927000Y-64033250D01*
X177927000Y-62484000D01*
X178181000Y-62484000D01*
X178181000Y-64033250D01*
X178339750Y-64192000D01*
X179254000Y-64195072D01*
X179378482Y-64182812D01*
X179498180Y-64146502D01*
X179608494Y-64087537D01*
X179705185Y-64008185D01*
X179784537Y-63911494D01*
X179843502Y-63801180D01*
X179879812Y-63681482D01*
X179892072Y-63557000D01*
X179889000Y-62642750D01*
X179730250Y-62484000D01*
X178181000Y-62484000D01*
X177927000Y-62484000D01*
X177907000Y-62484000D01*
X177907000Y-62230000D01*
X177927000Y-62230000D01*
X177927000Y-60680750D01*
X178181000Y-60680750D01*
X178181000Y-62230000D01*
X179730250Y-62230000D01*
X179889000Y-62071250D01*
X179892072Y-61157000D01*
X179879812Y-61032518D01*
X179843502Y-60912820D01*
X179784537Y-60802506D01*
X179705185Y-60705815D01*
X179608494Y-60626463D01*
X179498180Y-60567498D01*
X179378482Y-60531188D01*
X179254000Y-60518928D01*
X178339750Y-60522000D01*
X178181000Y-60680750D01*
X177927000Y-60680750D01*
X177768250Y-60522000D01*
X176854000Y-60518928D01*
X176729518Y-60531188D01*
X176609820Y-60567498D01*
X176499506Y-60626463D01*
X176402815Y-60705815D01*
X176323463Y-60802506D01*
X176264498Y-60912820D01*
X176228188Y-61032518D01*
X176215928Y-61157000D01*
X176217341Y-61577574D01*
X176180156Y-61487801D01*
X175979338Y-61187256D01*
X175723744Y-60931662D01*
X175423199Y-60730844D01*
X175089250Y-60592518D01*
X174734732Y-60522000D01*
X174373268Y-60522000D01*
X174018750Y-60592518D01*
X173684801Y-60730844D01*
X173384256Y-60931662D01*
X173193918Y-61122000D01*
X170818554Y-61122000D01*
X168697822Y-59001268D01*
X181807000Y-59001268D01*
X181807000Y-59362732D01*
X181877518Y-59717250D01*
X182015844Y-60051199D01*
X182216662Y-60351744D01*
X182472256Y-60607338D01*
X182772801Y-60808156D01*
X183106750Y-60946482D01*
X183461268Y-61017000D01*
X183822732Y-61017000D01*
X184177250Y-60946482D01*
X184511199Y-60808156D01*
X184811744Y-60607338D01*
X185067338Y-60351744D01*
X185268156Y-60051199D01*
X185406482Y-59717250D01*
X185477000Y-59362732D01*
X185477000Y-59001268D01*
X188157000Y-59001268D01*
X188157000Y-59362732D01*
X188227518Y-59717250D01*
X188365844Y-60051199D01*
X188566662Y-60351744D01*
X188822256Y-60607338D01*
X189122801Y-60808156D01*
X189456750Y-60946482D01*
X189811268Y-61017000D01*
X190172732Y-61017000D01*
X190527250Y-60946482D01*
X190861199Y-60808156D01*
X191161744Y-60607338D01*
X191417338Y-60351744D01*
X191618156Y-60051199D01*
X191756482Y-59717250D01*
X191827000Y-59362732D01*
X191827000Y-59001268D01*
X191756482Y-58646750D01*
X191618156Y-58312801D01*
X191417338Y-58012256D01*
X191161744Y-57756662D01*
X190861199Y-57555844D01*
X190527250Y-57417518D01*
X190172732Y-57347000D01*
X189811268Y-57347000D01*
X189456750Y-57417518D01*
X189122801Y-57555844D01*
X188822256Y-57756662D01*
X188566662Y-58012256D01*
X188365844Y-58312801D01*
X188227518Y-58646750D01*
X188157000Y-59001268D01*
X185477000Y-59001268D01*
X185406482Y-58646750D01*
X185268156Y-58312801D01*
X185067338Y-58012256D01*
X184811744Y-57756662D01*
X184511199Y-57555844D01*
X184177250Y-57417518D01*
X183822732Y-57347000D01*
X183461268Y-57347000D01*
X183106750Y-57417518D01*
X182772801Y-57555844D01*
X182472256Y-57756662D01*
X182216662Y-58012256D01*
X182015844Y-58312801D01*
X181877518Y-58646750D01*
X181807000Y-59001268D01*
X168697822Y-59001268D01*
X164063859Y-54367305D01*
X188035872Y-54367305D01*
X188035872Y-54852695D01*
X188130567Y-55328760D01*
X188316318Y-55777202D01*
X188585987Y-56180790D01*
X188929210Y-56524013D01*
X189332798Y-56793682D01*
X189781240Y-56979433D01*
X190257305Y-57074128D01*
X190742695Y-57074128D01*
X191218760Y-56979433D01*
X191667202Y-56793682D01*
X192070790Y-56524013D01*
X192414013Y-56180790D01*
X192683682Y-55777202D01*
X192869433Y-55328760D01*
X192964128Y-54852695D01*
X192964128Y-54367305D01*
X192869433Y-53891240D01*
X192683682Y-53442798D01*
X192414013Y-53039210D01*
X192070790Y-52695987D01*
X191667202Y-52426318D01*
X191218760Y-52240567D01*
X190742695Y-52145872D01*
X190257305Y-52145872D01*
X189781240Y-52240567D01*
X189332798Y-52426318D01*
X188929210Y-52695987D01*
X188585987Y-53039210D01*
X188316318Y-53442798D01*
X188130567Y-53891240D01*
X188035872Y-54367305D01*
X164063859Y-54367305D01*
X163476179Y-53779626D01*
X163437502Y-53732498D01*
X163249449Y-53578167D01*
X163034901Y-53463489D01*
X162802102Y-53392870D01*
X162620665Y-53375000D01*
X162560000Y-53369025D01*
X162499335Y-53375000D01*
X144205664Y-53375000D01*
X144144999Y-53369025D01*
X143902897Y-53392870D01*
X143738308Y-53442798D01*
X143670099Y-53463489D01*
X143455551Y-53578167D01*
X143267498Y-53732498D01*
X143228826Y-53779620D01*
X142044625Y-54963822D01*
X141997498Y-55002498D01*
X141843167Y-55190552D01*
X141728489Y-55405100D01*
X141728489Y-55405101D01*
X141657870Y-55637898D01*
X141634025Y-55880000D01*
X141640000Y-55940665D01*
X141640001Y-62988445D01*
X139823447Y-64805000D01*
X137671554Y-64805000D01*
X135855000Y-62988447D01*
X135855000Y-62516210D01*
X135916330Y-62548992D01*
X136036028Y-62585302D01*
X136160510Y-62597562D01*
X138159490Y-62597562D01*
X138283972Y-62585302D01*
X138403670Y-62548992D01*
X138513984Y-62490027D01*
X138610675Y-62410675D01*
X138690027Y-62313984D01*
X138748992Y-62203670D01*
X138785302Y-62083972D01*
X138797562Y-61959490D01*
X138797562Y-59960510D01*
X138785302Y-59836028D01*
X138748992Y-59716330D01*
X138690027Y-59606016D01*
X138610675Y-59509325D01*
X138513984Y-59429973D01*
X138403670Y-59371008D01*
X138283972Y-59334698D01*
X138159490Y-59322438D01*
X137933406Y-59322438D01*
X138080450Y-59175394D01*
X138210134Y-58981308D01*
X138299461Y-58765652D01*
X138345000Y-58536712D01*
X138345000Y-58303288D01*
X138299461Y-58074348D01*
X138210134Y-57858692D01*
X138080450Y-57664606D01*
X137915394Y-57499550D01*
X137721308Y-57369866D01*
X137505652Y-57280539D01*
X137276712Y-57235000D01*
X137043288Y-57235000D01*
X136814348Y-57280539D01*
X136598692Y-57369866D01*
X136404606Y-57499550D01*
X136239550Y-57664606D01*
X136109866Y-57858692D01*
X136020539Y-58074348D01*
X135975000Y-58303288D01*
X135975000Y-58536712D01*
X136020539Y-58765652D01*
X136109866Y-58981308D01*
X136239550Y-59175394D01*
X136386594Y-59322438D01*
X136160510Y-59322438D01*
X136036028Y-59334698D01*
X135916330Y-59371008D01*
X135806016Y-59429973D01*
X135709325Y-59509325D01*
X135629973Y-59606016D01*
X135605144Y-59652467D01*
X135394222Y-59511533D01*
X135224539Y-59441248D01*
X135375394Y-59340450D01*
X135540450Y-59175394D01*
X135670134Y-58981308D01*
X135759461Y-58765652D01*
X135805000Y-58536712D01*
X135805000Y-58303288D01*
X135759461Y-58074348D01*
X135670134Y-57858692D01*
X135540450Y-57664606D01*
X135375394Y-57499550D01*
X135181308Y-57369866D01*
X134965652Y-57280539D01*
X134736712Y-57235000D01*
X134503288Y-57235000D01*
X134274348Y-57280539D01*
X134058692Y-57369866D01*
X133864606Y-57499550D01*
X133699550Y-57664606D01*
X133569866Y-57858692D01*
X133480539Y-58074348D01*
X133435000Y-58303288D01*
X133435000Y-58536712D01*
X133480539Y-58765652D01*
X133569866Y-58981308D01*
X133699550Y-59175394D01*
X133864606Y-59340450D01*
X134015461Y-59441248D01*
X133845778Y-59511533D01*
X133578073Y-59690408D01*
X133350408Y-59918073D01*
X133341467Y-59931454D01*
X133279401Y-59849591D01*
X133039725Y-59636936D01*
X132763167Y-59475125D01*
X132677954Y-59445648D01*
X132835394Y-59340450D01*
X133000450Y-59175394D01*
X133130134Y-58981308D01*
X133219461Y-58765652D01*
X133265000Y-58536712D01*
X133265000Y-58303288D01*
X133219461Y-58074348D01*
X133130134Y-57858692D01*
X133000450Y-57664606D01*
X132835394Y-57499550D01*
X132641308Y-57369866D01*
X132425652Y-57280539D01*
X132196712Y-57235000D01*
X131963288Y-57235000D01*
X131734348Y-57280539D01*
X131518692Y-57369866D01*
X131324606Y-57499550D01*
X131159550Y-57664606D01*
X131029866Y-57858692D01*
X130940539Y-58074348D01*
X130895000Y-58303288D01*
X130895000Y-58536712D01*
X130940539Y-58765652D01*
X131029866Y-58981308D01*
X131159550Y-59175394D01*
X131324606Y-59340450D01*
X131482046Y-59445648D01*
X131396833Y-59475125D01*
X131120275Y-59636936D01*
X130880599Y-59849591D01*
X130687015Y-60104919D01*
X130546963Y-60393107D01*
X130490381Y-60579646D01*
X122605000Y-60579646D01*
X122605000Y-54367305D01*
X123265872Y-54367305D01*
X123265872Y-54852695D01*
X123360567Y-55328760D01*
X123546318Y-55777202D01*
X123815987Y-56180790D01*
X124159210Y-56524013D01*
X124562798Y-56793682D01*
X125011240Y-56979433D01*
X125487305Y-57074128D01*
X125972695Y-57074128D01*
X126448760Y-56979433D01*
X126897202Y-56793682D01*
X127300790Y-56524013D01*
X127644013Y-56180790D01*
X127913682Y-55777202D01*
X128099433Y-55328760D01*
X128194128Y-54852695D01*
X128194128Y-54367305D01*
X128099433Y-53891240D01*
X127913682Y-53442798D01*
X127644013Y-53039210D01*
X127300790Y-52695987D01*
X126897202Y-52426318D01*
X126448760Y-52240567D01*
X125972695Y-52145872D01*
X125487305Y-52145872D01*
X125011240Y-52240567D01*
X124562798Y-52426318D01*
X124159210Y-52695987D01*
X123815987Y-53039210D01*
X123546318Y-53442798D01*
X123360567Y-53891240D01*
X123265872Y-54367305D01*
X122605000Y-54367305D01*
X122605000Y-51485000D01*
X193625000Y-51485000D01*
X193625001Y-125045000D01*
M02*
