G04 #@! TF.GenerationSoftware,KiCad,Pcbnew,(5.1.5)-3*
G04 #@! TF.CreationDate,2022-07-10T23:47:25+02:00*
G04 #@! TF.ProjectId,rgbw_12v_controller,72676277-5f31-4327-965f-636f6e74726f,rev?*
G04 #@! TF.SameCoordinates,Original*
G04 #@! TF.FileFunction,Legend,Bot*
G04 #@! TF.FilePolarity,Positive*
%FSLAX46Y46*%
G04 Gerber Fmt 4.6, Leading zero omitted, Abs format (unit mm)*
G04 Created by KiCad (PCBNEW (5.1.5)-3) date 2022-07-10 23:47:25*
%MOMM*%
%LPD*%
G04 APERTURE LIST*
%ADD10C,0.150000*%
%ADD11C,0.250000*%
%ADD12C,0.300000*%
%ADD13C,0.010000*%
G04 APERTURE END LIST*
D10*
X127563619Y-86954095D02*
X128563619Y-86954095D01*
X127563619Y-86525523D02*
X128087428Y-86525523D01*
X128182666Y-86573142D01*
X128230285Y-86668380D01*
X128230285Y-86811238D01*
X128182666Y-86906476D01*
X128135047Y-86954095D01*
X128230285Y-86192190D02*
X128230285Y-85811238D01*
X128563619Y-86049333D02*
X127706476Y-86049333D01*
X127611238Y-86001714D01*
X127563619Y-85906476D01*
X127563619Y-85811238D01*
X128230285Y-85620761D02*
X128230285Y-85239809D01*
X128563619Y-85477904D02*
X127706476Y-85477904D01*
X127611238Y-85430285D01*
X127563619Y-85335047D01*
X127563619Y-85239809D01*
X128230285Y-84906476D02*
X127230285Y-84906476D01*
X128182666Y-84906476D02*
X128230285Y-84811238D01*
X128230285Y-84620761D01*
X128182666Y-84525523D01*
X128135047Y-84477904D01*
X128039809Y-84430285D01*
X127754095Y-84430285D01*
X127658857Y-84477904D01*
X127611238Y-84525523D01*
X127563619Y-84620761D01*
X127563619Y-84811238D01*
X127611238Y-84906476D01*
X127611238Y-84049333D02*
X127563619Y-83954095D01*
X127563619Y-83763619D01*
X127611238Y-83668380D01*
X127706476Y-83620761D01*
X127754095Y-83620761D01*
X127849333Y-83668380D01*
X127896952Y-83763619D01*
X127896952Y-83906476D01*
X127944571Y-84001714D01*
X128039809Y-84049333D01*
X128087428Y-84049333D01*
X128182666Y-84001714D01*
X128230285Y-83906476D01*
X128230285Y-83763619D01*
X128182666Y-83668380D01*
X127658857Y-83192190D02*
X127611238Y-83144571D01*
X127563619Y-83192190D01*
X127611238Y-83239809D01*
X127658857Y-83192190D01*
X127563619Y-83192190D01*
X128182666Y-83192190D02*
X128135047Y-83144571D01*
X128087428Y-83192190D01*
X128135047Y-83239809D01*
X128182666Y-83192190D01*
X128087428Y-83192190D01*
X128611238Y-82001714D02*
X127325523Y-82858857D01*
X128611238Y-80954095D02*
X127325523Y-81811238D01*
X128230285Y-80716000D02*
X127563619Y-80525523D01*
X128039809Y-80335047D01*
X127563619Y-80144571D01*
X128230285Y-79954095D01*
X128230285Y-79668380D02*
X127563619Y-79477904D01*
X128039809Y-79287428D01*
X127563619Y-79096952D01*
X128230285Y-78906476D01*
X128230285Y-78620761D02*
X127563619Y-78430285D01*
X128039809Y-78239809D01*
X127563619Y-78049333D01*
X128230285Y-77858857D01*
X127658857Y-77477904D02*
X127611238Y-77430285D01*
X127563619Y-77477904D01*
X127611238Y-77525523D01*
X127658857Y-77477904D01*
X127563619Y-77477904D01*
X128230285Y-77001714D02*
X127230285Y-77001714D01*
X128182666Y-77001714D02*
X128230285Y-76906476D01*
X128230285Y-76716000D01*
X128182666Y-76620761D01*
X128135047Y-76573142D01*
X128039809Y-76525523D01*
X127754095Y-76525523D01*
X127658857Y-76573142D01*
X127611238Y-76620761D01*
X127563619Y-76716000D01*
X127563619Y-76906476D01*
X127611238Y-77001714D01*
X127611238Y-75668380D02*
X127563619Y-75763619D01*
X127563619Y-75954095D01*
X127611238Y-76049333D01*
X127658857Y-76096952D01*
X127754095Y-76144571D01*
X128039809Y-76144571D01*
X128135047Y-76096952D01*
X128182666Y-76049333D01*
X128230285Y-75954095D01*
X128230285Y-75763619D01*
X128182666Y-75668380D01*
X127563619Y-75239809D02*
X128563619Y-75239809D01*
X128182666Y-75239809D02*
X128230285Y-75144571D01*
X128230285Y-74954095D01*
X128182666Y-74858857D01*
X128135047Y-74811238D01*
X128039809Y-74763619D01*
X127754095Y-74763619D01*
X127658857Y-74811238D01*
X127611238Y-74858857D01*
X127563619Y-74954095D01*
X127563619Y-75144571D01*
X127611238Y-75239809D01*
X128230285Y-74430285D02*
X127563619Y-74239809D01*
X128039809Y-74049333D01*
X127563619Y-73858857D01*
X128230285Y-73668380D01*
X127563619Y-72858857D02*
X128087428Y-72858857D01*
X128182666Y-72906476D01*
X128230285Y-73001714D01*
X128230285Y-73192190D01*
X128182666Y-73287428D01*
X127611238Y-72858857D02*
X127563619Y-72954095D01*
X127563619Y-73192190D01*
X127611238Y-73287428D01*
X127706476Y-73335047D01*
X127801714Y-73335047D01*
X127896952Y-73287428D01*
X127944571Y-73192190D01*
X127944571Y-72954095D01*
X127992190Y-72858857D01*
X128230285Y-72477904D02*
X127563619Y-72239809D01*
X128230285Y-72001714D02*
X127563619Y-72239809D01*
X127325523Y-72335047D01*
X127277904Y-72382666D01*
X127230285Y-72477904D01*
X127658857Y-71620761D02*
X127611238Y-71573142D01*
X127563619Y-71620761D01*
X127611238Y-71668380D01*
X127658857Y-71620761D01*
X127563619Y-71620761D01*
X127611238Y-70716000D02*
X127563619Y-70811238D01*
X127563619Y-71001714D01*
X127611238Y-71096952D01*
X127658857Y-71144571D01*
X127754095Y-71192190D01*
X128039809Y-71192190D01*
X128135047Y-71144571D01*
X128182666Y-71096952D01*
X128230285Y-71001714D01*
X128230285Y-70811238D01*
X128182666Y-70716000D01*
X127563619Y-70144571D02*
X127611238Y-70239809D01*
X127658857Y-70287428D01*
X127754095Y-70335047D01*
X128039809Y-70335047D01*
X128135047Y-70287428D01*
X128182666Y-70239809D01*
X128230285Y-70144571D01*
X128230285Y-70001714D01*
X128182666Y-69906476D01*
X128135047Y-69858857D01*
X128039809Y-69811238D01*
X127754095Y-69811238D01*
X127658857Y-69858857D01*
X127611238Y-69906476D01*
X127563619Y-70001714D01*
X127563619Y-70144571D01*
X127563619Y-69382666D02*
X128230285Y-69382666D01*
X128135047Y-69382666D02*
X128182666Y-69335047D01*
X128230285Y-69239809D01*
X128230285Y-69096952D01*
X128182666Y-69001714D01*
X128087428Y-68954095D01*
X127563619Y-68954095D01*
X128087428Y-68954095D02*
X128182666Y-68906476D01*
X128230285Y-68811238D01*
X128230285Y-68668380D01*
X128182666Y-68573142D01*
X128087428Y-68525523D01*
X127563619Y-68525523D01*
X128611238Y-67335047D02*
X127325523Y-68192190D01*
D11*
X131171142Y-103902857D02*
X131171142Y-104402857D01*
X130385428Y-104402857D02*
X131885428Y-104402857D01*
X131885428Y-103688571D01*
X131385428Y-102474285D02*
X130385428Y-102474285D01*
X131385428Y-103117142D02*
X130599714Y-103117142D01*
X130456857Y-103045714D01*
X130385428Y-102902857D01*
X130385428Y-102688571D01*
X130456857Y-102545714D01*
X130528285Y-102474285D01*
X130385428Y-101545714D02*
X130456857Y-101688571D01*
X130599714Y-101760000D01*
X131885428Y-101760000D01*
X130385428Y-100760000D02*
X130456857Y-100902857D01*
X130599714Y-100974285D01*
X131885428Y-100974285D01*
X131385428Y-99260000D02*
X131385428Y-98688571D01*
X130385428Y-99045714D02*
X131671142Y-99045714D01*
X131814000Y-98974285D01*
X131885428Y-98831428D01*
X131885428Y-98688571D01*
X130456857Y-97617142D02*
X130385428Y-97760000D01*
X130385428Y-98045714D01*
X130456857Y-98188571D01*
X130599714Y-98260000D01*
X131171142Y-98260000D01*
X131314000Y-98188571D01*
X131385428Y-98045714D01*
X131385428Y-97760000D01*
X131314000Y-97617142D01*
X131171142Y-97545714D01*
X131028285Y-97545714D01*
X130885428Y-98260000D01*
X130385428Y-96260000D02*
X131171142Y-96260000D01*
X131314000Y-96331428D01*
X131385428Y-96474285D01*
X131385428Y-96760000D01*
X131314000Y-96902857D01*
X130456857Y-96260000D02*
X130385428Y-96402857D01*
X130385428Y-96760000D01*
X130456857Y-96902857D01*
X130599714Y-96974285D01*
X130742571Y-96974285D01*
X130885428Y-96902857D01*
X130956857Y-96760000D01*
X130956857Y-96402857D01*
X131028285Y-96260000D01*
X131385428Y-95760000D02*
X131385428Y-95188571D01*
X131885428Y-95545714D02*
X130599714Y-95545714D01*
X130456857Y-95474285D01*
X130385428Y-95331428D01*
X130385428Y-95188571D01*
X131385428Y-94045714D02*
X130385428Y-94045714D01*
X131385428Y-94688571D02*
X130599714Y-94688571D01*
X130456857Y-94617142D01*
X130385428Y-94474285D01*
X130385428Y-94260000D01*
X130456857Y-94117142D01*
X130528285Y-94045714D01*
X130385428Y-93331428D02*
X131385428Y-93331428D01*
X131099714Y-93331428D02*
X131242571Y-93260000D01*
X131314000Y-93188571D01*
X131385428Y-93045714D01*
X131385428Y-92902857D01*
X130456857Y-91831428D02*
X130385428Y-91974285D01*
X130385428Y-92260000D01*
X130456857Y-92402857D01*
X130599714Y-92474285D01*
X131171142Y-92474285D01*
X131314000Y-92402857D01*
X131385428Y-92260000D01*
X131385428Y-91974285D01*
X131314000Y-91831428D01*
X131171142Y-91760000D01*
X131028285Y-91760000D01*
X130885428Y-92474285D01*
X130456857Y-89331428D02*
X130385428Y-89474285D01*
X130385428Y-89760000D01*
X130456857Y-89902857D01*
X130528285Y-89974285D01*
X130671142Y-90045714D01*
X131099714Y-90045714D01*
X131242571Y-89974285D01*
X131314000Y-89902857D01*
X131385428Y-89760000D01*
X131385428Y-89474285D01*
X131314000Y-89331428D01*
X131385428Y-88045714D02*
X130385428Y-88045714D01*
X131385428Y-88688571D02*
X130599714Y-88688571D01*
X130456857Y-88617142D01*
X130385428Y-88474285D01*
X130385428Y-88260000D01*
X130456857Y-88117142D01*
X130528285Y-88045714D01*
X130456857Y-87402857D02*
X130385428Y-87260000D01*
X130385428Y-86974285D01*
X130456857Y-86831428D01*
X130599714Y-86760000D01*
X130671142Y-86760000D01*
X130814000Y-86831428D01*
X130885428Y-86974285D01*
X130885428Y-87188571D01*
X130956857Y-87331428D01*
X131099714Y-87402857D01*
X131171142Y-87402857D01*
X131314000Y-87331428D01*
X131385428Y-87188571D01*
X131385428Y-86974285D01*
X131314000Y-86831428D01*
X131385428Y-86331428D02*
X131385428Y-85760000D01*
X131885428Y-86117142D02*
X130599714Y-86117142D01*
X130456857Y-86045714D01*
X130385428Y-85902857D01*
X130385428Y-85760000D01*
X130385428Y-85045714D02*
X130456857Y-85188571D01*
X130528285Y-85260000D01*
X130671142Y-85331428D01*
X131099714Y-85331428D01*
X131242571Y-85260000D01*
X131314000Y-85188571D01*
X131385428Y-85045714D01*
X131385428Y-84831428D01*
X131314000Y-84688571D01*
X131242571Y-84617142D01*
X131099714Y-84545714D01*
X130671142Y-84545714D01*
X130528285Y-84617142D01*
X130456857Y-84688571D01*
X130385428Y-84831428D01*
X130385428Y-85045714D01*
X130385428Y-83902857D02*
X131385428Y-83902857D01*
X131242571Y-83902857D02*
X131314000Y-83831428D01*
X131385428Y-83688571D01*
X131385428Y-83474285D01*
X131314000Y-83331428D01*
X131171142Y-83260000D01*
X130385428Y-83260000D01*
X131171142Y-83260000D02*
X131314000Y-83188571D01*
X131385428Y-83045714D01*
X131385428Y-82831428D01*
X131314000Y-82688571D01*
X131171142Y-82617142D01*
X130385428Y-82617142D01*
X130385428Y-80760000D02*
X131885428Y-80760000D01*
X131885428Y-80188571D01*
X131814000Y-80045714D01*
X131742571Y-79974285D01*
X131599714Y-79902857D01*
X131385428Y-79902857D01*
X131242571Y-79974285D01*
X131171142Y-80045714D01*
X131099714Y-80188571D01*
X131099714Y-80760000D01*
X130528285Y-78402857D02*
X130456857Y-78474285D01*
X130385428Y-78688571D01*
X130385428Y-78831428D01*
X130456857Y-79045714D01*
X130599714Y-79188571D01*
X130742571Y-79260000D01*
X131028285Y-79331428D01*
X131242571Y-79331428D01*
X131528285Y-79260000D01*
X131671142Y-79188571D01*
X131814000Y-79045714D01*
X131885428Y-78831428D01*
X131885428Y-78688571D01*
X131814000Y-78474285D01*
X131742571Y-78402857D01*
X131171142Y-77260000D02*
X131099714Y-77045714D01*
X131028285Y-76974285D01*
X130885428Y-76902857D01*
X130671142Y-76902857D01*
X130528285Y-76974285D01*
X130456857Y-77045714D01*
X130385428Y-77188571D01*
X130385428Y-77760000D01*
X131885428Y-77760000D01*
X131885428Y-77260000D01*
X131814000Y-77117142D01*
X131742571Y-77045714D01*
X131599714Y-76974285D01*
X131456857Y-76974285D01*
X131314000Y-77045714D01*
X131242571Y-77117142D01*
X131171142Y-77260000D01*
X131171142Y-77760000D01*
X131385428Y-75117142D02*
X129885428Y-75117142D01*
X131314000Y-75117142D02*
X131385428Y-74974285D01*
X131385428Y-74688571D01*
X131314000Y-74545714D01*
X131242571Y-74474285D01*
X131099714Y-74402857D01*
X130671142Y-74402857D01*
X130528285Y-74474285D01*
X130456857Y-74545714D01*
X130385428Y-74688571D01*
X130385428Y-74974285D01*
X130456857Y-75117142D01*
X130385428Y-73760000D02*
X131385428Y-73760000D01*
X131099714Y-73760000D02*
X131242571Y-73688571D01*
X131314000Y-73617142D01*
X131385428Y-73474285D01*
X131385428Y-73331428D01*
X130385428Y-72617142D02*
X130456857Y-72760000D01*
X130528285Y-72831428D01*
X130671142Y-72902857D01*
X131099714Y-72902857D01*
X131242571Y-72831428D01*
X131314000Y-72760000D01*
X131385428Y-72617142D01*
X131385428Y-72402857D01*
X131314000Y-72260000D01*
X131242571Y-72188571D01*
X131099714Y-72117142D01*
X130671142Y-72117142D01*
X130528285Y-72188571D01*
X130456857Y-72260000D01*
X130385428Y-72402857D01*
X130385428Y-72617142D01*
X131385428Y-71688571D02*
X131385428Y-71117142D01*
X131885428Y-71474285D02*
X130599714Y-71474285D01*
X130456857Y-71402857D01*
X130385428Y-71260000D01*
X130385428Y-71117142D01*
X130385428Y-70402857D02*
X130456857Y-70545714D01*
X130528285Y-70617142D01*
X130671142Y-70688571D01*
X131099714Y-70688571D01*
X131242571Y-70617142D01*
X131314000Y-70545714D01*
X131385428Y-70402857D01*
X131385428Y-70188571D01*
X131314000Y-70045714D01*
X131242571Y-69974285D01*
X131099714Y-69902857D01*
X130671142Y-69902857D01*
X130528285Y-69974285D01*
X130456857Y-70045714D01*
X130385428Y-70188571D01*
X130385428Y-70402857D01*
X131385428Y-69474285D02*
X131385428Y-68902857D01*
X131885428Y-69260000D02*
X130599714Y-69260000D01*
X130456857Y-69188571D01*
X130385428Y-69045714D01*
X130385428Y-68902857D01*
X131385428Y-68545714D02*
X130385428Y-68188571D01*
X131385428Y-67831428D02*
X130385428Y-68188571D01*
X130028285Y-68331428D01*
X129956857Y-68402857D01*
X129885428Y-68545714D01*
X131385428Y-67260000D02*
X129885428Y-67260000D01*
X131314000Y-67260000D02*
X131385428Y-67117142D01*
X131385428Y-66831428D01*
X131314000Y-66688571D01*
X131242571Y-66617142D01*
X131099714Y-66545714D01*
X130671142Y-66545714D01*
X130528285Y-66617142D01*
X130456857Y-66688571D01*
X130385428Y-66831428D01*
X130385428Y-67117142D01*
X130456857Y-67260000D01*
X130456857Y-65331428D02*
X130385428Y-65474285D01*
X130385428Y-65760000D01*
X130456857Y-65902857D01*
X130599714Y-65974285D01*
X131171142Y-65974285D01*
X131314000Y-65902857D01*
X131385428Y-65760000D01*
X131385428Y-65474285D01*
X131314000Y-65331428D01*
X131171142Y-65260000D01*
X131028285Y-65260000D01*
X130885428Y-65974285D01*
X130456857Y-63545714D02*
X130385428Y-63402857D01*
X130385428Y-63117142D01*
X130456857Y-62974285D01*
X130599714Y-62902857D01*
X130671142Y-62902857D01*
X130814000Y-62974285D01*
X130885428Y-63117142D01*
X130885428Y-63331428D01*
X130956857Y-63474285D01*
X131099714Y-63545714D01*
X131171142Y-63545714D01*
X131314000Y-63474285D01*
X131385428Y-63331428D01*
X131385428Y-63117142D01*
X131314000Y-62974285D01*
X130456857Y-61688571D02*
X130385428Y-61831428D01*
X130385428Y-62117142D01*
X130456857Y-62260000D01*
X130599714Y-62331428D01*
X131171142Y-62331428D01*
X131314000Y-62260000D01*
X131385428Y-62117142D01*
X131385428Y-61831428D01*
X131314000Y-61688571D01*
X131171142Y-61617142D01*
X131028285Y-61617142D01*
X130885428Y-62331428D01*
X130385428Y-60974285D02*
X131385428Y-60974285D01*
X131099714Y-60974285D02*
X131242571Y-60902857D01*
X131314000Y-60831428D01*
X131385428Y-60688571D01*
X131385428Y-60545714D01*
X131385428Y-60188571D02*
X130385428Y-59831428D01*
X131385428Y-59474285D01*
X130385428Y-58902857D02*
X131385428Y-58902857D01*
X131885428Y-58902857D02*
X131814000Y-58974285D01*
X131742571Y-58902857D01*
X131814000Y-58831428D01*
X131885428Y-58902857D01*
X131742571Y-58902857D01*
X130456857Y-57545714D02*
X130385428Y-57688571D01*
X130385428Y-57974285D01*
X130456857Y-58117142D01*
X130528285Y-58188571D01*
X130671142Y-58260000D01*
X131099714Y-58260000D01*
X131242571Y-58188571D01*
X131314000Y-58117142D01*
X131385428Y-57974285D01*
X131385428Y-57688571D01*
X131314000Y-57545714D01*
X130456857Y-56331428D02*
X130385428Y-56474285D01*
X130385428Y-56760000D01*
X130456857Y-56902857D01*
X130599714Y-56974285D01*
X131171142Y-56974285D01*
X131314000Y-56902857D01*
X131385428Y-56760000D01*
X131385428Y-56474285D01*
X131314000Y-56331428D01*
X131171142Y-56260000D01*
X131028285Y-56260000D01*
X130885428Y-56974285D01*
X130528285Y-55617142D02*
X130456857Y-55545714D01*
X130385428Y-55617142D01*
X130456857Y-55688571D01*
X130528285Y-55617142D01*
X130385428Y-55617142D01*
D12*
X148542476Y-104551523D02*
X148447238Y-104265809D01*
X148447238Y-103789619D01*
X148542476Y-103599142D01*
X148637714Y-103503904D01*
X148828190Y-103408666D01*
X149018666Y-103408666D01*
X149209142Y-103503904D01*
X149304380Y-103599142D01*
X149399619Y-103789619D01*
X149494857Y-104170571D01*
X149590095Y-104361047D01*
X149685333Y-104456285D01*
X149875809Y-104551523D01*
X150066285Y-104551523D01*
X150256761Y-104456285D01*
X150352000Y-104361047D01*
X150447238Y-104170571D01*
X150447238Y-103694380D01*
X150352000Y-103408666D01*
X149780571Y-102551523D02*
X147780571Y-102551523D01*
X149685333Y-102551523D02*
X149780571Y-102361047D01*
X149780571Y-101980095D01*
X149685333Y-101789619D01*
X149590095Y-101694380D01*
X149399619Y-101599142D01*
X148828190Y-101599142D01*
X148637714Y-101694380D01*
X148542476Y-101789619D01*
X148447238Y-101980095D01*
X148447238Y-102361047D01*
X148542476Y-102551523D01*
X148447238Y-100456285D02*
X148542476Y-100646761D01*
X148637714Y-100742000D01*
X148828190Y-100837238D01*
X149399619Y-100837238D01*
X149590095Y-100742000D01*
X149685333Y-100646761D01*
X149780571Y-100456285D01*
X149780571Y-100170571D01*
X149685333Y-99980095D01*
X149590095Y-99884857D01*
X149399619Y-99789619D01*
X148828190Y-99789619D01*
X148637714Y-99884857D01*
X148542476Y-99980095D01*
X148447238Y-100170571D01*
X148447238Y-100456285D01*
X149780571Y-98932476D02*
X148447238Y-98932476D01*
X149590095Y-98932476D02*
X149685333Y-98837238D01*
X149780571Y-98646761D01*
X149780571Y-98361047D01*
X149685333Y-98170571D01*
X149494857Y-98075333D01*
X148447238Y-98075333D01*
X148542476Y-97218190D02*
X148447238Y-97027714D01*
X148447238Y-96646761D01*
X148542476Y-96456285D01*
X148732952Y-96361047D01*
X148828190Y-96361047D01*
X149018666Y-96456285D01*
X149113904Y-96646761D01*
X149113904Y-96932476D01*
X149209142Y-97122952D01*
X149399619Y-97218190D01*
X149494857Y-97218190D01*
X149685333Y-97122952D01*
X149780571Y-96932476D01*
X149780571Y-96646761D01*
X149685333Y-96456285D01*
X148447238Y-95218190D02*
X148542476Y-95408666D01*
X148637714Y-95503904D01*
X148828190Y-95599142D01*
X149399619Y-95599142D01*
X149590095Y-95503904D01*
X149685333Y-95408666D01*
X149780571Y-95218190D01*
X149780571Y-94932476D01*
X149685333Y-94742000D01*
X149590095Y-94646761D01*
X149399619Y-94551523D01*
X148828190Y-94551523D01*
X148637714Y-94646761D01*
X148542476Y-94742000D01*
X148447238Y-94932476D01*
X148447238Y-95218190D01*
X148447238Y-93694380D02*
X149780571Y-93694380D01*
X149399619Y-93694380D02*
X149590095Y-93599142D01*
X149685333Y-93503904D01*
X149780571Y-93313428D01*
X149780571Y-93122952D01*
X148542476Y-91694380D02*
X148447238Y-91884857D01*
X148447238Y-92265809D01*
X148542476Y-92456285D01*
X148732952Y-92551523D01*
X149494857Y-92551523D01*
X149685333Y-92456285D01*
X149780571Y-92265809D01*
X149780571Y-91884857D01*
X149685333Y-91694380D01*
X149494857Y-91599142D01*
X149304380Y-91599142D01*
X149113904Y-92551523D01*
X148447238Y-89884857D02*
X150447238Y-89884857D01*
X148542476Y-89884857D02*
X148447238Y-90075333D01*
X148447238Y-90456285D01*
X148542476Y-90646761D01*
X148637714Y-90742000D01*
X148828190Y-90837238D01*
X149399619Y-90837238D01*
X149590095Y-90742000D01*
X149685333Y-90646761D01*
X149780571Y-90456285D01*
X149780571Y-90075333D01*
X149685333Y-89884857D01*
X148447238Y-87408666D02*
X150447238Y-87408666D01*
X149685333Y-87408666D02*
X149780571Y-87218190D01*
X149780571Y-86837238D01*
X149685333Y-86646761D01*
X149590095Y-86551523D01*
X149399619Y-86456285D01*
X148828190Y-86456285D01*
X148637714Y-86551523D01*
X148542476Y-86646761D01*
X148447238Y-86837238D01*
X148447238Y-87218190D01*
X148542476Y-87408666D01*
X149780571Y-85789619D02*
X148447238Y-85313428D01*
X149780571Y-84837238D02*
X148447238Y-85313428D01*
X147971047Y-85503904D01*
X147875809Y-85599142D01*
X147780571Y-85789619D01*
D13*
G36*
X144699745Y-91499045D02*
G01*
X144651407Y-91051991D01*
X144565011Y-90609715D01*
X144440952Y-90175110D01*
X144279624Y-89751065D01*
X144081422Y-89340470D01*
X143846741Y-88946218D01*
X143673191Y-88697889D01*
X143613344Y-88621538D01*
X143537802Y-88531529D01*
X143451093Y-88432615D01*
X143357742Y-88329548D01*
X143262277Y-88227080D01*
X143169224Y-88129963D01*
X143083112Y-88042950D01*
X143008465Y-87970792D01*
X142949813Y-87918241D01*
X142911680Y-87890050D01*
X142900540Y-87886803D01*
X142879696Y-87904115D01*
X142835206Y-87947206D01*
X142772249Y-88010854D01*
X142696008Y-88089837D01*
X142630241Y-88159167D01*
X142531971Y-88263404D01*
X142415006Y-88387284D01*
X142289798Y-88519748D01*
X142166798Y-88649736D01*
X142075789Y-88745805D01*
X141770489Y-89067860D01*
X141968756Y-89285555D01*
X142189176Y-89540380D01*
X142377037Y-89786357D01*
X142538375Y-90032039D01*
X142679222Y-90285979D01*
X142691090Y-90309512D01*
X142834859Y-90640427D01*
X142942696Y-90983870D01*
X143014546Y-91335420D01*
X143050355Y-91690658D01*
X143050067Y-92045163D01*
X143013629Y-92394516D01*
X142940986Y-92734296D01*
X142832083Y-93060084D01*
X142727909Y-93289971D01*
X142565470Y-93567169D01*
X142368245Y-93832968D01*
X142142671Y-94080696D01*
X141895187Y-94303678D01*
X141632230Y-94495242D01*
X141473361Y-94590317D01*
X141175701Y-94730589D01*
X140857032Y-94836609D01*
X140521769Y-94907974D01*
X140174325Y-94944282D01*
X139819113Y-94945130D01*
X139460546Y-94910117D01*
X139103040Y-94838839D01*
X139012083Y-94814674D01*
X138863465Y-94764821D01*
X138694491Y-94694512D01*
X138517653Y-94610000D01*
X138345439Y-94517537D01*
X138190340Y-94423376D01*
X138089002Y-94352565D01*
X137832438Y-94131945D01*
X137604464Y-93881958D01*
X137406402Y-93605616D01*
X137239574Y-93305933D01*
X137105302Y-92985921D01*
X137004908Y-92648595D01*
X136939713Y-92296968D01*
X136911039Y-91934052D01*
X136913499Y-91672833D01*
X136941154Y-91345643D01*
X136994548Y-91036521D01*
X137075701Y-90740999D01*
X137186634Y-90454610D01*
X137329368Y-90172889D01*
X137505923Y-89891367D01*
X137718318Y-89605578D01*
X137968575Y-89311054D01*
X137994921Y-89281876D01*
X138062786Y-89205716D01*
X138118224Y-89140884D01*
X138156038Y-89093656D01*
X138171026Y-89070308D01*
X138171000Y-89069286D01*
X138155031Y-89052318D01*
X138111888Y-89009233D01*
X138044894Y-88943278D01*
X137957371Y-88857699D01*
X137852641Y-88755744D01*
X137734025Y-88640657D01*
X137604846Y-88515686D01*
X137574992Y-88486853D01*
X136984567Y-87916802D01*
X136836822Y-88074526D01*
X136526314Y-88422657D01*
X136254816Y-88763831D01*
X136020465Y-89102114D01*
X135821399Y-89441572D01*
X135655755Y-89786273D01*
X135521670Y-90140284D01*
X135417281Y-90507669D01*
X135340726Y-90892497D01*
X135290141Y-91298833D01*
X135275836Y-91482333D01*
X135266978Y-91627499D01*
X135261538Y-91746879D01*
X135259532Y-91853457D01*
X135260976Y-91960214D01*
X135265884Y-92080134D01*
X135274272Y-92226200D01*
X135276758Y-92265850D01*
X135323334Y-92716722D01*
X135405181Y-93146751D01*
X135523358Y-93560033D01*
X135678925Y-93960660D01*
X135761826Y-94138750D01*
X135972567Y-94522325D01*
X136215142Y-94879014D01*
X136487763Y-95207365D01*
X136788644Y-95505929D01*
X137115995Y-95773255D01*
X137468029Y-96007893D01*
X137842960Y-96208393D01*
X138238998Y-96373303D01*
X138654357Y-96501174D01*
X138682345Y-96508260D01*
X139101590Y-96594033D01*
X139531916Y-96645829D01*
X139966973Y-96663875D01*
X140400417Y-96648397D01*
X140825899Y-96599619D01*
X141237072Y-96517769D01*
X141626167Y-96403564D01*
X142018204Y-96245725D01*
X142390877Y-96051052D01*
X142742567Y-95821145D01*
X143071654Y-95557603D01*
X143376520Y-95262026D01*
X143655547Y-94936014D01*
X143907115Y-94581167D01*
X144129605Y-94199085D01*
X144321400Y-93791368D01*
X144356753Y-93704833D01*
X144504624Y-93277242D01*
X144612464Y-92839978D01*
X144680668Y-92395929D01*
X144709630Y-91947988D01*
X144699745Y-91499045D01*
G37*
X144699745Y-91499045D02*
X144651407Y-91051991D01*
X144565011Y-90609715D01*
X144440952Y-90175110D01*
X144279624Y-89751065D01*
X144081422Y-89340470D01*
X143846741Y-88946218D01*
X143673191Y-88697889D01*
X143613344Y-88621538D01*
X143537802Y-88531529D01*
X143451093Y-88432615D01*
X143357742Y-88329548D01*
X143262277Y-88227080D01*
X143169224Y-88129963D01*
X143083112Y-88042950D01*
X143008465Y-87970792D01*
X142949813Y-87918241D01*
X142911680Y-87890050D01*
X142900540Y-87886803D01*
X142879696Y-87904115D01*
X142835206Y-87947206D01*
X142772249Y-88010854D01*
X142696008Y-88089837D01*
X142630241Y-88159167D01*
X142531971Y-88263404D01*
X142415006Y-88387284D01*
X142289798Y-88519748D01*
X142166798Y-88649736D01*
X142075789Y-88745805D01*
X141770489Y-89067860D01*
X141968756Y-89285555D01*
X142189176Y-89540380D01*
X142377037Y-89786357D01*
X142538375Y-90032039D01*
X142679222Y-90285979D01*
X142691090Y-90309512D01*
X142834859Y-90640427D01*
X142942696Y-90983870D01*
X143014546Y-91335420D01*
X143050355Y-91690658D01*
X143050067Y-92045163D01*
X143013629Y-92394516D01*
X142940986Y-92734296D01*
X142832083Y-93060084D01*
X142727909Y-93289971D01*
X142565470Y-93567169D01*
X142368245Y-93832968D01*
X142142671Y-94080696D01*
X141895187Y-94303678D01*
X141632230Y-94495242D01*
X141473361Y-94590317D01*
X141175701Y-94730589D01*
X140857032Y-94836609D01*
X140521769Y-94907974D01*
X140174325Y-94944282D01*
X139819113Y-94945130D01*
X139460546Y-94910117D01*
X139103040Y-94838839D01*
X139012083Y-94814674D01*
X138863465Y-94764821D01*
X138694491Y-94694512D01*
X138517653Y-94610000D01*
X138345439Y-94517537D01*
X138190340Y-94423376D01*
X138089002Y-94352565D01*
X137832438Y-94131945D01*
X137604464Y-93881958D01*
X137406402Y-93605616D01*
X137239574Y-93305933D01*
X137105302Y-92985921D01*
X137004908Y-92648595D01*
X136939713Y-92296968D01*
X136911039Y-91934052D01*
X136913499Y-91672833D01*
X136941154Y-91345643D01*
X136994548Y-91036521D01*
X137075701Y-90740999D01*
X137186634Y-90454610D01*
X137329368Y-90172889D01*
X137505923Y-89891367D01*
X137718318Y-89605578D01*
X137968575Y-89311054D01*
X137994921Y-89281876D01*
X138062786Y-89205716D01*
X138118224Y-89140884D01*
X138156038Y-89093656D01*
X138171026Y-89070308D01*
X138171000Y-89069286D01*
X138155031Y-89052318D01*
X138111888Y-89009233D01*
X138044894Y-88943278D01*
X137957371Y-88857699D01*
X137852641Y-88755744D01*
X137734025Y-88640657D01*
X137604846Y-88515686D01*
X137574992Y-88486853D01*
X136984567Y-87916802D01*
X136836822Y-88074526D01*
X136526314Y-88422657D01*
X136254816Y-88763831D01*
X136020465Y-89102114D01*
X135821399Y-89441572D01*
X135655755Y-89786273D01*
X135521670Y-90140284D01*
X135417281Y-90507669D01*
X135340726Y-90892497D01*
X135290141Y-91298833D01*
X135275836Y-91482333D01*
X135266978Y-91627499D01*
X135261538Y-91746879D01*
X135259532Y-91853457D01*
X135260976Y-91960214D01*
X135265884Y-92080134D01*
X135274272Y-92226200D01*
X135276758Y-92265850D01*
X135323334Y-92716722D01*
X135405181Y-93146751D01*
X135523358Y-93560033D01*
X135678925Y-93960660D01*
X135761826Y-94138750D01*
X135972567Y-94522325D01*
X136215142Y-94879014D01*
X136487763Y-95207365D01*
X136788644Y-95505929D01*
X137115995Y-95773255D01*
X137468029Y-96007893D01*
X137842960Y-96208393D01*
X138238998Y-96373303D01*
X138654357Y-96501174D01*
X138682345Y-96508260D01*
X139101590Y-96594033D01*
X139531916Y-96645829D01*
X139966973Y-96663875D01*
X140400417Y-96648397D01*
X140825899Y-96599619D01*
X141237072Y-96517769D01*
X141626167Y-96403564D01*
X142018204Y-96245725D01*
X142390877Y-96051052D01*
X142742567Y-95821145D01*
X143071654Y-95557603D01*
X143376520Y-95262026D01*
X143655547Y-94936014D01*
X143907115Y-94581167D01*
X144129605Y-94199085D01*
X144321400Y-93791368D01*
X144356753Y-93704833D01*
X144504624Y-93277242D01*
X144612464Y-92839978D01*
X144680668Y-92395929D01*
X144709630Y-91947988D01*
X144699745Y-91499045D01*
G36*
X144827625Y-71419150D02*
G01*
X144777799Y-71407904D01*
X144691305Y-71387897D01*
X144570843Y-71359770D01*
X144419110Y-71324165D01*
X144238806Y-71281724D01*
X144032628Y-71233088D01*
X143803274Y-71178899D01*
X143553443Y-71119799D01*
X143285834Y-71056429D01*
X143003144Y-70989432D01*
X142708072Y-70919447D01*
X142403317Y-70847119D01*
X142091576Y-70773087D01*
X141775548Y-70697994D01*
X141457932Y-70622481D01*
X141141425Y-70547191D01*
X140828726Y-70472764D01*
X140522534Y-70399843D01*
X140225546Y-70329069D01*
X139940461Y-70261083D01*
X139669977Y-70196528D01*
X139416793Y-70136045D01*
X139183607Y-70080276D01*
X138973117Y-70029862D01*
X138788022Y-69985446D01*
X138631020Y-69947668D01*
X138504809Y-69917171D01*
X138412088Y-69894596D01*
X138355554Y-69880585D01*
X138337951Y-69875880D01*
X138352535Y-69868968D01*
X138408250Y-69853480D01*
X138504786Y-69829485D01*
X138641835Y-69797052D01*
X138819085Y-69756250D01*
X139036228Y-69707149D01*
X139292953Y-69649818D01*
X139588952Y-69584327D01*
X139923914Y-69510744D01*
X140297529Y-69429139D01*
X140709488Y-69339582D01*
X141159480Y-69242141D01*
X141470618Y-69174956D01*
X141832152Y-69096962D01*
X142183907Y-69021066D01*
X142523508Y-68947781D01*
X142848582Y-68877618D01*
X143156755Y-68811092D01*
X143445654Y-68748715D01*
X143712904Y-68691000D01*
X143956132Y-68638458D01*
X144172964Y-68591604D01*
X144361027Y-68550949D01*
X144517946Y-68517007D01*
X144641349Y-68490289D01*
X144728861Y-68471310D01*
X144778109Y-68460581D01*
X144785292Y-68458998D01*
X144928167Y-68427240D01*
X144928167Y-67180704D01*
X144927905Y-66955311D01*
X144927151Y-66742988D01*
X144925952Y-66547431D01*
X144924355Y-66372337D01*
X144922406Y-66221404D01*
X144920154Y-66098327D01*
X144917645Y-66006805D01*
X144914926Y-65950533D01*
X144912292Y-65933076D01*
X144890612Y-65938091D01*
X144829672Y-65953036D01*
X144731252Y-65977463D01*
X144597133Y-66010924D01*
X144429096Y-66052972D01*
X144228921Y-66103158D01*
X143998389Y-66161034D01*
X143739281Y-66226152D01*
X143453378Y-66298063D01*
X143142460Y-66376321D01*
X142808309Y-66460476D01*
X142452705Y-66550081D01*
X142077428Y-66644688D01*
X141684261Y-66743848D01*
X141274982Y-66847114D01*
X140851374Y-66954037D01*
X140415216Y-67064170D01*
X139970054Y-67176618D01*
X135043691Y-68421250D01*
X135043710Y-69786500D01*
X135043730Y-71151750D01*
X138102890Y-71944225D01*
X138453048Y-72035070D01*
X138791531Y-72123151D01*
X139116117Y-72207879D01*
X139424588Y-72288664D01*
X139714724Y-72364916D01*
X139984304Y-72436044D01*
X140231109Y-72501457D01*
X140452920Y-72560567D01*
X140647516Y-72612783D01*
X140812678Y-72657514D01*
X140946186Y-72694170D01*
X141045821Y-72722162D01*
X141109361Y-72740899D01*
X141134589Y-72749790D01*
X141134817Y-72750349D01*
X141111478Y-72756984D01*
X141049361Y-72773312D01*
X140950755Y-72798754D01*
X140817948Y-72832731D01*
X140653232Y-72874663D01*
X140458894Y-72923972D01*
X140237226Y-72980079D01*
X139990515Y-73042406D01*
X139721053Y-73110372D01*
X139431128Y-73183400D01*
X139123030Y-73260911D01*
X138799048Y-73342326D01*
X138461473Y-73427065D01*
X138112593Y-73514550D01*
X138075458Y-73523857D01*
X135043333Y-74283716D01*
X135043419Y-75649316D01*
X135043505Y-77014917D01*
X139980544Y-78264086D01*
X144917583Y-79513256D01*
X144923040Y-78234265D01*
X144923900Y-78005670D01*
X144924489Y-77789929D01*
X144924810Y-77590717D01*
X144924869Y-77411704D01*
X144924671Y-77256565D01*
X144924220Y-77128972D01*
X144923522Y-77032597D01*
X144922580Y-76971113D01*
X144921400Y-76948192D01*
X144921366Y-76948144D01*
X144900191Y-76943161D01*
X144839771Y-76930140D01*
X144742328Y-76909540D01*
X144610089Y-76881823D01*
X144445278Y-76847449D01*
X144250120Y-76806879D01*
X144026839Y-76760574D01*
X143777661Y-76708995D01*
X143504811Y-76652601D01*
X143210512Y-76591854D01*
X142896991Y-76527215D01*
X142566471Y-76459144D01*
X142221178Y-76388103D01*
X141863337Y-76314551D01*
X141666826Y-76274189D01*
X141302323Y-76199328D01*
X140948657Y-76126667D01*
X140608095Y-76056672D01*
X140282904Y-75989811D01*
X139975350Y-75926550D01*
X139687700Y-75867356D01*
X139422221Y-75812695D01*
X139181178Y-75763036D01*
X138966839Y-75718844D01*
X138781470Y-75680587D01*
X138627338Y-75648732D01*
X138506710Y-75623745D01*
X138421851Y-75606093D01*
X138375030Y-75596243D01*
X138366500Y-75594368D01*
X138330689Y-75583648D01*
X138333514Y-75573545D01*
X138355917Y-75562907D01*
X138380892Y-75555781D01*
X138444706Y-75538973D01*
X138545124Y-75513047D01*
X138679910Y-75478569D01*
X138846830Y-75436102D01*
X139043646Y-75386211D01*
X139268124Y-75329459D01*
X139518029Y-75266411D01*
X139791124Y-75197632D01*
X140085175Y-75123685D01*
X140397946Y-75045135D01*
X140727201Y-74962546D01*
X141070705Y-74876483D01*
X141426222Y-74787509D01*
X141615583Y-74740157D01*
X141976557Y-74649910D01*
X142326744Y-74562340D01*
X142663904Y-74478011D01*
X142985797Y-74397481D01*
X143290183Y-74321313D01*
X143574822Y-74250068D01*
X143837474Y-74184305D01*
X144075899Y-74124588D01*
X144287857Y-74071475D01*
X144471108Y-74025529D01*
X144623412Y-73987311D01*
X144742529Y-73957380D01*
X144826219Y-73936300D01*
X144872243Y-73924629D01*
X144880542Y-73922467D01*
X144928167Y-73909063D01*
X144928167Y-71441008D01*
X144827625Y-71419150D01*
G37*
X144827625Y-71419150D02*
X144777799Y-71407904D01*
X144691305Y-71387897D01*
X144570843Y-71359770D01*
X144419110Y-71324165D01*
X144238806Y-71281724D01*
X144032628Y-71233088D01*
X143803274Y-71178899D01*
X143553443Y-71119799D01*
X143285834Y-71056429D01*
X143003144Y-70989432D01*
X142708072Y-70919447D01*
X142403317Y-70847119D01*
X142091576Y-70773087D01*
X141775548Y-70697994D01*
X141457932Y-70622481D01*
X141141425Y-70547191D01*
X140828726Y-70472764D01*
X140522534Y-70399843D01*
X140225546Y-70329069D01*
X139940461Y-70261083D01*
X139669977Y-70196528D01*
X139416793Y-70136045D01*
X139183607Y-70080276D01*
X138973117Y-70029862D01*
X138788022Y-69985446D01*
X138631020Y-69947668D01*
X138504809Y-69917171D01*
X138412088Y-69894596D01*
X138355554Y-69880585D01*
X138337951Y-69875880D01*
X138352535Y-69868968D01*
X138408250Y-69853480D01*
X138504786Y-69829485D01*
X138641835Y-69797052D01*
X138819085Y-69756250D01*
X139036228Y-69707149D01*
X139292953Y-69649818D01*
X139588952Y-69584327D01*
X139923914Y-69510744D01*
X140297529Y-69429139D01*
X140709488Y-69339582D01*
X141159480Y-69242141D01*
X141470618Y-69174956D01*
X141832152Y-69096962D01*
X142183907Y-69021066D01*
X142523508Y-68947781D01*
X142848582Y-68877618D01*
X143156755Y-68811092D01*
X143445654Y-68748715D01*
X143712904Y-68691000D01*
X143956132Y-68638458D01*
X144172964Y-68591604D01*
X144361027Y-68550949D01*
X144517946Y-68517007D01*
X144641349Y-68490289D01*
X144728861Y-68471310D01*
X144778109Y-68460581D01*
X144785292Y-68458998D01*
X144928167Y-68427240D01*
X144928167Y-67180704D01*
X144927905Y-66955311D01*
X144927151Y-66742988D01*
X144925952Y-66547431D01*
X144924355Y-66372337D01*
X144922406Y-66221404D01*
X144920154Y-66098327D01*
X144917645Y-66006805D01*
X144914926Y-65950533D01*
X144912292Y-65933076D01*
X144890612Y-65938091D01*
X144829672Y-65953036D01*
X144731252Y-65977463D01*
X144597133Y-66010924D01*
X144429096Y-66052972D01*
X144228921Y-66103158D01*
X143998389Y-66161034D01*
X143739281Y-66226152D01*
X143453378Y-66298063D01*
X143142460Y-66376321D01*
X142808309Y-66460476D01*
X142452705Y-66550081D01*
X142077428Y-66644688D01*
X141684261Y-66743848D01*
X141274982Y-66847114D01*
X140851374Y-66954037D01*
X140415216Y-67064170D01*
X139970054Y-67176618D01*
X135043691Y-68421250D01*
X135043710Y-69786500D01*
X135043730Y-71151750D01*
X138102890Y-71944225D01*
X138453048Y-72035070D01*
X138791531Y-72123151D01*
X139116117Y-72207879D01*
X139424588Y-72288664D01*
X139714724Y-72364916D01*
X139984304Y-72436044D01*
X140231109Y-72501457D01*
X140452920Y-72560567D01*
X140647516Y-72612783D01*
X140812678Y-72657514D01*
X140946186Y-72694170D01*
X141045821Y-72722162D01*
X141109361Y-72740899D01*
X141134589Y-72749790D01*
X141134817Y-72750349D01*
X141111478Y-72756984D01*
X141049361Y-72773312D01*
X140950755Y-72798754D01*
X140817948Y-72832731D01*
X140653232Y-72874663D01*
X140458894Y-72923972D01*
X140237226Y-72980079D01*
X139990515Y-73042406D01*
X139721053Y-73110372D01*
X139431128Y-73183400D01*
X139123030Y-73260911D01*
X138799048Y-73342326D01*
X138461473Y-73427065D01*
X138112593Y-73514550D01*
X138075458Y-73523857D01*
X135043333Y-74283716D01*
X135043419Y-75649316D01*
X135043505Y-77014917D01*
X139980544Y-78264086D01*
X144917583Y-79513256D01*
X144923040Y-78234265D01*
X144923900Y-78005670D01*
X144924489Y-77789929D01*
X144924810Y-77590717D01*
X144924869Y-77411704D01*
X144924671Y-77256565D01*
X144924220Y-77128972D01*
X144923522Y-77032597D01*
X144922580Y-76971113D01*
X144921400Y-76948192D01*
X144921366Y-76948144D01*
X144900191Y-76943161D01*
X144839771Y-76930140D01*
X144742328Y-76909540D01*
X144610089Y-76881823D01*
X144445278Y-76847449D01*
X144250120Y-76806879D01*
X144026839Y-76760574D01*
X143777661Y-76708995D01*
X143504811Y-76652601D01*
X143210512Y-76591854D01*
X142896991Y-76527215D01*
X142566471Y-76459144D01*
X142221178Y-76388103D01*
X141863337Y-76314551D01*
X141666826Y-76274189D01*
X141302323Y-76199328D01*
X140948657Y-76126667D01*
X140608095Y-76056672D01*
X140282904Y-75989811D01*
X139975350Y-75926550D01*
X139687700Y-75867356D01*
X139422221Y-75812695D01*
X139181178Y-75763036D01*
X138966839Y-75718844D01*
X138781470Y-75680587D01*
X138627338Y-75648732D01*
X138506710Y-75623745D01*
X138421851Y-75606093D01*
X138375030Y-75596243D01*
X138366500Y-75594368D01*
X138330689Y-75583648D01*
X138333514Y-75573545D01*
X138355917Y-75562907D01*
X138380892Y-75555781D01*
X138444706Y-75538973D01*
X138545124Y-75513047D01*
X138679910Y-75478569D01*
X138846830Y-75436102D01*
X139043646Y-75386211D01*
X139268124Y-75329459D01*
X139518029Y-75266411D01*
X139791124Y-75197632D01*
X140085175Y-75123685D01*
X140397946Y-75045135D01*
X140727201Y-74962546D01*
X141070705Y-74876483D01*
X141426222Y-74787509D01*
X141615583Y-74740157D01*
X141976557Y-74649910D01*
X142326744Y-74562340D01*
X142663904Y-74478011D01*
X142985797Y-74397481D01*
X143290183Y-74321313D01*
X143574822Y-74250068D01*
X143837474Y-74184305D01*
X144075899Y-74124588D01*
X144287857Y-74071475D01*
X144471108Y-74025529D01*
X144623412Y-73987311D01*
X144742529Y-73957380D01*
X144826219Y-73936300D01*
X144872243Y-73924629D01*
X144880542Y-73922467D01*
X144928167Y-73909063D01*
X144928167Y-71441008D01*
X144827625Y-71419150D01*
G36*
X144773855Y-102250875D02*
G01*
X144772246Y-101870949D01*
X144770612Y-101530589D01*
X144768868Y-101227029D01*
X144766932Y-100957504D01*
X144764721Y-100719245D01*
X144762150Y-100509487D01*
X144759137Y-100325463D01*
X144755597Y-100164407D01*
X144751449Y-100023552D01*
X144746608Y-99900131D01*
X144740990Y-99791378D01*
X144734513Y-99694527D01*
X144727093Y-99606811D01*
X144718647Y-99525463D01*
X144709091Y-99447717D01*
X144698342Y-99370807D01*
X144686316Y-99291965D01*
X144684262Y-99278949D01*
X144613527Y-98964254D01*
X144504714Y-98664760D01*
X144360212Y-98383238D01*
X144182408Y-98122456D01*
X143973690Y-97885183D01*
X143736449Y-97674189D01*
X143473070Y-97492242D01*
X143185944Y-97342112D01*
X142927842Y-97242515D01*
X142764563Y-97191666D01*
X142617107Y-97152429D01*
X142475750Y-97123445D01*
X142330766Y-97103357D01*
X142172432Y-97090805D01*
X141991021Y-97084431D01*
X141784917Y-97082865D01*
X141580230Y-97084806D01*
X141408073Y-97090864D01*
X141258746Y-97102210D01*
X141122549Y-97120010D01*
X140989781Y-97145434D01*
X140850742Y-97179651D01*
X140751831Y-97207328D01*
X140458541Y-97313000D01*
X140175751Y-97455262D01*
X139909409Y-97629799D01*
X139665463Y-97832295D01*
X139449858Y-98058435D01*
X139293923Y-98265122D01*
X139174188Y-98454877D01*
X139073935Y-98639900D01*
X138990806Y-98827441D01*
X138922441Y-99024749D01*
X138866480Y-99239073D01*
X138820564Y-99477663D01*
X138782335Y-99747769D01*
X138766583Y-99885500D01*
X138761863Y-99949387D01*
X138757105Y-100051110D01*
X138752415Y-100186174D01*
X138747900Y-100350083D01*
X138743664Y-100538341D01*
X138739812Y-100746451D01*
X138736452Y-100969917D01*
X138733687Y-101204244D01*
X138732421Y-101340708D01*
X138722120Y-102573667D01*
X135043333Y-102573667D01*
X135043333Y-104542167D01*
X140356167Y-104542167D01*
X140356167Y-102573667D01*
X140356811Y-102113292D01*
X140357860Y-101952418D01*
X140360428Y-101763125D01*
X140364246Y-101559290D01*
X140369041Y-101354789D01*
X140374541Y-101163499D01*
X140376571Y-101102583D01*
X140388835Y-100819964D01*
X140405418Y-100575180D01*
X140427581Y-100363844D01*
X140456586Y-100181569D01*
X140493697Y-100023967D01*
X140540174Y-99886652D01*
X140597279Y-99765235D01*
X140666276Y-99655330D01*
X140748425Y-99552549D01*
X140844989Y-99452505D01*
X140853583Y-99444289D01*
X141018998Y-99308190D01*
X141193536Y-99208151D01*
X141383459Y-99141799D01*
X141595028Y-99106764D01*
X141763750Y-99099598D01*
X141985200Y-99111174D01*
X142178299Y-99147958D01*
X142350785Y-99213030D01*
X142510401Y-99309474D01*
X142664884Y-99440371D01*
X142695552Y-99470660D01*
X142796962Y-99579769D01*
X142872635Y-99678447D01*
X142932195Y-99779541D01*
X142942850Y-99800833D01*
X142979561Y-99879730D01*
X143011194Y-99957599D01*
X143038178Y-100038293D01*
X143060942Y-100125665D01*
X143079915Y-100223565D01*
X143095525Y-100335847D01*
X143108201Y-100466363D01*
X143118371Y-100618964D01*
X143126465Y-100797504D01*
X143132910Y-101005833D01*
X143138135Y-101247805D01*
X143142569Y-101527272D01*
X143143629Y-101605292D01*
X143156437Y-102573667D01*
X140356167Y-102573667D01*
X140356167Y-104542167D01*
X144783144Y-104542167D01*
X144773855Y-102250875D01*
G37*
X144773855Y-102250875D02*
X144772246Y-101870949D01*
X144770612Y-101530589D01*
X144768868Y-101227029D01*
X144766932Y-100957504D01*
X144764721Y-100719245D01*
X144762150Y-100509487D01*
X144759137Y-100325463D01*
X144755597Y-100164407D01*
X144751449Y-100023552D01*
X144746608Y-99900131D01*
X144740990Y-99791378D01*
X144734513Y-99694527D01*
X144727093Y-99606811D01*
X144718647Y-99525463D01*
X144709091Y-99447717D01*
X144698342Y-99370807D01*
X144686316Y-99291965D01*
X144684262Y-99278949D01*
X144613527Y-98964254D01*
X144504714Y-98664760D01*
X144360212Y-98383238D01*
X144182408Y-98122456D01*
X143973690Y-97885183D01*
X143736449Y-97674189D01*
X143473070Y-97492242D01*
X143185944Y-97342112D01*
X142927842Y-97242515D01*
X142764563Y-97191666D01*
X142617107Y-97152429D01*
X142475750Y-97123445D01*
X142330766Y-97103357D01*
X142172432Y-97090805D01*
X141991021Y-97084431D01*
X141784917Y-97082865D01*
X141580230Y-97084806D01*
X141408073Y-97090864D01*
X141258746Y-97102210D01*
X141122549Y-97120010D01*
X140989781Y-97145434D01*
X140850742Y-97179651D01*
X140751831Y-97207328D01*
X140458541Y-97313000D01*
X140175751Y-97455262D01*
X139909409Y-97629799D01*
X139665463Y-97832295D01*
X139449858Y-98058435D01*
X139293923Y-98265122D01*
X139174188Y-98454877D01*
X139073935Y-98639900D01*
X138990806Y-98827441D01*
X138922441Y-99024749D01*
X138866480Y-99239073D01*
X138820564Y-99477663D01*
X138782335Y-99747769D01*
X138766583Y-99885500D01*
X138761863Y-99949387D01*
X138757105Y-100051110D01*
X138752415Y-100186174D01*
X138747900Y-100350083D01*
X138743664Y-100538341D01*
X138739812Y-100746451D01*
X138736452Y-100969917D01*
X138733687Y-101204244D01*
X138732421Y-101340708D01*
X138722120Y-102573667D01*
X135043333Y-102573667D01*
X135043333Y-104542167D01*
X140356167Y-104542167D01*
X140356167Y-102573667D01*
X140356811Y-102113292D01*
X140357860Y-101952418D01*
X140360428Y-101763125D01*
X140364246Y-101559290D01*
X140369041Y-101354789D01*
X140374541Y-101163499D01*
X140376571Y-101102583D01*
X140388835Y-100819964D01*
X140405418Y-100575180D01*
X140427581Y-100363844D01*
X140456586Y-100181569D01*
X140493697Y-100023967D01*
X140540174Y-99886652D01*
X140597279Y-99765235D01*
X140666276Y-99655330D01*
X140748425Y-99552549D01*
X140844989Y-99452505D01*
X140853583Y-99444289D01*
X141018998Y-99308190D01*
X141193536Y-99208151D01*
X141383459Y-99141799D01*
X141595028Y-99106764D01*
X141763750Y-99099598D01*
X141985200Y-99111174D01*
X142178299Y-99147958D01*
X142350785Y-99213030D01*
X142510401Y-99309474D01*
X142664884Y-99440371D01*
X142695552Y-99470660D01*
X142796962Y-99579769D01*
X142872635Y-99678447D01*
X142932195Y-99779541D01*
X142942850Y-99800833D01*
X142979561Y-99879730D01*
X143011194Y-99957599D01*
X143038178Y-100038293D01*
X143060942Y-100125665D01*
X143079915Y-100223565D01*
X143095525Y-100335847D01*
X143108201Y-100466363D01*
X143118371Y-100618964D01*
X143126465Y-100797504D01*
X143132910Y-101005833D01*
X143138135Y-101247805D01*
X143142569Y-101527272D01*
X143143629Y-101605292D01*
X143156437Y-102573667D01*
X140356167Y-102573667D01*
X140356167Y-104542167D01*
X144783144Y-104542167D01*
X144773855Y-102250875D01*
G36*
X144901015Y-85063542D02*
G01*
X144899606Y-84689291D01*
X144898196Y-84354828D01*
X144896741Y-84057609D01*
X144895201Y-83795088D01*
X144893532Y-83564720D01*
X144891691Y-83363960D01*
X144889635Y-83190263D01*
X144887323Y-83041084D01*
X144884711Y-82913877D01*
X144881757Y-82806099D01*
X144878419Y-82715204D01*
X144874652Y-82638646D01*
X144870416Y-82573881D01*
X144865667Y-82518363D01*
X144860363Y-82469548D01*
X144857130Y-82444167D01*
X144792018Y-82068739D01*
X144701632Y-81726175D01*
X144586140Y-81416743D01*
X144445707Y-81140712D01*
X144280503Y-80898351D01*
X144090693Y-80689928D01*
X143876445Y-80515712D01*
X143637927Y-80375972D01*
X143543615Y-80333085D01*
X143401854Y-80276813D01*
X143272533Y-80234637D01*
X143145258Y-80204719D01*
X143009629Y-80185219D01*
X142855250Y-80174299D01*
X142671723Y-80170120D01*
X142621000Y-80169914D01*
X142427315Y-80172371D01*
X142264696Y-80181581D01*
X142122151Y-80199476D01*
X141988690Y-80227992D01*
X141853319Y-80269061D01*
X141705048Y-80324616D01*
X141676951Y-80335973D01*
X141432633Y-80456553D01*
X141200820Y-80611774D01*
X140987669Y-80795817D01*
X140799336Y-81002862D01*
X140641979Y-81227089D01*
X140547973Y-81403077D01*
X140512166Y-81470767D01*
X140481997Y-81502626D01*
X140454913Y-81497288D01*
X140428362Y-81453387D01*
X140399792Y-81369558D01*
X140384896Y-81315803D01*
X140278405Y-80988879D01*
X140139424Y-80687231D01*
X139968769Y-80412309D01*
X139767254Y-80165560D01*
X139696896Y-80093291D01*
X139517709Y-79943993D01*
X139316090Y-79827818D01*
X139089243Y-79743434D01*
X138853333Y-79692347D01*
X138794442Y-79686262D01*
X138699410Y-79680095D01*
X138574430Y-79674087D01*
X138425692Y-79668478D01*
X138259388Y-79663508D01*
X138081710Y-79659417D01*
X137943167Y-79657047D01*
X137704311Y-79654121D01*
X137502491Y-79653542D01*
X137332427Y-79656371D01*
X137188841Y-79663664D01*
X137066455Y-79676480D01*
X136959989Y-79695878D01*
X136864166Y-79722916D01*
X136773706Y-79758653D01*
X136683331Y-79804146D01*
X136587762Y-79860454D01*
X136481722Y-79928636D01*
X136435349Y-79959365D01*
X136183683Y-80151553D01*
X135951256Y-80378717D01*
X135740472Y-80636991D01*
X135553731Y-80922511D01*
X135393439Y-81231411D01*
X135261998Y-81559825D01*
X135161810Y-81903888D01*
X135127490Y-82063167D01*
X135113690Y-82135159D01*
X135101352Y-82201413D01*
X135090386Y-82264608D01*
X135080702Y-82327425D01*
X135072209Y-82392543D01*
X135064819Y-82462644D01*
X135058440Y-82540407D01*
X135052982Y-82628512D01*
X135048356Y-82729641D01*
X135044472Y-82846472D01*
X135041239Y-82981687D01*
X135038568Y-83137966D01*
X135036368Y-83317988D01*
X135034550Y-83524434D01*
X135033022Y-83759985D01*
X135031697Y-84027320D01*
X135030482Y-84329120D01*
X135029288Y-84668065D01*
X135028111Y-85021208D01*
X135020157Y-87418333D01*
X136821333Y-87418333D01*
X136821333Y-84941833D01*
X136821814Y-84312125D01*
X136822640Y-84137482D01*
X136824727Y-83962810D01*
X136827884Y-83796502D01*
X136831917Y-83646953D01*
X136836634Y-83522555D01*
X136841841Y-83431704D01*
X136842094Y-83428417D01*
X136875658Y-83168712D01*
X136933353Y-82929338D01*
X137013473Y-82714342D01*
X137114314Y-82527773D01*
X137234171Y-82373680D01*
X137319549Y-82294395D01*
X137472351Y-82196152D01*
X137651779Y-82122284D01*
X137849339Y-82073525D01*
X138056537Y-82050612D01*
X138264881Y-82054282D01*
X138465876Y-82085269D01*
X138651028Y-82144311D01*
X138714068Y-82173541D01*
X138840083Y-82258452D01*
X138959800Y-82378184D01*
X139067958Y-82525238D01*
X139159296Y-82692116D01*
X139228554Y-82871318D01*
X139245441Y-82931000D01*
X139265634Y-83036794D01*
X139282607Y-83184136D01*
X139296325Y-83372359D01*
X139306753Y-83600799D01*
X139313858Y-83868789D01*
X139317604Y-84175663D01*
X139318195Y-84333292D01*
X139319000Y-84941833D01*
X136821333Y-84941833D01*
X136821333Y-87418333D01*
X140985960Y-87418333D01*
X140985960Y-84941833D01*
X141001541Y-84290958D01*
X141006650Y-84094716D01*
X141011859Y-83935347D01*
X141017544Y-83807391D01*
X141024080Y-83705389D01*
X141031843Y-83623880D01*
X141041208Y-83557406D01*
X141052550Y-83500507D01*
X141057185Y-83481333D01*
X141121297Y-83284648D01*
X141207036Y-83111591D01*
X141311178Y-82966840D01*
X141430499Y-82855076D01*
X141530364Y-82794595D01*
X141727400Y-82722456D01*
X141936640Y-82683903D01*
X142149243Y-82678937D01*
X142356369Y-82707557D01*
X142549179Y-82769764D01*
X142602099Y-82794565D01*
X142746907Y-82886099D01*
X142863996Y-83001738D01*
X142956702Y-83145936D01*
X143028364Y-83323147D01*
X143048008Y-83389798D01*
X143060627Y-83439475D01*
X143070828Y-83489666D01*
X143078955Y-83545788D01*
X143085352Y-83613259D01*
X143090364Y-83697495D01*
X143094334Y-83803914D01*
X143097608Y-83937934D01*
X143100529Y-84104971D01*
X143102606Y-84248625D01*
X143112123Y-84941833D01*
X140985960Y-84941833D01*
X140985960Y-87418333D01*
X144909498Y-87418333D01*
X144901015Y-85063542D01*
G37*
X144901015Y-85063542D02*
X144899606Y-84689291D01*
X144898196Y-84354828D01*
X144896741Y-84057609D01*
X144895201Y-83795088D01*
X144893532Y-83564720D01*
X144891691Y-83363960D01*
X144889635Y-83190263D01*
X144887323Y-83041084D01*
X144884711Y-82913877D01*
X144881757Y-82806099D01*
X144878419Y-82715204D01*
X144874652Y-82638646D01*
X144870416Y-82573881D01*
X144865667Y-82518363D01*
X144860363Y-82469548D01*
X144857130Y-82444167D01*
X144792018Y-82068739D01*
X144701632Y-81726175D01*
X144586140Y-81416743D01*
X144445707Y-81140712D01*
X144280503Y-80898351D01*
X144090693Y-80689928D01*
X143876445Y-80515712D01*
X143637927Y-80375972D01*
X143543615Y-80333085D01*
X143401854Y-80276813D01*
X143272533Y-80234637D01*
X143145258Y-80204719D01*
X143009629Y-80185219D01*
X142855250Y-80174299D01*
X142671723Y-80170120D01*
X142621000Y-80169914D01*
X142427315Y-80172371D01*
X142264696Y-80181581D01*
X142122151Y-80199476D01*
X141988690Y-80227992D01*
X141853319Y-80269061D01*
X141705048Y-80324616D01*
X141676951Y-80335973D01*
X141432633Y-80456553D01*
X141200820Y-80611774D01*
X140987669Y-80795817D01*
X140799336Y-81002862D01*
X140641979Y-81227089D01*
X140547973Y-81403077D01*
X140512166Y-81470767D01*
X140481997Y-81502626D01*
X140454913Y-81497288D01*
X140428362Y-81453387D01*
X140399792Y-81369558D01*
X140384896Y-81315803D01*
X140278405Y-80988879D01*
X140139424Y-80687231D01*
X139968769Y-80412309D01*
X139767254Y-80165560D01*
X139696896Y-80093291D01*
X139517709Y-79943993D01*
X139316090Y-79827818D01*
X139089243Y-79743434D01*
X138853333Y-79692347D01*
X138794442Y-79686262D01*
X138699410Y-79680095D01*
X138574430Y-79674087D01*
X138425692Y-79668478D01*
X138259388Y-79663508D01*
X138081710Y-79659417D01*
X137943167Y-79657047D01*
X137704311Y-79654121D01*
X137502491Y-79653542D01*
X137332427Y-79656371D01*
X137188841Y-79663664D01*
X137066455Y-79676480D01*
X136959989Y-79695878D01*
X136864166Y-79722916D01*
X136773706Y-79758653D01*
X136683331Y-79804146D01*
X136587762Y-79860454D01*
X136481722Y-79928636D01*
X136435349Y-79959365D01*
X136183683Y-80151553D01*
X135951256Y-80378717D01*
X135740472Y-80636991D01*
X135553731Y-80922511D01*
X135393439Y-81231411D01*
X135261998Y-81559825D01*
X135161810Y-81903888D01*
X135127490Y-82063167D01*
X135113690Y-82135159D01*
X135101352Y-82201413D01*
X135090386Y-82264608D01*
X135080702Y-82327425D01*
X135072209Y-82392543D01*
X135064819Y-82462644D01*
X135058440Y-82540407D01*
X135052982Y-82628512D01*
X135048356Y-82729641D01*
X135044472Y-82846472D01*
X135041239Y-82981687D01*
X135038568Y-83137966D01*
X135036368Y-83317988D01*
X135034550Y-83524434D01*
X135033022Y-83759985D01*
X135031697Y-84027320D01*
X135030482Y-84329120D01*
X135029288Y-84668065D01*
X135028111Y-85021208D01*
X135020157Y-87418333D01*
X136821333Y-87418333D01*
X136821333Y-84941833D01*
X136821814Y-84312125D01*
X136822640Y-84137482D01*
X136824727Y-83962810D01*
X136827884Y-83796502D01*
X136831917Y-83646953D01*
X136836634Y-83522555D01*
X136841841Y-83431704D01*
X136842094Y-83428417D01*
X136875658Y-83168712D01*
X136933353Y-82929338D01*
X137013473Y-82714342D01*
X137114314Y-82527773D01*
X137234171Y-82373680D01*
X137319549Y-82294395D01*
X137472351Y-82196152D01*
X137651779Y-82122284D01*
X137849339Y-82073525D01*
X138056537Y-82050612D01*
X138264881Y-82054282D01*
X138465876Y-82085269D01*
X138651028Y-82144311D01*
X138714068Y-82173541D01*
X138840083Y-82258452D01*
X138959800Y-82378184D01*
X139067958Y-82525238D01*
X139159296Y-82692116D01*
X139228554Y-82871318D01*
X139245441Y-82931000D01*
X139265634Y-83036794D01*
X139282607Y-83184136D01*
X139296325Y-83372359D01*
X139306753Y-83600799D01*
X139313858Y-83868789D01*
X139317604Y-84175663D01*
X139318195Y-84333292D01*
X139319000Y-84941833D01*
X136821333Y-84941833D01*
X136821333Y-87418333D01*
X140985960Y-87418333D01*
X140985960Y-84941833D01*
X141001541Y-84290958D01*
X141006650Y-84094716D01*
X141011859Y-83935347D01*
X141017544Y-83807391D01*
X141024080Y-83705389D01*
X141031843Y-83623880D01*
X141041208Y-83557406D01*
X141052550Y-83500507D01*
X141057185Y-83481333D01*
X141121297Y-83284648D01*
X141207036Y-83111591D01*
X141311178Y-82966840D01*
X141430499Y-82855076D01*
X141530364Y-82794595D01*
X141727400Y-82722456D01*
X141936640Y-82683903D01*
X142149243Y-82678937D01*
X142356369Y-82707557D01*
X142549179Y-82769764D01*
X142602099Y-82794565D01*
X142746907Y-82886099D01*
X142863996Y-83001738D01*
X142956702Y-83145936D01*
X143028364Y-83323147D01*
X143048008Y-83389798D01*
X143060627Y-83439475D01*
X143070828Y-83489666D01*
X143078955Y-83545788D01*
X143085352Y-83613259D01*
X143090364Y-83697495D01*
X143094334Y-83803914D01*
X143097608Y-83937934D01*
X143100529Y-84104971D01*
X143102606Y-84248625D01*
X143112123Y-84941833D01*
X140985960Y-84941833D01*
X140985960Y-87418333D01*
X144909498Y-87418333D01*
X144901015Y-85063542D01*
G36*
X142704909Y-62730333D02*
G01*
X142694755Y-62488777D01*
X142683959Y-62341831D01*
X142635205Y-61925056D01*
X142567004Y-61544942D01*
X142478931Y-61200331D01*
X142370563Y-60890066D01*
X142241477Y-60612988D01*
X142091247Y-60367940D01*
X141919451Y-60153764D01*
X141860234Y-60091941D01*
X141677136Y-59928712D01*
X141479404Y-59792638D01*
X141260715Y-59680474D01*
X141014747Y-59588973D01*
X140737167Y-59515332D01*
X140707425Y-59508842D01*
X140677853Y-59503003D01*
X140646146Y-59497772D01*
X140609998Y-59493109D01*
X140567103Y-59488973D01*
X140515155Y-59485323D01*
X140451849Y-59482118D01*
X140374879Y-59479318D01*
X140281938Y-59476880D01*
X140170722Y-59474765D01*
X140038924Y-59472931D01*
X139884239Y-59471338D01*
X139704360Y-59469944D01*
X139496983Y-59468708D01*
X139259801Y-59467590D01*
X138990508Y-59466549D01*
X138686799Y-59465543D01*
X138346368Y-59464532D01*
X137966910Y-59463474D01*
X137789708Y-59462991D01*
X135043333Y-59455527D01*
X135043333Y-61763399D01*
X135436173Y-61769158D01*
X135829012Y-61774917D01*
X135623168Y-62018333D01*
X135491789Y-62178294D01*
X135384585Y-62320416D01*
X135294468Y-62455403D01*
X135214350Y-62593957D01*
X135137142Y-62746783D01*
X135127978Y-62766078D01*
X135029970Y-62989118D01*
X134956931Y-63192557D01*
X134905018Y-63387810D01*
X134885906Y-63485228D01*
X134869489Y-63605850D01*
X134856510Y-63753267D01*
X134847363Y-63915528D01*
X134842443Y-64080685D01*
X134842145Y-64236789D01*
X134846862Y-64371890D01*
X134853962Y-64452500D01*
X134911181Y-64761249D01*
X135003293Y-65046757D01*
X135131259Y-65311096D01*
X135296040Y-65556338D01*
X135447776Y-65732583D01*
X135624001Y-65902794D01*
X135803119Y-66042530D01*
X135999124Y-66162166D01*
X136091083Y-66209522D01*
X136270247Y-66290080D01*
X136442448Y-66350227D01*
X136619244Y-66392628D01*
X136812195Y-66419946D01*
X137032859Y-66434847D01*
X137075333Y-66436381D01*
X137341103Y-66437236D01*
X137341103Y-64095306D01*
X137133539Y-64080868D01*
X136956518Y-64038655D01*
X136808461Y-63967207D01*
X136687787Y-63865065D01*
X136592917Y-63730769D01*
X136522270Y-63562859D01*
X136474266Y-63359877D01*
X136463034Y-63284251D01*
X136444718Y-63059981D01*
X136451993Y-62857819D01*
X136470157Y-62734570D01*
X136533333Y-62492492D01*
X136628594Y-62264941D01*
X136759714Y-62043870D01*
X136855466Y-61913165D01*
X136971918Y-61764333D01*
X138535833Y-61764333D01*
X138535833Y-61825230D01*
X138532955Y-61887539D01*
X138524960Y-61983828D01*
X138512811Y-62106181D01*
X138497469Y-62246683D01*
X138479895Y-62397419D01*
X138461052Y-62550475D01*
X138441900Y-62697934D01*
X138423402Y-62831881D01*
X138406519Y-62944402D01*
X138392212Y-63027581D01*
X138386371Y-63055500D01*
X138334491Y-63259360D01*
X138281270Y-63427671D01*
X138223716Y-63567186D01*
X138158839Y-63684655D01*
X138083649Y-63786832D01*
X138041600Y-63833928D01*
X137927872Y-63938002D01*
X137807409Y-64013112D01*
X137672035Y-64062308D01*
X137513569Y-64088642D01*
X137341103Y-64095306D01*
X137341103Y-66437236D01*
X137364819Y-66437313D01*
X137622622Y-66419517D01*
X137855571Y-66381843D01*
X138070496Y-66323137D01*
X138274227Y-66242246D01*
X138301484Y-66229449D01*
X138543296Y-66092685D01*
X138763506Y-65923591D01*
X138962491Y-65721484D01*
X139140626Y-65485678D01*
X139298288Y-65215490D01*
X139435852Y-64910236D01*
X139553696Y-64569232D01*
X139652196Y-64191794D01*
X139731727Y-63777239D01*
X139762018Y-63574083D01*
X139791359Y-63345972D01*
X139821268Y-63088555D01*
X139850400Y-62814820D01*
X139877412Y-62537751D01*
X139900959Y-62270335D01*
X139913737Y-62108292D01*
X139939396Y-61764333D01*
X140068406Y-61764585D01*
X140265732Y-61784157D01*
X140444211Y-61841127D01*
X140601591Y-61934079D01*
X140735619Y-62061597D01*
X140844042Y-62222264D01*
X140866287Y-62266194D01*
X140929564Y-62427973D01*
X140982815Y-62622754D01*
X141025205Y-62842215D01*
X141055899Y-63078034D01*
X141074060Y-63321888D01*
X141078853Y-63565457D01*
X141069443Y-63800418D01*
X141044994Y-64018449D01*
X141043295Y-64029167D01*
X140993971Y-64283723D01*
X140925046Y-64562498D01*
X140839846Y-64854123D01*
X140741697Y-65147231D01*
X140633924Y-65430451D01*
X140632091Y-65434959D01*
X140584671Y-65562910D01*
X140555598Y-65667331D01*
X140546667Y-65736584D01*
X140546667Y-65828333D01*
X142344202Y-65828333D01*
X142366403Y-65745885D01*
X142395208Y-65630152D01*
X142428599Y-65481612D01*
X142464838Y-65309318D01*
X142502188Y-65122321D01*
X142538912Y-64929674D01*
X142573275Y-64740428D01*
X142603538Y-64563635D01*
X142627964Y-64408348D01*
X142640966Y-64314917D01*
X142665340Y-64087402D01*
X142684534Y-63831206D01*
X142698317Y-63556864D01*
X142706461Y-63274913D01*
X142708735Y-62995890D01*
X142704909Y-62730333D01*
G37*
X142704909Y-62730333D02*
X142694755Y-62488777D01*
X142683959Y-62341831D01*
X142635205Y-61925056D01*
X142567004Y-61544942D01*
X142478931Y-61200331D01*
X142370563Y-60890066D01*
X142241477Y-60612988D01*
X142091247Y-60367940D01*
X141919451Y-60153764D01*
X141860234Y-60091941D01*
X141677136Y-59928712D01*
X141479404Y-59792638D01*
X141260715Y-59680474D01*
X141014747Y-59588973D01*
X140737167Y-59515332D01*
X140707425Y-59508842D01*
X140677853Y-59503003D01*
X140646146Y-59497772D01*
X140609998Y-59493109D01*
X140567103Y-59488973D01*
X140515155Y-59485323D01*
X140451849Y-59482118D01*
X140374879Y-59479318D01*
X140281938Y-59476880D01*
X140170722Y-59474765D01*
X140038924Y-59472931D01*
X139884239Y-59471338D01*
X139704360Y-59469944D01*
X139496983Y-59468708D01*
X139259801Y-59467590D01*
X138990508Y-59466549D01*
X138686799Y-59465543D01*
X138346368Y-59464532D01*
X137966910Y-59463474D01*
X137789708Y-59462991D01*
X135043333Y-59455527D01*
X135043333Y-61763399D01*
X135436173Y-61769158D01*
X135829012Y-61774917D01*
X135623168Y-62018333D01*
X135491789Y-62178294D01*
X135384585Y-62320416D01*
X135294468Y-62455403D01*
X135214350Y-62593957D01*
X135137142Y-62746783D01*
X135127978Y-62766078D01*
X135029970Y-62989118D01*
X134956931Y-63192557D01*
X134905018Y-63387810D01*
X134885906Y-63485228D01*
X134869489Y-63605850D01*
X134856510Y-63753267D01*
X134847363Y-63915528D01*
X134842443Y-64080685D01*
X134842145Y-64236789D01*
X134846862Y-64371890D01*
X134853962Y-64452500D01*
X134911181Y-64761249D01*
X135003293Y-65046757D01*
X135131259Y-65311096D01*
X135296040Y-65556338D01*
X135447776Y-65732583D01*
X135624001Y-65902794D01*
X135803119Y-66042530D01*
X135999124Y-66162166D01*
X136091083Y-66209522D01*
X136270247Y-66290080D01*
X136442448Y-66350227D01*
X136619244Y-66392628D01*
X136812195Y-66419946D01*
X137032859Y-66434847D01*
X137075333Y-66436381D01*
X137341103Y-66437236D01*
X137341103Y-64095306D01*
X137133539Y-64080868D01*
X136956518Y-64038655D01*
X136808461Y-63967207D01*
X136687787Y-63865065D01*
X136592917Y-63730769D01*
X136522270Y-63562859D01*
X136474266Y-63359877D01*
X136463034Y-63284251D01*
X136444718Y-63059981D01*
X136451993Y-62857819D01*
X136470157Y-62734570D01*
X136533333Y-62492492D01*
X136628594Y-62264941D01*
X136759714Y-62043870D01*
X136855466Y-61913165D01*
X136971918Y-61764333D01*
X138535833Y-61764333D01*
X138535833Y-61825230D01*
X138532955Y-61887539D01*
X138524960Y-61983828D01*
X138512811Y-62106181D01*
X138497469Y-62246683D01*
X138479895Y-62397419D01*
X138461052Y-62550475D01*
X138441900Y-62697934D01*
X138423402Y-62831881D01*
X138406519Y-62944402D01*
X138392212Y-63027581D01*
X138386371Y-63055500D01*
X138334491Y-63259360D01*
X138281270Y-63427671D01*
X138223716Y-63567186D01*
X138158839Y-63684655D01*
X138083649Y-63786832D01*
X138041600Y-63833928D01*
X137927872Y-63938002D01*
X137807409Y-64013112D01*
X137672035Y-64062308D01*
X137513569Y-64088642D01*
X137341103Y-64095306D01*
X137341103Y-66437236D01*
X137364819Y-66437313D01*
X137622622Y-66419517D01*
X137855571Y-66381843D01*
X138070496Y-66323137D01*
X138274227Y-66242246D01*
X138301484Y-66229449D01*
X138543296Y-66092685D01*
X138763506Y-65923591D01*
X138962491Y-65721484D01*
X139140626Y-65485678D01*
X139298288Y-65215490D01*
X139435852Y-64910236D01*
X139553696Y-64569232D01*
X139652196Y-64191794D01*
X139731727Y-63777239D01*
X139762018Y-63574083D01*
X139791359Y-63345972D01*
X139821268Y-63088555D01*
X139850400Y-62814820D01*
X139877412Y-62537751D01*
X139900959Y-62270335D01*
X139913737Y-62108292D01*
X139939396Y-61764333D01*
X140068406Y-61764585D01*
X140265732Y-61784157D01*
X140444211Y-61841127D01*
X140601591Y-61934079D01*
X140735619Y-62061597D01*
X140844042Y-62222264D01*
X140866287Y-62266194D01*
X140929564Y-62427973D01*
X140982815Y-62622754D01*
X141025205Y-62842215D01*
X141055899Y-63078034D01*
X141074060Y-63321888D01*
X141078853Y-63565457D01*
X141069443Y-63800418D01*
X141044994Y-64018449D01*
X141043295Y-64029167D01*
X140993971Y-64283723D01*
X140925046Y-64562498D01*
X140839846Y-64854123D01*
X140741697Y-65147231D01*
X140633924Y-65430451D01*
X140632091Y-65434959D01*
X140584671Y-65562910D01*
X140555598Y-65667331D01*
X140546667Y-65736584D01*
X140546667Y-65828333D01*
X142344202Y-65828333D01*
X142366403Y-65745885D01*
X142395208Y-65630152D01*
X142428599Y-65481612D01*
X142464838Y-65309318D01*
X142502188Y-65122321D01*
X142538912Y-64929674D01*
X142573275Y-64740428D01*
X142603538Y-64563635D01*
X142627964Y-64408348D01*
X142640966Y-64314917D01*
X142665340Y-64087402D01*
X142684534Y-63831206D01*
X142698317Y-63556864D01*
X142706461Y-63274913D01*
X142708735Y-62995890D01*
X142704909Y-62730333D01*
G36*
X140165667Y-56334027D02*
G01*
X139863476Y-56232837D01*
X139572707Y-56135248D01*
X139295857Y-56042108D01*
X139035422Y-55954269D01*
X138793900Y-55872579D01*
X138573786Y-55797888D01*
X138377579Y-55731046D01*
X138207775Y-55672902D01*
X138066870Y-55624307D01*
X137957362Y-55586110D01*
X137881747Y-55559160D01*
X137842522Y-55544308D01*
X137837333Y-55541664D01*
X137857121Y-55533698D01*
X137914801Y-55513935D01*
X138007856Y-55483178D01*
X138133763Y-55442231D01*
X138290002Y-55391899D01*
X138474053Y-55332985D01*
X138683396Y-55266292D01*
X138915509Y-55192625D01*
X139167873Y-55112789D01*
X139437967Y-55027585D01*
X139723270Y-54937819D01*
X140021263Y-54844295D01*
X140165338Y-54799159D01*
X142493342Y-54070250D01*
X142493671Y-52879625D01*
X142493614Y-52659519D01*
X142493333Y-52452598D01*
X142492847Y-52262642D01*
X142492178Y-52093428D01*
X142491346Y-51948736D01*
X142490372Y-51832342D01*
X142489276Y-51748027D01*
X142488079Y-51699568D01*
X142487174Y-51689000D01*
X142467067Y-51696206D01*
X142409322Y-51717311D01*
X142316013Y-51751553D01*
X142189213Y-51798164D01*
X142030998Y-51856380D01*
X141843439Y-51925436D01*
X141628612Y-52004566D01*
X141388590Y-52093005D01*
X141125448Y-52189988D01*
X140841258Y-52294749D01*
X140538094Y-52406524D01*
X140218032Y-52524547D01*
X139883144Y-52648052D01*
X139535504Y-52776275D01*
X139177186Y-52908451D01*
X138810264Y-53043813D01*
X138436812Y-53181597D01*
X138058903Y-53321038D01*
X137678612Y-53461370D01*
X137298013Y-53601828D01*
X136919178Y-53741647D01*
X136544183Y-53880061D01*
X136175101Y-54016305D01*
X135814005Y-54149615D01*
X135462970Y-54279224D01*
X135124069Y-54404368D01*
X134799377Y-54524281D01*
X134490967Y-54638198D01*
X134200913Y-54745353D01*
X133931288Y-54844982D01*
X133684168Y-54936320D01*
X133461625Y-55018600D01*
X133265733Y-55091058D01*
X133098566Y-55152929D01*
X132962199Y-55203447D01*
X132858704Y-55241846D01*
X132831417Y-55251990D01*
X132302250Y-55448820D01*
X132296789Y-56690993D01*
X132296066Y-56915937D01*
X132295899Y-57127774D01*
X132296257Y-57322804D01*
X132297109Y-57497330D01*
X132298423Y-57647651D01*
X132300167Y-57770070D01*
X132302311Y-57860887D01*
X132304822Y-57916403D01*
X132307373Y-57933129D01*
X132331576Y-57925410D01*
X132394456Y-57902457D01*
X132495298Y-57864547D01*
X132633389Y-57811953D01*
X132808014Y-57744952D01*
X133018459Y-57663817D01*
X133264010Y-57568825D01*
X133543954Y-57460250D01*
X133857577Y-57338367D01*
X134204163Y-57203452D01*
X134441920Y-57110794D01*
X135205756Y-56812995D01*
X138812836Y-58169522D01*
X139188344Y-58310721D01*
X139553443Y-58447968D01*
X139906139Y-58580516D01*
X140244441Y-58707617D01*
X140566355Y-58828523D01*
X140869890Y-58942488D01*
X141153052Y-59048764D01*
X141413849Y-59146603D01*
X141650289Y-59235258D01*
X141860379Y-59313982D01*
X142042126Y-59382027D01*
X142193539Y-59438647D01*
X142312623Y-59483093D01*
X142397388Y-59514618D01*
X142445839Y-59532475D01*
X142456958Y-59536410D01*
X142464805Y-59536738D01*
X142471461Y-59530863D01*
X142477024Y-59515612D01*
X142481591Y-59487809D01*
X142485261Y-59444279D01*
X142488130Y-59381846D01*
X142490296Y-59297337D01*
X142491857Y-59187576D01*
X142492909Y-59049387D01*
X142493551Y-58879597D01*
X142493880Y-58675029D01*
X142493993Y-58432509D01*
X142494000Y-58329782D01*
X142494000Y-57112793D01*
X140165667Y-56334027D01*
G37*
X140165667Y-56334027D02*
X139863476Y-56232837D01*
X139572707Y-56135248D01*
X139295857Y-56042108D01*
X139035422Y-55954269D01*
X138793900Y-55872579D01*
X138573786Y-55797888D01*
X138377579Y-55731046D01*
X138207775Y-55672902D01*
X138066870Y-55624307D01*
X137957362Y-55586110D01*
X137881747Y-55559160D01*
X137842522Y-55544308D01*
X137837333Y-55541664D01*
X137857121Y-55533698D01*
X137914801Y-55513935D01*
X138007856Y-55483178D01*
X138133763Y-55442231D01*
X138290002Y-55391899D01*
X138474053Y-55332985D01*
X138683396Y-55266292D01*
X138915509Y-55192625D01*
X139167873Y-55112789D01*
X139437967Y-55027585D01*
X139723270Y-54937819D01*
X140021263Y-54844295D01*
X140165338Y-54799159D01*
X142493342Y-54070250D01*
X142493671Y-52879625D01*
X142493614Y-52659519D01*
X142493333Y-52452598D01*
X142492847Y-52262642D01*
X142492178Y-52093428D01*
X142491346Y-51948736D01*
X142490372Y-51832342D01*
X142489276Y-51748027D01*
X142488079Y-51699568D01*
X142487174Y-51689000D01*
X142467067Y-51696206D01*
X142409322Y-51717311D01*
X142316013Y-51751553D01*
X142189213Y-51798164D01*
X142030998Y-51856380D01*
X141843439Y-51925436D01*
X141628612Y-52004566D01*
X141388590Y-52093005D01*
X141125448Y-52189988D01*
X140841258Y-52294749D01*
X140538094Y-52406524D01*
X140218032Y-52524547D01*
X139883144Y-52648052D01*
X139535504Y-52776275D01*
X139177186Y-52908451D01*
X138810264Y-53043813D01*
X138436812Y-53181597D01*
X138058903Y-53321038D01*
X137678612Y-53461370D01*
X137298013Y-53601828D01*
X136919178Y-53741647D01*
X136544183Y-53880061D01*
X136175101Y-54016305D01*
X135814005Y-54149615D01*
X135462970Y-54279224D01*
X135124069Y-54404368D01*
X134799377Y-54524281D01*
X134490967Y-54638198D01*
X134200913Y-54745353D01*
X133931288Y-54844982D01*
X133684168Y-54936320D01*
X133461625Y-55018600D01*
X133265733Y-55091058D01*
X133098566Y-55152929D01*
X132962199Y-55203447D01*
X132858704Y-55241846D01*
X132831417Y-55251990D01*
X132302250Y-55448820D01*
X132296789Y-56690993D01*
X132296066Y-56915937D01*
X132295899Y-57127774D01*
X132296257Y-57322804D01*
X132297109Y-57497330D01*
X132298423Y-57647651D01*
X132300167Y-57770070D01*
X132302311Y-57860887D01*
X132304822Y-57916403D01*
X132307373Y-57933129D01*
X132331576Y-57925410D01*
X132394456Y-57902457D01*
X132495298Y-57864547D01*
X132633389Y-57811953D01*
X132808014Y-57744952D01*
X133018459Y-57663817D01*
X133264010Y-57568825D01*
X133543954Y-57460250D01*
X133857577Y-57338367D01*
X134204163Y-57203452D01*
X134441920Y-57110794D01*
X135205756Y-56812995D01*
X138812836Y-58169522D01*
X139188344Y-58310721D01*
X139553443Y-58447968D01*
X139906139Y-58580516D01*
X140244441Y-58707617D01*
X140566355Y-58828523D01*
X140869890Y-58942488D01*
X141153052Y-59048764D01*
X141413849Y-59146603D01*
X141650289Y-59235258D01*
X141860379Y-59313982D01*
X142042126Y-59382027D01*
X142193539Y-59438647D01*
X142312623Y-59483093D01*
X142397388Y-59514618D01*
X142445839Y-59532475D01*
X142456958Y-59536410D01*
X142464805Y-59536738D01*
X142471461Y-59530863D01*
X142477024Y-59515612D01*
X142481591Y-59487809D01*
X142485261Y-59444279D01*
X142488130Y-59381846D01*
X142490296Y-59297337D01*
X142491857Y-59187576D01*
X142492909Y-59049387D01*
X142493551Y-58879597D01*
X142493880Y-58675029D01*
X142493993Y-58432509D01*
X142494000Y-58329782D01*
X142494000Y-57112793D01*
X140165667Y-56334027D01*
M02*
