%FSLAX45Y45*%
G04 Gerber Fmt 4.5, Leading zero omitted, Abs format (unit mm)*
G04 Created by KiCad (PCBNEW (5.1.5)-3) date 2022-07-10 23:47:23*
%MOMM*%
%LPD*%
G04 APERTURE LIST*
%TA.AperFunction,Profile*%
%ADD10C,0.050000*%
%TD*%
%TA.AperFunction,Profile*%
%ADD11C,0.100000*%
%TD*%
%ADD12C,0.200000*%
%ADD13C,0.300000*%
G04 APERTURE END LIST*
D10*
X10676851Y-10591800D02*
G75*
G03X10676851Y-10591800I-186651J0D01*
G01*
X10675115Y-5003800D02*
G75*
G03X10675115Y-5003800I-184915J0D01*
G01*
X19641315Y-5003800D02*
G75*
G03X19641315Y-5003800I-184915J0D01*
G01*
X19615915Y-10591800D02*
G75*
G03X19615915Y-10591800I-184915J0D01*
G01*
D11*
X19761200Y-4699000D02*
X19761200Y-10922000D01*
X10185400Y-4699000D02*
X19761200Y-4699000D01*
X10185400Y-10922000D02*
X10185400Y-4699000D01*
X19761200Y-10922000D02*
X10185400Y-10922000D01*
D12*
X14724700Y-7930200D02*
X14764700Y-7970200D01*
X14764700Y-7930200D02*
X14724700Y-7970200D01*
X14724700Y-8730300D02*
X14764700Y-8770300D01*
X14764700Y-8730300D02*
X14724700Y-8770300D01*
X15938400Y-9512300D02*
G75*
G03X15938400Y-9512300I-38000J0D01*
G01*
X15938400Y-10512300D02*
G75*
G03X15938400Y-10512300I-38000J0D01*
G01*
X15938400Y-6553200D02*
G75*
G03X15938400Y-6553200I-38000J0D01*
G01*
X15938400Y-7553200D02*
G75*
G03X15938400Y-7553200I-38000J0D01*
G01*
X15938400Y-5121400D02*
G75*
G03X15938400Y-5121400I-38000J0D01*
G01*
X15938400Y-6121400D02*
G75*
G03X15938400Y-6121400I-38000J0D01*
G01*
X15938400Y-8001000D02*
G75*
G03X15938400Y-8001000I-38000J0D01*
G01*
X15938400Y-9001000D02*
G75*
G03X15938400Y-9001000I-38000J0D01*
G01*
X12454500Y-5876900D02*
X12454500Y-5953100D01*
X12416400Y-5915000D02*
X12492600Y-5915000D01*
X12454500Y-6130900D02*
X12454500Y-6207100D01*
X12416400Y-6169000D02*
X12492600Y-6169000D01*
X12454500Y-6384900D02*
X12454500Y-6461100D01*
X12416400Y-6423000D02*
X12492600Y-6423000D01*
X12454500Y-6638900D02*
X12454500Y-6715100D01*
X12416400Y-6677000D02*
X12492600Y-6677000D01*
X12454500Y-6892900D02*
X12454500Y-6969100D01*
X12416400Y-6931000D02*
X12492600Y-6931000D01*
X12454500Y-7146900D02*
X12454500Y-7223100D01*
X12416400Y-7185000D02*
X12492600Y-7185000D01*
X12454500Y-7400900D02*
X12454500Y-7477100D01*
X12416400Y-7439000D02*
X12492600Y-7439000D01*
X12454500Y-7654900D02*
X12454500Y-7731100D01*
X12416400Y-7693000D02*
X12492600Y-7693000D01*
X12454500Y-7908900D02*
X12454500Y-7985100D01*
X12416400Y-7947000D02*
X12492600Y-7947000D01*
X12454500Y-8162900D02*
X12454500Y-8239100D01*
X12416400Y-8201000D02*
X12492600Y-8201000D01*
X12454500Y-8416900D02*
X12454500Y-8493100D01*
X12416400Y-8455000D02*
X12492600Y-8455000D01*
X12454500Y-8670900D02*
X12454500Y-8747100D01*
X12416400Y-8709000D02*
X12492600Y-8709000D01*
X12454500Y-8924900D02*
X12454500Y-9001100D01*
X12416400Y-8963000D02*
X12492600Y-8963000D01*
X12454500Y-9178900D02*
X12454500Y-9255100D01*
X12416400Y-9217000D02*
X12492600Y-9217000D01*
X12454500Y-9432900D02*
X12454500Y-9509100D01*
X12416400Y-9471000D02*
X12492600Y-9471000D01*
X15248500Y-5876900D02*
X15248500Y-5953100D01*
X15210400Y-5915000D02*
X15286600Y-5915000D01*
X15248500Y-6130900D02*
X15248500Y-6207100D01*
X15210400Y-6169000D02*
X15286600Y-6169000D01*
X15248500Y-6384900D02*
X15248500Y-6461100D01*
X15210400Y-6423000D02*
X15286600Y-6423000D01*
X15248500Y-6638900D02*
X15248500Y-6715100D01*
X15210400Y-6677000D02*
X15286600Y-6677000D01*
X15248500Y-6892900D02*
X15248500Y-6969100D01*
X15210400Y-6931000D02*
X15286600Y-6931000D01*
X15248500Y-7146900D02*
X15248500Y-7223100D01*
X15210400Y-7185000D02*
X15286600Y-7185000D01*
X15248500Y-7400900D02*
X15248500Y-7477100D01*
X15210400Y-7439000D02*
X15286600Y-7439000D01*
X15248500Y-7654900D02*
X15248500Y-7731100D01*
X15210400Y-7693000D02*
X15286600Y-7693000D01*
X15248500Y-7908900D02*
X15248500Y-7985100D01*
X15210400Y-7947000D02*
X15286600Y-7947000D01*
X15248500Y-8162900D02*
X15248500Y-8239100D01*
X15210400Y-8201000D02*
X15286600Y-8201000D01*
X15248500Y-8416900D02*
X15248500Y-8493100D01*
X15210400Y-8455000D02*
X15286600Y-8455000D01*
X15248500Y-8670900D02*
X15248500Y-8747100D01*
X15210400Y-8709000D02*
X15286600Y-8709000D01*
X15248500Y-8924900D02*
X15248500Y-9001100D01*
X15210400Y-8963000D02*
X15286600Y-8963000D01*
X15248500Y-9178900D02*
X15248500Y-9255100D01*
X15210400Y-9217000D02*
X15286600Y-9217000D01*
X15248500Y-9432900D02*
X15248500Y-9509100D01*
X15210400Y-9471000D02*
X15286600Y-9471000D01*
X16233484Y-8791285D02*
X16233484Y-8734716D01*
X16176915Y-8734716D01*
X16176915Y-8791285D01*
X16233484Y-8791285D01*
X17249485Y-8791285D02*
X17249485Y-8734716D01*
X17192916Y-8734716D01*
X17192916Y-8791285D01*
X17249485Y-8791285D01*
X16233484Y-5921084D02*
X16233484Y-5864515D01*
X16176915Y-5864515D01*
X16176915Y-5921084D01*
X16233484Y-5921084D01*
X17249485Y-5921084D02*
X17249485Y-5864515D01*
X17192916Y-5864515D01*
X17192916Y-5921084D01*
X17249485Y-5921084D01*
X16233484Y-10353385D02*
X16233484Y-10296816D01*
X16176915Y-10296816D01*
X16176915Y-10353385D01*
X16233484Y-10353385D01*
X17249485Y-10353385D02*
X17249485Y-10296816D01*
X17192916Y-10296816D01*
X17192916Y-10353385D01*
X17249485Y-10353385D01*
X16233484Y-7343484D02*
X16233484Y-7286915D01*
X16176915Y-7286915D01*
X16176915Y-7343484D01*
X16233484Y-7343484D01*
X17249485Y-7343484D02*
X17249485Y-7286915D01*
X17192916Y-7286915D01*
X17192916Y-7343484D01*
X17249485Y-7343484D01*
X16433800Y-8203400D02*
X16483800Y-8153400D01*
X16433800Y-8103400D01*
X16383800Y-8153400D01*
X16433800Y-8203400D01*
X16687800Y-8203400D02*
X16737800Y-8153400D01*
X16687800Y-8103400D01*
X16637800Y-8153400D01*
X16687800Y-8203400D01*
X16941800Y-8203400D02*
X16991800Y-8153400D01*
X16941800Y-8103400D01*
X16891800Y-8153400D01*
X16941800Y-8203400D01*
X16433800Y-5307800D02*
X16483800Y-5257800D01*
X16433800Y-5207800D01*
X16383800Y-5257800D01*
X16433800Y-5307800D01*
X16687800Y-5307800D02*
X16737800Y-5257800D01*
X16687800Y-5207800D01*
X16637800Y-5257800D01*
X16687800Y-5307800D01*
X16941800Y-5307800D02*
X16991800Y-5257800D01*
X16941800Y-5207800D01*
X16891800Y-5257800D01*
X16941800Y-5307800D01*
X16446500Y-9702000D02*
X16496500Y-9652000D01*
X16446500Y-9602000D01*
X16396500Y-9652000D01*
X16446500Y-9702000D01*
X16700500Y-9702000D02*
X16750500Y-9652000D01*
X16700500Y-9602000D01*
X16650500Y-9652000D01*
X16700500Y-9702000D01*
X16954500Y-9702000D02*
X17004500Y-9652000D01*
X16954500Y-9602000D01*
X16904500Y-9652000D01*
X16954500Y-9702000D01*
X16433800Y-6755600D02*
X16483800Y-6705600D01*
X16433800Y-6655600D01*
X16383800Y-6705600D01*
X16433800Y-6755600D01*
X16687800Y-6755600D02*
X16737800Y-6705600D01*
X16687800Y-6655600D01*
X16637800Y-6705600D01*
X16687800Y-6755600D01*
X16941800Y-6755600D02*
X16991800Y-6705600D01*
X16941800Y-6655600D01*
X16891800Y-6705600D01*
X16941800Y-6755600D01*
X11506200Y-5183340D02*
X11556200Y-5133340D01*
X11506200Y-5083340D01*
X11456200Y-5133340D01*
X11506200Y-5183340D01*
X11506200Y-5437340D02*
X11556200Y-5387340D01*
X11506200Y-5337340D01*
X11456200Y-5387340D01*
X11506200Y-5437340D01*
X11506200Y-5691340D02*
X11556200Y-5641340D01*
X11506200Y-5591340D01*
X11456200Y-5641340D01*
X11506200Y-5691340D01*
X11506200Y-5945340D02*
X11556200Y-5895340D01*
X11506200Y-5845340D01*
X11456200Y-5895340D01*
X11506200Y-5945340D01*
X11506200Y-6199340D02*
X11556200Y-6149340D01*
X11506200Y-6099340D01*
X11456200Y-6149340D01*
X11506200Y-6199340D01*
X11506200Y-6453340D02*
X11556200Y-6403340D01*
X11506200Y-6353340D01*
X11456200Y-6403340D01*
X11506200Y-6453340D01*
X10845800Y-9143200D02*
X10895800Y-9093200D01*
X10845800Y-9043200D01*
X10795800Y-9093200D01*
X10845800Y-9143200D01*
X11099800Y-9143200D02*
X11149800Y-9093200D01*
X11099800Y-9043200D01*
X11049800Y-9093200D01*
X11099800Y-9143200D01*
X11353800Y-9143200D02*
X11403800Y-9093200D01*
X11353800Y-9043200D01*
X11303800Y-9093200D01*
X11353800Y-9143200D01*
X18182390Y-10285530D02*
X18284390Y-10387530D01*
X18284390Y-10285530D02*
X18182390Y-10387530D01*
X18284390Y-10336530D02*
G75*
G03X18284390Y-10336530I-51000J0D01*
G01*
X18182390Y-10539530D02*
X18284390Y-10641530D01*
X18284390Y-10539530D02*
X18182390Y-10641530D01*
X18284390Y-10590530D02*
G75*
G03X18284390Y-10590530I-51000J0D01*
G01*
X18183660Y-9639100D02*
X18285660Y-9741100D01*
X18285660Y-9639100D02*
X18183660Y-9741100D01*
X18285660Y-9690100D02*
G75*
G03X18285660Y-9690100I-51000J0D01*
G01*
X18183660Y-9893100D02*
X18285660Y-9995100D01*
X18285660Y-9893100D02*
X18183660Y-9995100D01*
X18285660Y-9944100D02*
G75*
G03X18285660Y-9944100I-51000J0D01*
G01*
X11506000Y-7137200D02*
X11608000Y-7239200D01*
X11608000Y-7137200D02*
X11506000Y-7239200D01*
X11608000Y-7188200D02*
G75*
G03X11608000Y-7188200I-51000J0D01*
G01*
X11506000Y-7391200D02*
X11608000Y-7493200D01*
X11608000Y-7391200D02*
X11506000Y-7493200D01*
X11608000Y-7442200D02*
G75*
G03X11608000Y-7442200I-51000J0D01*
G01*
X11506000Y-7645200D02*
X11608000Y-7747200D01*
X11608000Y-7645200D02*
X11506000Y-7747200D01*
X11608000Y-7696200D02*
G75*
G03X11608000Y-7696200I-51000J0D01*
G01*
X11506000Y-7899200D02*
X11608000Y-8001200D01*
X11608000Y-7899200D02*
X11506000Y-8001200D01*
X11608000Y-7950200D02*
G75*
G03X11608000Y-7950200I-51000J0D01*
G01*
X18182390Y-9004100D02*
X18284390Y-9106100D01*
X18284390Y-9004100D02*
X18182390Y-9106100D01*
X18284390Y-9055100D02*
G75*
G03X18284390Y-9055100I-51000J0D01*
G01*
X18182390Y-9258100D02*
X18284390Y-9360100D01*
X18284390Y-9258100D02*
X18182390Y-9360100D01*
X18284390Y-9309100D02*
G75*
G03X18284390Y-9309100I-51000J0D01*
G01*
X18389210Y-4924670D02*
X18499210Y-5034670D01*
X18499210Y-4924670D02*
X18389210Y-5034670D01*
X18444210Y-4924670D02*
X18444210Y-5034670D01*
X18389210Y-4979670D02*
X18499210Y-4979670D01*
X18389210Y-5174670D02*
X18499210Y-5284670D01*
X18499210Y-5174670D02*
X18389210Y-5284670D01*
X18444210Y-5174670D02*
X18444210Y-5284670D01*
X18389210Y-5229670D02*
X18499210Y-5229670D01*
X18389210Y-5424670D02*
X18499210Y-5534670D01*
X18499210Y-5424670D02*
X18389210Y-5534670D01*
X18444210Y-5424670D02*
X18444210Y-5534670D01*
X18389210Y-5479670D02*
X18499210Y-5479670D01*
X18389210Y-5674670D02*
X18499210Y-5784670D01*
X18499210Y-5674670D02*
X18389210Y-5784670D01*
X18444210Y-5674670D02*
X18444210Y-5784670D01*
X18389210Y-5729670D02*
X18499210Y-5729670D01*
X18389210Y-5924670D02*
X18499210Y-6034670D01*
X18499210Y-5924670D02*
X18389210Y-6034670D01*
X18444210Y-5924670D02*
X18444210Y-6034670D01*
X18389210Y-5979670D02*
X18499210Y-5979670D01*
X11176200Y-10211000D02*
X11328200Y-10363000D01*
X11328200Y-10211000D02*
X11176200Y-10363000D01*
X11305941Y-10340741D02*
X11305941Y-10233259D01*
X11198459Y-10233259D01*
X11198459Y-10340741D01*
X11305941Y-10340741D01*
X11684200Y-10211000D02*
X11836200Y-10363000D01*
X11836200Y-10211000D02*
X11684200Y-10363000D01*
X11813941Y-10340741D02*
X11813941Y-10233259D01*
X11706459Y-10233259D01*
X11706459Y-10340741D01*
X11813941Y-10340741D01*
D13*
X10466828Y-11392714D02*
X10466828Y-11092714D01*
X10538257Y-11092714D01*
X10581114Y-11107000D01*
X10609686Y-11135572D01*
X10623971Y-11164143D01*
X10638257Y-11221286D01*
X10638257Y-11264143D01*
X10623971Y-11321286D01*
X10609686Y-11349857D01*
X10581114Y-11378429D01*
X10538257Y-11392714D01*
X10466828Y-11392714D01*
X10766828Y-11392714D02*
X10766828Y-11192714D01*
X10766828Y-11249857D02*
X10781114Y-11221286D01*
X10795400Y-11207000D01*
X10823971Y-11192714D01*
X10852543Y-11192714D01*
X10952543Y-11392714D02*
X10952543Y-11192714D01*
X10952543Y-11092714D02*
X10938257Y-11107000D01*
X10952543Y-11121286D01*
X10966828Y-11107000D01*
X10952543Y-11092714D01*
X10952543Y-11121286D01*
X11138257Y-11392714D02*
X11109686Y-11378429D01*
X11095400Y-11349857D01*
X11095400Y-11092714D01*
X11295400Y-11392714D02*
X11266828Y-11378429D01*
X11252543Y-11349857D01*
X11252543Y-11092714D01*
X11638257Y-11392714D02*
X11638257Y-11092714D01*
X11738257Y-11307000D01*
X11838257Y-11092714D01*
X11838257Y-11392714D01*
X12109686Y-11392714D02*
X12109686Y-11235571D01*
X12095400Y-11207000D01*
X12066828Y-11192714D01*
X12009686Y-11192714D01*
X11981114Y-11207000D01*
X12109686Y-11378429D02*
X12081114Y-11392714D01*
X12009686Y-11392714D01*
X11981114Y-11378429D01*
X11966828Y-11349857D01*
X11966828Y-11321286D01*
X11981114Y-11292714D01*
X12009686Y-11278429D01*
X12081114Y-11278429D01*
X12109686Y-11264143D01*
X12252543Y-11192714D02*
X12252543Y-11492714D01*
X12252543Y-11207000D02*
X12281114Y-11192714D01*
X12338257Y-11192714D01*
X12366828Y-11207000D01*
X12381114Y-11221286D01*
X12395400Y-11249857D01*
X12395400Y-11335571D01*
X12381114Y-11364143D01*
X12366828Y-11378429D01*
X12338257Y-11392714D01*
X12281114Y-11392714D01*
X12252543Y-11378429D01*
X12523971Y-11364143D02*
X12538257Y-11378429D01*
X12523971Y-11392714D01*
X12509686Y-11378429D01*
X12523971Y-11364143D01*
X12523971Y-11392714D01*
X12523971Y-11207000D02*
X12538257Y-11221286D01*
X12523971Y-11235571D01*
X12509686Y-11221286D01*
X12523971Y-11207000D01*
X12523971Y-11235571D01*
X10140400Y-11867000D02*
X10180400Y-11907000D01*
X10180400Y-11867000D02*
X10140400Y-11907000D01*
X10523971Y-11722714D02*
X10552543Y-11722714D01*
X10581114Y-11737000D01*
X10595400Y-11751286D01*
X10609686Y-11779857D01*
X10623971Y-11837000D01*
X10623971Y-11908429D01*
X10609686Y-11965571D01*
X10595400Y-11994143D01*
X10581114Y-12008429D01*
X10552543Y-12022714D01*
X10523971Y-12022714D01*
X10495400Y-12008429D01*
X10481114Y-11994143D01*
X10466828Y-11965571D01*
X10452543Y-11908429D01*
X10452543Y-11837000D01*
X10466828Y-11779857D01*
X10481114Y-11751286D01*
X10495400Y-11737000D01*
X10523971Y-11722714D01*
X10752543Y-11994143D02*
X10766828Y-12008429D01*
X10752543Y-12022714D01*
X10738257Y-12008429D01*
X10752543Y-11994143D01*
X10752543Y-12022714D01*
X11023971Y-11822714D02*
X11023971Y-12022714D01*
X10952543Y-11708429D02*
X10881114Y-11922714D01*
X11066828Y-11922714D01*
X11238257Y-11722714D02*
X11266828Y-11722714D01*
X11295400Y-11737000D01*
X11309686Y-11751286D01*
X11323971Y-11779857D01*
X11338257Y-11837000D01*
X11338257Y-11908429D01*
X11323971Y-11965571D01*
X11309686Y-11994143D01*
X11295400Y-12008429D01*
X11266828Y-12022714D01*
X11238257Y-12022714D01*
X11209686Y-12008429D01*
X11195400Y-11994143D01*
X11181114Y-11965571D01*
X11166828Y-11908429D01*
X11166828Y-11837000D01*
X11181114Y-11779857D01*
X11195400Y-11751286D01*
X11209686Y-11737000D01*
X11238257Y-11722714D01*
X11466828Y-12022714D02*
X11466828Y-11822714D01*
X11466828Y-11851286D02*
X11481114Y-11837000D01*
X11509686Y-11822714D01*
X11552543Y-11822714D01*
X11581114Y-11837000D01*
X11595400Y-11865571D01*
X11595400Y-12022714D01*
X11595400Y-11865571D02*
X11609686Y-11837000D01*
X11638257Y-11822714D01*
X11681114Y-11822714D01*
X11709686Y-11837000D01*
X11723971Y-11865571D01*
X11723971Y-12022714D01*
X11866828Y-12022714D02*
X11866828Y-11822714D01*
X11866828Y-11851286D02*
X11881114Y-11837000D01*
X11909686Y-11822714D01*
X11952543Y-11822714D01*
X11981114Y-11837000D01*
X11995400Y-11865571D01*
X11995400Y-12022714D01*
X11995400Y-11865571D02*
X12009686Y-11837000D01*
X12038257Y-11822714D01*
X12081114Y-11822714D01*
X12109686Y-11837000D01*
X12123971Y-11865571D01*
X12123971Y-12022714D01*
X12709686Y-11708429D02*
X12452543Y-12094143D01*
X13095400Y-11722714D02*
X13123971Y-11722714D01*
X13152543Y-11737000D01*
X13166828Y-11751286D01*
X13181114Y-11779857D01*
X13195400Y-11837000D01*
X13195400Y-11908429D01*
X13181114Y-11965571D01*
X13166828Y-11994143D01*
X13152543Y-12008429D01*
X13123971Y-12022714D01*
X13095400Y-12022714D01*
X13066828Y-12008429D01*
X13052543Y-11994143D01*
X13038257Y-11965571D01*
X13023971Y-11908429D01*
X13023971Y-11837000D01*
X13038257Y-11779857D01*
X13052543Y-11751286D01*
X13066828Y-11737000D01*
X13095400Y-11722714D01*
X13323971Y-11994143D02*
X13338257Y-12008429D01*
X13323971Y-12022714D01*
X13309686Y-12008429D01*
X13323971Y-11994143D01*
X13323971Y-12022714D01*
X13523971Y-11722714D02*
X13552543Y-11722714D01*
X13581114Y-11737000D01*
X13595400Y-11751286D01*
X13609686Y-11779857D01*
X13623971Y-11837000D01*
X13623971Y-11908429D01*
X13609686Y-11965571D01*
X13595400Y-11994143D01*
X13581114Y-12008429D01*
X13552543Y-12022714D01*
X13523971Y-12022714D01*
X13495400Y-12008429D01*
X13481114Y-11994143D01*
X13466828Y-11965571D01*
X13452543Y-11908429D01*
X13452543Y-11837000D01*
X13466828Y-11779857D01*
X13481114Y-11751286D01*
X13495400Y-11737000D01*
X13523971Y-11722714D01*
X13909686Y-12022714D02*
X13738257Y-12022714D01*
X13823971Y-12022714D02*
X13823971Y-11722714D01*
X13795400Y-11765571D01*
X13766828Y-11794143D01*
X13738257Y-11808429D01*
X14166828Y-11722714D02*
X14109686Y-11722714D01*
X14081114Y-11737000D01*
X14066828Y-11751286D01*
X14038257Y-11794143D01*
X14023971Y-11851286D01*
X14023971Y-11965571D01*
X14038257Y-11994143D01*
X14052543Y-12008429D01*
X14081114Y-12022714D01*
X14138257Y-12022714D01*
X14166828Y-12008429D01*
X14181114Y-11994143D01*
X14195400Y-11965571D01*
X14195400Y-11894143D01*
X14181114Y-11865571D01*
X14166828Y-11851286D01*
X14138257Y-11837000D01*
X14081114Y-11837000D01*
X14052543Y-11851286D01*
X14038257Y-11865571D01*
X14023971Y-11894143D01*
X14309686Y-11722714D02*
X14309686Y-11779857D01*
X14423971Y-11722714D02*
X14423971Y-11779857D01*
X14866828Y-12137000D02*
X14852543Y-12122714D01*
X14823971Y-12079857D01*
X14809686Y-12051286D01*
X14795400Y-12008429D01*
X14781114Y-11937000D01*
X14781114Y-11879857D01*
X14795400Y-11808429D01*
X14809686Y-11765571D01*
X14823971Y-11737000D01*
X14852543Y-11694143D01*
X14866828Y-11679857D01*
X14966828Y-11751286D02*
X14981114Y-11737000D01*
X15009686Y-11722714D01*
X15081114Y-11722714D01*
X15109686Y-11737000D01*
X15123971Y-11751286D01*
X15138257Y-11779857D01*
X15138257Y-11808429D01*
X15123971Y-11851286D01*
X14952543Y-12022714D01*
X15138257Y-12022714D01*
X15495400Y-12022714D02*
X15495400Y-11722714D01*
X15623971Y-12022714D02*
X15623971Y-11865571D01*
X15609686Y-11837000D01*
X15581114Y-11822714D01*
X15538257Y-11822714D01*
X15509686Y-11837000D01*
X15495400Y-11851286D01*
X15809686Y-12022714D02*
X15781114Y-12008429D01*
X15766828Y-11994143D01*
X15752543Y-11965571D01*
X15752543Y-11879857D01*
X15766828Y-11851286D01*
X15781114Y-11837000D01*
X15809686Y-11822714D01*
X15852543Y-11822714D01*
X15881114Y-11837000D01*
X15895400Y-11851286D01*
X15909686Y-11879857D01*
X15909686Y-11965571D01*
X15895400Y-11994143D01*
X15881114Y-12008429D01*
X15852543Y-12022714D01*
X15809686Y-12022714D01*
X16081114Y-12022714D02*
X16052543Y-12008429D01*
X16038257Y-11979857D01*
X16038257Y-11722714D01*
X16309686Y-12008429D02*
X16281114Y-12022714D01*
X16223971Y-12022714D01*
X16195400Y-12008429D01*
X16181114Y-11979857D01*
X16181114Y-11865571D01*
X16195400Y-11837000D01*
X16223971Y-11822714D01*
X16281114Y-11822714D01*
X16309686Y-11837000D01*
X16323971Y-11865571D01*
X16323971Y-11894143D01*
X16181114Y-11922714D01*
X16438257Y-12008429D02*
X16466828Y-12022714D01*
X16523971Y-12022714D01*
X16552543Y-12008429D01*
X16566828Y-11979857D01*
X16566828Y-11965571D01*
X16552543Y-11937000D01*
X16523971Y-11922714D01*
X16481114Y-11922714D01*
X16452543Y-11908429D01*
X16438257Y-11879857D01*
X16438257Y-11865571D01*
X16452543Y-11837000D01*
X16481114Y-11822714D01*
X16523971Y-11822714D01*
X16552543Y-11837000D01*
X16666828Y-12137000D02*
X16681114Y-12122714D01*
X16709686Y-12079857D01*
X16723971Y-12051286D01*
X16738257Y-12008429D01*
X16752543Y-11937000D01*
X16752543Y-11879857D01*
X16738257Y-11808429D01*
X16723971Y-11765571D01*
X16709686Y-11737000D01*
X16681114Y-11694143D01*
X16666828Y-11679857D01*
X10180400Y-12283000D02*
G75*
G03X10180400Y-12283000I-38000J0D01*
G01*
X10523971Y-12118714D02*
X10552543Y-12118714D01*
X10581114Y-12133000D01*
X10595400Y-12147286D01*
X10609686Y-12175857D01*
X10623971Y-12233000D01*
X10623971Y-12304429D01*
X10609686Y-12361571D01*
X10595400Y-12390143D01*
X10581114Y-12404429D01*
X10552543Y-12418714D01*
X10523971Y-12418714D01*
X10495400Y-12404429D01*
X10481114Y-12390143D01*
X10466828Y-12361571D01*
X10452543Y-12304429D01*
X10452543Y-12233000D01*
X10466828Y-12175857D01*
X10481114Y-12147286D01*
X10495400Y-12133000D01*
X10523971Y-12118714D01*
X10752543Y-12390143D02*
X10766828Y-12404429D01*
X10752543Y-12418714D01*
X10738257Y-12404429D01*
X10752543Y-12390143D01*
X10752543Y-12418714D01*
X10866828Y-12118714D02*
X11066828Y-12118714D01*
X10938257Y-12418714D01*
X11309686Y-12118714D02*
X11252543Y-12118714D01*
X11223971Y-12133000D01*
X11209686Y-12147286D01*
X11181114Y-12190143D01*
X11166828Y-12247286D01*
X11166828Y-12361571D01*
X11181114Y-12390143D01*
X11195400Y-12404429D01*
X11223971Y-12418714D01*
X11281114Y-12418714D01*
X11309686Y-12404429D01*
X11323971Y-12390143D01*
X11338257Y-12361571D01*
X11338257Y-12290143D01*
X11323971Y-12261571D01*
X11309686Y-12247286D01*
X11281114Y-12233000D01*
X11223971Y-12233000D01*
X11195400Y-12247286D01*
X11181114Y-12261571D01*
X11166828Y-12290143D01*
X11466828Y-12418714D02*
X11466828Y-12218714D01*
X11466828Y-12247286D02*
X11481114Y-12233000D01*
X11509686Y-12218714D01*
X11552543Y-12218714D01*
X11581114Y-12233000D01*
X11595400Y-12261571D01*
X11595400Y-12418714D01*
X11595400Y-12261571D02*
X11609686Y-12233000D01*
X11638257Y-12218714D01*
X11681114Y-12218714D01*
X11709686Y-12233000D01*
X11723971Y-12261571D01*
X11723971Y-12418714D01*
X11866828Y-12418714D02*
X11866828Y-12218714D01*
X11866828Y-12247286D02*
X11881114Y-12233000D01*
X11909686Y-12218714D01*
X11952543Y-12218714D01*
X11981114Y-12233000D01*
X11995400Y-12261571D01*
X11995400Y-12418714D01*
X11995400Y-12261571D02*
X12009686Y-12233000D01*
X12038257Y-12218714D01*
X12081114Y-12218714D01*
X12109686Y-12233000D01*
X12123971Y-12261571D01*
X12123971Y-12418714D01*
X12709686Y-12104429D02*
X12452543Y-12490143D01*
X13095400Y-12118714D02*
X13123971Y-12118714D01*
X13152543Y-12133000D01*
X13166828Y-12147286D01*
X13181114Y-12175857D01*
X13195400Y-12233000D01*
X13195400Y-12304429D01*
X13181114Y-12361571D01*
X13166828Y-12390143D01*
X13152543Y-12404429D01*
X13123971Y-12418714D01*
X13095400Y-12418714D01*
X13066828Y-12404429D01*
X13052543Y-12390143D01*
X13038257Y-12361571D01*
X13023971Y-12304429D01*
X13023971Y-12233000D01*
X13038257Y-12175857D01*
X13052543Y-12147286D01*
X13066828Y-12133000D01*
X13095400Y-12118714D01*
X13323971Y-12390143D02*
X13338257Y-12404429D01*
X13323971Y-12418714D01*
X13309686Y-12404429D01*
X13323971Y-12390143D01*
X13323971Y-12418714D01*
X13523971Y-12118714D02*
X13552543Y-12118714D01*
X13581114Y-12133000D01*
X13595400Y-12147286D01*
X13609686Y-12175857D01*
X13623971Y-12233000D01*
X13623971Y-12304429D01*
X13609686Y-12361571D01*
X13595400Y-12390143D01*
X13581114Y-12404429D01*
X13552543Y-12418714D01*
X13523971Y-12418714D01*
X13495400Y-12404429D01*
X13481114Y-12390143D01*
X13466828Y-12361571D01*
X13452543Y-12304429D01*
X13452543Y-12233000D01*
X13466828Y-12175857D01*
X13481114Y-12147286D01*
X13495400Y-12133000D01*
X13523971Y-12118714D01*
X13723971Y-12118714D02*
X13909686Y-12118714D01*
X13809686Y-12233000D01*
X13852543Y-12233000D01*
X13881114Y-12247286D01*
X13895400Y-12261571D01*
X13909686Y-12290143D01*
X13909686Y-12361571D01*
X13895400Y-12390143D01*
X13881114Y-12404429D01*
X13852543Y-12418714D01*
X13766828Y-12418714D01*
X13738257Y-12404429D01*
X13723971Y-12390143D01*
X14095400Y-12118714D02*
X14123971Y-12118714D01*
X14152543Y-12133000D01*
X14166828Y-12147286D01*
X14181114Y-12175857D01*
X14195400Y-12233000D01*
X14195400Y-12304429D01*
X14181114Y-12361571D01*
X14166828Y-12390143D01*
X14152543Y-12404429D01*
X14123971Y-12418714D01*
X14095400Y-12418714D01*
X14066828Y-12404429D01*
X14052543Y-12390143D01*
X14038257Y-12361571D01*
X14023971Y-12304429D01*
X14023971Y-12233000D01*
X14038257Y-12175857D01*
X14052543Y-12147286D01*
X14066828Y-12133000D01*
X14095400Y-12118714D01*
X14309686Y-12118714D02*
X14309686Y-12175857D01*
X14423971Y-12118714D02*
X14423971Y-12175857D01*
X14866828Y-12533000D02*
X14852543Y-12518714D01*
X14823971Y-12475857D01*
X14809686Y-12447286D01*
X14795400Y-12404429D01*
X14781114Y-12333000D01*
X14781114Y-12275857D01*
X14795400Y-12204429D01*
X14809686Y-12161571D01*
X14823971Y-12133000D01*
X14852543Y-12090143D01*
X14866828Y-12075857D01*
X15023971Y-12247286D02*
X14995400Y-12233000D01*
X14981114Y-12218714D01*
X14966828Y-12190143D01*
X14966828Y-12175857D01*
X14981114Y-12147286D01*
X14995400Y-12133000D01*
X15023971Y-12118714D01*
X15081114Y-12118714D01*
X15109686Y-12133000D01*
X15123971Y-12147286D01*
X15138257Y-12175857D01*
X15138257Y-12190143D01*
X15123971Y-12218714D01*
X15109686Y-12233000D01*
X15081114Y-12247286D01*
X15023971Y-12247286D01*
X14995400Y-12261571D01*
X14981114Y-12275857D01*
X14966828Y-12304429D01*
X14966828Y-12361571D01*
X14981114Y-12390143D01*
X14995400Y-12404429D01*
X15023971Y-12418714D01*
X15081114Y-12418714D01*
X15109686Y-12404429D01*
X15123971Y-12390143D01*
X15138257Y-12361571D01*
X15138257Y-12304429D01*
X15123971Y-12275857D01*
X15109686Y-12261571D01*
X15081114Y-12247286D01*
X15495400Y-12418714D02*
X15495400Y-12118714D01*
X15623971Y-12418714D02*
X15623971Y-12261571D01*
X15609686Y-12233000D01*
X15581114Y-12218714D01*
X15538257Y-12218714D01*
X15509686Y-12233000D01*
X15495400Y-12247286D01*
X15809686Y-12418714D02*
X15781114Y-12404429D01*
X15766828Y-12390143D01*
X15752543Y-12361571D01*
X15752543Y-12275857D01*
X15766828Y-12247286D01*
X15781114Y-12233000D01*
X15809686Y-12218714D01*
X15852543Y-12218714D01*
X15881114Y-12233000D01*
X15895400Y-12247286D01*
X15909686Y-12275857D01*
X15909686Y-12361571D01*
X15895400Y-12390143D01*
X15881114Y-12404429D01*
X15852543Y-12418714D01*
X15809686Y-12418714D01*
X16081114Y-12418714D02*
X16052543Y-12404429D01*
X16038257Y-12375857D01*
X16038257Y-12118714D01*
X16309686Y-12404429D02*
X16281114Y-12418714D01*
X16223971Y-12418714D01*
X16195400Y-12404429D01*
X16181114Y-12375857D01*
X16181114Y-12261571D01*
X16195400Y-12233000D01*
X16223971Y-12218714D01*
X16281114Y-12218714D01*
X16309686Y-12233000D01*
X16323971Y-12261571D01*
X16323971Y-12290143D01*
X16181114Y-12318714D01*
X16438257Y-12404429D02*
X16466828Y-12418714D01*
X16523971Y-12418714D01*
X16552543Y-12404429D01*
X16566828Y-12375857D01*
X16566828Y-12361571D01*
X16552543Y-12333000D01*
X16523971Y-12318714D01*
X16481114Y-12318714D01*
X16452543Y-12304429D01*
X16438257Y-12275857D01*
X16438257Y-12261571D01*
X16452543Y-12233000D01*
X16481114Y-12218714D01*
X16523971Y-12218714D01*
X16552543Y-12233000D01*
X16666828Y-12533000D02*
X16681114Y-12518714D01*
X16709686Y-12475857D01*
X16723971Y-12447286D01*
X16738257Y-12404429D01*
X16752543Y-12333000D01*
X16752543Y-12275857D01*
X16738257Y-12204429D01*
X16723971Y-12161571D01*
X16709686Y-12133000D01*
X16681114Y-12090143D01*
X16666828Y-12075857D01*
X10142300Y-12640900D02*
X10142300Y-12717100D01*
X10104200Y-12679000D02*
X10180400Y-12679000D01*
X10523971Y-12514714D02*
X10552543Y-12514714D01*
X10581114Y-12529000D01*
X10595400Y-12543286D01*
X10609686Y-12571857D01*
X10623971Y-12629000D01*
X10623971Y-12700429D01*
X10609686Y-12757571D01*
X10595400Y-12786143D01*
X10581114Y-12800429D01*
X10552543Y-12814714D01*
X10523971Y-12814714D01*
X10495400Y-12800429D01*
X10481114Y-12786143D01*
X10466828Y-12757571D01*
X10452543Y-12700429D01*
X10452543Y-12629000D01*
X10466828Y-12571857D01*
X10481114Y-12543286D01*
X10495400Y-12529000D01*
X10523971Y-12514714D01*
X10752543Y-12786143D02*
X10766828Y-12800429D01*
X10752543Y-12814714D01*
X10738257Y-12800429D01*
X10752543Y-12786143D01*
X10752543Y-12814714D01*
X10866828Y-12514714D02*
X11066828Y-12514714D01*
X10938257Y-12814714D01*
X11309686Y-12514714D02*
X11252543Y-12514714D01*
X11223971Y-12529000D01*
X11209686Y-12543286D01*
X11181114Y-12586143D01*
X11166828Y-12643286D01*
X11166828Y-12757571D01*
X11181114Y-12786143D01*
X11195400Y-12800429D01*
X11223971Y-12814714D01*
X11281114Y-12814714D01*
X11309686Y-12800429D01*
X11323971Y-12786143D01*
X11338257Y-12757571D01*
X11338257Y-12686143D01*
X11323971Y-12657571D01*
X11309686Y-12643286D01*
X11281114Y-12629000D01*
X11223971Y-12629000D01*
X11195400Y-12643286D01*
X11181114Y-12657571D01*
X11166828Y-12686143D01*
X11466828Y-12814714D02*
X11466828Y-12614714D01*
X11466828Y-12643286D02*
X11481114Y-12629000D01*
X11509686Y-12614714D01*
X11552543Y-12614714D01*
X11581114Y-12629000D01*
X11595400Y-12657571D01*
X11595400Y-12814714D01*
X11595400Y-12657571D02*
X11609686Y-12629000D01*
X11638257Y-12614714D01*
X11681114Y-12614714D01*
X11709686Y-12629000D01*
X11723971Y-12657571D01*
X11723971Y-12814714D01*
X11866828Y-12814714D02*
X11866828Y-12614714D01*
X11866828Y-12643286D02*
X11881114Y-12629000D01*
X11909686Y-12614714D01*
X11952543Y-12614714D01*
X11981114Y-12629000D01*
X11995400Y-12657571D01*
X11995400Y-12814714D01*
X11995400Y-12657571D02*
X12009686Y-12629000D01*
X12038257Y-12614714D01*
X12081114Y-12614714D01*
X12109686Y-12629000D01*
X12123971Y-12657571D01*
X12123971Y-12814714D01*
X12709686Y-12500429D02*
X12452543Y-12886143D01*
X13095400Y-12514714D02*
X13123971Y-12514714D01*
X13152543Y-12529000D01*
X13166828Y-12543286D01*
X13181114Y-12571857D01*
X13195400Y-12629000D01*
X13195400Y-12700429D01*
X13181114Y-12757571D01*
X13166828Y-12786143D01*
X13152543Y-12800429D01*
X13123971Y-12814714D01*
X13095400Y-12814714D01*
X13066828Y-12800429D01*
X13052543Y-12786143D01*
X13038257Y-12757571D01*
X13023971Y-12700429D01*
X13023971Y-12629000D01*
X13038257Y-12571857D01*
X13052543Y-12543286D01*
X13066828Y-12529000D01*
X13095400Y-12514714D01*
X13323971Y-12786143D02*
X13338257Y-12800429D01*
X13323971Y-12814714D01*
X13309686Y-12800429D01*
X13323971Y-12786143D01*
X13323971Y-12814714D01*
X13523971Y-12514714D02*
X13552543Y-12514714D01*
X13581114Y-12529000D01*
X13595400Y-12543286D01*
X13609686Y-12571857D01*
X13623971Y-12629000D01*
X13623971Y-12700429D01*
X13609686Y-12757571D01*
X13595400Y-12786143D01*
X13581114Y-12800429D01*
X13552543Y-12814714D01*
X13523971Y-12814714D01*
X13495400Y-12800429D01*
X13481114Y-12786143D01*
X13466828Y-12757571D01*
X13452543Y-12700429D01*
X13452543Y-12629000D01*
X13466828Y-12571857D01*
X13481114Y-12543286D01*
X13495400Y-12529000D01*
X13523971Y-12514714D01*
X13723971Y-12514714D02*
X13909686Y-12514714D01*
X13809686Y-12629000D01*
X13852543Y-12629000D01*
X13881114Y-12643286D01*
X13895400Y-12657571D01*
X13909686Y-12686143D01*
X13909686Y-12757571D01*
X13895400Y-12786143D01*
X13881114Y-12800429D01*
X13852543Y-12814714D01*
X13766828Y-12814714D01*
X13738257Y-12800429D01*
X13723971Y-12786143D01*
X14095400Y-12514714D02*
X14123971Y-12514714D01*
X14152543Y-12529000D01*
X14166828Y-12543286D01*
X14181114Y-12571857D01*
X14195400Y-12629000D01*
X14195400Y-12700429D01*
X14181114Y-12757571D01*
X14166828Y-12786143D01*
X14152543Y-12800429D01*
X14123971Y-12814714D01*
X14095400Y-12814714D01*
X14066828Y-12800429D01*
X14052543Y-12786143D01*
X14038257Y-12757571D01*
X14023971Y-12700429D01*
X14023971Y-12629000D01*
X14038257Y-12571857D01*
X14052543Y-12543286D01*
X14066828Y-12529000D01*
X14095400Y-12514714D01*
X14309686Y-12514714D02*
X14309686Y-12571857D01*
X14423971Y-12514714D02*
X14423971Y-12571857D01*
X14866828Y-12929000D02*
X14852543Y-12914714D01*
X14823971Y-12871857D01*
X14809686Y-12843286D01*
X14795400Y-12800429D01*
X14781114Y-12729000D01*
X14781114Y-12671857D01*
X14795400Y-12600429D01*
X14809686Y-12557571D01*
X14823971Y-12529000D01*
X14852543Y-12486143D01*
X14866828Y-12471857D01*
X14952543Y-12514714D02*
X15138257Y-12514714D01*
X15038257Y-12629000D01*
X15081114Y-12629000D01*
X15109686Y-12643286D01*
X15123971Y-12657571D01*
X15138257Y-12686143D01*
X15138257Y-12757571D01*
X15123971Y-12786143D01*
X15109686Y-12800429D01*
X15081114Y-12814714D01*
X14995400Y-12814714D01*
X14966828Y-12800429D01*
X14952543Y-12786143D01*
X15323971Y-12514714D02*
X15352543Y-12514714D01*
X15381114Y-12529000D01*
X15395400Y-12543286D01*
X15409686Y-12571857D01*
X15423971Y-12629000D01*
X15423971Y-12700429D01*
X15409686Y-12757571D01*
X15395400Y-12786143D01*
X15381114Y-12800429D01*
X15352543Y-12814714D01*
X15323971Y-12814714D01*
X15295400Y-12800429D01*
X15281114Y-12786143D01*
X15266828Y-12757571D01*
X15252543Y-12700429D01*
X15252543Y-12629000D01*
X15266828Y-12571857D01*
X15281114Y-12543286D01*
X15295400Y-12529000D01*
X15323971Y-12514714D01*
X15781114Y-12814714D02*
X15781114Y-12514714D01*
X15909686Y-12814714D02*
X15909686Y-12657571D01*
X15895400Y-12629000D01*
X15866828Y-12614714D01*
X15823971Y-12614714D01*
X15795400Y-12629000D01*
X15781114Y-12643286D01*
X16095400Y-12814714D02*
X16066828Y-12800429D01*
X16052543Y-12786143D01*
X16038257Y-12757571D01*
X16038257Y-12671857D01*
X16052543Y-12643286D01*
X16066828Y-12629000D01*
X16095400Y-12614714D01*
X16138257Y-12614714D01*
X16166828Y-12629000D01*
X16181114Y-12643286D01*
X16195400Y-12671857D01*
X16195400Y-12757571D01*
X16181114Y-12786143D01*
X16166828Y-12800429D01*
X16138257Y-12814714D01*
X16095400Y-12814714D01*
X16366828Y-12814714D02*
X16338257Y-12800429D01*
X16323971Y-12771857D01*
X16323971Y-12514714D01*
X16595400Y-12800429D02*
X16566828Y-12814714D01*
X16509686Y-12814714D01*
X16481114Y-12800429D01*
X16466828Y-12771857D01*
X16466828Y-12657571D01*
X16481114Y-12629000D01*
X16509686Y-12614714D01*
X16566828Y-12614714D01*
X16595400Y-12629000D01*
X16609686Y-12657571D01*
X16609686Y-12686143D01*
X16466828Y-12714714D01*
X16723971Y-12800429D02*
X16752543Y-12814714D01*
X16809686Y-12814714D01*
X16838257Y-12800429D01*
X16852543Y-12771857D01*
X16852543Y-12757571D01*
X16838257Y-12729000D01*
X16809686Y-12714714D01*
X16766828Y-12714714D01*
X16738257Y-12700429D01*
X16723971Y-12671857D01*
X16723971Y-12657571D01*
X16738257Y-12629000D01*
X16766828Y-12614714D01*
X16809686Y-12614714D01*
X16838257Y-12629000D01*
X16952543Y-12929000D02*
X16966828Y-12914714D01*
X16995400Y-12871857D01*
X17009686Y-12843286D01*
X17023971Y-12800429D01*
X17038257Y-12729000D01*
X17038257Y-12671857D01*
X17023971Y-12600429D01*
X17009686Y-12557571D01*
X16995400Y-12529000D01*
X16966828Y-12486143D01*
X16952543Y-12471857D01*
X10168684Y-13103285D02*
X10168684Y-13046716D01*
X10112115Y-13046716D01*
X10112115Y-13103285D01*
X10168684Y-13103285D01*
X10523971Y-12910714D02*
X10552543Y-12910714D01*
X10581114Y-12925000D01*
X10595400Y-12939286D01*
X10609686Y-12967857D01*
X10623971Y-13025000D01*
X10623971Y-13096429D01*
X10609686Y-13153571D01*
X10595400Y-13182143D01*
X10581114Y-13196429D01*
X10552543Y-13210714D01*
X10523971Y-13210714D01*
X10495400Y-13196429D01*
X10481114Y-13182143D01*
X10466828Y-13153571D01*
X10452543Y-13096429D01*
X10452543Y-13025000D01*
X10466828Y-12967857D01*
X10481114Y-12939286D01*
X10495400Y-12925000D01*
X10523971Y-12910714D01*
X10752543Y-13182143D02*
X10766828Y-13196429D01*
X10752543Y-13210714D01*
X10738257Y-13196429D01*
X10752543Y-13182143D01*
X10752543Y-13210714D01*
X10938257Y-13039286D02*
X10909686Y-13025000D01*
X10895400Y-13010714D01*
X10881114Y-12982143D01*
X10881114Y-12967857D01*
X10895400Y-12939286D01*
X10909686Y-12925000D01*
X10938257Y-12910714D01*
X10995400Y-12910714D01*
X11023971Y-12925000D01*
X11038257Y-12939286D01*
X11052543Y-12967857D01*
X11052543Y-12982143D01*
X11038257Y-13010714D01*
X11023971Y-13025000D01*
X10995400Y-13039286D01*
X10938257Y-13039286D01*
X10909686Y-13053571D01*
X10895400Y-13067857D01*
X10881114Y-13096429D01*
X10881114Y-13153571D01*
X10895400Y-13182143D01*
X10909686Y-13196429D01*
X10938257Y-13210714D01*
X10995400Y-13210714D01*
X11023971Y-13196429D01*
X11038257Y-13182143D01*
X11052543Y-13153571D01*
X11052543Y-13096429D01*
X11038257Y-13067857D01*
X11023971Y-13053571D01*
X10995400Y-13039286D01*
X11238257Y-12910714D02*
X11266828Y-12910714D01*
X11295400Y-12925000D01*
X11309686Y-12939286D01*
X11323971Y-12967857D01*
X11338257Y-13025000D01*
X11338257Y-13096429D01*
X11323971Y-13153571D01*
X11309686Y-13182143D01*
X11295400Y-13196429D01*
X11266828Y-13210714D01*
X11238257Y-13210714D01*
X11209686Y-13196429D01*
X11195400Y-13182143D01*
X11181114Y-13153571D01*
X11166828Y-13096429D01*
X11166828Y-13025000D01*
X11181114Y-12967857D01*
X11195400Y-12939286D01*
X11209686Y-12925000D01*
X11238257Y-12910714D01*
X11466828Y-13210714D02*
X11466828Y-13010714D01*
X11466828Y-13039286D02*
X11481114Y-13025000D01*
X11509686Y-13010714D01*
X11552543Y-13010714D01*
X11581114Y-13025000D01*
X11595400Y-13053571D01*
X11595400Y-13210714D01*
X11595400Y-13053571D02*
X11609686Y-13025000D01*
X11638257Y-13010714D01*
X11681114Y-13010714D01*
X11709686Y-13025000D01*
X11723971Y-13053571D01*
X11723971Y-13210714D01*
X11866828Y-13210714D02*
X11866828Y-13010714D01*
X11866828Y-13039286D02*
X11881114Y-13025000D01*
X11909686Y-13010714D01*
X11952543Y-13010714D01*
X11981114Y-13025000D01*
X11995400Y-13053571D01*
X11995400Y-13210714D01*
X11995400Y-13053571D02*
X12009686Y-13025000D01*
X12038257Y-13010714D01*
X12081114Y-13010714D01*
X12109686Y-13025000D01*
X12123971Y-13053571D01*
X12123971Y-13210714D01*
X12709686Y-12896429D02*
X12452543Y-13282143D01*
X13095400Y-12910714D02*
X13123971Y-12910714D01*
X13152543Y-12925000D01*
X13166828Y-12939286D01*
X13181114Y-12967857D01*
X13195400Y-13025000D01*
X13195400Y-13096429D01*
X13181114Y-13153571D01*
X13166828Y-13182143D01*
X13152543Y-13196429D01*
X13123971Y-13210714D01*
X13095400Y-13210714D01*
X13066828Y-13196429D01*
X13052543Y-13182143D01*
X13038257Y-13153571D01*
X13023971Y-13096429D01*
X13023971Y-13025000D01*
X13038257Y-12967857D01*
X13052543Y-12939286D01*
X13066828Y-12925000D01*
X13095400Y-12910714D01*
X13323971Y-13182143D02*
X13338257Y-13196429D01*
X13323971Y-13210714D01*
X13309686Y-13196429D01*
X13323971Y-13182143D01*
X13323971Y-13210714D01*
X13523971Y-12910714D02*
X13552543Y-12910714D01*
X13581114Y-12925000D01*
X13595400Y-12939286D01*
X13609686Y-12967857D01*
X13623971Y-13025000D01*
X13623971Y-13096429D01*
X13609686Y-13153571D01*
X13595400Y-13182143D01*
X13581114Y-13196429D01*
X13552543Y-13210714D01*
X13523971Y-13210714D01*
X13495400Y-13196429D01*
X13481114Y-13182143D01*
X13466828Y-13153571D01*
X13452543Y-13096429D01*
X13452543Y-13025000D01*
X13466828Y-12967857D01*
X13481114Y-12939286D01*
X13495400Y-12925000D01*
X13523971Y-12910714D01*
X13723971Y-12910714D02*
X13909686Y-12910714D01*
X13809686Y-13025000D01*
X13852543Y-13025000D01*
X13881114Y-13039286D01*
X13895400Y-13053571D01*
X13909686Y-13082143D01*
X13909686Y-13153571D01*
X13895400Y-13182143D01*
X13881114Y-13196429D01*
X13852543Y-13210714D01*
X13766828Y-13210714D01*
X13738257Y-13196429D01*
X13723971Y-13182143D01*
X14195400Y-13210714D02*
X14023971Y-13210714D01*
X14109686Y-13210714D02*
X14109686Y-12910714D01*
X14081114Y-12953571D01*
X14052543Y-12982143D01*
X14023971Y-12996429D01*
X14309686Y-12910714D02*
X14309686Y-12967857D01*
X14423971Y-12910714D02*
X14423971Y-12967857D01*
X14866828Y-13325000D02*
X14852543Y-13310714D01*
X14823971Y-13267857D01*
X14809686Y-13239286D01*
X14795400Y-13196429D01*
X14781114Y-13125000D01*
X14781114Y-13067857D01*
X14795400Y-12996429D01*
X14809686Y-12953571D01*
X14823971Y-12925000D01*
X14852543Y-12882143D01*
X14866828Y-12867857D01*
X15023971Y-13039286D02*
X14995400Y-13025000D01*
X14981114Y-13010714D01*
X14966828Y-12982143D01*
X14966828Y-12967857D01*
X14981114Y-12939286D01*
X14995400Y-12925000D01*
X15023971Y-12910714D01*
X15081114Y-12910714D01*
X15109686Y-12925000D01*
X15123971Y-12939286D01*
X15138257Y-12967857D01*
X15138257Y-12982143D01*
X15123971Y-13010714D01*
X15109686Y-13025000D01*
X15081114Y-13039286D01*
X15023971Y-13039286D01*
X14995400Y-13053571D01*
X14981114Y-13067857D01*
X14966828Y-13096429D01*
X14966828Y-13153571D01*
X14981114Y-13182143D01*
X14995400Y-13196429D01*
X15023971Y-13210714D01*
X15081114Y-13210714D01*
X15109686Y-13196429D01*
X15123971Y-13182143D01*
X15138257Y-13153571D01*
X15138257Y-13096429D01*
X15123971Y-13067857D01*
X15109686Y-13053571D01*
X15081114Y-13039286D01*
X15495400Y-13210714D02*
X15495400Y-12910714D01*
X15623971Y-13210714D02*
X15623971Y-13053571D01*
X15609686Y-13025000D01*
X15581114Y-13010714D01*
X15538257Y-13010714D01*
X15509686Y-13025000D01*
X15495400Y-13039286D01*
X15809686Y-13210714D02*
X15781114Y-13196429D01*
X15766828Y-13182143D01*
X15752543Y-13153571D01*
X15752543Y-13067857D01*
X15766828Y-13039286D01*
X15781114Y-13025000D01*
X15809686Y-13010714D01*
X15852543Y-13010714D01*
X15881114Y-13025000D01*
X15895400Y-13039286D01*
X15909686Y-13067857D01*
X15909686Y-13153571D01*
X15895400Y-13182143D01*
X15881114Y-13196429D01*
X15852543Y-13210714D01*
X15809686Y-13210714D01*
X16081114Y-13210714D02*
X16052543Y-13196429D01*
X16038257Y-13167857D01*
X16038257Y-12910714D01*
X16309686Y-13196429D02*
X16281114Y-13210714D01*
X16223971Y-13210714D01*
X16195400Y-13196429D01*
X16181114Y-13167857D01*
X16181114Y-13053571D01*
X16195400Y-13025000D01*
X16223971Y-13010714D01*
X16281114Y-13010714D01*
X16309686Y-13025000D01*
X16323971Y-13053571D01*
X16323971Y-13082143D01*
X16181114Y-13110714D01*
X16438257Y-13196429D02*
X16466828Y-13210714D01*
X16523971Y-13210714D01*
X16552543Y-13196429D01*
X16566828Y-13167857D01*
X16566828Y-13153571D01*
X16552543Y-13125000D01*
X16523971Y-13110714D01*
X16481114Y-13110714D01*
X16452543Y-13096429D01*
X16438257Y-13067857D01*
X16438257Y-13053571D01*
X16452543Y-13025000D01*
X16481114Y-13010714D01*
X16523971Y-13010714D01*
X16552543Y-13025000D01*
X16666828Y-13325000D02*
X16681114Y-13310714D01*
X16709686Y-13267857D01*
X16723971Y-13239286D01*
X16738257Y-13196429D01*
X16752543Y-13125000D01*
X16752543Y-13067857D01*
X16738257Y-12996429D01*
X16723971Y-12953571D01*
X16709686Y-12925000D01*
X16681114Y-12882143D01*
X16666828Y-12867857D01*
X10130400Y-13521000D02*
X10180400Y-13471000D01*
X10130400Y-13421000D01*
X10080400Y-13471000D01*
X10130400Y-13521000D01*
X10623971Y-13606714D02*
X10452543Y-13606714D01*
X10538257Y-13606714D02*
X10538257Y-13306714D01*
X10509686Y-13349571D01*
X10481114Y-13378143D01*
X10452543Y-13392429D01*
X10752543Y-13578143D02*
X10766828Y-13592429D01*
X10752543Y-13606714D01*
X10738257Y-13592429D01*
X10752543Y-13578143D01*
X10752543Y-13606714D01*
X10952543Y-13306714D02*
X10981114Y-13306714D01*
X11009686Y-13321000D01*
X11023971Y-13335286D01*
X11038257Y-13363857D01*
X11052543Y-13421000D01*
X11052543Y-13492429D01*
X11038257Y-13549571D01*
X11023971Y-13578143D01*
X11009686Y-13592429D01*
X10981114Y-13606714D01*
X10952543Y-13606714D01*
X10923971Y-13592429D01*
X10909686Y-13578143D01*
X10895400Y-13549571D01*
X10881114Y-13492429D01*
X10881114Y-13421000D01*
X10895400Y-13363857D01*
X10909686Y-13335286D01*
X10923971Y-13321000D01*
X10952543Y-13306714D01*
X11238257Y-13306714D02*
X11266828Y-13306714D01*
X11295400Y-13321000D01*
X11309686Y-13335286D01*
X11323971Y-13363857D01*
X11338257Y-13421000D01*
X11338257Y-13492429D01*
X11323971Y-13549571D01*
X11309686Y-13578143D01*
X11295400Y-13592429D01*
X11266828Y-13606714D01*
X11238257Y-13606714D01*
X11209686Y-13592429D01*
X11195400Y-13578143D01*
X11181114Y-13549571D01*
X11166828Y-13492429D01*
X11166828Y-13421000D01*
X11181114Y-13363857D01*
X11195400Y-13335286D01*
X11209686Y-13321000D01*
X11238257Y-13306714D01*
X11466828Y-13606714D02*
X11466828Y-13406714D01*
X11466828Y-13435286D02*
X11481114Y-13421000D01*
X11509686Y-13406714D01*
X11552543Y-13406714D01*
X11581114Y-13421000D01*
X11595400Y-13449571D01*
X11595400Y-13606714D01*
X11595400Y-13449571D02*
X11609686Y-13421000D01*
X11638257Y-13406714D01*
X11681114Y-13406714D01*
X11709686Y-13421000D01*
X11723971Y-13449571D01*
X11723971Y-13606714D01*
X11866828Y-13606714D02*
X11866828Y-13406714D01*
X11866828Y-13435286D02*
X11881114Y-13421000D01*
X11909686Y-13406714D01*
X11952543Y-13406714D01*
X11981114Y-13421000D01*
X11995400Y-13449571D01*
X11995400Y-13606714D01*
X11995400Y-13449571D02*
X12009686Y-13421000D01*
X12038257Y-13406714D01*
X12081114Y-13406714D01*
X12109686Y-13421000D01*
X12123971Y-13449571D01*
X12123971Y-13606714D01*
X12709686Y-13292429D02*
X12452543Y-13678143D01*
X13095400Y-13306714D02*
X13123971Y-13306714D01*
X13152543Y-13321000D01*
X13166828Y-13335286D01*
X13181114Y-13363857D01*
X13195400Y-13421000D01*
X13195400Y-13492429D01*
X13181114Y-13549571D01*
X13166828Y-13578143D01*
X13152543Y-13592429D01*
X13123971Y-13606714D01*
X13095400Y-13606714D01*
X13066828Y-13592429D01*
X13052543Y-13578143D01*
X13038257Y-13549571D01*
X13023971Y-13492429D01*
X13023971Y-13421000D01*
X13038257Y-13363857D01*
X13052543Y-13335286D01*
X13066828Y-13321000D01*
X13095400Y-13306714D01*
X13323971Y-13578143D02*
X13338257Y-13592429D01*
X13323971Y-13606714D01*
X13309686Y-13592429D01*
X13323971Y-13578143D01*
X13323971Y-13606714D01*
X13523971Y-13306714D02*
X13552543Y-13306714D01*
X13581114Y-13321000D01*
X13595400Y-13335286D01*
X13609686Y-13363857D01*
X13623971Y-13421000D01*
X13623971Y-13492429D01*
X13609686Y-13549571D01*
X13595400Y-13578143D01*
X13581114Y-13592429D01*
X13552543Y-13606714D01*
X13523971Y-13606714D01*
X13495400Y-13592429D01*
X13481114Y-13578143D01*
X13466828Y-13549571D01*
X13452543Y-13492429D01*
X13452543Y-13421000D01*
X13466828Y-13363857D01*
X13481114Y-13335286D01*
X13495400Y-13321000D01*
X13523971Y-13306714D01*
X13723971Y-13306714D02*
X13909686Y-13306714D01*
X13809686Y-13421000D01*
X13852543Y-13421000D01*
X13881114Y-13435286D01*
X13895400Y-13449571D01*
X13909686Y-13478143D01*
X13909686Y-13549571D01*
X13895400Y-13578143D01*
X13881114Y-13592429D01*
X13852543Y-13606714D01*
X13766828Y-13606714D01*
X13738257Y-13592429D01*
X13723971Y-13578143D01*
X14052543Y-13606714D02*
X14109686Y-13606714D01*
X14138257Y-13592429D01*
X14152543Y-13578143D01*
X14181114Y-13535286D01*
X14195400Y-13478143D01*
X14195400Y-13363857D01*
X14181114Y-13335286D01*
X14166828Y-13321000D01*
X14138257Y-13306714D01*
X14081114Y-13306714D01*
X14052543Y-13321000D01*
X14038257Y-13335286D01*
X14023971Y-13363857D01*
X14023971Y-13435286D01*
X14038257Y-13463857D01*
X14052543Y-13478143D01*
X14081114Y-13492429D01*
X14138257Y-13492429D01*
X14166828Y-13478143D01*
X14181114Y-13463857D01*
X14195400Y-13435286D01*
X14309686Y-13306714D02*
X14309686Y-13363857D01*
X14423971Y-13306714D02*
X14423971Y-13363857D01*
X14866828Y-13721000D02*
X14852543Y-13706714D01*
X14823971Y-13663857D01*
X14809686Y-13635286D01*
X14795400Y-13592429D01*
X14781114Y-13521000D01*
X14781114Y-13463857D01*
X14795400Y-13392429D01*
X14809686Y-13349571D01*
X14823971Y-13321000D01*
X14852543Y-13278143D01*
X14866828Y-13263857D01*
X14966828Y-13335286D02*
X14981114Y-13321000D01*
X15009686Y-13306714D01*
X15081114Y-13306714D01*
X15109686Y-13321000D01*
X15123971Y-13335286D01*
X15138257Y-13363857D01*
X15138257Y-13392429D01*
X15123971Y-13435286D01*
X14952543Y-13606714D01*
X15138257Y-13606714D01*
X15423971Y-13606714D02*
X15252543Y-13606714D01*
X15338257Y-13606714D02*
X15338257Y-13306714D01*
X15309686Y-13349571D01*
X15281114Y-13378143D01*
X15252543Y-13392429D01*
X15781114Y-13606714D02*
X15781114Y-13306714D01*
X15909686Y-13606714D02*
X15909686Y-13449571D01*
X15895400Y-13421000D01*
X15866828Y-13406714D01*
X15823971Y-13406714D01*
X15795400Y-13421000D01*
X15781114Y-13435286D01*
X16095400Y-13606714D02*
X16066828Y-13592429D01*
X16052543Y-13578143D01*
X16038257Y-13549571D01*
X16038257Y-13463857D01*
X16052543Y-13435286D01*
X16066828Y-13421000D01*
X16095400Y-13406714D01*
X16138257Y-13406714D01*
X16166828Y-13421000D01*
X16181114Y-13435286D01*
X16195400Y-13463857D01*
X16195400Y-13549571D01*
X16181114Y-13578143D01*
X16166828Y-13592429D01*
X16138257Y-13606714D01*
X16095400Y-13606714D01*
X16366828Y-13606714D02*
X16338257Y-13592429D01*
X16323971Y-13563857D01*
X16323971Y-13306714D01*
X16595400Y-13592429D02*
X16566828Y-13606714D01*
X16509686Y-13606714D01*
X16481114Y-13592429D01*
X16466828Y-13563857D01*
X16466828Y-13449571D01*
X16481114Y-13421000D01*
X16509686Y-13406714D01*
X16566828Y-13406714D01*
X16595400Y-13421000D01*
X16609686Y-13449571D01*
X16609686Y-13478143D01*
X16466828Y-13506714D01*
X16723971Y-13592429D02*
X16752543Y-13606714D01*
X16809686Y-13606714D01*
X16838257Y-13592429D01*
X16852543Y-13563857D01*
X16852543Y-13549571D01*
X16838257Y-13521000D01*
X16809686Y-13506714D01*
X16766828Y-13506714D01*
X16738257Y-13492429D01*
X16723971Y-13463857D01*
X16723971Y-13449571D01*
X16738257Y-13421000D01*
X16766828Y-13406714D01*
X16809686Y-13406714D01*
X16838257Y-13421000D01*
X16952543Y-13721000D02*
X16966828Y-13706714D01*
X16995400Y-13663857D01*
X17009686Y-13635286D01*
X17023971Y-13592429D01*
X17038257Y-13521000D01*
X17038257Y-13463857D01*
X17023971Y-13392429D01*
X17009686Y-13349571D01*
X16995400Y-13321000D01*
X16966828Y-13278143D01*
X16952543Y-13263857D01*
X10078400Y-13816000D02*
X10180400Y-13918000D01*
X10180400Y-13816000D02*
X10078400Y-13918000D01*
X10180400Y-13867000D02*
G75*
G03X10180400Y-13867000I-51000J0D01*
G01*
X10623971Y-14002714D02*
X10452543Y-14002714D01*
X10538257Y-14002714D02*
X10538257Y-13702714D01*
X10509686Y-13745571D01*
X10481114Y-13774143D01*
X10452543Y-13788429D01*
X10752543Y-13974143D02*
X10766828Y-13988429D01*
X10752543Y-14002714D01*
X10738257Y-13988429D01*
X10752543Y-13974143D01*
X10752543Y-14002714D01*
X10952543Y-13702714D02*
X10981114Y-13702714D01*
X11009686Y-13717000D01*
X11023971Y-13731286D01*
X11038257Y-13759857D01*
X11052543Y-13817000D01*
X11052543Y-13888429D01*
X11038257Y-13945571D01*
X11023971Y-13974143D01*
X11009686Y-13988429D01*
X10981114Y-14002714D01*
X10952543Y-14002714D01*
X10923971Y-13988429D01*
X10909686Y-13974143D01*
X10895400Y-13945571D01*
X10881114Y-13888429D01*
X10881114Y-13817000D01*
X10895400Y-13759857D01*
X10909686Y-13731286D01*
X10923971Y-13717000D01*
X10952543Y-13702714D01*
X11166828Y-13731286D02*
X11181114Y-13717000D01*
X11209686Y-13702714D01*
X11281114Y-13702714D01*
X11309686Y-13717000D01*
X11323971Y-13731286D01*
X11338257Y-13759857D01*
X11338257Y-13788429D01*
X11323971Y-13831286D01*
X11152543Y-14002714D01*
X11338257Y-14002714D01*
X11466828Y-14002714D02*
X11466828Y-13802714D01*
X11466828Y-13831286D02*
X11481114Y-13817000D01*
X11509686Y-13802714D01*
X11552543Y-13802714D01*
X11581114Y-13817000D01*
X11595400Y-13845571D01*
X11595400Y-14002714D01*
X11595400Y-13845571D02*
X11609686Y-13817000D01*
X11638257Y-13802714D01*
X11681114Y-13802714D01*
X11709686Y-13817000D01*
X11723971Y-13845571D01*
X11723971Y-14002714D01*
X11866828Y-14002714D02*
X11866828Y-13802714D01*
X11866828Y-13831286D02*
X11881114Y-13817000D01*
X11909686Y-13802714D01*
X11952543Y-13802714D01*
X11981114Y-13817000D01*
X11995400Y-13845571D01*
X11995400Y-14002714D01*
X11995400Y-13845571D02*
X12009686Y-13817000D01*
X12038257Y-13802714D01*
X12081114Y-13802714D01*
X12109686Y-13817000D01*
X12123971Y-13845571D01*
X12123971Y-14002714D01*
X12709686Y-13688429D02*
X12452543Y-14074143D01*
X13095400Y-13702714D02*
X13123971Y-13702714D01*
X13152543Y-13717000D01*
X13166828Y-13731286D01*
X13181114Y-13759857D01*
X13195400Y-13817000D01*
X13195400Y-13888429D01*
X13181114Y-13945571D01*
X13166828Y-13974143D01*
X13152543Y-13988429D01*
X13123971Y-14002714D01*
X13095400Y-14002714D01*
X13066828Y-13988429D01*
X13052543Y-13974143D01*
X13038257Y-13945571D01*
X13023971Y-13888429D01*
X13023971Y-13817000D01*
X13038257Y-13759857D01*
X13052543Y-13731286D01*
X13066828Y-13717000D01*
X13095400Y-13702714D01*
X13323971Y-13974143D02*
X13338257Y-13988429D01*
X13323971Y-14002714D01*
X13309686Y-13988429D01*
X13323971Y-13974143D01*
X13323971Y-14002714D01*
X13523971Y-13702714D02*
X13552543Y-13702714D01*
X13581114Y-13717000D01*
X13595400Y-13731286D01*
X13609686Y-13759857D01*
X13623971Y-13817000D01*
X13623971Y-13888429D01*
X13609686Y-13945571D01*
X13595400Y-13974143D01*
X13581114Y-13988429D01*
X13552543Y-14002714D01*
X13523971Y-14002714D01*
X13495400Y-13988429D01*
X13481114Y-13974143D01*
X13466828Y-13945571D01*
X13452543Y-13888429D01*
X13452543Y-13817000D01*
X13466828Y-13759857D01*
X13481114Y-13731286D01*
X13495400Y-13717000D01*
X13523971Y-13702714D01*
X13881114Y-13802714D02*
X13881114Y-14002714D01*
X13809686Y-13688429D02*
X13738257Y-13902714D01*
X13923971Y-13902714D01*
X14095400Y-13702714D02*
X14123971Y-13702714D01*
X14152543Y-13717000D01*
X14166828Y-13731286D01*
X14181114Y-13759857D01*
X14195400Y-13817000D01*
X14195400Y-13888429D01*
X14181114Y-13945571D01*
X14166828Y-13974143D01*
X14152543Y-13988429D01*
X14123971Y-14002714D01*
X14095400Y-14002714D01*
X14066828Y-13988429D01*
X14052543Y-13974143D01*
X14038257Y-13945571D01*
X14023971Y-13888429D01*
X14023971Y-13817000D01*
X14038257Y-13759857D01*
X14052543Y-13731286D01*
X14066828Y-13717000D01*
X14095400Y-13702714D01*
X14309686Y-13702714D02*
X14309686Y-13759857D01*
X14423971Y-13702714D02*
X14423971Y-13759857D01*
X14866828Y-14117000D02*
X14852543Y-14102714D01*
X14823971Y-14059857D01*
X14809686Y-14031286D01*
X14795400Y-13988429D01*
X14781114Y-13917000D01*
X14781114Y-13859857D01*
X14795400Y-13788429D01*
X14809686Y-13745571D01*
X14823971Y-13717000D01*
X14852543Y-13674143D01*
X14866828Y-13659857D01*
X15138257Y-14002714D02*
X14966828Y-14002714D01*
X15052543Y-14002714D02*
X15052543Y-13702714D01*
X15023971Y-13745571D01*
X14995400Y-13774143D01*
X14966828Y-13788429D01*
X15323971Y-13702714D02*
X15352543Y-13702714D01*
X15381114Y-13717000D01*
X15395400Y-13731286D01*
X15409686Y-13759857D01*
X15423971Y-13817000D01*
X15423971Y-13888429D01*
X15409686Y-13945571D01*
X15395400Y-13974143D01*
X15381114Y-13988429D01*
X15352543Y-14002714D01*
X15323971Y-14002714D01*
X15295400Y-13988429D01*
X15281114Y-13974143D01*
X15266828Y-13945571D01*
X15252543Y-13888429D01*
X15252543Y-13817000D01*
X15266828Y-13759857D01*
X15281114Y-13731286D01*
X15295400Y-13717000D01*
X15323971Y-13702714D01*
X15781114Y-14002714D02*
X15781114Y-13702714D01*
X15909686Y-14002714D02*
X15909686Y-13845571D01*
X15895400Y-13817000D01*
X15866828Y-13802714D01*
X15823971Y-13802714D01*
X15795400Y-13817000D01*
X15781114Y-13831286D01*
X16095400Y-14002714D02*
X16066828Y-13988429D01*
X16052543Y-13974143D01*
X16038257Y-13945571D01*
X16038257Y-13859857D01*
X16052543Y-13831286D01*
X16066828Y-13817000D01*
X16095400Y-13802714D01*
X16138257Y-13802714D01*
X16166828Y-13817000D01*
X16181114Y-13831286D01*
X16195400Y-13859857D01*
X16195400Y-13945571D01*
X16181114Y-13974143D01*
X16166828Y-13988429D01*
X16138257Y-14002714D01*
X16095400Y-14002714D01*
X16366828Y-14002714D02*
X16338257Y-13988429D01*
X16323971Y-13959857D01*
X16323971Y-13702714D01*
X16595400Y-13988429D02*
X16566828Y-14002714D01*
X16509686Y-14002714D01*
X16481114Y-13988429D01*
X16466828Y-13959857D01*
X16466828Y-13845571D01*
X16481114Y-13817000D01*
X16509686Y-13802714D01*
X16566828Y-13802714D01*
X16595400Y-13817000D01*
X16609686Y-13845571D01*
X16609686Y-13874143D01*
X16466828Y-13902714D01*
X16723971Y-13988429D02*
X16752543Y-14002714D01*
X16809686Y-14002714D01*
X16838257Y-13988429D01*
X16852543Y-13959857D01*
X16852543Y-13945571D01*
X16838257Y-13917000D01*
X16809686Y-13902714D01*
X16766828Y-13902714D01*
X16738257Y-13888429D01*
X16723971Y-13859857D01*
X16723971Y-13845571D01*
X16738257Y-13817000D01*
X16766828Y-13802714D01*
X16809686Y-13802714D01*
X16838257Y-13817000D01*
X16952543Y-14117000D02*
X16966828Y-14102714D01*
X16995400Y-14059857D01*
X17009686Y-14031286D01*
X17023971Y-13988429D01*
X17038257Y-13917000D01*
X17038257Y-13859857D01*
X17023971Y-13788429D01*
X17009686Y-13745571D01*
X16995400Y-13717000D01*
X16966828Y-13674143D01*
X16952543Y-13659857D01*
X10070400Y-14208000D02*
X10180400Y-14318000D01*
X10180400Y-14208000D02*
X10070400Y-14318000D01*
X10125400Y-14208000D02*
X10125400Y-14318000D01*
X10070400Y-14263000D02*
X10180400Y-14263000D01*
X10623971Y-14398714D02*
X10452543Y-14398714D01*
X10538257Y-14398714D02*
X10538257Y-14098714D01*
X10509686Y-14141571D01*
X10481114Y-14170143D01*
X10452543Y-14184429D01*
X10752543Y-14370143D02*
X10766828Y-14384429D01*
X10752543Y-14398714D01*
X10738257Y-14384429D01*
X10752543Y-14370143D01*
X10752543Y-14398714D01*
X11052543Y-14398714D02*
X10881114Y-14398714D01*
X10966828Y-14398714D02*
X10966828Y-14098714D01*
X10938257Y-14141571D01*
X10909686Y-14170143D01*
X10881114Y-14184429D01*
X11238257Y-14098714D02*
X11266828Y-14098714D01*
X11295400Y-14113000D01*
X11309686Y-14127286D01*
X11323971Y-14155857D01*
X11338257Y-14213000D01*
X11338257Y-14284429D01*
X11323971Y-14341571D01*
X11309686Y-14370143D01*
X11295400Y-14384429D01*
X11266828Y-14398714D01*
X11238257Y-14398714D01*
X11209686Y-14384429D01*
X11195400Y-14370143D01*
X11181114Y-14341571D01*
X11166828Y-14284429D01*
X11166828Y-14213000D01*
X11181114Y-14155857D01*
X11195400Y-14127286D01*
X11209686Y-14113000D01*
X11238257Y-14098714D01*
X11466828Y-14398714D02*
X11466828Y-14198714D01*
X11466828Y-14227286D02*
X11481114Y-14213000D01*
X11509686Y-14198714D01*
X11552543Y-14198714D01*
X11581114Y-14213000D01*
X11595400Y-14241571D01*
X11595400Y-14398714D01*
X11595400Y-14241571D02*
X11609686Y-14213000D01*
X11638257Y-14198714D01*
X11681114Y-14198714D01*
X11709686Y-14213000D01*
X11723971Y-14241571D01*
X11723971Y-14398714D01*
X11866828Y-14398714D02*
X11866828Y-14198714D01*
X11866828Y-14227286D02*
X11881114Y-14213000D01*
X11909686Y-14198714D01*
X11952543Y-14198714D01*
X11981114Y-14213000D01*
X11995400Y-14241571D01*
X11995400Y-14398714D01*
X11995400Y-14241571D02*
X12009686Y-14213000D01*
X12038257Y-14198714D01*
X12081114Y-14198714D01*
X12109686Y-14213000D01*
X12123971Y-14241571D01*
X12123971Y-14398714D01*
X12709686Y-14084429D02*
X12452543Y-14470143D01*
X13095400Y-14098714D02*
X13123971Y-14098714D01*
X13152543Y-14113000D01*
X13166828Y-14127286D01*
X13181114Y-14155857D01*
X13195400Y-14213000D01*
X13195400Y-14284429D01*
X13181114Y-14341571D01*
X13166828Y-14370143D01*
X13152543Y-14384429D01*
X13123971Y-14398714D01*
X13095400Y-14398714D01*
X13066828Y-14384429D01*
X13052543Y-14370143D01*
X13038257Y-14341571D01*
X13023971Y-14284429D01*
X13023971Y-14213000D01*
X13038257Y-14155857D01*
X13052543Y-14127286D01*
X13066828Y-14113000D01*
X13095400Y-14098714D01*
X13323971Y-14370143D02*
X13338257Y-14384429D01*
X13323971Y-14398714D01*
X13309686Y-14384429D01*
X13323971Y-14370143D01*
X13323971Y-14398714D01*
X13523971Y-14098714D02*
X13552543Y-14098714D01*
X13581114Y-14113000D01*
X13595400Y-14127286D01*
X13609686Y-14155857D01*
X13623971Y-14213000D01*
X13623971Y-14284429D01*
X13609686Y-14341571D01*
X13595400Y-14370143D01*
X13581114Y-14384429D01*
X13552543Y-14398714D01*
X13523971Y-14398714D01*
X13495400Y-14384429D01*
X13481114Y-14370143D01*
X13466828Y-14341571D01*
X13452543Y-14284429D01*
X13452543Y-14213000D01*
X13466828Y-14155857D01*
X13481114Y-14127286D01*
X13495400Y-14113000D01*
X13523971Y-14098714D01*
X13881114Y-14198714D02*
X13881114Y-14398714D01*
X13809686Y-14084429D02*
X13738257Y-14298714D01*
X13923971Y-14298714D01*
X14009686Y-14098714D02*
X14195400Y-14098714D01*
X14095400Y-14213000D01*
X14138257Y-14213000D01*
X14166828Y-14227286D01*
X14181114Y-14241571D01*
X14195400Y-14270143D01*
X14195400Y-14341571D01*
X14181114Y-14370143D01*
X14166828Y-14384429D01*
X14138257Y-14398714D01*
X14052543Y-14398714D01*
X14023971Y-14384429D01*
X14009686Y-14370143D01*
X14309686Y-14098714D02*
X14309686Y-14155857D01*
X14423971Y-14098714D02*
X14423971Y-14155857D01*
X14866828Y-14513000D02*
X14852543Y-14498714D01*
X14823971Y-14455857D01*
X14809686Y-14427286D01*
X14795400Y-14384429D01*
X14781114Y-14313000D01*
X14781114Y-14255857D01*
X14795400Y-14184429D01*
X14809686Y-14141571D01*
X14823971Y-14113000D01*
X14852543Y-14070143D01*
X14866828Y-14055857D01*
X15123971Y-14098714D02*
X14981114Y-14098714D01*
X14966828Y-14241571D01*
X14981114Y-14227286D01*
X15009686Y-14213000D01*
X15081114Y-14213000D01*
X15109686Y-14227286D01*
X15123971Y-14241571D01*
X15138257Y-14270143D01*
X15138257Y-14341571D01*
X15123971Y-14370143D01*
X15109686Y-14384429D01*
X15081114Y-14398714D01*
X15009686Y-14398714D01*
X14981114Y-14384429D01*
X14966828Y-14370143D01*
X15495400Y-14398714D02*
X15495400Y-14098714D01*
X15623971Y-14398714D02*
X15623971Y-14241571D01*
X15609686Y-14213000D01*
X15581114Y-14198714D01*
X15538257Y-14198714D01*
X15509686Y-14213000D01*
X15495400Y-14227286D01*
X15809686Y-14398714D02*
X15781114Y-14384429D01*
X15766828Y-14370143D01*
X15752543Y-14341571D01*
X15752543Y-14255857D01*
X15766828Y-14227286D01*
X15781114Y-14213000D01*
X15809686Y-14198714D01*
X15852543Y-14198714D01*
X15881114Y-14213000D01*
X15895400Y-14227286D01*
X15909686Y-14255857D01*
X15909686Y-14341571D01*
X15895400Y-14370143D01*
X15881114Y-14384429D01*
X15852543Y-14398714D01*
X15809686Y-14398714D01*
X16081114Y-14398714D02*
X16052543Y-14384429D01*
X16038257Y-14355857D01*
X16038257Y-14098714D01*
X16309686Y-14384429D02*
X16281114Y-14398714D01*
X16223971Y-14398714D01*
X16195400Y-14384429D01*
X16181114Y-14355857D01*
X16181114Y-14241571D01*
X16195400Y-14213000D01*
X16223971Y-14198714D01*
X16281114Y-14198714D01*
X16309686Y-14213000D01*
X16323971Y-14241571D01*
X16323971Y-14270143D01*
X16181114Y-14298714D01*
X16438257Y-14384429D02*
X16466828Y-14398714D01*
X16523971Y-14398714D01*
X16552543Y-14384429D01*
X16566828Y-14355857D01*
X16566828Y-14341571D01*
X16552543Y-14313000D01*
X16523971Y-14298714D01*
X16481114Y-14298714D01*
X16452543Y-14284429D01*
X16438257Y-14255857D01*
X16438257Y-14241571D01*
X16452543Y-14213000D01*
X16481114Y-14198714D01*
X16523971Y-14198714D01*
X16552543Y-14213000D01*
X16666828Y-14513000D02*
X16681114Y-14498714D01*
X16709686Y-14455857D01*
X16723971Y-14427286D01*
X16738257Y-14384429D01*
X16752543Y-14313000D01*
X16752543Y-14255857D01*
X16738257Y-14184429D01*
X16723971Y-14141571D01*
X16709686Y-14113000D01*
X16681114Y-14070143D01*
X16666828Y-14055857D01*
X10028400Y-14583000D02*
X10180400Y-14735000D01*
X10180400Y-14583000D02*
X10028400Y-14735000D01*
X10158141Y-14712741D02*
X10158141Y-14605259D01*
X10050659Y-14605259D01*
X10050659Y-14712741D01*
X10158141Y-14712741D01*
X10623971Y-14794714D02*
X10452543Y-14794714D01*
X10538257Y-14794714D02*
X10538257Y-14494714D01*
X10509686Y-14537571D01*
X10481114Y-14566143D01*
X10452543Y-14580429D01*
X10752543Y-14766143D02*
X10766828Y-14780429D01*
X10752543Y-14794714D01*
X10738257Y-14780429D01*
X10752543Y-14766143D01*
X10752543Y-14794714D01*
X11038257Y-14494714D02*
X10895400Y-14494714D01*
X10881114Y-14637571D01*
X10895400Y-14623286D01*
X10923971Y-14609000D01*
X10995400Y-14609000D01*
X11023971Y-14623286D01*
X11038257Y-14637571D01*
X11052543Y-14666143D01*
X11052543Y-14737571D01*
X11038257Y-14766143D01*
X11023971Y-14780429D01*
X10995400Y-14794714D01*
X10923971Y-14794714D01*
X10895400Y-14780429D01*
X10881114Y-14766143D01*
X11166828Y-14523286D02*
X11181114Y-14509000D01*
X11209686Y-14494714D01*
X11281114Y-14494714D01*
X11309686Y-14509000D01*
X11323971Y-14523286D01*
X11338257Y-14551857D01*
X11338257Y-14580429D01*
X11323971Y-14623286D01*
X11152543Y-14794714D01*
X11338257Y-14794714D01*
X11466828Y-14794714D02*
X11466828Y-14594714D01*
X11466828Y-14623286D02*
X11481114Y-14609000D01*
X11509686Y-14594714D01*
X11552543Y-14594714D01*
X11581114Y-14609000D01*
X11595400Y-14637571D01*
X11595400Y-14794714D01*
X11595400Y-14637571D02*
X11609686Y-14609000D01*
X11638257Y-14594714D01*
X11681114Y-14594714D01*
X11709686Y-14609000D01*
X11723971Y-14637571D01*
X11723971Y-14794714D01*
X11866828Y-14794714D02*
X11866828Y-14594714D01*
X11866828Y-14623286D02*
X11881114Y-14609000D01*
X11909686Y-14594714D01*
X11952543Y-14594714D01*
X11981114Y-14609000D01*
X11995400Y-14637571D01*
X11995400Y-14794714D01*
X11995400Y-14637571D02*
X12009686Y-14609000D01*
X12038257Y-14594714D01*
X12081114Y-14594714D01*
X12109686Y-14609000D01*
X12123971Y-14637571D01*
X12123971Y-14794714D01*
X12709686Y-14480429D02*
X12452543Y-14866143D01*
X13095400Y-14494714D02*
X13123971Y-14494714D01*
X13152543Y-14509000D01*
X13166828Y-14523286D01*
X13181114Y-14551857D01*
X13195400Y-14609000D01*
X13195400Y-14680429D01*
X13181114Y-14737571D01*
X13166828Y-14766143D01*
X13152543Y-14780429D01*
X13123971Y-14794714D01*
X13095400Y-14794714D01*
X13066828Y-14780429D01*
X13052543Y-14766143D01*
X13038257Y-14737571D01*
X13023971Y-14680429D01*
X13023971Y-14609000D01*
X13038257Y-14551857D01*
X13052543Y-14523286D01*
X13066828Y-14509000D01*
X13095400Y-14494714D01*
X13323971Y-14766143D02*
X13338257Y-14780429D01*
X13323971Y-14794714D01*
X13309686Y-14780429D01*
X13323971Y-14766143D01*
X13323971Y-14794714D01*
X13523971Y-14494714D02*
X13552543Y-14494714D01*
X13581114Y-14509000D01*
X13595400Y-14523286D01*
X13609686Y-14551857D01*
X13623971Y-14609000D01*
X13623971Y-14680429D01*
X13609686Y-14737571D01*
X13595400Y-14766143D01*
X13581114Y-14780429D01*
X13552543Y-14794714D01*
X13523971Y-14794714D01*
X13495400Y-14780429D01*
X13481114Y-14766143D01*
X13466828Y-14737571D01*
X13452543Y-14680429D01*
X13452543Y-14609000D01*
X13466828Y-14551857D01*
X13481114Y-14523286D01*
X13495400Y-14509000D01*
X13523971Y-14494714D01*
X13881114Y-14494714D02*
X13823971Y-14494714D01*
X13795400Y-14509000D01*
X13781114Y-14523286D01*
X13752543Y-14566143D01*
X13738257Y-14623286D01*
X13738257Y-14737571D01*
X13752543Y-14766143D01*
X13766828Y-14780429D01*
X13795400Y-14794714D01*
X13852543Y-14794714D01*
X13881114Y-14780429D01*
X13895400Y-14766143D01*
X13909686Y-14737571D01*
X13909686Y-14666143D01*
X13895400Y-14637571D01*
X13881114Y-14623286D01*
X13852543Y-14609000D01*
X13795400Y-14609000D01*
X13766828Y-14623286D01*
X13752543Y-14637571D01*
X13738257Y-14666143D01*
X14095400Y-14494714D02*
X14123971Y-14494714D01*
X14152543Y-14509000D01*
X14166828Y-14523286D01*
X14181114Y-14551857D01*
X14195400Y-14609000D01*
X14195400Y-14680429D01*
X14181114Y-14737571D01*
X14166828Y-14766143D01*
X14152543Y-14780429D01*
X14123971Y-14794714D01*
X14095400Y-14794714D01*
X14066828Y-14780429D01*
X14052543Y-14766143D01*
X14038257Y-14737571D01*
X14023971Y-14680429D01*
X14023971Y-14609000D01*
X14038257Y-14551857D01*
X14052543Y-14523286D01*
X14066828Y-14509000D01*
X14095400Y-14494714D01*
X14309686Y-14494714D02*
X14309686Y-14551857D01*
X14423971Y-14494714D02*
X14423971Y-14551857D01*
X14866828Y-14909000D02*
X14852543Y-14894714D01*
X14823971Y-14851857D01*
X14809686Y-14823286D01*
X14795400Y-14780429D01*
X14781114Y-14709000D01*
X14781114Y-14651857D01*
X14795400Y-14580429D01*
X14809686Y-14537571D01*
X14823971Y-14509000D01*
X14852543Y-14466143D01*
X14866828Y-14451857D01*
X14966828Y-14523286D02*
X14981114Y-14509000D01*
X15009686Y-14494714D01*
X15081114Y-14494714D01*
X15109686Y-14509000D01*
X15123971Y-14523286D01*
X15138257Y-14551857D01*
X15138257Y-14580429D01*
X15123971Y-14623286D01*
X14952543Y-14794714D01*
X15138257Y-14794714D01*
X15495400Y-14794714D02*
X15495400Y-14494714D01*
X15623971Y-14794714D02*
X15623971Y-14637571D01*
X15609686Y-14609000D01*
X15581114Y-14594714D01*
X15538257Y-14594714D01*
X15509686Y-14609000D01*
X15495400Y-14623286D01*
X15809686Y-14794714D02*
X15781114Y-14780429D01*
X15766828Y-14766143D01*
X15752543Y-14737571D01*
X15752543Y-14651857D01*
X15766828Y-14623286D01*
X15781114Y-14609000D01*
X15809686Y-14594714D01*
X15852543Y-14594714D01*
X15881114Y-14609000D01*
X15895400Y-14623286D01*
X15909686Y-14651857D01*
X15909686Y-14737571D01*
X15895400Y-14766143D01*
X15881114Y-14780429D01*
X15852543Y-14794714D01*
X15809686Y-14794714D01*
X16081114Y-14794714D02*
X16052543Y-14780429D01*
X16038257Y-14751857D01*
X16038257Y-14494714D01*
X16309686Y-14780429D02*
X16281114Y-14794714D01*
X16223971Y-14794714D01*
X16195400Y-14780429D01*
X16181114Y-14751857D01*
X16181114Y-14637571D01*
X16195400Y-14609000D01*
X16223971Y-14594714D01*
X16281114Y-14594714D01*
X16309686Y-14609000D01*
X16323971Y-14637571D01*
X16323971Y-14666143D01*
X16181114Y-14694714D01*
X16438257Y-14780429D02*
X16466828Y-14794714D01*
X16523971Y-14794714D01*
X16552543Y-14780429D01*
X16566828Y-14751857D01*
X16566828Y-14737571D01*
X16552543Y-14709000D01*
X16523971Y-14694714D01*
X16481114Y-14694714D01*
X16452543Y-14680429D01*
X16438257Y-14651857D01*
X16438257Y-14637571D01*
X16452543Y-14609000D01*
X16481114Y-14594714D01*
X16523971Y-14594714D01*
X16552543Y-14609000D01*
X16666828Y-14909000D02*
X16681114Y-14894714D01*
X16709686Y-14851857D01*
X16723971Y-14823286D01*
X16738257Y-14780429D01*
X16752543Y-14709000D01*
X16752543Y-14651857D01*
X16738257Y-14580429D01*
X16723971Y-14537571D01*
X16709686Y-14509000D01*
X16681114Y-14466143D01*
X16666828Y-14451857D01*
M02*
