G04 #@! TF.GenerationSoftware,KiCad,Pcbnew,(5.1.5)-3*
G04 #@! TF.CreationDate,2022-07-10T23:47:25+02:00*
G04 #@! TF.ProjectId,rgbw_12v_controller,72676277-5f31-4327-965f-636f6e74726f,rev?*
G04 #@! TF.SameCoordinates,Original*
G04 #@! TF.FileFunction,Legend,Top*
G04 #@! TF.FilePolarity,Positive*
%FSLAX46Y46*%
G04 Gerber Fmt 4.6, Leading zero omitted, Abs format (unit mm)*
G04 Created by KiCad (PCBNEW (5.1.5)-3) date 2022-07-10 23:47:25*
%MOMM*%
%LPD*%
G04 APERTURE LIST*
%ADD10C,0.150000*%
%ADD11C,0.120000*%
%ADD12C,0.200000*%
%ADD13C,0.300000*%
%ADD14C,0.100000*%
G04 APERTURE END LIST*
D10*
X166536761Y-103703380D02*
X165965333Y-103703380D01*
X166251047Y-103703380D02*
X166251047Y-102703380D01*
X166155809Y-102846238D01*
X166060571Y-102941476D01*
X165965333Y-102989095D01*
X167155809Y-102703380D02*
X167251047Y-102703380D01*
X167346285Y-102751000D01*
X167393904Y-102798619D01*
X167441523Y-102893857D01*
X167489142Y-103084333D01*
X167489142Y-103322428D01*
X167441523Y-103512904D01*
X167393904Y-103608142D01*
X167346285Y-103655761D01*
X167251047Y-103703380D01*
X167155809Y-103703380D01*
X167060571Y-103655761D01*
X167012952Y-103608142D01*
X166965333Y-103512904D01*
X166917714Y-103322428D01*
X166917714Y-103084333D01*
X166965333Y-102893857D01*
X167012952Y-102798619D01*
X167060571Y-102751000D01*
X167155809Y-102703380D01*
X167917714Y-103703380D02*
X167917714Y-102703380D01*
X168012952Y-103322428D02*
X168298666Y-103703380D01*
X168298666Y-103036714D02*
X167917714Y-103417666D01*
X187640980Y-57680171D02*
X188640980Y-57442076D01*
X187926695Y-57251600D01*
X188640980Y-57061123D01*
X187640980Y-56823028D01*
X202779380Y-81771666D02*
X202779380Y-81962142D01*
X202827000Y-82057380D01*
X202874619Y-82105000D01*
X203017476Y-82200238D01*
X203207952Y-82247857D01*
X203588904Y-82247857D01*
X203684142Y-82200238D01*
X203731761Y-82152619D01*
X203779380Y-82057380D01*
X203779380Y-81866904D01*
X203731761Y-81771666D01*
X203684142Y-81724047D01*
X203588904Y-81676428D01*
X203350809Y-81676428D01*
X203255571Y-81724047D01*
X203207952Y-81771666D01*
X203160333Y-81866904D01*
X203160333Y-82057380D01*
X203207952Y-82152619D01*
X203255571Y-82200238D01*
X203350809Y-82247857D01*
X202874619Y-81295476D02*
X202827000Y-81247857D01*
X202779380Y-81152619D01*
X202779380Y-80914523D01*
X202827000Y-80819285D01*
X202874619Y-80771666D01*
X202969857Y-80724047D01*
X203065095Y-80724047D01*
X203207952Y-80771666D01*
X203779380Y-81343095D01*
X203779380Y-80724047D01*
X203731761Y-80247857D02*
X203779380Y-80247857D01*
X203874619Y-80295476D01*
X203922238Y-80343095D01*
X202874619Y-79866904D02*
X202827000Y-79819285D01*
X202779380Y-79724047D01*
X202779380Y-79485952D01*
X202827000Y-79390714D01*
X202874619Y-79343095D01*
X202969857Y-79295476D01*
X203065095Y-79295476D01*
X203207952Y-79343095D01*
X203779380Y-79914523D01*
X203779380Y-79295476D01*
X202779380Y-78962142D02*
X202779380Y-78343095D01*
X203160333Y-78676428D01*
X203160333Y-78533571D01*
X203207952Y-78438333D01*
X203255571Y-78390714D01*
X203350809Y-78343095D01*
X203588904Y-78343095D01*
X203684142Y-78390714D01*
X203731761Y-78438333D01*
X203779380Y-78533571D01*
X203779380Y-78819285D01*
X203731761Y-78914523D01*
X203684142Y-78962142D01*
X202779380Y-77724047D02*
X202779380Y-77628809D01*
X202827000Y-77533571D01*
X202874619Y-77485952D01*
X202969857Y-77438333D01*
X203160333Y-77390714D01*
X203398428Y-77390714D01*
X203588904Y-77438333D01*
X203684142Y-77485952D01*
X203731761Y-77533571D01*
X203779380Y-77628809D01*
X203779380Y-77724047D01*
X203731761Y-77819285D01*
X203684142Y-77866904D01*
X203588904Y-77914523D01*
X203398428Y-77962142D01*
X203160333Y-77962142D01*
X202969857Y-77914523D01*
X202874619Y-77866904D01*
X202827000Y-77819285D01*
X202779380Y-77724047D01*
X203779380Y-76200238D02*
X203112714Y-76200238D01*
X203207952Y-76200238D02*
X203160333Y-76152619D01*
X203112714Y-76057380D01*
X203112714Y-75914523D01*
X203160333Y-75819285D01*
X203255571Y-75771666D01*
X203779380Y-75771666D01*
X203255571Y-75771666D02*
X203160333Y-75724047D01*
X203112714Y-75628809D01*
X203112714Y-75485952D01*
X203160333Y-75390714D01*
X203255571Y-75343095D01*
X203779380Y-75343095D01*
X203779380Y-74866904D02*
X203112714Y-74866904D01*
X203207952Y-74866904D02*
X203160333Y-74819285D01*
X203112714Y-74724047D01*
X203112714Y-74581190D01*
X203160333Y-74485952D01*
X203255571Y-74438333D01*
X203779380Y-74438333D01*
X203255571Y-74438333D02*
X203160333Y-74390714D01*
X203112714Y-74295476D01*
X203112714Y-74152619D01*
X203160333Y-74057380D01*
X203255571Y-74009761D01*
X203779380Y-74009761D01*
D11*
X202057000Y-109220000D02*
X202057000Y-46990000D01*
X197612000Y-109220000D02*
X202643421Y-109220000D01*
X197612000Y-46990000D02*
X202643421Y-46990000D01*
X202057000Y-46990000D02*
X202643421Y-48116504D01*
X202057000Y-46990000D02*
X201470579Y-48116504D01*
X202057000Y-109220000D02*
X202643421Y-108093496D01*
X202057000Y-109220000D02*
X201470579Y-108093496D01*
D10*
X199835476Y-81621624D02*
X199833312Y-82097809D01*
X200309281Y-82147592D01*
X200261879Y-82099757D01*
X200214693Y-82004304D01*
X200215775Y-81766211D01*
X200263827Y-81671190D01*
X200311662Y-81623788D01*
X200407115Y-81576602D01*
X200645208Y-81577685D01*
X200740229Y-81625736D01*
X200787631Y-81673571D01*
X200834816Y-81769025D01*
X200833734Y-82007117D01*
X200785683Y-82102138D01*
X200737848Y-82149540D01*
X199839805Y-80669252D02*
X199837641Y-81145438D01*
X200313610Y-81195221D01*
X200266208Y-81147386D01*
X200219022Y-81051932D01*
X200220104Y-80813840D01*
X200268156Y-80718819D01*
X200315991Y-80671417D01*
X200411444Y-80624231D01*
X200649537Y-80625314D01*
X200744558Y-80673365D01*
X200791960Y-80721200D01*
X200839145Y-80816654D01*
X200838063Y-81054746D01*
X200790012Y-81149767D01*
X200742177Y-81197169D01*
X200794557Y-80149777D02*
X200842176Y-80149994D01*
X200937196Y-80198045D01*
X200984598Y-80245880D01*
X200273350Y-79575974D02*
X200225299Y-79670994D01*
X200177464Y-79718396D01*
X200082010Y-79765582D01*
X200034392Y-79765366D01*
X199939371Y-79717314D01*
X199891969Y-79669479D01*
X199844783Y-79574026D01*
X199845649Y-79383551D01*
X199893701Y-79288531D01*
X199941536Y-79241129D01*
X200036989Y-79193943D01*
X200084608Y-79194159D01*
X200179628Y-79242211D01*
X200227030Y-79290046D01*
X200274216Y-79385499D01*
X200273350Y-79575974D01*
X200320536Y-79671427D01*
X200367938Y-79719262D01*
X200462959Y-79767314D01*
X200653433Y-79768180D01*
X200748887Y-79720994D01*
X200796722Y-79673592D01*
X200844773Y-79578571D01*
X200845639Y-79388097D01*
X200798453Y-79292643D01*
X200751051Y-79244808D01*
X200656030Y-79196757D01*
X200465556Y-79195891D01*
X200370103Y-79243077D01*
X200322268Y-79290479D01*
X200274216Y-79385499D01*
X200277679Y-78623603D02*
X200229628Y-78718623D01*
X200181793Y-78766025D01*
X200086339Y-78813211D01*
X200038721Y-78812995D01*
X199943700Y-78764943D01*
X199896298Y-78717108D01*
X199849112Y-78621655D01*
X199849978Y-78431180D01*
X199898030Y-78336160D01*
X199945865Y-78288758D01*
X200041318Y-78241572D01*
X200088937Y-78241788D01*
X200183957Y-78289840D01*
X200231359Y-78337675D01*
X200278545Y-78433128D01*
X200277679Y-78623603D01*
X200324865Y-78719056D01*
X200372267Y-78766891D01*
X200467288Y-78814943D01*
X200657762Y-78815808D01*
X200753215Y-78768623D01*
X200801051Y-78721221D01*
X200849102Y-78626200D01*
X200849968Y-78435726D01*
X200802782Y-78340272D01*
X200755380Y-78292437D01*
X200660359Y-78244386D01*
X200469885Y-78243520D01*
X200374432Y-78290706D01*
X200326597Y-78338108D01*
X200278545Y-78433128D01*
X200855162Y-77292880D02*
X200852565Y-77864303D01*
X200853864Y-77578592D02*
X199853874Y-77574046D01*
X199996297Y-77669933D01*
X200091101Y-77765603D01*
X200138287Y-77861056D01*
X200860574Y-76102417D02*
X200193914Y-76099386D01*
X200289151Y-76099819D02*
X200241749Y-76051984D01*
X200194563Y-75956531D01*
X200195213Y-75813675D01*
X200243264Y-75718654D01*
X200338718Y-75671469D01*
X200862522Y-75673850D01*
X200338718Y-75671469D02*
X200243697Y-75623417D01*
X200196511Y-75527964D01*
X200197161Y-75385108D01*
X200245212Y-75290087D01*
X200340666Y-75242902D01*
X200864470Y-75245283D01*
X200866634Y-74769097D02*
X200199974Y-74766067D01*
X200295212Y-74766500D02*
X200247809Y-74718665D01*
X200200624Y-74623211D01*
X200201273Y-74480355D01*
X200249325Y-74385335D01*
X200344778Y-74338149D01*
X200868582Y-74340530D01*
X200344778Y-74338149D02*
X200249757Y-74290098D01*
X200202572Y-74194644D01*
X200203221Y-74051788D01*
X200251273Y-73956768D01*
X200346726Y-73909582D01*
X200870530Y-73911963D01*
D11*
X199256553Y-50059330D02*
X199002553Y-105939330D01*
X194564000Y-50038000D02*
X199842967Y-50061995D01*
X194310000Y-105918000D02*
X199588967Y-105941995D01*
X199002553Y-105939330D02*
X198421259Y-104810172D01*
X199002553Y-105939330D02*
X199594088Y-104815503D01*
X199256553Y-50059330D02*
X198665018Y-51183157D01*
X199256553Y-50059330D02*
X199837847Y-51188488D01*
D10*
X145780619Y-44965953D02*
X145685380Y-44918334D01*
X145637761Y-44870715D01*
X145590142Y-44775477D01*
X145590142Y-44727858D01*
X145637761Y-44632620D01*
X145685380Y-44585001D01*
X145780619Y-44537381D01*
X145971095Y-44537381D01*
X146066333Y-44585001D01*
X146113952Y-44632620D01*
X146161571Y-44727858D01*
X146161571Y-44775477D01*
X146113952Y-44870715D01*
X146066333Y-44918334D01*
X145971095Y-44965953D01*
X145780619Y-44965953D01*
X145685380Y-45013572D01*
X145637761Y-45061191D01*
X145590142Y-45156429D01*
X145590142Y-45346905D01*
X145637761Y-45442143D01*
X145685380Y-45489762D01*
X145780619Y-45537381D01*
X145971095Y-45537381D01*
X146066333Y-45489762D01*
X146113952Y-45442143D01*
X146161571Y-45346905D01*
X146161571Y-45156429D01*
X146113952Y-45061191D01*
X146066333Y-45013572D01*
X145971095Y-44965953D01*
X146637761Y-45537381D02*
X146828238Y-45537381D01*
X146923476Y-45489762D01*
X146971095Y-45442143D01*
X147066333Y-45299286D01*
X147113952Y-45108810D01*
X147113952Y-44727858D01*
X147066333Y-44632620D01*
X147018714Y-44585001D01*
X146923476Y-44537381D01*
X146733000Y-44537381D01*
X146637761Y-44585001D01*
X146590142Y-44632620D01*
X146542523Y-44727858D01*
X146542523Y-44965953D01*
X146590142Y-45061191D01*
X146637761Y-45108810D01*
X146733000Y-45156429D01*
X146923476Y-45156429D01*
X147018714Y-45108810D01*
X147066333Y-45061191D01*
X147113952Y-44965953D01*
X147590142Y-45489762D02*
X147590142Y-45537381D01*
X147542523Y-45632620D01*
X147494904Y-45680239D01*
X148447285Y-44537381D02*
X148256809Y-44537381D01*
X148161571Y-44585001D01*
X148113952Y-44632620D01*
X148018714Y-44775477D01*
X147971095Y-44965953D01*
X147971095Y-45346905D01*
X148018714Y-45442143D01*
X148066333Y-45489762D01*
X148161571Y-45537381D01*
X148352047Y-45537381D01*
X148447285Y-45489762D01*
X148494904Y-45442143D01*
X148542523Y-45346905D01*
X148542523Y-45108810D01*
X148494904Y-45013572D01*
X148447285Y-44965953D01*
X148352047Y-44918334D01*
X148161571Y-44918334D01*
X148066333Y-44965953D01*
X148018714Y-45013572D01*
X147971095Y-45108810D01*
X149399666Y-44537381D02*
X149209190Y-44537381D01*
X149113952Y-44585001D01*
X149066333Y-44632620D01*
X148971095Y-44775477D01*
X148923476Y-44965953D01*
X148923476Y-45346905D01*
X148971095Y-45442143D01*
X149018714Y-45489762D01*
X149113952Y-45537381D01*
X149304428Y-45537381D01*
X149399666Y-45489762D01*
X149447285Y-45442143D01*
X149494904Y-45346905D01*
X149494904Y-45108810D01*
X149447285Y-45013572D01*
X149399666Y-44965953D01*
X149304428Y-44918334D01*
X149113952Y-44918334D01*
X149018714Y-44965953D01*
X148971095Y-45013572D01*
X148923476Y-45108810D01*
X149875857Y-44632620D02*
X149923476Y-44585001D01*
X150018714Y-44537381D01*
X150256809Y-44537381D01*
X150352047Y-44585001D01*
X150399666Y-44632620D01*
X150447285Y-44727858D01*
X150447285Y-44823096D01*
X150399666Y-44965953D01*
X149828238Y-45537381D01*
X150447285Y-45537381D01*
X151637761Y-45537381D02*
X151637761Y-44870715D01*
X151637761Y-44965953D02*
X151685380Y-44918334D01*
X151780619Y-44870715D01*
X151923476Y-44870715D01*
X152018714Y-44918334D01*
X152066333Y-45013572D01*
X152066333Y-45537381D01*
X152066333Y-45013572D02*
X152113952Y-44918334D01*
X152209190Y-44870715D01*
X152352047Y-44870715D01*
X152447285Y-44918334D01*
X152494904Y-45013572D01*
X152494904Y-45537381D01*
X152971095Y-45537381D02*
X152971095Y-44870715D01*
X152971095Y-44965953D02*
X153018714Y-44918334D01*
X153113952Y-44870715D01*
X153256809Y-44870715D01*
X153352047Y-44918334D01*
X153399666Y-45013572D01*
X153399666Y-45537381D01*
X153399666Y-45013572D02*
X153447285Y-44918334D01*
X153542523Y-44870715D01*
X153685380Y-44870715D01*
X153780619Y-44918334D01*
X153828238Y-45013572D01*
X153828238Y-45537381D01*
D11*
X194564000Y-46355001D02*
X104902000Y-46355001D01*
X194564000Y-50038000D02*
X194564000Y-45768580D01*
X104902000Y-50038000D02*
X104902000Y-45768580D01*
X104902000Y-46355001D02*
X106028504Y-45768580D01*
X104902000Y-46355001D02*
X106028504Y-46941422D01*
X194564000Y-46355001D02*
X193437496Y-45768580D01*
X194564000Y-46355001D02*
X193437496Y-46941422D01*
D10*
X145685380Y-43505380D02*
X145875857Y-43505380D01*
X145971095Y-43457761D01*
X146018714Y-43410142D01*
X146113952Y-43267285D01*
X146161571Y-43076809D01*
X146161571Y-42695857D01*
X146113952Y-42600619D01*
X146066333Y-42553000D01*
X145971095Y-42505380D01*
X145780619Y-42505380D01*
X145685380Y-42553000D01*
X145637761Y-42600619D01*
X145590142Y-42695857D01*
X145590142Y-42933952D01*
X145637761Y-43029190D01*
X145685380Y-43076809D01*
X145780619Y-43124428D01*
X145971095Y-43124428D01*
X146066333Y-43076809D01*
X146113952Y-43029190D01*
X146161571Y-42933952D01*
X147066333Y-42505380D02*
X146590142Y-42505380D01*
X146542523Y-42981571D01*
X146590142Y-42933952D01*
X146685380Y-42886333D01*
X146923476Y-42886333D01*
X147018714Y-42933952D01*
X147066333Y-42981571D01*
X147113952Y-43076809D01*
X147113952Y-43314904D01*
X147066333Y-43410142D01*
X147018714Y-43457761D01*
X146923476Y-43505380D01*
X146685380Y-43505380D01*
X146590142Y-43457761D01*
X146542523Y-43410142D01*
X147590142Y-43457761D02*
X147590142Y-43505380D01*
X147542523Y-43600619D01*
X147494904Y-43648238D01*
X147923476Y-42505380D02*
X148590142Y-42505380D01*
X148161571Y-43505380D01*
X149447285Y-42505380D02*
X148971095Y-42505380D01*
X148923476Y-42981571D01*
X148971095Y-42933952D01*
X149066333Y-42886333D01*
X149304428Y-42886333D01*
X149399666Y-42933952D01*
X149447285Y-42981571D01*
X149494904Y-43076809D01*
X149494904Y-43314904D01*
X149447285Y-43410142D01*
X149399666Y-43457761D01*
X149304428Y-43505380D01*
X149066333Y-43505380D01*
X148971095Y-43457761D01*
X148923476Y-43410142D01*
X150066333Y-42933952D02*
X149971095Y-42886333D01*
X149923476Y-42838714D01*
X149875857Y-42743476D01*
X149875857Y-42695857D01*
X149923476Y-42600619D01*
X149971095Y-42553000D01*
X150066333Y-42505380D01*
X150256809Y-42505380D01*
X150352047Y-42553000D01*
X150399666Y-42600619D01*
X150447285Y-42695857D01*
X150447285Y-42743476D01*
X150399666Y-42838714D01*
X150352047Y-42886333D01*
X150256809Y-42933952D01*
X150066333Y-42933952D01*
X149971095Y-42981571D01*
X149923476Y-43029190D01*
X149875857Y-43124428D01*
X149875857Y-43314904D01*
X149923476Y-43410142D01*
X149971095Y-43457761D01*
X150066333Y-43505380D01*
X150256809Y-43505380D01*
X150352047Y-43457761D01*
X150399666Y-43410142D01*
X150447285Y-43314904D01*
X150447285Y-43124428D01*
X150399666Y-43029190D01*
X150352047Y-42981571D01*
X150256809Y-42933952D01*
X151637761Y-43505380D02*
X151637761Y-42838714D01*
X151637761Y-42933952D02*
X151685380Y-42886333D01*
X151780619Y-42838714D01*
X151923476Y-42838714D01*
X152018714Y-42886333D01*
X152066333Y-42981571D01*
X152066333Y-43505380D01*
X152066333Y-42981571D02*
X152113952Y-42886333D01*
X152209190Y-42838714D01*
X152352047Y-42838714D01*
X152447285Y-42886333D01*
X152494904Y-42981571D01*
X152494904Y-43505380D01*
X152971095Y-43505380D02*
X152971095Y-42838714D01*
X152971095Y-42933952D02*
X153018714Y-42886333D01*
X153113952Y-42838714D01*
X153256809Y-42838714D01*
X153352047Y-42886333D01*
X153399666Y-42981571D01*
X153399666Y-43505380D01*
X153399666Y-42981571D02*
X153447285Y-42886333D01*
X153542523Y-42838714D01*
X153685380Y-42838714D01*
X153780619Y-42886333D01*
X153828238Y-42981571D01*
X153828238Y-43505380D01*
D11*
X101854000Y-44323000D02*
X197612000Y-44323000D01*
X101854000Y-46990000D02*
X101854000Y-43736579D01*
X197612000Y-46990000D02*
X197612000Y-43736579D01*
X197612000Y-44323000D02*
X196485496Y-44909421D01*
X197612000Y-44323000D02*
X196485496Y-43736579D01*
X101854000Y-44323000D02*
X102980504Y-44909421D01*
X101854000Y-44323000D02*
X102980504Y-43736579D01*
D10*
X184746995Y-102865300D02*
X184651757Y-102817680D01*
X184508900Y-102817680D01*
X184366042Y-102865300D01*
X184270804Y-102960538D01*
X184223185Y-103055776D01*
X184175566Y-103246252D01*
X184175566Y-103389109D01*
X184223185Y-103579585D01*
X184270804Y-103674823D01*
X184366042Y-103770061D01*
X184508900Y-103817680D01*
X184604138Y-103817680D01*
X184746995Y-103770061D01*
X184794614Y-103722442D01*
X184794614Y-103389109D01*
X184604138Y-103389109D01*
X185223185Y-103817680D02*
X185223185Y-102817680D01*
X185794614Y-103817680D01*
X185794614Y-102817680D01*
X186270804Y-103817680D02*
X186270804Y-102817680D01*
X186508900Y-102817680D01*
X186651757Y-102865300D01*
X186746995Y-102960538D01*
X186794614Y-103055776D01*
X186842233Y-103246252D01*
X186842233Y-103389109D01*
X186794614Y-103579585D01*
X186746995Y-103674823D01*
X186651757Y-103770061D01*
X186508900Y-103817680D01*
X186270804Y-103817680D01*
X184810423Y-105357680D02*
X184334233Y-105357680D01*
X184286614Y-105833871D01*
X184334233Y-105786252D01*
X184429471Y-105738633D01*
X184667566Y-105738633D01*
X184762804Y-105786252D01*
X184810423Y-105833871D01*
X184858042Y-105929109D01*
X184858042Y-106167204D01*
X184810423Y-106262442D01*
X184762804Y-106310061D01*
X184667566Y-106357680D01*
X184429471Y-106357680D01*
X184334233Y-106310061D01*
X184286614Y-106262442D01*
X185143757Y-105357680D02*
X185477090Y-106357680D01*
X185810423Y-105357680D01*
X184759695Y-96401000D02*
X184664457Y-96353380D01*
X184521600Y-96353380D01*
X184378742Y-96401000D01*
X184283504Y-96496238D01*
X184235885Y-96591476D01*
X184188266Y-96781952D01*
X184188266Y-96924809D01*
X184235885Y-97115285D01*
X184283504Y-97210523D01*
X184378742Y-97305761D01*
X184521600Y-97353380D01*
X184616838Y-97353380D01*
X184759695Y-97305761D01*
X184807314Y-97258142D01*
X184807314Y-96924809D01*
X184616838Y-96924809D01*
X185235885Y-97353380D02*
X185235885Y-96353380D01*
X185807314Y-97353380D01*
X185807314Y-96353380D01*
X186283504Y-97353380D02*
X186283504Y-96353380D01*
X186521600Y-96353380D01*
X186664457Y-96401000D01*
X186759695Y-96496238D01*
X186807314Y-96591476D01*
X186854933Y-96781952D01*
X186854933Y-96924809D01*
X186807314Y-97115285D01*
X186759695Y-97210523D01*
X186664457Y-97305761D01*
X186521600Y-97353380D01*
X186283504Y-97353380D01*
X184410504Y-99147380D02*
X185029552Y-99147380D01*
X184696219Y-99528333D01*
X184839076Y-99528333D01*
X184934314Y-99575952D01*
X184981933Y-99623571D01*
X185029552Y-99718809D01*
X185029552Y-99956904D01*
X184981933Y-100052142D01*
X184934314Y-100099761D01*
X184839076Y-100147380D01*
X184553361Y-100147380D01*
X184458123Y-100099761D01*
X184410504Y-100052142D01*
X185315266Y-99147380D02*
X185648600Y-100147380D01*
X185981933Y-99147380D01*
X186220028Y-99147380D02*
X186839076Y-99147380D01*
X186505742Y-99528333D01*
X186648600Y-99528333D01*
X186743838Y-99575952D01*
X186791457Y-99623571D01*
X186839076Y-99718809D01*
X186839076Y-99956904D01*
X186791457Y-100052142D01*
X186743838Y-100099761D01*
X186648600Y-100147380D01*
X186362885Y-100147380D01*
X186267647Y-100099761D01*
X186220028Y-100052142D01*
X179392319Y-90273380D02*
X179868509Y-89940047D01*
X179392319Y-89701952D02*
X180392319Y-89701952D01*
X180392319Y-90082904D01*
X180344700Y-90178142D01*
X180297080Y-90225761D01*
X180201842Y-90273380D01*
X180058985Y-90273380D01*
X179963747Y-90225761D01*
X179916128Y-90178142D01*
X179868509Y-90082904D01*
X179868509Y-89701952D01*
X180392319Y-90606714D02*
X179392319Y-91273380D01*
X180392319Y-91273380D02*
X179392319Y-90606714D01*
X180439938Y-92368619D02*
X179154223Y-91511476D01*
X180392319Y-92559095D02*
X180392319Y-93130523D01*
X179392319Y-92844809D02*
X180392319Y-92844809D01*
X180392319Y-93368619D02*
X179392319Y-94035285D01*
X180392319Y-94035285D02*
X179392319Y-93368619D01*
X180341519Y-95328147D02*
X180341519Y-95947195D01*
X179960566Y-95613861D01*
X179960566Y-95756719D01*
X179912947Y-95851957D01*
X179865328Y-95899576D01*
X179770090Y-95947195D01*
X179531995Y-95947195D01*
X179436757Y-95899576D01*
X179389138Y-95851957D01*
X179341519Y-95756719D01*
X179341519Y-95471004D01*
X179389138Y-95375766D01*
X179436757Y-95328147D01*
X180341519Y-96232909D02*
X179341519Y-96566242D01*
X180341519Y-96899576D01*
X180341519Y-97137671D02*
X180341519Y-97756719D01*
X179960566Y-97423385D01*
X179960566Y-97566242D01*
X179912947Y-97661480D01*
X179865328Y-97709100D01*
X179770090Y-97756719D01*
X179531995Y-97756719D01*
X179436757Y-97709100D01*
X179389138Y-97661480D01*
X179341519Y-97566242D01*
X179341519Y-97280528D01*
X179389138Y-97185290D01*
X179436757Y-97137671D01*
X180341519Y-99137671D02*
X180341519Y-99328147D01*
X180293900Y-99423385D01*
X180198661Y-99518623D01*
X180008185Y-99566242D01*
X179674852Y-99566242D01*
X179484376Y-99518623D01*
X179389138Y-99423385D01*
X179341519Y-99328147D01*
X179341519Y-99137671D01*
X179389138Y-99042433D01*
X179484376Y-98947195D01*
X179674852Y-98899576D01*
X180008185Y-98899576D01*
X180198661Y-98947195D01*
X180293900Y-99042433D01*
X180341519Y-99137671D01*
X180008185Y-100423385D02*
X179341519Y-100423385D01*
X180008185Y-99994814D02*
X179484376Y-99994814D01*
X179389138Y-100042433D01*
X179341519Y-100137671D01*
X179341519Y-100280528D01*
X179389138Y-100375766D01*
X179436757Y-100423385D01*
X180008185Y-100756719D02*
X180008185Y-101137671D01*
X180341519Y-100899576D02*
X179484376Y-100899576D01*
X179389138Y-100947195D01*
X179341519Y-101042433D01*
X179341519Y-101137671D01*
X180341519Y-102801966D02*
X180341519Y-102325776D01*
X179865328Y-102278157D01*
X179912947Y-102325776D01*
X179960566Y-102421014D01*
X179960566Y-102659109D01*
X179912947Y-102754347D01*
X179865328Y-102801966D01*
X179770090Y-102849585D01*
X179531995Y-102849585D01*
X179436757Y-102801966D01*
X179389138Y-102754347D01*
X179341519Y-102659109D01*
X179341519Y-102421014D01*
X179389138Y-102325776D01*
X179436757Y-102278157D01*
X180341519Y-103135300D02*
X179341519Y-103468633D01*
X180341519Y-103801966D01*
X180341519Y-105087680D02*
X180341519Y-105278157D01*
X180293900Y-105373395D01*
X180198661Y-105468633D01*
X180008185Y-105516252D01*
X179674852Y-105516252D01*
X179484376Y-105468633D01*
X179389138Y-105373395D01*
X179341519Y-105278157D01*
X179341519Y-105087680D01*
X179389138Y-104992442D01*
X179484376Y-104897204D01*
X179674852Y-104849585D01*
X180008185Y-104849585D01*
X180198661Y-104897204D01*
X180293900Y-104992442D01*
X180341519Y-105087680D01*
X180008185Y-106373395D02*
X179341519Y-106373395D01*
X180008185Y-105944823D02*
X179484376Y-105944823D01*
X179389138Y-105992442D01*
X179341519Y-106087680D01*
X179341519Y-106230538D01*
X179389138Y-106325776D01*
X179436757Y-106373395D01*
X180008185Y-106706728D02*
X180008185Y-107087680D01*
X180341519Y-106849585D02*
X179484376Y-106849585D01*
X179389138Y-106897204D01*
X179341519Y-106992442D01*
X179341519Y-107087680D01*
X111259904Y-93480000D02*
X111164666Y-93432380D01*
X111021809Y-93432380D01*
X110878952Y-93480000D01*
X110783714Y-93575238D01*
X110736095Y-93670476D01*
X110688476Y-93860952D01*
X110688476Y-94003809D01*
X110736095Y-94194285D01*
X110783714Y-94289523D01*
X110878952Y-94384761D01*
X111021809Y-94432380D01*
X111117047Y-94432380D01*
X111259904Y-94384761D01*
X111307523Y-94337142D01*
X111307523Y-94003809D01*
X111117047Y-94003809D01*
X113347523Y-92353380D02*
X112871333Y-92353380D01*
X112823714Y-92829571D01*
X112871333Y-92781952D01*
X112966571Y-92734333D01*
X113204666Y-92734333D01*
X113299904Y-92781952D01*
X113347523Y-92829571D01*
X113395142Y-92924809D01*
X113395142Y-93162904D01*
X113347523Y-93258142D01*
X113299904Y-93305761D01*
X113204666Y-93353380D01*
X112966571Y-93353380D01*
X112871333Y-93305761D01*
X112823714Y-93258142D01*
X113680857Y-92353380D02*
X114014190Y-93353380D01*
X114347523Y-92353380D01*
X112704666Y-94003380D02*
X112895142Y-94003380D01*
X112990380Y-94051000D01*
X113085619Y-94146238D01*
X113133238Y-94336714D01*
X113133238Y-94670047D01*
X113085619Y-94860523D01*
X112990380Y-94955761D01*
X112895142Y-95003380D01*
X112704666Y-95003380D01*
X112609428Y-94955761D01*
X112514190Y-94860523D01*
X112466571Y-94670047D01*
X112466571Y-94336714D01*
X112514190Y-94146238D01*
X112609428Y-94051000D01*
X112704666Y-94003380D01*
X113990380Y-94336714D02*
X113990380Y-95003380D01*
X113561809Y-94336714D02*
X113561809Y-94860523D01*
X113609428Y-94955761D01*
X113704666Y-95003380D01*
X113847523Y-95003380D01*
X113942761Y-94955761D01*
X113990380Y-94908142D01*
X114323714Y-94336714D02*
X114704666Y-94336714D01*
X114466571Y-94003380D02*
X114466571Y-94860523D01*
X114514190Y-94955761D01*
X114609428Y-95003380D01*
X114704666Y-95003380D01*
X107584952Y-93353380D02*
X107013523Y-93353380D01*
X107299238Y-93353380D02*
X107299238Y-92353380D01*
X107204000Y-92496238D01*
X107108761Y-92591476D01*
X107013523Y-92639095D01*
X107965904Y-92448619D02*
X108013523Y-92401000D01*
X108108761Y-92353380D01*
X108346857Y-92353380D01*
X108442095Y-92401000D01*
X108489714Y-92448619D01*
X108537333Y-92543857D01*
X108537333Y-92639095D01*
X108489714Y-92781952D01*
X107918285Y-93353380D01*
X108537333Y-93353380D01*
X108823047Y-92353380D02*
X109156380Y-93353380D01*
X109489714Y-92353380D01*
X107751619Y-95003380D02*
X107751619Y-94003380D01*
X108227809Y-94336714D02*
X108227809Y-95003380D01*
X108227809Y-94431952D02*
X108275428Y-94384333D01*
X108370666Y-94336714D01*
X108513523Y-94336714D01*
X108608761Y-94384333D01*
X108656380Y-94479571D01*
X108656380Y-95003380D01*
X110887047Y-79906761D02*
X111029904Y-79954380D01*
X111268000Y-79954380D01*
X111363238Y-79906761D01*
X111410857Y-79859142D01*
X111458476Y-79763904D01*
X111458476Y-79668666D01*
X111410857Y-79573428D01*
X111363238Y-79525809D01*
X111268000Y-79478190D01*
X111077523Y-79430571D01*
X110982285Y-79382952D01*
X110934666Y-79335333D01*
X110887047Y-79240095D01*
X110887047Y-79144857D01*
X110934666Y-79049619D01*
X110982285Y-79002000D01*
X111077523Y-78954380D01*
X111315619Y-78954380D01*
X111458476Y-79002000D01*
X112315619Y-79906761D02*
X112220380Y-79954380D01*
X112029904Y-79954380D01*
X111934666Y-79906761D01*
X111887047Y-79859142D01*
X111839428Y-79763904D01*
X111839428Y-79478190D01*
X111887047Y-79382952D01*
X111934666Y-79335333D01*
X112029904Y-79287714D01*
X112220380Y-79287714D01*
X112315619Y-79335333D01*
X112887047Y-79954380D02*
X112791809Y-79906761D01*
X112744190Y-79811523D01*
X112744190Y-78954380D01*
X113268000Y-79954380D02*
X113268000Y-78954380D01*
X113363238Y-79573428D02*
X113648952Y-79954380D01*
X113648952Y-79287714D02*
X113268000Y-79668666D01*
X110839428Y-77414380D02*
X110839428Y-76414380D01*
X111172761Y-77128666D01*
X111506095Y-76414380D01*
X111506095Y-77414380D01*
X111982285Y-77414380D02*
X111982285Y-76747714D01*
X111982285Y-76414380D02*
X111934666Y-76462000D01*
X111982285Y-76509619D01*
X112029904Y-76462000D01*
X111982285Y-76414380D01*
X111982285Y-76509619D01*
X112410857Y-77366761D02*
X112506095Y-77414380D01*
X112696571Y-77414380D01*
X112791809Y-77366761D01*
X112839428Y-77271523D01*
X112839428Y-77223904D01*
X112791809Y-77128666D01*
X112696571Y-77081047D01*
X112553714Y-77081047D01*
X112458476Y-77033428D01*
X112410857Y-76938190D01*
X112410857Y-76890571D01*
X112458476Y-76795333D01*
X112553714Y-76747714D01*
X112696571Y-76747714D01*
X112791809Y-76795333D01*
X113410857Y-77414380D02*
X113315619Y-77366761D01*
X113268000Y-77319142D01*
X113220380Y-77223904D01*
X113220380Y-76938190D01*
X113268000Y-76842952D01*
X113315619Y-76795333D01*
X113410857Y-76747714D01*
X113553714Y-76747714D01*
X113648952Y-76795333D01*
X113696571Y-76842952D01*
X113744190Y-76938190D01*
X113744190Y-77223904D01*
X113696571Y-77319142D01*
X113648952Y-77366761D01*
X113553714Y-77414380D01*
X113410857Y-77414380D01*
X112863333Y-74779142D02*
X112815714Y-74826761D01*
X112672857Y-74874380D01*
X112577619Y-74874380D01*
X112434761Y-74826761D01*
X112339523Y-74731523D01*
X112291904Y-74636285D01*
X112244285Y-74445809D01*
X112244285Y-74302952D01*
X112291904Y-74112476D01*
X112339523Y-74017238D01*
X112434761Y-73922000D01*
X112577619Y-73874380D01*
X112672857Y-73874380D01*
X112815714Y-73922000D01*
X112863333Y-73969619D01*
X113244285Y-74826761D02*
X113387142Y-74874380D01*
X113625238Y-74874380D01*
X113720476Y-74826761D01*
X113768095Y-74779142D01*
X113815714Y-74683904D01*
X113815714Y-74588666D01*
X113768095Y-74493428D01*
X113720476Y-74445809D01*
X113625238Y-74398190D01*
X113434761Y-74350571D01*
X113339523Y-74302952D01*
X113291904Y-74255333D01*
X113244285Y-74160095D01*
X113244285Y-74064857D01*
X113291904Y-73969619D01*
X113339523Y-73922000D01*
X113434761Y-73874380D01*
X113672857Y-73874380D01*
X113815714Y-73922000D01*
X110839428Y-72334380D02*
X110839428Y-71334380D01*
X111172761Y-72048666D01*
X111506095Y-71334380D01*
X111506095Y-72334380D01*
X112125142Y-72334380D02*
X112029904Y-72286761D01*
X111982285Y-72239142D01*
X111934666Y-72143904D01*
X111934666Y-71858190D01*
X111982285Y-71762952D01*
X112029904Y-71715333D01*
X112125142Y-71667714D01*
X112268000Y-71667714D01*
X112363238Y-71715333D01*
X112410857Y-71762952D01*
X112458476Y-71858190D01*
X112458476Y-72143904D01*
X112410857Y-72239142D01*
X112363238Y-72286761D01*
X112268000Y-72334380D01*
X112125142Y-72334380D01*
X112839428Y-72286761D02*
X112934666Y-72334380D01*
X113125142Y-72334380D01*
X113220380Y-72286761D01*
X113268000Y-72191523D01*
X113268000Y-72143904D01*
X113220380Y-72048666D01*
X113125142Y-72001047D01*
X112982285Y-72001047D01*
X112887047Y-71953428D01*
X112839428Y-71858190D01*
X112839428Y-71810571D01*
X112887047Y-71715333D01*
X112982285Y-71667714D01*
X113125142Y-71667714D01*
X113220380Y-71715333D01*
X113696571Y-72334380D02*
X113696571Y-71667714D01*
X113696571Y-71334380D02*
X113648952Y-71382000D01*
X113696571Y-71429619D01*
X113744190Y-71382000D01*
X113696571Y-71334380D01*
X113696571Y-71429619D01*
X157424380Y-58022857D02*
X157424380Y-58594285D01*
X157424380Y-58308571D02*
X156424380Y-58308571D01*
X156567238Y-58403809D01*
X156662476Y-58499047D01*
X156710095Y-58594285D01*
X157424380Y-57594285D02*
X156424380Y-57594285D01*
X157424380Y-57022857D01*
X156424380Y-57022857D01*
X156757714Y-56118095D02*
X157424380Y-56118095D01*
X156376761Y-56356190D02*
X157091047Y-56594285D01*
X157091047Y-55975238D01*
X156424380Y-55403809D02*
X156424380Y-55308571D01*
X156472000Y-55213333D01*
X156519619Y-55165714D01*
X156614857Y-55118095D01*
X156805333Y-55070476D01*
X157043428Y-55070476D01*
X157233904Y-55118095D01*
X157329142Y-55165714D01*
X157376761Y-55213333D01*
X157424380Y-55308571D01*
X157424380Y-55403809D01*
X157376761Y-55499047D01*
X157329142Y-55546666D01*
X157233904Y-55594285D01*
X157043428Y-55641904D01*
X156805333Y-55641904D01*
X156614857Y-55594285D01*
X156519619Y-55546666D01*
X156472000Y-55499047D01*
X156424380Y-55403809D01*
X156424380Y-54451428D02*
X156424380Y-54356190D01*
X156472000Y-54260952D01*
X156519619Y-54213333D01*
X156614857Y-54165714D01*
X156805333Y-54118095D01*
X157043428Y-54118095D01*
X157233904Y-54165714D01*
X157329142Y-54213333D01*
X157376761Y-54260952D01*
X157424380Y-54356190D01*
X157424380Y-54451428D01*
X157376761Y-54546666D01*
X157329142Y-54594285D01*
X157233904Y-54641904D01*
X157043428Y-54689523D01*
X156805333Y-54689523D01*
X156614857Y-54641904D01*
X156519619Y-54594285D01*
X156472000Y-54546666D01*
X156424380Y-54451428D01*
X156424380Y-53784761D02*
X156424380Y-53118095D01*
X157424380Y-53546666D01*
X157424380Y-72500857D02*
X157424380Y-73072285D01*
X157424380Y-72786571D02*
X156424380Y-72786571D01*
X156567238Y-72881809D01*
X156662476Y-72977047D01*
X156710095Y-73072285D01*
X157424380Y-72072285D02*
X156424380Y-72072285D01*
X157424380Y-71500857D01*
X156424380Y-71500857D01*
X156757714Y-70596095D02*
X157424380Y-70596095D01*
X156376761Y-70834190D02*
X157091047Y-71072285D01*
X157091047Y-70453238D01*
X156424380Y-69881809D02*
X156424380Y-69786571D01*
X156472000Y-69691333D01*
X156519619Y-69643714D01*
X156614857Y-69596095D01*
X156805333Y-69548476D01*
X157043428Y-69548476D01*
X157233904Y-69596095D01*
X157329142Y-69643714D01*
X157376761Y-69691333D01*
X157424380Y-69786571D01*
X157424380Y-69881809D01*
X157376761Y-69977047D01*
X157329142Y-70024666D01*
X157233904Y-70072285D01*
X157043428Y-70119904D01*
X156805333Y-70119904D01*
X156614857Y-70072285D01*
X156519619Y-70024666D01*
X156472000Y-69977047D01*
X156424380Y-69881809D01*
X156424380Y-68929428D02*
X156424380Y-68834190D01*
X156472000Y-68738952D01*
X156519619Y-68691333D01*
X156614857Y-68643714D01*
X156805333Y-68596095D01*
X157043428Y-68596095D01*
X157233904Y-68643714D01*
X157329142Y-68691333D01*
X157376761Y-68738952D01*
X157424380Y-68834190D01*
X157424380Y-68929428D01*
X157376761Y-69024666D01*
X157329142Y-69072285D01*
X157233904Y-69119904D01*
X157043428Y-69167523D01*
X156805333Y-69167523D01*
X156614857Y-69119904D01*
X156519619Y-69072285D01*
X156472000Y-69024666D01*
X156424380Y-68929428D01*
X156424380Y-68262761D02*
X156424380Y-67596095D01*
X157424380Y-68024666D01*
X157424380Y-86978857D02*
X157424380Y-87550285D01*
X157424380Y-87264571D02*
X156424380Y-87264571D01*
X156567238Y-87359809D01*
X156662476Y-87455047D01*
X156710095Y-87550285D01*
X157424380Y-86550285D02*
X156424380Y-86550285D01*
X157424380Y-85978857D01*
X156424380Y-85978857D01*
X156757714Y-85074095D02*
X157424380Y-85074095D01*
X156376761Y-85312190D02*
X157091047Y-85550285D01*
X157091047Y-84931238D01*
X156424380Y-84359809D02*
X156424380Y-84264571D01*
X156472000Y-84169333D01*
X156519619Y-84121714D01*
X156614857Y-84074095D01*
X156805333Y-84026476D01*
X157043428Y-84026476D01*
X157233904Y-84074095D01*
X157329142Y-84121714D01*
X157376761Y-84169333D01*
X157424380Y-84264571D01*
X157424380Y-84359809D01*
X157376761Y-84455047D01*
X157329142Y-84502666D01*
X157233904Y-84550285D01*
X157043428Y-84597904D01*
X156805333Y-84597904D01*
X156614857Y-84550285D01*
X156519619Y-84502666D01*
X156472000Y-84455047D01*
X156424380Y-84359809D01*
X156424380Y-83407428D02*
X156424380Y-83312190D01*
X156472000Y-83216952D01*
X156519619Y-83169333D01*
X156614857Y-83121714D01*
X156805333Y-83074095D01*
X157043428Y-83074095D01*
X157233904Y-83121714D01*
X157329142Y-83169333D01*
X157376761Y-83216952D01*
X157424380Y-83312190D01*
X157424380Y-83407428D01*
X157376761Y-83502666D01*
X157329142Y-83550285D01*
X157233904Y-83597904D01*
X157043428Y-83645523D01*
X156805333Y-83645523D01*
X156614857Y-83597904D01*
X156519619Y-83550285D01*
X156472000Y-83502666D01*
X156424380Y-83407428D01*
X156424380Y-82740761D02*
X156424380Y-82074095D01*
X157424380Y-82502666D01*
X166536761Y-59380380D02*
X165965333Y-59380380D01*
X166251047Y-59380380D02*
X166251047Y-58380380D01*
X166155809Y-58523238D01*
X166060571Y-58618476D01*
X165965333Y-58666095D01*
X167155809Y-58380380D02*
X167251047Y-58380380D01*
X167346285Y-58428000D01*
X167393904Y-58475619D01*
X167441523Y-58570857D01*
X167489142Y-58761333D01*
X167489142Y-58999428D01*
X167441523Y-59189904D01*
X167393904Y-59285142D01*
X167346285Y-59332761D01*
X167251047Y-59380380D01*
X167155809Y-59380380D01*
X167060571Y-59332761D01*
X167012952Y-59285142D01*
X166965333Y-59189904D01*
X166917714Y-58999428D01*
X166917714Y-58761333D01*
X166965333Y-58570857D01*
X167012952Y-58475619D01*
X167060571Y-58428000D01*
X167155809Y-58380380D01*
X167917714Y-59380380D02*
X167917714Y-58380380D01*
X168012952Y-58999428D02*
X168298666Y-59380380D01*
X168298666Y-58713714D02*
X167917714Y-59094666D01*
X166536761Y-73604380D02*
X165965333Y-73604380D01*
X166251047Y-73604380D02*
X166251047Y-72604380D01*
X166155809Y-72747238D01*
X166060571Y-72842476D01*
X165965333Y-72890095D01*
X167155809Y-72604380D02*
X167251047Y-72604380D01*
X167346285Y-72652000D01*
X167393904Y-72699619D01*
X167441523Y-72794857D01*
X167489142Y-72985333D01*
X167489142Y-73223428D01*
X167441523Y-73413904D01*
X167393904Y-73509142D01*
X167346285Y-73556761D01*
X167251047Y-73604380D01*
X167155809Y-73604380D01*
X167060571Y-73556761D01*
X167012952Y-73509142D01*
X166965333Y-73413904D01*
X166917714Y-73223428D01*
X166917714Y-72985333D01*
X166965333Y-72794857D01*
X167012952Y-72699619D01*
X167060571Y-72652000D01*
X167155809Y-72604380D01*
X167917714Y-73604380D02*
X167917714Y-72604380D01*
X168012952Y-73223428D02*
X168298666Y-73604380D01*
X168298666Y-72937714D02*
X167917714Y-73318666D01*
X166536761Y-88082380D02*
X165965333Y-88082380D01*
X166251047Y-88082380D02*
X166251047Y-87082380D01*
X166155809Y-87225238D01*
X166060571Y-87320476D01*
X165965333Y-87368095D01*
X167155809Y-87082380D02*
X167251047Y-87082380D01*
X167346285Y-87130000D01*
X167393904Y-87177619D01*
X167441523Y-87272857D01*
X167489142Y-87463333D01*
X167489142Y-87701428D01*
X167441523Y-87891904D01*
X167393904Y-87987142D01*
X167346285Y-88034761D01*
X167251047Y-88082380D01*
X167155809Y-88082380D01*
X167060571Y-88034761D01*
X167012952Y-87987142D01*
X166965333Y-87891904D01*
X166917714Y-87701428D01*
X166917714Y-87463333D01*
X166965333Y-87272857D01*
X167012952Y-87177619D01*
X167060571Y-87130000D01*
X167155809Y-87082380D01*
X167917714Y-88082380D02*
X167917714Y-87082380D01*
X168012952Y-87701428D02*
X168298666Y-88082380D01*
X168298666Y-87415714D02*
X167917714Y-87796666D01*
X161536761Y-78684380D02*
X161536761Y-77684380D01*
X162584380Y-78684380D02*
X162251047Y-78208190D01*
X162012952Y-78684380D02*
X162012952Y-77684380D01*
X162393904Y-77684380D01*
X162489142Y-77732000D01*
X162536761Y-77779619D01*
X162584380Y-77874857D01*
X162584380Y-78017714D01*
X162536761Y-78112952D01*
X162489142Y-78160571D01*
X162393904Y-78208190D01*
X162012952Y-78208190D01*
X163489142Y-78684380D02*
X163012952Y-78684380D01*
X163012952Y-77684380D01*
X163727238Y-77684380D02*
X164393904Y-77684380D01*
X163727238Y-78684380D01*
X164393904Y-78684380D01*
X164679619Y-77684380D02*
X165298666Y-77684380D01*
X164965333Y-78065333D01*
X165108190Y-78065333D01*
X165203428Y-78112952D01*
X165251047Y-78160571D01*
X165298666Y-78255809D01*
X165298666Y-78493904D01*
X165251047Y-78589142D01*
X165203428Y-78636761D01*
X165108190Y-78684380D01*
X164822476Y-78684380D01*
X164727238Y-78636761D01*
X164679619Y-78589142D01*
X166155809Y-78017714D02*
X166155809Y-78684380D01*
X165917714Y-77636761D02*
X165679619Y-78351047D01*
X166298666Y-78351047D01*
X166679619Y-78684380D02*
X166679619Y-77684380D01*
X167251047Y-78684380D01*
X167251047Y-77684380D01*
X167727238Y-78303428D02*
X168489142Y-78303428D01*
X169489142Y-77732000D02*
X169393904Y-77684380D01*
X169251047Y-77684380D01*
X169108190Y-77732000D01*
X169012952Y-77827238D01*
X168965333Y-77922476D01*
X168917714Y-78112952D01*
X168917714Y-78255809D01*
X168965333Y-78446285D01*
X169012952Y-78541523D01*
X169108190Y-78636761D01*
X169251047Y-78684380D01*
X169346285Y-78684380D01*
X169489142Y-78636761D01*
X169536761Y-78589142D01*
X169536761Y-78255809D01*
X169346285Y-78255809D01*
X169965333Y-78684380D02*
X169965333Y-78017714D01*
X169965333Y-78208190D02*
X170012952Y-78112952D01*
X170060571Y-78065333D01*
X170155809Y-78017714D01*
X170251047Y-78017714D01*
X170965333Y-78636761D02*
X170870095Y-78684380D01*
X170679619Y-78684380D01*
X170584380Y-78636761D01*
X170536761Y-78541523D01*
X170536761Y-78160571D01*
X170584380Y-78065333D01*
X170679619Y-78017714D01*
X170870095Y-78017714D01*
X170965333Y-78065333D01*
X171012952Y-78160571D01*
X171012952Y-78255809D01*
X170536761Y-78351047D01*
X171822476Y-78636761D02*
X171727238Y-78684380D01*
X171536761Y-78684380D01*
X171441523Y-78636761D01*
X171393904Y-78541523D01*
X171393904Y-78160571D01*
X171441523Y-78065333D01*
X171536761Y-78017714D01*
X171727238Y-78017714D01*
X171822476Y-78065333D01*
X171870095Y-78160571D01*
X171870095Y-78255809D01*
X171393904Y-78351047D01*
X172298666Y-78017714D02*
X172298666Y-78684380D01*
X172298666Y-78112952D02*
X172346285Y-78065333D01*
X172441523Y-78017714D01*
X172584380Y-78017714D01*
X172679619Y-78065333D01*
X172727238Y-78160571D01*
X172727238Y-78684380D01*
X162274857Y-63952380D02*
X162274857Y-62952380D01*
X163322476Y-63952380D02*
X162989142Y-63476190D01*
X162751047Y-63952380D02*
X162751047Y-62952380D01*
X163132000Y-62952380D01*
X163227238Y-63000000D01*
X163274857Y-63047619D01*
X163322476Y-63142857D01*
X163322476Y-63285714D01*
X163274857Y-63380952D01*
X163227238Y-63428571D01*
X163132000Y-63476190D01*
X162751047Y-63476190D01*
X164227238Y-63952380D02*
X163751047Y-63952380D01*
X163751047Y-62952380D01*
X164465333Y-62952380D02*
X165132000Y-62952380D01*
X164465333Y-63952380D01*
X165132000Y-63952380D01*
X165417714Y-62952380D02*
X166036761Y-62952380D01*
X165703428Y-63333333D01*
X165846285Y-63333333D01*
X165941523Y-63380952D01*
X165989142Y-63428571D01*
X166036761Y-63523809D01*
X166036761Y-63761904D01*
X165989142Y-63857142D01*
X165941523Y-63904761D01*
X165846285Y-63952380D01*
X165560571Y-63952380D01*
X165465333Y-63904761D01*
X165417714Y-63857142D01*
X166893904Y-63285714D02*
X166893904Y-63952380D01*
X166655809Y-62904761D02*
X166417714Y-63619047D01*
X167036761Y-63619047D01*
X167417714Y-63952380D02*
X167417714Y-62952380D01*
X167989142Y-63952380D01*
X167989142Y-62952380D01*
X168465333Y-63571428D02*
X169227238Y-63571428D01*
X170274857Y-63952380D02*
X169941523Y-63476190D01*
X169703428Y-63952380D02*
X169703428Y-62952380D01*
X170084380Y-62952380D01*
X170179619Y-63000000D01*
X170227238Y-63047619D01*
X170274857Y-63142857D01*
X170274857Y-63285714D01*
X170227238Y-63380952D01*
X170179619Y-63428571D01*
X170084380Y-63476190D01*
X169703428Y-63476190D01*
X171084380Y-63904761D02*
X170989142Y-63952380D01*
X170798666Y-63952380D01*
X170703428Y-63904761D01*
X170655809Y-63809523D01*
X170655809Y-63428571D01*
X170703428Y-63333333D01*
X170798666Y-63285714D01*
X170989142Y-63285714D01*
X171084380Y-63333333D01*
X171132000Y-63428571D01*
X171132000Y-63523809D01*
X170655809Y-63619047D01*
X171989142Y-63952380D02*
X171989142Y-62952380D01*
X171989142Y-63904761D02*
X171893904Y-63952380D01*
X171703428Y-63952380D01*
X171608190Y-63904761D01*
X171560571Y-63857142D01*
X171512952Y-63761904D01*
X171512952Y-63476190D01*
X171560571Y-63380952D01*
X171608190Y-63333333D01*
X171703428Y-63285714D01*
X171893904Y-63285714D01*
X171989142Y-63333333D01*
X161758952Y-49474380D02*
X161758952Y-48474380D01*
X162806571Y-49474380D02*
X162473238Y-48998190D01*
X162235142Y-49474380D02*
X162235142Y-48474380D01*
X162616095Y-48474380D01*
X162711333Y-48522000D01*
X162758952Y-48569619D01*
X162806571Y-48664857D01*
X162806571Y-48807714D01*
X162758952Y-48902952D01*
X162711333Y-48950571D01*
X162616095Y-48998190D01*
X162235142Y-48998190D01*
X163711333Y-49474380D02*
X163235142Y-49474380D01*
X163235142Y-48474380D01*
X163949428Y-48474380D02*
X164616095Y-48474380D01*
X163949428Y-49474380D01*
X164616095Y-49474380D01*
X164901809Y-48474380D02*
X165520857Y-48474380D01*
X165187523Y-48855333D01*
X165330380Y-48855333D01*
X165425619Y-48902952D01*
X165473238Y-48950571D01*
X165520857Y-49045809D01*
X165520857Y-49283904D01*
X165473238Y-49379142D01*
X165425619Y-49426761D01*
X165330380Y-49474380D01*
X165044666Y-49474380D01*
X164949428Y-49426761D01*
X164901809Y-49379142D01*
X166378000Y-48807714D02*
X166378000Y-49474380D01*
X166139904Y-48426761D02*
X165901809Y-49141047D01*
X166520857Y-49141047D01*
X166901809Y-49474380D02*
X166901809Y-48474380D01*
X167473238Y-49474380D01*
X167473238Y-48474380D01*
X167949428Y-49093428D02*
X168711333Y-49093428D01*
X169520857Y-48950571D02*
X169663714Y-48998190D01*
X169711333Y-49045809D01*
X169758952Y-49141047D01*
X169758952Y-49283904D01*
X169711333Y-49379142D01*
X169663714Y-49426761D01*
X169568476Y-49474380D01*
X169187523Y-49474380D01*
X169187523Y-48474380D01*
X169520857Y-48474380D01*
X169616095Y-48522000D01*
X169663714Y-48569619D01*
X169711333Y-48664857D01*
X169711333Y-48760095D01*
X169663714Y-48855333D01*
X169616095Y-48902952D01*
X169520857Y-48950571D01*
X169187523Y-48950571D01*
X170330380Y-49474380D02*
X170235142Y-49426761D01*
X170187523Y-49331523D01*
X170187523Y-48474380D01*
X171139904Y-48807714D02*
X171139904Y-49474380D01*
X170711333Y-48807714D02*
X170711333Y-49331523D01*
X170758952Y-49426761D01*
X170854190Y-49474380D01*
X170997047Y-49474380D01*
X171092285Y-49426761D01*
X171139904Y-49379142D01*
X171997047Y-49426761D02*
X171901809Y-49474380D01*
X171711333Y-49474380D01*
X171616095Y-49426761D01*
X171568476Y-49331523D01*
X171568476Y-48950571D01*
X171616095Y-48855333D01*
X171711333Y-48807714D01*
X171901809Y-48807714D01*
X171997047Y-48855333D01*
X172044666Y-48950571D01*
X172044666Y-49045809D01*
X171568476Y-49141047D01*
X133898285Y-63635380D02*
X133898285Y-62635380D01*
X134469714Y-63635380D01*
X134469714Y-62635380D01*
X135088761Y-63635380D02*
X134993523Y-63587761D01*
X134945904Y-63540142D01*
X134898285Y-63444904D01*
X134898285Y-63159190D01*
X134945904Y-63063952D01*
X134993523Y-63016333D01*
X135088761Y-62968714D01*
X135231619Y-62968714D01*
X135326857Y-63016333D01*
X135374476Y-63063952D01*
X135422095Y-63159190D01*
X135422095Y-63444904D01*
X135374476Y-63540142D01*
X135326857Y-63587761D01*
X135231619Y-63635380D01*
X135088761Y-63635380D01*
X136279238Y-63635380D02*
X136279238Y-62635380D01*
X136279238Y-63587761D02*
X136184000Y-63635380D01*
X135993523Y-63635380D01*
X135898285Y-63587761D01*
X135850666Y-63540142D01*
X135803047Y-63444904D01*
X135803047Y-63159190D01*
X135850666Y-63063952D01*
X135898285Y-63016333D01*
X135993523Y-62968714D01*
X136184000Y-62968714D01*
X136279238Y-63016333D01*
X137136380Y-63587761D02*
X137041142Y-63635380D01*
X136850666Y-63635380D01*
X136755428Y-63587761D01*
X136707809Y-63492523D01*
X136707809Y-63111571D01*
X136755428Y-63016333D01*
X136850666Y-62968714D01*
X137041142Y-62968714D01*
X137136380Y-63016333D01*
X137184000Y-63111571D01*
X137184000Y-63206809D01*
X136707809Y-63302047D01*
X137612571Y-63635380D02*
X137612571Y-62635380D01*
X137945904Y-63349666D01*
X138279238Y-62635380D01*
X138279238Y-63635380D01*
X139326857Y-63540142D02*
X139279238Y-63587761D01*
X139136380Y-63635380D01*
X139041142Y-63635380D01*
X138898285Y-63587761D01*
X138803047Y-63492523D01*
X138755428Y-63397285D01*
X138707809Y-63206809D01*
X138707809Y-63063952D01*
X138755428Y-62873476D01*
X138803047Y-62778238D01*
X138898285Y-62683000D01*
X139041142Y-62635380D01*
X139136380Y-62635380D01*
X139279238Y-62683000D01*
X139326857Y-62730619D01*
X139755428Y-62635380D02*
X139755428Y-63444904D01*
X139803047Y-63540142D01*
X139850666Y-63587761D01*
X139945904Y-63635380D01*
X140136380Y-63635380D01*
X140231619Y-63587761D01*
X140279238Y-63540142D01*
X140326857Y-63444904D01*
X140326857Y-62635380D01*
X142088761Y-63635380D02*
X141517333Y-63635380D01*
X141803047Y-63635380D02*
X141803047Y-62635380D01*
X141707809Y-62778238D01*
X141612571Y-62873476D01*
X141517333Y-62921095D01*
X142517333Y-63540142D02*
X142564952Y-63587761D01*
X142517333Y-63635380D01*
X142469714Y-63587761D01*
X142517333Y-63540142D01*
X142517333Y-63635380D01*
X143184000Y-62635380D02*
X143279238Y-62635380D01*
X143374476Y-62683000D01*
X143422095Y-62730619D01*
X143469714Y-62825857D01*
X143517333Y-63016333D01*
X143517333Y-63254428D01*
X143469714Y-63444904D01*
X143422095Y-63540142D01*
X143374476Y-63587761D01*
X143279238Y-63635380D01*
X143184000Y-63635380D01*
X143088761Y-63587761D01*
X143041142Y-63540142D01*
X142993523Y-63444904D01*
X142945904Y-63254428D01*
X142945904Y-63016333D01*
X142993523Y-62825857D01*
X143041142Y-62730619D01*
X143088761Y-62683000D01*
X143184000Y-62635380D01*
X135469714Y-64761571D02*
X135803047Y-64761571D01*
X135945904Y-65285380D02*
X135469714Y-65285380D01*
X135469714Y-64285380D01*
X135945904Y-64285380D01*
X136326857Y-65237761D02*
X136469714Y-65285380D01*
X136707809Y-65285380D01*
X136803047Y-65237761D01*
X136850666Y-65190142D01*
X136898285Y-65094904D01*
X136898285Y-64999666D01*
X136850666Y-64904428D01*
X136803047Y-64856809D01*
X136707809Y-64809190D01*
X136517333Y-64761571D01*
X136422095Y-64713952D01*
X136374476Y-64666333D01*
X136326857Y-64571095D01*
X136326857Y-64475857D01*
X136374476Y-64380619D01*
X136422095Y-64333000D01*
X136517333Y-64285380D01*
X136755428Y-64285380D01*
X136898285Y-64333000D01*
X137326857Y-65285380D02*
X137326857Y-64285380D01*
X137707809Y-64285380D01*
X137803047Y-64333000D01*
X137850666Y-64380619D01*
X137898285Y-64475857D01*
X137898285Y-64618714D01*
X137850666Y-64713952D01*
X137803047Y-64761571D01*
X137707809Y-64809190D01*
X137326857Y-64809190D01*
X138326857Y-64904428D02*
X139088761Y-64904428D01*
X140088761Y-65285380D02*
X139517333Y-65285380D01*
X139803047Y-65285380D02*
X139803047Y-64285380D01*
X139707809Y-64428238D01*
X139612571Y-64523476D01*
X139517333Y-64571095D01*
X140469714Y-64380619D02*
X140517333Y-64333000D01*
X140612571Y-64285380D01*
X140850666Y-64285380D01*
X140945904Y-64333000D01*
X140993523Y-64380619D01*
X141041142Y-64475857D01*
X141041142Y-64571095D01*
X140993523Y-64713952D01*
X140422095Y-65285380D01*
X141041142Y-65285380D01*
X141469714Y-64761571D02*
X141803047Y-64761571D01*
X141945904Y-65285380D02*
X141469714Y-65285380D01*
X141469714Y-64285380D01*
X141945904Y-64285380D01*
X187807647Y-59736028D02*
X188569552Y-59736028D01*
X188188600Y-60116980D02*
X188188600Y-59355076D01*
X188155271Y-49547471D02*
X188202890Y-49404614D01*
X188250509Y-49356995D01*
X188345747Y-49309376D01*
X188488604Y-49309376D01*
X188583842Y-49356995D01*
X188631461Y-49404614D01*
X188679080Y-49499852D01*
X188679080Y-49880804D01*
X187679080Y-49880804D01*
X187679080Y-49547471D01*
X187726700Y-49452233D01*
X187774319Y-49404614D01*
X187869557Y-49356995D01*
X187964795Y-49356995D01*
X188060033Y-49404614D01*
X188107652Y-49452233D01*
X188155271Y-49547471D01*
X188155271Y-49880804D01*
X187726700Y-54436995D02*
X187679080Y-54532233D01*
X187679080Y-54675090D01*
X187726700Y-54817947D01*
X187821938Y-54913185D01*
X187917176Y-54960804D01*
X188107652Y-55008423D01*
X188250509Y-55008423D01*
X188440985Y-54960804D01*
X188536223Y-54913185D01*
X188631461Y-54817947D01*
X188679080Y-54675090D01*
X188679080Y-54579852D01*
X188631461Y-54436995D01*
X188583842Y-54389376D01*
X188250509Y-54389376D01*
X188250509Y-54579852D01*
X188679080Y-51849376D02*
X188202890Y-52182709D01*
X188679080Y-52420804D02*
X187679080Y-52420804D01*
X187679080Y-52039852D01*
X187726700Y-51944614D01*
X187774319Y-51896995D01*
X187869557Y-51849376D01*
X188012414Y-51849376D01*
X188107652Y-51896995D01*
X188155271Y-51944614D01*
X188202890Y-52039852D01*
X188202890Y-52420804D01*
D12*
X116840095Y-107838857D02*
X118363904Y-107838857D01*
X111760095Y-107838857D02*
X113283904Y-107838857D01*
X112522000Y-108600761D02*
X112522000Y-107076952D01*
D10*
X112181047Y-98242380D02*
X111609619Y-98242380D01*
X111895333Y-98242380D02*
X111895333Y-97242380D01*
X111800095Y-97385238D01*
X111704857Y-97480476D01*
X111609619Y-97528095D01*
X112562000Y-97337619D02*
X112609619Y-97290000D01*
X112704857Y-97242380D01*
X112942952Y-97242380D01*
X113038190Y-97290000D01*
X113085809Y-97337619D01*
X113133428Y-97432857D01*
X113133428Y-97528095D01*
X113085809Y-97670952D01*
X112514380Y-98242380D01*
X113133428Y-98242380D01*
X113419142Y-97242380D02*
X113752476Y-98242380D01*
X114085809Y-97242380D01*
X115181047Y-98242380D02*
X115181047Y-97242380D01*
X115657238Y-97575714D02*
X115657238Y-98242380D01*
X115657238Y-97670952D02*
X115704857Y-97623333D01*
X115800095Y-97575714D01*
X115942952Y-97575714D01*
X116038190Y-97623333D01*
X116085809Y-97718571D01*
X116085809Y-98242380D01*
X116562000Y-97575714D02*
X116562000Y-98575714D01*
X116562000Y-97623333D02*
X116657238Y-97575714D01*
X116847714Y-97575714D01*
X116942952Y-97623333D01*
X116990571Y-97670952D01*
X117038190Y-97766190D01*
X117038190Y-98051904D01*
X116990571Y-98147142D01*
X116942952Y-98194761D01*
X116847714Y-98242380D01*
X116657238Y-98242380D01*
X116562000Y-98194761D01*
X117895333Y-97575714D02*
X117895333Y-98242380D01*
X117466761Y-97575714D02*
X117466761Y-98099523D01*
X117514380Y-98194761D01*
X117609619Y-98242380D01*
X117752476Y-98242380D01*
X117847714Y-98194761D01*
X117895333Y-98147142D01*
X118228666Y-97575714D02*
X118609619Y-97575714D01*
X118371523Y-97242380D02*
X118371523Y-98099523D01*
X118419142Y-98194761D01*
X118514380Y-98242380D01*
X118609619Y-98242380D01*
X108728190Y-88082380D02*
X108252000Y-88082380D01*
X108252000Y-87082380D01*
X108966285Y-87082380D02*
X109632952Y-87082380D01*
X109204380Y-88082380D01*
X110156761Y-87510952D02*
X110061523Y-87463333D01*
X110013904Y-87415714D01*
X109966285Y-87320476D01*
X109966285Y-87272857D01*
X110013904Y-87177619D01*
X110061523Y-87130000D01*
X110156761Y-87082380D01*
X110347238Y-87082380D01*
X110442476Y-87130000D01*
X110490095Y-87177619D01*
X110537714Y-87272857D01*
X110537714Y-87320476D01*
X110490095Y-87415714D01*
X110442476Y-87463333D01*
X110347238Y-87510952D01*
X110156761Y-87510952D01*
X110061523Y-87558571D01*
X110013904Y-87606190D01*
X109966285Y-87701428D01*
X109966285Y-87891904D01*
X110013904Y-87987142D01*
X110061523Y-88034761D01*
X110156761Y-88082380D01*
X110347238Y-88082380D01*
X110442476Y-88034761D01*
X110490095Y-87987142D01*
X110537714Y-87891904D01*
X110537714Y-87701428D01*
X110490095Y-87606190D01*
X110442476Y-87558571D01*
X110347238Y-87510952D01*
X111156761Y-87082380D02*
X111252000Y-87082380D01*
X111347238Y-87130000D01*
X111394857Y-87177619D01*
X111442476Y-87272857D01*
X111490095Y-87463333D01*
X111490095Y-87701428D01*
X111442476Y-87891904D01*
X111394857Y-87987142D01*
X111347238Y-88034761D01*
X111252000Y-88082380D01*
X111156761Y-88082380D01*
X111061523Y-88034761D01*
X111013904Y-87987142D01*
X110966285Y-87891904D01*
X110918666Y-87701428D01*
X110918666Y-87463333D01*
X110966285Y-87272857D01*
X111013904Y-87177619D01*
X111061523Y-87130000D01*
X111156761Y-87082380D01*
X112394857Y-87082380D02*
X111918666Y-87082380D01*
X111871047Y-87558571D01*
X111918666Y-87510952D01*
X112013904Y-87463333D01*
X112252000Y-87463333D01*
X112347238Y-87510952D01*
X112394857Y-87558571D01*
X112442476Y-87653809D01*
X112442476Y-87891904D01*
X112394857Y-87987142D01*
X112347238Y-88034761D01*
X112252000Y-88082380D01*
X112013904Y-88082380D01*
X111918666Y-88034761D01*
X111871047Y-87987142D01*
X113442476Y-87987142D02*
X113394857Y-88034761D01*
X113252000Y-88082380D01*
X113156761Y-88082380D01*
X113013904Y-88034761D01*
X112918666Y-87939523D01*
X112871047Y-87844285D01*
X112823428Y-87653809D01*
X112823428Y-87510952D01*
X112871047Y-87320476D01*
X112918666Y-87225238D01*
X113013904Y-87130000D01*
X113156761Y-87082380D01*
X113252000Y-87082380D01*
X113394857Y-87130000D01*
X113442476Y-87177619D01*
X113728190Y-87082380D02*
X114061523Y-88082380D01*
X114394857Y-87082380D01*
X117451238Y-74668190D02*
X117403619Y-74811047D01*
X117403619Y-75049142D01*
X117451238Y-75144380D01*
X117498857Y-75192000D01*
X117594095Y-75239619D01*
X117689333Y-75239619D01*
X117784571Y-75192000D01*
X117832190Y-75144380D01*
X117879809Y-75049142D01*
X117927428Y-74858666D01*
X117975047Y-74763428D01*
X118022666Y-74715809D01*
X118117904Y-74668190D01*
X118213142Y-74668190D01*
X118308380Y-74715809D01*
X118356000Y-74763428D01*
X118403619Y-74858666D01*
X118403619Y-75096761D01*
X118356000Y-75239619D01*
X117403619Y-75668190D02*
X118403619Y-75668190D01*
X118403619Y-76049142D01*
X118356000Y-76144380D01*
X118308380Y-76192000D01*
X118213142Y-76239619D01*
X118070285Y-76239619D01*
X117975047Y-76192000D01*
X117927428Y-76144380D01*
X117879809Y-76049142D01*
X117879809Y-75668190D01*
X117403619Y-76668190D02*
X118403619Y-76668190D01*
X111783904Y-67000380D02*
X111783904Y-66000380D01*
X112022000Y-66000380D01*
X112164857Y-66048000D01*
X112260095Y-66143238D01*
X112307714Y-66238476D01*
X112355333Y-66428952D01*
X112355333Y-66571809D01*
X112307714Y-66762285D01*
X112260095Y-66857523D01*
X112164857Y-66952761D01*
X112022000Y-67000380D01*
X111783904Y-67000380D01*
X112926761Y-66428952D02*
X112831523Y-66381333D01*
X112783904Y-66333714D01*
X112736285Y-66238476D01*
X112736285Y-66190857D01*
X112783904Y-66095619D01*
X112831523Y-66048000D01*
X112926761Y-66000380D01*
X113117238Y-66000380D01*
X113212476Y-66048000D01*
X113260095Y-66095619D01*
X113307714Y-66190857D01*
X113307714Y-66238476D01*
X113260095Y-66333714D01*
X113212476Y-66381333D01*
X113117238Y-66428952D01*
X112926761Y-66428952D01*
X112831523Y-66476571D01*
X112783904Y-66524190D01*
X112736285Y-66619428D01*
X112736285Y-66809904D01*
X112783904Y-66905142D01*
X112831523Y-66952761D01*
X112926761Y-67000380D01*
X113117238Y-67000380D01*
X113212476Y-66952761D01*
X113260095Y-66905142D01*
X113307714Y-66809904D01*
X113307714Y-66619428D01*
X113260095Y-66524190D01*
X113212476Y-66476571D01*
X113117238Y-66428952D01*
X111783904Y-64460380D02*
X111783904Y-63460380D01*
X112022000Y-63460380D01*
X112164857Y-63508000D01*
X112260095Y-63603238D01*
X112307714Y-63698476D01*
X112355333Y-63888952D01*
X112355333Y-64031809D01*
X112307714Y-64222285D01*
X112260095Y-64317523D01*
X112164857Y-64412761D01*
X112022000Y-64460380D01*
X111783904Y-64460380D01*
X112688666Y-63460380D02*
X113355333Y-63460380D01*
X112926761Y-64460380D01*
X111783904Y-61920380D02*
X111783904Y-60920380D01*
X112022000Y-60920380D01*
X112164857Y-60968000D01*
X112260095Y-61063238D01*
X112307714Y-61158476D01*
X112355333Y-61348952D01*
X112355333Y-61491809D01*
X112307714Y-61682285D01*
X112260095Y-61777523D01*
X112164857Y-61872761D01*
X112022000Y-61920380D01*
X111783904Y-61920380D01*
X113212476Y-61253714D02*
X113212476Y-61920380D01*
X112974380Y-60872761D02*
X112736285Y-61587047D01*
X113355333Y-61587047D01*
X111783904Y-59380380D02*
X111783904Y-58380380D01*
X112022000Y-58380380D01*
X112164857Y-58428000D01*
X112260095Y-58523238D01*
X112307714Y-58618476D01*
X112355333Y-58808952D01*
X112355333Y-58951809D01*
X112307714Y-59142285D01*
X112260095Y-59237523D01*
X112164857Y-59332761D01*
X112022000Y-59380380D01*
X111783904Y-59380380D01*
X112688666Y-58380380D02*
X113307714Y-58380380D01*
X112974380Y-58761333D01*
X113117238Y-58761333D01*
X113212476Y-58808952D01*
X113260095Y-58856571D01*
X113307714Y-58951809D01*
X113307714Y-59189904D01*
X113260095Y-59285142D01*
X113212476Y-59332761D01*
X113117238Y-59380380D01*
X112831523Y-59380380D01*
X112736285Y-59332761D01*
X112688666Y-59285142D01*
X111783904Y-56840380D02*
X111783904Y-55840380D01*
X112022000Y-55840380D01*
X112164857Y-55888000D01*
X112260095Y-55983238D01*
X112307714Y-56078476D01*
X112355333Y-56268952D01*
X112355333Y-56411809D01*
X112307714Y-56602285D01*
X112260095Y-56697523D01*
X112164857Y-56792761D01*
X112022000Y-56840380D01*
X111783904Y-56840380D01*
X113307714Y-56840380D02*
X112736285Y-56840380D01*
X113022000Y-56840380D02*
X113022000Y-55840380D01*
X112926761Y-55983238D01*
X112831523Y-56078476D01*
X112736285Y-56126095D01*
X111783904Y-54300380D02*
X111783904Y-53300380D01*
X112022000Y-53300380D01*
X112164857Y-53348000D01*
X112260095Y-53443238D01*
X112307714Y-53538476D01*
X112355333Y-53728952D01*
X112355333Y-53871809D01*
X112307714Y-54062285D01*
X112260095Y-54157523D01*
X112164857Y-54252761D01*
X112022000Y-54300380D01*
X111783904Y-54300380D01*
X112974380Y-53300380D02*
X113069619Y-53300380D01*
X113164857Y-53348000D01*
X113212476Y-53395619D01*
X113260095Y-53490857D01*
X113307714Y-53681333D01*
X113307714Y-53919428D01*
X113260095Y-54109904D01*
X113212476Y-54205142D01*
X113164857Y-54252761D01*
X113069619Y-54300380D01*
X112974380Y-54300380D01*
X112879142Y-54252761D01*
X112831523Y-54205142D01*
X112783904Y-54109904D01*
X112736285Y-53919428D01*
X112736285Y-53681333D01*
X112783904Y-53490857D01*
X112831523Y-53395619D01*
X112879142Y-53348000D01*
X112974380Y-53300380D01*
X111807714Y-51474666D02*
X112283904Y-51474666D01*
X111712476Y-51760380D02*
X112045809Y-50760380D01*
X112379142Y-51760380D01*
X112902952Y-50760380D02*
X112998190Y-50760380D01*
X113093428Y-50808000D01*
X113141047Y-50855619D01*
X113188666Y-50950857D01*
X113236285Y-51141333D01*
X113236285Y-51379428D01*
X113188666Y-51569904D01*
X113141047Y-51665142D01*
X113093428Y-51712761D01*
X112998190Y-51760380D01*
X112902952Y-51760380D01*
X112807714Y-51712761D01*
X112760095Y-51665142D01*
X112712476Y-51569904D01*
X112664857Y-51379428D01*
X112664857Y-51141333D01*
X112712476Y-50950857D01*
X112760095Y-50855619D01*
X112807714Y-50808000D01*
X112902952Y-50760380D01*
D12*
X190380228Y-64019614D02*
X191880228Y-64019614D01*
X190380228Y-64662471D02*
X191165942Y-64662471D01*
X191308800Y-64591042D01*
X191380228Y-64448185D01*
X191380228Y-64233900D01*
X191308800Y-64091042D01*
X191237371Y-64019614D01*
X191380228Y-65162471D02*
X191380228Y-65733900D01*
X191880228Y-65376757D02*
X190594514Y-65376757D01*
X190451657Y-65448185D01*
X190380228Y-65591042D01*
X190380228Y-65733900D01*
X191380228Y-66019614D02*
X191380228Y-66591042D01*
X191880228Y-66233900D02*
X190594514Y-66233900D01*
X190451657Y-66305328D01*
X190380228Y-66448185D01*
X190380228Y-66591042D01*
X191380228Y-67091042D02*
X189880228Y-67091042D01*
X191308800Y-67091042D02*
X191380228Y-67233900D01*
X191380228Y-67519614D01*
X191308800Y-67662471D01*
X191237371Y-67733900D01*
X191094514Y-67805328D01*
X190665942Y-67805328D01*
X190523085Y-67733900D01*
X190451657Y-67662471D01*
X190380228Y-67519614D01*
X190380228Y-67233900D01*
X190451657Y-67091042D01*
X190451657Y-68376757D02*
X190380228Y-68519614D01*
X190380228Y-68805328D01*
X190451657Y-68948185D01*
X190594514Y-69019614D01*
X190665942Y-69019614D01*
X190808800Y-68948185D01*
X190880228Y-68805328D01*
X190880228Y-68591042D01*
X190951657Y-68448185D01*
X191094514Y-68376757D01*
X191165942Y-68376757D01*
X191308800Y-68448185D01*
X191380228Y-68591042D01*
X191380228Y-68805328D01*
X191308800Y-68948185D01*
X190523085Y-69662471D02*
X190451657Y-69733900D01*
X190380228Y-69662471D01*
X190451657Y-69591042D01*
X190523085Y-69662471D01*
X190380228Y-69662471D01*
X191308800Y-69662471D02*
X191237371Y-69733900D01*
X191165942Y-69662471D01*
X191237371Y-69591042D01*
X191308800Y-69662471D01*
X191165942Y-69662471D01*
X191951657Y-71448185D02*
X190023085Y-70162471D01*
X191951657Y-73019614D02*
X190023085Y-71733900D01*
X190451657Y-73448185D02*
X190380228Y-73591042D01*
X190380228Y-73876757D01*
X190451657Y-74019614D01*
X190594514Y-74091042D01*
X190665942Y-74091042D01*
X190808800Y-74019614D01*
X190880228Y-73876757D01*
X190880228Y-73662471D01*
X190951657Y-73519614D01*
X191094514Y-73448185D01*
X191165942Y-73448185D01*
X191308800Y-73519614D01*
X191380228Y-73662471D01*
X191380228Y-73876757D01*
X191308800Y-74019614D01*
X190380228Y-74733900D02*
X191380228Y-74733900D01*
X191237371Y-74733900D02*
X191308800Y-74805328D01*
X191380228Y-74948185D01*
X191380228Y-75162471D01*
X191308800Y-75305328D01*
X191165942Y-75376757D01*
X190380228Y-75376757D01*
X191165942Y-75376757D02*
X191308800Y-75448185D01*
X191380228Y-75591042D01*
X191380228Y-75805328D01*
X191308800Y-75948185D01*
X191165942Y-76019614D01*
X190380228Y-76019614D01*
X190380228Y-77376757D02*
X191165942Y-77376757D01*
X191308800Y-77305328D01*
X191380228Y-77162471D01*
X191380228Y-76876757D01*
X191308800Y-76733900D01*
X190451657Y-77376757D02*
X190380228Y-77233900D01*
X190380228Y-76876757D01*
X190451657Y-76733900D01*
X190594514Y-76662471D01*
X190737371Y-76662471D01*
X190880228Y-76733900D01*
X190951657Y-76876757D01*
X190951657Y-77233900D01*
X191023085Y-77376757D01*
X190380228Y-78091042D02*
X191380228Y-78091042D01*
X191094514Y-78091042D02*
X191237371Y-78162471D01*
X191308800Y-78233900D01*
X191380228Y-78376757D01*
X191380228Y-78519614D01*
X191380228Y-78805328D02*
X191380228Y-79376757D01*
X191880228Y-79019614D02*
X190594514Y-79019614D01*
X190451657Y-79091042D01*
X190380228Y-79233900D01*
X190380228Y-79376757D01*
X190380228Y-79876757D02*
X191880228Y-79876757D01*
X190380228Y-80519614D02*
X191165942Y-80519614D01*
X191308800Y-80448185D01*
X191380228Y-80305328D01*
X191380228Y-80091042D01*
X191308800Y-79948185D01*
X191237371Y-79876757D01*
X190380228Y-81448185D02*
X190451657Y-81305328D01*
X190523085Y-81233900D01*
X190665942Y-81162471D01*
X191094514Y-81162471D01*
X191237371Y-81233900D01*
X191308800Y-81305328D01*
X191380228Y-81448185D01*
X191380228Y-81662471D01*
X191308800Y-81805328D01*
X191237371Y-81876757D01*
X191094514Y-81948185D01*
X190665942Y-81948185D01*
X190523085Y-81876757D01*
X190451657Y-81805328D01*
X190380228Y-81662471D01*
X190380228Y-81448185D01*
X190380228Y-82591042D02*
X191380228Y-82591042D01*
X191237371Y-82591042D02*
X191308800Y-82662471D01*
X191380228Y-82805328D01*
X191380228Y-83019614D01*
X191308800Y-83162471D01*
X191165942Y-83233900D01*
X190380228Y-83233900D01*
X191165942Y-83233900D02*
X191308800Y-83305328D01*
X191380228Y-83448185D01*
X191380228Y-83662471D01*
X191308800Y-83805328D01*
X191165942Y-83876757D01*
X190380228Y-83876757D01*
X190451657Y-85162471D02*
X190380228Y-85019614D01*
X190380228Y-84733900D01*
X190451657Y-84591042D01*
X190594514Y-84519614D01*
X191165942Y-84519614D01*
X191308800Y-84591042D01*
X191380228Y-84733900D01*
X191380228Y-85019614D01*
X191308800Y-85162471D01*
X191165942Y-85233900D01*
X191023085Y-85233900D01*
X190880228Y-84519614D01*
X191380228Y-85733900D02*
X190380228Y-86091042D01*
X191380228Y-86448185D02*
X190380228Y-86091042D01*
X190023085Y-85948185D01*
X189951657Y-85876757D01*
X189880228Y-85733900D01*
X190380228Y-87233900D02*
X190451657Y-87091042D01*
X190523085Y-87019614D01*
X190665942Y-86948185D01*
X191094514Y-86948185D01*
X191237371Y-87019614D01*
X191308800Y-87091042D01*
X191380228Y-87233900D01*
X191380228Y-87448185D01*
X191308800Y-87591042D01*
X191237371Y-87662471D01*
X191094514Y-87733900D01*
X190665942Y-87733900D01*
X190523085Y-87662471D01*
X190451657Y-87591042D01*
X190380228Y-87448185D01*
X190380228Y-87233900D01*
X191380228Y-89019614D02*
X190380228Y-89019614D01*
X191380228Y-88376757D02*
X190594514Y-88376757D01*
X190451657Y-88448185D01*
X190380228Y-88591042D01*
X190380228Y-88805328D01*
X190451657Y-88948185D01*
X190523085Y-89019614D01*
X190380228Y-89733900D02*
X191380228Y-89733900D01*
X191094514Y-89733900D02*
X191237371Y-89805328D01*
X191308800Y-89876757D01*
X191380228Y-90019614D01*
X191380228Y-90162471D01*
X190451657Y-90591042D02*
X190380228Y-90733900D01*
X190380228Y-91019614D01*
X190451657Y-91162471D01*
X190594514Y-91233900D01*
X190665942Y-91233900D01*
X190808800Y-91162471D01*
X190880228Y-91019614D01*
X190880228Y-90805328D01*
X190951657Y-90662471D01*
X191094514Y-90591042D01*
X191165942Y-90591042D01*
X191308800Y-90662471D01*
X191380228Y-90805328D01*
X191380228Y-91019614D01*
X191308800Y-91162471D01*
X190451657Y-92448185D02*
X190380228Y-92305328D01*
X190380228Y-92019614D01*
X190451657Y-91876757D01*
X190594514Y-91805328D01*
X191165942Y-91805328D01*
X191308800Y-91876757D01*
X191380228Y-92019614D01*
X191380228Y-92305328D01*
X191308800Y-92448185D01*
X191165942Y-92519614D01*
X191023085Y-92519614D01*
X190880228Y-91805328D01*
X190380228Y-93376757D02*
X190451657Y-93233900D01*
X190594514Y-93162471D01*
X191880228Y-93162471D01*
X191380228Y-93733900D02*
X191380228Y-94305328D01*
X190380228Y-93948185D02*
X191665942Y-93948185D01*
X191808800Y-94019614D01*
X191880228Y-94162471D01*
X191880228Y-94305328D01*
X190523085Y-94805328D02*
X190451657Y-94876757D01*
X190380228Y-94805328D01*
X190451657Y-94733900D01*
X190523085Y-94805328D01*
X190380228Y-94805328D01*
X190380228Y-96162471D02*
X191880228Y-96162471D01*
X190451657Y-96162471D02*
X190380228Y-96019614D01*
X190380228Y-95733900D01*
X190451657Y-95591042D01*
X190523085Y-95519614D01*
X190665942Y-95448185D01*
X191094514Y-95448185D01*
X191237371Y-95519614D01*
X191308800Y-95591042D01*
X191380228Y-95733900D01*
X191380228Y-96019614D01*
X191308800Y-96162471D01*
X190451657Y-97448185D02*
X190380228Y-97305328D01*
X190380228Y-97019614D01*
X190451657Y-96876757D01*
X190594514Y-96805328D01*
X191165942Y-96805328D01*
X191308800Y-96876757D01*
X191380228Y-97019614D01*
X191380228Y-97305328D01*
X191308800Y-97448185D01*
X191165942Y-97519614D01*
X191023085Y-97519614D01*
X190880228Y-96805328D01*
D10*
X192746285Y-98901428D02*
X192079619Y-99139523D01*
X192746285Y-99377619D01*
X192079619Y-100282380D02*
X192079619Y-99710952D01*
X192079619Y-99996666D02*
X193079619Y-99996666D01*
X192936761Y-99901428D01*
X192841523Y-99806190D01*
X192793904Y-99710952D01*
X192174857Y-100710952D02*
X192127238Y-100758571D01*
X192079619Y-100710952D01*
X192127238Y-100663333D01*
X192174857Y-100710952D01*
X192079619Y-100710952D01*
X193079619Y-101377619D02*
X193079619Y-101472857D01*
X193032000Y-101568095D01*
X192984380Y-101615714D01*
X192889142Y-101663333D01*
X192698666Y-101710952D01*
X192460571Y-101710952D01*
X192270095Y-101663333D01*
X192174857Y-101615714D01*
X192127238Y-101568095D01*
X192079619Y-101472857D01*
X192079619Y-101377619D01*
X192127238Y-101282380D01*
X192174857Y-101234761D01*
X192270095Y-101187142D01*
X192460571Y-101139523D01*
X192698666Y-101139523D01*
X192889142Y-101187142D01*
X192984380Y-101234761D01*
X193032000Y-101282380D01*
X193079619Y-101377619D01*
D13*
X192897238Y-57390571D02*
X192897238Y-56247714D01*
X192897238Y-56819142D02*
X194897238Y-56819142D01*
X194611523Y-56628666D01*
X194421047Y-56438190D01*
X194325809Y-56247714D01*
X194706761Y-58152476D02*
X194802000Y-58247714D01*
X194897238Y-58438190D01*
X194897238Y-58914380D01*
X194802000Y-59104857D01*
X194706761Y-59200095D01*
X194516285Y-59295333D01*
X194325809Y-59295333D01*
X194040095Y-59200095D01*
X192897238Y-58057238D01*
X192897238Y-59295333D01*
X194897238Y-59866761D02*
X192897238Y-60533428D01*
X194897238Y-61200095D01*
X192897238Y-64533428D02*
X193849619Y-63866761D01*
X192897238Y-63390571D02*
X194897238Y-63390571D01*
X194897238Y-64152476D01*
X194802000Y-64342952D01*
X194706761Y-64438190D01*
X194516285Y-64533428D01*
X194230571Y-64533428D01*
X194040095Y-64438190D01*
X193944857Y-64342952D01*
X193849619Y-64152476D01*
X193849619Y-63390571D01*
X194802000Y-66438190D02*
X194897238Y-66247714D01*
X194897238Y-65962000D01*
X194802000Y-65676285D01*
X194611523Y-65485809D01*
X194421047Y-65390571D01*
X194040095Y-65295333D01*
X193754380Y-65295333D01*
X193373428Y-65390571D01*
X193182952Y-65485809D01*
X192992476Y-65676285D01*
X192897238Y-65962000D01*
X192897238Y-66152476D01*
X192992476Y-66438190D01*
X193087714Y-66533428D01*
X193754380Y-66533428D01*
X193754380Y-66152476D01*
X193944857Y-68057238D02*
X193849619Y-68342952D01*
X193754380Y-68438190D01*
X193563904Y-68533428D01*
X193278190Y-68533428D01*
X193087714Y-68438190D01*
X192992476Y-68342952D01*
X192897238Y-68152476D01*
X192897238Y-67390571D01*
X194897238Y-67390571D01*
X194897238Y-68057238D01*
X194802000Y-68247714D01*
X194706761Y-68342952D01*
X194516285Y-68438190D01*
X194325809Y-68438190D01*
X194135333Y-68342952D01*
X194040095Y-68247714D01*
X193944857Y-68057238D01*
X193944857Y-67390571D01*
X193659142Y-69390571D02*
X193659142Y-70914380D01*
X192992476Y-71771523D02*
X192897238Y-72057238D01*
X192897238Y-72533428D01*
X192992476Y-72723904D01*
X193087714Y-72819142D01*
X193278190Y-72914380D01*
X193468666Y-72914380D01*
X193659142Y-72819142D01*
X193754380Y-72723904D01*
X193849619Y-72533428D01*
X193944857Y-72152476D01*
X194040095Y-71962000D01*
X194135333Y-71866761D01*
X194325809Y-71771523D01*
X194516285Y-71771523D01*
X194706761Y-71866761D01*
X194802000Y-71962000D01*
X194897238Y-72152476D01*
X194897238Y-72628666D01*
X194802000Y-72914380D01*
X194230571Y-73485809D02*
X194230571Y-74247714D01*
X194897238Y-73771523D02*
X193182952Y-73771523D01*
X192992476Y-73866761D01*
X192897238Y-74057238D01*
X192897238Y-74247714D01*
X192897238Y-74914380D02*
X194230571Y-74914380D01*
X193849619Y-74914380D02*
X194040095Y-75009619D01*
X194135333Y-75104857D01*
X194230571Y-75295333D01*
X194230571Y-75485809D01*
X192897238Y-76152476D02*
X194230571Y-76152476D01*
X194897238Y-76152476D02*
X194802000Y-76057238D01*
X194706761Y-76152476D01*
X194802000Y-76247714D01*
X194897238Y-76152476D01*
X194706761Y-76152476D01*
X194230571Y-77104857D02*
X192230571Y-77104857D01*
X194135333Y-77104857D02*
X194230571Y-77295333D01*
X194230571Y-77676285D01*
X194135333Y-77866761D01*
X194040095Y-77962000D01*
X193849619Y-78057238D01*
X193278190Y-78057238D01*
X193087714Y-77962000D01*
X192992476Y-77866761D01*
X192897238Y-77676285D01*
X192897238Y-77295333D01*
X192992476Y-77104857D01*
X192992476Y-79676285D02*
X192897238Y-79485809D01*
X192897238Y-79104857D01*
X192992476Y-78914380D01*
X193182952Y-78819142D01*
X193944857Y-78819142D01*
X194135333Y-78914380D01*
X194230571Y-79104857D01*
X194230571Y-79485809D01*
X194135333Y-79676285D01*
X193944857Y-79771523D01*
X193754380Y-79771523D01*
X193563904Y-78819142D01*
X193087714Y-84819142D02*
X192992476Y-84723904D01*
X192897238Y-84438190D01*
X192897238Y-84247714D01*
X192992476Y-83962000D01*
X193182952Y-83771523D01*
X193373428Y-83676285D01*
X193754380Y-83581047D01*
X194040095Y-83581047D01*
X194421047Y-83676285D01*
X194611523Y-83771523D01*
X194802000Y-83962000D01*
X194897238Y-84247714D01*
X194897238Y-84438190D01*
X194802000Y-84723904D01*
X194706761Y-84819142D01*
X192897238Y-85962000D02*
X192992476Y-85771523D01*
X193087714Y-85676285D01*
X193278190Y-85581047D01*
X193849619Y-85581047D01*
X194040095Y-85676285D01*
X194135333Y-85771523D01*
X194230571Y-85962000D01*
X194230571Y-86247714D01*
X194135333Y-86438190D01*
X194040095Y-86533428D01*
X193849619Y-86628666D01*
X193278190Y-86628666D01*
X193087714Y-86533428D01*
X192992476Y-86438190D01*
X192897238Y-86247714D01*
X192897238Y-85962000D01*
X194230571Y-87485809D02*
X192897238Y-87485809D01*
X194040095Y-87485809D02*
X194135333Y-87581047D01*
X194230571Y-87771523D01*
X194230571Y-88057238D01*
X194135333Y-88247714D01*
X193944857Y-88342952D01*
X192897238Y-88342952D01*
X194230571Y-89009619D02*
X194230571Y-89771523D01*
X194897238Y-89295333D02*
X193182952Y-89295333D01*
X192992476Y-89390571D01*
X192897238Y-89581047D01*
X192897238Y-89771523D01*
X192897238Y-90438190D02*
X194230571Y-90438190D01*
X193849619Y-90438190D02*
X194040095Y-90533428D01*
X194135333Y-90628666D01*
X194230571Y-90819142D01*
X194230571Y-91009619D01*
X192897238Y-91962000D02*
X192992476Y-91771523D01*
X193087714Y-91676285D01*
X193278190Y-91581047D01*
X193849619Y-91581047D01*
X194040095Y-91676285D01*
X194135333Y-91771523D01*
X194230571Y-91962000D01*
X194230571Y-92247714D01*
X194135333Y-92438190D01*
X194040095Y-92533428D01*
X193849619Y-92628666D01*
X193278190Y-92628666D01*
X193087714Y-92533428D01*
X192992476Y-92438190D01*
X192897238Y-92247714D01*
X192897238Y-91962000D01*
X192897238Y-93771523D02*
X192992476Y-93581047D01*
X193182952Y-93485809D01*
X194897238Y-93485809D01*
X192897238Y-94819142D02*
X192992476Y-94628666D01*
X193182952Y-94533428D01*
X194897238Y-94533428D01*
X192992476Y-96342952D02*
X192897238Y-96152476D01*
X192897238Y-95771523D01*
X192992476Y-95581047D01*
X193182952Y-95485809D01*
X193944857Y-95485809D01*
X194135333Y-95581047D01*
X194230571Y-95771523D01*
X194230571Y-96152476D01*
X194135333Y-96342952D01*
X193944857Y-96438190D01*
X193754380Y-96438190D01*
X193563904Y-95485809D01*
X192897238Y-97295333D02*
X194230571Y-97295333D01*
X193849619Y-97295333D02*
X194040095Y-97390571D01*
X194135333Y-97485809D01*
X194230571Y-97676285D01*
X194230571Y-97866761D01*
D10*
X132515001Y-57105001D02*
X144515001Y-57105001D01*
X144515001Y-57105001D02*
X144515001Y-71105001D01*
X144515001Y-71105001D02*
X132515001Y-71105001D01*
X132515001Y-71105001D02*
X132515001Y-57105001D01*
X141055001Y-55975001D02*
X133435001Y-55975001D01*
X133435001Y-55975001D02*
X133435001Y-50895001D01*
X133435001Y-50895001D02*
X134705001Y-50895001D01*
X134705001Y-50895001D02*
X134705001Y-54705001D01*
X134705001Y-54705001D02*
X135975001Y-54705001D01*
X135975001Y-54705001D02*
X135975001Y-50895001D01*
X135975001Y-50895001D02*
X137245001Y-50895001D01*
X137245001Y-50895001D02*
X137245001Y-54705001D01*
X137245001Y-54705001D02*
X138515001Y-54705001D01*
X138515001Y-54705001D02*
X138515001Y-50895001D01*
X138515001Y-50895001D02*
X139785001Y-50895001D01*
X139785001Y-50895001D02*
X139785001Y-54705001D01*
X139785001Y-54705001D02*
X141055001Y-54705001D01*
X141055001Y-54705001D02*
X141055001Y-50895001D01*
X141055001Y-50895001D02*
X144865001Y-50895001D01*
X134705001Y-108045001D02*
X142325001Y-108045001D01*
X142325001Y-108045001D02*
X142325001Y-101695001D01*
X142325001Y-101695001D02*
X134705001Y-101695001D01*
X134705001Y-101695001D02*
X134705001Y-108045001D01*
X153011052Y-104235001D02*
G75*
G03X153011052Y-104235001I-1796051J0D01*
G01*
X127611052Y-104235001D02*
G75*
G03X127611052Y-104235001I-1796051J0D01*
G01*
X127611052Y-52165001D02*
G75*
G03X127611052Y-52165001I-1796051J0D01*
G01*
X153011052Y-52165001D02*
G75*
G03X153011052Y-52165001I-1796051J0D01*
G01*
X153765001Y-49605001D02*
X123765001Y-49605001D01*
X123765001Y-49605001D02*
X123265001Y-49605001D01*
X123265001Y-49605001D02*
X123265001Y-106605001D01*
X123265001Y-106605001D02*
X153765001Y-106605001D01*
X153765001Y-106605001D02*
X153765001Y-49605001D01*
D14*
X159004000Y-55414000D02*
X158404000Y-55414000D01*
X159004000Y-55414000D02*
X159604000Y-55414000D01*
X159004000Y-55414000D02*
X159004000Y-54714000D01*
X159004000Y-58214000D02*
X159004000Y-56414000D01*
X159704000Y-56414000D02*
X158304000Y-56414000D01*
X158304000Y-56414000D02*
X159004000Y-55414000D01*
X159004000Y-55414000D02*
X159704000Y-56414000D01*
X159004000Y-54714000D02*
X159004000Y-53914000D01*
X159004000Y-59914000D02*
X159004000Y-58214000D01*
X159004000Y-53914000D02*
X158204000Y-53914000D01*
X158204000Y-53914000D02*
X158204000Y-58214000D01*
X158204000Y-58214000D02*
X159004000Y-58214000D01*
X159004000Y-52514000D02*
X159004000Y-53914000D01*
X159004000Y-53914000D02*
X159804000Y-53914000D01*
X159804000Y-53914000D02*
X159804000Y-58214000D01*
X159804000Y-58214000D02*
X159004000Y-58214000D01*
X159004000Y-69732000D02*
X158404000Y-69732000D01*
X159004000Y-69732000D02*
X159604000Y-69732000D01*
X159004000Y-69732000D02*
X159004000Y-69032000D01*
X159004000Y-72532000D02*
X159004000Y-70732000D01*
X159704000Y-70732000D02*
X158304000Y-70732000D01*
X158304000Y-70732000D02*
X159004000Y-69732000D01*
X159004000Y-69732000D02*
X159704000Y-70732000D01*
X159004000Y-69032000D02*
X159004000Y-68232000D01*
X159004000Y-74232000D02*
X159004000Y-72532000D01*
X159004000Y-68232000D02*
X158204000Y-68232000D01*
X158204000Y-68232000D02*
X158204000Y-72532000D01*
X158204000Y-72532000D02*
X159004000Y-72532000D01*
X159004000Y-66832000D02*
X159004000Y-68232000D01*
X159004000Y-68232000D02*
X159804000Y-68232000D01*
X159804000Y-68232000D02*
X159804000Y-72532000D01*
X159804000Y-72532000D02*
X159004000Y-72532000D01*
X159804000Y-87010000D02*
X159004000Y-87010000D01*
X159804000Y-82710000D02*
X159804000Y-87010000D01*
X159004000Y-82710000D02*
X159804000Y-82710000D01*
X159004000Y-81310000D02*
X159004000Y-82710000D01*
X158204000Y-87010000D02*
X159004000Y-87010000D01*
X158204000Y-82710000D02*
X158204000Y-87010000D01*
X159004000Y-82710000D02*
X158204000Y-82710000D01*
X159004000Y-88710000D02*
X159004000Y-87010000D01*
X159004000Y-83510000D02*
X159004000Y-82710000D01*
X159004000Y-84210000D02*
X159704000Y-85210000D01*
X158304000Y-85210000D02*
X159004000Y-84210000D01*
X159704000Y-85210000D02*
X158304000Y-85210000D01*
X159004000Y-87010000D02*
X159004000Y-85210000D01*
X159004000Y-84210000D02*
X159004000Y-83510000D01*
X159004000Y-84210000D02*
X159604000Y-84210000D01*
X159004000Y-84210000D02*
X158404000Y-84210000D01*
D11*
X120142000Y-99060000D02*
X109982000Y-99060000D01*
X120142000Y-106680000D02*
X120142000Y-99060000D01*
X109982000Y-106680000D02*
X120142000Y-106680000D01*
X109982000Y-99060000D02*
X109982000Y-106680000D01*
X109982000Y-100330000D02*
X120142000Y-100330000D01*
D14*
X118870000Y-70582000D02*
X118370000Y-70582000D01*
X118870000Y-70582000D02*
X118870000Y-71082000D01*
X112270000Y-70582000D02*
X112770000Y-70582000D01*
X112270000Y-70582000D02*
X112270000Y-71082000D01*
X179066600Y-95601000D02*
X179566600Y-95601000D01*
X179066600Y-95601000D02*
X179066600Y-96101000D01*
X179046600Y-100741000D02*
X179546600Y-100741000D01*
X179046600Y-100741000D02*
X179046600Y-100241000D01*
X185646600Y-100741000D02*
X185146600Y-100741000D01*
X185646600Y-100741000D02*
X185646600Y-100241000D01*
X185636600Y-95591000D02*
X185136600Y-95591000D01*
X185636600Y-95591000D02*
X185636600Y-96091000D01*
X179053900Y-102065300D02*
X179553900Y-102065300D01*
X179053900Y-102065300D02*
X179053900Y-102565300D01*
X179033900Y-107205300D02*
X179533900Y-107205300D01*
X179033900Y-107205300D02*
X179033900Y-106705300D01*
X185633900Y-107205300D02*
X185133900Y-107205300D01*
X185633900Y-107205300D02*
X185633900Y-106705300D01*
X185623900Y-102055300D02*
X185123900Y-102055300D01*
X185623900Y-102055300D02*
X185623900Y-102555300D01*
X185623900Y-89241000D02*
X185623900Y-89741000D01*
X185623900Y-89241000D02*
X185123900Y-89241000D01*
X185633900Y-94391000D02*
X185633900Y-93891000D01*
X185633900Y-94391000D02*
X185133900Y-94391000D01*
X179033900Y-94391000D02*
X179033900Y-93891000D01*
X179033900Y-94391000D02*
X179533900Y-94391000D01*
X179053900Y-89251000D02*
X179053900Y-89751000D01*
X179053900Y-89251000D02*
X179553900Y-89251000D01*
D11*
X168729000Y-49958000D02*
X168729000Y-51468000D01*
X165028000Y-49958000D02*
X165028000Y-51468000D01*
X161758000Y-51468000D02*
X171998000Y-51468000D01*
X171998000Y-49958000D02*
X171998000Y-54599000D01*
X161758000Y-49958000D02*
X161758000Y-54599000D01*
X161758000Y-54599000D02*
X171998000Y-54599000D01*
X161758000Y-49958000D02*
X171998000Y-49958000D01*
X168729000Y-64436000D02*
X168729000Y-65946000D01*
X165028000Y-64436000D02*
X165028000Y-65946000D01*
X161758000Y-65946000D02*
X171998000Y-65946000D01*
X171998000Y-64436000D02*
X171998000Y-69077000D01*
X161758000Y-64436000D02*
X161758000Y-69077000D01*
X161758000Y-69077000D02*
X171998000Y-69077000D01*
X161758000Y-64436000D02*
X171998000Y-64436000D01*
X161758000Y-78914000D02*
X171998000Y-78914000D01*
X161758000Y-83555000D02*
X171998000Y-83555000D01*
X161758000Y-78914000D02*
X161758000Y-83555000D01*
X171998000Y-78914000D02*
X171998000Y-83555000D01*
X161758000Y-80424000D02*
X171998000Y-80424000D01*
X165028000Y-78914000D02*
X165028000Y-80424000D01*
X168729000Y-78914000D02*
X168729000Y-80424000D01*
X171232000Y-58928000D02*
X170342000Y-58928000D01*
X163032000Y-58928000D02*
X163922000Y-58928000D01*
X170342000Y-57618000D02*
X163922000Y-57618000D01*
X170342000Y-60238000D02*
X170342000Y-57618000D01*
X163922000Y-60238000D02*
X170342000Y-60238000D01*
X163922000Y-57618000D02*
X163922000Y-60238000D01*
X171232000Y-73152000D02*
X170342000Y-73152000D01*
X163032000Y-73152000D02*
X163922000Y-73152000D01*
X170342000Y-71842000D02*
X163922000Y-71842000D01*
X170342000Y-74462000D02*
X170342000Y-71842000D01*
X163922000Y-74462000D02*
X170342000Y-74462000D01*
X163922000Y-71842000D02*
X163922000Y-74462000D01*
X163922000Y-86320000D02*
X163922000Y-88940000D01*
X163922000Y-88940000D02*
X170342000Y-88940000D01*
X170342000Y-88940000D02*
X170342000Y-86320000D01*
X170342000Y-86320000D02*
X163922000Y-86320000D01*
X163032000Y-87630000D02*
X163922000Y-87630000D01*
X171232000Y-87630000D02*
X170342000Y-87630000D01*
D14*
X105898000Y-89642000D02*
X115998000Y-89642000D01*
X116098000Y-93332000D02*
X116098000Y-92932000D01*
X116098000Y-93332000D02*
X115698000Y-93332000D01*
X105898000Y-93332000D02*
X105898000Y-88932000D01*
X105898000Y-93332000D02*
X106298000Y-93332000D01*
X105898000Y-88532000D02*
X105898000Y-88932000D01*
X105898000Y-88532000D02*
X106298000Y-88532000D01*
X115698000Y-88532000D02*
X116098000Y-88532000D01*
X116098000Y-88532000D02*
X116098000Y-88932000D01*
X159004000Y-99323000D02*
X158404000Y-99323000D01*
X159004000Y-99323000D02*
X159604000Y-99323000D01*
X159004000Y-99323000D02*
X159004000Y-98623000D01*
X159004000Y-102123000D02*
X159004000Y-100323000D01*
X159704000Y-100323000D02*
X158304000Y-100323000D01*
X158304000Y-100323000D02*
X159004000Y-99323000D01*
X159004000Y-99323000D02*
X159704000Y-100323000D01*
X159004000Y-98623000D02*
X159004000Y-97823000D01*
X159004000Y-103823000D02*
X159004000Y-102123000D01*
X159004000Y-97823000D02*
X158204000Y-97823000D01*
X158204000Y-97823000D02*
X158204000Y-102123000D01*
X158204000Y-102123000D02*
X159004000Y-102123000D01*
X159004000Y-96423000D02*
X159004000Y-97823000D01*
X159004000Y-97823000D02*
X159804000Y-97823000D01*
X159804000Y-97823000D02*
X159804000Y-102123000D01*
X159804000Y-102123000D02*
X159004000Y-102123000D01*
X187442100Y-62396700D02*
X186942100Y-62396700D01*
X187442100Y-62396700D02*
X187442100Y-61896700D01*
X181442100Y-62396700D02*
X181442100Y-61896700D01*
X181442100Y-62396700D02*
X181942100Y-62396700D01*
X187442100Y-47196700D02*
X186942100Y-47196700D01*
X187442100Y-47196700D02*
X187442100Y-47696700D01*
X181442100Y-47196700D02*
X181942100Y-47196700D01*
X181442100Y-47196700D02*
X181442100Y-47696700D01*
D11*
X168856000Y-93900000D02*
X168856000Y-95410000D01*
X165155000Y-93900000D02*
X165155000Y-95410000D01*
X161885000Y-95410000D02*
X172125000Y-95410000D01*
X172125000Y-93900000D02*
X172125000Y-98541000D01*
X161885000Y-93900000D02*
X161885000Y-98541000D01*
X161885000Y-98541000D02*
X172125000Y-98541000D01*
X161885000Y-93900000D02*
X172125000Y-93900000D01*
X171232000Y-103251000D02*
X170342000Y-103251000D01*
X163032000Y-103251000D02*
X163922000Y-103251000D01*
X170342000Y-101941000D02*
X163922000Y-101941000D01*
X170342000Y-104561000D02*
X170342000Y-101941000D01*
X163922000Y-104561000D02*
X170342000Y-104561000D01*
X163922000Y-101941000D02*
X163922000Y-104561000D01*
X113732000Y-50003400D02*
X115062000Y-50003400D01*
X113732000Y-51333400D02*
X113732000Y-50003400D01*
X113732000Y-52603400D02*
X116392000Y-52603400D01*
X116392000Y-52603400D02*
X116392000Y-65363400D01*
X113732000Y-52603400D02*
X113732000Y-65363400D01*
X113732000Y-65363400D02*
X116392000Y-65363400D01*
D10*
X137753096Y-79557381D02*
X137753096Y-80366905D01*
X137800715Y-80462143D01*
X137848334Y-80509762D01*
X137943572Y-80557381D01*
X138134048Y-80557381D01*
X138229286Y-80509762D01*
X138276905Y-80462143D01*
X138324524Y-80366905D01*
X138324524Y-79557381D01*
X138753096Y-79652620D02*
X138800715Y-79605001D01*
X138895953Y-79557381D01*
X139134048Y-79557381D01*
X139229286Y-79605001D01*
X139276905Y-79652620D01*
X139324524Y-79747858D01*
X139324524Y-79843096D01*
X139276905Y-79985953D01*
X138705477Y-80557381D01*
X139324524Y-80557381D01*
X125989762Y-94162381D02*
X126323096Y-95162381D01*
X126656429Y-94162381D01*
X126989762Y-95162381D02*
X126989762Y-94162381D01*
X127465953Y-95162381D02*
X127465953Y-94162381D01*
X128037381Y-95162381D01*
X128037381Y-94162381D01*
X127346905Y-91670001D02*
X127251667Y-91622381D01*
X127108810Y-91622381D01*
X126965953Y-91670001D01*
X126870715Y-91765239D01*
X126823096Y-91860477D01*
X126775477Y-92050953D01*
X126775477Y-92193810D01*
X126823096Y-92384286D01*
X126870715Y-92479524D01*
X126965953Y-92574762D01*
X127108810Y-92622381D01*
X127204048Y-92622381D01*
X127346905Y-92574762D01*
X127394524Y-92527143D01*
X127394524Y-92193810D01*
X127204048Y-92193810D01*
X126537381Y-90082381D02*
X126204048Y-89606191D01*
X125965953Y-90082381D02*
X125965953Y-89082381D01*
X126346905Y-89082381D01*
X126442143Y-89130001D01*
X126489762Y-89177620D01*
X126537381Y-89272858D01*
X126537381Y-89415715D01*
X126489762Y-89510953D01*
X126442143Y-89558572D01*
X126346905Y-89606191D01*
X125965953Y-89606191D01*
X126918334Y-90034762D02*
X127061191Y-90082381D01*
X127299286Y-90082381D01*
X127394524Y-90034762D01*
X127442143Y-89987143D01*
X127489762Y-89891905D01*
X127489762Y-89796667D01*
X127442143Y-89701429D01*
X127394524Y-89653810D01*
X127299286Y-89606191D01*
X127108810Y-89558572D01*
X127013572Y-89510953D01*
X126965953Y-89463334D01*
X126918334Y-89368096D01*
X126918334Y-89272858D01*
X126965953Y-89177620D01*
X127013572Y-89130001D01*
X127108810Y-89082381D01*
X127346905Y-89082381D01*
X127489762Y-89130001D01*
X127775477Y-89082381D02*
X128346905Y-89082381D01*
X128061191Y-90082381D02*
X128061191Y-89082381D01*
X126346905Y-87018572D02*
X126680239Y-87018572D01*
X126823096Y-87542381D02*
X126346905Y-87542381D01*
X126346905Y-86542381D01*
X126823096Y-86542381D01*
X127251667Y-87542381D02*
X127251667Y-86542381D01*
X127823096Y-87542381D01*
X127823096Y-86542381D01*
X126323096Y-84002381D02*
X126942143Y-84002381D01*
X126608810Y-84383334D01*
X126751667Y-84383334D01*
X126846905Y-84430953D01*
X126894524Y-84478572D01*
X126942143Y-84573810D01*
X126942143Y-84811905D01*
X126894524Y-84907143D01*
X126846905Y-84954762D01*
X126751667Y-85002381D01*
X126465953Y-85002381D01*
X126370715Y-84954762D01*
X126323096Y-84907143D01*
X127227858Y-84002381D02*
X127561191Y-85002381D01*
X127894524Y-84002381D01*
X127346905Y-81510001D02*
X127251667Y-81462381D01*
X127108810Y-81462381D01*
X126965953Y-81510001D01*
X126870715Y-81605239D01*
X126823096Y-81700477D01*
X126775477Y-81890953D01*
X126775477Y-82033810D01*
X126823096Y-82224286D01*
X126870715Y-82319524D01*
X126965953Y-82414762D01*
X127108810Y-82462381D01*
X127204048Y-82462381D01*
X127346905Y-82414762D01*
X127394524Y-82367143D01*
X127394524Y-82033810D01*
X127204048Y-82033810D01*
X126299286Y-79874762D02*
X126442143Y-79922381D01*
X126680239Y-79922381D01*
X126775477Y-79874762D01*
X126823096Y-79827143D01*
X126870715Y-79731905D01*
X126870715Y-79636667D01*
X126823096Y-79541429D01*
X126775477Y-79493810D01*
X126680239Y-79446191D01*
X126489762Y-79398572D01*
X126394524Y-79350953D01*
X126346905Y-79303334D01*
X126299286Y-79208096D01*
X126299286Y-79112858D01*
X126346905Y-79017620D01*
X126394524Y-78970001D01*
X126489762Y-78922381D01*
X126727858Y-78922381D01*
X126870715Y-78970001D01*
X127299286Y-79922381D02*
X127299286Y-78922381D01*
X127870715Y-79922381D02*
X127442143Y-79350953D01*
X127870715Y-78922381D02*
X127299286Y-79493810D01*
X126275477Y-77334762D02*
X126418334Y-77382381D01*
X126656429Y-77382381D01*
X126751667Y-77334762D01*
X126799286Y-77287143D01*
X126846905Y-77191905D01*
X126846905Y-77096667D01*
X126799286Y-77001429D01*
X126751667Y-76953810D01*
X126656429Y-76906191D01*
X126465953Y-76858572D01*
X126370715Y-76810953D01*
X126323096Y-76763334D01*
X126275477Y-76668096D01*
X126275477Y-76572858D01*
X126323096Y-76477620D01*
X126370715Y-76430001D01*
X126465953Y-76382381D01*
X126704048Y-76382381D01*
X126846905Y-76430001D01*
X127465953Y-76382381D02*
X127656429Y-76382381D01*
X127751667Y-76430001D01*
X127846905Y-76525239D01*
X127894524Y-76715715D01*
X127894524Y-77049048D01*
X127846905Y-77239524D01*
X127751667Y-77334762D01*
X127656429Y-77382381D01*
X127465953Y-77382381D01*
X127370715Y-77334762D01*
X127275477Y-77239524D01*
X127227858Y-77049048D01*
X127227858Y-76715715D01*
X127275477Y-76525239D01*
X127370715Y-76430001D01*
X127465953Y-76382381D01*
X126299286Y-74794762D02*
X126442143Y-74842381D01*
X126680239Y-74842381D01*
X126775477Y-74794762D01*
X126823096Y-74747143D01*
X126870715Y-74651905D01*
X126870715Y-74556667D01*
X126823096Y-74461429D01*
X126775477Y-74413810D01*
X126680239Y-74366191D01*
X126489762Y-74318572D01*
X126394524Y-74270953D01*
X126346905Y-74223334D01*
X126299286Y-74128096D01*
X126299286Y-74032858D01*
X126346905Y-73937620D01*
X126394524Y-73890001D01*
X126489762Y-73842381D01*
X126727858Y-73842381D01*
X126870715Y-73890001D01*
X127870715Y-74747143D02*
X127823096Y-74794762D01*
X127680239Y-74842381D01*
X127585001Y-74842381D01*
X127442143Y-74794762D01*
X127346905Y-74699524D01*
X127299286Y-74604286D01*
X127251667Y-74413810D01*
X127251667Y-74270953D01*
X127299286Y-74080477D01*
X127346905Y-73985239D01*
X127442143Y-73890001D01*
X127585001Y-73842381D01*
X127680239Y-73842381D01*
X127823096Y-73890001D01*
X127870715Y-73937620D01*
X126323096Y-72254762D02*
X126465953Y-72302381D01*
X126704048Y-72302381D01*
X126799286Y-72254762D01*
X126846905Y-72207143D01*
X126894524Y-72111905D01*
X126894524Y-72016667D01*
X126846905Y-71921429D01*
X126799286Y-71873810D01*
X126704048Y-71826191D01*
X126513572Y-71778572D01*
X126418334Y-71730953D01*
X126370715Y-71683334D01*
X126323096Y-71588096D01*
X126323096Y-71492858D01*
X126370715Y-71397620D01*
X126418334Y-71350001D01*
X126513572Y-71302381D01*
X126751667Y-71302381D01*
X126894524Y-71350001D01*
X127846905Y-72302381D02*
X127275477Y-72302381D01*
X127561191Y-72302381D02*
X127561191Y-71302381D01*
X127465953Y-71445239D01*
X127370715Y-71540477D01*
X127275477Y-71588096D01*
X126323096Y-69714762D02*
X126465953Y-69762381D01*
X126704048Y-69762381D01*
X126799286Y-69714762D01*
X126846905Y-69667143D01*
X126894524Y-69571905D01*
X126894524Y-69476667D01*
X126846905Y-69381429D01*
X126799286Y-69333810D01*
X126704048Y-69286191D01*
X126513572Y-69238572D01*
X126418334Y-69190953D01*
X126370715Y-69143334D01*
X126323096Y-69048096D01*
X126323096Y-68952858D01*
X126370715Y-68857620D01*
X126418334Y-68810001D01*
X126513572Y-68762381D01*
X126751667Y-68762381D01*
X126894524Y-68810001D01*
X127275477Y-68857620D02*
X127323096Y-68810001D01*
X127418334Y-68762381D01*
X127656429Y-68762381D01*
X127751667Y-68810001D01*
X127799286Y-68857620D01*
X127846905Y-68952858D01*
X127846905Y-69048096D01*
X127799286Y-69190953D01*
X127227858Y-69762381D01*
X127846905Y-69762381D01*
X126323096Y-67174762D02*
X126465953Y-67222381D01*
X126704048Y-67222381D01*
X126799286Y-67174762D01*
X126846905Y-67127143D01*
X126894524Y-67031905D01*
X126894524Y-66936667D01*
X126846905Y-66841429D01*
X126799286Y-66793810D01*
X126704048Y-66746191D01*
X126513572Y-66698572D01*
X126418334Y-66650953D01*
X126370715Y-66603334D01*
X126323096Y-66508096D01*
X126323096Y-66412858D01*
X126370715Y-66317620D01*
X126418334Y-66270001D01*
X126513572Y-66222381D01*
X126751667Y-66222381D01*
X126894524Y-66270001D01*
X127227858Y-66222381D02*
X127846905Y-66222381D01*
X127513572Y-66603334D01*
X127656429Y-66603334D01*
X127751667Y-66650953D01*
X127799286Y-66698572D01*
X127846905Y-66793810D01*
X127846905Y-67031905D01*
X127799286Y-67127143D01*
X127751667Y-67174762D01*
X127656429Y-67222381D01*
X127370715Y-67222381D01*
X127275477Y-67174762D01*
X127227858Y-67127143D01*
X126227858Y-63682381D02*
X126561191Y-64682381D01*
X126894524Y-63682381D01*
X127227858Y-63682381D02*
X127227858Y-64491905D01*
X127275477Y-64587143D01*
X127323096Y-64634762D01*
X127418334Y-64682381D01*
X127608810Y-64682381D01*
X127704048Y-64634762D01*
X127751667Y-64587143D01*
X127799286Y-64491905D01*
X127799286Y-63682381D01*
X127346905Y-61190001D02*
X127251667Y-61142381D01*
X127108810Y-61142381D01*
X126965953Y-61190001D01*
X126870715Y-61285239D01*
X126823096Y-61380477D01*
X126775477Y-61570953D01*
X126775477Y-61713810D01*
X126823096Y-61904286D01*
X126870715Y-61999524D01*
X126965953Y-62094762D01*
X127108810Y-62142381D01*
X127204048Y-62142381D01*
X127346905Y-62094762D01*
X127394524Y-62047143D01*
X127394524Y-61713810D01*
X127204048Y-61713810D01*
X126370715Y-59316667D02*
X126846905Y-59316667D01*
X126275477Y-59602381D02*
X126608810Y-58602381D01*
X126942143Y-59602381D01*
X127465953Y-58602381D02*
X127561191Y-58602381D01*
X127656429Y-58650001D01*
X127704048Y-58697620D01*
X127751667Y-58792858D01*
X127799286Y-58983334D01*
X127799286Y-59221429D01*
X127751667Y-59411905D01*
X127704048Y-59507143D01*
X127656429Y-59554762D01*
X127561191Y-59602381D01*
X127465953Y-59602381D01*
X127370715Y-59554762D01*
X127323096Y-59507143D01*
X127275477Y-59411905D01*
X127227858Y-59221429D01*
X127227858Y-58983334D01*
X127275477Y-58792858D01*
X127323096Y-58697620D01*
X127370715Y-58650001D01*
X127465953Y-58602381D01*
X149183096Y-94162381D02*
X149802143Y-94162381D01*
X149468810Y-94543334D01*
X149611667Y-94543334D01*
X149706905Y-94590953D01*
X149754524Y-94638572D01*
X149802143Y-94733810D01*
X149802143Y-94971905D01*
X149754524Y-95067143D01*
X149706905Y-95114762D01*
X149611667Y-95162381D01*
X149325953Y-95162381D01*
X149230715Y-95114762D01*
X149183096Y-95067143D01*
X150087858Y-94162381D02*
X150421191Y-95162381D01*
X150754524Y-94162381D01*
X150206905Y-91670001D02*
X150111667Y-91622381D01*
X149968810Y-91622381D01*
X149825953Y-91670001D01*
X149730715Y-91765239D01*
X149683096Y-91860477D01*
X149635477Y-92050953D01*
X149635477Y-92193810D01*
X149683096Y-92384286D01*
X149730715Y-92479524D01*
X149825953Y-92574762D01*
X149968810Y-92622381D01*
X150064048Y-92622381D01*
X150206905Y-92574762D01*
X150254524Y-92527143D01*
X150254524Y-92193810D01*
X150064048Y-92193810D01*
X149183096Y-89082381D02*
X149754524Y-89082381D01*
X149468810Y-90082381D02*
X149468810Y-89082381D01*
X149992620Y-89082381D02*
X150659286Y-90082381D01*
X150659286Y-89082381D02*
X149992620Y-90082381D01*
X149778334Y-87542381D02*
X149445001Y-87066191D01*
X149206905Y-87542381D02*
X149206905Y-86542381D01*
X149587858Y-86542381D01*
X149683096Y-86590001D01*
X149730715Y-86637620D01*
X149778334Y-86732858D01*
X149778334Y-86875715D01*
X149730715Y-86970953D01*
X149683096Y-87018572D01*
X149587858Y-87066191D01*
X149206905Y-87066191D01*
X150111667Y-86542381D02*
X150778334Y-87542381D01*
X150778334Y-86542381D02*
X150111667Y-87542381D01*
X149206905Y-85002381D02*
X149206905Y-84002381D01*
X149445001Y-84002381D01*
X149587858Y-84050001D01*
X149683096Y-84145239D01*
X149730715Y-84240477D01*
X149778334Y-84430953D01*
X149778334Y-84573810D01*
X149730715Y-84764286D01*
X149683096Y-84859524D01*
X149587858Y-84954762D01*
X149445001Y-85002381D01*
X149206905Y-85002381D01*
X150349762Y-84430953D02*
X150254524Y-84383334D01*
X150206905Y-84335715D01*
X150159286Y-84240477D01*
X150159286Y-84192858D01*
X150206905Y-84097620D01*
X150254524Y-84050001D01*
X150349762Y-84002381D01*
X150540239Y-84002381D01*
X150635477Y-84050001D01*
X150683096Y-84097620D01*
X150730715Y-84192858D01*
X150730715Y-84240477D01*
X150683096Y-84335715D01*
X150635477Y-84383334D01*
X150540239Y-84430953D01*
X150349762Y-84430953D01*
X150254524Y-84478572D01*
X150206905Y-84526191D01*
X150159286Y-84621429D01*
X150159286Y-84811905D01*
X150206905Y-84907143D01*
X150254524Y-84954762D01*
X150349762Y-85002381D01*
X150540239Y-85002381D01*
X150635477Y-84954762D01*
X150683096Y-84907143D01*
X150730715Y-84811905D01*
X150730715Y-84621429D01*
X150683096Y-84526191D01*
X150635477Y-84478572D01*
X150540239Y-84430953D01*
X149206905Y-82462381D02*
X149206905Y-81462381D01*
X149445001Y-81462381D01*
X149587858Y-81510001D01*
X149683096Y-81605239D01*
X149730715Y-81700477D01*
X149778334Y-81890953D01*
X149778334Y-82033810D01*
X149730715Y-82224286D01*
X149683096Y-82319524D01*
X149587858Y-82414762D01*
X149445001Y-82462381D01*
X149206905Y-82462381D01*
X150111667Y-81462381D02*
X150778334Y-81462381D01*
X150349762Y-82462381D01*
X149206905Y-79922381D02*
X149206905Y-78922381D01*
X149445001Y-78922381D01*
X149587858Y-78970001D01*
X149683096Y-79065239D01*
X149730715Y-79160477D01*
X149778334Y-79350953D01*
X149778334Y-79493810D01*
X149730715Y-79684286D01*
X149683096Y-79779524D01*
X149587858Y-79874762D01*
X149445001Y-79922381D01*
X149206905Y-79922381D01*
X150635477Y-78922381D02*
X150445001Y-78922381D01*
X150349762Y-78970001D01*
X150302143Y-79017620D01*
X150206905Y-79160477D01*
X150159286Y-79350953D01*
X150159286Y-79731905D01*
X150206905Y-79827143D01*
X150254524Y-79874762D01*
X150349762Y-79922381D01*
X150540239Y-79922381D01*
X150635477Y-79874762D01*
X150683096Y-79827143D01*
X150730715Y-79731905D01*
X150730715Y-79493810D01*
X150683096Y-79398572D01*
X150635477Y-79350953D01*
X150540239Y-79303334D01*
X150349762Y-79303334D01*
X150254524Y-79350953D01*
X150206905Y-79398572D01*
X150159286Y-79493810D01*
X149206905Y-77382381D02*
X149206905Y-76382381D01*
X149445001Y-76382381D01*
X149587858Y-76430001D01*
X149683096Y-76525239D01*
X149730715Y-76620477D01*
X149778334Y-76810953D01*
X149778334Y-76953810D01*
X149730715Y-77144286D01*
X149683096Y-77239524D01*
X149587858Y-77334762D01*
X149445001Y-77382381D01*
X149206905Y-77382381D01*
X150683096Y-76382381D02*
X150206905Y-76382381D01*
X150159286Y-76858572D01*
X150206905Y-76810953D01*
X150302143Y-76763334D01*
X150540239Y-76763334D01*
X150635477Y-76810953D01*
X150683096Y-76858572D01*
X150730715Y-76953810D01*
X150730715Y-77191905D01*
X150683096Y-77287143D01*
X150635477Y-77334762D01*
X150540239Y-77382381D01*
X150302143Y-77382381D01*
X150206905Y-77334762D01*
X150159286Y-77287143D01*
X150206905Y-73890001D02*
X150111667Y-73842381D01*
X149968810Y-73842381D01*
X149825953Y-73890001D01*
X149730715Y-73985239D01*
X149683096Y-74080477D01*
X149635477Y-74270953D01*
X149635477Y-74413810D01*
X149683096Y-74604286D01*
X149730715Y-74699524D01*
X149825953Y-74794762D01*
X149968810Y-74842381D01*
X150064048Y-74842381D01*
X150206905Y-74794762D01*
X150254524Y-74747143D01*
X150254524Y-74413810D01*
X150064048Y-74413810D01*
X149183096Y-71302381D02*
X149802143Y-71302381D01*
X149468810Y-71683334D01*
X149611667Y-71683334D01*
X149706905Y-71730953D01*
X149754524Y-71778572D01*
X149802143Y-71873810D01*
X149802143Y-72111905D01*
X149754524Y-72207143D01*
X149706905Y-72254762D01*
X149611667Y-72302381D01*
X149325953Y-72302381D01*
X149230715Y-72254762D01*
X149183096Y-72207143D01*
X150087858Y-71302381D02*
X150421191Y-72302381D01*
X150754524Y-71302381D01*
X149206905Y-69762381D02*
X149206905Y-68762381D01*
X149445001Y-68762381D01*
X149587858Y-68810001D01*
X149683096Y-68905239D01*
X149730715Y-69000477D01*
X149778334Y-69190953D01*
X149778334Y-69333810D01*
X149730715Y-69524286D01*
X149683096Y-69619524D01*
X149587858Y-69714762D01*
X149445001Y-69762381D01*
X149206905Y-69762381D01*
X150635477Y-69095715D02*
X150635477Y-69762381D01*
X150397381Y-68714762D02*
X150159286Y-69429048D01*
X150778334Y-69429048D01*
X149206905Y-67222381D02*
X149206905Y-66222381D01*
X149445001Y-66222381D01*
X149587858Y-66270001D01*
X149683096Y-66365239D01*
X149730715Y-66460477D01*
X149778334Y-66650953D01*
X149778334Y-66793810D01*
X149730715Y-66984286D01*
X149683096Y-67079524D01*
X149587858Y-67174762D01*
X149445001Y-67222381D01*
X149206905Y-67222381D01*
X150111667Y-66222381D02*
X150730715Y-66222381D01*
X150397381Y-66603334D01*
X150540239Y-66603334D01*
X150635477Y-66650953D01*
X150683096Y-66698572D01*
X150730715Y-66793810D01*
X150730715Y-67031905D01*
X150683096Y-67127143D01*
X150635477Y-67174762D01*
X150540239Y-67222381D01*
X150254524Y-67222381D01*
X150159286Y-67174762D01*
X150111667Y-67127143D01*
X149206905Y-64682381D02*
X149206905Y-63682381D01*
X149445001Y-63682381D01*
X149587858Y-63730001D01*
X149683096Y-63825239D01*
X149730715Y-63920477D01*
X149778334Y-64110953D01*
X149778334Y-64253810D01*
X149730715Y-64444286D01*
X149683096Y-64539524D01*
X149587858Y-64634762D01*
X149445001Y-64682381D01*
X149206905Y-64682381D01*
X150159286Y-63777620D02*
X150206905Y-63730001D01*
X150302143Y-63682381D01*
X150540239Y-63682381D01*
X150635477Y-63730001D01*
X150683096Y-63777620D01*
X150730715Y-63872858D01*
X150730715Y-63968096D01*
X150683096Y-64110953D01*
X150111667Y-64682381D01*
X150730715Y-64682381D01*
X149206905Y-62142381D02*
X149206905Y-61142381D01*
X149445001Y-61142381D01*
X149587858Y-61190001D01*
X149683096Y-61285239D01*
X149730715Y-61380477D01*
X149778334Y-61570953D01*
X149778334Y-61713810D01*
X149730715Y-61904286D01*
X149683096Y-61999524D01*
X149587858Y-62094762D01*
X149445001Y-62142381D01*
X149206905Y-62142381D01*
X150730715Y-62142381D02*
X150159286Y-62142381D01*
X150445001Y-62142381D02*
X150445001Y-61142381D01*
X150349762Y-61285239D01*
X150254524Y-61380477D01*
X150159286Y-61428096D01*
X149206905Y-59602381D02*
X149206905Y-58602381D01*
X149445001Y-58602381D01*
X149587858Y-58650001D01*
X149683096Y-58745239D01*
X149730715Y-58840477D01*
X149778334Y-59030953D01*
X149778334Y-59173810D01*
X149730715Y-59364286D01*
X149683096Y-59459524D01*
X149587858Y-59554762D01*
X149445001Y-59602381D01*
X149206905Y-59602381D01*
X150397381Y-58602381D02*
X150492620Y-58602381D01*
X150587858Y-58650001D01*
X150635477Y-58697620D01*
X150683096Y-58792858D01*
X150730715Y-58983334D01*
X150730715Y-59221429D01*
X150683096Y-59411905D01*
X150635477Y-59507143D01*
X150587858Y-59554762D01*
X150492620Y-59602381D01*
X150397381Y-59602381D01*
X150302143Y-59554762D01*
X150254524Y-59507143D01*
X150206905Y-59411905D01*
X150159286Y-59221429D01*
X150159286Y-58983334D01*
X150206905Y-58792858D01*
X150254524Y-58697620D01*
X150302143Y-58650001D01*
X150397381Y-58602381D01*
X160583619Y-55141904D02*
X161583619Y-55141904D01*
X161583619Y-55380000D01*
X161536000Y-55522857D01*
X161440761Y-55618095D01*
X161345523Y-55665714D01*
X161155047Y-55713333D01*
X161012190Y-55713333D01*
X160821714Y-55665714D01*
X160726476Y-55618095D01*
X160631238Y-55522857D01*
X160583619Y-55380000D01*
X160583619Y-55141904D01*
X160583619Y-56665714D02*
X160583619Y-56094285D01*
X160583619Y-56380000D02*
X161583619Y-56380000D01*
X161440761Y-56284761D01*
X161345523Y-56189523D01*
X161297904Y-56094285D01*
X160583619Y-69619904D02*
X161583619Y-69619904D01*
X161583619Y-69858000D01*
X161536000Y-70000857D01*
X161440761Y-70096095D01*
X161345523Y-70143714D01*
X161155047Y-70191333D01*
X161012190Y-70191333D01*
X160821714Y-70143714D01*
X160726476Y-70096095D01*
X160631238Y-70000857D01*
X160583619Y-69858000D01*
X160583619Y-69619904D01*
X161488380Y-70572285D02*
X161536000Y-70619904D01*
X161583619Y-70715142D01*
X161583619Y-70953238D01*
X161536000Y-71048476D01*
X161488380Y-71096095D01*
X161393142Y-71143714D01*
X161297904Y-71143714D01*
X161155047Y-71096095D01*
X160583619Y-70524666D01*
X160583619Y-71143714D01*
X160329619Y-83843904D02*
X161329619Y-83843904D01*
X161329619Y-84082000D01*
X161282000Y-84224857D01*
X161186761Y-84320095D01*
X161091523Y-84367714D01*
X160901047Y-84415333D01*
X160758190Y-84415333D01*
X160567714Y-84367714D01*
X160472476Y-84320095D01*
X160377238Y-84224857D01*
X160329619Y-84082000D01*
X160329619Y-83843904D01*
X161329619Y-84748666D02*
X161329619Y-85367714D01*
X160948666Y-85034380D01*
X160948666Y-85177238D01*
X160901047Y-85272476D01*
X160853428Y-85320095D01*
X160758190Y-85367714D01*
X160520095Y-85367714D01*
X160424857Y-85320095D01*
X160377238Y-85272476D01*
X160329619Y-85177238D01*
X160329619Y-84891523D01*
X160377238Y-84796285D01*
X160424857Y-84748666D01*
X114728666Y-104862380D02*
X114728666Y-105576666D01*
X114681047Y-105719523D01*
X114585809Y-105814761D01*
X114442952Y-105862380D01*
X114347714Y-105862380D01*
X115728666Y-105862380D02*
X115157238Y-105862380D01*
X115442952Y-105862380D02*
X115442952Y-104862380D01*
X115347714Y-105005238D01*
X115252476Y-105100476D01*
X115157238Y-105148095D01*
X118403619Y-71294666D02*
X117689333Y-71294666D01*
X117546476Y-71247047D01*
X117451238Y-71151809D01*
X117403619Y-71008952D01*
X117403619Y-70913714D01*
X118308380Y-71723238D02*
X118356000Y-71770857D01*
X118403619Y-71866095D01*
X118403619Y-72104190D01*
X118356000Y-72199428D01*
X118308380Y-72247047D01*
X118213142Y-72294666D01*
X118117904Y-72294666D01*
X117975047Y-72247047D01*
X117403619Y-71675619D01*
X117403619Y-72294666D01*
X182013266Y-100798380D02*
X182013266Y-101512666D01*
X181965647Y-101655523D01*
X181870409Y-101750761D01*
X181727552Y-101798380D01*
X181632314Y-101798380D01*
X182918028Y-101131714D02*
X182918028Y-101798380D01*
X182679933Y-100750761D02*
X182441838Y-101465047D01*
X183060885Y-101465047D01*
X181873566Y-107389680D02*
X181873566Y-108103966D01*
X181825947Y-108246823D01*
X181730709Y-108342061D01*
X181587852Y-108389680D01*
X181492614Y-108389680D01*
X182825947Y-107389680D02*
X182349757Y-107389680D01*
X182302138Y-107865871D01*
X182349757Y-107818252D01*
X182444995Y-107770633D01*
X182683090Y-107770633D01*
X182778328Y-107818252D01*
X182825947Y-107865871D01*
X182873566Y-107961109D01*
X182873566Y-108199204D01*
X182825947Y-108294442D01*
X182778328Y-108342061D01*
X182683090Y-108389680D01*
X182444995Y-108389680D01*
X182349757Y-108342061D01*
X182302138Y-108294442D01*
X185167519Y-91741666D02*
X184453233Y-91741666D01*
X184310376Y-91694047D01*
X184215138Y-91598809D01*
X184167519Y-91455952D01*
X184167519Y-91360714D01*
X185167519Y-92646428D02*
X185167519Y-92455952D01*
X185119900Y-92360714D01*
X185072280Y-92313095D01*
X184929423Y-92217857D01*
X184738947Y-92170238D01*
X184357995Y-92170238D01*
X184262757Y-92217857D01*
X184215138Y-92265476D01*
X184167519Y-92360714D01*
X184167519Y-92551190D01*
X184215138Y-92646428D01*
X184262757Y-92694047D01*
X184357995Y-92741666D01*
X184596090Y-92741666D01*
X184691328Y-92694047D01*
X184738947Y-92646428D01*
X184786566Y-92551190D01*
X184786566Y-92360714D01*
X184738947Y-92265476D01*
X184691328Y-92217857D01*
X184596090Y-92170238D01*
X166782761Y-55919619D02*
X166687523Y-55872000D01*
X166592285Y-55776761D01*
X166449428Y-55633904D01*
X166354190Y-55586285D01*
X166258952Y-55586285D01*
X166306571Y-55824380D02*
X166211333Y-55776761D01*
X166116095Y-55681523D01*
X166068476Y-55491047D01*
X166068476Y-55157714D01*
X166116095Y-54967238D01*
X166211333Y-54872000D01*
X166306571Y-54824380D01*
X166497047Y-54824380D01*
X166592285Y-54872000D01*
X166687523Y-54967238D01*
X166735142Y-55157714D01*
X166735142Y-55491047D01*
X166687523Y-55681523D01*
X166592285Y-55776761D01*
X166497047Y-55824380D01*
X166306571Y-55824380D01*
X167687523Y-55824380D02*
X167116095Y-55824380D01*
X167401809Y-55824380D02*
X167401809Y-54824380D01*
X167306571Y-54967238D01*
X167211333Y-55062476D01*
X167116095Y-55110095D01*
X166782761Y-70397619D02*
X166687523Y-70350000D01*
X166592285Y-70254761D01*
X166449428Y-70111904D01*
X166354190Y-70064285D01*
X166258952Y-70064285D01*
X166306571Y-70302380D02*
X166211333Y-70254761D01*
X166116095Y-70159523D01*
X166068476Y-69969047D01*
X166068476Y-69635714D01*
X166116095Y-69445238D01*
X166211333Y-69350000D01*
X166306571Y-69302380D01*
X166497047Y-69302380D01*
X166592285Y-69350000D01*
X166687523Y-69445238D01*
X166735142Y-69635714D01*
X166735142Y-69969047D01*
X166687523Y-70159523D01*
X166592285Y-70254761D01*
X166497047Y-70302380D01*
X166306571Y-70302380D01*
X167116095Y-69397619D02*
X167163714Y-69350000D01*
X167258952Y-69302380D01*
X167497047Y-69302380D01*
X167592285Y-69350000D01*
X167639904Y-69397619D01*
X167687523Y-69492857D01*
X167687523Y-69588095D01*
X167639904Y-69730952D01*
X167068476Y-70302380D01*
X167687523Y-70302380D01*
X166782761Y-85129619D02*
X166687523Y-85082000D01*
X166592285Y-84986761D01*
X166449428Y-84843904D01*
X166354190Y-84796285D01*
X166258952Y-84796285D01*
X166306571Y-85034380D02*
X166211333Y-84986761D01*
X166116095Y-84891523D01*
X166068476Y-84701047D01*
X166068476Y-84367714D01*
X166116095Y-84177238D01*
X166211333Y-84082000D01*
X166306571Y-84034380D01*
X166497047Y-84034380D01*
X166592285Y-84082000D01*
X166687523Y-84177238D01*
X166735142Y-84367714D01*
X166735142Y-84701047D01*
X166687523Y-84891523D01*
X166592285Y-84986761D01*
X166497047Y-85034380D01*
X166306571Y-85034380D01*
X167068476Y-84034380D02*
X167687523Y-84034380D01*
X167354190Y-84415333D01*
X167497047Y-84415333D01*
X167592285Y-84462952D01*
X167639904Y-84510571D01*
X167687523Y-84605809D01*
X167687523Y-84843904D01*
X167639904Y-84939142D01*
X167592285Y-84986761D01*
X167497047Y-85034380D01*
X167211333Y-85034380D01*
X167116095Y-84986761D01*
X167068476Y-84939142D01*
X166965333Y-61666380D02*
X166632000Y-61190190D01*
X166393904Y-61666380D02*
X166393904Y-60666380D01*
X166774857Y-60666380D01*
X166870095Y-60714000D01*
X166917714Y-60761619D01*
X166965333Y-60856857D01*
X166965333Y-60999714D01*
X166917714Y-61094952D01*
X166870095Y-61142571D01*
X166774857Y-61190190D01*
X166393904Y-61190190D01*
X167917714Y-61666380D02*
X167346285Y-61666380D01*
X167632000Y-61666380D02*
X167632000Y-60666380D01*
X167536761Y-60809238D01*
X167441523Y-60904476D01*
X167346285Y-60952095D01*
X167219333Y-75890380D02*
X166886000Y-75414190D01*
X166647904Y-75890380D02*
X166647904Y-74890380D01*
X167028857Y-74890380D01*
X167124095Y-74938000D01*
X167171714Y-74985619D01*
X167219333Y-75080857D01*
X167219333Y-75223714D01*
X167171714Y-75318952D01*
X167124095Y-75366571D01*
X167028857Y-75414190D01*
X166647904Y-75414190D01*
X167600285Y-74985619D02*
X167647904Y-74938000D01*
X167743142Y-74890380D01*
X167981238Y-74890380D01*
X168076476Y-74938000D01*
X168124095Y-74985619D01*
X168171714Y-75080857D01*
X168171714Y-75176095D01*
X168124095Y-75318952D01*
X167552666Y-75890380D01*
X168171714Y-75890380D01*
X166965333Y-90622380D02*
X166632000Y-90146190D01*
X166393904Y-90622380D02*
X166393904Y-89622380D01*
X166774857Y-89622380D01*
X166870095Y-89670000D01*
X166917714Y-89717619D01*
X166965333Y-89812857D01*
X166965333Y-89955714D01*
X166917714Y-90050952D01*
X166870095Y-90098571D01*
X166774857Y-90146190D01*
X166393904Y-90146190D01*
X167298666Y-89622380D02*
X167917714Y-89622380D01*
X167584380Y-90003333D01*
X167727238Y-90003333D01*
X167822476Y-90050952D01*
X167870095Y-90098571D01*
X167917714Y-90193809D01*
X167917714Y-90431904D01*
X167870095Y-90527142D01*
X167822476Y-90574761D01*
X167727238Y-90622380D01*
X167441523Y-90622380D01*
X167346285Y-90574761D01*
X167298666Y-90527142D01*
X116625619Y-90170095D02*
X115816095Y-90170095D01*
X115720857Y-90217714D01*
X115673238Y-90265333D01*
X115625619Y-90360571D01*
X115625619Y-90551047D01*
X115673238Y-90646285D01*
X115720857Y-90693904D01*
X115816095Y-90741523D01*
X116625619Y-90741523D01*
X115625619Y-91741523D02*
X115625619Y-91170095D01*
X115625619Y-91455809D02*
X116625619Y-91455809D01*
X116482761Y-91360571D01*
X116387523Y-91265333D01*
X116339904Y-91170095D01*
X160456619Y-99210904D02*
X161456619Y-99210904D01*
X161456619Y-99449000D01*
X161409000Y-99591857D01*
X161313761Y-99687095D01*
X161218523Y-99734714D01*
X161028047Y-99782333D01*
X160885190Y-99782333D01*
X160694714Y-99734714D01*
X160599476Y-99687095D01*
X160504238Y-99591857D01*
X160456619Y-99449000D01*
X160456619Y-99210904D01*
X161123285Y-100639476D02*
X160456619Y-100639476D01*
X161504238Y-100401380D02*
X160789952Y-100163285D01*
X160789952Y-100782333D01*
X181887880Y-55121133D02*
X182602166Y-55121133D01*
X182745023Y-55168752D01*
X182840261Y-55263990D01*
X182887880Y-55406847D01*
X182887880Y-55502085D01*
X181887880Y-54740180D02*
X181887880Y-54073514D01*
X182887880Y-54502085D01*
X166909761Y-93447619D02*
X166814523Y-93400000D01*
X166719285Y-93304761D01*
X166576428Y-93161904D01*
X166481190Y-93114285D01*
X166385952Y-93114285D01*
X166433571Y-93352380D02*
X166338333Y-93304761D01*
X166243095Y-93209523D01*
X166195476Y-93019047D01*
X166195476Y-92685714D01*
X166243095Y-92495238D01*
X166338333Y-92400000D01*
X166433571Y-92352380D01*
X166624047Y-92352380D01*
X166719285Y-92400000D01*
X166814523Y-92495238D01*
X166862142Y-92685714D01*
X166862142Y-93019047D01*
X166814523Y-93209523D01*
X166719285Y-93304761D01*
X166624047Y-93352380D01*
X166433571Y-93352380D01*
X167719285Y-92685714D02*
X167719285Y-93352380D01*
X167481190Y-92304761D02*
X167243095Y-93019047D01*
X167862142Y-93019047D01*
X166965333Y-101393380D02*
X166632000Y-100917190D01*
X166393904Y-101393380D02*
X166393904Y-100393380D01*
X166774857Y-100393380D01*
X166870095Y-100441000D01*
X166917714Y-100488619D01*
X166965333Y-100583857D01*
X166965333Y-100726714D01*
X166917714Y-100821952D01*
X166870095Y-100869571D01*
X166774857Y-100917190D01*
X166393904Y-100917190D01*
X167822476Y-100726714D02*
X167822476Y-101393380D01*
X167584380Y-100345761D02*
X167346285Y-101060047D01*
X167965333Y-101060047D01*
X114728666Y-48455780D02*
X114728666Y-49170066D01*
X114681047Y-49312923D01*
X114585809Y-49408161D01*
X114442952Y-49455780D01*
X114347714Y-49455780D01*
X115109619Y-48455780D02*
X115728666Y-48455780D01*
X115395333Y-48836733D01*
X115538190Y-48836733D01*
X115633428Y-48884352D01*
X115681047Y-48931971D01*
X115728666Y-49027209D01*
X115728666Y-49265304D01*
X115681047Y-49360542D01*
X115633428Y-49408161D01*
X115538190Y-49455780D01*
X115252476Y-49455780D01*
X115157238Y-49408161D01*
X115109619Y-49360542D01*
M02*
