M48
; DRILL file {KiCad (5.1.5)-3} date 10.07.2022 23:47:21
; FORMAT={-:-/ absolute / metric / decimal}
; #@! TF.CreationDate,2022-07-10T23:47:21+02:00
; #@! TF.GenerationSoftware,Kicad,Pcbnew,(5.1.5)-3
; #@! TF.FileFunction,Plated,1,2,PTH
FMAT,2
METRIC
T1C0.400
T2C0.760
T3C0.762
T4C0.800
T5C1.000
T6C1.020
T7C1.100
T8C1.520
%
G90
G05
T1
X147.447Y-79.502
X147.447Y-87.503
T2
X159.004Y-95.123
X159.004Y-105.123
X159.004Y-65.532
X159.004Y-75.532
X159.004Y-51.214
X159.004Y-61.214
X159.004Y-80.01
X159.004Y-90.01
T3
X124.545Y-59.15
X124.545Y-61.69
X124.545Y-64.23
X124.545Y-66.77
X124.545Y-69.31
X124.545Y-71.85
X124.545Y-74.39
X124.545Y-76.93
X124.545Y-79.47
X124.545Y-82.01
X124.545Y-84.55
X124.545Y-87.09
X124.545Y-89.63
X124.545Y-92.17
X124.545Y-94.71
X152.485Y-59.15
X152.485Y-61.69
X152.485Y-64.23
X152.485Y-66.77
X152.485Y-69.31
X152.485Y-71.85
X152.485Y-74.39
X152.485Y-76.93
X152.485Y-79.47
X152.485Y-82.01
X152.485Y-84.55
X152.485Y-87.09
X152.485Y-89.63
X152.485Y-92.17
X152.485Y-94.71
T4
X162.052Y-87.63
X172.212Y-87.63
X162.052Y-58.928
X172.212Y-58.928
X162.052Y-103.251
X172.212Y-103.251
X162.052Y-73.152
X172.212Y-73.152
T5
X164.338Y-81.534
X166.878Y-81.534
X169.418Y-81.534
X164.338Y-52.578
X166.878Y-52.578
X169.418Y-52.578
X164.465Y-96.52
X167.005Y-96.52
X169.545Y-96.52
X164.338Y-67.056
X166.878Y-67.056
X169.418Y-67.056
X115.062Y-51.333
X115.062Y-53.873
X115.062Y-56.413
X115.062Y-58.953
X115.062Y-61.493
X115.062Y-64.033
X108.458Y-90.932
X110.998Y-90.932
X113.538Y-90.932
T6
X182.334Y-103.365
X182.334Y-105.905
X182.347Y-96.901
X182.347Y-99.441
X115.57Y-71.882
X115.57Y-74.422
X115.57Y-76.962
X115.57Y-79.502
X182.334Y-90.551
X182.334Y-93.091
T7
X184.442Y-49.797
X184.442Y-52.297
X184.442Y-54.797
X184.442Y-57.297
X184.442Y-59.797
T8
X112.522Y-102.87
X117.602Y-102.87
T0
M30
