G04 #@! TF.GenerationSoftware,KiCad,Pcbnew,(5.1.5)-3*
G04 #@! TF.CreationDate,2022-07-10T23:47:25+02:00*
G04 #@! TF.ProjectId,rgbw_12v_controller,72676277-5f31-4327-965f-636f6e74726f,rev?*
G04 #@! TF.SameCoordinates,Original*
G04 #@! TF.FileFunction,Copper,L1,Top*
G04 #@! TF.FilePolarity,Positive*
%FSLAX46Y46*%
G04 Gerber Fmt 4.6, Leading zero omitted, Abs format (unit mm)*
G04 Created by KiCad (PCBNEW (5.1.5)-3) date 2022-07-10 23:47:25*
%MOMM*%
%LPD*%
G04 APERTURE LIST*
%ADD10C,1.524000*%
%ADD11R,2.000000X2.000000*%
%ADD12C,2.000000*%
%ADD13C,3.000000*%
%ADD14R,3.000000X3.000000*%
%ADD15C,2.020000*%
%ADD16O,1.800000X1.800000*%
%ADD17R,1.800000X1.800000*%
%ADD18O,1.600000X1.600000*%
%ADD19C,1.600000*%
%ADD20C,2.100000*%
%ADD21O,1.700000X1.700000*%
%ADD22R,1.700000X1.700000*%
%ADD23C,0.800000*%
%ADD24C,0.250000*%
%ADD25C,1.000000*%
%ADD26C,0.254000*%
G04 APERTURE END LIST*
D10*
X124545001Y-59150001D03*
X124545001Y-61690001D03*
X124545001Y-64230001D03*
X124545001Y-66770001D03*
X124545001Y-69310001D03*
X124545001Y-71850001D03*
X124545001Y-74390001D03*
X124545001Y-76930001D03*
X124545001Y-79470001D03*
X124545001Y-82010001D03*
X124545001Y-84550001D03*
X124545001Y-87090001D03*
X124545001Y-89630001D03*
X124545001Y-92170001D03*
X124545001Y-94710001D03*
X152485001Y-94710001D03*
X152485001Y-92170001D03*
X152485001Y-89630001D03*
X152485001Y-87090001D03*
X152485001Y-84550001D03*
X152485001Y-82010001D03*
X152485001Y-79470001D03*
X152485001Y-76930001D03*
X152485001Y-74390001D03*
X152485001Y-71850001D03*
X152485001Y-69310001D03*
X152485001Y-66770001D03*
X152485001Y-64230001D03*
X152485001Y-61690001D03*
X152485001Y-59150001D03*
D11*
X159004000Y-51214000D03*
D12*
X159004000Y-61214000D03*
D11*
X159004000Y-65532000D03*
D12*
X159004000Y-75532000D03*
X159004000Y-90010000D03*
D11*
X159004000Y-80010000D03*
D13*
X112522000Y-102870000D03*
D14*
X117602000Y-102870000D03*
D15*
X115570000Y-71882000D03*
X115570000Y-74422000D03*
X115570000Y-76962000D03*
X115570000Y-79502000D03*
X182346600Y-99441000D03*
X182346600Y-96901000D03*
X182333900Y-105905300D03*
X182333900Y-103365300D03*
X182333900Y-90551000D03*
X182333900Y-93091000D03*
D16*
X169418000Y-52578000D03*
X166878000Y-52578000D03*
D17*
X164338000Y-52578000D03*
D16*
X169418000Y-67056000D03*
X166878000Y-67056000D03*
D17*
X164338000Y-67056000D03*
X164338000Y-81534000D03*
D16*
X166878000Y-81534000D03*
X169418000Y-81534000D03*
D18*
X172212000Y-58928000D03*
D19*
X162052000Y-58928000D03*
D18*
X172212000Y-73152000D03*
D19*
X162052000Y-73152000D03*
X162052000Y-87630000D03*
D18*
X172212000Y-87630000D03*
D11*
X108458000Y-90932000D03*
D12*
X110998000Y-90932000D03*
X113538000Y-90932000D03*
D11*
X159004000Y-95123000D03*
D12*
X159004000Y-105123000D03*
D20*
X184442100Y-49796700D03*
X184442100Y-52296700D03*
X184442100Y-54796700D03*
X184442100Y-57296700D03*
X184442100Y-59796700D03*
D16*
X169545000Y-96520000D03*
X167005000Y-96520000D03*
D17*
X164465000Y-96520000D03*
D18*
X172212000Y-103251000D03*
D19*
X162052000Y-103251000D03*
D21*
X115062000Y-64033400D03*
X115062000Y-61493400D03*
X115062000Y-58953400D03*
X115062000Y-56413400D03*
X115062000Y-53873400D03*
D22*
X115062000Y-51333400D03*
D23*
X147447000Y-79502000D03*
X147447000Y-87503000D03*
D24*
X164338000Y-51428000D02*
X164338000Y-52578000D01*
X164124000Y-51214000D02*
X164338000Y-51428000D01*
X159004000Y-51214000D02*
X164124000Y-51214000D01*
X164338000Y-56642000D02*
X162052000Y-58928000D01*
X164338000Y-52578000D02*
X164338000Y-56642000D01*
X159004000Y-75532000D02*
X156370000Y-75532000D01*
X154971999Y-76930001D02*
X152485001Y-76930001D01*
X156370000Y-75532000D02*
X154971999Y-76930001D01*
X164338000Y-70866000D02*
X162052000Y-73152000D01*
X164338000Y-67056000D02*
X164338000Y-70866000D01*
X164338000Y-65906000D02*
X164338000Y-67056000D01*
X163964000Y-65532000D02*
X164338000Y-65906000D01*
X159004000Y-65532000D02*
X163964000Y-65532000D01*
X152485001Y-79470001D02*
X154654001Y-79470001D01*
X154654001Y-79470001D02*
X156464000Y-81280000D01*
X156464000Y-87470000D02*
X159004000Y-90010000D01*
X156464000Y-81280000D02*
X156464000Y-87470000D01*
X155501002Y-61214000D02*
X159004000Y-61214000D01*
X152485001Y-64230001D02*
X155501002Y-61214000D01*
X164338000Y-85344000D02*
X162052000Y-87630000D01*
X164338000Y-81534000D02*
X164338000Y-85344000D01*
X164338000Y-80384000D02*
X164338000Y-81534000D01*
X163964000Y-80010000D02*
X164338000Y-80384000D01*
X159004000Y-80010000D02*
X163964000Y-80010000D01*
D25*
X166878000Y-51305208D02*
X166878000Y-52578000D01*
X177546000Y-49784000D02*
X168399208Y-49784000D01*
X168399208Y-49784000D02*
X166878000Y-51305208D01*
D24*
X124513002Y-71882000D02*
X124545001Y-71850001D01*
X115570000Y-71882000D02*
X124513002Y-71882000D01*
X124513002Y-74422000D02*
X124545001Y-74390001D01*
X115570000Y-74422000D02*
X124513002Y-74422000D01*
X124513002Y-76962000D02*
X124545001Y-76930001D01*
X115570000Y-76962000D02*
X124513002Y-76962000D01*
X124513002Y-79502000D02*
X124545001Y-79470001D01*
X115570000Y-79502000D02*
X124513002Y-79502000D01*
X152485001Y-69310001D02*
X139922001Y-69310001D01*
X139922001Y-69310001D02*
X127152400Y-56540400D01*
X127152400Y-56540400D02*
X120218200Y-56540400D01*
X117805200Y-58953400D02*
X115062000Y-58953400D01*
X120218200Y-56540400D02*
X117805200Y-58953400D01*
X152485001Y-66770001D02*
X139668001Y-66770001D01*
X139668001Y-66770001D02*
X127609600Y-54711600D01*
X127609600Y-54711600D02*
X119214900Y-54711600D01*
X117513100Y-56413400D02*
X115062000Y-56413400D01*
X119214900Y-54711600D02*
X117513100Y-56413400D01*
X116772081Y-53848000D02*
X117915081Y-52705000D01*
X115570000Y-53848000D02*
X116772081Y-53848000D01*
X117915081Y-52705000D02*
X127762000Y-52705000D01*
X134207001Y-59150001D02*
X152485001Y-59150001D01*
X127762000Y-52705000D02*
X134207001Y-59150001D01*
X152485001Y-94710001D02*
X154146001Y-94710001D01*
X154146001Y-94710001D02*
X154940000Y-95504000D01*
X154940000Y-95504000D02*
X154940000Y-97917000D01*
X156464000Y-99441000D02*
X182346600Y-99441000D01*
X154940000Y-97917000D02*
X156464000Y-99441000D01*
X113538000Y-90932000D02*
X117856000Y-90932000D01*
X121634001Y-94710001D02*
X124545001Y-94710001D01*
X117856000Y-90932000D02*
X121634001Y-94710001D01*
X124545001Y-95787631D02*
X136580370Y-107823000D01*
X124545001Y-94710001D02*
X124545001Y-95787631D01*
X180416200Y-107823000D02*
X182333900Y-105905300D01*
X136580370Y-107823000D02*
X180416200Y-107823000D01*
X147447000Y-80067685D02*
X147447000Y-87503000D01*
X147447000Y-79502000D02*
X147447000Y-80067685D01*
D25*
X177558700Y-49796700D02*
X184442100Y-49796700D01*
X177546000Y-49784000D02*
X177558700Y-49796700D01*
X175033300Y-52296700D02*
X184442100Y-52296700D01*
X174498000Y-52832000D02*
X175033300Y-52296700D01*
X166878000Y-67056000D02*
X166878000Y-64770000D01*
X166878000Y-64770000D02*
X168148000Y-63500000D01*
X172974000Y-63500000D02*
X174498000Y-61976000D01*
X168148000Y-63500000D02*
X172974000Y-63500000D01*
X174498000Y-61976000D02*
X174498000Y-52832000D01*
X177867300Y-54796700D02*
X184442100Y-54796700D01*
X176530000Y-56134000D02*
X177867300Y-54796700D01*
X167894000Y-77978000D02*
X175514000Y-77978000D01*
X166878000Y-81534000D02*
X166878000Y-78994000D01*
X166878000Y-78994000D02*
X167894000Y-77978000D01*
X175514000Y-77978000D02*
X176530000Y-76962000D01*
X176530000Y-76962000D02*
X176530000Y-56134000D01*
X167637208Y-94615000D02*
X167005000Y-95247208D01*
X167005000Y-95247208D02*
X167005000Y-96520000D01*
X178943000Y-58547000D02*
X178943000Y-93218000D01*
X180193300Y-57296700D02*
X178943000Y-58547000D01*
X178943000Y-93218000D02*
X177546000Y-94615000D01*
X184442100Y-57296700D02*
X180193300Y-57296700D01*
X177546000Y-94615000D02*
X167637208Y-94615000D01*
D26*
G36*
X193371768Y-47807491D02*
G01*
X192959526Y-48082943D01*
X192608943Y-48433526D01*
X192333491Y-48845768D01*
X192143757Y-49303827D01*
X192047032Y-49790100D01*
X192047032Y-50285900D01*
X192143757Y-50772173D01*
X192333491Y-51230232D01*
X192608943Y-51642474D01*
X192959526Y-51993057D01*
X193371768Y-52268509D01*
X193829827Y-52458243D01*
X194316100Y-52554968D01*
X194811900Y-52554968D01*
X195298173Y-52458243D01*
X195756232Y-52268509D01*
X196168474Y-51993057D01*
X196519057Y-51642474D01*
X196794509Y-51230232D01*
X196927000Y-50910370D01*
X196927001Y-108535000D01*
X180687171Y-108535000D01*
X180708447Y-108528546D01*
X180840476Y-108457974D01*
X180956201Y-108363001D01*
X180980004Y-108333997D01*
X181834871Y-107479130D01*
X181854071Y-107487083D01*
X182171882Y-107550300D01*
X182495918Y-107550300D01*
X182813729Y-107487083D01*
X183113099Y-107363080D01*
X183382526Y-107183055D01*
X183611655Y-106953926D01*
X183791680Y-106684499D01*
X183915683Y-106385129D01*
X183978900Y-106067318D01*
X183978900Y-105743282D01*
X183964344Y-105670100D01*
X191793031Y-105670100D01*
X191793031Y-106165900D01*
X191889756Y-106652173D01*
X192079491Y-107110232D01*
X192354942Y-107522475D01*
X192705525Y-107873058D01*
X193117768Y-108148509D01*
X193575827Y-108338244D01*
X194062100Y-108434969D01*
X194557900Y-108434969D01*
X195044173Y-108338244D01*
X195502232Y-108148509D01*
X195914475Y-107873058D01*
X196265058Y-107522475D01*
X196540509Y-107110232D01*
X196730244Y-106652173D01*
X196826969Y-106165900D01*
X196826969Y-105670100D01*
X196730244Y-105183827D01*
X196540509Y-104725768D01*
X196265058Y-104313525D01*
X195914475Y-103962942D01*
X195502232Y-103687491D01*
X195044173Y-103497756D01*
X194557900Y-103401031D01*
X194062100Y-103401031D01*
X193575827Y-103497756D01*
X193117768Y-103687491D01*
X192705525Y-103962942D01*
X192354942Y-104313525D01*
X192079491Y-104725768D01*
X191889756Y-105183827D01*
X191793031Y-105670100D01*
X183964344Y-105670100D01*
X183915683Y-105425471D01*
X183791680Y-105126101D01*
X183611655Y-104856674D01*
X183390281Y-104635300D01*
X183611655Y-104413926D01*
X183791680Y-104144499D01*
X183915683Y-103845129D01*
X183978900Y-103527318D01*
X183978900Y-103203282D01*
X183915683Y-102885471D01*
X183791680Y-102586101D01*
X183611655Y-102316674D01*
X183382526Y-102087545D01*
X183113099Y-101907520D01*
X182813729Y-101783517D01*
X182495918Y-101720300D01*
X182171882Y-101720300D01*
X181854071Y-101783517D01*
X181554701Y-101907520D01*
X181285274Y-102087545D01*
X181056145Y-102316674D01*
X180876120Y-102586101D01*
X180752117Y-102885471D01*
X180688900Y-103203282D01*
X180688900Y-103527318D01*
X180752117Y-103845129D01*
X180876120Y-104144499D01*
X181056145Y-104413926D01*
X181277519Y-104635300D01*
X181056145Y-104856674D01*
X180876120Y-105126101D01*
X180752117Y-105425471D01*
X180688900Y-105743282D01*
X180688900Y-106067318D01*
X180752117Y-106385129D01*
X180760070Y-106404329D01*
X180101399Y-107063000D01*
X136895172Y-107063000D01*
X134794139Y-104961967D01*
X157369000Y-104961967D01*
X157369000Y-105284033D01*
X157431832Y-105599912D01*
X157555082Y-105897463D01*
X157734013Y-106165252D01*
X157961748Y-106392987D01*
X158229537Y-106571918D01*
X158527088Y-106695168D01*
X158842967Y-106758000D01*
X159165033Y-106758000D01*
X159480912Y-106695168D01*
X159778463Y-106571918D01*
X160046252Y-106392987D01*
X160273987Y-106165252D01*
X160452918Y-105897463D01*
X160576168Y-105599912D01*
X160639000Y-105284033D01*
X160639000Y-104961967D01*
X160576168Y-104646088D01*
X160452918Y-104348537D01*
X160273987Y-104080748D01*
X160046252Y-103853013D01*
X159778463Y-103674082D01*
X159480912Y-103550832D01*
X159165033Y-103488000D01*
X158842967Y-103488000D01*
X158527088Y-103550832D01*
X158229537Y-103674082D01*
X157961748Y-103853013D01*
X157734013Y-104080748D01*
X157555082Y-104348537D01*
X157431832Y-104646088D01*
X157369000Y-104961967D01*
X134794139Y-104961967D01*
X132941837Y-103109665D01*
X160617000Y-103109665D01*
X160617000Y-103392335D01*
X160672147Y-103669574D01*
X160780320Y-103930727D01*
X160937363Y-104165759D01*
X161137241Y-104365637D01*
X161372273Y-104522680D01*
X161633426Y-104630853D01*
X161910665Y-104686000D01*
X162193335Y-104686000D01*
X162470574Y-104630853D01*
X162731727Y-104522680D01*
X162966759Y-104365637D01*
X163166637Y-104165759D01*
X163323680Y-103930727D01*
X163431853Y-103669574D01*
X163487000Y-103392335D01*
X163487000Y-103109665D01*
X170777000Y-103109665D01*
X170777000Y-103392335D01*
X170832147Y-103669574D01*
X170940320Y-103930727D01*
X171097363Y-104165759D01*
X171297241Y-104365637D01*
X171532273Y-104522680D01*
X171793426Y-104630853D01*
X172070665Y-104686000D01*
X172353335Y-104686000D01*
X172630574Y-104630853D01*
X172891727Y-104522680D01*
X173126759Y-104365637D01*
X173326637Y-104165759D01*
X173483680Y-103930727D01*
X173591853Y-103669574D01*
X173647000Y-103392335D01*
X173647000Y-103109665D01*
X173591853Y-102832426D01*
X173483680Y-102571273D01*
X173326637Y-102336241D01*
X173126759Y-102136363D01*
X172891727Y-101979320D01*
X172630574Y-101871147D01*
X172353335Y-101816000D01*
X172070665Y-101816000D01*
X171793426Y-101871147D01*
X171532273Y-101979320D01*
X171297241Y-102136363D01*
X171097363Y-102336241D01*
X170940320Y-102571273D01*
X170832147Y-102832426D01*
X170777000Y-103109665D01*
X163487000Y-103109665D01*
X163431853Y-102832426D01*
X163323680Y-102571273D01*
X163166637Y-102336241D01*
X162966759Y-102136363D01*
X162731727Y-101979320D01*
X162470574Y-101871147D01*
X162193335Y-101816000D01*
X161910665Y-101816000D01*
X161633426Y-101871147D01*
X161372273Y-101979320D01*
X161137241Y-102136363D01*
X160937363Y-102336241D01*
X160780320Y-102571273D01*
X160672147Y-102832426D01*
X160617000Y-103109665D01*
X132941837Y-103109665D01*
X125531414Y-95699243D01*
X125630121Y-95600536D01*
X125783006Y-95371728D01*
X125888315Y-95117491D01*
X125942001Y-94847593D01*
X125942001Y-94572409D01*
X125888315Y-94302511D01*
X125783006Y-94048274D01*
X125630121Y-93819466D01*
X125435536Y-93624881D01*
X125206728Y-93471996D01*
X125129486Y-93440001D01*
X125206728Y-93408006D01*
X125435536Y-93255121D01*
X125630121Y-93060536D01*
X125783006Y-92831728D01*
X125888315Y-92577491D01*
X125942001Y-92307593D01*
X125942001Y-92032409D01*
X125888315Y-91762511D01*
X125783006Y-91508274D01*
X125630121Y-91279466D01*
X125435536Y-91084881D01*
X125206728Y-90931996D01*
X125129486Y-90900001D01*
X125206728Y-90868006D01*
X125435536Y-90715121D01*
X125630121Y-90520536D01*
X125783006Y-90291728D01*
X125888315Y-90037491D01*
X125942001Y-89767593D01*
X125942001Y-89492409D01*
X125888315Y-89222511D01*
X125783006Y-88968274D01*
X125630121Y-88739466D01*
X125435536Y-88544881D01*
X125206728Y-88391996D01*
X125129486Y-88360001D01*
X125206728Y-88328006D01*
X125435536Y-88175121D01*
X125630121Y-87980536D01*
X125783006Y-87751728D01*
X125888315Y-87497491D01*
X125942001Y-87227593D01*
X125942001Y-86952409D01*
X125888315Y-86682511D01*
X125783006Y-86428274D01*
X125630121Y-86199466D01*
X125435536Y-86004881D01*
X125206728Y-85851996D01*
X125129486Y-85820001D01*
X125206728Y-85788006D01*
X125435536Y-85635121D01*
X125630121Y-85440536D01*
X125783006Y-85211728D01*
X125888315Y-84957491D01*
X125942001Y-84687593D01*
X125942001Y-84412409D01*
X125888315Y-84142511D01*
X125783006Y-83888274D01*
X125630121Y-83659466D01*
X125435536Y-83464881D01*
X125206728Y-83311996D01*
X125129486Y-83280001D01*
X125206728Y-83248006D01*
X125435536Y-83095121D01*
X125630121Y-82900536D01*
X125783006Y-82671728D01*
X125888315Y-82417491D01*
X125942001Y-82147593D01*
X125942001Y-81872409D01*
X125888315Y-81602511D01*
X125783006Y-81348274D01*
X125630121Y-81119466D01*
X125435536Y-80924881D01*
X125206728Y-80771996D01*
X125129486Y-80740001D01*
X125206728Y-80708006D01*
X125435536Y-80555121D01*
X125630121Y-80360536D01*
X125783006Y-80131728D01*
X125888315Y-79877491D01*
X125942001Y-79607593D01*
X125942001Y-79400061D01*
X146412000Y-79400061D01*
X146412000Y-79603939D01*
X146451774Y-79803898D01*
X146529795Y-79992256D01*
X146643063Y-80161774D01*
X146687000Y-80205711D01*
X146687001Y-86799288D01*
X146643063Y-86843226D01*
X146529795Y-87012744D01*
X146451774Y-87201102D01*
X146412000Y-87401061D01*
X146412000Y-87604939D01*
X146451774Y-87804898D01*
X146529795Y-87993256D01*
X146643063Y-88162774D01*
X146787226Y-88306937D01*
X146956744Y-88420205D01*
X147145102Y-88498226D01*
X147345061Y-88538000D01*
X147548939Y-88538000D01*
X147748898Y-88498226D01*
X147937256Y-88420205D01*
X148106774Y-88306937D01*
X148250937Y-88162774D01*
X148364205Y-87993256D01*
X148442226Y-87804898D01*
X148482000Y-87604939D01*
X148482000Y-87401061D01*
X148442226Y-87201102D01*
X148364205Y-87012744D01*
X148250937Y-86843226D01*
X148207000Y-86799289D01*
X148207000Y-80205711D01*
X148250937Y-80161774D01*
X148364205Y-79992256D01*
X148442226Y-79803898D01*
X148482000Y-79603939D01*
X148482000Y-79400061D01*
X148442226Y-79200102D01*
X148364205Y-79011744D01*
X148250937Y-78842226D01*
X148106774Y-78698063D01*
X147937256Y-78584795D01*
X147748898Y-78506774D01*
X147548939Y-78467000D01*
X147345061Y-78467000D01*
X147145102Y-78506774D01*
X146956744Y-78584795D01*
X146787226Y-78698063D01*
X146643063Y-78842226D01*
X146529795Y-79011744D01*
X146451774Y-79200102D01*
X146412000Y-79400061D01*
X125942001Y-79400061D01*
X125942001Y-79332409D01*
X125888315Y-79062511D01*
X125783006Y-78808274D01*
X125630121Y-78579466D01*
X125435536Y-78384881D01*
X125206728Y-78231996D01*
X125129486Y-78200001D01*
X125206728Y-78168006D01*
X125435536Y-78015121D01*
X125630121Y-77820536D01*
X125783006Y-77591728D01*
X125888315Y-77337491D01*
X125942001Y-77067593D01*
X125942001Y-76792409D01*
X125888315Y-76522511D01*
X125783006Y-76268274D01*
X125630121Y-76039466D01*
X125435536Y-75844881D01*
X125206728Y-75691996D01*
X125129486Y-75660001D01*
X125206728Y-75628006D01*
X125435536Y-75475121D01*
X125630121Y-75280536D01*
X125783006Y-75051728D01*
X125888315Y-74797491D01*
X125942001Y-74527593D01*
X125942001Y-74252409D01*
X125888315Y-73982511D01*
X125783006Y-73728274D01*
X125630121Y-73499466D01*
X125435536Y-73304881D01*
X125206728Y-73151996D01*
X125129486Y-73120001D01*
X125206728Y-73088006D01*
X125435536Y-72935121D01*
X125630121Y-72740536D01*
X125783006Y-72511728D01*
X125888315Y-72257491D01*
X125942001Y-71987593D01*
X125942001Y-71712409D01*
X125888315Y-71442511D01*
X125783006Y-71188274D01*
X125630121Y-70959466D01*
X125435536Y-70764881D01*
X125206728Y-70611996D01*
X125129486Y-70580001D01*
X125206728Y-70548006D01*
X125435536Y-70395121D01*
X125630121Y-70200536D01*
X125783006Y-69971728D01*
X125888315Y-69717491D01*
X125942001Y-69447593D01*
X125942001Y-69172409D01*
X125888315Y-68902511D01*
X125783006Y-68648274D01*
X125630121Y-68419466D01*
X125435536Y-68224881D01*
X125206728Y-68071996D01*
X125129486Y-68040001D01*
X125206728Y-68008006D01*
X125435536Y-67855121D01*
X125630121Y-67660536D01*
X125783006Y-67431728D01*
X125888315Y-67177491D01*
X125942001Y-66907593D01*
X125942001Y-66632409D01*
X125888315Y-66362511D01*
X125783006Y-66108274D01*
X125630121Y-65879466D01*
X125435536Y-65684881D01*
X125206728Y-65531996D01*
X125129486Y-65500001D01*
X125206728Y-65468006D01*
X125435536Y-65315121D01*
X125630121Y-65120536D01*
X125783006Y-64891728D01*
X125888315Y-64637491D01*
X125942001Y-64367593D01*
X125942001Y-64092409D01*
X125888315Y-63822511D01*
X125783006Y-63568274D01*
X125630121Y-63339466D01*
X125435536Y-63144881D01*
X125206728Y-62991996D01*
X125129486Y-62960001D01*
X125206728Y-62928006D01*
X125435536Y-62775121D01*
X125630121Y-62580536D01*
X125783006Y-62351728D01*
X125888315Y-62097491D01*
X125942001Y-61827593D01*
X125942001Y-61552409D01*
X125888315Y-61282511D01*
X125783006Y-61028274D01*
X125630121Y-60799466D01*
X125435536Y-60604881D01*
X125206728Y-60451996D01*
X125129486Y-60420001D01*
X125206728Y-60388006D01*
X125435536Y-60235121D01*
X125630121Y-60040536D01*
X125783006Y-59811728D01*
X125888315Y-59557491D01*
X125942001Y-59287593D01*
X125942001Y-59012409D01*
X125888315Y-58742511D01*
X125783006Y-58488274D01*
X125652528Y-58293000D01*
X127830199Y-58293000D01*
X139358202Y-69821004D01*
X139382000Y-69850002D01*
X139410998Y-69873800D01*
X139497724Y-69944975D01*
X139629754Y-70015547D01*
X139773015Y-70059004D01*
X139884668Y-70070001D01*
X139884678Y-70070001D01*
X139922001Y-70073677D01*
X139959324Y-70070001D01*
X151312660Y-70070001D01*
X151399881Y-70200536D01*
X151594466Y-70395121D01*
X151823274Y-70548006D01*
X151900516Y-70580001D01*
X151823274Y-70611996D01*
X151594466Y-70764881D01*
X151399881Y-70959466D01*
X151246996Y-71188274D01*
X151141687Y-71442511D01*
X151088001Y-71712409D01*
X151088001Y-71987593D01*
X151141687Y-72257491D01*
X151246996Y-72511728D01*
X151399881Y-72740536D01*
X151594466Y-72935121D01*
X151823274Y-73088006D01*
X151900516Y-73120001D01*
X151823274Y-73151996D01*
X151594466Y-73304881D01*
X151399881Y-73499466D01*
X151246996Y-73728274D01*
X151141687Y-73982511D01*
X151088001Y-74252409D01*
X151088001Y-74527593D01*
X151141687Y-74797491D01*
X151246996Y-75051728D01*
X151399881Y-75280536D01*
X151594466Y-75475121D01*
X151823274Y-75628006D01*
X151900516Y-75660001D01*
X151823274Y-75691996D01*
X151594466Y-75844881D01*
X151399881Y-76039466D01*
X151246996Y-76268274D01*
X151141687Y-76522511D01*
X151088001Y-76792409D01*
X151088001Y-77067593D01*
X151141687Y-77337491D01*
X151246996Y-77591728D01*
X151399881Y-77820536D01*
X151594466Y-78015121D01*
X151823274Y-78168006D01*
X151900516Y-78200001D01*
X151823274Y-78231996D01*
X151594466Y-78384881D01*
X151399881Y-78579466D01*
X151246996Y-78808274D01*
X151141687Y-79062511D01*
X151088001Y-79332409D01*
X151088001Y-79607593D01*
X151141687Y-79877491D01*
X151246996Y-80131728D01*
X151399881Y-80360536D01*
X151594466Y-80555121D01*
X151823274Y-80708006D01*
X151900516Y-80740001D01*
X151823274Y-80771996D01*
X151594466Y-80924881D01*
X151399881Y-81119466D01*
X151246996Y-81348274D01*
X151141687Y-81602511D01*
X151088001Y-81872409D01*
X151088001Y-82147593D01*
X151141687Y-82417491D01*
X151246996Y-82671728D01*
X151399881Y-82900536D01*
X151594466Y-83095121D01*
X151823274Y-83248006D01*
X151900516Y-83280001D01*
X151823274Y-83311996D01*
X151594466Y-83464881D01*
X151399881Y-83659466D01*
X151246996Y-83888274D01*
X151141687Y-84142511D01*
X151088001Y-84412409D01*
X151088001Y-84687593D01*
X151141687Y-84957491D01*
X151246996Y-85211728D01*
X151399881Y-85440536D01*
X151594466Y-85635121D01*
X151823274Y-85788006D01*
X151900516Y-85820001D01*
X151823274Y-85851996D01*
X151594466Y-86004881D01*
X151399881Y-86199466D01*
X151246996Y-86428274D01*
X151141687Y-86682511D01*
X151088001Y-86952409D01*
X151088001Y-87227593D01*
X151141687Y-87497491D01*
X151246996Y-87751728D01*
X151399881Y-87980536D01*
X151594466Y-88175121D01*
X151823274Y-88328006D01*
X151900516Y-88360001D01*
X151823274Y-88391996D01*
X151594466Y-88544881D01*
X151399881Y-88739466D01*
X151246996Y-88968274D01*
X151141687Y-89222511D01*
X151088001Y-89492409D01*
X151088001Y-89767593D01*
X151141687Y-90037491D01*
X151246996Y-90291728D01*
X151399881Y-90520536D01*
X151594466Y-90715121D01*
X151823274Y-90868006D01*
X151900516Y-90900001D01*
X151823274Y-90931996D01*
X151594466Y-91084881D01*
X151399881Y-91279466D01*
X151246996Y-91508274D01*
X151141687Y-91762511D01*
X151088001Y-92032409D01*
X151088001Y-92307593D01*
X151141687Y-92577491D01*
X151246996Y-92831728D01*
X151399881Y-93060536D01*
X151594466Y-93255121D01*
X151823274Y-93408006D01*
X151900516Y-93440001D01*
X151823274Y-93471996D01*
X151594466Y-93624881D01*
X151399881Y-93819466D01*
X151246996Y-94048274D01*
X151141687Y-94302511D01*
X151088001Y-94572409D01*
X151088001Y-94847593D01*
X151141687Y-95117491D01*
X151246996Y-95371728D01*
X151399881Y-95600536D01*
X151594466Y-95795121D01*
X151823274Y-95948006D01*
X152077511Y-96053315D01*
X152347409Y-96107001D01*
X152622593Y-96107001D01*
X152892491Y-96053315D01*
X153146728Y-95948006D01*
X153375536Y-95795121D01*
X153570121Y-95600536D01*
X153657342Y-95470001D01*
X153831200Y-95470001D01*
X154180000Y-95818802D01*
X154180001Y-97879668D01*
X154176324Y-97917000D01*
X154190998Y-98065985D01*
X154234454Y-98209246D01*
X154305026Y-98341276D01*
X154346962Y-98392374D01*
X154400000Y-98457001D01*
X154428998Y-98480799D01*
X155900205Y-99952008D01*
X155923999Y-99981001D01*
X155952992Y-100004795D01*
X155952996Y-100004799D01*
X156023685Y-100062811D01*
X156039724Y-100075974D01*
X156171753Y-100146546D01*
X156315014Y-100190003D01*
X156426667Y-100201000D01*
X156426676Y-100201000D01*
X156463999Y-100204676D01*
X156501322Y-100201000D01*
X180880868Y-100201000D01*
X180888820Y-100220199D01*
X181068845Y-100489626D01*
X181297974Y-100718755D01*
X181567401Y-100898780D01*
X181866771Y-101022783D01*
X182184582Y-101086000D01*
X182508618Y-101086000D01*
X182826429Y-101022783D01*
X183125799Y-100898780D01*
X183395226Y-100718755D01*
X183624355Y-100489626D01*
X183804380Y-100220199D01*
X183928383Y-99920829D01*
X183991600Y-99603018D01*
X183991600Y-99278982D01*
X183928383Y-98961171D01*
X183804380Y-98661801D01*
X183624355Y-98392374D01*
X183402981Y-98171000D01*
X183624355Y-97949626D01*
X183804380Y-97680199D01*
X183928383Y-97380829D01*
X183991600Y-97063018D01*
X183991600Y-96738982D01*
X183928383Y-96421171D01*
X183804380Y-96121801D01*
X183624355Y-95852374D01*
X183395226Y-95623245D01*
X183125799Y-95443220D01*
X182826429Y-95319217D01*
X182508618Y-95256000D01*
X182184582Y-95256000D01*
X181866771Y-95319217D01*
X181567401Y-95443220D01*
X181297974Y-95623245D01*
X181068845Y-95852374D01*
X180888820Y-96121801D01*
X180764817Y-96421171D01*
X180701600Y-96738982D01*
X180701600Y-97063018D01*
X180764817Y-97380829D01*
X180888820Y-97680199D01*
X181068845Y-97949626D01*
X181290219Y-98171000D01*
X181068845Y-98392374D01*
X180888820Y-98661801D01*
X180880868Y-98681000D01*
X156778803Y-98681000D01*
X155700000Y-97602199D01*
X155700000Y-95541322D01*
X155703676Y-95503999D01*
X155700000Y-95466676D01*
X155700000Y-95466667D01*
X155689003Y-95355014D01*
X155645546Y-95211753D01*
X155604133Y-95134276D01*
X155574974Y-95079723D01*
X155503799Y-94992997D01*
X155480001Y-94963999D01*
X155451004Y-94940202D01*
X154709804Y-94199003D01*
X154686002Y-94170000D01*
X154628733Y-94123000D01*
X157365928Y-94123000D01*
X157365928Y-96123000D01*
X157378188Y-96247482D01*
X157414498Y-96367180D01*
X157473463Y-96477494D01*
X157552815Y-96574185D01*
X157649506Y-96653537D01*
X157759820Y-96712502D01*
X157879518Y-96748812D01*
X158004000Y-96761072D01*
X160004000Y-96761072D01*
X160128482Y-96748812D01*
X160248180Y-96712502D01*
X160358494Y-96653537D01*
X160455185Y-96574185D01*
X160534537Y-96477494D01*
X160593502Y-96367180D01*
X160629812Y-96247482D01*
X160642072Y-96123000D01*
X160642072Y-94123000D01*
X160629812Y-93998518D01*
X160593502Y-93878820D01*
X160534537Y-93768506D01*
X160455185Y-93671815D01*
X160358494Y-93592463D01*
X160248180Y-93533498D01*
X160128482Y-93497188D01*
X160004000Y-93484928D01*
X158004000Y-93484928D01*
X157879518Y-93497188D01*
X157759820Y-93533498D01*
X157649506Y-93592463D01*
X157552815Y-93671815D01*
X157473463Y-93768506D01*
X157414498Y-93878820D01*
X157378188Y-93998518D01*
X157365928Y-94123000D01*
X154628733Y-94123000D01*
X154570277Y-94075027D01*
X154438248Y-94004455D01*
X154294987Y-93960998D01*
X154183334Y-93950001D01*
X154183323Y-93950001D01*
X154146001Y-93946325D01*
X154108679Y-93950001D01*
X153657342Y-93950001D01*
X153570121Y-93819466D01*
X153375536Y-93624881D01*
X153146728Y-93471996D01*
X153069486Y-93440001D01*
X153146728Y-93408006D01*
X153375536Y-93255121D01*
X153570121Y-93060536D01*
X153723006Y-92831728D01*
X153828315Y-92577491D01*
X153882001Y-92307593D01*
X153882001Y-92032409D01*
X153828315Y-91762511D01*
X153723006Y-91508274D01*
X153570121Y-91279466D01*
X153375536Y-91084881D01*
X153146728Y-90931996D01*
X153069486Y-90900001D01*
X153146728Y-90868006D01*
X153375536Y-90715121D01*
X153570121Y-90520536D01*
X153723006Y-90291728D01*
X153828315Y-90037491D01*
X153882001Y-89767593D01*
X153882001Y-89492409D01*
X153828315Y-89222511D01*
X153723006Y-88968274D01*
X153570121Y-88739466D01*
X153375536Y-88544881D01*
X153146728Y-88391996D01*
X153069486Y-88360001D01*
X153146728Y-88328006D01*
X153375536Y-88175121D01*
X153570121Y-87980536D01*
X153723006Y-87751728D01*
X153828315Y-87497491D01*
X153882001Y-87227593D01*
X153882001Y-86952409D01*
X153828315Y-86682511D01*
X153723006Y-86428274D01*
X153570121Y-86199466D01*
X153375536Y-86004881D01*
X153146728Y-85851996D01*
X153069486Y-85820001D01*
X153146728Y-85788006D01*
X153375536Y-85635121D01*
X153570121Y-85440536D01*
X153723006Y-85211728D01*
X153828315Y-84957491D01*
X153882001Y-84687593D01*
X153882001Y-84412409D01*
X153828315Y-84142511D01*
X153723006Y-83888274D01*
X153570121Y-83659466D01*
X153375536Y-83464881D01*
X153146728Y-83311996D01*
X153069486Y-83280001D01*
X153146728Y-83248006D01*
X153375536Y-83095121D01*
X153570121Y-82900536D01*
X153723006Y-82671728D01*
X153828315Y-82417491D01*
X153882001Y-82147593D01*
X153882001Y-81872409D01*
X153828315Y-81602511D01*
X153723006Y-81348274D01*
X153570121Y-81119466D01*
X153375536Y-80924881D01*
X153146728Y-80771996D01*
X153069486Y-80740001D01*
X153146728Y-80708006D01*
X153375536Y-80555121D01*
X153570121Y-80360536D01*
X153657342Y-80230001D01*
X154339200Y-80230001D01*
X155704000Y-81594802D01*
X155704001Y-87432668D01*
X155700324Y-87470000D01*
X155704001Y-87507333D01*
X155713615Y-87604939D01*
X155714998Y-87618985D01*
X155758454Y-87762246D01*
X155829026Y-87894276D01*
X155851981Y-87922246D01*
X155924000Y-88010001D01*
X155952998Y-88033799D01*
X157437823Y-89518625D01*
X157431832Y-89533088D01*
X157369000Y-89848967D01*
X157369000Y-90171033D01*
X157431832Y-90486912D01*
X157555082Y-90784463D01*
X157734013Y-91052252D01*
X157961748Y-91279987D01*
X158229537Y-91458918D01*
X158527088Y-91582168D01*
X158842967Y-91645000D01*
X159165033Y-91645000D01*
X159480912Y-91582168D01*
X159778463Y-91458918D01*
X160046252Y-91279987D01*
X160273987Y-91052252D01*
X160452918Y-90784463D01*
X160576168Y-90486912D01*
X160639000Y-90171033D01*
X160639000Y-89848967D01*
X160576168Y-89533088D01*
X160452918Y-89235537D01*
X160273987Y-88967748D01*
X160046252Y-88740013D01*
X159778463Y-88561082D01*
X159480912Y-88437832D01*
X159165033Y-88375000D01*
X158842967Y-88375000D01*
X158527088Y-88437832D01*
X158512625Y-88443823D01*
X157224000Y-87155199D01*
X157224000Y-81317322D01*
X157227676Y-81279999D01*
X157224000Y-81242676D01*
X157224000Y-81242667D01*
X157213003Y-81131014D01*
X157169546Y-80987753D01*
X157135940Y-80924881D01*
X157098974Y-80855723D01*
X157027799Y-80768997D01*
X157004001Y-80739999D01*
X156975004Y-80716202D01*
X155217805Y-78959004D01*
X155194002Y-78930000D01*
X155078277Y-78835027D01*
X154946248Y-78764455D01*
X154802987Y-78720998D01*
X154691334Y-78710001D01*
X154691323Y-78710001D01*
X154654001Y-78706325D01*
X154616679Y-78710001D01*
X153657342Y-78710001D01*
X153570121Y-78579466D01*
X153375536Y-78384881D01*
X153146728Y-78231996D01*
X153069486Y-78200001D01*
X153146728Y-78168006D01*
X153375536Y-78015121D01*
X153570121Y-77820536D01*
X153657342Y-77690001D01*
X154934677Y-77690001D01*
X154971999Y-77693677D01*
X155009321Y-77690001D01*
X155009332Y-77690001D01*
X155120985Y-77679004D01*
X155264246Y-77635547D01*
X155396275Y-77564975D01*
X155512000Y-77470002D01*
X155535803Y-77440998D01*
X156684802Y-76292000D01*
X157549091Y-76292000D01*
X157555082Y-76306463D01*
X157734013Y-76574252D01*
X157961748Y-76801987D01*
X158229537Y-76980918D01*
X158527088Y-77104168D01*
X158842967Y-77167000D01*
X159165033Y-77167000D01*
X159480912Y-77104168D01*
X159778463Y-76980918D01*
X160046252Y-76801987D01*
X160273987Y-76574252D01*
X160452918Y-76306463D01*
X160576168Y-76008912D01*
X160639000Y-75693033D01*
X160639000Y-75370967D01*
X160576168Y-75055088D01*
X160452918Y-74757537D01*
X160273987Y-74489748D01*
X160046252Y-74262013D01*
X159778463Y-74083082D01*
X159480912Y-73959832D01*
X159165033Y-73897000D01*
X158842967Y-73897000D01*
X158527088Y-73959832D01*
X158229537Y-74083082D01*
X157961748Y-74262013D01*
X157734013Y-74489748D01*
X157555082Y-74757537D01*
X157549091Y-74772000D01*
X156407323Y-74772000D01*
X156370000Y-74768324D01*
X156332677Y-74772000D01*
X156332667Y-74772000D01*
X156221014Y-74782997D01*
X156077753Y-74826454D01*
X155945723Y-74897026D01*
X155866552Y-74962001D01*
X155829999Y-74991999D01*
X155806201Y-75020997D01*
X154657198Y-76170001D01*
X153657342Y-76170001D01*
X153570121Y-76039466D01*
X153375536Y-75844881D01*
X153146728Y-75691996D01*
X153069486Y-75660001D01*
X153146728Y-75628006D01*
X153375536Y-75475121D01*
X153570121Y-75280536D01*
X153723006Y-75051728D01*
X153828315Y-74797491D01*
X153882001Y-74527593D01*
X153882001Y-74252409D01*
X153828315Y-73982511D01*
X153723006Y-73728274D01*
X153570121Y-73499466D01*
X153375536Y-73304881D01*
X153146728Y-73151996D01*
X153069486Y-73120001D01*
X153146728Y-73088006D01*
X153375536Y-72935121D01*
X153570121Y-72740536D01*
X153723006Y-72511728D01*
X153828315Y-72257491D01*
X153882001Y-71987593D01*
X153882001Y-71712409D01*
X153828315Y-71442511D01*
X153723006Y-71188274D01*
X153570121Y-70959466D01*
X153375536Y-70764881D01*
X153146728Y-70611996D01*
X153069486Y-70580001D01*
X153146728Y-70548006D01*
X153375536Y-70395121D01*
X153570121Y-70200536D01*
X153723006Y-69971728D01*
X153828315Y-69717491D01*
X153882001Y-69447593D01*
X153882001Y-69172409D01*
X153828315Y-68902511D01*
X153723006Y-68648274D01*
X153570121Y-68419466D01*
X153375536Y-68224881D01*
X153146728Y-68071996D01*
X153069486Y-68040001D01*
X153146728Y-68008006D01*
X153375536Y-67855121D01*
X153570121Y-67660536D01*
X153723006Y-67431728D01*
X153828315Y-67177491D01*
X153882001Y-66907593D01*
X153882001Y-66632409D01*
X153828315Y-66362511D01*
X153723006Y-66108274D01*
X153570121Y-65879466D01*
X153375536Y-65684881D01*
X153146728Y-65531996D01*
X153069486Y-65500001D01*
X153146728Y-65468006D01*
X153375536Y-65315121D01*
X153570121Y-65120536D01*
X153723006Y-64891728D01*
X153828315Y-64637491D01*
X153882001Y-64367593D01*
X153882001Y-64092409D01*
X153851373Y-63938430D01*
X155815804Y-61974000D01*
X157549091Y-61974000D01*
X157555082Y-61988463D01*
X157734013Y-62256252D01*
X157961748Y-62483987D01*
X158229537Y-62662918D01*
X158527088Y-62786168D01*
X158842967Y-62849000D01*
X159165033Y-62849000D01*
X159480912Y-62786168D01*
X159778463Y-62662918D01*
X160046252Y-62483987D01*
X160273987Y-62256252D01*
X160452918Y-61988463D01*
X160576168Y-61690912D01*
X160639000Y-61375033D01*
X160639000Y-61052967D01*
X160576168Y-60737088D01*
X160452918Y-60439537D01*
X160273987Y-60171748D01*
X160046252Y-59944013D01*
X159778463Y-59765082D01*
X159480912Y-59641832D01*
X159165033Y-59579000D01*
X158842967Y-59579000D01*
X158527088Y-59641832D01*
X158229537Y-59765082D01*
X157961748Y-59944013D01*
X157734013Y-60171748D01*
X157555082Y-60439537D01*
X157549091Y-60454000D01*
X155538335Y-60454000D01*
X155501002Y-60450323D01*
X155463669Y-60454000D01*
X155352016Y-60464997D01*
X155208755Y-60508454D01*
X155076726Y-60579026D01*
X154961001Y-60673999D01*
X154937203Y-60702997D01*
X153882001Y-61758199D01*
X153882001Y-61552409D01*
X153828315Y-61282511D01*
X153723006Y-61028274D01*
X153570121Y-60799466D01*
X153375536Y-60604881D01*
X153146728Y-60451996D01*
X153069486Y-60420001D01*
X153146728Y-60388006D01*
X153375536Y-60235121D01*
X153570121Y-60040536D01*
X153723006Y-59811728D01*
X153828315Y-59557491D01*
X153882001Y-59287593D01*
X153882001Y-59012409D01*
X153828315Y-58742511D01*
X153723006Y-58488274D01*
X153592528Y-58293000D01*
X154686000Y-58293000D01*
X154710776Y-58290560D01*
X154734601Y-58283333D01*
X154756557Y-58271597D01*
X154775803Y-58255803D01*
X154791597Y-58236557D01*
X154803333Y-58214601D01*
X154810560Y-58190776D01*
X154813000Y-58166000D01*
X154813000Y-50214000D01*
X157365928Y-50214000D01*
X157365928Y-52214000D01*
X157378188Y-52338482D01*
X157414498Y-52458180D01*
X157473463Y-52568494D01*
X157552815Y-52665185D01*
X157649506Y-52744537D01*
X157759820Y-52803502D01*
X157879518Y-52839812D01*
X158004000Y-52852072D01*
X160004000Y-52852072D01*
X160128482Y-52839812D01*
X160248180Y-52803502D01*
X160358494Y-52744537D01*
X160455185Y-52665185D01*
X160534537Y-52568494D01*
X160593502Y-52458180D01*
X160629812Y-52338482D01*
X160642072Y-52214000D01*
X160642072Y-51974000D01*
X162799928Y-51974000D01*
X162799928Y-53478000D01*
X162812188Y-53602482D01*
X162848498Y-53722180D01*
X162907463Y-53832494D01*
X162986815Y-53929185D01*
X163083506Y-54008537D01*
X163193820Y-54067502D01*
X163313518Y-54103812D01*
X163438000Y-54116072D01*
X163578000Y-54116072D01*
X163578001Y-56327197D01*
X162375886Y-57529312D01*
X162193335Y-57493000D01*
X161910665Y-57493000D01*
X161633426Y-57548147D01*
X161372273Y-57656320D01*
X161137241Y-57813363D01*
X160937363Y-58013241D01*
X160780320Y-58248273D01*
X160672147Y-58509426D01*
X160617000Y-58786665D01*
X160617000Y-59069335D01*
X160672147Y-59346574D01*
X160780320Y-59607727D01*
X160937363Y-59842759D01*
X161137241Y-60042637D01*
X161372273Y-60199680D01*
X161633426Y-60307853D01*
X161910665Y-60363000D01*
X162193335Y-60363000D01*
X162470574Y-60307853D01*
X162731727Y-60199680D01*
X162966759Y-60042637D01*
X163166637Y-59842759D01*
X163323680Y-59607727D01*
X163431853Y-59346574D01*
X163487000Y-59069335D01*
X163487000Y-58786665D01*
X163450688Y-58604114D01*
X164849003Y-57205799D01*
X164878001Y-57182001D01*
X164972974Y-57066276D01*
X165043546Y-56934247D01*
X165087003Y-56790986D01*
X165098000Y-56679333D01*
X165098000Y-56679324D01*
X165101676Y-56642001D01*
X165098000Y-56604678D01*
X165098000Y-54116072D01*
X165238000Y-54116072D01*
X165362482Y-54103812D01*
X165482180Y-54067502D01*
X165592494Y-54008537D01*
X165689185Y-53929185D01*
X165768537Y-53832494D01*
X165827502Y-53722180D01*
X165833056Y-53703873D01*
X165899495Y-53770312D01*
X166150905Y-53938299D01*
X166430257Y-54054011D01*
X166726816Y-54113000D01*
X167029184Y-54113000D01*
X167325743Y-54054011D01*
X167605095Y-53938299D01*
X167856505Y-53770312D01*
X168070312Y-53556505D01*
X168148000Y-53440237D01*
X168225688Y-53556505D01*
X168439495Y-53770312D01*
X168690905Y-53938299D01*
X168970257Y-54054011D01*
X169266816Y-54113000D01*
X169569184Y-54113000D01*
X169865743Y-54054011D01*
X170145095Y-53938299D01*
X170396505Y-53770312D01*
X170610312Y-53556505D01*
X170778299Y-53305095D01*
X170894011Y-53025743D01*
X170953000Y-52729184D01*
X170953000Y-52426816D01*
X170894011Y-52130257D01*
X170778299Y-51850905D01*
X170610312Y-51599495D01*
X170396505Y-51385688D01*
X170145095Y-51217701D01*
X169865743Y-51101989D01*
X169569184Y-51043000D01*
X169266816Y-51043000D01*
X168970257Y-51101989D01*
X168690905Y-51217701D01*
X168439495Y-51385688D01*
X168225688Y-51599495D01*
X168148000Y-51715763D01*
X168117789Y-51670550D01*
X168869340Y-50919000D01*
X177374002Y-50919000D01*
X177502948Y-50931700D01*
X177502949Y-50931700D01*
X177558700Y-50937191D01*
X177614452Y-50931700D01*
X183194150Y-50931700D01*
X183309150Y-51046700D01*
X183194150Y-51161700D01*
X175089052Y-51161700D01*
X175033300Y-51156209D01*
X174977548Y-51161700D01*
X174810801Y-51178123D01*
X174596853Y-51243024D01*
X174399677Y-51348416D01*
X174226851Y-51490251D01*
X174191308Y-51533560D01*
X173734860Y-51990009D01*
X173691552Y-52025551D01*
X173549717Y-52198377D01*
X173520258Y-52253491D01*
X173444324Y-52395554D01*
X173379423Y-52609502D01*
X173357509Y-52832000D01*
X173363001Y-52887761D01*
X173363000Y-58067663D01*
X173326637Y-58013241D01*
X173126759Y-57813363D01*
X172891727Y-57656320D01*
X172630574Y-57548147D01*
X172353335Y-57493000D01*
X172070665Y-57493000D01*
X171793426Y-57548147D01*
X171532273Y-57656320D01*
X171297241Y-57813363D01*
X171097363Y-58013241D01*
X170940320Y-58248273D01*
X170832147Y-58509426D01*
X170777000Y-58786665D01*
X170777000Y-59069335D01*
X170832147Y-59346574D01*
X170940320Y-59607727D01*
X171097363Y-59842759D01*
X171297241Y-60042637D01*
X171532273Y-60199680D01*
X171793426Y-60307853D01*
X172070665Y-60363000D01*
X172353335Y-60363000D01*
X172630574Y-60307853D01*
X172891727Y-60199680D01*
X173126759Y-60042637D01*
X173326637Y-59842759D01*
X173363000Y-59788337D01*
X173363000Y-61505868D01*
X172503869Y-62365000D01*
X168203743Y-62365000D01*
X168147999Y-62359510D01*
X168092255Y-62365000D01*
X168092248Y-62365000D01*
X167946493Y-62379356D01*
X167925500Y-62381423D01*
X167875705Y-62396529D01*
X167711553Y-62446324D01*
X167514377Y-62551716D01*
X167341551Y-62693551D01*
X167306011Y-62736857D01*
X166114860Y-63928009D01*
X166071552Y-63963551D01*
X165929717Y-64136377D01*
X165906582Y-64179660D01*
X165824324Y-64333554D01*
X165759423Y-64547502D01*
X165737509Y-64770000D01*
X165743001Y-64825761D01*
X165743001Y-65770390D01*
X165689185Y-65704815D01*
X165592494Y-65625463D01*
X165482180Y-65566498D01*
X165362482Y-65530188D01*
X165238000Y-65517928D01*
X164992326Y-65517928D01*
X164972974Y-65481724D01*
X164878001Y-65365999D01*
X164848998Y-65342197D01*
X164527804Y-65021003D01*
X164504001Y-64991999D01*
X164388276Y-64897026D01*
X164256247Y-64826454D01*
X164112986Y-64782997D01*
X164001333Y-64772000D01*
X164001322Y-64772000D01*
X163964000Y-64768324D01*
X163926678Y-64772000D01*
X160642072Y-64772000D01*
X160642072Y-64532000D01*
X160629812Y-64407518D01*
X160593502Y-64287820D01*
X160534537Y-64177506D01*
X160455185Y-64080815D01*
X160358494Y-64001463D01*
X160248180Y-63942498D01*
X160128482Y-63906188D01*
X160004000Y-63893928D01*
X158004000Y-63893928D01*
X157879518Y-63906188D01*
X157759820Y-63942498D01*
X157649506Y-64001463D01*
X157552815Y-64080815D01*
X157473463Y-64177506D01*
X157414498Y-64287820D01*
X157378188Y-64407518D01*
X157365928Y-64532000D01*
X157365928Y-66532000D01*
X157378188Y-66656482D01*
X157414498Y-66776180D01*
X157473463Y-66886494D01*
X157552815Y-66983185D01*
X157649506Y-67062537D01*
X157759820Y-67121502D01*
X157879518Y-67157812D01*
X158004000Y-67170072D01*
X160004000Y-67170072D01*
X160128482Y-67157812D01*
X160248180Y-67121502D01*
X160358494Y-67062537D01*
X160455185Y-66983185D01*
X160534537Y-66886494D01*
X160593502Y-66776180D01*
X160629812Y-66656482D01*
X160642072Y-66532000D01*
X160642072Y-66292000D01*
X162799928Y-66292000D01*
X162799928Y-67956000D01*
X162812188Y-68080482D01*
X162848498Y-68200180D01*
X162907463Y-68310494D01*
X162986815Y-68407185D01*
X163083506Y-68486537D01*
X163193820Y-68545502D01*
X163313518Y-68581812D01*
X163438000Y-68594072D01*
X163578000Y-68594072D01*
X163578001Y-70551197D01*
X162375886Y-71753312D01*
X162193335Y-71717000D01*
X161910665Y-71717000D01*
X161633426Y-71772147D01*
X161372273Y-71880320D01*
X161137241Y-72037363D01*
X160937363Y-72237241D01*
X160780320Y-72472273D01*
X160672147Y-72733426D01*
X160617000Y-73010665D01*
X160617000Y-73293335D01*
X160672147Y-73570574D01*
X160780320Y-73831727D01*
X160937363Y-74066759D01*
X161137241Y-74266637D01*
X161372273Y-74423680D01*
X161633426Y-74531853D01*
X161910665Y-74587000D01*
X162193335Y-74587000D01*
X162470574Y-74531853D01*
X162731727Y-74423680D01*
X162966759Y-74266637D01*
X163166637Y-74066759D01*
X163323680Y-73831727D01*
X163431853Y-73570574D01*
X163487000Y-73293335D01*
X163487000Y-73010665D01*
X170777000Y-73010665D01*
X170777000Y-73293335D01*
X170832147Y-73570574D01*
X170940320Y-73831727D01*
X171097363Y-74066759D01*
X171297241Y-74266637D01*
X171532273Y-74423680D01*
X171793426Y-74531853D01*
X172070665Y-74587000D01*
X172353335Y-74587000D01*
X172630574Y-74531853D01*
X172891727Y-74423680D01*
X173126759Y-74266637D01*
X173326637Y-74066759D01*
X173483680Y-73831727D01*
X173591853Y-73570574D01*
X173647000Y-73293335D01*
X173647000Y-73010665D01*
X173591853Y-72733426D01*
X173483680Y-72472273D01*
X173326637Y-72237241D01*
X173126759Y-72037363D01*
X172891727Y-71880320D01*
X172630574Y-71772147D01*
X172353335Y-71717000D01*
X172070665Y-71717000D01*
X171793426Y-71772147D01*
X171532273Y-71880320D01*
X171297241Y-72037363D01*
X171097363Y-72237241D01*
X170940320Y-72472273D01*
X170832147Y-72733426D01*
X170777000Y-73010665D01*
X163487000Y-73010665D01*
X163450688Y-72828114D01*
X164849003Y-71429799D01*
X164878001Y-71406001D01*
X164972974Y-71290276D01*
X165043546Y-71158247D01*
X165087003Y-71014986D01*
X165098000Y-70903333D01*
X165098000Y-70903324D01*
X165101676Y-70866001D01*
X165098000Y-70828678D01*
X165098000Y-68594072D01*
X165238000Y-68594072D01*
X165362482Y-68581812D01*
X165482180Y-68545502D01*
X165592494Y-68486537D01*
X165689185Y-68407185D01*
X165768537Y-68310494D01*
X165827502Y-68200180D01*
X165833056Y-68181873D01*
X165899495Y-68248312D01*
X166150905Y-68416299D01*
X166430257Y-68532011D01*
X166726816Y-68591000D01*
X167029184Y-68591000D01*
X167325743Y-68532011D01*
X167605095Y-68416299D01*
X167856505Y-68248312D01*
X168070312Y-68034505D01*
X168148000Y-67918237D01*
X168225688Y-68034505D01*
X168439495Y-68248312D01*
X168690905Y-68416299D01*
X168970257Y-68532011D01*
X169266816Y-68591000D01*
X169569184Y-68591000D01*
X169865743Y-68532011D01*
X170145095Y-68416299D01*
X170396505Y-68248312D01*
X170610312Y-68034505D01*
X170778299Y-67783095D01*
X170894011Y-67503743D01*
X170953000Y-67207184D01*
X170953000Y-66904816D01*
X170894011Y-66608257D01*
X170778299Y-66328905D01*
X170610312Y-66077495D01*
X170396505Y-65863688D01*
X170145095Y-65695701D01*
X169865743Y-65579989D01*
X169569184Y-65521000D01*
X169266816Y-65521000D01*
X168970257Y-65579989D01*
X168690905Y-65695701D01*
X168439495Y-65863688D01*
X168225688Y-66077495D01*
X168148000Y-66193763D01*
X168070312Y-66077495D01*
X168013000Y-66020183D01*
X168013000Y-65240131D01*
X168618132Y-64635000D01*
X172918249Y-64635000D01*
X172974000Y-64640491D01*
X173029751Y-64635000D01*
X173029752Y-64635000D01*
X173196499Y-64618577D01*
X173410447Y-64553676D01*
X173607623Y-64448284D01*
X173780449Y-64306449D01*
X173815996Y-64263135D01*
X175261140Y-62817991D01*
X175304449Y-62782449D01*
X175395001Y-62672112D01*
X175395000Y-76491868D01*
X175043869Y-76843000D01*
X167949751Y-76843000D01*
X167894000Y-76837509D01*
X167838248Y-76843000D01*
X167671501Y-76859423D01*
X167457553Y-76924324D01*
X167260377Y-77029716D01*
X167087551Y-77171551D01*
X167052011Y-77214857D01*
X166114860Y-78152009D01*
X166071552Y-78187551D01*
X165929717Y-78360377D01*
X165900817Y-78414446D01*
X165824324Y-78557554D01*
X165759423Y-78771502D01*
X165737509Y-78994000D01*
X165743001Y-79049761D01*
X165743001Y-80248390D01*
X165689185Y-80182815D01*
X165592494Y-80103463D01*
X165482180Y-80044498D01*
X165362482Y-80008188D01*
X165238000Y-79995928D01*
X164992326Y-79995928D01*
X164972974Y-79959724D01*
X164878001Y-79843999D01*
X164848998Y-79820197D01*
X164527804Y-79499003D01*
X164504001Y-79469999D01*
X164388276Y-79375026D01*
X164256247Y-79304454D01*
X164112986Y-79260997D01*
X164001333Y-79250000D01*
X164001322Y-79250000D01*
X163964000Y-79246324D01*
X163926678Y-79250000D01*
X160642072Y-79250000D01*
X160642072Y-79010000D01*
X160629812Y-78885518D01*
X160593502Y-78765820D01*
X160534537Y-78655506D01*
X160455185Y-78558815D01*
X160358494Y-78479463D01*
X160248180Y-78420498D01*
X160128482Y-78384188D01*
X160004000Y-78371928D01*
X158004000Y-78371928D01*
X157879518Y-78384188D01*
X157759820Y-78420498D01*
X157649506Y-78479463D01*
X157552815Y-78558815D01*
X157473463Y-78655506D01*
X157414498Y-78765820D01*
X157378188Y-78885518D01*
X157365928Y-79010000D01*
X157365928Y-81010000D01*
X157378188Y-81134482D01*
X157414498Y-81254180D01*
X157473463Y-81364494D01*
X157552815Y-81461185D01*
X157649506Y-81540537D01*
X157759820Y-81599502D01*
X157879518Y-81635812D01*
X158004000Y-81648072D01*
X160004000Y-81648072D01*
X160128482Y-81635812D01*
X160248180Y-81599502D01*
X160358494Y-81540537D01*
X160455185Y-81461185D01*
X160534537Y-81364494D01*
X160593502Y-81254180D01*
X160629812Y-81134482D01*
X160642072Y-81010000D01*
X160642072Y-80770000D01*
X162799928Y-80770000D01*
X162799928Y-82434000D01*
X162812188Y-82558482D01*
X162848498Y-82678180D01*
X162907463Y-82788494D01*
X162986815Y-82885185D01*
X163083506Y-82964537D01*
X163193820Y-83023502D01*
X163313518Y-83059812D01*
X163438000Y-83072072D01*
X163578000Y-83072072D01*
X163578001Y-85029197D01*
X162375886Y-86231312D01*
X162193335Y-86195000D01*
X161910665Y-86195000D01*
X161633426Y-86250147D01*
X161372273Y-86358320D01*
X161137241Y-86515363D01*
X160937363Y-86715241D01*
X160780320Y-86950273D01*
X160672147Y-87211426D01*
X160617000Y-87488665D01*
X160617000Y-87771335D01*
X160672147Y-88048574D01*
X160780320Y-88309727D01*
X160937363Y-88544759D01*
X161137241Y-88744637D01*
X161372273Y-88901680D01*
X161633426Y-89009853D01*
X161910665Y-89065000D01*
X162193335Y-89065000D01*
X162470574Y-89009853D01*
X162731727Y-88901680D01*
X162966759Y-88744637D01*
X163166637Y-88544759D01*
X163323680Y-88309727D01*
X163431853Y-88048574D01*
X163487000Y-87771335D01*
X163487000Y-87488665D01*
X170777000Y-87488665D01*
X170777000Y-87771335D01*
X170832147Y-88048574D01*
X170940320Y-88309727D01*
X171097363Y-88544759D01*
X171297241Y-88744637D01*
X171532273Y-88901680D01*
X171793426Y-89009853D01*
X172070665Y-89065000D01*
X172353335Y-89065000D01*
X172630574Y-89009853D01*
X172891727Y-88901680D01*
X173126759Y-88744637D01*
X173326637Y-88544759D01*
X173483680Y-88309727D01*
X173591853Y-88048574D01*
X173647000Y-87771335D01*
X173647000Y-87488665D01*
X173591853Y-87211426D01*
X173483680Y-86950273D01*
X173326637Y-86715241D01*
X173126759Y-86515363D01*
X172891727Y-86358320D01*
X172630574Y-86250147D01*
X172353335Y-86195000D01*
X172070665Y-86195000D01*
X171793426Y-86250147D01*
X171532273Y-86358320D01*
X171297241Y-86515363D01*
X171097363Y-86715241D01*
X170940320Y-86950273D01*
X170832147Y-87211426D01*
X170777000Y-87488665D01*
X163487000Y-87488665D01*
X163450688Y-87306114D01*
X164849003Y-85907799D01*
X164878001Y-85884001D01*
X164972974Y-85768276D01*
X165043546Y-85636247D01*
X165087003Y-85492986D01*
X165098000Y-85381333D01*
X165098000Y-85381324D01*
X165101676Y-85344001D01*
X165098000Y-85306678D01*
X165098000Y-83072072D01*
X165238000Y-83072072D01*
X165362482Y-83059812D01*
X165482180Y-83023502D01*
X165592494Y-82964537D01*
X165689185Y-82885185D01*
X165768537Y-82788494D01*
X165827502Y-82678180D01*
X165833056Y-82659873D01*
X165899495Y-82726312D01*
X166150905Y-82894299D01*
X166430257Y-83010011D01*
X166726816Y-83069000D01*
X167029184Y-83069000D01*
X167325743Y-83010011D01*
X167605095Y-82894299D01*
X167856505Y-82726312D01*
X168070312Y-82512505D01*
X168148000Y-82396237D01*
X168225688Y-82512505D01*
X168439495Y-82726312D01*
X168690905Y-82894299D01*
X168970257Y-83010011D01*
X169266816Y-83069000D01*
X169569184Y-83069000D01*
X169865743Y-83010011D01*
X170145095Y-82894299D01*
X170396505Y-82726312D01*
X170610312Y-82512505D01*
X170778299Y-82261095D01*
X170894011Y-81981743D01*
X170953000Y-81685184D01*
X170953000Y-81382816D01*
X170894011Y-81086257D01*
X170778299Y-80806905D01*
X170610312Y-80555495D01*
X170396505Y-80341688D01*
X170145095Y-80173701D01*
X169865743Y-80057989D01*
X169569184Y-79999000D01*
X169266816Y-79999000D01*
X168970257Y-80057989D01*
X168690905Y-80173701D01*
X168439495Y-80341688D01*
X168225688Y-80555495D01*
X168148000Y-80671763D01*
X168070312Y-80555495D01*
X168013000Y-80498183D01*
X168013000Y-79464131D01*
X168364132Y-79113000D01*
X175458249Y-79113000D01*
X175514000Y-79118491D01*
X175569751Y-79113000D01*
X175569752Y-79113000D01*
X175736499Y-79096577D01*
X175950447Y-79031676D01*
X176147623Y-78926284D01*
X176320449Y-78784449D01*
X176355996Y-78741136D01*
X177293140Y-77803992D01*
X177336449Y-77768449D01*
X177478284Y-77595623D01*
X177583676Y-77398447D01*
X177648577Y-77184499D01*
X177665000Y-77017752D01*
X177665000Y-77017751D01*
X177670491Y-76962000D01*
X177665000Y-76906249D01*
X177665000Y-56604131D01*
X178337432Y-55931700D01*
X183194150Y-55931700D01*
X183309150Y-56046700D01*
X183194150Y-56161700D01*
X180249043Y-56161700D01*
X180193299Y-56156210D01*
X180137555Y-56161700D01*
X180137548Y-56161700D01*
X179991793Y-56176056D01*
X179970800Y-56178123D01*
X179921005Y-56193229D01*
X179756853Y-56243024D01*
X179559677Y-56348416D01*
X179386851Y-56490251D01*
X179351308Y-56533560D01*
X178179865Y-57705004D01*
X178136551Y-57740551D01*
X177994716Y-57913377D01*
X177893282Y-58103149D01*
X177889324Y-58110554D01*
X177824423Y-58324502D01*
X177802509Y-58547000D01*
X177808000Y-58602751D01*
X177808001Y-92747867D01*
X177075869Y-93480000D01*
X167692959Y-93480000D01*
X167637207Y-93474509D01*
X167414708Y-93496423D01*
X167364913Y-93511529D01*
X167200761Y-93561324D01*
X167003585Y-93666716D01*
X166830759Y-93808551D01*
X166795212Y-93851865D01*
X166241865Y-94405212D01*
X166198551Y-94440759D01*
X166056716Y-94613585D01*
X165981131Y-94754997D01*
X165951324Y-94810762D01*
X165886423Y-95024710D01*
X165866225Y-95229789D01*
X165816185Y-95168815D01*
X165719494Y-95089463D01*
X165609180Y-95030498D01*
X165489482Y-94994188D01*
X165365000Y-94981928D01*
X163565000Y-94981928D01*
X163440518Y-94994188D01*
X163320820Y-95030498D01*
X163210506Y-95089463D01*
X163113815Y-95168815D01*
X163034463Y-95265506D01*
X162975498Y-95375820D01*
X162939188Y-95495518D01*
X162926928Y-95620000D01*
X162926928Y-97420000D01*
X162939188Y-97544482D01*
X162975498Y-97664180D01*
X163034463Y-97774494D01*
X163113815Y-97871185D01*
X163210506Y-97950537D01*
X163320820Y-98009502D01*
X163440518Y-98045812D01*
X163565000Y-98058072D01*
X165365000Y-98058072D01*
X165489482Y-98045812D01*
X165609180Y-98009502D01*
X165719494Y-97950537D01*
X165816185Y-97871185D01*
X165895537Y-97774494D01*
X165954502Y-97664180D01*
X165960056Y-97645873D01*
X166026495Y-97712312D01*
X166277905Y-97880299D01*
X166557257Y-97996011D01*
X166853816Y-98055000D01*
X167156184Y-98055000D01*
X167452743Y-97996011D01*
X167732095Y-97880299D01*
X167983505Y-97712312D01*
X168197312Y-97498505D01*
X168275000Y-97382237D01*
X168352688Y-97498505D01*
X168566495Y-97712312D01*
X168817905Y-97880299D01*
X169097257Y-97996011D01*
X169393816Y-98055000D01*
X169696184Y-98055000D01*
X169992743Y-97996011D01*
X170272095Y-97880299D01*
X170523505Y-97712312D01*
X170737312Y-97498505D01*
X170905299Y-97247095D01*
X171021011Y-96967743D01*
X171080000Y-96671184D01*
X171080000Y-96368816D01*
X171021011Y-96072257D01*
X170905299Y-95792905D01*
X170876631Y-95750000D01*
X177490249Y-95750000D01*
X177546000Y-95755491D01*
X177601751Y-95750000D01*
X177601752Y-95750000D01*
X177768499Y-95733577D01*
X177982447Y-95668676D01*
X178179623Y-95563284D01*
X178352449Y-95421449D01*
X178387996Y-95378135D01*
X179706140Y-94059992D01*
X179749449Y-94024449D01*
X179891284Y-93851623D01*
X179996676Y-93654447D01*
X180061577Y-93440499D01*
X180078000Y-93273752D01*
X180078000Y-93273743D01*
X180083490Y-93218001D01*
X180078000Y-93162259D01*
X180078000Y-90388982D01*
X180688900Y-90388982D01*
X180688900Y-90713018D01*
X180752117Y-91030829D01*
X180876120Y-91330199D01*
X181056145Y-91599626D01*
X181277519Y-91821000D01*
X181056145Y-92042374D01*
X180876120Y-92311801D01*
X180752117Y-92611171D01*
X180688900Y-92928982D01*
X180688900Y-93253018D01*
X180752117Y-93570829D01*
X180876120Y-93870199D01*
X181056145Y-94139626D01*
X181285274Y-94368755D01*
X181554701Y-94548780D01*
X181854071Y-94672783D01*
X182171882Y-94736000D01*
X182495918Y-94736000D01*
X182813729Y-94672783D01*
X183113099Y-94548780D01*
X183382526Y-94368755D01*
X183611655Y-94139626D01*
X183791680Y-93870199D01*
X183915683Y-93570829D01*
X183978900Y-93253018D01*
X183978900Y-92928982D01*
X183915683Y-92611171D01*
X183791680Y-92311801D01*
X183611655Y-92042374D01*
X183390281Y-91821000D01*
X183611655Y-91599626D01*
X183791680Y-91330199D01*
X183915683Y-91030829D01*
X183978900Y-90713018D01*
X183978900Y-90388982D01*
X183915683Y-90071171D01*
X183791680Y-89771801D01*
X183611655Y-89502374D01*
X183382526Y-89273245D01*
X183113099Y-89093220D01*
X182813729Y-88969217D01*
X182495918Y-88906000D01*
X182171882Y-88906000D01*
X181854071Y-88969217D01*
X181554701Y-89093220D01*
X181285274Y-89273245D01*
X181056145Y-89502374D01*
X180876120Y-89771801D01*
X180752117Y-90071171D01*
X180688900Y-90388982D01*
X180078000Y-90388982D01*
X180078000Y-60967766D01*
X183450639Y-60967766D01*
X183552439Y-61237279D01*
X183850577Y-61383163D01*
X184171446Y-61468080D01*
X184502717Y-61488766D01*
X184831657Y-61444428D01*
X185145627Y-61336769D01*
X185331761Y-61237279D01*
X185433561Y-60967766D01*
X184442100Y-59976305D01*
X183450639Y-60967766D01*
X180078000Y-60967766D01*
X180078000Y-59857317D01*
X182750034Y-59857317D01*
X182794372Y-60186257D01*
X182902031Y-60500227D01*
X183001521Y-60686361D01*
X183271034Y-60788161D01*
X184262495Y-59796700D01*
X184621705Y-59796700D01*
X185613166Y-60788161D01*
X185882679Y-60686361D01*
X186028563Y-60388223D01*
X186113480Y-60067354D01*
X186134166Y-59736083D01*
X186089828Y-59407143D01*
X185982169Y-59093173D01*
X185882679Y-58907039D01*
X185613166Y-58805239D01*
X184621705Y-59796700D01*
X184262495Y-59796700D01*
X183271034Y-58805239D01*
X183001521Y-58907039D01*
X182855637Y-59205177D01*
X182770720Y-59526046D01*
X182750034Y-59857317D01*
X180078000Y-59857317D01*
X180078000Y-59017131D01*
X180663432Y-58431700D01*
X183194150Y-58431700D01*
X183367975Y-58605525D01*
X183556496Y-58731491D01*
X184442100Y-59617095D01*
X185327704Y-58731491D01*
X185516225Y-58605525D01*
X185750925Y-58370825D01*
X185935328Y-58094847D01*
X186062346Y-57788196D01*
X186127100Y-57462658D01*
X186127100Y-57130742D01*
X186062346Y-56805204D01*
X185935328Y-56498553D01*
X185750925Y-56222575D01*
X185575050Y-56046700D01*
X185750925Y-55870825D01*
X185935328Y-55594847D01*
X186062346Y-55288196D01*
X186127100Y-54962658D01*
X186127100Y-54630742D01*
X186062346Y-54305204D01*
X185935328Y-53998553D01*
X185750925Y-53722575D01*
X185575050Y-53546700D01*
X185750925Y-53370825D01*
X185935328Y-53094847D01*
X186062346Y-52788196D01*
X186127100Y-52462658D01*
X186127100Y-52130742D01*
X186062346Y-51805204D01*
X185935328Y-51498553D01*
X185750925Y-51222575D01*
X185575050Y-51046700D01*
X185750925Y-50870825D01*
X185935328Y-50594847D01*
X186062346Y-50288196D01*
X186127100Y-49962658D01*
X186127100Y-49630742D01*
X186062346Y-49305204D01*
X185935328Y-48998553D01*
X185750925Y-48722575D01*
X185516225Y-48487875D01*
X185240247Y-48303472D01*
X184933596Y-48176454D01*
X184608058Y-48111700D01*
X184276142Y-48111700D01*
X183950604Y-48176454D01*
X183643953Y-48303472D01*
X183367975Y-48487875D01*
X183194150Y-48661700D01*
X177730698Y-48661700D01*
X177601752Y-48649000D01*
X177601751Y-48649000D01*
X177546000Y-48643509D01*
X177490249Y-48649000D01*
X168454959Y-48649000D01*
X168399208Y-48643509D01*
X168343456Y-48649000D01*
X168176709Y-48665423D01*
X167962761Y-48730324D01*
X167765585Y-48835716D01*
X167592759Y-48977551D01*
X167557217Y-49020860D01*
X166114865Y-50463212D01*
X166071551Y-50498759D01*
X165929716Y-50671585D01*
X165824325Y-50868761D01*
X165824324Y-50868762D01*
X165759423Y-51082710D01*
X165739225Y-51287789D01*
X165689185Y-51226815D01*
X165592494Y-51147463D01*
X165482180Y-51088498D01*
X165362482Y-51052188D01*
X165238000Y-51039928D01*
X164992326Y-51039928D01*
X164972974Y-51003724D01*
X164878001Y-50887999D01*
X164848998Y-50864197D01*
X164687804Y-50703003D01*
X164664001Y-50673999D01*
X164548276Y-50579026D01*
X164416247Y-50508454D01*
X164272986Y-50464997D01*
X164161333Y-50454000D01*
X164161322Y-50454000D01*
X164124000Y-50450324D01*
X164086678Y-50454000D01*
X160642072Y-50454000D01*
X160642072Y-50214000D01*
X160629812Y-50089518D01*
X160593502Y-49969820D01*
X160534537Y-49859506D01*
X160455185Y-49762815D01*
X160358494Y-49683463D01*
X160248180Y-49624498D01*
X160128482Y-49588188D01*
X160004000Y-49575928D01*
X158004000Y-49575928D01*
X157879518Y-49588188D01*
X157759820Y-49624498D01*
X157649506Y-49683463D01*
X157552815Y-49762815D01*
X157473463Y-49859506D01*
X157414498Y-49969820D01*
X157378188Y-50089518D01*
X157365928Y-50214000D01*
X154813000Y-50214000D01*
X154813000Y-47675000D01*
X193691630Y-47675000D01*
X193371768Y-47807491D01*
G37*
X193371768Y-47807491D02*
X192959526Y-48082943D01*
X192608943Y-48433526D01*
X192333491Y-48845768D01*
X192143757Y-49303827D01*
X192047032Y-49790100D01*
X192047032Y-50285900D01*
X192143757Y-50772173D01*
X192333491Y-51230232D01*
X192608943Y-51642474D01*
X192959526Y-51993057D01*
X193371768Y-52268509D01*
X193829827Y-52458243D01*
X194316100Y-52554968D01*
X194811900Y-52554968D01*
X195298173Y-52458243D01*
X195756232Y-52268509D01*
X196168474Y-51993057D01*
X196519057Y-51642474D01*
X196794509Y-51230232D01*
X196927000Y-50910370D01*
X196927001Y-108535000D01*
X180687171Y-108535000D01*
X180708447Y-108528546D01*
X180840476Y-108457974D01*
X180956201Y-108363001D01*
X180980004Y-108333997D01*
X181834871Y-107479130D01*
X181854071Y-107487083D01*
X182171882Y-107550300D01*
X182495918Y-107550300D01*
X182813729Y-107487083D01*
X183113099Y-107363080D01*
X183382526Y-107183055D01*
X183611655Y-106953926D01*
X183791680Y-106684499D01*
X183915683Y-106385129D01*
X183978900Y-106067318D01*
X183978900Y-105743282D01*
X183964344Y-105670100D01*
X191793031Y-105670100D01*
X191793031Y-106165900D01*
X191889756Y-106652173D01*
X192079491Y-107110232D01*
X192354942Y-107522475D01*
X192705525Y-107873058D01*
X193117768Y-108148509D01*
X193575827Y-108338244D01*
X194062100Y-108434969D01*
X194557900Y-108434969D01*
X195044173Y-108338244D01*
X195502232Y-108148509D01*
X195914475Y-107873058D01*
X196265058Y-107522475D01*
X196540509Y-107110232D01*
X196730244Y-106652173D01*
X196826969Y-106165900D01*
X196826969Y-105670100D01*
X196730244Y-105183827D01*
X196540509Y-104725768D01*
X196265058Y-104313525D01*
X195914475Y-103962942D01*
X195502232Y-103687491D01*
X195044173Y-103497756D01*
X194557900Y-103401031D01*
X194062100Y-103401031D01*
X193575827Y-103497756D01*
X193117768Y-103687491D01*
X192705525Y-103962942D01*
X192354942Y-104313525D01*
X192079491Y-104725768D01*
X191889756Y-105183827D01*
X191793031Y-105670100D01*
X183964344Y-105670100D01*
X183915683Y-105425471D01*
X183791680Y-105126101D01*
X183611655Y-104856674D01*
X183390281Y-104635300D01*
X183611655Y-104413926D01*
X183791680Y-104144499D01*
X183915683Y-103845129D01*
X183978900Y-103527318D01*
X183978900Y-103203282D01*
X183915683Y-102885471D01*
X183791680Y-102586101D01*
X183611655Y-102316674D01*
X183382526Y-102087545D01*
X183113099Y-101907520D01*
X182813729Y-101783517D01*
X182495918Y-101720300D01*
X182171882Y-101720300D01*
X181854071Y-101783517D01*
X181554701Y-101907520D01*
X181285274Y-102087545D01*
X181056145Y-102316674D01*
X180876120Y-102586101D01*
X180752117Y-102885471D01*
X180688900Y-103203282D01*
X180688900Y-103527318D01*
X180752117Y-103845129D01*
X180876120Y-104144499D01*
X181056145Y-104413926D01*
X181277519Y-104635300D01*
X181056145Y-104856674D01*
X180876120Y-105126101D01*
X180752117Y-105425471D01*
X180688900Y-105743282D01*
X180688900Y-106067318D01*
X180752117Y-106385129D01*
X180760070Y-106404329D01*
X180101399Y-107063000D01*
X136895172Y-107063000D01*
X134794139Y-104961967D01*
X157369000Y-104961967D01*
X157369000Y-105284033D01*
X157431832Y-105599912D01*
X157555082Y-105897463D01*
X157734013Y-106165252D01*
X157961748Y-106392987D01*
X158229537Y-106571918D01*
X158527088Y-106695168D01*
X158842967Y-106758000D01*
X159165033Y-106758000D01*
X159480912Y-106695168D01*
X159778463Y-106571918D01*
X160046252Y-106392987D01*
X160273987Y-106165252D01*
X160452918Y-105897463D01*
X160576168Y-105599912D01*
X160639000Y-105284033D01*
X160639000Y-104961967D01*
X160576168Y-104646088D01*
X160452918Y-104348537D01*
X160273987Y-104080748D01*
X160046252Y-103853013D01*
X159778463Y-103674082D01*
X159480912Y-103550832D01*
X159165033Y-103488000D01*
X158842967Y-103488000D01*
X158527088Y-103550832D01*
X158229537Y-103674082D01*
X157961748Y-103853013D01*
X157734013Y-104080748D01*
X157555082Y-104348537D01*
X157431832Y-104646088D01*
X157369000Y-104961967D01*
X134794139Y-104961967D01*
X132941837Y-103109665D01*
X160617000Y-103109665D01*
X160617000Y-103392335D01*
X160672147Y-103669574D01*
X160780320Y-103930727D01*
X160937363Y-104165759D01*
X161137241Y-104365637D01*
X161372273Y-104522680D01*
X161633426Y-104630853D01*
X161910665Y-104686000D01*
X162193335Y-104686000D01*
X162470574Y-104630853D01*
X162731727Y-104522680D01*
X162966759Y-104365637D01*
X163166637Y-104165759D01*
X163323680Y-103930727D01*
X163431853Y-103669574D01*
X163487000Y-103392335D01*
X163487000Y-103109665D01*
X170777000Y-103109665D01*
X170777000Y-103392335D01*
X170832147Y-103669574D01*
X170940320Y-103930727D01*
X171097363Y-104165759D01*
X171297241Y-104365637D01*
X171532273Y-104522680D01*
X171793426Y-104630853D01*
X172070665Y-104686000D01*
X172353335Y-104686000D01*
X172630574Y-104630853D01*
X172891727Y-104522680D01*
X173126759Y-104365637D01*
X173326637Y-104165759D01*
X173483680Y-103930727D01*
X173591853Y-103669574D01*
X173647000Y-103392335D01*
X173647000Y-103109665D01*
X173591853Y-102832426D01*
X173483680Y-102571273D01*
X173326637Y-102336241D01*
X173126759Y-102136363D01*
X172891727Y-101979320D01*
X172630574Y-101871147D01*
X172353335Y-101816000D01*
X172070665Y-101816000D01*
X171793426Y-101871147D01*
X171532273Y-101979320D01*
X171297241Y-102136363D01*
X171097363Y-102336241D01*
X170940320Y-102571273D01*
X170832147Y-102832426D01*
X170777000Y-103109665D01*
X163487000Y-103109665D01*
X163431853Y-102832426D01*
X163323680Y-102571273D01*
X163166637Y-102336241D01*
X162966759Y-102136363D01*
X162731727Y-101979320D01*
X162470574Y-101871147D01*
X162193335Y-101816000D01*
X161910665Y-101816000D01*
X161633426Y-101871147D01*
X161372273Y-101979320D01*
X161137241Y-102136363D01*
X160937363Y-102336241D01*
X160780320Y-102571273D01*
X160672147Y-102832426D01*
X160617000Y-103109665D01*
X132941837Y-103109665D01*
X125531414Y-95699243D01*
X125630121Y-95600536D01*
X125783006Y-95371728D01*
X125888315Y-95117491D01*
X125942001Y-94847593D01*
X125942001Y-94572409D01*
X125888315Y-94302511D01*
X125783006Y-94048274D01*
X125630121Y-93819466D01*
X125435536Y-93624881D01*
X125206728Y-93471996D01*
X125129486Y-93440001D01*
X125206728Y-93408006D01*
X125435536Y-93255121D01*
X125630121Y-93060536D01*
X125783006Y-92831728D01*
X125888315Y-92577491D01*
X125942001Y-92307593D01*
X125942001Y-92032409D01*
X125888315Y-91762511D01*
X125783006Y-91508274D01*
X125630121Y-91279466D01*
X125435536Y-91084881D01*
X125206728Y-90931996D01*
X125129486Y-90900001D01*
X125206728Y-90868006D01*
X125435536Y-90715121D01*
X125630121Y-90520536D01*
X125783006Y-90291728D01*
X125888315Y-90037491D01*
X125942001Y-89767593D01*
X125942001Y-89492409D01*
X125888315Y-89222511D01*
X125783006Y-88968274D01*
X125630121Y-88739466D01*
X125435536Y-88544881D01*
X125206728Y-88391996D01*
X125129486Y-88360001D01*
X125206728Y-88328006D01*
X125435536Y-88175121D01*
X125630121Y-87980536D01*
X125783006Y-87751728D01*
X125888315Y-87497491D01*
X125942001Y-87227593D01*
X125942001Y-86952409D01*
X125888315Y-86682511D01*
X125783006Y-86428274D01*
X125630121Y-86199466D01*
X125435536Y-86004881D01*
X125206728Y-85851996D01*
X125129486Y-85820001D01*
X125206728Y-85788006D01*
X125435536Y-85635121D01*
X125630121Y-85440536D01*
X125783006Y-85211728D01*
X125888315Y-84957491D01*
X125942001Y-84687593D01*
X125942001Y-84412409D01*
X125888315Y-84142511D01*
X125783006Y-83888274D01*
X125630121Y-83659466D01*
X125435536Y-83464881D01*
X125206728Y-83311996D01*
X125129486Y-83280001D01*
X125206728Y-83248006D01*
X125435536Y-83095121D01*
X125630121Y-82900536D01*
X125783006Y-82671728D01*
X125888315Y-82417491D01*
X125942001Y-82147593D01*
X125942001Y-81872409D01*
X125888315Y-81602511D01*
X125783006Y-81348274D01*
X125630121Y-81119466D01*
X125435536Y-80924881D01*
X125206728Y-80771996D01*
X125129486Y-80740001D01*
X125206728Y-80708006D01*
X125435536Y-80555121D01*
X125630121Y-80360536D01*
X125783006Y-80131728D01*
X125888315Y-79877491D01*
X125942001Y-79607593D01*
X125942001Y-79400061D01*
X146412000Y-79400061D01*
X146412000Y-79603939D01*
X146451774Y-79803898D01*
X146529795Y-79992256D01*
X146643063Y-80161774D01*
X146687000Y-80205711D01*
X146687001Y-86799288D01*
X146643063Y-86843226D01*
X146529795Y-87012744D01*
X146451774Y-87201102D01*
X146412000Y-87401061D01*
X146412000Y-87604939D01*
X146451774Y-87804898D01*
X146529795Y-87993256D01*
X146643063Y-88162774D01*
X146787226Y-88306937D01*
X146956744Y-88420205D01*
X147145102Y-88498226D01*
X147345061Y-88538000D01*
X147548939Y-88538000D01*
X147748898Y-88498226D01*
X147937256Y-88420205D01*
X148106774Y-88306937D01*
X148250937Y-88162774D01*
X148364205Y-87993256D01*
X148442226Y-87804898D01*
X148482000Y-87604939D01*
X148482000Y-87401061D01*
X148442226Y-87201102D01*
X148364205Y-87012744D01*
X148250937Y-86843226D01*
X148207000Y-86799289D01*
X148207000Y-80205711D01*
X148250937Y-80161774D01*
X148364205Y-79992256D01*
X148442226Y-79803898D01*
X148482000Y-79603939D01*
X148482000Y-79400061D01*
X148442226Y-79200102D01*
X148364205Y-79011744D01*
X148250937Y-78842226D01*
X148106774Y-78698063D01*
X147937256Y-78584795D01*
X147748898Y-78506774D01*
X147548939Y-78467000D01*
X147345061Y-78467000D01*
X147145102Y-78506774D01*
X146956744Y-78584795D01*
X146787226Y-78698063D01*
X146643063Y-78842226D01*
X146529795Y-79011744D01*
X146451774Y-79200102D01*
X146412000Y-79400061D01*
X125942001Y-79400061D01*
X125942001Y-79332409D01*
X125888315Y-79062511D01*
X125783006Y-78808274D01*
X125630121Y-78579466D01*
X125435536Y-78384881D01*
X125206728Y-78231996D01*
X125129486Y-78200001D01*
X125206728Y-78168006D01*
X125435536Y-78015121D01*
X125630121Y-77820536D01*
X125783006Y-77591728D01*
X125888315Y-77337491D01*
X125942001Y-77067593D01*
X125942001Y-76792409D01*
X125888315Y-76522511D01*
X125783006Y-76268274D01*
X125630121Y-76039466D01*
X125435536Y-75844881D01*
X125206728Y-75691996D01*
X125129486Y-75660001D01*
X125206728Y-75628006D01*
X125435536Y-75475121D01*
X125630121Y-75280536D01*
X125783006Y-75051728D01*
X125888315Y-74797491D01*
X125942001Y-74527593D01*
X125942001Y-74252409D01*
X125888315Y-73982511D01*
X125783006Y-73728274D01*
X125630121Y-73499466D01*
X125435536Y-73304881D01*
X125206728Y-73151996D01*
X125129486Y-73120001D01*
X125206728Y-73088006D01*
X125435536Y-72935121D01*
X125630121Y-72740536D01*
X125783006Y-72511728D01*
X125888315Y-72257491D01*
X125942001Y-71987593D01*
X125942001Y-71712409D01*
X125888315Y-71442511D01*
X125783006Y-71188274D01*
X125630121Y-70959466D01*
X125435536Y-70764881D01*
X125206728Y-70611996D01*
X125129486Y-70580001D01*
X125206728Y-70548006D01*
X125435536Y-70395121D01*
X125630121Y-70200536D01*
X125783006Y-69971728D01*
X125888315Y-69717491D01*
X125942001Y-69447593D01*
X125942001Y-69172409D01*
X125888315Y-68902511D01*
X125783006Y-68648274D01*
X125630121Y-68419466D01*
X125435536Y-68224881D01*
X125206728Y-68071996D01*
X125129486Y-68040001D01*
X125206728Y-68008006D01*
X125435536Y-67855121D01*
X125630121Y-67660536D01*
X125783006Y-67431728D01*
X125888315Y-67177491D01*
X125942001Y-66907593D01*
X125942001Y-66632409D01*
X125888315Y-66362511D01*
X125783006Y-66108274D01*
X125630121Y-65879466D01*
X125435536Y-65684881D01*
X125206728Y-65531996D01*
X125129486Y-65500001D01*
X125206728Y-65468006D01*
X125435536Y-65315121D01*
X125630121Y-65120536D01*
X125783006Y-64891728D01*
X125888315Y-64637491D01*
X125942001Y-64367593D01*
X125942001Y-64092409D01*
X125888315Y-63822511D01*
X125783006Y-63568274D01*
X125630121Y-63339466D01*
X125435536Y-63144881D01*
X125206728Y-62991996D01*
X125129486Y-62960001D01*
X125206728Y-62928006D01*
X125435536Y-62775121D01*
X125630121Y-62580536D01*
X125783006Y-62351728D01*
X125888315Y-62097491D01*
X125942001Y-61827593D01*
X125942001Y-61552409D01*
X125888315Y-61282511D01*
X125783006Y-61028274D01*
X125630121Y-60799466D01*
X125435536Y-60604881D01*
X125206728Y-60451996D01*
X125129486Y-60420001D01*
X125206728Y-60388006D01*
X125435536Y-60235121D01*
X125630121Y-60040536D01*
X125783006Y-59811728D01*
X125888315Y-59557491D01*
X125942001Y-59287593D01*
X125942001Y-59012409D01*
X125888315Y-58742511D01*
X125783006Y-58488274D01*
X125652528Y-58293000D01*
X127830199Y-58293000D01*
X139358202Y-69821004D01*
X139382000Y-69850002D01*
X139410998Y-69873800D01*
X139497724Y-69944975D01*
X139629754Y-70015547D01*
X139773015Y-70059004D01*
X139884668Y-70070001D01*
X139884678Y-70070001D01*
X139922001Y-70073677D01*
X139959324Y-70070001D01*
X151312660Y-70070001D01*
X151399881Y-70200536D01*
X151594466Y-70395121D01*
X151823274Y-70548006D01*
X151900516Y-70580001D01*
X151823274Y-70611996D01*
X151594466Y-70764881D01*
X151399881Y-70959466D01*
X151246996Y-71188274D01*
X151141687Y-71442511D01*
X151088001Y-71712409D01*
X151088001Y-71987593D01*
X151141687Y-72257491D01*
X151246996Y-72511728D01*
X151399881Y-72740536D01*
X151594466Y-72935121D01*
X151823274Y-73088006D01*
X151900516Y-73120001D01*
X151823274Y-73151996D01*
X151594466Y-73304881D01*
X151399881Y-73499466D01*
X151246996Y-73728274D01*
X151141687Y-73982511D01*
X151088001Y-74252409D01*
X151088001Y-74527593D01*
X151141687Y-74797491D01*
X151246996Y-75051728D01*
X151399881Y-75280536D01*
X151594466Y-75475121D01*
X151823274Y-75628006D01*
X151900516Y-75660001D01*
X151823274Y-75691996D01*
X151594466Y-75844881D01*
X151399881Y-76039466D01*
X151246996Y-76268274D01*
X151141687Y-76522511D01*
X151088001Y-76792409D01*
X151088001Y-77067593D01*
X151141687Y-77337491D01*
X151246996Y-77591728D01*
X151399881Y-77820536D01*
X151594466Y-78015121D01*
X151823274Y-78168006D01*
X151900516Y-78200001D01*
X151823274Y-78231996D01*
X151594466Y-78384881D01*
X151399881Y-78579466D01*
X151246996Y-78808274D01*
X151141687Y-79062511D01*
X151088001Y-79332409D01*
X151088001Y-79607593D01*
X151141687Y-79877491D01*
X151246996Y-80131728D01*
X151399881Y-80360536D01*
X151594466Y-80555121D01*
X151823274Y-80708006D01*
X151900516Y-80740001D01*
X151823274Y-80771996D01*
X151594466Y-80924881D01*
X151399881Y-81119466D01*
X151246996Y-81348274D01*
X151141687Y-81602511D01*
X151088001Y-81872409D01*
X151088001Y-82147593D01*
X151141687Y-82417491D01*
X151246996Y-82671728D01*
X151399881Y-82900536D01*
X151594466Y-83095121D01*
X151823274Y-83248006D01*
X151900516Y-83280001D01*
X151823274Y-83311996D01*
X151594466Y-83464881D01*
X151399881Y-83659466D01*
X151246996Y-83888274D01*
X151141687Y-84142511D01*
X151088001Y-84412409D01*
X151088001Y-84687593D01*
X151141687Y-84957491D01*
X151246996Y-85211728D01*
X151399881Y-85440536D01*
X151594466Y-85635121D01*
X151823274Y-85788006D01*
X151900516Y-85820001D01*
X151823274Y-85851996D01*
X151594466Y-86004881D01*
X151399881Y-86199466D01*
X151246996Y-86428274D01*
X151141687Y-86682511D01*
X151088001Y-86952409D01*
X151088001Y-87227593D01*
X151141687Y-87497491D01*
X151246996Y-87751728D01*
X151399881Y-87980536D01*
X151594466Y-88175121D01*
X151823274Y-88328006D01*
X151900516Y-88360001D01*
X151823274Y-88391996D01*
X151594466Y-88544881D01*
X151399881Y-88739466D01*
X151246996Y-88968274D01*
X151141687Y-89222511D01*
X151088001Y-89492409D01*
X151088001Y-89767593D01*
X151141687Y-90037491D01*
X151246996Y-90291728D01*
X151399881Y-90520536D01*
X151594466Y-90715121D01*
X151823274Y-90868006D01*
X151900516Y-90900001D01*
X151823274Y-90931996D01*
X151594466Y-91084881D01*
X151399881Y-91279466D01*
X151246996Y-91508274D01*
X151141687Y-91762511D01*
X151088001Y-92032409D01*
X151088001Y-92307593D01*
X151141687Y-92577491D01*
X151246996Y-92831728D01*
X151399881Y-93060536D01*
X151594466Y-93255121D01*
X151823274Y-93408006D01*
X151900516Y-93440001D01*
X151823274Y-93471996D01*
X151594466Y-93624881D01*
X151399881Y-93819466D01*
X151246996Y-94048274D01*
X151141687Y-94302511D01*
X151088001Y-94572409D01*
X151088001Y-94847593D01*
X151141687Y-95117491D01*
X151246996Y-95371728D01*
X151399881Y-95600536D01*
X151594466Y-95795121D01*
X151823274Y-95948006D01*
X152077511Y-96053315D01*
X152347409Y-96107001D01*
X152622593Y-96107001D01*
X152892491Y-96053315D01*
X153146728Y-95948006D01*
X153375536Y-95795121D01*
X153570121Y-95600536D01*
X153657342Y-95470001D01*
X153831200Y-95470001D01*
X154180000Y-95818802D01*
X154180001Y-97879668D01*
X154176324Y-97917000D01*
X154190998Y-98065985D01*
X154234454Y-98209246D01*
X154305026Y-98341276D01*
X154346962Y-98392374D01*
X154400000Y-98457001D01*
X154428998Y-98480799D01*
X155900205Y-99952008D01*
X155923999Y-99981001D01*
X155952992Y-100004795D01*
X155952996Y-100004799D01*
X156023685Y-100062811D01*
X156039724Y-100075974D01*
X156171753Y-100146546D01*
X156315014Y-100190003D01*
X156426667Y-100201000D01*
X156426676Y-100201000D01*
X156463999Y-100204676D01*
X156501322Y-100201000D01*
X180880868Y-100201000D01*
X180888820Y-100220199D01*
X181068845Y-100489626D01*
X181297974Y-100718755D01*
X181567401Y-100898780D01*
X181866771Y-101022783D01*
X182184582Y-101086000D01*
X182508618Y-101086000D01*
X182826429Y-101022783D01*
X183125799Y-100898780D01*
X183395226Y-100718755D01*
X183624355Y-100489626D01*
X183804380Y-100220199D01*
X183928383Y-99920829D01*
X183991600Y-99603018D01*
X183991600Y-99278982D01*
X183928383Y-98961171D01*
X183804380Y-98661801D01*
X183624355Y-98392374D01*
X183402981Y-98171000D01*
X183624355Y-97949626D01*
X183804380Y-97680199D01*
X183928383Y-97380829D01*
X183991600Y-97063018D01*
X183991600Y-96738982D01*
X183928383Y-96421171D01*
X183804380Y-96121801D01*
X183624355Y-95852374D01*
X183395226Y-95623245D01*
X183125799Y-95443220D01*
X182826429Y-95319217D01*
X182508618Y-95256000D01*
X182184582Y-95256000D01*
X181866771Y-95319217D01*
X181567401Y-95443220D01*
X181297974Y-95623245D01*
X181068845Y-95852374D01*
X180888820Y-96121801D01*
X180764817Y-96421171D01*
X180701600Y-96738982D01*
X180701600Y-97063018D01*
X180764817Y-97380829D01*
X180888820Y-97680199D01*
X181068845Y-97949626D01*
X181290219Y-98171000D01*
X181068845Y-98392374D01*
X180888820Y-98661801D01*
X180880868Y-98681000D01*
X156778803Y-98681000D01*
X155700000Y-97602199D01*
X155700000Y-95541322D01*
X155703676Y-95503999D01*
X155700000Y-95466676D01*
X155700000Y-95466667D01*
X155689003Y-95355014D01*
X155645546Y-95211753D01*
X155604133Y-95134276D01*
X155574974Y-95079723D01*
X155503799Y-94992997D01*
X155480001Y-94963999D01*
X155451004Y-94940202D01*
X154709804Y-94199003D01*
X154686002Y-94170000D01*
X154628733Y-94123000D01*
X157365928Y-94123000D01*
X157365928Y-96123000D01*
X157378188Y-96247482D01*
X157414498Y-96367180D01*
X157473463Y-96477494D01*
X157552815Y-96574185D01*
X157649506Y-96653537D01*
X157759820Y-96712502D01*
X157879518Y-96748812D01*
X158004000Y-96761072D01*
X160004000Y-96761072D01*
X160128482Y-96748812D01*
X160248180Y-96712502D01*
X160358494Y-96653537D01*
X160455185Y-96574185D01*
X160534537Y-96477494D01*
X160593502Y-96367180D01*
X160629812Y-96247482D01*
X160642072Y-96123000D01*
X160642072Y-94123000D01*
X160629812Y-93998518D01*
X160593502Y-93878820D01*
X160534537Y-93768506D01*
X160455185Y-93671815D01*
X160358494Y-93592463D01*
X160248180Y-93533498D01*
X160128482Y-93497188D01*
X160004000Y-93484928D01*
X158004000Y-93484928D01*
X157879518Y-93497188D01*
X157759820Y-93533498D01*
X157649506Y-93592463D01*
X157552815Y-93671815D01*
X157473463Y-93768506D01*
X157414498Y-93878820D01*
X157378188Y-93998518D01*
X157365928Y-94123000D01*
X154628733Y-94123000D01*
X154570277Y-94075027D01*
X154438248Y-94004455D01*
X154294987Y-93960998D01*
X154183334Y-93950001D01*
X154183323Y-93950001D01*
X154146001Y-93946325D01*
X154108679Y-93950001D01*
X153657342Y-93950001D01*
X153570121Y-93819466D01*
X153375536Y-93624881D01*
X153146728Y-93471996D01*
X153069486Y-93440001D01*
X153146728Y-93408006D01*
X153375536Y-93255121D01*
X153570121Y-93060536D01*
X153723006Y-92831728D01*
X153828315Y-92577491D01*
X153882001Y-92307593D01*
X153882001Y-92032409D01*
X153828315Y-91762511D01*
X153723006Y-91508274D01*
X153570121Y-91279466D01*
X153375536Y-91084881D01*
X153146728Y-90931996D01*
X153069486Y-90900001D01*
X153146728Y-90868006D01*
X153375536Y-90715121D01*
X153570121Y-90520536D01*
X153723006Y-90291728D01*
X153828315Y-90037491D01*
X153882001Y-89767593D01*
X153882001Y-89492409D01*
X153828315Y-89222511D01*
X153723006Y-88968274D01*
X153570121Y-88739466D01*
X153375536Y-88544881D01*
X153146728Y-88391996D01*
X153069486Y-88360001D01*
X153146728Y-88328006D01*
X153375536Y-88175121D01*
X153570121Y-87980536D01*
X153723006Y-87751728D01*
X153828315Y-87497491D01*
X153882001Y-87227593D01*
X153882001Y-86952409D01*
X153828315Y-86682511D01*
X153723006Y-86428274D01*
X153570121Y-86199466D01*
X153375536Y-86004881D01*
X153146728Y-85851996D01*
X153069486Y-85820001D01*
X153146728Y-85788006D01*
X153375536Y-85635121D01*
X153570121Y-85440536D01*
X153723006Y-85211728D01*
X153828315Y-84957491D01*
X153882001Y-84687593D01*
X153882001Y-84412409D01*
X153828315Y-84142511D01*
X153723006Y-83888274D01*
X153570121Y-83659466D01*
X153375536Y-83464881D01*
X153146728Y-83311996D01*
X153069486Y-83280001D01*
X153146728Y-83248006D01*
X153375536Y-83095121D01*
X153570121Y-82900536D01*
X153723006Y-82671728D01*
X153828315Y-82417491D01*
X153882001Y-82147593D01*
X153882001Y-81872409D01*
X153828315Y-81602511D01*
X153723006Y-81348274D01*
X153570121Y-81119466D01*
X153375536Y-80924881D01*
X153146728Y-80771996D01*
X153069486Y-80740001D01*
X153146728Y-80708006D01*
X153375536Y-80555121D01*
X153570121Y-80360536D01*
X153657342Y-80230001D01*
X154339200Y-80230001D01*
X155704000Y-81594802D01*
X155704001Y-87432668D01*
X155700324Y-87470000D01*
X155704001Y-87507333D01*
X155713615Y-87604939D01*
X155714998Y-87618985D01*
X155758454Y-87762246D01*
X155829026Y-87894276D01*
X155851981Y-87922246D01*
X155924000Y-88010001D01*
X155952998Y-88033799D01*
X157437823Y-89518625D01*
X157431832Y-89533088D01*
X157369000Y-89848967D01*
X157369000Y-90171033D01*
X157431832Y-90486912D01*
X157555082Y-90784463D01*
X157734013Y-91052252D01*
X157961748Y-91279987D01*
X158229537Y-91458918D01*
X158527088Y-91582168D01*
X158842967Y-91645000D01*
X159165033Y-91645000D01*
X159480912Y-91582168D01*
X159778463Y-91458918D01*
X160046252Y-91279987D01*
X160273987Y-91052252D01*
X160452918Y-90784463D01*
X160576168Y-90486912D01*
X160639000Y-90171033D01*
X160639000Y-89848967D01*
X160576168Y-89533088D01*
X160452918Y-89235537D01*
X160273987Y-88967748D01*
X160046252Y-88740013D01*
X159778463Y-88561082D01*
X159480912Y-88437832D01*
X159165033Y-88375000D01*
X158842967Y-88375000D01*
X158527088Y-88437832D01*
X158512625Y-88443823D01*
X157224000Y-87155199D01*
X157224000Y-81317322D01*
X157227676Y-81279999D01*
X157224000Y-81242676D01*
X157224000Y-81242667D01*
X157213003Y-81131014D01*
X157169546Y-80987753D01*
X157135940Y-80924881D01*
X157098974Y-80855723D01*
X157027799Y-80768997D01*
X157004001Y-80739999D01*
X156975004Y-80716202D01*
X155217805Y-78959004D01*
X155194002Y-78930000D01*
X155078277Y-78835027D01*
X154946248Y-78764455D01*
X154802987Y-78720998D01*
X154691334Y-78710001D01*
X154691323Y-78710001D01*
X154654001Y-78706325D01*
X154616679Y-78710001D01*
X153657342Y-78710001D01*
X153570121Y-78579466D01*
X153375536Y-78384881D01*
X153146728Y-78231996D01*
X153069486Y-78200001D01*
X153146728Y-78168006D01*
X153375536Y-78015121D01*
X153570121Y-77820536D01*
X153657342Y-77690001D01*
X154934677Y-77690001D01*
X154971999Y-77693677D01*
X155009321Y-77690001D01*
X155009332Y-77690001D01*
X155120985Y-77679004D01*
X155264246Y-77635547D01*
X155396275Y-77564975D01*
X155512000Y-77470002D01*
X155535803Y-77440998D01*
X156684802Y-76292000D01*
X157549091Y-76292000D01*
X157555082Y-76306463D01*
X157734013Y-76574252D01*
X157961748Y-76801987D01*
X158229537Y-76980918D01*
X158527088Y-77104168D01*
X158842967Y-77167000D01*
X159165033Y-77167000D01*
X159480912Y-77104168D01*
X159778463Y-76980918D01*
X160046252Y-76801987D01*
X160273987Y-76574252D01*
X160452918Y-76306463D01*
X160576168Y-76008912D01*
X160639000Y-75693033D01*
X160639000Y-75370967D01*
X160576168Y-75055088D01*
X160452918Y-74757537D01*
X160273987Y-74489748D01*
X160046252Y-74262013D01*
X159778463Y-74083082D01*
X159480912Y-73959832D01*
X159165033Y-73897000D01*
X158842967Y-73897000D01*
X158527088Y-73959832D01*
X158229537Y-74083082D01*
X157961748Y-74262013D01*
X157734013Y-74489748D01*
X157555082Y-74757537D01*
X157549091Y-74772000D01*
X156407323Y-74772000D01*
X156370000Y-74768324D01*
X156332677Y-74772000D01*
X156332667Y-74772000D01*
X156221014Y-74782997D01*
X156077753Y-74826454D01*
X155945723Y-74897026D01*
X155866552Y-74962001D01*
X155829999Y-74991999D01*
X155806201Y-75020997D01*
X154657198Y-76170001D01*
X153657342Y-76170001D01*
X153570121Y-76039466D01*
X153375536Y-75844881D01*
X153146728Y-75691996D01*
X153069486Y-75660001D01*
X153146728Y-75628006D01*
X153375536Y-75475121D01*
X153570121Y-75280536D01*
X153723006Y-75051728D01*
X153828315Y-74797491D01*
X153882001Y-74527593D01*
X153882001Y-74252409D01*
X153828315Y-73982511D01*
X153723006Y-73728274D01*
X153570121Y-73499466D01*
X153375536Y-73304881D01*
X153146728Y-73151996D01*
X153069486Y-73120001D01*
X153146728Y-73088006D01*
X153375536Y-72935121D01*
X153570121Y-72740536D01*
X153723006Y-72511728D01*
X153828315Y-72257491D01*
X153882001Y-71987593D01*
X153882001Y-71712409D01*
X153828315Y-71442511D01*
X153723006Y-71188274D01*
X153570121Y-70959466D01*
X153375536Y-70764881D01*
X153146728Y-70611996D01*
X153069486Y-70580001D01*
X153146728Y-70548006D01*
X153375536Y-70395121D01*
X153570121Y-70200536D01*
X153723006Y-69971728D01*
X153828315Y-69717491D01*
X153882001Y-69447593D01*
X153882001Y-69172409D01*
X153828315Y-68902511D01*
X153723006Y-68648274D01*
X153570121Y-68419466D01*
X153375536Y-68224881D01*
X153146728Y-68071996D01*
X153069486Y-68040001D01*
X153146728Y-68008006D01*
X153375536Y-67855121D01*
X153570121Y-67660536D01*
X153723006Y-67431728D01*
X153828315Y-67177491D01*
X153882001Y-66907593D01*
X153882001Y-66632409D01*
X153828315Y-66362511D01*
X153723006Y-66108274D01*
X153570121Y-65879466D01*
X153375536Y-65684881D01*
X153146728Y-65531996D01*
X153069486Y-65500001D01*
X153146728Y-65468006D01*
X153375536Y-65315121D01*
X153570121Y-65120536D01*
X153723006Y-64891728D01*
X153828315Y-64637491D01*
X153882001Y-64367593D01*
X153882001Y-64092409D01*
X153851373Y-63938430D01*
X155815804Y-61974000D01*
X157549091Y-61974000D01*
X157555082Y-61988463D01*
X157734013Y-62256252D01*
X157961748Y-62483987D01*
X158229537Y-62662918D01*
X158527088Y-62786168D01*
X158842967Y-62849000D01*
X159165033Y-62849000D01*
X159480912Y-62786168D01*
X159778463Y-62662918D01*
X160046252Y-62483987D01*
X160273987Y-62256252D01*
X160452918Y-61988463D01*
X160576168Y-61690912D01*
X160639000Y-61375033D01*
X160639000Y-61052967D01*
X160576168Y-60737088D01*
X160452918Y-60439537D01*
X160273987Y-60171748D01*
X160046252Y-59944013D01*
X159778463Y-59765082D01*
X159480912Y-59641832D01*
X159165033Y-59579000D01*
X158842967Y-59579000D01*
X158527088Y-59641832D01*
X158229537Y-59765082D01*
X157961748Y-59944013D01*
X157734013Y-60171748D01*
X157555082Y-60439537D01*
X157549091Y-60454000D01*
X155538335Y-60454000D01*
X155501002Y-60450323D01*
X155463669Y-60454000D01*
X155352016Y-60464997D01*
X155208755Y-60508454D01*
X155076726Y-60579026D01*
X154961001Y-60673999D01*
X154937203Y-60702997D01*
X153882001Y-61758199D01*
X153882001Y-61552409D01*
X153828315Y-61282511D01*
X153723006Y-61028274D01*
X153570121Y-60799466D01*
X153375536Y-60604881D01*
X153146728Y-60451996D01*
X153069486Y-60420001D01*
X153146728Y-60388006D01*
X153375536Y-60235121D01*
X153570121Y-60040536D01*
X153723006Y-59811728D01*
X153828315Y-59557491D01*
X153882001Y-59287593D01*
X153882001Y-59012409D01*
X153828315Y-58742511D01*
X153723006Y-58488274D01*
X153592528Y-58293000D01*
X154686000Y-58293000D01*
X154710776Y-58290560D01*
X154734601Y-58283333D01*
X154756557Y-58271597D01*
X154775803Y-58255803D01*
X154791597Y-58236557D01*
X154803333Y-58214601D01*
X154810560Y-58190776D01*
X154813000Y-58166000D01*
X154813000Y-50214000D01*
X157365928Y-50214000D01*
X157365928Y-52214000D01*
X157378188Y-52338482D01*
X157414498Y-52458180D01*
X157473463Y-52568494D01*
X157552815Y-52665185D01*
X157649506Y-52744537D01*
X157759820Y-52803502D01*
X157879518Y-52839812D01*
X158004000Y-52852072D01*
X160004000Y-52852072D01*
X160128482Y-52839812D01*
X160248180Y-52803502D01*
X160358494Y-52744537D01*
X160455185Y-52665185D01*
X160534537Y-52568494D01*
X160593502Y-52458180D01*
X160629812Y-52338482D01*
X160642072Y-52214000D01*
X160642072Y-51974000D01*
X162799928Y-51974000D01*
X162799928Y-53478000D01*
X162812188Y-53602482D01*
X162848498Y-53722180D01*
X162907463Y-53832494D01*
X162986815Y-53929185D01*
X163083506Y-54008537D01*
X163193820Y-54067502D01*
X163313518Y-54103812D01*
X163438000Y-54116072D01*
X163578000Y-54116072D01*
X163578001Y-56327197D01*
X162375886Y-57529312D01*
X162193335Y-57493000D01*
X161910665Y-57493000D01*
X161633426Y-57548147D01*
X161372273Y-57656320D01*
X161137241Y-57813363D01*
X160937363Y-58013241D01*
X160780320Y-58248273D01*
X160672147Y-58509426D01*
X160617000Y-58786665D01*
X160617000Y-59069335D01*
X160672147Y-59346574D01*
X160780320Y-59607727D01*
X160937363Y-59842759D01*
X161137241Y-60042637D01*
X161372273Y-60199680D01*
X161633426Y-60307853D01*
X161910665Y-60363000D01*
X162193335Y-60363000D01*
X162470574Y-60307853D01*
X162731727Y-60199680D01*
X162966759Y-60042637D01*
X163166637Y-59842759D01*
X163323680Y-59607727D01*
X163431853Y-59346574D01*
X163487000Y-59069335D01*
X163487000Y-58786665D01*
X163450688Y-58604114D01*
X164849003Y-57205799D01*
X164878001Y-57182001D01*
X164972974Y-57066276D01*
X165043546Y-56934247D01*
X165087003Y-56790986D01*
X165098000Y-56679333D01*
X165098000Y-56679324D01*
X165101676Y-56642001D01*
X165098000Y-56604678D01*
X165098000Y-54116072D01*
X165238000Y-54116072D01*
X165362482Y-54103812D01*
X165482180Y-54067502D01*
X165592494Y-54008537D01*
X165689185Y-53929185D01*
X165768537Y-53832494D01*
X165827502Y-53722180D01*
X165833056Y-53703873D01*
X165899495Y-53770312D01*
X166150905Y-53938299D01*
X166430257Y-54054011D01*
X166726816Y-54113000D01*
X167029184Y-54113000D01*
X167325743Y-54054011D01*
X167605095Y-53938299D01*
X167856505Y-53770312D01*
X168070312Y-53556505D01*
X168148000Y-53440237D01*
X168225688Y-53556505D01*
X168439495Y-53770312D01*
X168690905Y-53938299D01*
X168970257Y-54054011D01*
X169266816Y-54113000D01*
X169569184Y-54113000D01*
X169865743Y-54054011D01*
X170145095Y-53938299D01*
X170396505Y-53770312D01*
X170610312Y-53556505D01*
X170778299Y-53305095D01*
X170894011Y-53025743D01*
X170953000Y-52729184D01*
X170953000Y-52426816D01*
X170894011Y-52130257D01*
X170778299Y-51850905D01*
X170610312Y-51599495D01*
X170396505Y-51385688D01*
X170145095Y-51217701D01*
X169865743Y-51101989D01*
X169569184Y-51043000D01*
X169266816Y-51043000D01*
X168970257Y-51101989D01*
X168690905Y-51217701D01*
X168439495Y-51385688D01*
X168225688Y-51599495D01*
X168148000Y-51715763D01*
X168117789Y-51670550D01*
X168869340Y-50919000D01*
X177374002Y-50919000D01*
X177502948Y-50931700D01*
X177502949Y-50931700D01*
X177558700Y-50937191D01*
X177614452Y-50931700D01*
X183194150Y-50931700D01*
X183309150Y-51046700D01*
X183194150Y-51161700D01*
X175089052Y-51161700D01*
X175033300Y-51156209D01*
X174977548Y-51161700D01*
X174810801Y-51178123D01*
X174596853Y-51243024D01*
X174399677Y-51348416D01*
X174226851Y-51490251D01*
X174191308Y-51533560D01*
X173734860Y-51990009D01*
X173691552Y-52025551D01*
X173549717Y-52198377D01*
X173520258Y-52253491D01*
X173444324Y-52395554D01*
X173379423Y-52609502D01*
X173357509Y-52832000D01*
X173363001Y-52887761D01*
X173363000Y-58067663D01*
X173326637Y-58013241D01*
X173126759Y-57813363D01*
X172891727Y-57656320D01*
X172630574Y-57548147D01*
X172353335Y-57493000D01*
X172070665Y-57493000D01*
X171793426Y-57548147D01*
X171532273Y-57656320D01*
X171297241Y-57813363D01*
X171097363Y-58013241D01*
X170940320Y-58248273D01*
X170832147Y-58509426D01*
X170777000Y-58786665D01*
X170777000Y-59069335D01*
X170832147Y-59346574D01*
X170940320Y-59607727D01*
X171097363Y-59842759D01*
X171297241Y-60042637D01*
X171532273Y-60199680D01*
X171793426Y-60307853D01*
X172070665Y-60363000D01*
X172353335Y-60363000D01*
X172630574Y-60307853D01*
X172891727Y-60199680D01*
X173126759Y-60042637D01*
X173326637Y-59842759D01*
X173363000Y-59788337D01*
X173363000Y-61505868D01*
X172503869Y-62365000D01*
X168203743Y-62365000D01*
X168147999Y-62359510D01*
X168092255Y-62365000D01*
X168092248Y-62365000D01*
X167946493Y-62379356D01*
X167925500Y-62381423D01*
X167875705Y-62396529D01*
X167711553Y-62446324D01*
X167514377Y-62551716D01*
X167341551Y-62693551D01*
X167306011Y-62736857D01*
X166114860Y-63928009D01*
X166071552Y-63963551D01*
X165929717Y-64136377D01*
X165906582Y-64179660D01*
X165824324Y-64333554D01*
X165759423Y-64547502D01*
X165737509Y-64770000D01*
X165743001Y-64825761D01*
X165743001Y-65770390D01*
X165689185Y-65704815D01*
X165592494Y-65625463D01*
X165482180Y-65566498D01*
X165362482Y-65530188D01*
X165238000Y-65517928D01*
X164992326Y-65517928D01*
X164972974Y-65481724D01*
X164878001Y-65365999D01*
X164848998Y-65342197D01*
X164527804Y-65021003D01*
X164504001Y-64991999D01*
X164388276Y-64897026D01*
X164256247Y-64826454D01*
X164112986Y-64782997D01*
X164001333Y-64772000D01*
X164001322Y-64772000D01*
X163964000Y-64768324D01*
X163926678Y-64772000D01*
X160642072Y-64772000D01*
X160642072Y-64532000D01*
X160629812Y-64407518D01*
X160593502Y-64287820D01*
X160534537Y-64177506D01*
X160455185Y-64080815D01*
X160358494Y-64001463D01*
X160248180Y-63942498D01*
X160128482Y-63906188D01*
X160004000Y-63893928D01*
X158004000Y-63893928D01*
X157879518Y-63906188D01*
X157759820Y-63942498D01*
X157649506Y-64001463D01*
X157552815Y-64080815D01*
X157473463Y-64177506D01*
X157414498Y-64287820D01*
X157378188Y-64407518D01*
X157365928Y-64532000D01*
X157365928Y-66532000D01*
X157378188Y-66656482D01*
X157414498Y-66776180D01*
X157473463Y-66886494D01*
X157552815Y-66983185D01*
X157649506Y-67062537D01*
X157759820Y-67121502D01*
X157879518Y-67157812D01*
X158004000Y-67170072D01*
X160004000Y-67170072D01*
X160128482Y-67157812D01*
X160248180Y-67121502D01*
X160358494Y-67062537D01*
X160455185Y-66983185D01*
X160534537Y-66886494D01*
X160593502Y-66776180D01*
X160629812Y-66656482D01*
X160642072Y-66532000D01*
X160642072Y-66292000D01*
X162799928Y-66292000D01*
X162799928Y-67956000D01*
X162812188Y-68080482D01*
X162848498Y-68200180D01*
X162907463Y-68310494D01*
X162986815Y-68407185D01*
X163083506Y-68486537D01*
X163193820Y-68545502D01*
X163313518Y-68581812D01*
X163438000Y-68594072D01*
X163578000Y-68594072D01*
X163578001Y-70551197D01*
X162375886Y-71753312D01*
X162193335Y-71717000D01*
X161910665Y-71717000D01*
X161633426Y-71772147D01*
X161372273Y-71880320D01*
X161137241Y-72037363D01*
X160937363Y-72237241D01*
X160780320Y-72472273D01*
X160672147Y-72733426D01*
X160617000Y-73010665D01*
X160617000Y-73293335D01*
X160672147Y-73570574D01*
X160780320Y-73831727D01*
X160937363Y-74066759D01*
X161137241Y-74266637D01*
X161372273Y-74423680D01*
X161633426Y-74531853D01*
X161910665Y-74587000D01*
X162193335Y-74587000D01*
X162470574Y-74531853D01*
X162731727Y-74423680D01*
X162966759Y-74266637D01*
X163166637Y-74066759D01*
X163323680Y-73831727D01*
X163431853Y-73570574D01*
X163487000Y-73293335D01*
X163487000Y-73010665D01*
X170777000Y-73010665D01*
X170777000Y-73293335D01*
X170832147Y-73570574D01*
X170940320Y-73831727D01*
X171097363Y-74066759D01*
X171297241Y-74266637D01*
X171532273Y-74423680D01*
X171793426Y-74531853D01*
X172070665Y-74587000D01*
X172353335Y-74587000D01*
X172630574Y-74531853D01*
X172891727Y-74423680D01*
X173126759Y-74266637D01*
X173326637Y-74066759D01*
X173483680Y-73831727D01*
X173591853Y-73570574D01*
X173647000Y-73293335D01*
X173647000Y-73010665D01*
X173591853Y-72733426D01*
X173483680Y-72472273D01*
X173326637Y-72237241D01*
X173126759Y-72037363D01*
X172891727Y-71880320D01*
X172630574Y-71772147D01*
X172353335Y-71717000D01*
X172070665Y-71717000D01*
X171793426Y-71772147D01*
X171532273Y-71880320D01*
X171297241Y-72037363D01*
X171097363Y-72237241D01*
X170940320Y-72472273D01*
X170832147Y-72733426D01*
X170777000Y-73010665D01*
X163487000Y-73010665D01*
X163450688Y-72828114D01*
X164849003Y-71429799D01*
X164878001Y-71406001D01*
X164972974Y-71290276D01*
X165043546Y-71158247D01*
X165087003Y-71014986D01*
X165098000Y-70903333D01*
X165098000Y-70903324D01*
X165101676Y-70866001D01*
X165098000Y-70828678D01*
X165098000Y-68594072D01*
X165238000Y-68594072D01*
X165362482Y-68581812D01*
X165482180Y-68545502D01*
X165592494Y-68486537D01*
X165689185Y-68407185D01*
X165768537Y-68310494D01*
X165827502Y-68200180D01*
X165833056Y-68181873D01*
X165899495Y-68248312D01*
X166150905Y-68416299D01*
X166430257Y-68532011D01*
X166726816Y-68591000D01*
X167029184Y-68591000D01*
X167325743Y-68532011D01*
X167605095Y-68416299D01*
X167856505Y-68248312D01*
X168070312Y-68034505D01*
X168148000Y-67918237D01*
X168225688Y-68034505D01*
X168439495Y-68248312D01*
X168690905Y-68416299D01*
X168970257Y-68532011D01*
X169266816Y-68591000D01*
X169569184Y-68591000D01*
X169865743Y-68532011D01*
X170145095Y-68416299D01*
X170396505Y-68248312D01*
X170610312Y-68034505D01*
X170778299Y-67783095D01*
X170894011Y-67503743D01*
X170953000Y-67207184D01*
X170953000Y-66904816D01*
X170894011Y-66608257D01*
X170778299Y-66328905D01*
X170610312Y-66077495D01*
X170396505Y-65863688D01*
X170145095Y-65695701D01*
X169865743Y-65579989D01*
X169569184Y-65521000D01*
X169266816Y-65521000D01*
X168970257Y-65579989D01*
X168690905Y-65695701D01*
X168439495Y-65863688D01*
X168225688Y-66077495D01*
X168148000Y-66193763D01*
X168070312Y-66077495D01*
X168013000Y-66020183D01*
X168013000Y-65240131D01*
X168618132Y-64635000D01*
X172918249Y-64635000D01*
X172974000Y-64640491D01*
X173029751Y-64635000D01*
X173029752Y-64635000D01*
X173196499Y-64618577D01*
X173410447Y-64553676D01*
X173607623Y-64448284D01*
X173780449Y-64306449D01*
X173815996Y-64263135D01*
X175261140Y-62817991D01*
X175304449Y-62782449D01*
X175395001Y-62672112D01*
X175395000Y-76491868D01*
X175043869Y-76843000D01*
X167949751Y-76843000D01*
X167894000Y-76837509D01*
X167838248Y-76843000D01*
X167671501Y-76859423D01*
X167457553Y-76924324D01*
X167260377Y-77029716D01*
X167087551Y-77171551D01*
X167052011Y-77214857D01*
X166114860Y-78152009D01*
X166071552Y-78187551D01*
X165929717Y-78360377D01*
X165900817Y-78414446D01*
X165824324Y-78557554D01*
X165759423Y-78771502D01*
X165737509Y-78994000D01*
X165743001Y-79049761D01*
X165743001Y-80248390D01*
X165689185Y-80182815D01*
X165592494Y-80103463D01*
X165482180Y-80044498D01*
X165362482Y-80008188D01*
X165238000Y-79995928D01*
X164992326Y-79995928D01*
X164972974Y-79959724D01*
X164878001Y-79843999D01*
X164848998Y-79820197D01*
X164527804Y-79499003D01*
X164504001Y-79469999D01*
X164388276Y-79375026D01*
X164256247Y-79304454D01*
X164112986Y-79260997D01*
X164001333Y-79250000D01*
X164001322Y-79250000D01*
X163964000Y-79246324D01*
X163926678Y-79250000D01*
X160642072Y-79250000D01*
X160642072Y-79010000D01*
X160629812Y-78885518D01*
X160593502Y-78765820D01*
X160534537Y-78655506D01*
X160455185Y-78558815D01*
X160358494Y-78479463D01*
X160248180Y-78420498D01*
X160128482Y-78384188D01*
X160004000Y-78371928D01*
X158004000Y-78371928D01*
X157879518Y-78384188D01*
X157759820Y-78420498D01*
X157649506Y-78479463D01*
X157552815Y-78558815D01*
X157473463Y-78655506D01*
X157414498Y-78765820D01*
X157378188Y-78885518D01*
X157365928Y-79010000D01*
X157365928Y-81010000D01*
X157378188Y-81134482D01*
X157414498Y-81254180D01*
X157473463Y-81364494D01*
X157552815Y-81461185D01*
X157649506Y-81540537D01*
X157759820Y-81599502D01*
X157879518Y-81635812D01*
X158004000Y-81648072D01*
X160004000Y-81648072D01*
X160128482Y-81635812D01*
X160248180Y-81599502D01*
X160358494Y-81540537D01*
X160455185Y-81461185D01*
X160534537Y-81364494D01*
X160593502Y-81254180D01*
X160629812Y-81134482D01*
X160642072Y-81010000D01*
X160642072Y-80770000D01*
X162799928Y-80770000D01*
X162799928Y-82434000D01*
X162812188Y-82558482D01*
X162848498Y-82678180D01*
X162907463Y-82788494D01*
X162986815Y-82885185D01*
X163083506Y-82964537D01*
X163193820Y-83023502D01*
X163313518Y-83059812D01*
X163438000Y-83072072D01*
X163578000Y-83072072D01*
X163578001Y-85029197D01*
X162375886Y-86231312D01*
X162193335Y-86195000D01*
X161910665Y-86195000D01*
X161633426Y-86250147D01*
X161372273Y-86358320D01*
X161137241Y-86515363D01*
X160937363Y-86715241D01*
X160780320Y-86950273D01*
X160672147Y-87211426D01*
X160617000Y-87488665D01*
X160617000Y-87771335D01*
X160672147Y-88048574D01*
X160780320Y-88309727D01*
X160937363Y-88544759D01*
X161137241Y-88744637D01*
X161372273Y-88901680D01*
X161633426Y-89009853D01*
X161910665Y-89065000D01*
X162193335Y-89065000D01*
X162470574Y-89009853D01*
X162731727Y-88901680D01*
X162966759Y-88744637D01*
X163166637Y-88544759D01*
X163323680Y-88309727D01*
X163431853Y-88048574D01*
X163487000Y-87771335D01*
X163487000Y-87488665D01*
X170777000Y-87488665D01*
X170777000Y-87771335D01*
X170832147Y-88048574D01*
X170940320Y-88309727D01*
X171097363Y-88544759D01*
X171297241Y-88744637D01*
X171532273Y-88901680D01*
X171793426Y-89009853D01*
X172070665Y-89065000D01*
X172353335Y-89065000D01*
X172630574Y-89009853D01*
X172891727Y-88901680D01*
X173126759Y-88744637D01*
X173326637Y-88544759D01*
X173483680Y-88309727D01*
X173591853Y-88048574D01*
X173647000Y-87771335D01*
X173647000Y-87488665D01*
X173591853Y-87211426D01*
X173483680Y-86950273D01*
X173326637Y-86715241D01*
X173126759Y-86515363D01*
X172891727Y-86358320D01*
X172630574Y-86250147D01*
X172353335Y-86195000D01*
X172070665Y-86195000D01*
X171793426Y-86250147D01*
X171532273Y-86358320D01*
X171297241Y-86515363D01*
X171097363Y-86715241D01*
X170940320Y-86950273D01*
X170832147Y-87211426D01*
X170777000Y-87488665D01*
X163487000Y-87488665D01*
X163450688Y-87306114D01*
X164849003Y-85907799D01*
X164878001Y-85884001D01*
X164972974Y-85768276D01*
X165043546Y-85636247D01*
X165087003Y-85492986D01*
X165098000Y-85381333D01*
X165098000Y-85381324D01*
X165101676Y-85344001D01*
X165098000Y-85306678D01*
X165098000Y-83072072D01*
X165238000Y-83072072D01*
X165362482Y-83059812D01*
X165482180Y-83023502D01*
X165592494Y-82964537D01*
X165689185Y-82885185D01*
X165768537Y-82788494D01*
X165827502Y-82678180D01*
X165833056Y-82659873D01*
X165899495Y-82726312D01*
X166150905Y-82894299D01*
X166430257Y-83010011D01*
X166726816Y-83069000D01*
X167029184Y-83069000D01*
X167325743Y-83010011D01*
X167605095Y-82894299D01*
X167856505Y-82726312D01*
X168070312Y-82512505D01*
X168148000Y-82396237D01*
X168225688Y-82512505D01*
X168439495Y-82726312D01*
X168690905Y-82894299D01*
X168970257Y-83010011D01*
X169266816Y-83069000D01*
X169569184Y-83069000D01*
X169865743Y-83010011D01*
X170145095Y-82894299D01*
X170396505Y-82726312D01*
X170610312Y-82512505D01*
X170778299Y-82261095D01*
X170894011Y-81981743D01*
X170953000Y-81685184D01*
X170953000Y-81382816D01*
X170894011Y-81086257D01*
X170778299Y-80806905D01*
X170610312Y-80555495D01*
X170396505Y-80341688D01*
X170145095Y-80173701D01*
X169865743Y-80057989D01*
X169569184Y-79999000D01*
X169266816Y-79999000D01*
X168970257Y-80057989D01*
X168690905Y-80173701D01*
X168439495Y-80341688D01*
X168225688Y-80555495D01*
X168148000Y-80671763D01*
X168070312Y-80555495D01*
X168013000Y-80498183D01*
X168013000Y-79464131D01*
X168364132Y-79113000D01*
X175458249Y-79113000D01*
X175514000Y-79118491D01*
X175569751Y-79113000D01*
X175569752Y-79113000D01*
X175736499Y-79096577D01*
X175950447Y-79031676D01*
X176147623Y-78926284D01*
X176320449Y-78784449D01*
X176355996Y-78741136D01*
X177293140Y-77803992D01*
X177336449Y-77768449D01*
X177478284Y-77595623D01*
X177583676Y-77398447D01*
X177648577Y-77184499D01*
X177665000Y-77017752D01*
X177665000Y-77017751D01*
X177670491Y-76962000D01*
X177665000Y-76906249D01*
X177665000Y-56604131D01*
X178337432Y-55931700D01*
X183194150Y-55931700D01*
X183309150Y-56046700D01*
X183194150Y-56161700D01*
X180249043Y-56161700D01*
X180193299Y-56156210D01*
X180137555Y-56161700D01*
X180137548Y-56161700D01*
X179991793Y-56176056D01*
X179970800Y-56178123D01*
X179921005Y-56193229D01*
X179756853Y-56243024D01*
X179559677Y-56348416D01*
X179386851Y-56490251D01*
X179351308Y-56533560D01*
X178179865Y-57705004D01*
X178136551Y-57740551D01*
X177994716Y-57913377D01*
X177893282Y-58103149D01*
X177889324Y-58110554D01*
X177824423Y-58324502D01*
X177802509Y-58547000D01*
X177808000Y-58602751D01*
X177808001Y-92747867D01*
X177075869Y-93480000D01*
X167692959Y-93480000D01*
X167637207Y-93474509D01*
X167414708Y-93496423D01*
X167364913Y-93511529D01*
X167200761Y-93561324D01*
X167003585Y-93666716D01*
X166830759Y-93808551D01*
X166795212Y-93851865D01*
X166241865Y-94405212D01*
X166198551Y-94440759D01*
X166056716Y-94613585D01*
X165981131Y-94754997D01*
X165951324Y-94810762D01*
X165886423Y-95024710D01*
X165866225Y-95229789D01*
X165816185Y-95168815D01*
X165719494Y-95089463D01*
X165609180Y-95030498D01*
X165489482Y-94994188D01*
X165365000Y-94981928D01*
X163565000Y-94981928D01*
X163440518Y-94994188D01*
X163320820Y-95030498D01*
X163210506Y-95089463D01*
X163113815Y-95168815D01*
X163034463Y-95265506D01*
X162975498Y-95375820D01*
X162939188Y-95495518D01*
X162926928Y-95620000D01*
X162926928Y-97420000D01*
X162939188Y-97544482D01*
X162975498Y-97664180D01*
X163034463Y-97774494D01*
X163113815Y-97871185D01*
X163210506Y-97950537D01*
X163320820Y-98009502D01*
X163440518Y-98045812D01*
X163565000Y-98058072D01*
X165365000Y-98058072D01*
X165489482Y-98045812D01*
X165609180Y-98009502D01*
X165719494Y-97950537D01*
X165816185Y-97871185D01*
X165895537Y-97774494D01*
X165954502Y-97664180D01*
X165960056Y-97645873D01*
X166026495Y-97712312D01*
X166277905Y-97880299D01*
X166557257Y-97996011D01*
X166853816Y-98055000D01*
X167156184Y-98055000D01*
X167452743Y-97996011D01*
X167732095Y-97880299D01*
X167983505Y-97712312D01*
X168197312Y-97498505D01*
X168275000Y-97382237D01*
X168352688Y-97498505D01*
X168566495Y-97712312D01*
X168817905Y-97880299D01*
X169097257Y-97996011D01*
X169393816Y-98055000D01*
X169696184Y-98055000D01*
X169992743Y-97996011D01*
X170272095Y-97880299D01*
X170523505Y-97712312D01*
X170737312Y-97498505D01*
X170905299Y-97247095D01*
X171021011Y-96967743D01*
X171080000Y-96671184D01*
X171080000Y-96368816D01*
X171021011Y-96072257D01*
X170905299Y-95792905D01*
X170876631Y-95750000D01*
X177490249Y-95750000D01*
X177546000Y-95755491D01*
X177601751Y-95750000D01*
X177601752Y-95750000D01*
X177768499Y-95733577D01*
X177982447Y-95668676D01*
X178179623Y-95563284D01*
X178352449Y-95421449D01*
X178387996Y-95378135D01*
X179706140Y-94059992D01*
X179749449Y-94024449D01*
X179891284Y-93851623D01*
X179996676Y-93654447D01*
X180061577Y-93440499D01*
X180078000Y-93273752D01*
X180078000Y-93273743D01*
X180083490Y-93218001D01*
X180078000Y-93162259D01*
X180078000Y-90388982D01*
X180688900Y-90388982D01*
X180688900Y-90713018D01*
X180752117Y-91030829D01*
X180876120Y-91330199D01*
X181056145Y-91599626D01*
X181277519Y-91821000D01*
X181056145Y-92042374D01*
X180876120Y-92311801D01*
X180752117Y-92611171D01*
X180688900Y-92928982D01*
X180688900Y-93253018D01*
X180752117Y-93570829D01*
X180876120Y-93870199D01*
X181056145Y-94139626D01*
X181285274Y-94368755D01*
X181554701Y-94548780D01*
X181854071Y-94672783D01*
X182171882Y-94736000D01*
X182495918Y-94736000D01*
X182813729Y-94672783D01*
X183113099Y-94548780D01*
X183382526Y-94368755D01*
X183611655Y-94139626D01*
X183791680Y-93870199D01*
X183915683Y-93570829D01*
X183978900Y-93253018D01*
X183978900Y-92928982D01*
X183915683Y-92611171D01*
X183791680Y-92311801D01*
X183611655Y-92042374D01*
X183390281Y-91821000D01*
X183611655Y-91599626D01*
X183791680Y-91330199D01*
X183915683Y-91030829D01*
X183978900Y-90713018D01*
X183978900Y-90388982D01*
X183915683Y-90071171D01*
X183791680Y-89771801D01*
X183611655Y-89502374D01*
X183382526Y-89273245D01*
X183113099Y-89093220D01*
X182813729Y-88969217D01*
X182495918Y-88906000D01*
X182171882Y-88906000D01*
X181854071Y-88969217D01*
X181554701Y-89093220D01*
X181285274Y-89273245D01*
X181056145Y-89502374D01*
X180876120Y-89771801D01*
X180752117Y-90071171D01*
X180688900Y-90388982D01*
X180078000Y-90388982D01*
X180078000Y-60967766D01*
X183450639Y-60967766D01*
X183552439Y-61237279D01*
X183850577Y-61383163D01*
X184171446Y-61468080D01*
X184502717Y-61488766D01*
X184831657Y-61444428D01*
X185145627Y-61336769D01*
X185331761Y-61237279D01*
X185433561Y-60967766D01*
X184442100Y-59976305D01*
X183450639Y-60967766D01*
X180078000Y-60967766D01*
X180078000Y-59857317D01*
X182750034Y-59857317D01*
X182794372Y-60186257D01*
X182902031Y-60500227D01*
X183001521Y-60686361D01*
X183271034Y-60788161D01*
X184262495Y-59796700D01*
X184621705Y-59796700D01*
X185613166Y-60788161D01*
X185882679Y-60686361D01*
X186028563Y-60388223D01*
X186113480Y-60067354D01*
X186134166Y-59736083D01*
X186089828Y-59407143D01*
X185982169Y-59093173D01*
X185882679Y-58907039D01*
X185613166Y-58805239D01*
X184621705Y-59796700D01*
X184262495Y-59796700D01*
X183271034Y-58805239D01*
X183001521Y-58907039D01*
X182855637Y-59205177D01*
X182770720Y-59526046D01*
X182750034Y-59857317D01*
X180078000Y-59857317D01*
X180078000Y-59017131D01*
X180663432Y-58431700D01*
X183194150Y-58431700D01*
X183367975Y-58605525D01*
X183556496Y-58731491D01*
X184442100Y-59617095D01*
X185327704Y-58731491D01*
X185516225Y-58605525D01*
X185750925Y-58370825D01*
X185935328Y-58094847D01*
X186062346Y-57788196D01*
X186127100Y-57462658D01*
X186127100Y-57130742D01*
X186062346Y-56805204D01*
X185935328Y-56498553D01*
X185750925Y-56222575D01*
X185575050Y-56046700D01*
X185750925Y-55870825D01*
X185935328Y-55594847D01*
X186062346Y-55288196D01*
X186127100Y-54962658D01*
X186127100Y-54630742D01*
X186062346Y-54305204D01*
X185935328Y-53998553D01*
X185750925Y-53722575D01*
X185575050Y-53546700D01*
X185750925Y-53370825D01*
X185935328Y-53094847D01*
X186062346Y-52788196D01*
X186127100Y-52462658D01*
X186127100Y-52130742D01*
X186062346Y-51805204D01*
X185935328Y-51498553D01*
X185750925Y-51222575D01*
X185575050Y-51046700D01*
X185750925Y-50870825D01*
X185935328Y-50594847D01*
X186062346Y-50288196D01*
X186127100Y-49962658D01*
X186127100Y-49630742D01*
X186062346Y-49305204D01*
X185935328Y-48998553D01*
X185750925Y-48722575D01*
X185516225Y-48487875D01*
X185240247Y-48303472D01*
X184933596Y-48176454D01*
X184608058Y-48111700D01*
X184276142Y-48111700D01*
X183950604Y-48176454D01*
X183643953Y-48303472D01*
X183367975Y-48487875D01*
X183194150Y-48661700D01*
X177730698Y-48661700D01*
X177601752Y-48649000D01*
X177601751Y-48649000D01*
X177546000Y-48643509D01*
X177490249Y-48649000D01*
X168454959Y-48649000D01*
X168399208Y-48643509D01*
X168343456Y-48649000D01*
X168176709Y-48665423D01*
X167962761Y-48730324D01*
X167765585Y-48835716D01*
X167592759Y-48977551D01*
X167557217Y-49020860D01*
X166114865Y-50463212D01*
X166071551Y-50498759D01*
X165929716Y-50671585D01*
X165824325Y-50868761D01*
X165824324Y-50868762D01*
X165759423Y-51082710D01*
X165739225Y-51287789D01*
X165689185Y-51226815D01*
X165592494Y-51147463D01*
X165482180Y-51088498D01*
X165362482Y-51052188D01*
X165238000Y-51039928D01*
X164992326Y-51039928D01*
X164972974Y-51003724D01*
X164878001Y-50887999D01*
X164848998Y-50864197D01*
X164687804Y-50703003D01*
X164664001Y-50673999D01*
X164548276Y-50579026D01*
X164416247Y-50508454D01*
X164272986Y-50464997D01*
X164161333Y-50454000D01*
X164161322Y-50454000D01*
X164124000Y-50450324D01*
X164086678Y-50454000D01*
X160642072Y-50454000D01*
X160642072Y-50214000D01*
X160629812Y-50089518D01*
X160593502Y-49969820D01*
X160534537Y-49859506D01*
X160455185Y-49762815D01*
X160358494Y-49683463D01*
X160248180Y-49624498D01*
X160128482Y-49588188D01*
X160004000Y-49575928D01*
X158004000Y-49575928D01*
X157879518Y-49588188D01*
X157759820Y-49624498D01*
X157649506Y-49683463D01*
X157552815Y-49762815D01*
X157473463Y-49859506D01*
X157414498Y-49969820D01*
X157378188Y-50089518D01*
X157365928Y-50214000D01*
X154813000Y-50214000D01*
X154813000Y-47675000D01*
X193691630Y-47675000D01*
X193371768Y-47807491D01*
G36*
X122301000Y-51945000D02*
G01*
X117952403Y-51945000D01*
X117915080Y-51941324D01*
X117877757Y-51945000D01*
X117877748Y-51945000D01*
X117766095Y-51955997D01*
X117622834Y-51999454D01*
X117490804Y-52070026D01*
X117417413Y-52130257D01*
X117375080Y-52164999D01*
X117351282Y-52193997D01*
X116457280Y-53088000D01*
X116323207Y-53088000D01*
X116215475Y-52926768D01*
X116083620Y-52794913D01*
X116156180Y-52772902D01*
X116266494Y-52713937D01*
X116363185Y-52634585D01*
X116442537Y-52537894D01*
X116501502Y-52427580D01*
X116537812Y-52307882D01*
X116550072Y-52183400D01*
X116550072Y-50483400D01*
X116537812Y-50358918D01*
X116501502Y-50239220D01*
X116442537Y-50128906D01*
X116363185Y-50032215D01*
X116266494Y-49952863D01*
X116156180Y-49893898D01*
X116036482Y-49857588D01*
X115912000Y-49845328D01*
X114212000Y-49845328D01*
X114087518Y-49857588D01*
X113967820Y-49893898D01*
X113857506Y-49952863D01*
X113760815Y-50032215D01*
X113681463Y-50128906D01*
X113622498Y-50239220D01*
X113586188Y-50358918D01*
X113573928Y-50483400D01*
X113573928Y-52183400D01*
X113586188Y-52307882D01*
X113622498Y-52427580D01*
X113681463Y-52537894D01*
X113760815Y-52634585D01*
X113857506Y-52713937D01*
X113967820Y-52772902D01*
X114040380Y-52794913D01*
X113908525Y-52926768D01*
X113746010Y-53169989D01*
X113634068Y-53440242D01*
X113577000Y-53727140D01*
X113577000Y-54019660D01*
X113634068Y-54306558D01*
X113746010Y-54576811D01*
X113908525Y-54820032D01*
X114115368Y-55026875D01*
X114289760Y-55143400D01*
X114115368Y-55259925D01*
X113908525Y-55466768D01*
X113746010Y-55709989D01*
X113634068Y-55980242D01*
X113577000Y-56267140D01*
X113577000Y-56559660D01*
X113634068Y-56846558D01*
X113746010Y-57116811D01*
X113908525Y-57360032D01*
X114115368Y-57566875D01*
X114289760Y-57683400D01*
X114115368Y-57799925D01*
X113908525Y-58006768D01*
X113746010Y-58249989D01*
X113634068Y-58520242D01*
X113577000Y-58807140D01*
X113577000Y-59099660D01*
X113634068Y-59386558D01*
X113746010Y-59656811D01*
X113908525Y-59900032D01*
X114115368Y-60106875D01*
X114289760Y-60223400D01*
X114115368Y-60339925D01*
X113908525Y-60546768D01*
X113746010Y-60789989D01*
X113634068Y-61060242D01*
X113577000Y-61347140D01*
X113577000Y-61639660D01*
X113634068Y-61926558D01*
X113746010Y-62196811D01*
X113908525Y-62440032D01*
X114115368Y-62646875D01*
X114289760Y-62763400D01*
X114115368Y-62879925D01*
X113908525Y-63086768D01*
X113746010Y-63329989D01*
X113634068Y-63600242D01*
X113577000Y-63887140D01*
X113577000Y-64179660D01*
X113634068Y-64466558D01*
X113746010Y-64736811D01*
X113908525Y-64980032D01*
X114115368Y-65186875D01*
X114358589Y-65349390D01*
X114628842Y-65461332D01*
X114915740Y-65518400D01*
X115208260Y-65518400D01*
X115495158Y-65461332D01*
X115765411Y-65349390D01*
X116008632Y-65186875D01*
X116215475Y-64980032D01*
X116377990Y-64736811D01*
X116489932Y-64466558D01*
X116547000Y-64179660D01*
X116547000Y-63887140D01*
X116489932Y-63600242D01*
X116377990Y-63329989D01*
X116215475Y-63086768D01*
X116008632Y-62879925D01*
X115834240Y-62763400D01*
X116008632Y-62646875D01*
X116215475Y-62440032D01*
X116377990Y-62196811D01*
X116489932Y-61926558D01*
X116547000Y-61639660D01*
X116547000Y-61347140D01*
X116489932Y-61060242D01*
X116377990Y-60789989D01*
X116215475Y-60546768D01*
X116008632Y-60339925D01*
X115834240Y-60223400D01*
X116008632Y-60106875D01*
X116215475Y-59900032D01*
X116340178Y-59713400D01*
X117767878Y-59713400D01*
X117805200Y-59717076D01*
X117842522Y-59713400D01*
X117842533Y-59713400D01*
X117954186Y-59702403D01*
X118097447Y-59658946D01*
X118229476Y-59588374D01*
X118345201Y-59493401D01*
X118369004Y-59464397D01*
X120533002Y-57300400D01*
X122301000Y-57300400D01*
X122301000Y-58166000D01*
X122303440Y-58190776D01*
X122310667Y-58214601D01*
X122322403Y-58236557D01*
X122338197Y-58255803D01*
X122357443Y-58271597D01*
X122379399Y-58283333D01*
X122403224Y-58290560D01*
X122428000Y-58293000D01*
X123437474Y-58293000D01*
X123306996Y-58488274D01*
X123201687Y-58742511D01*
X123148001Y-59012409D01*
X123148001Y-59287593D01*
X123201687Y-59557491D01*
X123306996Y-59811728D01*
X123459881Y-60040536D01*
X123654466Y-60235121D01*
X123883274Y-60388006D01*
X123960516Y-60420001D01*
X123883274Y-60451996D01*
X123654466Y-60604881D01*
X123459881Y-60799466D01*
X123306996Y-61028274D01*
X123201687Y-61282511D01*
X123148001Y-61552409D01*
X123148001Y-61827593D01*
X123201687Y-62097491D01*
X123306996Y-62351728D01*
X123459881Y-62580536D01*
X123654466Y-62775121D01*
X123883274Y-62928006D01*
X123960516Y-62960001D01*
X123883274Y-62991996D01*
X123654466Y-63144881D01*
X123459881Y-63339466D01*
X123306996Y-63568274D01*
X123201687Y-63822511D01*
X123148001Y-64092409D01*
X123148001Y-64367593D01*
X123201687Y-64637491D01*
X123306996Y-64891728D01*
X123459881Y-65120536D01*
X123654466Y-65315121D01*
X123883274Y-65468006D01*
X123960516Y-65500001D01*
X123883274Y-65531996D01*
X123654466Y-65684881D01*
X123459881Y-65879466D01*
X123306996Y-66108274D01*
X123201687Y-66362511D01*
X123148001Y-66632409D01*
X123148001Y-66907593D01*
X123201687Y-67177491D01*
X123306996Y-67431728D01*
X123459881Y-67660536D01*
X123654466Y-67855121D01*
X123883274Y-68008006D01*
X123960516Y-68040001D01*
X123883274Y-68071996D01*
X123654466Y-68224881D01*
X123459881Y-68419466D01*
X123306996Y-68648274D01*
X123201687Y-68902511D01*
X123148001Y-69172409D01*
X123148001Y-69447593D01*
X123201687Y-69717491D01*
X123306996Y-69971728D01*
X123459881Y-70200536D01*
X123654466Y-70395121D01*
X123883274Y-70548006D01*
X123960516Y-70580001D01*
X123883274Y-70611996D01*
X123654466Y-70764881D01*
X123459881Y-70959466D01*
X123351279Y-71122000D01*
X117035732Y-71122000D01*
X117027780Y-71102801D01*
X116847755Y-70833374D01*
X116618626Y-70604245D01*
X116349199Y-70424220D01*
X116049829Y-70300217D01*
X115732018Y-70237000D01*
X115407982Y-70237000D01*
X115090171Y-70300217D01*
X114790801Y-70424220D01*
X114521374Y-70604245D01*
X114292245Y-70833374D01*
X114112220Y-71102801D01*
X113988217Y-71402171D01*
X113925000Y-71719982D01*
X113925000Y-72044018D01*
X113988217Y-72361829D01*
X114112220Y-72661199D01*
X114292245Y-72930626D01*
X114513619Y-73152000D01*
X114292245Y-73373374D01*
X114112220Y-73642801D01*
X113988217Y-73942171D01*
X113925000Y-74259982D01*
X113925000Y-74584018D01*
X113988217Y-74901829D01*
X114112220Y-75201199D01*
X114292245Y-75470626D01*
X114513619Y-75692000D01*
X114292245Y-75913374D01*
X114112220Y-76182801D01*
X113988217Y-76482171D01*
X113925000Y-76799982D01*
X113925000Y-77124018D01*
X113988217Y-77441829D01*
X114112220Y-77741199D01*
X114292245Y-78010626D01*
X114513619Y-78232000D01*
X114292245Y-78453374D01*
X114112220Y-78722801D01*
X113988217Y-79022171D01*
X113925000Y-79339982D01*
X113925000Y-79664018D01*
X113988217Y-79981829D01*
X114112220Y-80281199D01*
X114292245Y-80550626D01*
X114521374Y-80779755D01*
X114790801Y-80959780D01*
X115090171Y-81083783D01*
X115407982Y-81147000D01*
X115732018Y-81147000D01*
X116049829Y-81083783D01*
X116349199Y-80959780D01*
X116618626Y-80779755D01*
X116847755Y-80550626D01*
X117027780Y-80281199D01*
X117035732Y-80262000D01*
X123394041Y-80262000D01*
X123459881Y-80360536D01*
X123654466Y-80555121D01*
X123883274Y-80708006D01*
X123960516Y-80740001D01*
X123883274Y-80771996D01*
X123654466Y-80924881D01*
X123459881Y-81119466D01*
X123306996Y-81348274D01*
X123201687Y-81602511D01*
X123148001Y-81872409D01*
X123148001Y-82147593D01*
X123201687Y-82417491D01*
X123306996Y-82671728D01*
X123459881Y-82900536D01*
X123654466Y-83095121D01*
X123883274Y-83248006D01*
X123960516Y-83280001D01*
X123883274Y-83311996D01*
X123654466Y-83464881D01*
X123459881Y-83659466D01*
X123306996Y-83888274D01*
X123201687Y-84142511D01*
X123148001Y-84412409D01*
X123148001Y-84687593D01*
X123201687Y-84957491D01*
X123306996Y-85211728D01*
X123459881Y-85440536D01*
X123654466Y-85635121D01*
X123883274Y-85788006D01*
X123960516Y-85820001D01*
X123883274Y-85851996D01*
X123654466Y-86004881D01*
X123459881Y-86199466D01*
X123306996Y-86428274D01*
X123201687Y-86682511D01*
X123148001Y-86952409D01*
X123148001Y-87227593D01*
X123201687Y-87497491D01*
X123306996Y-87751728D01*
X123459881Y-87980536D01*
X123654466Y-88175121D01*
X123883274Y-88328006D01*
X123960516Y-88360001D01*
X123883274Y-88391996D01*
X123654466Y-88544881D01*
X123459881Y-88739466D01*
X123306996Y-88968274D01*
X123201687Y-89222511D01*
X123148001Y-89492409D01*
X123148001Y-89767593D01*
X123201687Y-90037491D01*
X123306996Y-90291728D01*
X123459881Y-90520536D01*
X123654466Y-90715121D01*
X123883274Y-90868006D01*
X123960516Y-90900001D01*
X123883274Y-90931996D01*
X123654466Y-91084881D01*
X123459881Y-91279466D01*
X123306996Y-91508274D01*
X123201687Y-91762511D01*
X123148001Y-92032409D01*
X123148001Y-92307593D01*
X123201687Y-92577491D01*
X123306996Y-92831728D01*
X123459881Y-93060536D01*
X123654466Y-93255121D01*
X123883274Y-93408006D01*
X123960516Y-93440001D01*
X123883274Y-93471996D01*
X123654466Y-93624881D01*
X123459881Y-93819466D01*
X123372660Y-93950001D01*
X121948803Y-93950001D01*
X118419804Y-90421003D01*
X118396001Y-90391999D01*
X118280276Y-90297026D01*
X118148247Y-90226454D01*
X118004986Y-90182997D01*
X117893333Y-90172000D01*
X117893322Y-90172000D01*
X117856000Y-90168324D01*
X117818678Y-90172000D01*
X114992909Y-90172000D01*
X114986918Y-90157537D01*
X114807987Y-89889748D01*
X114580252Y-89662013D01*
X114312463Y-89483082D01*
X114014912Y-89359832D01*
X113699033Y-89297000D01*
X113376967Y-89297000D01*
X113061088Y-89359832D01*
X112763537Y-89483082D01*
X112495748Y-89662013D01*
X112268013Y-89889748D01*
X112268000Y-89889767D01*
X112267987Y-89889748D01*
X112040252Y-89662013D01*
X111772463Y-89483082D01*
X111474912Y-89359832D01*
X111159033Y-89297000D01*
X110836967Y-89297000D01*
X110521088Y-89359832D01*
X110223537Y-89483082D01*
X110013191Y-89623630D01*
X109988537Y-89577506D01*
X109909185Y-89480815D01*
X109812494Y-89401463D01*
X109702180Y-89342498D01*
X109582482Y-89306188D01*
X109458000Y-89293928D01*
X108743750Y-89297000D01*
X108585000Y-89455750D01*
X108585000Y-90805000D01*
X108605000Y-90805000D01*
X108605000Y-91059000D01*
X108585000Y-91059000D01*
X108585000Y-92408250D01*
X108743750Y-92567000D01*
X109458000Y-92570072D01*
X109582482Y-92557812D01*
X109702180Y-92521502D01*
X109812494Y-92462537D01*
X109909185Y-92383185D01*
X109988537Y-92286494D01*
X110013191Y-92240370D01*
X110223537Y-92380918D01*
X110521088Y-92504168D01*
X110836967Y-92567000D01*
X111159033Y-92567000D01*
X111474912Y-92504168D01*
X111772463Y-92380918D01*
X112040252Y-92201987D01*
X112267987Y-91974252D01*
X112268000Y-91974233D01*
X112268013Y-91974252D01*
X112495748Y-92201987D01*
X112763537Y-92380918D01*
X113061088Y-92504168D01*
X113376967Y-92567000D01*
X113699033Y-92567000D01*
X114014912Y-92504168D01*
X114312463Y-92380918D01*
X114580252Y-92201987D01*
X114807987Y-91974252D01*
X114986918Y-91706463D01*
X114992909Y-91692000D01*
X117541199Y-91692000D01*
X121070201Y-95221003D01*
X121094000Y-95250002D01*
X121209725Y-95344975D01*
X121341754Y-95415547D01*
X121485015Y-95459004D01*
X121596668Y-95470001D01*
X121596677Y-95470001D01*
X121634000Y-95473677D01*
X121671323Y-95470001D01*
X123372660Y-95470001D01*
X123459881Y-95600536D01*
X123654466Y-95795121D01*
X123791052Y-95886385D01*
X123795999Y-95936616D01*
X123839455Y-96079877D01*
X123910027Y-96211907D01*
X123955796Y-96267676D01*
X124005001Y-96327632D01*
X124033999Y-96351430D01*
X136016571Y-108334003D01*
X136040369Y-108363001D01*
X136069367Y-108386799D01*
X136156093Y-108457974D01*
X136288123Y-108528546D01*
X136309399Y-108535000D01*
X102539000Y-108535000D01*
X102539000Y-106835522D01*
X102656179Y-107118417D01*
X102933521Y-107533489D01*
X103286511Y-107886479D01*
X103701583Y-108163821D01*
X104162787Y-108354858D01*
X104652398Y-108452248D01*
X105151602Y-108452248D01*
X105641213Y-108354858D01*
X106102417Y-108163821D01*
X106517489Y-107886479D01*
X106870479Y-107533489D01*
X107147821Y-107118417D01*
X107338858Y-106657213D01*
X107436248Y-106167602D01*
X107436248Y-105668398D01*
X107338858Y-105178787D01*
X107147821Y-104717583D01*
X106909997Y-104361653D01*
X111209952Y-104361653D01*
X111365962Y-104677214D01*
X111740745Y-104868020D01*
X112145551Y-104982044D01*
X112564824Y-105014902D01*
X112982451Y-104965334D01*
X113382383Y-104835243D01*
X113678038Y-104677214D01*
X113834048Y-104361653D01*
X112522000Y-103049605D01*
X111209952Y-104361653D01*
X106909997Y-104361653D01*
X106870479Y-104302511D01*
X106517489Y-103949521D01*
X106102417Y-103672179D01*
X105641213Y-103481142D01*
X105151602Y-103383752D01*
X104652398Y-103383752D01*
X104162787Y-103481142D01*
X103701583Y-103672179D01*
X103286511Y-103949521D01*
X102933521Y-104302511D01*
X102656179Y-104717583D01*
X102539000Y-105000478D01*
X102539000Y-102912824D01*
X110377098Y-102912824D01*
X110426666Y-103330451D01*
X110556757Y-103730383D01*
X110714786Y-104026038D01*
X111030347Y-104182048D01*
X112342395Y-102870000D01*
X112701605Y-102870000D01*
X114013653Y-104182048D01*
X114329214Y-104026038D01*
X114520020Y-103651255D01*
X114634044Y-103246449D01*
X114666902Y-102827176D01*
X114617334Y-102409549D01*
X114487243Y-102009617D01*
X114329214Y-101713962D01*
X114013653Y-101557952D01*
X112701605Y-102870000D01*
X112342395Y-102870000D01*
X111030347Y-101557952D01*
X110714786Y-101713962D01*
X110523980Y-102088745D01*
X110409956Y-102493551D01*
X110377098Y-102912824D01*
X102539000Y-102912824D01*
X102539000Y-101378347D01*
X111209952Y-101378347D01*
X112522000Y-102690395D01*
X113834048Y-101378347D01*
X113829922Y-101370000D01*
X115463928Y-101370000D01*
X115463928Y-104370000D01*
X115476188Y-104494482D01*
X115512498Y-104614180D01*
X115571463Y-104724494D01*
X115650815Y-104821185D01*
X115747506Y-104900537D01*
X115857820Y-104959502D01*
X115977518Y-104995812D01*
X116102000Y-105008072D01*
X119102000Y-105008072D01*
X119226482Y-104995812D01*
X119346180Y-104959502D01*
X119456494Y-104900537D01*
X119553185Y-104821185D01*
X119632537Y-104724494D01*
X119691502Y-104614180D01*
X119727812Y-104494482D01*
X119740072Y-104370000D01*
X119740072Y-101370000D01*
X119727812Y-101245518D01*
X119691502Y-101125820D01*
X119632537Y-101015506D01*
X119553185Y-100918815D01*
X119456494Y-100839463D01*
X119346180Y-100780498D01*
X119226482Y-100744188D01*
X119102000Y-100731928D01*
X116102000Y-100731928D01*
X115977518Y-100744188D01*
X115857820Y-100780498D01*
X115747506Y-100839463D01*
X115650815Y-100918815D01*
X115571463Y-101015506D01*
X115512498Y-101125820D01*
X115476188Y-101245518D01*
X115463928Y-101370000D01*
X113829922Y-101370000D01*
X113678038Y-101062786D01*
X113303255Y-100871980D01*
X112898449Y-100757956D01*
X112479176Y-100725098D01*
X112061549Y-100774666D01*
X111661617Y-100904757D01*
X111365962Y-101062786D01*
X111209952Y-101378347D01*
X102539000Y-101378347D01*
X102539000Y-91932000D01*
X106819928Y-91932000D01*
X106832188Y-92056482D01*
X106868498Y-92176180D01*
X106927463Y-92286494D01*
X107006815Y-92383185D01*
X107103506Y-92462537D01*
X107213820Y-92521502D01*
X107333518Y-92557812D01*
X107458000Y-92570072D01*
X108172250Y-92567000D01*
X108331000Y-92408250D01*
X108331000Y-91059000D01*
X106981750Y-91059000D01*
X106823000Y-91217750D01*
X106819928Y-91932000D01*
X102539000Y-91932000D01*
X102539000Y-89932000D01*
X106819928Y-89932000D01*
X106823000Y-90646250D01*
X106981750Y-90805000D01*
X108331000Y-90805000D01*
X108331000Y-89455750D01*
X108172250Y-89297000D01*
X107458000Y-89293928D01*
X107333518Y-89306188D01*
X107213820Y-89342498D01*
X107103506Y-89401463D01*
X107006815Y-89480815D01*
X106927463Y-89577506D01*
X106868498Y-89687820D01*
X106832188Y-89807518D01*
X106819928Y-89932000D01*
X102539000Y-89932000D01*
X102539000Y-50910370D01*
X102671491Y-51230232D01*
X102946943Y-51642474D01*
X103297526Y-51993057D01*
X103709768Y-52268509D01*
X104167827Y-52458243D01*
X104654100Y-52554968D01*
X105149900Y-52554968D01*
X105636173Y-52458243D01*
X106094232Y-52268509D01*
X106506474Y-51993057D01*
X106857057Y-51642474D01*
X107132509Y-51230232D01*
X107322243Y-50772173D01*
X107418968Y-50285900D01*
X107418968Y-49790100D01*
X107322243Y-49303827D01*
X107132509Y-48845768D01*
X106857057Y-48433526D01*
X106506474Y-48082943D01*
X106094232Y-47807491D01*
X105774370Y-47675000D01*
X122301000Y-47675000D01*
X122301000Y-51945000D01*
G37*
X122301000Y-51945000D02*
X117952403Y-51945000D01*
X117915080Y-51941324D01*
X117877757Y-51945000D01*
X117877748Y-51945000D01*
X117766095Y-51955997D01*
X117622834Y-51999454D01*
X117490804Y-52070026D01*
X117417413Y-52130257D01*
X117375080Y-52164999D01*
X117351282Y-52193997D01*
X116457280Y-53088000D01*
X116323207Y-53088000D01*
X116215475Y-52926768D01*
X116083620Y-52794913D01*
X116156180Y-52772902D01*
X116266494Y-52713937D01*
X116363185Y-52634585D01*
X116442537Y-52537894D01*
X116501502Y-52427580D01*
X116537812Y-52307882D01*
X116550072Y-52183400D01*
X116550072Y-50483400D01*
X116537812Y-50358918D01*
X116501502Y-50239220D01*
X116442537Y-50128906D01*
X116363185Y-50032215D01*
X116266494Y-49952863D01*
X116156180Y-49893898D01*
X116036482Y-49857588D01*
X115912000Y-49845328D01*
X114212000Y-49845328D01*
X114087518Y-49857588D01*
X113967820Y-49893898D01*
X113857506Y-49952863D01*
X113760815Y-50032215D01*
X113681463Y-50128906D01*
X113622498Y-50239220D01*
X113586188Y-50358918D01*
X113573928Y-50483400D01*
X113573928Y-52183400D01*
X113586188Y-52307882D01*
X113622498Y-52427580D01*
X113681463Y-52537894D01*
X113760815Y-52634585D01*
X113857506Y-52713937D01*
X113967820Y-52772902D01*
X114040380Y-52794913D01*
X113908525Y-52926768D01*
X113746010Y-53169989D01*
X113634068Y-53440242D01*
X113577000Y-53727140D01*
X113577000Y-54019660D01*
X113634068Y-54306558D01*
X113746010Y-54576811D01*
X113908525Y-54820032D01*
X114115368Y-55026875D01*
X114289760Y-55143400D01*
X114115368Y-55259925D01*
X113908525Y-55466768D01*
X113746010Y-55709989D01*
X113634068Y-55980242D01*
X113577000Y-56267140D01*
X113577000Y-56559660D01*
X113634068Y-56846558D01*
X113746010Y-57116811D01*
X113908525Y-57360032D01*
X114115368Y-57566875D01*
X114289760Y-57683400D01*
X114115368Y-57799925D01*
X113908525Y-58006768D01*
X113746010Y-58249989D01*
X113634068Y-58520242D01*
X113577000Y-58807140D01*
X113577000Y-59099660D01*
X113634068Y-59386558D01*
X113746010Y-59656811D01*
X113908525Y-59900032D01*
X114115368Y-60106875D01*
X114289760Y-60223400D01*
X114115368Y-60339925D01*
X113908525Y-60546768D01*
X113746010Y-60789989D01*
X113634068Y-61060242D01*
X113577000Y-61347140D01*
X113577000Y-61639660D01*
X113634068Y-61926558D01*
X113746010Y-62196811D01*
X113908525Y-62440032D01*
X114115368Y-62646875D01*
X114289760Y-62763400D01*
X114115368Y-62879925D01*
X113908525Y-63086768D01*
X113746010Y-63329989D01*
X113634068Y-63600242D01*
X113577000Y-63887140D01*
X113577000Y-64179660D01*
X113634068Y-64466558D01*
X113746010Y-64736811D01*
X113908525Y-64980032D01*
X114115368Y-65186875D01*
X114358589Y-65349390D01*
X114628842Y-65461332D01*
X114915740Y-65518400D01*
X115208260Y-65518400D01*
X115495158Y-65461332D01*
X115765411Y-65349390D01*
X116008632Y-65186875D01*
X116215475Y-64980032D01*
X116377990Y-64736811D01*
X116489932Y-64466558D01*
X116547000Y-64179660D01*
X116547000Y-63887140D01*
X116489932Y-63600242D01*
X116377990Y-63329989D01*
X116215475Y-63086768D01*
X116008632Y-62879925D01*
X115834240Y-62763400D01*
X116008632Y-62646875D01*
X116215475Y-62440032D01*
X116377990Y-62196811D01*
X116489932Y-61926558D01*
X116547000Y-61639660D01*
X116547000Y-61347140D01*
X116489932Y-61060242D01*
X116377990Y-60789989D01*
X116215475Y-60546768D01*
X116008632Y-60339925D01*
X115834240Y-60223400D01*
X116008632Y-60106875D01*
X116215475Y-59900032D01*
X116340178Y-59713400D01*
X117767878Y-59713400D01*
X117805200Y-59717076D01*
X117842522Y-59713400D01*
X117842533Y-59713400D01*
X117954186Y-59702403D01*
X118097447Y-59658946D01*
X118229476Y-59588374D01*
X118345201Y-59493401D01*
X118369004Y-59464397D01*
X120533002Y-57300400D01*
X122301000Y-57300400D01*
X122301000Y-58166000D01*
X122303440Y-58190776D01*
X122310667Y-58214601D01*
X122322403Y-58236557D01*
X122338197Y-58255803D01*
X122357443Y-58271597D01*
X122379399Y-58283333D01*
X122403224Y-58290560D01*
X122428000Y-58293000D01*
X123437474Y-58293000D01*
X123306996Y-58488274D01*
X123201687Y-58742511D01*
X123148001Y-59012409D01*
X123148001Y-59287593D01*
X123201687Y-59557491D01*
X123306996Y-59811728D01*
X123459881Y-60040536D01*
X123654466Y-60235121D01*
X123883274Y-60388006D01*
X123960516Y-60420001D01*
X123883274Y-60451996D01*
X123654466Y-60604881D01*
X123459881Y-60799466D01*
X123306996Y-61028274D01*
X123201687Y-61282511D01*
X123148001Y-61552409D01*
X123148001Y-61827593D01*
X123201687Y-62097491D01*
X123306996Y-62351728D01*
X123459881Y-62580536D01*
X123654466Y-62775121D01*
X123883274Y-62928006D01*
X123960516Y-62960001D01*
X123883274Y-62991996D01*
X123654466Y-63144881D01*
X123459881Y-63339466D01*
X123306996Y-63568274D01*
X123201687Y-63822511D01*
X123148001Y-64092409D01*
X123148001Y-64367593D01*
X123201687Y-64637491D01*
X123306996Y-64891728D01*
X123459881Y-65120536D01*
X123654466Y-65315121D01*
X123883274Y-65468006D01*
X123960516Y-65500001D01*
X123883274Y-65531996D01*
X123654466Y-65684881D01*
X123459881Y-65879466D01*
X123306996Y-66108274D01*
X123201687Y-66362511D01*
X123148001Y-66632409D01*
X123148001Y-66907593D01*
X123201687Y-67177491D01*
X123306996Y-67431728D01*
X123459881Y-67660536D01*
X123654466Y-67855121D01*
X123883274Y-68008006D01*
X123960516Y-68040001D01*
X123883274Y-68071996D01*
X123654466Y-68224881D01*
X123459881Y-68419466D01*
X123306996Y-68648274D01*
X123201687Y-68902511D01*
X123148001Y-69172409D01*
X123148001Y-69447593D01*
X123201687Y-69717491D01*
X123306996Y-69971728D01*
X123459881Y-70200536D01*
X123654466Y-70395121D01*
X123883274Y-70548006D01*
X123960516Y-70580001D01*
X123883274Y-70611996D01*
X123654466Y-70764881D01*
X123459881Y-70959466D01*
X123351279Y-71122000D01*
X117035732Y-71122000D01*
X117027780Y-71102801D01*
X116847755Y-70833374D01*
X116618626Y-70604245D01*
X116349199Y-70424220D01*
X116049829Y-70300217D01*
X115732018Y-70237000D01*
X115407982Y-70237000D01*
X115090171Y-70300217D01*
X114790801Y-70424220D01*
X114521374Y-70604245D01*
X114292245Y-70833374D01*
X114112220Y-71102801D01*
X113988217Y-71402171D01*
X113925000Y-71719982D01*
X113925000Y-72044018D01*
X113988217Y-72361829D01*
X114112220Y-72661199D01*
X114292245Y-72930626D01*
X114513619Y-73152000D01*
X114292245Y-73373374D01*
X114112220Y-73642801D01*
X113988217Y-73942171D01*
X113925000Y-74259982D01*
X113925000Y-74584018D01*
X113988217Y-74901829D01*
X114112220Y-75201199D01*
X114292245Y-75470626D01*
X114513619Y-75692000D01*
X114292245Y-75913374D01*
X114112220Y-76182801D01*
X113988217Y-76482171D01*
X113925000Y-76799982D01*
X113925000Y-77124018D01*
X113988217Y-77441829D01*
X114112220Y-77741199D01*
X114292245Y-78010626D01*
X114513619Y-78232000D01*
X114292245Y-78453374D01*
X114112220Y-78722801D01*
X113988217Y-79022171D01*
X113925000Y-79339982D01*
X113925000Y-79664018D01*
X113988217Y-79981829D01*
X114112220Y-80281199D01*
X114292245Y-80550626D01*
X114521374Y-80779755D01*
X114790801Y-80959780D01*
X115090171Y-81083783D01*
X115407982Y-81147000D01*
X115732018Y-81147000D01*
X116049829Y-81083783D01*
X116349199Y-80959780D01*
X116618626Y-80779755D01*
X116847755Y-80550626D01*
X117027780Y-80281199D01*
X117035732Y-80262000D01*
X123394041Y-80262000D01*
X123459881Y-80360536D01*
X123654466Y-80555121D01*
X123883274Y-80708006D01*
X123960516Y-80740001D01*
X123883274Y-80771996D01*
X123654466Y-80924881D01*
X123459881Y-81119466D01*
X123306996Y-81348274D01*
X123201687Y-81602511D01*
X123148001Y-81872409D01*
X123148001Y-82147593D01*
X123201687Y-82417491D01*
X123306996Y-82671728D01*
X123459881Y-82900536D01*
X123654466Y-83095121D01*
X123883274Y-83248006D01*
X123960516Y-83280001D01*
X123883274Y-83311996D01*
X123654466Y-83464881D01*
X123459881Y-83659466D01*
X123306996Y-83888274D01*
X123201687Y-84142511D01*
X123148001Y-84412409D01*
X123148001Y-84687593D01*
X123201687Y-84957491D01*
X123306996Y-85211728D01*
X123459881Y-85440536D01*
X123654466Y-85635121D01*
X123883274Y-85788006D01*
X123960516Y-85820001D01*
X123883274Y-85851996D01*
X123654466Y-86004881D01*
X123459881Y-86199466D01*
X123306996Y-86428274D01*
X123201687Y-86682511D01*
X123148001Y-86952409D01*
X123148001Y-87227593D01*
X123201687Y-87497491D01*
X123306996Y-87751728D01*
X123459881Y-87980536D01*
X123654466Y-88175121D01*
X123883274Y-88328006D01*
X123960516Y-88360001D01*
X123883274Y-88391996D01*
X123654466Y-88544881D01*
X123459881Y-88739466D01*
X123306996Y-88968274D01*
X123201687Y-89222511D01*
X123148001Y-89492409D01*
X123148001Y-89767593D01*
X123201687Y-90037491D01*
X123306996Y-90291728D01*
X123459881Y-90520536D01*
X123654466Y-90715121D01*
X123883274Y-90868006D01*
X123960516Y-90900001D01*
X123883274Y-90931996D01*
X123654466Y-91084881D01*
X123459881Y-91279466D01*
X123306996Y-91508274D01*
X123201687Y-91762511D01*
X123148001Y-92032409D01*
X123148001Y-92307593D01*
X123201687Y-92577491D01*
X123306996Y-92831728D01*
X123459881Y-93060536D01*
X123654466Y-93255121D01*
X123883274Y-93408006D01*
X123960516Y-93440001D01*
X123883274Y-93471996D01*
X123654466Y-93624881D01*
X123459881Y-93819466D01*
X123372660Y-93950001D01*
X121948803Y-93950001D01*
X118419804Y-90421003D01*
X118396001Y-90391999D01*
X118280276Y-90297026D01*
X118148247Y-90226454D01*
X118004986Y-90182997D01*
X117893333Y-90172000D01*
X117893322Y-90172000D01*
X117856000Y-90168324D01*
X117818678Y-90172000D01*
X114992909Y-90172000D01*
X114986918Y-90157537D01*
X114807987Y-89889748D01*
X114580252Y-89662013D01*
X114312463Y-89483082D01*
X114014912Y-89359832D01*
X113699033Y-89297000D01*
X113376967Y-89297000D01*
X113061088Y-89359832D01*
X112763537Y-89483082D01*
X112495748Y-89662013D01*
X112268013Y-89889748D01*
X112268000Y-89889767D01*
X112267987Y-89889748D01*
X112040252Y-89662013D01*
X111772463Y-89483082D01*
X111474912Y-89359832D01*
X111159033Y-89297000D01*
X110836967Y-89297000D01*
X110521088Y-89359832D01*
X110223537Y-89483082D01*
X110013191Y-89623630D01*
X109988537Y-89577506D01*
X109909185Y-89480815D01*
X109812494Y-89401463D01*
X109702180Y-89342498D01*
X109582482Y-89306188D01*
X109458000Y-89293928D01*
X108743750Y-89297000D01*
X108585000Y-89455750D01*
X108585000Y-90805000D01*
X108605000Y-90805000D01*
X108605000Y-91059000D01*
X108585000Y-91059000D01*
X108585000Y-92408250D01*
X108743750Y-92567000D01*
X109458000Y-92570072D01*
X109582482Y-92557812D01*
X109702180Y-92521502D01*
X109812494Y-92462537D01*
X109909185Y-92383185D01*
X109988537Y-92286494D01*
X110013191Y-92240370D01*
X110223537Y-92380918D01*
X110521088Y-92504168D01*
X110836967Y-92567000D01*
X111159033Y-92567000D01*
X111474912Y-92504168D01*
X111772463Y-92380918D01*
X112040252Y-92201987D01*
X112267987Y-91974252D01*
X112268000Y-91974233D01*
X112268013Y-91974252D01*
X112495748Y-92201987D01*
X112763537Y-92380918D01*
X113061088Y-92504168D01*
X113376967Y-92567000D01*
X113699033Y-92567000D01*
X114014912Y-92504168D01*
X114312463Y-92380918D01*
X114580252Y-92201987D01*
X114807987Y-91974252D01*
X114986918Y-91706463D01*
X114992909Y-91692000D01*
X117541199Y-91692000D01*
X121070201Y-95221003D01*
X121094000Y-95250002D01*
X121209725Y-95344975D01*
X121341754Y-95415547D01*
X121485015Y-95459004D01*
X121596668Y-95470001D01*
X121596677Y-95470001D01*
X121634000Y-95473677D01*
X121671323Y-95470001D01*
X123372660Y-95470001D01*
X123459881Y-95600536D01*
X123654466Y-95795121D01*
X123791052Y-95886385D01*
X123795999Y-95936616D01*
X123839455Y-96079877D01*
X123910027Y-96211907D01*
X123955796Y-96267676D01*
X124005001Y-96327632D01*
X124033999Y-96351430D01*
X136016571Y-108334003D01*
X136040369Y-108363001D01*
X136069367Y-108386799D01*
X136156093Y-108457974D01*
X136288123Y-108528546D01*
X136309399Y-108535000D01*
X102539000Y-108535000D01*
X102539000Y-106835522D01*
X102656179Y-107118417D01*
X102933521Y-107533489D01*
X103286511Y-107886479D01*
X103701583Y-108163821D01*
X104162787Y-108354858D01*
X104652398Y-108452248D01*
X105151602Y-108452248D01*
X105641213Y-108354858D01*
X106102417Y-108163821D01*
X106517489Y-107886479D01*
X106870479Y-107533489D01*
X107147821Y-107118417D01*
X107338858Y-106657213D01*
X107436248Y-106167602D01*
X107436248Y-105668398D01*
X107338858Y-105178787D01*
X107147821Y-104717583D01*
X106909997Y-104361653D01*
X111209952Y-104361653D01*
X111365962Y-104677214D01*
X111740745Y-104868020D01*
X112145551Y-104982044D01*
X112564824Y-105014902D01*
X112982451Y-104965334D01*
X113382383Y-104835243D01*
X113678038Y-104677214D01*
X113834048Y-104361653D01*
X112522000Y-103049605D01*
X111209952Y-104361653D01*
X106909997Y-104361653D01*
X106870479Y-104302511D01*
X106517489Y-103949521D01*
X106102417Y-103672179D01*
X105641213Y-103481142D01*
X105151602Y-103383752D01*
X104652398Y-103383752D01*
X104162787Y-103481142D01*
X103701583Y-103672179D01*
X103286511Y-103949521D01*
X102933521Y-104302511D01*
X102656179Y-104717583D01*
X102539000Y-105000478D01*
X102539000Y-102912824D01*
X110377098Y-102912824D01*
X110426666Y-103330451D01*
X110556757Y-103730383D01*
X110714786Y-104026038D01*
X111030347Y-104182048D01*
X112342395Y-102870000D01*
X112701605Y-102870000D01*
X114013653Y-104182048D01*
X114329214Y-104026038D01*
X114520020Y-103651255D01*
X114634044Y-103246449D01*
X114666902Y-102827176D01*
X114617334Y-102409549D01*
X114487243Y-102009617D01*
X114329214Y-101713962D01*
X114013653Y-101557952D01*
X112701605Y-102870000D01*
X112342395Y-102870000D01*
X111030347Y-101557952D01*
X110714786Y-101713962D01*
X110523980Y-102088745D01*
X110409956Y-102493551D01*
X110377098Y-102912824D01*
X102539000Y-102912824D01*
X102539000Y-101378347D01*
X111209952Y-101378347D01*
X112522000Y-102690395D01*
X113834048Y-101378347D01*
X113829922Y-101370000D01*
X115463928Y-101370000D01*
X115463928Y-104370000D01*
X115476188Y-104494482D01*
X115512498Y-104614180D01*
X115571463Y-104724494D01*
X115650815Y-104821185D01*
X115747506Y-104900537D01*
X115857820Y-104959502D01*
X115977518Y-104995812D01*
X116102000Y-105008072D01*
X119102000Y-105008072D01*
X119226482Y-104995812D01*
X119346180Y-104959502D01*
X119456494Y-104900537D01*
X119553185Y-104821185D01*
X119632537Y-104724494D01*
X119691502Y-104614180D01*
X119727812Y-104494482D01*
X119740072Y-104370000D01*
X119740072Y-101370000D01*
X119727812Y-101245518D01*
X119691502Y-101125820D01*
X119632537Y-101015506D01*
X119553185Y-100918815D01*
X119456494Y-100839463D01*
X119346180Y-100780498D01*
X119226482Y-100744188D01*
X119102000Y-100731928D01*
X116102000Y-100731928D01*
X115977518Y-100744188D01*
X115857820Y-100780498D01*
X115747506Y-100839463D01*
X115650815Y-100918815D01*
X115571463Y-101015506D01*
X115512498Y-101125820D01*
X115476188Y-101245518D01*
X115463928Y-101370000D01*
X113829922Y-101370000D01*
X113678038Y-101062786D01*
X113303255Y-100871980D01*
X112898449Y-100757956D01*
X112479176Y-100725098D01*
X112061549Y-100774666D01*
X111661617Y-100904757D01*
X111365962Y-101062786D01*
X111209952Y-101378347D01*
X102539000Y-101378347D01*
X102539000Y-91932000D01*
X106819928Y-91932000D01*
X106832188Y-92056482D01*
X106868498Y-92176180D01*
X106927463Y-92286494D01*
X107006815Y-92383185D01*
X107103506Y-92462537D01*
X107213820Y-92521502D01*
X107333518Y-92557812D01*
X107458000Y-92570072D01*
X108172250Y-92567000D01*
X108331000Y-92408250D01*
X108331000Y-91059000D01*
X106981750Y-91059000D01*
X106823000Y-91217750D01*
X106819928Y-91932000D01*
X102539000Y-91932000D01*
X102539000Y-89932000D01*
X106819928Y-89932000D01*
X106823000Y-90646250D01*
X106981750Y-90805000D01*
X108331000Y-90805000D01*
X108331000Y-89455750D01*
X108172250Y-89297000D01*
X107458000Y-89293928D01*
X107333518Y-89306188D01*
X107213820Y-89342498D01*
X107103506Y-89401463D01*
X107006815Y-89480815D01*
X106927463Y-89577506D01*
X106868498Y-89687820D01*
X106832188Y-89807518D01*
X106819928Y-89932000D01*
X102539000Y-89932000D01*
X102539000Y-50910370D01*
X102671491Y-51230232D01*
X102946943Y-51642474D01*
X103297526Y-51993057D01*
X103709768Y-52268509D01*
X104167827Y-52458243D01*
X104654100Y-52554968D01*
X105149900Y-52554968D01*
X105636173Y-52458243D01*
X106094232Y-52268509D01*
X106506474Y-51993057D01*
X106857057Y-51642474D01*
X107132509Y-51230232D01*
X107322243Y-50772173D01*
X107418968Y-50285900D01*
X107418968Y-49790100D01*
X107322243Y-49303827D01*
X107132509Y-48845768D01*
X106857057Y-48433526D01*
X106506474Y-48082943D01*
X106094232Y-47807491D01*
X105774370Y-47675000D01*
X122301000Y-47675000D01*
X122301000Y-51945000D01*
M02*
