%FSLAX45Y45*%
G04 Gerber Fmt 4.5, Leading zero omitted, Abs format (unit mm)*
G04 Created by KiCad (PCBNEW (5.1.5)-3) date 2022-07-10 23:47:24*
%MOMM*%
%LPD*%
G04 APERTURE LIST*
%TA.AperFunction,Profile*%
%ADD10C,0.050000*%
%TD*%
%TA.AperFunction,Profile*%
%ADD11C,0.100000*%
%TD*%
%ADD12C,0.200000*%
%ADD13C,0.300000*%
G04 APERTURE END LIST*
D10*
X10676851Y-10591800D02*
G75*
G03X10676851Y-10591800I-186651J0D01*
G01*
X10675115Y-5003800D02*
G75*
G03X10675115Y-5003800I-184915J0D01*
G01*
X19641315Y-5003800D02*
G75*
G03X19641315Y-5003800I-184915J0D01*
G01*
X19615915Y-10591800D02*
G75*
G03X19615915Y-10591800I-184915J0D01*
G01*
D11*
X19761200Y-4699000D02*
X19761200Y-10922000D01*
X10185400Y-4699000D02*
X19761200Y-4699000D01*
X10185400Y-10922000D02*
X10185400Y-4699000D01*
X19761200Y-10922000D02*
X10185400Y-10922000D01*
D12*
D13*
X10466828Y-11392714D02*
X10466828Y-11092714D01*
X10538257Y-11092714D01*
X10581114Y-11107000D01*
X10609686Y-11135572D01*
X10623971Y-11164143D01*
X10638257Y-11221286D01*
X10638257Y-11264143D01*
X10623971Y-11321286D01*
X10609686Y-11349857D01*
X10581114Y-11378429D01*
X10538257Y-11392714D01*
X10466828Y-11392714D01*
X10766828Y-11392714D02*
X10766828Y-11192714D01*
X10766828Y-11249857D02*
X10781114Y-11221286D01*
X10795400Y-11207000D01*
X10823971Y-11192714D01*
X10852543Y-11192714D01*
X10952543Y-11392714D02*
X10952543Y-11192714D01*
X10952543Y-11092714D02*
X10938257Y-11107000D01*
X10952543Y-11121286D01*
X10966828Y-11107000D01*
X10952543Y-11092714D01*
X10952543Y-11121286D01*
X11138257Y-11392714D02*
X11109686Y-11378429D01*
X11095400Y-11349857D01*
X11095400Y-11092714D01*
X11295400Y-11392714D02*
X11266828Y-11378429D01*
X11252543Y-11349857D01*
X11252543Y-11092714D01*
X11638257Y-11392714D02*
X11638257Y-11092714D01*
X11738257Y-11307000D01*
X11838257Y-11092714D01*
X11838257Y-11392714D01*
X12109686Y-11392714D02*
X12109686Y-11235571D01*
X12095400Y-11207000D01*
X12066828Y-11192714D01*
X12009686Y-11192714D01*
X11981114Y-11207000D01*
X12109686Y-11378429D02*
X12081114Y-11392714D01*
X12009686Y-11392714D01*
X11981114Y-11378429D01*
X11966828Y-11349857D01*
X11966828Y-11321286D01*
X11981114Y-11292714D01*
X12009686Y-11278429D01*
X12081114Y-11278429D01*
X12109686Y-11264143D01*
X12252543Y-11192714D02*
X12252543Y-11492714D01*
X12252543Y-11207000D02*
X12281114Y-11192714D01*
X12338257Y-11192714D01*
X12366828Y-11207000D01*
X12381114Y-11221286D01*
X12395400Y-11249857D01*
X12395400Y-11335571D01*
X12381114Y-11364143D01*
X12366828Y-11378429D01*
X12338257Y-11392714D01*
X12281114Y-11392714D01*
X12252543Y-11378429D01*
X12523971Y-11364143D02*
X12538257Y-11378429D01*
X12523971Y-11392714D01*
X12509686Y-11378429D01*
X12523971Y-11364143D01*
X12523971Y-11392714D01*
X12523971Y-11207000D02*
X12538257Y-11221286D01*
X12523971Y-11235571D01*
X12509686Y-11221286D01*
X12523971Y-11207000D01*
X12523971Y-11235571D01*
M02*
