G04 #@! TF.GenerationSoftware,KiCad,Pcbnew,8.0.2*
G04 #@! TF.CreationDate,2024-08-12T21:40:22+02:00*
G04 #@! TF.ProjectId,12v_stripe_controller_mini,3132765f-7374-4726-9970-655f636f6e74,rev?*
G04 #@! TF.SameCoordinates,Original*
G04 #@! TF.FileFunction,Soldermask,Bot*
G04 #@! TF.FilePolarity,Negative*
%FSLAX46Y46*%
G04 Gerber Fmt 4.6, Leading zero omitted, Abs format (unit mm)*
G04 Created by KiCad (PCBNEW 8.0.2) date 2024-08-12 21:40:22*
%MOMM*%
%LPD*%
G01*
G04 APERTURE LIST*
G04 APERTURE END LIST*
G36*
X135552983Y-127373936D02*
G01*
X135603180Y-127373936D01*
X135646524Y-127383149D01*
X135684659Y-127386905D01*
X135732566Y-127401437D01*
X135787424Y-127413098D01*
X135822530Y-127428728D01*
X135853566Y-127438143D01*
X135902884Y-127464504D01*
X135959500Y-127489711D01*
X135985822Y-127508835D01*
X136009232Y-127521348D01*
X136056988Y-127560540D01*
X136111887Y-127600427D01*
X136129711Y-127620223D01*
X136145675Y-127633324D01*
X136188572Y-127685594D01*
X136237924Y-127740405D01*
X136248292Y-127758363D01*
X136257651Y-127769767D01*
X136292273Y-127834542D01*
X136332104Y-127903530D01*
X136336685Y-127917630D01*
X136340856Y-127925433D01*
X136363852Y-128001242D01*
X136390311Y-128082672D01*
X136391242Y-128091532D01*
X136392094Y-128094340D01*
X136400384Y-128178513D01*
X136410000Y-128270000D01*
X136400383Y-128361494D01*
X136392094Y-128445659D01*
X136391242Y-128448466D01*
X136390311Y-128457328D01*
X136363848Y-128538771D01*
X136340856Y-128614566D01*
X136336686Y-128622366D01*
X136332104Y-128636470D01*
X136292266Y-128705470D01*
X136257651Y-128770232D01*
X136248294Y-128781633D01*
X136237924Y-128799595D01*
X136188563Y-128854415D01*
X136145675Y-128906675D01*
X136129714Y-128919773D01*
X136111887Y-128939573D01*
X136056977Y-128979467D01*
X136009232Y-129018651D01*
X135985827Y-129031161D01*
X135959500Y-129050289D01*
X135902873Y-129075500D01*
X135853566Y-129101856D01*
X135822537Y-129111268D01*
X135787424Y-129126902D01*
X135732555Y-129138564D01*
X135684659Y-129153094D01*
X135646532Y-129156849D01*
X135603180Y-129166064D01*
X135552973Y-129166064D01*
X135509000Y-129170395D01*
X135465027Y-129166064D01*
X135414820Y-129166064D01*
X135371467Y-129156849D01*
X135333340Y-129153094D01*
X135285441Y-129138563D01*
X135230576Y-129126902D01*
X135195464Y-129111269D01*
X135164433Y-129101856D01*
X135115120Y-129075498D01*
X135058500Y-129050289D01*
X135032175Y-129031163D01*
X135008767Y-129018651D01*
X134961013Y-128979460D01*
X134906113Y-128939573D01*
X134888287Y-128919776D01*
X134872324Y-128906675D01*
X134829425Y-128854402D01*
X134780076Y-128799595D01*
X134769708Y-128781637D01*
X134760348Y-128770232D01*
X134725719Y-128705447D01*
X134685896Y-128636470D01*
X134681315Y-128622371D01*
X134677143Y-128614566D01*
X134654136Y-128538725D01*
X134627689Y-128457328D01*
X134626758Y-128448471D01*
X134625905Y-128445659D01*
X134617600Y-128361342D01*
X134608000Y-128270000D01*
X134617599Y-128178664D01*
X134625905Y-128094340D01*
X134626758Y-128091527D01*
X134627689Y-128082672D01*
X134654132Y-128001288D01*
X134677143Y-127925433D01*
X134681315Y-127917626D01*
X134685896Y-127903530D01*
X134725712Y-127834565D01*
X134760348Y-127769767D01*
X134769710Y-127758359D01*
X134780076Y-127740405D01*
X134829416Y-127685607D01*
X134872324Y-127633324D01*
X134888291Y-127620219D01*
X134906113Y-127600427D01*
X134961002Y-127560546D01*
X135008767Y-127521348D01*
X135032180Y-127508833D01*
X135058500Y-127489711D01*
X135115109Y-127464506D01*
X135164433Y-127438143D01*
X135195471Y-127428727D01*
X135230576Y-127413098D01*
X135285430Y-127401438D01*
X135333340Y-127386905D01*
X135371476Y-127383148D01*
X135414820Y-127373936D01*
X135465016Y-127373936D01*
X135509000Y-127369604D01*
X135552983Y-127373936D01*
G37*
G36*
X141648983Y-127373936D02*
G01*
X141699180Y-127373936D01*
X141742524Y-127383149D01*
X141780659Y-127386905D01*
X141828566Y-127401437D01*
X141883424Y-127413098D01*
X141918530Y-127428728D01*
X141949566Y-127438143D01*
X141998884Y-127464504D01*
X142055500Y-127489711D01*
X142081822Y-127508835D01*
X142105232Y-127521348D01*
X142152988Y-127560540D01*
X142207887Y-127600427D01*
X142225711Y-127620223D01*
X142241675Y-127633324D01*
X142284572Y-127685594D01*
X142333924Y-127740405D01*
X142344292Y-127758363D01*
X142353651Y-127769767D01*
X142388273Y-127834542D01*
X142428104Y-127903530D01*
X142432685Y-127917630D01*
X142436856Y-127925433D01*
X142459852Y-128001242D01*
X142486311Y-128082672D01*
X142487242Y-128091532D01*
X142488094Y-128094340D01*
X142496384Y-128178513D01*
X142506000Y-128270000D01*
X142496383Y-128361494D01*
X142488094Y-128445659D01*
X142487242Y-128448466D01*
X142486311Y-128457328D01*
X142459848Y-128538771D01*
X142436856Y-128614566D01*
X142432686Y-128622366D01*
X142428104Y-128636470D01*
X142388266Y-128705470D01*
X142353651Y-128770232D01*
X142344294Y-128781633D01*
X142333924Y-128799595D01*
X142284563Y-128854415D01*
X142241675Y-128906675D01*
X142225714Y-128919773D01*
X142207887Y-128939573D01*
X142152977Y-128979467D01*
X142105232Y-129018651D01*
X142081827Y-129031161D01*
X142055500Y-129050289D01*
X141998873Y-129075500D01*
X141949566Y-129101856D01*
X141918537Y-129111268D01*
X141883424Y-129126902D01*
X141828555Y-129138564D01*
X141780659Y-129153094D01*
X141742532Y-129156849D01*
X141699180Y-129166064D01*
X141648973Y-129166064D01*
X141605000Y-129170395D01*
X141561027Y-129166064D01*
X141510820Y-129166064D01*
X141467467Y-129156849D01*
X141429340Y-129153094D01*
X141381441Y-129138563D01*
X141326576Y-129126902D01*
X141291464Y-129111269D01*
X141260433Y-129101856D01*
X141211120Y-129075498D01*
X141154500Y-129050289D01*
X141128175Y-129031163D01*
X141104767Y-129018651D01*
X141057013Y-128979460D01*
X141002113Y-128939573D01*
X140984287Y-128919776D01*
X140968324Y-128906675D01*
X140925425Y-128854402D01*
X140876076Y-128799595D01*
X140865708Y-128781637D01*
X140856348Y-128770232D01*
X140821719Y-128705447D01*
X140781896Y-128636470D01*
X140777315Y-128622371D01*
X140773143Y-128614566D01*
X140750136Y-128538725D01*
X140723689Y-128457328D01*
X140722758Y-128448471D01*
X140721905Y-128445659D01*
X140713600Y-128361342D01*
X140704000Y-128270000D01*
X140713599Y-128178664D01*
X140721905Y-128094340D01*
X140722758Y-128091527D01*
X140723689Y-128082672D01*
X140750132Y-128001288D01*
X140773143Y-127925433D01*
X140777315Y-127917626D01*
X140781896Y-127903530D01*
X140821712Y-127834565D01*
X140856348Y-127769767D01*
X140865710Y-127758359D01*
X140876076Y-127740405D01*
X140925416Y-127685607D01*
X140968324Y-127633324D01*
X140984291Y-127620219D01*
X141002113Y-127600427D01*
X141057002Y-127560546D01*
X141104767Y-127521348D01*
X141128180Y-127508833D01*
X141154500Y-127489711D01*
X141211109Y-127464506D01*
X141260433Y-127438143D01*
X141291471Y-127428727D01*
X141326576Y-127413098D01*
X141381430Y-127401438D01*
X141429340Y-127386905D01*
X141467476Y-127383148D01*
X141510820Y-127373936D01*
X141561016Y-127373936D01*
X141605000Y-127369604D01*
X141648983Y-127373936D01*
G37*
G36*
X147744983Y-127373936D02*
G01*
X147795180Y-127373936D01*
X147838524Y-127383149D01*
X147876659Y-127386905D01*
X147924566Y-127401437D01*
X147979424Y-127413098D01*
X148014530Y-127428728D01*
X148045566Y-127438143D01*
X148094884Y-127464504D01*
X148151500Y-127489711D01*
X148177822Y-127508835D01*
X148201232Y-127521348D01*
X148248988Y-127560540D01*
X148303887Y-127600427D01*
X148321711Y-127620223D01*
X148337675Y-127633324D01*
X148380572Y-127685594D01*
X148429924Y-127740405D01*
X148440292Y-127758363D01*
X148449651Y-127769767D01*
X148484273Y-127834542D01*
X148524104Y-127903530D01*
X148528685Y-127917630D01*
X148532856Y-127925433D01*
X148555852Y-128001242D01*
X148582311Y-128082672D01*
X148583242Y-128091532D01*
X148584094Y-128094340D01*
X148592384Y-128178513D01*
X148602000Y-128270000D01*
X148592383Y-128361494D01*
X148584094Y-128445659D01*
X148583242Y-128448466D01*
X148582311Y-128457328D01*
X148555848Y-128538771D01*
X148532856Y-128614566D01*
X148528686Y-128622366D01*
X148524104Y-128636470D01*
X148484266Y-128705470D01*
X148449651Y-128770232D01*
X148440294Y-128781633D01*
X148429924Y-128799595D01*
X148380563Y-128854415D01*
X148337675Y-128906675D01*
X148321714Y-128919773D01*
X148303887Y-128939573D01*
X148248977Y-128979467D01*
X148201232Y-129018651D01*
X148177827Y-129031161D01*
X148151500Y-129050289D01*
X148094873Y-129075500D01*
X148045566Y-129101856D01*
X148014537Y-129111268D01*
X147979424Y-129126902D01*
X147924555Y-129138564D01*
X147876659Y-129153094D01*
X147838532Y-129156849D01*
X147795180Y-129166064D01*
X147744973Y-129166064D01*
X147701000Y-129170395D01*
X147657027Y-129166064D01*
X147606820Y-129166064D01*
X147563467Y-129156849D01*
X147525340Y-129153094D01*
X147477441Y-129138563D01*
X147422576Y-129126902D01*
X147387464Y-129111269D01*
X147356433Y-129101856D01*
X147307120Y-129075498D01*
X147250500Y-129050289D01*
X147224175Y-129031163D01*
X147200767Y-129018651D01*
X147153013Y-128979460D01*
X147098113Y-128939573D01*
X147080287Y-128919776D01*
X147064324Y-128906675D01*
X147021425Y-128854402D01*
X146972076Y-128799595D01*
X146961708Y-128781637D01*
X146952348Y-128770232D01*
X146917719Y-128705447D01*
X146877896Y-128636470D01*
X146873315Y-128622371D01*
X146869143Y-128614566D01*
X146846136Y-128538725D01*
X146819689Y-128457328D01*
X146818758Y-128448471D01*
X146817905Y-128445659D01*
X146809600Y-128361342D01*
X146800000Y-128270000D01*
X146809599Y-128178664D01*
X146817905Y-128094340D01*
X146818758Y-128091527D01*
X146819689Y-128082672D01*
X146846132Y-128001288D01*
X146869143Y-127925433D01*
X146873315Y-127917626D01*
X146877896Y-127903530D01*
X146917712Y-127834565D01*
X146952348Y-127769767D01*
X146961710Y-127758359D01*
X146972076Y-127740405D01*
X147021416Y-127685607D01*
X147064324Y-127633324D01*
X147080291Y-127620219D01*
X147098113Y-127600427D01*
X147153002Y-127560546D01*
X147200767Y-127521348D01*
X147224180Y-127508833D01*
X147250500Y-127489711D01*
X147307109Y-127464506D01*
X147356433Y-127438143D01*
X147387471Y-127428727D01*
X147422576Y-127413098D01*
X147477430Y-127401438D01*
X147525340Y-127386905D01*
X147563476Y-127383148D01*
X147606820Y-127373936D01*
X147657016Y-127373936D01*
X147701000Y-127369604D01*
X147744983Y-127373936D01*
G37*
G36*
X153840983Y-127373936D02*
G01*
X153891180Y-127373936D01*
X153934524Y-127383149D01*
X153972659Y-127386905D01*
X154020566Y-127401437D01*
X154075424Y-127413098D01*
X154110530Y-127428728D01*
X154141566Y-127438143D01*
X154190884Y-127464504D01*
X154247500Y-127489711D01*
X154273822Y-127508835D01*
X154297232Y-127521348D01*
X154344988Y-127560540D01*
X154399887Y-127600427D01*
X154417711Y-127620223D01*
X154433675Y-127633324D01*
X154476572Y-127685594D01*
X154525924Y-127740405D01*
X154536292Y-127758363D01*
X154545651Y-127769767D01*
X154580273Y-127834542D01*
X154620104Y-127903530D01*
X154624685Y-127917630D01*
X154628856Y-127925433D01*
X154651852Y-128001242D01*
X154678311Y-128082672D01*
X154679242Y-128091532D01*
X154680094Y-128094340D01*
X154688384Y-128178513D01*
X154698000Y-128270000D01*
X154688383Y-128361494D01*
X154680094Y-128445659D01*
X154679242Y-128448466D01*
X154678311Y-128457328D01*
X154651848Y-128538771D01*
X154628856Y-128614566D01*
X154624686Y-128622366D01*
X154620104Y-128636470D01*
X154580266Y-128705470D01*
X154545651Y-128770232D01*
X154536294Y-128781633D01*
X154525924Y-128799595D01*
X154476563Y-128854415D01*
X154433675Y-128906675D01*
X154417714Y-128919773D01*
X154399887Y-128939573D01*
X154344977Y-128979467D01*
X154297232Y-129018651D01*
X154273827Y-129031161D01*
X154247500Y-129050289D01*
X154190873Y-129075500D01*
X154141566Y-129101856D01*
X154110537Y-129111268D01*
X154075424Y-129126902D01*
X154020555Y-129138564D01*
X153972659Y-129153094D01*
X153934532Y-129156849D01*
X153891180Y-129166064D01*
X153840973Y-129166064D01*
X153797000Y-129170395D01*
X153753027Y-129166064D01*
X153702820Y-129166064D01*
X153659467Y-129156849D01*
X153621340Y-129153094D01*
X153573441Y-129138563D01*
X153518576Y-129126902D01*
X153483464Y-129111269D01*
X153452433Y-129101856D01*
X153403120Y-129075498D01*
X153346500Y-129050289D01*
X153320175Y-129031163D01*
X153296767Y-129018651D01*
X153249013Y-128979460D01*
X153194113Y-128939573D01*
X153176287Y-128919776D01*
X153160324Y-128906675D01*
X153117425Y-128854402D01*
X153068076Y-128799595D01*
X153057708Y-128781637D01*
X153048348Y-128770232D01*
X153013719Y-128705447D01*
X152973896Y-128636470D01*
X152969315Y-128622371D01*
X152965143Y-128614566D01*
X152942136Y-128538725D01*
X152915689Y-128457328D01*
X152914758Y-128448471D01*
X152913905Y-128445659D01*
X152905600Y-128361342D01*
X152896000Y-128270000D01*
X152905599Y-128178664D01*
X152913905Y-128094340D01*
X152914758Y-128091527D01*
X152915689Y-128082672D01*
X152942132Y-128001288D01*
X152965143Y-127925433D01*
X152969315Y-127917626D01*
X152973896Y-127903530D01*
X153013712Y-127834565D01*
X153048348Y-127769767D01*
X153057710Y-127758359D01*
X153068076Y-127740405D01*
X153117416Y-127685607D01*
X153160324Y-127633324D01*
X153176291Y-127620219D01*
X153194113Y-127600427D01*
X153249002Y-127560546D01*
X153296767Y-127521348D01*
X153320180Y-127508833D01*
X153346500Y-127489711D01*
X153403109Y-127464506D01*
X153452433Y-127438143D01*
X153483471Y-127428727D01*
X153518576Y-127413098D01*
X153573430Y-127401438D01*
X153621340Y-127386905D01*
X153659476Y-127383148D01*
X153702820Y-127373936D01*
X153753016Y-127373936D01*
X153797000Y-127369604D01*
X153840983Y-127373936D01*
G37*
G36*
X167366517Y-127118882D02*
G01*
X167383062Y-127129938D01*
X167394118Y-127146483D01*
X167398000Y-127166000D01*
X167398000Y-128866000D01*
X167394118Y-128885517D01*
X167383062Y-128902062D01*
X167366517Y-128913118D01*
X167347000Y-128917000D01*
X165647000Y-128917000D01*
X165627483Y-128913118D01*
X165610938Y-128902062D01*
X165599882Y-128885517D01*
X165596000Y-128866000D01*
X165596000Y-127166000D01*
X165599882Y-127146483D01*
X165610938Y-127129938D01*
X165627483Y-127118882D01*
X165647000Y-127115000D01*
X167347000Y-127115000D01*
X167366517Y-127118882D01*
G37*
G36*
X169080983Y-127119936D02*
G01*
X169131180Y-127119936D01*
X169174524Y-127129149D01*
X169212659Y-127132905D01*
X169260566Y-127147437D01*
X169315424Y-127159098D01*
X169350530Y-127174728D01*
X169381566Y-127184143D01*
X169430884Y-127210504D01*
X169487500Y-127235711D01*
X169513822Y-127254835D01*
X169537232Y-127267348D01*
X169584988Y-127306540D01*
X169639887Y-127346427D01*
X169657711Y-127366223D01*
X169673675Y-127379324D01*
X169716572Y-127431594D01*
X169765924Y-127486405D01*
X169776292Y-127504363D01*
X169785651Y-127515767D01*
X169820273Y-127580542D01*
X169860104Y-127649530D01*
X169864685Y-127663630D01*
X169868856Y-127671433D01*
X169891852Y-127747242D01*
X169918311Y-127828672D01*
X169919242Y-127837532D01*
X169920094Y-127840340D01*
X169928384Y-127924513D01*
X169938000Y-128016000D01*
X169928383Y-128107494D01*
X169920094Y-128191659D01*
X169919242Y-128194466D01*
X169918311Y-128203328D01*
X169891848Y-128284771D01*
X169868856Y-128360566D01*
X169864686Y-128368366D01*
X169860104Y-128382470D01*
X169820266Y-128451470D01*
X169785651Y-128516232D01*
X169776294Y-128527633D01*
X169765924Y-128545595D01*
X169716563Y-128600415D01*
X169673675Y-128652675D01*
X169657714Y-128665773D01*
X169639887Y-128685573D01*
X169584977Y-128725467D01*
X169537232Y-128764651D01*
X169513827Y-128777161D01*
X169487500Y-128796289D01*
X169430873Y-128821500D01*
X169381566Y-128847856D01*
X169350537Y-128857268D01*
X169315424Y-128872902D01*
X169260555Y-128884564D01*
X169212659Y-128899094D01*
X169174532Y-128902849D01*
X169131180Y-128912064D01*
X169080973Y-128912064D01*
X169037000Y-128916395D01*
X168993027Y-128912064D01*
X168942820Y-128912064D01*
X168899467Y-128902849D01*
X168861340Y-128899094D01*
X168813441Y-128884563D01*
X168758576Y-128872902D01*
X168723464Y-128857269D01*
X168692433Y-128847856D01*
X168643120Y-128821498D01*
X168586500Y-128796289D01*
X168560175Y-128777163D01*
X168536767Y-128764651D01*
X168489013Y-128725460D01*
X168434113Y-128685573D01*
X168416287Y-128665776D01*
X168400324Y-128652675D01*
X168357425Y-128600402D01*
X168308076Y-128545595D01*
X168297708Y-128527637D01*
X168288348Y-128516232D01*
X168253719Y-128451447D01*
X168213896Y-128382470D01*
X168209315Y-128368371D01*
X168205143Y-128360566D01*
X168182136Y-128284725D01*
X168155689Y-128203328D01*
X168154758Y-128194471D01*
X168153905Y-128191659D01*
X168145600Y-128107342D01*
X168136000Y-128016000D01*
X168145599Y-127924664D01*
X168153905Y-127840340D01*
X168154758Y-127837527D01*
X168155689Y-127828672D01*
X168182132Y-127747288D01*
X168205143Y-127671433D01*
X168209315Y-127663626D01*
X168213896Y-127649530D01*
X168253712Y-127580565D01*
X168288348Y-127515767D01*
X168297710Y-127504359D01*
X168308076Y-127486405D01*
X168357416Y-127431607D01*
X168400324Y-127379324D01*
X168416291Y-127366219D01*
X168434113Y-127346427D01*
X168489002Y-127306546D01*
X168536767Y-127267348D01*
X168560180Y-127254833D01*
X168586500Y-127235711D01*
X168643109Y-127210506D01*
X168692433Y-127184143D01*
X168723471Y-127174727D01*
X168758576Y-127159098D01*
X168813430Y-127147438D01*
X168861340Y-127132905D01*
X168899476Y-127129148D01*
X168942820Y-127119936D01*
X168993016Y-127119936D01*
X169037000Y-127115604D01*
X169080983Y-127119936D01*
G37*
G36*
X171620983Y-127119936D02*
G01*
X171671180Y-127119936D01*
X171714524Y-127129149D01*
X171752659Y-127132905D01*
X171800566Y-127147437D01*
X171855424Y-127159098D01*
X171890530Y-127174728D01*
X171921566Y-127184143D01*
X171970884Y-127210504D01*
X172027500Y-127235711D01*
X172053822Y-127254835D01*
X172077232Y-127267348D01*
X172124988Y-127306540D01*
X172179887Y-127346427D01*
X172197711Y-127366223D01*
X172213675Y-127379324D01*
X172256572Y-127431594D01*
X172305924Y-127486405D01*
X172316292Y-127504363D01*
X172325651Y-127515767D01*
X172360273Y-127580542D01*
X172400104Y-127649530D01*
X172404685Y-127663630D01*
X172408856Y-127671433D01*
X172431852Y-127747242D01*
X172458311Y-127828672D01*
X172459242Y-127837532D01*
X172460094Y-127840340D01*
X172468384Y-127924513D01*
X172478000Y-128016000D01*
X172468383Y-128107494D01*
X172460094Y-128191659D01*
X172459242Y-128194466D01*
X172458311Y-128203328D01*
X172431848Y-128284771D01*
X172408856Y-128360566D01*
X172404686Y-128368366D01*
X172400104Y-128382470D01*
X172360266Y-128451470D01*
X172325651Y-128516232D01*
X172316294Y-128527633D01*
X172305924Y-128545595D01*
X172256563Y-128600415D01*
X172213675Y-128652675D01*
X172197714Y-128665773D01*
X172179887Y-128685573D01*
X172124977Y-128725467D01*
X172077232Y-128764651D01*
X172053827Y-128777161D01*
X172027500Y-128796289D01*
X171970873Y-128821500D01*
X171921566Y-128847856D01*
X171890537Y-128857268D01*
X171855424Y-128872902D01*
X171800555Y-128884564D01*
X171752659Y-128899094D01*
X171714532Y-128902849D01*
X171671180Y-128912064D01*
X171620973Y-128912064D01*
X171577000Y-128916395D01*
X171533027Y-128912064D01*
X171482820Y-128912064D01*
X171439467Y-128902849D01*
X171401340Y-128899094D01*
X171353441Y-128884563D01*
X171298576Y-128872902D01*
X171263464Y-128857269D01*
X171232433Y-128847856D01*
X171183120Y-128821498D01*
X171126500Y-128796289D01*
X171100175Y-128777163D01*
X171076767Y-128764651D01*
X171029013Y-128725460D01*
X170974113Y-128685573D01*
X170956287Y-128665776D01*
X170940324Y-128652675D01*
X170897425Y-128600402D01*
X170848076Y-128545595D01*
X170837708Y-128527637D01*
X170828348Y-128516232D01*
X170793719Y-128451447D01*
X170753896Y-128382470D01*
X170749315Y-128368371D01*
X170745143Y-128360566D01*
X170722136Y-128284725D01*
X170695689Y-128203328D01*
X170694758Y-128194471D01*
X170693905Y-128191659D01*
X170685600Y-128107342D01*
X170676000Y-128016000D01*
X170685599Y-127924664D01*
X170693905Y-127840340D01*
X170694758Y-127837527D01*
X170695689Y-127828672D01*
X170722132Y-127747288D01*
X170745143Y-127671433D01*
X170749315Y-127663626D01*
X170753896Y-127649530D01*
X170793712Y-127580565D01*
X170828348Y-127515767D01*
X170837710Y-127504359D01*
X170848076Y-127486405D01*
X170897416Y-127431607D01*
X170940324Y-127379324D01*
X170956291Y-127366219D01*
X170974113Y-127346427D01*
X171029002Y-127306546D01*
X171076767Y-127267348D01*
X171100180Y-127254833D01*
X171126500Y-127235711D01*
X171183109Y-127210506D01*
X171232433Y-127184143D01*
X171263471Y-127174727D01*
X171298576Y-127159098D01*
X171353430Y-127147438D01*
X171401340Y-127132905D01*
X171439476Y-127129148D01*
X171482820Y-127119936D01*
X171533016Y-127119936D01*
X171577000Y-127115604D01*
X171620983Y-127119936D01*
G37*
G36*
X174160983Y-127119936D02*
G01*
X174211180Y-127119936D01*
X174254524Y-127129149D01*
X174292659Y-127132905D01*
X174340566Y-127147437D01*
X174395424Y-127159098D01*
X174430530Y-127174728D01*
X174461566Y-127184143D01*
X174510884Y-127210504D01*
X174567500Y-127235711D01*
X174593822Y-127254835D01*
X174617232Y-127267348D01*
X174664988Y-127306540D01*
X174719887Y-127346427D01*
X174737711Y-127366223D01*
X174753675Y-127379324D01*
X174796572Y-127431594D01*
X174845924Y-127486405D01*
X174856292Y-127504363D01*
X174865651Y-127515767D01*
X174900273Y-127580542D01*
X174940104Y-127649530D01*
X174944685Y-127663630D01*
X174948856Y-127671433D01*
X174971852Y-127747242D01*
X174998311Y-127828672D01*
X174999242Y-127837532D01*
X175000094Y-127840340D01*
X175008384Y-127924513D01*
X175018000Y-128016000D01*
X175008383Y-128107494D01*
X175000094Y-128191659D01*
X174999242Y-128194466D01*
X174998311Y-128203328D01*
X174971848Y-128284771D01*
X174948856Y-128360566D01*
X174944686Y-128368366D01*
X174940104Y-128382470D01*
X174900266Y-128451470D01*
X174865651Y-128516232D01*
X174856294Y-128527633D01*
X174845924Y-128545595D01*
X174796563Y-128600415D01*
X174753675Y-128652675D01*
X174737714Y-128665773D01*
X174719887Y-128685573D01*
X174664977Y-128725467D01*
X174617232Y-128764651D01*
X174593827Y-128777161D01*
X174567500Y-128796289D01*
X174510873Y-128821500D01*
X174461566Y-128847856D01*
X174430537Y-128857268D01*
X174395424Y-128872902D01*
X174340555Y-128884564D01*
X174292659Y-128899094D01*
X174254532Y-128902849D01*
X174211180Y-128912064D01*
X174160973Y-128912064D01*
X174117000Y-128916395D01*
X174073027Y-128912064D01*
X174022820Y-128912064D01*
X173979467Y-128902849D01*
X173941340Y-128899094D01*
X173893441Y-128884563D01*
X173838576Y-128872902D01*
X173803464Y-128857269D01*
X173772433Y-128847856D01*
X173723120Y-128821498D01*
X173666500Y-128796289D01*
X173640175Y-128777163D01*
X173616767Y-128764651D01*
X173569013Y-128725460D01*
X173514113Y-128685573D01*
X173496287Y-128665776D01*
X173480324Y-128652675D01*
X173437425Y-128600402D01*
X173388076Y-128545595D01*
X173377708Y-128527637D01*
X173368348Y-128516232D01*
X173333719Y-128451447D01*
X173293896Y-128382470D01*
X173289315Y-128368371D01*
X173285143Y-128360566D01*
X173262136Y-128284725D01*
X173235689Y-128203328D01*
X173234758Y-128194471D01*
X173233905Y-128191659D01*
X173225600Y-128107342D01*
X173216000Y-128016000D01*
X173225599Y-127924664D01*
X173233905Y-127840340D01*
X173234758Y-127837527D01*
X173235689Y-127828672D01*
X173262132Y-127747288D01*
X173285143Y-127671433D01*
X173289315Y-127663626D01*
X173293896Y-127649530D01*
X173333712Y-127580565D01*
X173368348Y-127515767D01*
X173377710Y-127504359D01*
X173388076Y-127486405D01*
X173437416Y-127431607D01*
X173480324Y-127379324D01*
X173496291Y-127366219D01*
X173514113Y-127346427D01*
X173569002Y-127306546D01*
X173616767Y-127267348D01*
X173640180Y-127254833D01*
X173666500Y-127235711D01*
X173723109Y-127210506D01*
X173772433Y-127184143D01*
X173803471Y-127174727D01*
X173838576Y-127159098D01*
X173893430Y-127147438D01*
X173941340Y-127132905D01*
X173979476Y-127129148D01*
X174022820Y-127119936D01*
X174073016Y-127119936D01*
X174117000Y-127115604D01*
X174160983Y-127119936D01*
G37*
G36*
X176700983Y-127119936D02*
G01*
X176751180Y-127119936D01*
X176794524Y-127129149D01*
X176832659Y-127132905D01*
X176880566Y-127147437D01*
X176935424Y-127159098D01*
X176970530Y-127174728D01*
X177001566Y-127184143D01*
X177050884Y-127210504D01*
X177107500Y-127235711D01*
X177133822Y-127254835D01*
X177157232Y-127267348D01*
X177204988Y-127306540D01*
X177259887Y-127346427D01*
X177277711Y-127366223D01*
X177293675Y-127379324D01*
X177336572Y-127431594D01*
X177385924Y-127486405D01*
X177396292Y-127504363D01*
X177405651Y-127515767D01*
X177440273Y-127580542D01*
X177480104Y-127649530D01*
X177484685Y-127663630D01*
X177488856Y-127671433D01*
X177511852Y-127747242D01*
X177538311Y-127828672D01*
X177539242Y-127837532D01*
X177540094Y-127840340D01*
X177548384Y-127924513D01*
X177558000Y-128016000D01*
X177548383Y-128107494D01*
X177540094Y-128191659D01*
X177539242Y-128194466D01*
X177538311Y-128203328D01*
X177511848Y-128284771D01*
X177488856Y-128360566D01*
X177484686Y-128368366D01*
X177480104Y-128382470D01*
X177440266Y-128451470D01*
X177405651Y-128516232D01*
X177396294Y-128527633D01*
X177385924Y-128545595D01*
X177336563Y-128600415D01*
X177293675Y-128652675D01*
X177277714Y-128665773D01*
X177259887Y-128685573D01*
X177204977Y-128725467D01*
X177157232Y-128764651D01*
X177133827Y-128777161D01*
X177107500Y-128796289D01*
X177050873Y-128821500D01*
X177001566Y-128847856D01*
X176970537Y-128857268D01*
X176935424Y-128872902D01*
X176880555Y-128884564D01*
X176832659Y-128899094D01*
X176794532Y-128902849D01*
X176751180Y-128912064D01*
X176700973Y-128912064D01*
X176657000Y-128916395D01*
X176613027Y-128912064D01*
X176562820Y-128912064D01*
X176519467Y-128902849D01*
X176481340Y-128899094D01*
X176433441Y-128884563D01*
X176378576Y-128872902D01*
X176343464Y-128857269D01*
X176312433Y-128847856D01*
X176263120Y-128821498D01*
X176206500Y-128796289D01*
X176180175Y-128777163D01*
X176156767Y-128764651D01*
X176109013Y-128725460D01*
X176054113Y-128685573D01*
X176036287Y-128665776D01*
X176020324Y-128652675D01*
X175977425Y-128600402D01*
X175928076Y-128545595D01*
X175917708Y-128527637D01*
X175908348Y-128516232D01*
X175873719Y-128451447D01*
X175833896Y-128382470D01*
X175829315Y-128368371D01*
X175825143Y-128360566D01*
X175802136Y-128284725D01*
X175775689Y-128203328D01*
X175774758Y-128194471D01*
X175773905Y-128191659D01*
X175765600Y-128107342D01*
X175756000Y-128016000D01*
X175765599Y-127924664D01*
X175773905Y-127840340D01*
X175774758Y-127837527D01*
X175775689Y-127828672D01*
X175802132Y-127747288D01*
X175825143Y-127671433D01*
X175829315Y-127663626D01*
X175833896Y-127649530D01*
X175873712Y-127580565D01*
X175908348Y-127515767D01*
X175917710Y-127504359D01*
X175928076Y-127486405D01*
X175977416Y-127431607D01*
X176020324Y-127379324D01*
X176036291Y-127366219D01*
X176054113Y-127346427D01*
X176109002Y-127306546D01*
X176156767Y-127267348D01*
X176180180Y-127254833D01*
X176206500Y-127235711D01*
X176263109Y-127210506D01*
X176312433Y-127184143D01*
X176343471Y-127174727D01*
X176378576Y-127159098D01*
X176433430Y-127147438D01*
X176481340Y-127132905D01*
X176519476Y-127129148D01*
X176562820Y-127119936D01*
X176613016Y-127119936D01*
X176657000Y-127115604D01*
X176700983Y-127119936D01*
G37*
G36*
X123312517Y-124182882D02*
G01*
X123329062Y-124193938D01*
X123340118Y-124210483D01*
X123344000Y-124230000D01*
X123344000Y-127230000D01*
X123340118Y-127249517D01*
X123329062Y-127266062D01*
X123312517Y-127277118D01*
X123293000Y-127281000D01*
X120293000Y-127281000D01*
X120273483Y-127277118D01*
X120256938Y-127266062D01*
X120245882Y-127249517D01*
X120242000Y-127230000D01*
X120242000Y-124230000D01*
X120245882Y-124210483D01*
X120256938Y-124193938D01*
X120273483Y-124182882D01*
X120293000Y-124179000D01*
X123293000Y-124179000D01*
X123312517Y-124182882D01*
G37*
G36*
X126932543Y-124183686D02*
G01*
X126988880Y-124183686D01*
X127050437Y-124192964D01*
X127115630Y-124198095D01*
X127168181Y-124210711D01*
X127218050Y-124218228D01*
X127283215Y-124238328D01*
X127352285Y-124254911D01*
X127396943Y-124273409D01*
X127439519Y-124286542D01*
X127506365Y-124318733D01*
X127577139Y-124348049D01*
X127613466Y-124370310D01*
X127648322Y-124387096D01*
X127714620Y-124432297D01*
X127784655Y-124475215D01*
X127812700Y-124499167D01*
X127839813Y-124517653D01*
X127903119Y-124576392D01*
X127969723Y-124633277D01*
X127989946Y-124656956D01*
X128009706Y-124675290D01*
X128067478Y-124747734D01*
X128127785Y-124818345D01*
X128141048Y-124839988D01*
X128154206Y-124856488D01*
X128203834Y-124942447D01*
X128254951Y-125025861D01*
X128262458Y-125043984D01*
X128270088Y-125057200D01*
X128308994Y-125156331D01*
X128348089Y-125250715D01*
X128351322Y-125264184D01*
X128354757Y-125272935D01*
X128380473Y-125385604D01*
X128404905Y-125487370D01*
X128405538Y-125495423D01*
X128406330Y-125498890D01*
X128416656Y-125636692D01*
X128424000Y-125730000D01*
X128416656Y-125823315D01*
X128406330Y-125961109D01*
X128405538Y-125964574D01*
X128404905Y-125972630D01*
X128380468Y-126074414D01*
X128354757Y-126187064D01*
X128351323Y-126195812D01*
X128348089Y-126209285D01*
X128308986Y-126303686D01*
X128270088Y-126402799D01*
X128262459Y-126416011D01*
X128254951Y-126434139D01*
X128203824Y-126517569D01*
X128154206Y-126603511D01*
X128141050Y-126620007D01*
X128127785Y-126641655D01*
X128067466Y-126712279D01*
X128009706Y-126784709D01*
X127989951Y-126803038D01*
X127969723Y-126826723D01*
X127903105Y-126883618D01*
X127839813Y-126942346D01*
X127812706Y-126960827D01*
X127784655Y-126984785D01*
X127714606Y-127027710D01*
X127648322Y-127072903D01*
X127613474Y-127089684D01*
X127577139Y-127111951D01*
X127506350Y-127141272D01*
X127439519Y-127173457D01*
X127396952Y-127186586D01*
X127352285Y-127205089D01*
X127283200Y-127221674D01*
X127218050Y-127241771D01*
X127168189Y-127249286D01*
X127115630Y-127261905D01*
X127050433Y-127267035D01*
X126988880Y-127276314D01*
X126932543Y-127276314D01*
X126873000Y-127281000D01*
X126813457Y-127276314D01*
X126757120Y-127276314D01*
X126695565Y-127267035D01*
X126630370Y-127261905D01*
X126577811Y-127249286D01*
X126527949Y-127241771D01*
X126462796Y-127221673D01*
X126393715Y-127205089D01*
X126349047Y-127186587D01*
X126306481Y-127173457D01*
X126239646Y-127141271D01*
X126168861Y-127111951D01*
X126132528Y-127089686D01*
X126097675Y-127072902D01*
X126031377Y-127027700D01*
X125961345Y-126984785D01*
X125933301Y-126960833D01*
X125906188Y-126942348D01*
X125842880Y-126883607D01*
X125776277Y-126826723D01*
X125756052Y-126803043D01*
X125736293Y-126784709D01*
X125678518Y-126712261D01*
X125618215Y-126641655D01*
X125604952Y-126620012D01*
X125591793Y-126603511D01*
X125542157Y-126517540D01*
X125491049Y-126434139D01*
X125483542Y-126416017D01*
X125475911Y-126402799D01*
X125436994Y-126303640D01*
X125397911Y-126209285D01*
X125394678Y-126195819D01*
X125391242Y-126187064D01*
X125365511Y-126074329D01*
X125341095Y-125972630D01*
X125340461Y-125964581D01*
X125339669Y-125961109D01*
X125329323Y-125823050D01*
X125322000Y-125730000D01*
X125329322Y-125636957D01*
X125339669Y-125498890D01*
X125340461Y-125495416D01*
X125341095Y-125487370D01*
X125365506Y-125385689D01*
X125391242Y-125272935D01*
X125394678Y-125264178D01*
X125397911Y-125250715D01*
X125436986Y-125156377D01*
X125475911Y-125057200D01*
X125483544Y-125043978D01*
X125491049Y-125025861D01*
X125542147Y-124942475D01*
X125591793Y-124856488D01*
X125604955Y-124839983D01*
X125618215Y-124818345D01*
X125678506Y-124747752D01*
X125736293Y-124675290D01*
X125756056Y-124656951D01*
X125776277Y-124633277D01*
X125842866Y-124576404D01*
X125906188Y-124517651D01*
X125933307Y-124499161D01*
X125961345Y-124475215D01*
X126031362Y-124432308D01*
X126097675Y-124387097D01*
X126132536Y-124370308D01*
X126168861Y-124348049D01*
X126239632Y-124318734D01*
X126306481Y-124286542D01*
X126349057Y-124273408D01*
X126393715Y-124254911D01*
X126462781Y-124238329D01*
X126527949Y-124218228D01*
X126577820Y-124210711D01*
X126630370Y-124198095D01*
X126695561Y-124192964D01*
X126757120Y-124183686D01*
X126813457Y-124183686D01*
X126873000Y-124179000D01*
X126932543Y-124183686D01*
G37*
G36*
X136378517Y-124832882D02*
G01*
X136395062Y-124843938D01*
X136406118Y-124860483D01*
X136410000Y-124880000D01*
X136410000Y-126580000D01*
X136406118Y-126599517D01*
X136395062Y-126616062D01*
X136378517Y-126627118D01*
X136359000Y-126631000D01*
X134659000Y-126631000D01*
X134639483Y-126627118D01*
X134622938Y-126616062D01*
X134611882Y-126599517D01*
X134608000Y-126580000D01*
X134608000Y-124880000D01*
X134611882Y-124860483D01*
X134622938Y-124843938D01*
X134639483Y-124832882D01*
X134659000Y-124829000D01*
X136359000Y-124829000D01*
X136378517Y-124832882D01*
G37*
G36*
X142474517Y-124832882D02*
G01*
X142491062Y-124843938D01*
X142502118Y-124860483D01*
X142506000Y-124880000D01*
X142506000Y-126580000D01*
X142502118Y-126599517D01*
X142491062Y-126616062D01*
X142474517Y-126627118D01*
X142455000Y-126631000D01*
X140755000Y-126631000D01*
X140735483Y-126627118D01*
X140718938Y-126616062D01*
X140707882Y-126599517D01*
X140704000Y-126580000D01*
X140704000Y-124880000D01*
X140707882Y-124860483D01*
X140718938Y-124843938D01*
X140735483Y-124832882D01*
X140755000Y-124829000D01*
X142455000Y-124829000D01*
X142474517Y-124832882D01*
G37*
G36*
X148570517Y-124832882D02*
G01*
X148587062Y-124843938D01*
X148598118Y-124860483D01*
X148602000Y-124880000D01*
X148602000Y-126580000D01*
X148598118Y-126599517D01*
X148587062Y-126616062D01*
X148570517Y-126627118D01*
X148551000Y-126631000D01*
X146851000Y-126631000D01*
X146831483Y-126627118D01*
X146814938Y-126616062D01*
X146803882Y-126599517D01*
X146800000Y-126580000D01*
X146800000Y-124880000D01*
X146803882Y-124860483D01*
X146814938Y-124843938D01*
X146831483Y-124832882D01*
X146851000Y-124829000D01*
X148551000Y-124829000D01*
X148570517Y-124832882D01*
G37*
G36*
X154666517Y-124832882D02*
G01*
X154683062Y-124843938D01*
X154694118Y-124860483D01*
X154698000Y-124880000D01*
X154698000Y-126580000D01*
X154694118Y-126599517D01*
X154683062Y-126616062D01*
X154666517Y-126627118D01*
X154647000Y-126631000D01*
X152947000Y-126631000D01*
X152927483Y-126627118D01*
X152910938Y-126616062D01*
X152899882Y-126599517D01*
X152896000Y-126580000D01*
X152896000Y-124880000D01*
X152899882Y-124860483D01*
X152910938Y-124843938D01*
X152927483Y-124832882D01*
X152947000Y-124829000D01*
X154647000Y-124829000D01*
X154666517Y-124832882D01*
G37*
G36*
X177572738Y-113497417D02*
G01*
X177618723Y-113497417D01*
X177669939Y-113506990D01*
X177726840Y-113512595D01*
X177770061Y-113525706D01*
X177809274Y-113533036D01*
X177863585Y-113554076D01*
X177924000Y-113572403D01*
X177958520Y-113590854D01*
X177990032Y-113603062D01*
X178044777Y-113636959D01*
X178105704Y-113669525D01*
X178131306Y-113690536D01*
X178154848Y-113705113D01*
X178207012Y-113752667D01*
X178264969Y-113800231D01*
X178282142Y-113821157D01*
X178298101Y-113835705D01*
X178344429Y-113897053D01*
X178395675Y-113959496D01*
X178405583Y-113978034D01*
X178414922Y-113990400D01*
X178452074Y-114065013D01*
X178492797Y-114141200D01*
X178497140Y-114155517D01*
X178501328Y-114163928D01*
X178526067Y-114250876D01*
X178552605Y-114338360D01*
X178553476Y-114347211D01*
X178554377Y-114350375D01*
X178563738Y-114451402D01*
X178572800Y-114543400D01*
X178563738Y-114635405D01*
X178554377Y-114736424D01*
X178553476Y-114739587D01*
X178552605Y-114748440D01*
X178526062Y-114835938D01*
X178501328Y-114922871D01*
X178497141Y-114931279D01*
X178492797Y-114945600D01*
X178452067Y-115021799D01*
X178414922Y-115096399D01*
X178405585Y-115108762D01*
X178395675Y-115127304D01*
X178344420Y-115189757D01*
X178298101Y-115251094D01*
X178282145Y-115265638D01*
X178264969Y-115286569D01*
X178207001Y-115334141D01*
X178154848Y-115381686D01*
X178131311Y-115396259D01*
X178105704Y-115417275D01*
X178044765Y-115449847D01*
X177990032Y-115483737D01*
X177958526Y-115495942D01*
X177924000Y-115514397D01*
X177863573Y-115532727D01*
X177809274Y-115553763D01*
X177770068Y-115561091D01*
X177726840Y-115574205D01*
X177669936Y-115579809D01*
X177618723Y-115589383D01*
X177572738Y-115589383D01*
X177521800Y-115594400D01*
X177470862Y-115589383D01*
X177424877Y-115589383D01*
X177373663Y-115579809D01*
X177316760Y-115574205D01*
X177273532Y-115561092D01*
X177234325Y-115553763D01*
X177180021Y-115532725D01*
X177119600Y-115514397D01*
X177085075Y-115495943D01*
X177053567Y-115483737D01*
X176998827Y-115449843D01*
X176937896Y-115417275D01*
X176912291Y-115396261D01*
X176888751Y-115381686D01*
X176836588Y-115334133D01*
X176778631Y-115286569D01*
X176761456Y-115265642D01*
X176745498Y-115251094D01*
X176699167Y-115189742D01*
X176647925Y-115127304D01*
X176638016Y-115108766D01*
X176628677Y-115096399D01*
X176591517Y-115021772D01*
X176550803Y-114945600D01*
X176546460Y-114931284D01*
X176542271Y-114922871D01*
X176517521Y-114835885D01*
X176490995Y-114748440D01*
X176490123Y-114739592D01*
X176489222Y-114736424D01*
X176479844Y-114635233D01*
X176470800Y-114543400D01*
X176479844Y-114451573D01*
X176489222Y-114350375D01*
X176490123Y-114347205D01*
X176490995Y-114338360D01*
X176517516Y-114250929D01*
X176542271Y-114163928D01*
X176546461Y-114155512D01*
X176550803Y-114141200D01*
X176591510Y-114065041D01*
X176628677Y-113990400D01*
X176638018Y-113978029D01*
X176647925Y-113959496D01*
X176699157Y-113897068D01*
X176745498Y-113835705D01*
X176761460Y-113821153D01*
X176778631Y-113800231D01*
X176836577Y-113752675D01*
X176888751Y-113705113D01*
X176912296Y-113690534D01*
X176937896Y-113669525D01*
X176998815Y-113636963D01*
X177053567Y-113603062D01*
X177085082Y-113590852D01*
X177119600Y-113572403D01*
X177180009Y-113554077D01*
X177234325Y-113533036D01*
X177273539Y-113525705D01*
X177316760Y-113512595D01*
X177373660Y-113506990D01*
X177424877Y-113497417D01*
X177470862Y-113497417D01*
X177521800Y-113492400D01*
X177572738Y-113497417D01*
G37*
G36*
X185041317Y-113496282D02*
G01*
X185057862Y-113507338D01*
X185068918Y-113523883D01*
X185072800Y-113543400D01*
X185072800Y-115543400D01*
X185068918Y-115562917D01*
X185057862Y-115579462D01*
X185041317Y-115590518D01*
X185021800Y-115594400D01*
X183021800Y-115594400D01*
X183002283Y-115590518D01*
X182985738Y-115579462D01*
X182974682Y-115562917D01*
X182970800Y-115543400D01*
X182970800Y-113543400D01*
X182974682Y-113523883D01*
X182985738Y-113507338D01*
X183002283Y-113496282D01*
X183021800Y-113492400D01*
X185021800Y-113492400D01*
X185041317Y-113496282D01*
G37*
G36*
X151364517Y-112894882D02*
G01*
X151381062Y-112905938D01*
X151392118Y-112922483D01*
X151396000Y-112942000D01*
X151396000Y-114642000D01*
X151392118Y-114661517D01*
X151381062Y-114678062D01*
X151364517Y-114689118D01*
X151345000Y-114693000D01*
X149645000Y-114693000D01*
X149625483Y-114689118D01*
X149608938Y-114678062D01*
X149597882Y-114661517D01*
X149594000Y-114642000D01*
X149594000Y-112942000D01*
X149597882Y-112922483D01*
X149608938Y-112905938D01*
X149625483Y-112894882D01*
X149645000Y-112891000D01*
X151345000Y-112891000D01*
X151364517Y-112894882D01*
G37*
G36*
X153078983Y-112895936D02*
G01*
X153129180Y-112895936D01*
X153172524Y-112905149D01*
X153210659Y-112908905D01*
X153258566Y-112923437D01*
X153313424Y-112935098D01*
X153348530Y-112950728D01*
X153379566Y-112960143D01*
X153428884Y-112986504D01*
X153485500Y-113011711D01*
X153511822Y-113030835D01*
X153535232Y-113043348D01*
X153582988Y-113082540D01*
X153637887Y-113122427D01*
X153655711Y-113142223D01*
X153671675Y-113155324D01*
X153714572Y-113207594D01*
X153763924Y-113262405D01*
X153774292Y-113280363D01*
X153783651Y-113291767D01*
X153818273Y-113356542D01*
X153858104Y-113425530D01*
X153862685Y-113439630D01*
X153866856Y-113447433D01*
X153889852Y-113523242D01*
X153916311Y-113604672D01*
X153917242Y-113613532D01*
X153918094Y-113616340D01*
X153926384Y-113700513D01*
X153936000Y-113792000D01*
X153926383Y-113883494D01*
X153918094Y-113967659D01*
X153917242Y-113970466D01*
X153916311Y-113979328D01*
X153889848Y-114060771D01*
X153866856Y-114136566D01*
X153862686Y-114144366D01*
X153858104Y-114158470D01*
X153818266Y-114227470D01*
X153783651Y-114292232D01*
X153774294Y-114303633D01*
X153763924Y-114321595D01*
X153714563Y-114376415D01*
X153671675Y-114428675D01*
X153655714Y-114441773D01*
X153637887Y-114461573D01*
X153582977Y-114501467D01*
X153535232Y-114540651D01*
X153511827Y-114553161D01*
X153485500Y-114572289D01*
X153428873Y-114597500D01*
X153379566Y-114623856D01*
X153348537Y-114633268D01*
X153313424Y-114648902D01*
X153258555Y-114660564D01*
X153210659Y-114675094D01*
X153172532Y-114678849D01*
X153129180Y-114688064D01*
X153078973Y-114688064D01*
X153035000Y-114692395D01*
X152991027Y-114688064D01*
X152940820Y-114688064D01*
X152897467Y-114678849D01*
X152859340Y-114675094D01*
X152811441Y-114660563D01*
X152756576Y-114648902D01*
X152721464Y-114633269D01*
X152690433Y-114623856D01*
X152641120Y-114597498D01*
X152584500Y-114572289D01*
X152558175Y-114553163D01*
X152534767Y-114540651D01*
X152487013Y-114501460D01*
X152432113Y-114461573D01*
X152414287Y-114441776D01*
X152398324Y-114428675D01*
X152355425Y-114376402D01*
X152306076Y-114321595D01*
X152295708Y-114303637D01*
X152286348Y-114292232D01*
X152251719Y-114227447D01*
X152211896Y-114158470D01*
X152207315Y-114144371D01*
X152203143Y-114136566D01*
X152180136Y-114060725D01*
X152153689Y-113979328D01*
X152152758Y-113970471D01*
X152151905Y-113967659D01*
X152143600Y-113883342D01*
X152134000Y-113792000D01*
X152143599Y-113700664D01*
X152151905Y-113616340D01*
X152152758Y-113613527D01*
X152153689Y-113604672D01*
X152180132Y-113523288D01*
X152203143Y-113447433D01*
X152207315Y-113439626D01*
X152211896Y-113425530D01*
X152251712Y-113356565D01*
X152286348Y-113291767D01*
X152295710Y-113280359D01*
X152306076Y-113262405D01*
X152355416Y-113207607D01*
X152398324Y-113155324D01*
X152414291Y-113142219D01*
X152432113Y-113122427D01*
X152487002Y-113082546D01*
X152534767Y-113043348D01*
X152558180Y-113030833D01*
X152584500Y-113011711D01*
X152641109Y-112986506D01*
X152690433Y-112960143D01*
X152721471Y-112950727D01*
X152756576Y-112935098D01*
X152811430Y-112923438D01*
X152859340Y-112908905D01*
X152897476Y-112905148D01*
X152940820Y-112895936D01*
X152991016Y-112895936D01*
X153035000Y-112891604D01*
X153078983Y-112895936D01*
G37*
G36*
X155618983Y-112895936D02*
G01*
X155669180Y-112895936D01*
X155712524Y-112905149D01*
X155750659Y-112908905D01*
X155798566Y-112923437D01*
X155853424Y-112935098D01*
X155888530Y-112950728D01*
X155919566Y-112960143D01*
X155968884Y-112986504D01*
X156025500Y-113011711D01*
X156051822Y-113030835D01*
X156075232Y-113043348D01*
X156122988Y-113082540D01*
X156177887Y-113122427D01*
X156195711Y-113142223D01*
X156211675Y-113155324D01*
X156254572Y-113207594D01*
X156303924Y-113262405D01*
X156314292Y-113280363D01*
X156323651Y-113291767D01*
X156358273Y-113356542D01*
X156398104Y-113425530D01*
X156402685Y-113439630D01*
X156406856Y-113447433D01*
X156429852Y-113523242D01*
X156456311Y-113604672D01*
X156457242Y-113613532D01*
X156458094Y-113616340D01*
X156466384Y-113700513D01*
X156476000Y-113792000D01*
X156466383Y-113883494D01*
X156458094Y-113967659D01*
X156457242Y-113970466D01*
X156456311Y-113979328D01*
X156429848Y-114060771D01*
X156406856Y-114136566D01*
X156402686Y-114144366D01*
X156398104Y-114158470D01*
X156358266Y-114227470D01*
X156323651Y-114292232D01*
X156314294Y-114303633D01*
X156303924Y-114321595D01*
X156254563Y-114376415D01*
X156211675Y-114428675D01*
X156195714Y-114441773D01*
X156177887Y-114461573D01*
X156122977Y-114501467D01*
X156075232Y-114540651D01*
X156051827Y-114553161D01*
X156025500Y-114572289D01*
X155968873Y-114597500D01*
X155919566Y-114623856D01*
X155888537Y-114633268D01*
X155853424Y-114648902D01*
X155798555Y-114660564D01*
X155750659Y-114675094D01*
X155712532Y-114678849D01*
X155669180Y-114688064D01*
X155618973Y-114688064D01*
X155575000Y-114692395D01*
X155531027Y-114688064D01*
X155480820Y-114688064D01*
X155437467Y-114678849D01*
X155399340Y-114675094D01*
X155351441Y-114660563D01*
X155296576Y-114648902D01*
X155261464Y-114633269D01*
X155230433Y-114623856D01*
X155181120Y-114597498D01*
X155124500Y-114572289D01*
X155098175Y-114553163D01*
X155074767Y-114540651D01*
X155027013Y-114501460D01*
X154972113Y-114461573D01*
X154954287Y-114441776D01*
X154938324Y-114428675D01*
X154895425Y-114376402D01*
X154846076Y-114321595D01*
X154835708Y-114303637D01*
X154826348Y-114292232D01*
X154791719Y-114227447D01*
X154751896Y-114158470D01*
X154747315Y-114144371D01*
X154743143Y-114136566D01*
X154720136Y-114060725D01*
X154693689Y-113979328D01*
X154692758Y-113970471D01*
X154691905Y-113967659D01*
X154683600Y-113883342D01*
X154674000Y-113792000D01*
X154683599Y-113700664D01*
X154691905Y-113616340D01*
X154692758Y-113613527D01*
X154693689Y-113604672D01*
X154720132Y-113523288D01*
X154743143Y-113447433D01*
X154747315Y-113439626D01*
X154751896Y-113425530D01*
X154791712Y-113356565D01*
X154826348Y-113291767D01*
X154835710Y-113280359D01*
X154846076Y-113262405D01*
X154895416Y-113207607D01*
X154938324Y-113155324D01*
X154954291Y-113142219D01*
X154972113Y-113122427D01*
X155027002Y-113082546D01*
X155074767Y-113043348D01*
X155098180Y-113030833D01*
X155124500Y-113011711D01*
X155181109Y-112986506D01*
X155230433Y-112960143D01*
X155261471Y-112950727D01*
X155296576Y-112935098D01*
X155351430Y-112923438D01*
X155399340Y-112908905D01*
X155437476Y-112905148D01*
X155480820Y-112895936D01*
X155531016Y-112895936D01*
X155575000Y-112891604D01*
X155618983Y-112895936D01*
G37*
G36*
X158158983Y-112895936D02*
G01*
X158209180Y-112895936D01*
X158252524Y-112905149D01*
X158290659Y-112908905D01*
X158338566Y-112923437D01*
X158393424Y-112935098D01*
X158428530Y-112950728D01*
X158459566Y-112960143D01*
X158508884Y-112986504D01*
X158565500Y-113011711D01*
X158591822Y-113030835D01*
X158615232Y-113043348D01*
X158662988Y-113082540D01*
X158717887Y-113122427D01*
X158735711Y-113142223D01*
X158751675Y-113155324D01*
X158794572Y-113207594D01*
X158843924Y-113262405D01*
X158854292Y-113280363D01*
X158863651Y-113291767D01*
X158898273Y-113356542D01*
X158938104Y-113425530D01*
X158942685Y-113439630D01*
X158946856Y-113447433D01*
X158969852Y-113523242D01*
X158996311Y-113604672D01*
X158997242Y-113613532D01*
X158998094Y-113616340D01*
X159006384Y-113700513D01*
X159016000Y-113792000D01*
X159006383Y-113883494D01*
X158998094Y-113967659D01*
X158997242Y-113970466D01*
X158996311Y-113979328D01*
X158969848Y-114060771D01*
X158946856Y-114136566D01*
X158942686Y-114144366D01*
X158938104Y-114158470D01*
X158898266Y-114227470D01*
X158863651Y-114292232D01*
X158854294Y-114303633D01*
X158843924Y-114321595D01*
X158794563Y-114376415D01*
X158751675Y-114428675D01*
X158735714Y-114441773D01*
X158717887Y-114461573D01*
X158662977Y-114501467D01*
X158615232Y-114540651D01*
X158591827Y-114553161D01*
X158565500Y-114572289D01*
X158508873Y-114597500D01*
X158459566Y-114623856D01*
X158428537Y-114633268D01*
X158393424Y-114648902D01*
X158338555Y-114660564D01*
X158290659Y-114675094D01*
X158252532Y-114678849D01*
X158209180Y-114688064D01*
X158158973Y-114688064D01*
X158115000Y-114692395D01*
X158071027Y-114688064D01*
X158020820Y-114688064D01*
X157977467Y-114678849D01*
X157939340Y-114675094D01*
X157891441Y-114660563D01*
X157836576Y-114648902D01*
X157801464Y-114633269D01*
X157770433Y-114623856D01*
X157721120Y-114597498D01*
X157664500Y-114572289D01*
X157638175Y-114553163D01*
X157614767Y-114540651D01*
X157567013Y-114501460D01*
X157512113Y-114461573D01*
X157494287Y-114441776D01*
X157478324Y-114428675D01*
X157435425Y-114376402D01*
X157386076Y-114321595D01*
X157375708Y-114303637D01*
X157366348Y-114292232D01*
X157331719Y-114227447D01*
X157291896Y-114158470D01*
X157287315Y-114144371D01*
X157283143Y-114136566D01*
X157260136Y-114060725D01*
X157233689Y-113979328D01*
X157232758Y-113970471D01*
X157231905Y-113967659D01*
X157223600Y-113883342D01*
X157214000Y-113792000D01*
X157223599Y-113700664D01*
X157231905Y-113616340D01*
X157232758Y-113613527D01*
X157233689Y-113604672D01*
X157260132Y-113523288D01*
X157283143Y-113447433D01*
X157287315Y-113439626D01*
X157291896Y-113425530D01*
X157331712Y-113356565D01*
X157366348Y-113291767D01*
X157375710Y-113280359D01*
X157386076Y-113262405D01*
X157435416Y-113207607D01*
X157478324Y-113155324D01*
X157494291Y-113142219D01*
X157512113Y-113122427D01*
X157567002Y-113082546D01*
X157614767Y-113043348D01*
X157638180Y-113030833D01*
X157664500Y-113011711D01*
X157721109Y-112986506D01*
X157770433Y-112960143D01*
X157801471Y-112950727D01*
X157836576Y-112935098D01*
X157891430Y-112923438D01*
X157939340Y-112908905D01*
X157977476Y-112905148D01*
X158020820Y-112895936D01*
X158071016Y-112895936D01*
X158115000Y-112891604D01*
X158158983Y-112895936D01*
G37*
G36*
X100665270Y-111862097D02*
G01*
X100706362Y-111862097D01*
X100752122Y-111870651D01*
X100804197Y-111875780D01*
X100843757Y-111887780D01*
X100878777Y-111894327D01*
X100927283Y-111913118D01*
X100982598Y-111929898D01*
X101014200Y-111946789D01*
X101042322Y-111957684D01*
X101091179Y-111987935D01*
X101147013Y-112017779D01*
X101170475Y-112037033D01*
X101191450Y-112050021D01*
X101237922Y-112092386D01*
X101291125Y-112136048D01*
X101306890Y-112155258D01*
X101321066Y-112168181D01*
X101362223Y-112222681D01*
X101409394Y-112280160D01*
X101418514Y-112297224D01*
X101426765Y-112308149D01*
X101459591Y-112374073D01*
X101497275Y-112444575D01*
X101501294Y-112457823D01*
X101504948Y-112465162D01*
X101526530Y-112541014D01*
X101551393Y-112622976D01*
X101552209Y-112631269D01*
X101552946Y-112633857D01*
X101560603Y-112716489D01*
X101569666Y-112808507D01*
X101560602Y-112900533D01*
X101552946Y-112983156D01*
X101552210Y-112985742D01*
X101551393Y-112994038D01*
X101526525Y-113076014D01*
X101504948Y-113151851D01*
X101501294Y-113159187D01*
X101497275Y-113172439D01*
X101459583Y-113242954D01*
X101426765Y-113308864D01*
X101418516Y-113319786D01*
X101409394Y-113336854D01*
X101362213Y-113394343D01*
X101321066Y-113448832D01*
X101306893Y-113461751D01*
X101291125Y-113480966D01*
X101237911Y-113524636D01*
X101191450Y-113566992D01*
X101170480Y-113579976D01*
X101147013Y-113599235D01*
X101091168Y-113629084D01*
X101042322Y-113659329D01*
X101014207Y-113670220D01*
X100982598Y-113687116D01*
X100927271Y-113703899D01*
X100878777Y-113722686D01*
X100843764Y-113729231D01*
X100804197Y-113741234D01*
X100752119Y-113746363D01*
X100706362Y-113754917D01*
X100665270Y-113754917D01*
X100618666Y-113759507D01*
X100572062Y-113754917D01*
X100530970Y-113754917D01*
X100485211Y-113746363D01*
X100433135Y-113741234D01*
X100393568Y-113729231D01*
X100358554Y-113722686D01*
X100310055Y-113703897D01*
X100254734Y-113687116D01*
X100223127Y-113670221D01*
X100195009Y-113659329D01*
X100146156Y-113629080D01*
X100090319Y-113599235D01*
X100066854Y-113579978D01*
X100045881Y-113566992D01*
X99999410Y-113524628D01*
X99946207Y-113480966D01*
X99930441Y-113461755D01*
X99916265Y-113448832D01*
X99875105Y-113394328D01*
X99827938Y-113336854D01*
X99818817Y-113319791D01*
X99810566Y-113308864D01*
X99777733Y-113242927D01*
X99740057Y-113172439D01*
X99736038Y-113159192D01*
X99732383Y-113151851D01*
X99710790Y-113075961D01*
X99685939Y-112994038D01*
X99685122Y-112985748D01*
X99684385Y-112983156D01*
X99676712Y-112900361D01*
X99667666Y-112808507D01*
X99676711Y-112716660D01*
X99684385Y-112633857D01*
X99685122Y-112631264D01*
X99685939Y-112622976D01*
X99710785Y-112541067D01*
X99732383Y-112465162D01*
X99736039Y-112457818D01*
X99740057Y-112444575D01*
X99777726Y-112374100D01*
X99810566Y-112308149D01*
X99818819Y-112297219D01*
X99827938Y-112280160D01*
X99875096Y-112222697D01*
X99916265Y-112168181D01*
X99930444Y-112155254D01*
X99946207Y-112136048D01*
X99999399Y-112092394D01*
X100045881Y-112050021D01*
X100066859Y-112037031D01*
X100090319Y-112017779D01*
X100146144Y-111987939D01*
X100195009Y-111957684D01*
X100223133Y-111946788D01*
X100254734Y-111929898D01*
X100310043Y-111913119D01*
X100358554Y-111894327D01*
X100393575Y-111887780D01*
X100433135Y-111875780D01*
X100485208Y-111870651D01*
X100530970Y-111862097D01*
X100572062Y-111862097D01*
X100618666Y-111857507D01*
X100665270Y-111862097D01*
G37*
G36*
X103205270Y-111862097D02*
G01*
X103246362Y-111862097D01*
X103292122Y-111870651D01*
X103344197Y-111875780D01*
X103383757Y-111887780D01*
X103418777Y-111894327D01*
X103467283Y-111913118D01*
X103522598Y-111929898D01*
X103554200Y-111946789D01*
X103582322Y-111957684D01*
X103631179Y-111987935D01*
X103687013Y-112017779D01*
X103710475Y-112037033D01*
X103731450Y-112050021D01*
X103777922Y-112092386D01*
X103831125Y-112136048D01*
X103846890Y-112155258D01*
X103861066Y-112168181D01*
X103902223Y-112222681D01*
X103949394Y-112280160D01*
X103958514Y-112297224D01*
X103966765Y-112308149D01*
X103999591Y-112374073D01*
X104037275Y-112444575D01*
X104041294Y-112457823D01*
X104044948Y-112465162D01*
X104066530Y-112541014D01*
X104091393Y-112622976D01*
X104092209Y-112631269D01*
X104092946Y-112633857D01*
X104100603Y-112716489D01*
X104109666Y-112808507D01*
X104100602Y-112900533D01*
X104092946Y-112983156D01*
X104092210Y-112985742D01*
X104091393Y-112994038D01*
X104066525Y-113076014D01*
X104044948Y-113151851D01*
X104041294Y-113159187D01*
X104037275Y-113172439D01*
X103999583Y-113242954D01*
X103966765Y-113308864D01*
X103958516Y-113319786D01*
X103949394Y-113336854D01*
X103902213Y-113394343D01*
X103861066Y-113448832D01*
X103846893Y-113461751D01*
X103831125Y-113480966D01*
X103777911Y-113524636D01*
X103731450Y-113566992D01*
X103710480Y-113579976D01*
X103687013Y-113599235D01*
X103631168Y-113629084D01*
X103582322Y-113659329D01*
X103554207Y-113670220D01*
X103522598Y-113687116D01*
X103467271Y-113703899D01*
X103418777Y-113722686D01*
X103383764Y-113729231D01*
X103344197Y-113741234D01*
X103292119Y-113746363D01*
X103246362Y-113754917D01*
X103205270Y-113754917D01*
X103158666Y-113759507D01*
X103112062Y-113754917D01*
X103070970Y-113754917D01*
X103025211Y-113746363D01*
X102973135Y-113741234D01*
X102933568Y-113729231D01*
X102898554Y-113722686D01*
X102850055Y-113703897D01*
X102794734Y-113687116D01*
X102763127Y-113670221D01*
X102735009Y-113659329D01*
X102686156Y-113629080D01*
X102630319Y-113599235D01*
X102606854Y-113579978D01*
X102585881Y-113566992D01*
X102539410Y-113524628D01*
X102486207Y-113480966D01*
X102470441Y-113461755D01*
X102456265Y-113448832D01*
X102415105Y-113394328D01*
X102367938Y-113336854D01*
X102358817Y-113319791D01*
X102350566Y-113308864D01*
X102317733Y-113242927D01*
X102280057Y-113172439D01*
X102276038Y-113159192D01*
X102272383Y-113151851D01*
X102250790Y-113075961D01*
X102225939Y-112994038D01*
X102225122Y-112985748D01*
X102224385Y-112983156D01*
X102216712Y-112900361D01*
X102207666Y-112808507D01*
X102216711Y-112716660D01*
X102224385Y-112633857D01*
X102225122Y-112631264D01*
X102225939Y-112622976D01*
X102250785Y-112541067D01*
X102272383Y-112465162D01*
X102276039Y-112457818D01*
X102280057Y-112444575D01*
X102317726Y-112374100D01*
X102350566Y-112308149D01*
X102358819Y-112297219D01*
X102367938Y-112280160D01*
X102415096Y-112222697D01*
X102456265Y-112168181D01*
X102470444Y-112155254D01*
X102486207Y-112136048D01*
X102539399Y-112092394D01*
X102585881Y-112050021D01*
X102606859Y-112037031D01*
X102630319Y-112017779D01*
X102686144Y-111987939D01*
X102735009Y-111957684D01*
X102763133Y-111946788D01*
X102794734Y-111929898D01*
X102850043Y-111913119D01*
X102898554Y-111894327D01*
X102933575Y-111887780D01*
X102973135Y-111875780D01*
X103025208Y-111870651D01*
X103070970Y-111862097D01*
X103112062Y-111862097D01*
X103158666Y-111857507D01*
X103205270Y-111862097D01*
G37*
G36*
X106618183Y-111861389D02*
G01*
X106634728Y-111872445D01*
X106645784Y-111888990D01*
X106649666Y-111908507D01*
X106649666Y-113708507D01*
X106645784Y-113728024D01*
X106634728Y-113744569D01*
X106618183Y-113755625D01*
X106598666Y-113759507D01*
X104798666Y-113759507D01*
X104779149Y-113755625D01*
X104762604Y-113744569D01*
X104751548Y-113728024D01*
X104747666Y-113708507D01*
X104747666Y-111908507D01*
X104751548Y-111888990D01*
X104762604Y-111872445D01*
X104779149Y-111861389D01*
X104798666Y-111857507D01*
X106598666Y-111857507D01*
X106618183Y-111861389D01*
G37*
G36*
X141894118Y-109335747D02*
G01*
X141937469Y-109335747D01*
X141973979Y-109344745D01*
X142003686Y-109348093D01*
X142042108Y-109361537D01*
X142089848Y-109373304D01*
X142118077Y-109388120D01*
X142141114Y-109396181D01*
X142180051Y-109420647D01*
X142228810Y-109446238D01*
X142248401Y-109463594D01*
X142264395Y-109473644D01*
X142300505Y-109509754D01*
X142346280Y-109550307D01*
X142357917Y-109567166D01*
X142367355Y-109576604D01*
X142397024Y-109623823D01*
X142435432Y-109679465D01*
X142440676Y-109693294D01*
X142444818Y-109699885D01*
X142464403Y-109755857D01*
X142491083Y-109826206D01*
X142492179Y-109835236D01*
X142492906Y-109837313D01*
X142499017Y-109891552D01*
X142510000Y-109982000D01*
X142499016Y-110072455D01*
X142492906Y-110126686D01*
X142492179Y-110128761D01*
X142491083Y-110137794D01*
X142464398Y-110208154D01*
X142444818Y-110264114D01*
X142440677Y-110270703D01*
X142435432Y-110284535D01*
X142397017Y-110340186D01*
X142367355Y-110387395D01*
X142357919Y-110396830D01*
X142346280Y-110413693D01*
X142300496Y-110454253D01*
X142264395Y-110490355D01*
X142248405Y-110500401D01*
X142228810Y-110517762D01*
X142180040Y-110543358D01*
X142141117Y-110567816D01*
X142118088Y-110575873D01*
X142089848Y-110590696D01*
X142042089Y-110602467D01*
X141983761Y-110622877D01*
X142019121Y-110831000D01*
X142459000Y-110831000D01*
X142478517Y-110834882D01*
X142495062Y-110845938D01*
X142506118Y-110862483D01*
X142510000Y-110882000D01*
X142510000Y-112082000D01*
X142506118Y-112101517D01*
X142495062Y-112118062D01*
X142478517Y-112129118D01*
X142459000Y-112133000D01*
X141259000Y-112133000D01*
X141239483Y-112129118D01*
X141222938Y-112118062D01*
X141211882Y-112101517D01*
X141208000Y-112082000D01*
X141208000Y-110882000D01*
X141211882Y-110862483D01*
X141222938Y-110845938D01*
X141239483Y-110834882D01*
X141259000Y-110831000D01*
X141698879Y-110831000D01*
X141734239Y-110622877D01*
X141675909Y-110602466D01*
X141628152Y-110590696D01*
X141599913Y-110575874D01*
X141576882Y-110567816D01*
X141537952Y-110543355D01*
X141489190Y-110517762D01*
X141469596Y-110500403D01*
X141453604Y-110490355D01*
X141417494Y-110454245D01*
X141371720Y-110413693D01*
X141360082Y-110396833D01*
X141350644Y-110387395D01*
X141320970Y-110340170D01*
X141282568Y-110284535D01*
X141277323Y-110270707D01*
X141273181Y-110264114D01*
X141253588Y-110208120D01*
X141226917Y-110137794D01*
X141225820Y-110128765D01*
X141225093Y-110126686D01*
X141218969Y-110072340D01*
X141208000Y-109982000D01*
X141218968Y-109891667D01*
X141225093Y-109837313D01*
X141225820Y-109835232D01*
X141226917Y-109826206D01*
X141253583Y-109755891D01*
X141273181Y-109699885D01*
X141277324Y-109693290D01*
X141282568Y-109679465D01*
X141320963Y-109623839D01*
X141350644Y-109576604D01*
X141360085Y-109567162D01*
X141371720Y-109550307D01*
X141417486Y-109509761D01*
X141453604Y-109473644D01*
X141469600Y-109463592D01*
X141489190Y-109446238D01*
X141537942Y-109420650D01*
X141576885Y-109396181D01*
X141599924Y-109388119D01*
X141628152Y-109373304D01*
X141675887Y-109361538D01*
X141714313Y-109348093D01*
X141744021Y-109344745D01*
X141780531Y-109335747D01*
X141823882Y-109335747D01*
X141859000Y-109331790D01*
X141894118Y-109335747D01*
G37*
G36*
X177572738Y-108997417D02*
G01*
X177618723Y-108997417D01*
X177669939Y-109006990D01*
X177726840Y-109012595D01*
X177770061Y-109025706D01*
X177809274Y-109033036D01*
X177863585Y-109054076D01*
X177924000Y-109072403D01*
X177958520Y-109090854D01*
X177990032Y-109103062D01*
X178044777Y-109136959D01*
X178105704Y-109169525D01*
X178131306Y-109190536D01*
X178154848Y-109205113D01*
X178207012Y-109252667D01*
X178264969Y-109300231D01*
X178282142Y-109321157D01*
X178298101Y-109335705D01*
X178344429Y-109397053D01*
X178395675Y-109459496D01*
X178405583Y-109478034D01*
X178414922Y-109490400D01*
X178452074Y-109565013D01*
X178492797Y-109641200D01*
X178497140Y-109655517D01*
X178501328Y-109663928D01*
X178526067Y-109750876D01*
X178552605Y-109838360D01*
X178553476Y-109847211D01*
X178554377Y-109850375D01*
X178563738Y-109951402D01*
X178572800Y-110043400D01*
X178563738Y-110135405D01*
X178554377Y-110236424D01*
X178553476Y-110239587D01*
X178552605Y-110248440D01*
X178526062Y-110335938D01*
X178501328Y-110422871D01*
X178497141Y-110431279D01*
X178492797Y-110445600D01*
X178452067Y-110521799D01*
X178414922Y-110596399D01*
X178405585Y-110608762D01*
X178395675Y-110627304D01*
X178344420Y-110689757D01*
X178298101Y-110751094D01*
X178282145Y-110765638D01*
X178264969Y-110786569D01*
X178207001Y-110834141D01*
X178154848Y-110881686D01*
X178131311Y-110896259D01*
X178105704Y-110917275D01*
X178044765Y-110949847D01*
X177990032Y-110983737D01*
X177958526Y-110995942D01*
X177924000Y-111014397D01*
X177863573Y-111032727D01*
X177809274Y-111053763D01*
X177770068Y-111061091D01*
X177726840Y-111074205D01*
X177669936Y-111079809D01*
X177618723Y-111089383D01*
X177572738Y-111089383D01*
X177521800Y-111094400D01*
X177470862Y-111089383D01*
X177424877Y-111089383D01*
X177373663Y-111079809D01*
X177316760Y-111074205D01*
X177273532Y-111061092D01*
X177234325Y-111053763D01*
X177180021Y-111032725D01*
X177119600Y-111014397D01*
X177085075Y-110995943D01*
X177053567Y-110983737D01*
X176998827Y-110949843D01*
X176937896Y-110917275D01*
X176912291Y-110896261D01*
X176888751Y-110881686D01*
X176836588Y-110834133D01*
X176778631Y-110786569D01*
X176761456Y-110765642D01*
X176745498Y-110751094D01*
X176699167Y-110689742D01*
X176647925Y-110627304D01*
X176638016Y-110608766D01*
X176628677Y-110596399D01*
X176591517Y-110521772D01*
X176550803Y-110445600D01*
X176546460Y-110431284D01*
X176542271Y-110422871D01*
X176517521Y-110335885D01*
X176490995Y-110248440D01*
X176490123Y-110239592D01*
X176489222Y-110236424D01*
X176479844Y-110135233D01*
X176470800Y-110043400D01*
X176479844Y-109951573D01*
X176489222Y-109850375D01*
X176490123Y-109847205D01*
X176490995Y-109838360D01*
X176517516Y-109750929D01*
X176542271Y-109663928D01*
X176546461Y-109655512D01*
X176550803Y-109641200D01*
X176591510Y-109565041D01*
X176628677Y-109490400D01*
X176638018Y-109478029D01*
X176647925Y-109459496D01*
X176699157Y-109397068D01*
X176745498Y-109335705D01*
X176761460Y-109321153D01*
X176778631Y-109300231D01*
X176836577Y-109252675D01*
X176888751Y-109205113D01*
X176912296Y-109190534D01*
X176937896Y-109169525D01*
X176998815Y-109136963D01*
X177053567Y-109103062D01*
X177085082Y-109090852D01*
X177119600Y-109072403D01*
X177180009Y-109054077D01*
X177234325Y-109033036D01*
X177273539Y-109025705D01*
X177316760Y-109012595D01*
X177373660Y-109006990D01*
X177424877Y-108997417D01*
X177470862Y-108997417D01*
X177521800Y-108992400D01*
X177572738Y-108997417D01*
G37*
G36*
X184072738Y-108997417D02*
G01*
X184118723Y-108997417D01*
X184169939Y-109006990D01*
X184226840Y-109012595D01*
X184270061Y-109025706D01*
X184309274Y-109033036D01*
X184363585Y-109054076D01*
X184424000Y-109072403D01*
X184458520Y-109090854D01*
X184490032Y-109103062D01*
X184544777Y-109136959D01*
X184605704Y-109169525D01*
X184631306Y-109190536D01*
X184654848Y-109205113D01*
X184707012Y-109252667D01*
X184764969Y-109300231D01*
X184782142Y-109321157D01*
X184798101Y-109335705D01*
X184844429Y-109397053D01*
X184895675Y-109459496D01*
X184905583Y-109478034D01*
X184914922Y-109490400D01*
X184952074Y-109565013D01*
X184992797Y-109641200D01*
X184997140Y-109655517D01*
X185001328Y-109663928D01*
X185026067Y-109750876D01*
X185052605Y-109838360D01*
X185053476Y-109847211D01*
X185054377Y-109850375D01*
X185063738Y-109951402D01*
X185072800Y-110043400D01*
X185063738Y-110135405D01*
X185054377Y-110236424D01*
X185053476Y-110239587D01*
X185052605Y-110248440D01*
X185026062Y-110335938D01*
X185001328Y-110422871D01*
X184997141Y-110431279D01*
X184992797Y-110445600D01*
X184952067Y-110521799D01*
X184914922Y-110596399D01*
X184905585Y-110608762D01*
X184895675Y-110627304D01*
X184844420Y-110689757D01*
X184798101Y-110751094D01*
X184782145Y-110765638D01*
X184764969Y-110786569D01*
X184707001Y-110834141D01*
X184654848Y-110881686D01*
X184631311Y-110896259D01*
X184605704Y-110917275D01*
X184544765Y-110949847D01*
X184490032Y-110983737D01*
X184458526Y-110995942D01*
X184424000Y-111014397D01*
X184363573Y-111032727D01*
X184309274Y-111053763D01*
X184270068Y-111061091D01*
X184226840Y-111074205D01*
X184169936Y-111079809D01*
X184118723Y-111089383D01*
X184072738Y-111089383D01*
X184021800Y-111094400D01*
X183970862Y-111089383D01*
X183924877Y-111089383D01*
X183873663Y-111079809D01*
X183816760Y-111074205D01*
X183773532Y-111061092D01*
X183734325Y-111053763D01*
X183680021Y-111032725D01*
X183619600Y-111014397D01*
X183585075Y-110995943D01*
X183553567Y-110983737D01*
X183498827Y-110949843D01*
X183437896Y-110917275D01*
X183412291Y-110896261D01*
X183388751Y-110881686D01*
X183336588Y-110834133D01*
X183278631Y-110786569D01*
X183261456Y-110765642D01*
X183245498Y-110751094D01*
X183199167Y-110689742D01*
X183147925Y-110627304D01*
X183138016Y-110608766D01*
X183128677Y-110596399D01*
X183091517Y-110521772D01*
X183050803Y-110445600D01*
X183046460Y-110431284D01*
X183042271Y-110422871D01*
X183017521Y-110335885D01*
X182990995Y-110248440D01*
X182990123Y-110239592D01*
X182989222Y-110236424D01*
X182979844Y-110135233D01*
X182970800Y-110043400D01*
X182979844Y-109951573D01*
X182989222Y-109850375D01*
X182990123Y-109847205D01*
X182990995Y-109838360D01*
X183017516Y-109750929D01*
X183042271Y-109663928D01*
X183046461Y-109655512D01*
X183050803Y-109641200D01*
X183091510Y-109565041D01*
X183128677Y-109490400D01*
X183138018Y-109478029D01*
X183147925Y-109459496D01*
X183199157Y-109397068D01*
X183245498Y-109335705D01*
X183261460Y-109321153D01*
X183278631Y-109300231D01*
X183336577Y-109252675D01*
X183388751Y-109205113D01*
X183412296Y-109190534D01*
X183437896Y-109169525D01*
X183498815Y-109136963D01*
X183553567Y-109103062D01*
X183585082Y-109090852D01*
X183619600Y-109072403D01*
X183680009Y-109054077D01*
X183734325Y-109033036D01*
X183773539Y-109025705D01*
X183816760Y-109012595D01*
X183873660Y-109006990D01*
X183924877Y-108997417D01*
X183970862Y-108997417D01*
X184021800Y-108992400D01*
X184072738Y-108997417D01*
G37*
G36*
X145440125Y-105590142D02*
G01*
X145451446Y-105590142D01*
X145484065Y-105598882D01*
X145547284Y-105611457D01*
X145577120Y-105623815D01*
X145602993Y-105630748D01*
X145626189Y-105644140D01*
X145656023Y-105656498D01*
X145709614Y-105692306D01*
X145738866Y-105709195D01*
X145746872Y-105717201D01*
X145753885Y-105721887D01*
X145837112Y-105805114D01*
X145841797Y-105812126D01*
X145849805Y-105820134D01*
X145866695Y-105849389D01*
X145902501Y-105902976D01*
X145914857Y-105932807D01*
X145928252Y-105956007D01*
X145935185Y-105981883D01*
X145947542Y-106011715D01*
X145960114Y-106074922D01*
X145968858Y-106107554D01*
X145968898Y-106119080D01*
X145970532Y-106127295D01*
X145973992Y-107583094D01*
X145973990Y-107583134D01*
X145974000Y-107586000D01*
X145973398Y-107595183D01*
X145971107Y-107641815D01*
X145969965Y-107647555D01*
X145968858Y-107664446D01*
X145960114Y-107697077D01*
X145947542Y-107760284D01*
X145935186Y-107790113D01*
X145928252Y-107815993D01*
X145914855Y-107839195D01*
X145902501Y-107869023D01*
X145866700Y-107922603D01*
X145849805Y-107951866D01*
X145841795Y-107959875D01*
X145837112Y-107966885D01*
X145753885Y-108050112D01*
X145746875Y-108054795D01*
X145738866Y-108062805D01*
X145709603Y-108079700D01*
X145656023Y-108115501D01*
X145626195Y-108127855D01*
X145602993Y-108141252D01*
X145577113Y-108148186D01*
X145547284Y-108160542D01*
X145484072Y-108173115D01*
X145451446Y-108181858D01*
X145440125Y-108181858D01*
X145431850Y-108183504D01*
X145314150Y-108183504D01*
X145305875Y-108181858D01*
X145294554Y-108181858D01*
X145261928Y-108173116D01*
X145198715Y-108160542D01*
X145168883Y-108148185D01*
X145143007Y-108141252D01*
X145119807Y-108127857D01*
X145089976Y-108115501D01*
X145036389Y-108079695D01*
X145007134Y-108062805D01*
X144999126Y-108054797D01*
X144992114Y-108050112D01*
X144908887Y-107966885D01*
X144904201Y-107959872D01*
X144896195Y-107951866D01*
X144879306Y-107922614D01*
X144843498Y-107869023D01*
X144831140Y-107839189D01*
X144817748Y-107815993D01*
X144810815Y-107790120D01*
X144798457Y-107760284D01*
X144785882Y-107697066D01*
X144777142Y-107664446D01*
X144777101Y-107652923D01*
X144775467Y-107644704D01*
X144772007Y-106188905D01*
X144772009Y-106188846D01*
X144772000Y-106186000D01*
X144772597Y-106176880D01*
X144774892Y-106130184D01*
X144776035Y-106124435D01*
X144777142Y-106107554D01*
X144785880Y-106074939D01*
X144798457Y-106011715D01*
X144810816Y-105981876D01*
X144817748Y-105956007D01*
X144831139Y-105932813D01*
X144843498Y-105902976D01*
X144879310Y-105849378D01*
X144896195Y-105820134D01*
X144904199Y-105812129D01*
X144908887Y-105805114D01*
X144992114Y-105721887D01*
X144999129Y-105717199D01*
X145007134Y-105709195D01*
X145036378Y-105692310D01*
X145089976Y-105656498D01*
X145119813Y-105644139D01*
X145143007Y-105630748D01*
X145168876Y-105623816D01*
X145198715Y-105611457D01*
X145261935Y-105598881D01*
X145294554Y-105590142D01*
X145305875Y-105590142D01*
X145314150Y-105588496D01*
X145431850Y-105588496D01*
X145440125Y-105590142D01*
G37*
G36*
X147440125Y-105590142D02*
G01*
X147451446Y-105590142D01*
X147484065Y-105598882D01*
X147547284Y-105611457D01*
X147577120Y-105623815D01*
X147602993Y-105630748D01*
X147626189Y-105644140D01*
X147656023Y-105656498D01*
X147709614Y-105692306D01*
X147738866Y-105709195D01*
X147746872Y-105717201D01*
X147753885Y-105721887D01*
X147837112Y-105805114D01*
X147841797Y-105812126D01*
X147849805Y-105820134D01*
X147866695Y-105849389D01*
X147902501Y-105902976D01*
X147914857Y-105932807D01*
X147928252Y-105956007D01*
X147935185Y-105981883D01*
X147947542Y-106011715D01*
X147960114Y-106074922D01*
X147968858Y-106107554D01*
X147968898Y-106119080D01*
X147970532Y-106127295D01*
X147973992Y-107583094D01*
X147973990Y-107583134D01*
X147974000Y-107586000D01*
X147973398Y-107595183D01*
X147971107Y-107641815D01*
X147969965Y-107647555D01*
X147968858Y-107664446D01*
X147960114Y-107697077D01*
X147947542Y-107760284D01*
X147935186Y-107790113D01*
X147928252Y-107815993D01*
X147914855Y-107839195D01*
X147902501Y-107869023D01*
X147866700Y-107922603D01*
X147849805Y-107951866D01*
X147841795Y-107959875D01*
X147837112Y-107966885D01*
X147753885Y-108050112D01*
X147746875Y-108054795D01*
X147738866Y-108062805D01*
X147709603Y-108079700D01*
X147656023Y-108115501D01*
X147626195Y-108127855D01*
X147602993Y-108141252D01*
X147577113Y-108148186D01*
X147547284Y-108160542D01*
X147484072Y-108173115D01*
X147451446Y-108181858D01*
X147440125Y-108181858D01*
X147431850Y-108183504D01*
X147314150Y-108183504D01*
X147305875Y-108181858D01*
X147294554Y-108181858D01*
X147261928Y-108173116D01*
X147198715Y-108160542D01*
X147168883Y-108148185D01*
X147143007Y-108141252D01*
X147119807Y-108127857D01*
X147089976Y-108115501D01*
X147036389Y-108079695D01*
X147007134Y-108062805D01*
X146999126Y-108054797D01*
X146992114Y-108050112D01*
X146908887Y-107966885D01*
X146904201Y-107959872D01*
X146896195Y-107951866D01*
X146879306Y-107922614D01*
X146843498Y-107869023D01*
X146831140Y-107839189D01*
X146817748Y-107815993D01*
X146810815Y-107790120D01*
X146798457Y-107760284D01*
X146785882Y-107697066D01*
X146777142Y-107664446D01*
X146777101Y-107652923D01*
X146775467Y-107644704D01*
X146772007Y-106188905D01*
X146772009Y-106188846D01*
X146772000Y-106186000D01*
X146772597Y-106176880D01*
X146774892Y-106130184D01*
X146776035Y-106124435D01*
X146777142Y-106107554D01*
X146785880Y-106074939D01*
X146798457Y-106011715D01*
X146810816Y-105981876D01*
X146817748Y-105956007D01*
X146831139Y-105932813D01*
X146843498Y-105902976D01*
X146879310Y-105849378D01*
X146896195Y-105820134D01*
X146904199Y-105812129D01*
X146908887Y-105805114D01*
X146992114Y-105721887D01*
X146999129Y-105717199D01*
X147007134Y-105709195D01*
X147036378Y-105692310D01*
X147089976Y-105656498D01*
X147119813Y-105644139D01*
X147143007Y-105630748D01*
X147168876Y-105623816D01*
X147198715Y-105611457D01*
X147261935Y-105598881D01*
X147294554Y-105590142D01*
X147305875Y-105590142D01*
X147314150Y-105588496D01*
X147431850Y-105588496D01*
X147440125Y-105590142D01*
G37*
G36*
X149440125Y-105590142D02*
G01*
X149451446Y-105590142D01*
X149484065Y-105598882D01*
X149547284Y-105611457D01*
X149577120Y-105623815D01*
X149602993Y-105630748D01*
X149626189Y-105644140D01*
X149656023Y-105656498D01*
X149709614Y-105692306D01*
X149738866Y-105709195D01*
X149746872Y-105717201D01*
X149753885Y-105721887D01*
X149837112Y-105805114D01*
X149841797Y-105812126D01*
X149849805Y-105820134D01*
X149866695Y-105849389D01*
X149902501Y-105902976D01*
X149914857Y-105932807D01*
X149928252Y-105956007D01*
X149935185Y-105981883D01*
X149947542Y-106011715D01*
X149960114Y-106074922D01*
X149968858Y-106107554D01*
X149968898Y-106119080D01*
X149970532Y-106127295D01*
X149973992Y-107583094D01*
X149973990Y-107583134D01*
X149974000Y-107586000D01*
X149973398Y-107595183D01*
X149971107Y-107641815D01*
X149969965Y-107647555D01*
X149968858Y-107664446D01*
X149960114Y-107697077D01*
X149947542Y-107760284D01*
X149935186Y-107790113D01*
X149928252Y-107815993D01*
X149914855Y-107839195D01*
X149902501Y-107869023D01*
X149866700Y-107922603D01*
X149849805Y-107951866D01*
X149841795Y-107959875D01*
X149837112Y-107966885D01*
X149753885Y-108050112D01*
X149746875Y-108054795D01*
X149738866Y-108062805D01*
X149709603Y-108079700D01*
X149656023Y-108115501D01*
X149626195Y-108127855D01*
X149602993Y-108141252D01*
X149577113Y-108148186D01*
X149547284Y-108160542D01*
X149484072Y-108173115D01*
X149451446Y-108181858D01*
X149440125Y-108181858D01*
X149431850Y-108183504D01*
X149314150Y-108183504D01*
X149305875Y-108181858D01*
X149294554Y-108181858D01*
X149261928Y-108173116D01*
X149198715Y-108160542D01*
X149168883Y-108148185D01*
X149143007Y-108141252D01*
X149119807Y-108127857D01*
X149089976Y-108115501D01*
X149036389Y-108079695D01*
X149007134Y-108062805D01*
X148999126Y-108054797D01*
X148992114Y-108050112D01*
X148908887Y-107966885D01*
X148904201Y-107959872D01*
X148896195Y-107951866D01*
X148879306Y-107922614D01*
X148843498Y-107869023D01*
X148831140Y-107839189D01*
X148817748Y-107815993D01*
X148810815Y-107790120D01*
X148798457Y-107760284D01*
X148785882Y-107697066D01*
X148777142Y-107664446D01*
X148777101Y-107652923D01*
X148775467Y-107644704D01*
X148772007Y-106188905D01*
X148772009Y-106188846D01*
X148772000Y-106186000D01*
X148772597Y-106176880D01*
X148774892Y-106130184D01*
X148776035Y-106124435D01*
X148777142Y-106107554D01*
X148785880Y-106074939D01*
X148798457Y-106011715D01*
X148810816Y-105981876D01*
X148817748Y-105956007D01*
X148831139Y-105932813D01*
X148843498Y-105902976D01*
X148879310Y-105849378D01*
X148896195Y-105820134D01*
X148904199Y-105812129D01*
X148908887Y-105805114D01*
X148992114Y-105721887D01*
X148999129Y-105717199D01*
X149007134Y-105709195D01*
X149036378Y-105692310D01*
X149089976Y-105656498D01*
X149119813Y-105644139D01*
X149143007Y-105630748D01*
X149168876Y-105623816D01*
X149198715Y-105611457D01*
X149261935Y-105598881D01*
X149294554Y-105590142D01*
X149305875Y-105590142D01*
X149314150Y-105588496D01*
X149431850Y-105588496D01*
X149440125Y-105590142D01*
G37*
G36*
X151440125Y-105590142D02*
G01*
X151451446Y-105590142D01*
X151484065Y-105598882D01*
X151547284Y-105611457D01*
X151577120Y-105623815D01*
X151602993Y-105630748D01*
X151626189Y-105644140D01*
X151656023Y-105656498D01*
X151709614Y-105692306D01*
X151738866Y-105709195D01*
X151746872Y-105717201D01*
X151753885Y-105721887D01*
X151837112Y-105805114D01*
X151841797Y-105812126D01*
X151849805Y-105820134D01*
X151866695Y-105849389D01*
X151902501Y-105902976D01*
X151914857Y-105932807D01*
X151928252Y-105956007D01*
X151935185Y-105981883D01*
X151947542Y-106011715D01*
X151960114Y-106074922D01*
X151968858Y-106107554D01*
X151968898Y-106119080D01*
X151970532Y-106127295D01*
X151973992Y-107583094D01*
X151973990Y-107583134D01*
X151974000Y-107586000D01*
X151973398Y-107595183D01*
X151971107Y-107641815D01*
X151969965Y-107647555D01*
X151968858Y-107664446D01*
X151960114Y-107697077D01*
X151947542Y-107760284D01*
X151935186Y-107790113D01*
X151928252Y-107815993D01*
X151914855Y-107839195D01*
X151902501Y-107869023D01*
X151866700Y-107922603D01*
X151849805Y-107951866D01*
X151841795Y-107959875D01*
X151837112Y-107966885D01*
X151753885Y-108050112D01*
X151746875Y-108054795D01*
X151738866Y-108062805D01*
X151709603Y-108079700D01*
X151656023Y-108115501D01*
X151626195Y-108127855D01*
X151602993Y-108141252D01*
X151577113Y-108148186D01*
X151547284Y-108160542D01*
X151484072Y-108173115D01*
X151451446Y-108181858D01*
X151440125Y-108181858D01*
X151431850Y-108183504D01*
X151314150Y-108183504D01*
X151305875Y-108181858D01*
X151294554Y-108181858D01*
X151261928Y-108173116D01*
X151198715Y-108160542D01*
X151168883Y-108148185D01*
X151143007Y-108141252D01*
X151119807Y-108127857D01*
X151089976Y-108115501D01*
X151036389Y-108079695D01*
X151007134Y-108062805D01*
X150999126Y-108054797D01*
X150992114Y-108050112D01*
X150908887Y-107966885D01*
X150904201Y-107959872D01*
X150896195Y-107951866D01*
X150879306Y-107922614D01*
X150843498Y-107869023D01*
X150831140Y-107839189D01*
X150817748Y-107815993D01*
X150810815Y-107790120D01*
X150798457Y-107760284D01*
X150785882Y-107697066D01*
X150777142Y-107664446D01*
X150777101Y-107652923D01*
X150775467Y-107644704D01*
X150772007Y-106188905D01*
X150772009Y-106188846D01*
X150772000Y-106186000D01*
X150772597Y-106176880D01*
X150774892Y-106130184D01*
X150776035Y-106124435D01*
X150777142Y-106107554D01*
X150785880Y-106074939D01*
X150798457Y-106011715D01*
X150810816Y-105981876D01*
X150817748Y-105956007D01*
X150831139Y-105932813D01*
X150843498Y-105902976D01*
X150879310Y-105849378D01*
X150896195Y-105820134D01*
X150904199Y-105812129D01*
X150908887Y-105805114D01*
X150992114Y-105721887D01*
X150999129Y-105717199D01*
X151007134Y-105709195D01*
X151036378Y-105692310D01*
X151089976Y-105656498D01*
X151119813Y-105644139D01*
X151143007Y-105630748D01*
X151168876Y-105623816D01*
X151198715Y-105611457D01*
X151261935Y-105598881D01*
X151294554Y-105590142D01*
X151305875Y-105590142D01*
X151314150Y-105588496D01*
X151431850Y-105588496D01*
X151440125Y-105590142D01*
G37*
G36*
X153440125Y-105590142D02*
G01*
X153451446Y-105590142D01*
X153484065Y-105598882D01*
X153547284Y-105611457D01*
X153577120Y-105623815D01*
X153602993Y-105630748D01*
X153626189Y-105644140D01*
X153656023Y-105656498D01*
X153709614Y-105692306D01*
X153738866Y-105709195D01*
X153746872Y-105717201D01*
X153753885Y-105721887D01*
X153837112Y-105805114D01*
X153841797Y-105812126D01*
X153849805Y-105820134D01*
X153866695Y-105849389D01*
X153902501Y-105902976D01*
X153914857Y-105932807D01*
X153928252Y-105956007D01*
X153935185Y-105981883D01*
X153947542Y-106011715D01*
X153960114Y-106074922D01*
X153968858Y-106107554D01*
X153968898Y-106119080D01*
X153970532Y-106127295D01*
X153973992Y-107583094D01*
X153973990Y-107583134D01*
X153974000Y-107586000D01*
X153973398Y-107595183D01*
X153971107Y-107641815D01*
X153969965Y-107647555D01*
X153968858Y-107664446D01*
X153960114Y-107697077D01*
X153947542Y-107760284D01*
X153935186Y-107790113D01*
X153928252Y-107815993D01*
X153914855Y-107839195D01*
X153902501Y-107869023D01*
X153866700Y-107922603D01*
X153849805Y-107951866D01*
X153841795Y-107959875D01*
X153837112Y-107966885D01*
X153753885Y-108050112D01*
X153746875Y-108054795D01*
X153738866Y-108062805D01*
X153709603Y-108079700D01*
X153656023Y-108115501D01*
X153626195Y-108127855D01*
X153602993Y-108141252D01*
X153577113Y-108148186D01*
X153547284Y-108160542D01*
X153484072Y-108173115D01*
X153451446Y-108181858D01*
X153440125Y-108181858D01*
X153431850Y-108183504D01*
X153314150Y-108183504D01*
X153305875Y-108181858D01*
X153294554Y-108181858D01*
X153261928Y-108173116D01*
X153198715Y-108160542D01*
X153168883Y-108148185D01*
X153143007Y-108141252D01*
X153119807Y-108127857D01*
X153089976Y-108115501D01*
X153036389Y-108079695D01*
X153007134Y-108062805D01*
X152999126Y-108054797D01*
X152992114Y-108050112D01*
X152908887Y-107966885D01*
X152904201Y-107959872D01*
X152896195Y-107951866D01*
X152879306Y-107922614D01*
X152843498Y-107869023D01*
X152831140Y-107839189D01*
X152817748Y-107815993D01*
X152810815Y-107790120D01*
X152798457Y-107760284D01*
X152785882Y-107697066D01*
X152777142Y-107664446D01*
X152777101Y-107652923D01*
X152775467Y-107644704D01*
X152772007Y-106188905D01*
X152772009Y-106188846D01*
X152772000Y-106186000D01*
X152772597Y-106176880D01*
X152774892Y-106130184D01*
X152776035Y-106124435D01*
X152777142Y-106107554D01*
X152785880Y-106074939D01*
X152798457Y-106011715D01*
X152810816Y-105981876D01*
X152817748Y-105956007D01*
X152831139Y-105932813D01*
X152843498Y-105902976D01*
X152879310Y-105849378D01*
X152896195Y-105820134D01*
X152904199Y-105812129D01*
X152908887Y-105805114D01*
X152992114Y-105721887D01*
X152999129Y-105717199D01*
X153007134Y-105709195D01*
X153036378Y-105692310D01*
X153089976Y-105656498D01*
X153119813Y-105644139D01*
X153143007Y-105630748D01*
X153168876Y-105623816D01*
X153198715Y-105611457D01*
X153261935Y-105598881D01*
X153294554Y-105590142D01*
X153305875Y-105590142D01*
X153314150Y-105588496D01*
X153431850Y-105588496D01*
X153440125Y-105590142D01*
G37*
G36*
X155440125Y-105590142D02*
G01*
X155451446Y-105590142D01*
X155484065Y-105598882D01*
X155547284Y-105611457D01*
X155577120Y-105623815D01*
X155602993Y-105630748D01*
X155626189Y-105644140D01*
X155656023Y-105656498D01*
X155709614Y-105692306D01*
X155738866Y-105709195D01*
X155746872Y-105717201D01*
X155753885Y-105721887D01*
X155837112Y-105805114D01*
X155841797Y-105812126D01*
X155849805Y-105820134D01*
X155866695Y-105849389D01*
X155902501Y-105902976D01*
X155914857Y-105932807D01*
X155928252Y-105956007D01*
X155935185Y-105981883D01*
X155947542Y-106011715D01*
X155960114Y-106074922D01*
X155968858Y-106107554D01*
X155968898Y-106119080D01*
X155970532Y-106127295D01*
X155973992Y-107583094D01*
X155973990Y-107583134D01*
X155974000Y-107586000D01*
X155973398Y-107595183D01*
X155971107Y-107641815D01*
X155969965Y-107647555D01*
X155968858Y-107664446D01*
X155960114Y-107697077D01*
X155947542Y-107760284D01*
X155935186Y-107790113D01*
X155928252Y-107815993D01*
X155914855Y-107839195D01*
X155902501Y-107869023D01*
X155866700Y-107922603D01*
X155849805Y-107951866D01*
X155841795Y-107959875D01*
X155837112Y-107966885D01*
X155753885Y-108050112D01*
X155746875Y-108054795D01*
X155738866Y-108062805D01*
X155709603Y-108079700D01*
X155656023Y-108115501D01*
X155626195Y-108127855D01*
X155602993Y-108141252D01*
X155577113Y-108148186D01*
X155547284Y-108160542D01*
X155484072Y-108173115D01*
X155451446Y-108181858D01*
X155440125Y-108181858D01*
X155431850Y-108183504D01*
X155314150Y-108183504D01*
X155305875Y-108181858D01*
X155294554Y-108181858D01*
X155261928Y-108173116D01*
X155198715Y-108160542D01*
X155168883Y-108148185D01*
X155143007Y-108141252D01*
X155119807Y-108127857D01*
X155089976Y-108115501D01*
X155036389Y-108079695D01*
X155007134Y-108062805D01*
X154999126Y-108054797D01*
X154992114Y-108050112D01*
X154908887Y-107966885D01*
X154904201Y-107959872D01*
X154896195Y-107951866D01*
X154879306Y-107922614D01*
X154843498Y-107869023D01*
X154831140Y-107839189D01*
X154817748Y-107815993D01*
X154810815Y-107790120D01*
X154798457Y-107760284D01*
X154785882Y-107697066D01*
X154777142Y-107664446D01*
X154777101Y-107652923D01*
X154775467Y-107644704D01*
X154772007Y-106188905D01*
X154772009Y-106188846D01*
X154772000Y-106186000D01*
X154772597Y-106176880D01*
X154774892Y-106130184D01*
X154776035Y-106124435D01*
X154777142Y-106107554D01*
X154785880Y-106074939D01*
X154798457Y-106011715D01*
X154810816Y-105981876D01*
X154817748Y-105956007D01*
X154831139Y-105932813D01*
X154843498Y-105902976D01*
X154879310Y-105849378D01*
X154896195Y-105820134D01*
X154904199Y-105812129D01*
X154908887Y-105805114D01*
X154992114Y-105721887D01*
X154999129Y-105717199D01*
X155007134Y-105709195D01*
X155036378Y-105692310D01*
X155089976Y-105656498D01*
X155119813Y-105644139D01*
X155143007Y-105630748D01*
X155168876Y-105623816D01*
X155198715Y-105611457D01*
X155261935Y-105598881D01*
X155294554Y-105590142D01*
X155305875Y-105590142D01*
X155314150Y-105588496D01*
X155431850Y-105588496D01*
X155440125Y-105590142D01*
G37*
G36*
X100792270Y-104877097D02*
G01*
X100833362Y-104877097D01*
X100879122Y-104885651D01*
X100931197Y-104890780D01*
X100970757Y-104902780D01*
X101005777Y-104909327D01*
X101054283Y-104928118D01*
X101109598Y-104944898D01*
X101141200Y-104961789D01*
X101169322Y-104972684D01*
X101218179Y-105002935D01*
X101274013Y-105032779D01*
X101297475Y-105052033D01*
X101318450Y-105065021D01*
X101364922Y-105107386D01*
X101418125Y-105151048D01*
X101433890Y-105170258D01*
X101448066Y-105183181D01*
X101489223Y-105237681D01*
X101536394Y-105295160D01*
X101545514Y-105312224D01*
X101553765Y-105323149D01*
X101586591Y-105389073D01*
X101624275Y-105459575D01*
X101628294Y-105472823D01*
X101631948Y-105480162D01*
X101653530Y-105556014D01*
X101678393Y-105637976D01*
X101679209Y-105646269D01*
X101679946Y-105648857D01*
X101687603Y-105731489D01*
X101696666Y-105823507D01*
X101687602Y-105915533D01*
X101679946Y-105998156D01*
X101679210Y-106000742D01*
X101678393Y-106009038D01*
X101653525Y-106091014D01*
X101631948Y-106166851D01*
X101628294Y-106174187D01*
X101624275Y-106187439D01*
X101586583Y-106257954D01*
X101553765Y-106323864D01*
X101545516Y-106334786D01*
X101536394Y-106351854D01*
X101489213Y-106409343D01*
X101448066Y-106463832D01*
X101433893Y-106476751D01*
X101418125Y-106495966D01*
X101364911Y-106539636D01*
X101318450Y-106581992D01*
X101297480Y-106594976D01*
X101274013Y-106614235D01*
X101218168Y-106644084D01*
X101169322Y-106674329D01*
X101141207Y-106685220D01*
X101109598Y-106702116D01*
X101054271Y-106718899D01*
X101005777Y-106737686D01*
X100970764Y-106744231D01*
X100931197Y-106756234D01*
X100879119Y-106761363D01*
X100833362Y-106769917D01*
X100792270Y-106769917D01*
X100745666Y-106774507D01*
X100699062Y-106769917D01*
X100657970Y-106769917D01*
X100612211Y-106761363D01*
X100560135Y-106756234D01*
X100520568Y-106744231D01*
X100485554Y-106737686D01*
X100437055Y-106718897D01*
X100381734Y-106702116D01*
X100350127Y-106685221D01*
X100322009Y-106674329D01*
X100273156Y-106644080D01*
X100217319Y-106614235D01*
X100193854Y-106594978D01*
X100172881Y-106581992D01*
X100126410Y-106539628D01*
X100073207Y-106495966D01*
X100057441Y-106476755D01*
X100043265Y-106463832D01*
X100002105Y-106409328D01*
X99954938Y-106351854D01*
X99945817Y-106334791D01*
X99937566Y-106323864D01*
X99904733Y-106257927D01*
X99867057Y-106187439D01*
X99863038Y-106174192D01*
X99859383Y-106166851D01*
X99837790Y-106090961D01*
X99812939Y-106009038D01*
X99812122Y-106000748D01*
X99811385Y-105998156D01*
X99803712Y-105915361D01*
X99794666Y-105823507D01*
X99803711Y-105731660D01*
X99811385Y-105648857D01*
X99812122Y-105646264D01*
X99812939Y-105637976D01*
X99837785Y-105556067D01*
X99859383Y-105480162D01*
X99863039Y-105472818D01*
X99867057Y-105459575D01*
X99904726Y-105389100D01*
X99937566Y-105323149D01*
X99945819Y-105312219D01*
X99954938Y-105295160D01*
X100002096Y-105237697D01*
X100043265Y-105183181D01*
X100057444Y-105170254D01*
X100073207Y-105151048D01*
X100126399Y-105107394D01*
X100172881Y-105065021D01*
X100193859Y-105052031D01*
X100217319Y-105032779D01*
X100273144Y-105002939D01*
X100322009Y-104972684D01*
X100350133Y-104961788D01*
X100381734Y-104944898D01*
X100437043Y-104928119D01*
X100485554Y-104909327D01*
X100520575Y-104902780D01*
X100560135Y-104890780D01*
X100612208Y-104885651D01*
X100657970Y-104877097D01*
X100699062Y-104877097D01*
X100745666Y-104872507D01*
X100792270Y-104877097D01*
G37*
G36*
X103332270Y-104877097D02*
G01*
X103373362Y-104877097D01*
X103419122Y-104885651D01*
X103471197Y-104890780D01*
X103510757Y-104902780D01*
X103545777Y-104909327D01*
X103594283Y-104928118D01*
X103649598Y-104944898D01*
X103681200Y-104961789D01*
X103709322Y-104972684D01*
X103758179Y-105002935D01*
X103814013Y-105032779D01*
X103837475Y-105052033D01*
X103858450Y-105065021D01*
X103904922Y-105107386D01*
X103958125Y-105151048D01*
X103973890Y-105170258D01*
X103988066Y-105183181D01*
X104029223Y-105237681D01*
X104076394Y-105295160D01*
X104085514Y-105312224D01*
X104093765Y-105323149D01*
X104126591Y-105389073D01*
X104164275Y-105459575D01*
X104168294Y-105472823D01*
X104171948Y-105480162D01*
X104193530Y-105556014D01*
X104218393Y-105637976D01*
X104219209Y-105646269D01*
X104219946Y-105648857D01*
X104227603Y-105731489D01*
X104236666Y-105823507D01*
X104227602Y-105915533D01*
X104219946Y-105998156D01*
X104219210Y-106000742D01*
X104218393Y-106009038D01*
X104193525Y-106091014D01*
X104171948Y-106166851D01*
X104168294Y-106174187D01*
X104164275Y-106187439D01*
X104126583Y-106257954D01*
X104093765Y-106323864D01*
X104085516Y-106334786D01*
X104076394Y-106351854D01*
X104029213Y-106409343D01*
X103988066Y-106463832D01*
X103973893Y-106476751D01*
X103958125Y-106495966D01*
X103904911Y-106539636D01*
X103858450Y-106581992D01*
X103837480Y-106594976D01*
X103814013Y-106614235D01*
X103758168Y-106644084D01*
X103709322Y-106674329D01*
X103681207Y-106685220D01*
X103649598Y-106702116D01*
X103594271Y-106718899D01*
X103545777Y-106737686D01*
X103510764Y-106744231D01*
X103471197Y-106756234D01*
X103419119Y-106761363D01*
X103373362Y-106769917D01*
X103332270Y-106769917D01*
X103285666Y-106774507D01*
X103239062Y-106769917D01*
X103197970Y-106769917D01*
X103152211Y-106761363D01*
X103100135Y-106756234D01*
X103060568Y-106744231D01*
X103025554Y-106737686D01*
X102977055Y-106718897D01*
X102921734Y-106702116D01*
X102890127Y-106685221D01*
X102862009Y-106674329D01*
X102813156Y-106644080D01*
X102757319Y-106614235D01*
X102733854Y-106594978D01*
X102712881Y-106581992D01*
X102666410Y-106539628D01*
X102613207Y-106495966D01*
X102597441Y-106476755D01*
X102583265Y-106463832D01*
X102542105Y-106409328D01*
X102494938Y-106351854D01*
X102485817Y-106334791D01*
X102477566Y-106323864D01*
X102444733Y-106257927D01*
X102407057Y-106187439D01*
X102403038Y-106174192D01*
X102399383Y-106166851D01*
X102377790Y-106090961D01*
X102352939Y-106009038D01*
X102352122Y-106000748D01*
X102351385Y-105998156D01*
X102343712Y-105915361D01*
X102334666Y-105823507D01*
X102343711Y-105731660D01*
X102351385Y-105648857D01*
X102352122Y-105646264D01*
X102352939Y-105637976D01*
X102377785Y-105556067D01*
X102399383Y-105480162D01*
X102403039Y-105472818D01*
X102407057Y-105459575D01*
X102444726Y-105389100D01*
X102477566Y-105323149D01*
X102485819Y-105312219D01*
X102494938Y-105295160D01*
X102542096Y-105237697D01*
X102583265Y-105183181D01*
X102597444Y-105170254D01*
X102613207Y-105151048D01*
X102666399Y-105107394D01*
X102712881Y-105065021D01*
X102733859Y-105052031D01*
X102757319Y-105032779D01*
X102813144Y-105002939D01*
X102862009Y-104972684D01*
X102890133Y-104961788D01*
X102921734Y-104944898D01*
X102977043Y-104928119D01*
X103025554Y-104909327D01*
X103060575Y-104902780D01*
X103100135Y-104890780D01*
X103152208Y-104885651D01*
X103197970Y-104877097D01*
X103239062Y-104877097D01*
X103285666Y-104872507D01*
X103332270Y-104877097D01*
G37*
G36*
X106745183Y-104876389D02*
G01*
X106761728Y-104887445D01*
X106772784Y-104903990D01*
X106776666Y-104923507D01*
X106776666Y-106723507D01*
X106772784Y-106743024D01*
X106761728Y-106759569D01*
X106745183Y-106770625D01*
X106725666Y-106774507D01*
X104925666Y-106774507D01*
X104906149Y-106770625D01*
X104889604Y-106759569D01*
X104878548Y-106743024D01*
X104874666Y-106723507D01*
X104874666Y-104923507D01*
X104878548Y-104903990D01*
X104889604Y-104887445D01*
X104906149Y-104876389D01*
X104925666Y-104872507D01*
X106725666Y-104872507D01*
X106745183Y-104876389D01*
G37*
G36*
X143392122Y-104585597D02*
G01*
X143438815Y-104587892D01*
X143444562Y-104589035D01*
X143461446Y-104590142D01*
X143494063Y-104598881D01*
X143557284Y-104611457D01*
X143587120Y-104623815D01*
X143612993Y-104630748D01*
X143636189Y-104644140D01*
X143666023Y-104656498D01*
X143719614Y-104692306D01*
X143748866Y-104709195D01*
X143756872Y-104717201D01*
X143763885Y-104721887D01*
X143847112Y-104805114D01*
X143851797Y-104812126D01*
X143859805Y-104820134D01*
X143876695Y-104849389D01*
X143912501Y-104902976D01*
X143924857Y-104932807D01*
X143938252Y-104956007D01*
X143945185Y-104981883D01*
X143957542Y-105011715D01*
X143970116Y-105074928D01*
X143978858Y-105107554D01*
X143978858Y-105118875D01*
X143980504Y-105127150D01*
X143980504Y-105244849D01*
X143978858Y-105253123D01*
X143978858Y-105264446D01*
X143970115Y-105297073D01*
X143957542Y-105360284D01*
X143945186Y-105390113D01*
X143938252Y-105415993D01*
X143924855Y-105439195D01*
X143912501Y-105469023D01*
X143876700Y-105522603D01*
X143859805Y-105551866D01*
X143851795Y-105559875D01*
X143847112Y-105566885D01*
X143763885Y-105650112D01*
X143756875Y-105654795D01*
X143748866Y-105662805D01*
X143719603Y-105679700D01*
X143666023Y-105715501D01*
X143636195Y-105727855D01*
X143612993Y-105741252D01*
X143587113Y-105748186D01*
X143557284Y-105760542D01*
X143494080Y-105773113D01*
X143461446Y-105781858D01*
X143449918Y-105781898D01*
X143441704Y-105783532D01*
X141985905Y-105786992D01*
X141985865Y-105786990D01*
X141983000Y-105787000D01*
X141973819Y-105786398D01*
X141927184Y-105784107D01*
X141921443Y-105782965D01*
X141904554Y-105781858D01*
X141871924Y-105773115D01*
X141808715Y-105760542D01*
X141778883Y-105748185D01*
X141753007Y-105741252D01*
X141729807Y-105727857D01*
X141699976Y-105715501D01*
X141646389Y-105679695D01*
X141617134Y-105662805D01*
X141609126Y-105654797D01*
X141602114Y-105650112D01*
X141518887Y-105566885D01*
X141514201Y-105559872D01*
X141506195Y-105551866D01*
X141489306Y-105522614D01*
X141453498Y-105469023D01*
X141441140Y-105439189D01*
X141427748Y-105415993D01*
X141420815Y-105390120D01*
X141408457Y-105360284D01*
X141395882Y-105297067D01*
X141387142Y-105264446D01*
X141387142Y-105253124D01*
X141385496Y-105244849D01*
X141385496Y-105127150D01*
X141387142Y-105118874D01*
X141387142Y-105107554D01*
X141395881Y-105074935D01*
X141408457Y-105011715D01*
X141420816Y-104981876D01*
X141427748Y-104956007D01*
X141441139Y-104932813D01*
X141453498Y-104902976D01*
X141489310Y-104849378D01*
X141506195Y-104820134D01*
X141514199Y-104812129D01*
X141518887Y-104805114D01*
X141602114Y-104721887D01*
X141609129Y-104717199D01*
X141617134Y-104709195D01*
X141646378Y-104692310D01*
X141699976Y-104656498D01*
X141729813Y-104644139D01*
X141753007Y-104630748D01*
X141778876Y-104623816D01*
X141808715Y-104611457D01*
X141871936Y-104598881D01*
X141904554Y-104590142D01*
X141916075Y-104590101D01*
X141924295Y-104588467D01*
X143380094Y-104585007D01*
X143380153Y-104585009D01*
X143383000Y-104585000D01*
X143392122Y-104585597D01*
G37*
G36*
X158792122Y-104585597D02*
G01*
X158838815Y-104587892D01*
X158844562Y-104589035D01*
X158861446Y-104590142D01*
X158894063Y-104598881D01*
X158957284Y-104611457D01*
X158987120Y-104623815D01*
X159012993Y-104630748D01*
X159036189Y-104644140D01*
X159066023Y-104656498D01*
X159119614Y-104692306D01*
X159148866Y-104709195D01*
X159156872Y-104717201D01*
X159163885Y-104721887D01*
X159247112Y-104805114D01*
X159251797Y-104812126D01*
X159259805Y-104820134D01*
X159276695Y-104849389D01*
X159312501Y-104902976D01*
X159324857Y-104932807D01*
X159338252Y-104956007D01*
X159345185Y-104981883D01*
X159357542Y-105011715D01*
X159370116Y-105074928D01*
X159378858Y-105107554D01*
X159378858Y-105118875D01*
X159380504Y-105127150D01*
X159380504Y-105244849D01*
X159378858Y-105253123D01*
X159378858Y-105264446D01*
X159370115Y-105297073D01*
X159357542Y-105360284D01*
X159345186Y-105390113D01*
X159338252Y-105415993D01*
X159324855Y-105439195D01*
X159312501Y-105469023D01*
X159276700Y-105522603D01*
X159259805Y-105551866D01*
X159251795Y-105559875D01*
X159247112Y-105566885D01*
X159163885Y-105650112D01*
X159156875Y-105654795D01*
X159148866Y-105662805D01*
X159119603Y-105679700D01*
X159066023Y-105715501D01*
X159036195Y-105727855D01*
X159012993Y-105741252D01*
X158987113Y-105748186D01*
X158957284Y-105760542D01*
X158894080Y-105773113D01*
X158861446Y-105781858D01*
X158849918Y-105781898D01*
X158841704Y-105783532D01*
X157385905Y-105786992D01*
X157385865Y-105786990D01*
X157383000Y-105787000D01*
X157373819Y-105786398D01*
X157327184Y-105784107D01*
X157321443Y-105782965D01*
X157304554Y-105781858D01*
X157271924Y-105773115D01*
X157208715Y-105760542D01*
X157178883Y-105748185D01*
X157153007Y-105741252D01*
X157129807Y-105727857D01*
X157099976Y-105715501D01*
X157046389Y-105679695D01*
X157017134Y-105662805D01*
X157009126Y-105654797D01*
X157002114Y-105650112D01*
X156918887Y-105566885D01*
X156914201Y-105559872D01*
X156906195Y-105551866D01*
X156889306Y-105522614D01*
X156853498Y-105469023D01*
X156841140Y-105439189D01*
X156827748Y-105415993D01*
X156820815Y-105390120D01*
X156808457Y-105360284D01*
X156795882Y-105297067D01*
X156787142Y-105264446D01*
X156787142Y-105253124D01*
X156785496Y-105244849D01*
X156785496Y-105127150D01*
X156787142Y-105118874D01*
X156787142Y-105107554D01*
X156795881Y-105074935D01*
X156808457Y-105011715D01*
X156820816Y-104981876D01*
X156827748Y-104956007D01*
X156841139Y-104932813D01*
X156853498Y-104902976D01*
X156889310Y-104849378D01*
X156906195Y-104820134D01*
X156914199Y-104812129D01*
X156918887Y-104805114D01*
X157002114Y-104721887D01*
X157009129Y-104717199D01*
X157017134Y-104709195D01*
X157046378Y-104692310D01*
X157099976Y-104656498D01*
X157129813Y-104644139D01*
X157153007Y-104630748D01*
X157178876Y-104623816D01*
X157208715Y-104611457D01*
X157271936Y-104598881D01*
X157304554Y-104590142D01*
X157316075Y-104590101D01*
X157324295Y-104588467D01*
X158780094Y-104585007D01*
X158780153Y-104585009D01*
X158783000Y-104585000D01*
X158792122Y-104585597D01*
G37*
G36*
X177572738Y-103337417D02*
G01*
X177618723Y-103337417D01*
X177669939Y-103346990D01*
X177726840Y-103352595D01*
X177770061Y-103365706D01*
X177809274Y-103373036D01*
X177863585Y-103394076D01*
X177924000Y-103412403D01*
X177958520Y-103430854D01*
X177990032Y-103443062D01*
X178044777Y-103476959D01*
X178105704Y-103509525D01*
X178131306Y-103530536D01*
X178154848Y-103545113D01*
X178207012Y-103592667D01*
X178264969Y-103640231D01*
X178282142Y-103661157D01*
X178298101Y-103675705D01*
X178344429Y-103737053D01*
X178395675Y-103799496D01*
X178405583Y-103818034D01*
X178414922Y-103830400D01*
X178452074Y-103905013D01*
X178492797Y-103981200D01*
X178497140Y-103995517D01*
X178501328Y-104003928D01*
X178526067Y-104090876D01*
X178552605Y-104178360D01*
X178553476Y-104187211D01*
X178554377Y-104190375D01*
X178563738Y-104291402D01*
X178572800Y-104383400D01*
X178563738Y-104475405D01*
X178554377Y-104576424D01*
X178553476Y-104579587D01*
X178552605Y-104588440D01*
X178526062Y-104675938D01*
X178501328Y-104762871D01*
X178497141Y-104771279D01*
X178492797Y-104785600D01*
X178452067Y-104861799D01*
X178414922Y-104936399D01*
X178405585Y-104948762D01*
X178395675Y-104967304D01*
X178344420Y-105029757D01*
X178298101Y-105091094D01*
X178282145Y-105105638D01*
X178264969Y-105126569D01*
X178207001Y-105174141D01*
X178154848Y-105221686D01*
X178131311Y-105236259D01*
X178105704Y-105257275D01*
X178044765Y-105289847D01*
X177990032Y-105323737D01*
X177958526Y-105335942D01*
X177924000Y-105354397D01*
X177863573Y-105372727D01*
X177809274Y-105393763D01*
X177770068Y-105401091D01*
X177726840Y-105414205D01*
X177669936Y-105419809D01*
X177618723Y-105429383D01*
X177572738Y-105429383D01*
X177521800Y-105434400D01*
X177470862Y-105429383D01*
X177424877Y-105429383D01*
X177373663Y-105419809D01*
X177316760Y-105414205D01*
X177273532Y-105401092D01*
X177234325Y-105393763D01*
X177180021Y-105372725D01*
X177119600Y-105354397D01*
X177085075Y-105335943D01*
X177053567Y-105323737D01*
X176998827Y-105289843D01*
X176937896Y-105257275D01*
X176912291Y-105236261D01*
X176888751Y-105221686D01*
X176836588Y-105174133D01*
X176778631Y-105126569D01*
X176761456Y-105105642D01*
X176745498Y-105091094D01*
X176699167Y-105029742D01*
X176647925Y-104967304D01*
X176638016Y-104948766D01*
X176628677Y-104936399D01*
X176591517Y-104861772D01*
X176550803Y-104785600D01*
X176546460Y-104771284D01*
X176542271Y-104762871D01*
X176517521Y-104675885D01*
X176490995Y-104588440D01*
X176490123Y-104579592D01*
X176489222Y-104576424D01*
X176479844Y-104475233D01*
X176470800Y-104383400D01*
X176479844Y-104291573D01*
X176489222Y-104190375D01*
X176490123Y-104187205D01*
X176490995Y-104178360D01*
X176517516Y-104090929D01*
X176542271Y-104003928D01*
X176546461Y-103995512D01*
X176550803Y-103981200D01*
X176591510Y-103905041D01*
X176628677Y-103830400D01*
X176638018Y-103818029D01*
X176647925Y-103799496D01*
X176699157Y-103737068D01*
X176745498Y-103675705D01*
X176761460Y-103661153D01*
X176778631Y-103640231D01*
X176836577Y-103592675D01*
X176888751Y-103545113D01*
X176912296Y-103530534D01*
X176937896Y-103509525D01*
X176998815Y-103476963D01*
X177053567Y-103443062D01*
X177085082Y-103430852D01*
X177119600Y-103412403D01*
X177180009Y-103394077D01*
X177234325Y-103373036D01*
X177273539Y-103365705D01*
X177316760Y-103352595D01*
X177373660Y-103346990D01*
X177424877Y-103337417D01*
X177470862Y-103337417D01*
X177521800Y-103332400D01*
X177572738Y-103337417D01*
G37*
G36*
X185041317Y-103336282D02*
G01*
X185057862Y-103347338D01*
X185068918Y-103363883D01*
X185072800Y-103383400D01*
X185072800Y-105383400D01*
X185068918Y-105402917D01*
X185057862Y-105419462D01*
X185041317Y-105430518D01*
X185021800Y-105434400D01*
X183021800Y-105434400D01*
X183002283Y-105430518D01*
X182985738Y-105419462D01*
X182974682Y-105402917D01*
X182970800Y-105383400D01*
X182970800Y-103383400D01*
X182974682Y-103363883D01*
X182985738Y-103347338D01*
X183002283Y-103336282D01*
X183021800Y-103332400D01*
X185021800Y-103332400D01*
X185041317Y-103336282D01*
G37*
G36*
X143392122Y-102585597D02*
G01*
X143438815Y-102587892D01*
X143444562Y-102589035D01*
X143461446Y-102590142D01*
X143494063Y-102598881D01*
X143557284Y-102611457D01*
X143587120Y-102623815D01*
X143612993Y-102630748D01*
X143636189Y-102644140D01*
X143666023Y-102656498D01*
X143719614Y-102692306D01*
X143748866Y-102709195D01*
X143756872Y-102717201D01*
X143763885Y-102721887D01*
X143847112Y-102805114D01*
X143851797Y-102812126D01*
X143859805Y-102820134D01*
X143876695Y-102849389D01*
X143912501Y-102902976D01*
X143924857Y-102932807D01*
X143938252Y-102956007D01*
X143945185Y-102981883D01*
X143957542Y-103011715D01*
X143970116Y-103074928D01*
X143978858Y-103107554D01*
X143978858Y-103118875D01*
X143980504Y-103127150D01*
X143980504Y-103244849D01*
X143978858Y-103253123D01*
X143978858Y-103264446D01*
X143970115Y-103297073D01*
X143957542Y-103360284D01*
X143945186Y-103390113D01*
X143938252Y-103415993D01*
X143924855Y-103439195D01*
X143912501Y-103469023D01*
X143876700Y-103522603D01*
X143859805Y-103551866D01*
X143851795Y-103559875D01*
X143847112Y-103566885D01*
X143763885Y-103650112D01*
X143756875Y-103654795D01*
X143748866Y-103662805D01*
X143719603Y-103679700D01*
X143666023Y-103715501D01*
X143636195Y-103727855D01*
X143612993Y-103741252D01*
X143587113Y-103748186D01*
X143557284Y-103760542D01*
X143494080Y-103773113D01*
X143461446Y-103781858D01*
X143449918Y-103781898D01*
X143441704Y-103783532D01*
X141985905Y-103786992D01*
X141985865Y-103786990D01*
X141983000Y-103787000D01*
X141973819Y-103786398D01*
X141927184Y-103784107D01*
X141921443Y-103782965D01*
X141904554Y-103781858D01*
X141871924Y-103773115D01*
X141808715Y-103760542D01*
X141778883Y-103748185D01*
X141753007Y-103741252D01*
X141729807Y-103727857D01*
X141699976Y-103715501D01*
X141646389Y-103679695D01*
X141617134Y-103662805D01*
X141609126Y-103654797D01*
X141602114Y-103650112D01*
X141518887Y-103566885D01*
X141514201Y-103559872D01*
X141506195Y-103551866D01*
X141489306Y-103522614D01*
X141453498Y-103469023D01*
X141441140Y-103439189D01*
X141427748Y-103415993D01*
X141420815Y-103390120D01*
X141408457Y-103360284D01*
X141395882Y-103297067D01*
X141387142Y-103264446D01*
X141387142Y-103253124D01*
X141385496Y-103244849D01*
X141385496Y-103127150D01*
X141387142Y-103118874D01*
X141387142Y-103107554D01*
X141395881Y-103074935D01*
X141408457Y-103011715D01*
X141420816Y-102981876D01*
X141427748Y-102956007D01*
X141441139Y-102932813D01*
X141453498Y-102902976D01*
X141489310Y-102849378D01*
X141506195Y-102820134D01*
X141514199Y-102812129D01*
X141518887Y-102805114D01*
X141602114Y-102721887D01*
X141609129Y-102717199D01*
X141617134Y-102709195D01*
X141646378Y-102692310D01*
X141699976Y-102656498D01*
X141729813Y-102644139D01*
X141753007Y-102630748D01*
X141778876Y-102623816D01*
X141808715Y-102611457D01*
X141871936Y-102598881D01*
X141904554Y-102590142D01*
X141916075Y-102590101D01*
X141924295Y-102588467D01*
X143380094Y-102585007D01*
X143380153Y-102585009D01*
X143383000Y-102585000D01*
X143392122Y-102585597D01*
G37*
G36*
X158692122Y-102585597D02*
G01*
X158738815Y-102587892D01*
X158744562Y-102589035D01*
X158761446Y-102590142D01*
X158794063Y-102598881D01*
X158857284Y-102611457D01*
X158887120Y-102623815D01*
X158912993Y-102630748D01*
X158936189Y-102644140D01*
X158966023Y-102656498D01*
X159019614Y-102692306D01*
X159048866Y-102709195D01*
X159056872Y-102717201D01*
X159063885Y-102721887D01*
X159147112Y-102805114D01*
X159151797Y-102812126D01*
X159159805Y-102820134D01*
X159176695Y-102849389D01*
X159212501Y-102902976D01*
X159224857Y-102932807D01*
X159238252Y-102956007D01*
X159245185Y-102981883D01*
X159257542Y-103011715D01*
X159270116Y-103074928D01*
X159278858Y-103107554D01*
X159278858Y-103118875D01*
X159280504Y-103127150D01*
X159280504Y-103244849D01*
X159278858Y-103253123D01*
X159278858Y-103264446D01*
X159270115Y-103297073D01*
X159257542Y-103360284D01*
X159245186Y-103390113D01*
X159238252Y-103415993D01*
X159224855Y-103439195D01*
X159212501Y-103469023D01*
X159176700Y-103522603D01*
X159159805Y-103551866D01*
X159151795Y-103559875D01*
X159147112Y-103566885D01*
X159063885Y-103650112D01*
X159056875Y-103654795D01*
X159048866Y-103662805D01*
X159019603Y-103679700D01*
X158966023Y-103715501D01*
X158936195Y-103727855D01*
X158912993Y-103741252D01*
X158887113Y-103748186D01*
X158857284Y-103760542D01*
X158794080Y-103773113D01*
X158761446Y-103781858D01*
X158749918Y-103781898D01*
X158741704Y-103783532D01*
X157285905Y-103786992D01*
X157285865Y-103786990D01*
X157283000Y-103787000D01*
X157273819Y-103786398D01*
X157227184Y-103784107D01*
X157221443Y-103782965D01*
X157204554Y-103781858D01*
X157171924Y-103773115D01*
X157108715Y-103760542D01*
X157078883Y-103748185D01*
X157053007Y-103741252D01*
X157029807Y-103727857D01*
X156999976Y-103715501D01*
X156946389Y-103679695D01*
X156917134Y-103662805D01*
X156909126Y-103654797D01*
X156902114Y-103650112D01*
X156818887Y-103566885D01*
X156814201Y-103559872D01*
X156806195Y-103551866D01*
X156789306Y-103522614D01*
X156753498Y-103469023D01*
X156741140Y-103439189D01*
X156727748Y-103415993D01*
X156720815Y-103390120D01*
X156708457Y-103360284D01*
X156695882Y-103297067D01*
X156687142Y-103264446D01*
X156687142Y-103253124D01*
X156685496Y-103244849D01*
X156685496Y-103127150D01*
X156687142Y-103118874D01*
X156687142Y-103107554D01*
X156695881Y-103074935D01*
X156708457Y-103011715D01*
X156720816Y-102981876D01*
X156727748Y-102956007D01*
X156741139Y-102932813D01*
X156753498Y-102902976D01*
X156789310Y-102849378D01*
X156806195Y-102820134D01*
X156814199Y-102812129D01*
X156818887Y-102805114D01*
X156902114Y-102721887D01*
X156909129Y-102717199D01*
X156917134Y-102709195D01*
X156946378Y-102692310D01*
X156999976Y-102656498D01*
X157029813Y-102644139D01*
X157053007Y-102630748D01*
X157078876Y-102623816D01*
X157108715Y-102611457D01*
X157171936Y-102598881D01*
X157204554Y-102590142D01*
X157216075Y-102590101D01*
X157224295Y-102588467D01*
X158680094Y-102585007D01*
X158680153Y-102585009D01*
X158683000Y-102585000D01*
X158692122Y-102585597D01*
G37*
G36*
X143392122Y-100585597D02*
G01*
X143438815Y-100587892D01*
X143444562Y-100589035D01*
X143461446Y-100590142D01*
X143494063Y-100598881D01*
X143557284Y-100611457D01*
X143587120Y-100623815D01*
X143612993Y-100630748D01*
X143636189Y-100644140D01*
X143666023Y-100656498D01*
X143719614Y-100692306D01*
X143748866Y-100709195D01*
X143756872Y-100717201D01*
X143763885Y-100721887D01*
X143847112Y-100805114D01*
X143851797Y-100812126D01*
X143859805Y-100820134D01*
X143876695Y-100849389D01*
X143912501Y-100902976D01*
X143924857Y-100932807D01*
X143938252Y-100956007D01*
X143945185Y-100981883D01*
X143957542Y-101011715D01*
X143970116Y-101074928D01*
X143978858Y-101107554D01*
X143978858Y-101118875D01*
X143980504Y-101127150D01*
X143980504Y-101244849D01*
X143978858Y-101253123D01*
X143978858Y-101264446D01*
X143970115Y-101297073D01*
X143957542Y-101360284D01*
X143945186Y-101390113D01*
X143938252Y-101415993D01*
X143924855Y-101439195D01*
X143912501Y-101469023D01*
X143876700Y-101522603D01*
X143859805Y-101551866D01*
X143851795Y-101559875D01*
X143847112Y-101566885D01*
X143763885Y-101650112D01*
X143756875Y-101654795D01*
X143748866Y-101662805D01*
X143719603Y-101679700D01*
X143666023Y-101715501D01*
X143636195Y-101727855D01*
X143612993Y-101741252D01*
X143587113Y-101748186D01*
X143557284Y-101760542D01*
X143494080Y-101773113D01*
X143461446Y-101781858D01*
X143449918Y-101781898D01*
X143441704Y-101783532D01*
X141985905Y-101786992D01*
X141985865Y-101786990D01*
X141983000Y-101787000D01*
X141973819Y-101786398D01*
X141927184Y-101784107D01*
X141921443Y-101782965D01*
X141904554Y-101781858D01*
X141871924Y-101773115D01*
X141808715Y-101760542D01*
X141778883Y-101748185D01*
X141753007Y-101741252D01*
X141729807Y-101727857D01*
X141699976Y-101715501D01*
X141646389Y-101679695D01*
X141617134Y-101662805D01*
X141609126Y-101654797D01*
X141602114Y-101650112D01*
X141518887Y-101566885D01*
X141514201Y-101559872D01*
X141506195Y-101551866D01*
X141489306Y-101522614D01*
X141453498Y-101469023D01*
X141441140Y-101439189D01*
X141427748Y-101415993D01*
X141420815Y-101390120D01*
X141408457Y-101360284D01*
X141395882Y-101297067D01*
X141387142Y-101264446D01*
X141387142Y-101253124D01*
X141385496Y-101244849D01*
X141385496Y-101127150D01*
X141387142Y-101118874D01*
X141387142Y-101107554D01*
X141395881Y-101074935D01*
X141408457Y-101011715D01*
X141420816Y-100981876D01*
X141427748Y-100956007D01*
X141441139Y-100932813D01*
X141453498Y-100902976D01*
X141489310Y-100849378D01*
X141506195Y-100820134D01*
X141514199Y-100812129D01*
X141518887Y-100805114D01*
X141602114Y-100721887D01*
X141609129Y-100717199D01*
X141617134Y-100709195D01*
X141646378Y-100692310D01*
X141699976Y-100656498D01*
X141729813Y-100644139D01*
X141753007Y-100630748D01*
X141778876Y-100623816D01*
X141808715Y-100611457D01*
X141871936Y-100598881D01*
X141904554Y-100590142D01*
X141916075Y-100590101D01*
X141924295Y-100588467D01*
X143380094Y-100585007D01*
X143380153Y-100585009D01*
X143383000Y-100585000D01*
X143392122Y-100585597D01*
G37*
G36*
X158792122Y-100585597D02*
G01*
X158838815Y-100587892D01*
X158844562Y-100589035D01*
X158861446Y-100590142D01*
X158894063Y-100598881D01*
X158957284Y-100611457D01*
X158987120Y-100623815D01*
X159012993Y-100630748D01*
X159036189Y-100644140D01*
X159066023Y-100656498D01*
X159119614Y-100692306D01*
X159148866Y-100709195D01*
X159156872Y-100717201D01*
X159163885Y-100721887D01*
X159247112Y-100805114D01*
X159251797Y-100812126D01*
X159259805Y-100820134D01*
X159276695Y-100849389D01*
X159312501Y-100902976D01*
X159324857Y-100932807D01*
X159338252Y-100956007D01*
X159345185Y-100981883D01*
X159357542Y-101011715D01*
X159370116Y-101074928D01*
X159378858Y-101107554D01*
X159378858Y-101118875D01*
X159380504Y-101127150D01*
X159380504Y-101244849D01*
X159378858Y-101253123D01*
X159378858Y-101264446D01*
X159370115Y-101297073D01*
X159357542Y-101360284D01*
X159345186Y-101390113D01*
X159338252Y-101415993D01*
X159324855Y-101439195D01*
X159312501Y-101469023D01*
X159276700Y-101522603D01*
X159259805Y-101551866D01*
X159251795Y-101559875D01*
X159247112Y-101566885D01*
X159163885Y-101650112D01*
X159156875Y-101654795D01*
X159148866Y-101662805D01*
X159119603Y-101679700D01*
X159066023Y-101715501D01*
X159036195Y-101727855D01*
X159012993Y-101741252D01*
X158987113Y-101748186D01*
X158957284Y-101760542D01*
X158894080Y-101773113D01*
X158861446Y-101781858D01*
X158849918Y-101781898D01*
X158841704Y-101783532D01*
X157385905Y-101786992D01*
X157385865Y-101786990D01*
X157383000Y-101787000D01*
X157373819Y-101786398D01*
X157327184Y-101784107D01*
X157321443Y-101782965D01*
X157304554Y-101781858D01*
X157271924Y-101773115D01*
X157208715Y-101760542D01*
X157178883Y-101748185D01*
X157153007Y-101741252D01*
X157129807Y-101727857D01*
X157099976Y-101715501D01*
X157046389Y-101679695D01*
X157017134Y-101662805D01*
X157009126Y-101654797D01*
X157002114Y-101650112D01*
X156918887Y-101566885D01*
X156914201Y-101559872D01*
X156906195Y-101551866D01*
X156889306Y-101522614D01*
X156853498Y-101469023D01*
X156841140Y-101439189D01*
X156827748Y-101415993D01*
X156820815Y-101390120D01*
X156808457Y-101360284D01*
X156795882Y-101297067D01*
X156787142Y-101264446D01*
X156787142Y-101253124D01*
X156785496Y-101244849D01*
X156785496Y-101127150D01*
X156787142Y-101118874D01*
X156787142Y-101107554D01*
X156795881Y-101074935D01*
X156808457Y-101011715D01*
X156820816Y-100981876D01*
X156827748Y-100956007D01*
X156841139Y-100932813D01*
X156853498Y-100902976D01*
X156889310Y-100849378D01*
X156906195Y-100820134D01*
X156914199Y-100812129D01*
X156918887Y-100805114D01*
X157002114Y-100721887D01*
X157009129Y-100717199D01*
X157017134Y-100709195D01*
X157046378Y-100692310D01*
X157099976Y-100656498D01*
X157129813Y-100644139D01*
X157153007Y-100630748D01*
X157178876Y-100623816D01*
X157208715Y-100611457D01*
X157271936Y-100598881D01*
X157304554Y-100590142D01*
X157316075Y-100590101D01*
X157324295Y-100588467D01*
X158780094Y-100585007D01*
X158780153Y-100585009D01*
X158783000Y-100585000D01*
X158792122Y-100585597D01*
G37*
G36*
X177572738Y-98837417D02*
G01*
X177618723Y-98837417D01*
X177669939Y-98846990D01*
X177726840Y-98852595D01*
X177770061Y-98865706D01*
X177809274Y-98873036D01*
X177863585Y-98894076D01*
X177924000Y-98912403D01*
X177958520Y-98930854D01*
X177990032Y-98943062D01*
X178044777Y-98976959D01*
X178105704Y-99009525D01*
X178131306Y-99030536D01*
X178154848Y-99045113D01*
X178207012Y-99092667D01*
X178264969Y-99140231D01*
X178282142Y-99161157D01*
X178298101Y-99175705D01*
X178344429Y-99237053D01*
X178395675Y-99299496D01*
X178405583Y-99318034D01*
X178414922Y-99330400D01*
X178452074Y-99405013D01*
X178492797Y-99481200D01*
X178497140Y-99495517D01*
X178501328Y-99503928D01*
X178526067Y-99590876D01*
X178552605Y-99678360D01*
X178553476Y-99687211D01*
X178554377Y-99690375D01*
X178563738Y-99791402D01*
X178572800Y-99883400D01*
X178563738Y-99975405D01*
X178554377Y-100076424D01*
X178553476Y-100079587D01*
X178552605Y-100088440D01*
X178526062Y-100175938D01*
X178501328Y-100262871D01*
X178497141Y-100271279D01*
X178492797Y-100285600D01*
X178452067Y-100361799D01*
X178414922Y-100436399D01*
X178405585Y-100448762D01*
X178395675Y-100467304D01*
X178344420Y-100529757D01*
X178298101Y-100591094D01*
X178282145Y-100605638D01*
X178264969Y-100626569D01*
X178207001Y-100674141D01*
X178154848Y-100721686D01*
X178131311Y-100736259D01*
X178105704Y-100757275D01*
X178044765Y-100789847D01*
X177990032Y-100823737D01*
X177958526Y-100835942D01*
X177924000Y-100854397D01*
X177863573Y-100872727D01*
X177809274Y-100893763D01*
X177770068Y-100901091D01*
X177726840Y-100914205D01*
X177669936Y-100919809D01*
X177618723Y-100929383D01*
X177572738Y-100929383D01*
X177521800Y-100934400D01*
X177470862Y-100929383D01*
X177424877Y-100929383D01*
X177373663Y-100919809D01*
X177316760Y-100914205D01*
X177273532Y-100901092D01*
X177234325Y-100893763D01*
X177180021Y-100872725D01*
X177119600Y-100854397D01*
X177085075Y-100835943D01*
X177053567Y-100823737D01*
X176998827Y-100789843D01*
X176937896Y-100757275D01*
X176912291Y-100736261D01*
X176888751Y-100721686D01*
X176836588Y-100674133D01*
X176778631Y-100626569D01*
X176761456Y-100605642D01*
X176745498Y-100591094D01*
X176699167Y-100529742D01*
X176647925Y-100467304D01*
X176638016Y-100448766D01*
X176628677Y-100436399D01*
X176591517Y-100361772D01*
X176550803Y-100285600D01*
X176546460Y-100271284D01*
X176542271Y-100262871D01*
X176517521Y-100175885D01*
X176490995Y-100088440D01*
X176490123Y-100079592D01*
X176489222Y-100076424D01*
X176479844Y-99975233D01*
X176470800Y-99883400D01*
X176479844Y-99791573D01*
X176489222Y-99690375D01*
X176490123Y-99687205D01*
X176490995Y-99678360D01*
X176517516Y-99590929D01*
X176542271Y-99503928D01*
X176546461Y-99495512D01*
X176550803Y-99481200D01*
X176591510Y-99405041D01*
X176628677Y-99330400D01*
X176638018Y-99318029D01*
X176647925Y-99299496D01*
X176699157Y-99237068D01*
X176745498Y-99175705D01*
X176761460Y-99161153D01*
X176778631Y-99140231D01*
X176836577Y-99092675D01*
X176888751Y-99045113D01*
X176912296Y-99030534D01*
X176937896Y-99009525D01*
X176998815Y-98976963D01*
X177053567Y-98943062D01*
X177085082Y-98930852D01*
X177119600Y-98912403D01*
X177180009Y-98894077D01*
X177234325Y-98873036D01*
X177273539Y-98865705D01*
X177316760Y-98852595D01*
X177373660Y-98846990D01*
X177424877Y-98837417D01*
X177470862Y-98837417D01*
X177521800Y-98832400D01*
X177572738Y-98837417D01*
G37*
G36*
X184072738Y-98837417D02*
G01*
X184118723Y-98837417D01*
X184169939Y-98846990D01*
X184226840Y-98852595D01*
X184270061Y-98865706D01*
X184309274Y-98873036D01*
X184363585Y-98894076D01*
X184424000Y-98912403D01*
X184458520Y-98930854D01*
X184490032Y-98943062D01*
X184544777Y-98976959D01*
X184605704Y-99009525D01*
X184631306Y-99030536D01*
X184654848Y-99045113D01*
X184707012Y-99092667D01*
X184764969Y-99140231D01*
X184782142Y-99161157D01*
X184798101Y-99175705D01*
X184844429Y-99237053D01*
X184895675Y-99299496D01*
X184905583Y-99318034D01*
X184914922Y-99330400D01*
X184952074Y-99405013D01*
X184992797Y-99481200D01*
X184997140Y-99495517D01*
X185001328Y-99503928D01*
X185026067Y-99590876D01*
X185052605Y-99678360D01*
X185053476Y-99687211D01*
X185054377Y-99690375D01*
X185063738Y-99791402D01*
X185072800Y-99883400D01*
X185063738Y-99975405D01*
X185054377Y-100076424D01*
X185053476Y-100079587D01*
X185052605Y-100088440D01*
X185026062Y-100175938D01*
X185001328Y-100262871D01*
X184997141Y-100271279D01*
X184992797Y-100285600D01*
X184952067Y-100361799D01*
X184914922Y-100436399D01*
X184905585Y-100448762D01*
X184895675Y-100467304D01*
X184844420Y-100529757D01*
X184798101Y-100591094D01*
X184782145Y-100605638D01*
X184764969Y-100626569D01*
X184707001Y-100674141D01*
X184654848Y-100721686D01*
X184631311Y-100736259D01*
X184605704Y-100757275D01*
X184544765Y-100789847D01*
X184490032Y-100823737D01*
X184458526Y-100835942D01*
X184424000Y-100854397D01*
X184363573Y-100872727D01*
X184309274Y-100893763D01*
X184270068Y-100901091D01*
X184226840Y-100914205D01*
X184169936Y-100919809D01*
X184118723Y-100929383D01*
X184072738Y-100929383D01*
X184021800Y-100934400D01*
X183970862Y-100929383D01*
X183924877Y-100929383D01*
X183873663Y-100919809D01*
X183816760Y-100914205D01*
X183773532Y-100901092D01*
X183734325Y-100893763D01*
X183680021Y-100872725D01*
X183619600Y-100854397D01*
X183585075Y-100835943D01*
X183553567Y-100823737D01*
X183498827Y-100789843D01*
X183437896Y-100757275D01*
X183412291Y-100736261D01*
X183388751Y-100721686D01*
X183336588Y-100674133D01*
X183278631Y-100626569D01*
X183261456Y-100605642D01*
X183245498Y-100591094D01*
X183199167Y-100529742D01*
X183147925Y-100467304D01*
X183138016Y-100448766D01*
X183128677Y-100436399D01*
X183091517Y-100361772D01*
X183050803Y-100285600D01*
X183046460Y-100271284D01*
X183042271Y-100262871D01*
X183017521Y-100175885D01*
X182990995Y-100088440D01*
X182990123Y-100079592D01*
X182989222Y-100076424D01*
X182979844Y-99975233D01*
X182970800Y-99883400D01*
X182979844Y-99791573D01*
X182989222Y-99690375D01*
X182990123Y-99687205D01*
X182990995Y-99678360D01*
X183017516Y-99590929D01*
X183042271Y-99503928D01*
X183046461Y-99495512D01*
X183050803Y-99481200D01*
X183091510Y-99405041D01*
X183128677Y-99330400D01*
X183138018Y-99318029D01*
X183147925Y-99299496D01*
X183199157Y-99237068D01*
X183245498Y-99175705D01*
X183261460Y-99161153D01*
X183278631Y-99140231D01*
X183336577Y-99092675D01*
X183388751Y-99045113D01*
X183412296Y-99030534D01*
X183437896Y-99009525D01*
X183498815Y-98976963D01*
X183553567Y-98943062D01*
X183585082Y-98930852D01*
X183619600Y-98912403D01*
X183680009Y-98894077D01*
X183734325Y-98873036D01*
X183773539Y-98865705D01*
X183816760Y-98852595D01*
X183873660Y-98846990D01*
X183924877Y-98837417D01*
X183970862Y-98837417D01*
X184021800Y-98832400D01*
X184072738Y-98837417D01*
G37*
G36*
X143392122Y-98585597D02*
G01*
X143438815Y-98587892D01*
X143444562Y-98589035D01*
X143461446Y-98590142D01*
X143494063Y-98598881D01*
X143557284Y-98611457D01*
X143587120Y-98623815D01*
X143612993Y-98630748D01*
X143636189Y-98644140D01*
X143666023Y-98656498D01*
X143719614Y-98692306D01*
X143748866Y-98709195D01*
X143756872Y-98717201D01*
X143763885Y-98721887D01*
X143847112Y-98805114D01*
X143851797Y-98812126D01*
X143859805Y-98820134D01*
X143876695Y-98849389D01*
X143912501Y-98902976D01*
X143924857Y-98932807D01*
X143938252Y-98956007D01*
X143945185Y-98981883D01*
X143957542Y-99011715D01*
X143970116Y-99074928D01*
X143978858Y-99107554D01*
X143978858Y-99118875D01*
X143980504Y-99127150D01*
X143980504Y-99244849D01*
X143978858Y-99253123D01*
X143978858Y-99264446D01*
X143970115Y-99297073D01*
X143957542Y-99360284D01*
X143945186Y-99390113D01*
X143938252Y-99415993D01*
X143924855Y-99439195D01*
X143912501Y-99469023D01*
X143876700Y-99522603D01*
X143859805Y-99551866D01*
X143851795Y-99559875D01*
X143847112Y-99566885D01*
X143763885Y-99650112D01*
X143756875Y-99654795D01*
X143748866Y-99662805D01*
X143719603Y-99679700D01*
X143666023Y-99715501D01*
X143636195Y-99727855D01*
X143612993Y-99741252D01*
X143587113Y-99748186D01*
X143557284Y-99760542D01*
X143494080Y-99773113D01*
X143461446Y-99781858D01*
X143449918Y-99781898D01*
X143441704Y-99783532D01*
X141985905Y-99786992D01*
X141985865Y-99786990D01*
X141983000Y-99787000D01*
X141973819Y-99786398D01*
X141927184Y-99784107D01*
X141921443Y-99782965D01*
X141904554Y-99781858D01*
X141871924Y-99773115D01*
X141808715Y-99760542D01*
X141778883Y-99748185D01*
X141753007Y-99741252D01*
X141729807Y-99727857D01*
X141699976Y-99715501D01*
X141646389Y-99679695D01*
X141617134Y-99662805D01*
X141609126Y-99654797D01*
X141602114Y-99650112D01*
X141518887Y-99566885D01*
X141514201Y-99559872D01*
X141506195Y-99551866D01*
X141489306Y-99522614D01*
X141453498Y-99469023D01*
X141441140Y-99439189D01*
X141427748Y-99415993D01*
X141420815Y-99390120D01*
X141408457Y-99360284D01*
X141395882Y-99297067D01*
X141387142Y-99264446D01*
X141387142Y-99253124D01*
X141385496Y-99244849D01*
X141385496Y-99127150D01*
X141387142Y-99118874D01*
X141387142Y-99107554D01*
X141395881Y-99074935D01*
X141408457Y-99011715D01*
X141420816Y-98981876D01*
X141427748Y-98956007D01*
X141441139Y-98932813D01*
X141453498Y-98902976D01*
X141489310Y-98849378D01*
X141506195Y-98820134D01*
X141514199Y-98812129D01*
X141518887Y-98805114D01*
X141602114Y-98721887D01*
X141609129Y-98717199D01*
X141617134Y-98709195D01*
X141646378Y-98692310D01*
X141699976Y-98656498D01*
X141729813Y-98644139D01*
X141753007Y-98630748D01*
X141778876Y-98623816D01*
X141808715Y-98611457D01*
X141871936Y-98598881D01*
X141904554Y-98590142D01*
X141916075Y-98590101D01*
X141924295Y-98588467D01*
X143380094Y-98585007D01*
X143380153Y-98585009D01*
X143383000Y-98585000D01*
X143392122Y-98585597D01*
G37*
G36*
X158792122Y-98585597D02*
G01*
X158838815Y-98587892D01*
X158844562Y-98589035D01*
X158861446Y-98590142D01*
X158894063Y-98598881D01*
X158957284Y-98611457D01*
X158987120Y-98623815D01*
X159012993Y-98630748D01*
X159036189Y-98644140D01*
X159066023Y-98656498D01*
X159119614Y-98692306D01*
X159148866Y-98709195D01*
X159156872Y-98717201D01*
X159163885Y-98721887D01*
X159247112Y-98805114D01*
X159251797Y-98812126D01*
X159259805Y-98820134D01*
X159276695Y-98849389D01*
X159312501Y-98902976D01*
X159324857Y-98932807D01*
X159338252Y-98956007D01*
X159345185Y-98981883D01*
X159357542Y-99011715D01*
X159370116Y-99074928D01*
X159378858Y-99107554D01*
X159378858Y-99118875D01*
X159380504Y-99127150D01*
X159380504Y-99244849D01*
X159378858Y-99253123D01*
X159378858Y-99264446D01*
X159370115Y-99297073D01*
X159357542Y-99360284D01*
X159345186Y-99390113D01*
X159338252Y-99415993D01*
X159324855Y-99439195D01*
X159312501Y-99469023D01*
X159276700Y-99522603D01*
X159259805Y-99551866D01*
X159251795Y-99559875D01*
X159247112Y-99566885D01*
X159163885Y-99650112D01*
X159156875Y-99654795D01*
X159148866Y-99662805D01*
X159119603Y-99679700D01*
X159066023Y-99715501D01*
X159036195Y-99727855D01*
X159012993Y-99741252D01*
X158987113Y-99748186D01*
X158957284Y-99760542D01*
X158894080Y-99773113D01*
X158861446Y-99781858D01*
X158849918Y-99781898D01*
X158841704Y-99783532D01*
X157385905Y-99786992D01*
X157385865Y-99786990D01*
X157383000Y-99787000D01*
X157373819Y-99786398D01*
X157327184Y-99784107D01*
X157321443Y-99782965D01*
X157304554Y-99781858D01*
X157271924Y-99773115D01*
X157208715Y-99760542D01*
X157178883Y-99748185D01*
X157153007Y-99741252D01*
X157129807Y-99727857D01*
X157099976Y-99715501D01*
X157046389Y-99679695D01*
X157017134Y-99662805D01*
X157009126Y-99654797D01*
X157002114Y-99650112D01*
X156918887Y-99566885D01*
X156914201Y-99559872D01*
X156906195Y-99551866D01*
X156889306Y-99522614D01*
X156853498Y-99469023D01*
X156841140Y-99439189D01*
X156827748Y-99415993D01*
X156820815Y-99390120D01*
X156808457Y-99360284D01*
X156795882Y-99297067D01*
X156787142Y-99264446D01*
X156787142Y-99253124D01*
X156785496Y-99244849D01*
X156785496Y-99127150D01*
X156787142Y-99118874D01*
X156787142Y-99107554D01*
X156795881Y-99074935D01*
X156808457Y-99011715D01*
X156820816Y-98981876D01*
X156827748Y-98956007D01*
X156841139Y-98932813D01*
X156853498Y-98902976D01*
X156889310Y-98849378D01*
X156906195Y-98820134D01*
X156914199Y-98812129D01*
X156918887Y-98805114D01*
X157002114Y-98721887D01*
X157009129Y-98717199D01*
X157017134Y-98709195D01*
X157046378Y-98692310D01*
X157099976Y-98656498D01*
X157129813Y-98644139D01*
X157153007Y-98630748D01*
X157178876Y-98623816D01*
X157208715Y-98611457D01*
X157271936Y-98598881D01*
X157304554Y-98590142D01*
X157316075Y-98590101D01*
X157324295Y-98588467D01*
X158780094Y-98585007D01*
X158780153Y-98585009D01*
X158783000Y-98585000D01*
X158792122Y-98585597D01*
G37*
G36*
X100792270Y-97638097D02*
G01*
X100833362Y-97638097D01*
X100879122Y-97646651D01*
X100931197Y-97651780D01*
X100970757Y-97663780D01*
X101005777Y-97670327D01*
X101054283Y-97689118D01*
X101109598Y-97705898D01*
X101141200Y-97722789D01*
X101169322Y-97733684D01*
X101218179Y-97763935D01*
X101274013Y-97793779D01*
X101297475Y-97813033D01*
X101318450Y-97826021D01*
X101364922Y-97868386D01*
X101418125Y-97912048D01*
X101433890Y-97931258D01*
X101448066Y-97944181D01*
X101489223Y-97998681D01*
X101536394Y-98056160D01*
X101545514Y-98073224D01*
X101553765Y-98084149D01*
X101586591Y-98150073D01*
X101624275Y-98220575D01*
X101628294Y-98233823D01*
X101631948Y-98241162D01*
X101653530Y-98317014D01*
X101678393Y-98398976D01*
X101679209Y-98407269D01*
X101679946Y-98409857D01*
X101687603Y-98492489D01*
X101696666Y-98584507D01*
X101687602Y-98676533D01*
X101679946Y-98759156D01*
X101679210Y-98761742D01*
X101678393Y-98770038D01*
X101653525Y-98852014D01*
X101631948Y-98927851D01*
X101628294Y-98935187D01*
X101624275Y-98948439D01*
X101586583Y-99018954D01*
X101553765Y-99084864D01*
X101545516Y-99095786D01*
X101536394Y-99112854D01*
X101489213Y-99170343D01*
X101448066Y-99224832D01*
X101433893Y-99237751D01*
X101418125Y-99256966D01*
X101364911Y-99300636D01*
X101318450Y-99342992D01*
X101297480Y-99355976D01*
X101274013Y-99375235D01*
X101218168Y-99405084D01*
X101169322Y-99435329D01*
X101141207Y-99446220D01*
X101109598Y-99463116D01*
X101054271Y-99479899D01*
X101005777Y-99498686D01*
X100970764Y-99505231D01*
X100931197Y-99517234D01*
X100879119Y-99522363D01*
X100833362Y-99530917D01*
X100792270Y-99530917D01*
X100745666Y-99535507D01*
X100699062Y-99530917D01*
X100657970Y-99530917D01*
X100612211Y-99522363D01*
X100560135Y-99517234D01*
X100520568Y-99505231D01*
X100485554Y-99498686D01*
X100437055Y-99479897D01*
X100381734Y-99463116D01*
X100350127Y-99446221D01*
X100322009Y-99435329D01*
X100273156Y-99405080D01*
X100217319Y-99375235D01*
X100193854Y-99355978D01*
X100172881Y-99342992D01*
X100126410Y-99300628D01*
X100073207Y-99256966D01*
X100057441Y-99237755D01*
X100043265Y-99224832D01*
X100002105Y-99170328D01*
X99954938Y-99112854D01*
X99945817Y-99095791D01*
X99937566Y-99084864D01*
X99904733Y-99018927D01*
X99867057Y-98948439D01*
X99863038Y-98935192D01*
X99859383Y-98927851D01*
X99837790Y-98851961D01*
X99812939Y-98770038D01*
X99812122Y-98761748D01*
X99811385Y-98759156D01*
X99803712Y-98676361D01*
X99794666Y-98584507D01*
X99803711Y-98492660D01*
X99811385Y-98409857D01*
X99812122Y-98407264D01*
X99812939Y-98398976D01*
X99837785Y-98317067D01*
X99859383Y-98241162D01*
X99863039Y-98233818D01*
X99867057Y-98220575D01*
X99904726Y-98150100D01*
X99937566Y-98084149D01*
X99945819Y-98073219D01*
X99954938Y-98056160D01*
X100002096Y-97998697D01*
X100043265Y-97944181D01*
X100057444Y-97931254D01*
X100073207Y-97912048D01*
X100126399Y-97868394D01*
X100172881Y-97826021D01*
X100193859Y-97813031D01*
X100217319Y-97793779D01*
X100273144Y-97763939D01*
X100322009Y-97733684D01*
X100350133Y-97722788D01*
X100381734Y-97705898D01*
X100437043Y-97689119D01*
X100485554Y-97670327D01*
X100520575Y-97663780D01*
X100560135Y-97651780D01*
X100612208Y-97646651D01*
X100657970Y-97638097D01*
X100699062Y-97638097D01*
X100745666Y-97633507D01*
X100792270Y-97638097D01*
G37*
G36*
X103332270Y-97638097D02*
G01*
X103373362Y-97638097D01*
X103419122Y-97646651D01*
X103471197Y-97651780D01*
X103510757Y-97663780D01*
X103545777Y-97670327D01*
X103594283Y-97689118D01*
X103649598Y-97705898D01*
X103681200Y-97722789D01*
X103709322Y-97733684D01*
X103758179Y-97763935D01*
X103814013Y-97793779D01*
X103837475Y-97813033D01*
X103858450Y-97826021D01*
X103904922Y-97868386D01*
X103958125Y-97912048D01*
X103973890Y-97931258D01*
X103988066Y-97944181D01*
X104029223Y-97998681D01*
X104076394Y-98056160D01*
X104085514Y-98073224D01*
X104093765Y-98084149D01*
X104126591Y-98150073D01*
X104164275Y-98220575D01*
X104168294Y-98233823D01*
X104171948Y-98241162D01*
X104193530Y-98317014D01*
X104218393Y-98398976D01*
X104219209Y-98407269D01*
X104219946Y-98409857D01*
X104227603Y-98492489D01*
X104236666Y-98584507D01*
X104227602Y-98676533D01*
X104219946Y-98759156D01*
X104219210Y-98761742D01*
X104218393Y-98770038D01*
X104193525Y-98852014D01*
X104171948Y-98927851D01*
X104168294Y-98935187D01*
X104164275Y-98948439D01*
X104126583Y-99018954D01*
X104093765Y-99084864D01*
X104085516Y-99095786D01*
X104076394Y-99112854D01*
X104029213Y-99170343D01*
X103988066Y-99224832D01*
X103973893Y-99237751D01*
X103958125Y-99256966D01*
X103904911Y-99300636D01*
X103858450Y-99342992D01*
X103837480Y-99355976D01*
X103814013Y-99375235D01*
X103758168Y-99405084D01*
X103709322Y-99435329D01*
X103681207Y-99446220D01*
X103649598Y-99463116D01*
X103594271Y-99479899D01*
X103545777Y-99498686D01*
X103510764Y-99505231D01*
X103471197Y-99517234D01*
X103419119Y-99522363D01*
X103373362Y-99530917D01*
X103332270Y-99530917D01*
X103285666Y-99535507D01*
X103239062Y-99530917D01*
X103197970Y-99530917D01*
X103152211Y-99522363D01*
X103100135Y-99517234D01*
X103060568Y-99505231D01*
X103025554Y-99498686D01*
X102977055Y-99479897D01*
X102921734Y-99463116D01*
X102890127Y-99446221D01*
X102862009Y-99435329D01*
X102813156Y-99405080D01*
X102757319Y-99375235D01*
X102733854Y-99355978D01*
X102712881Y-99342992D01*
X102666410Y-99300628D01*
X102613207Y-99256966D01*
X102597441Y-99237755D01*
X102583265Y-99224832D01*
X102542105Y-99170328D01*
X102494938Y-99112854D01*
X102485817Y-99095791D01*
X102477566Y-99084864D01*
X102444733Y-99018927D01*
X102407057Y-98948439D01*
X102403038Y-98935192D01*
X102399383Y-98927851D01*
X102377790Y-98851961D01*
X102352939Y-98770038D01*
X102352122Y-98761748D01*
X102351385Y-98759156D01*
X102343712Y-98676361D01*
X102334666Y-98584507D01*
X102343711Y-98492660D01*
X102351385Y-98409857D01*
X102352122Y-98407264D01*
X102352939Y-98398976D01*
X102377785Y-98317067D01*
X102399383Y-98241162D01*
X102403039Y-98233818D01*
X102407057Y-98220575D01*
X102444726Y-98150100D01*
X102477566Y-98084149D01*
X102485819Y-98073219D01*
X102494938Y-98056160D01*
X102542096Y-97998697D01*
X102583265Y-97944181D01*
X102597444Y-97931254D01*
X102613207Y-97912048D01*
X102666399Y-97868394D01*
X102712881Y-97826021D01*
X102733859Y-97813031D01*
X102757319Y-97793779D01*
X102813144Y-97763939D01*
X102862009Y-97733684D01*
X102890133Y-97722788D01*
X102921734Y-97705898D01*
X102977043Y-97689119D01*
X103025554Y-97670327D01*
X103060575Y-97663780D01*
X103100135Y-97651780D01*
X103152208Y-97646651D01*
X103197970Y-97638097D01*
X103239062Y-97638097D01*
X103285666Y-97633507D01*
X103332270Y-97638097D01*
G37*
G36*
X106745183Y-97637389D02*
G01*
X106761728Y-97648445D01*
X106772784Y-97664990D01*
X106776666Y-97684507D01*
X106776666Y-99484507D01*
X106772784Y-99504024D01*
X106761728Y-99520569D01*
X106745183Y-99531625D01*
X106725666Y-99535507D01*
X104925666Y-99535507D01*
X104906149Y-99531625D01*
X104889604Y-99520569D01*
X104878548Y-99504024D01*
X104874666Y-99484507D01*
X104874666Y-97684507D01*
X104878548Y-97664990D01*
X104889604Y-97648445D01*
X104906149Y-97637389D01*
X104925666Y-97633507D01*
X106725666Y-97633507D01*
X106745183Y-97637389D01*
G37*
G36*
X143392122Y-96585597D02*
G01*
X143438815Y-96587892D01*
X143444562Y-96589035D01*
X143461446Y-96590142D01*
X143494063Y-96598881D01*
X143557284Y-96611457D01*
X143587120Y-96623815D01*
X143612993Y-96630748D01*
X143636189Y-96644140D01*
X143666023Y-96656498D01*
X143719614Y-96692306D01*
X143748866Y-96709195D01*
X143756872Y-96717201D01*
X143763885Y-96721887D01*
X143847112Y-96805114D01*
X143851797Y-96812126D01*
X143859805Y-96820134D01*
X143876695Y-96849389D01*
X143912501Y-96902976D01*
X143924857Y-96932807D01*
X143938252Y-96956007D01*
X143945185Y-96981883D01*
X143957542Y-97011715D01*
X143970116Y-97074928D01*
X143978858Y-97107554D01*
X143978858Y-97118875D01*
X143980504Y-97127150D01*
X143980504Y-97244849D01*
X143978858Y-97253123D01*
X143978858Y-97264446D01*
X143970115Y-97297073D01*
X143957542Y-97360284D01*
X143945186Y-97390113D01*
X143938252Y-97415993D01*
X143924855Y-97439195D01*
X143912501Y-97469023D01*
X143876700Y-97522603D01*
X143859805Y-97551866D01*
X143851795Y-97559875D01*
X143847112Y-97566885D01*
X143763885Y-97650112D01*
X143756875Y-97654795D01*
X143748866Y-97662805D01*
X143719603Y-97679700D01*
X143666023Y-97715501D01*
X143636195Y-97727855D01*
X143612993Y-97741252D01*
X143587113Y-97748186D01*
X143557284Y-97760542D01*
X143494080Y-97773113D01*
X143461446Y-97781858D01*
X143449918Y-97781898D01*
X143441704Y-97783532D01*
X141985905Y-97786992D01*
X141985865Y-97786990D01*
X141983000Y-97787000D01*
X141973819Y-97786398D01*
X141927184Y-97784107D01*
X141921443Y-97782965D01*
X141904554Y-97781858D01*
X141871924Y-97773115D01*
X141808715Y-97760542D01*
X141778883Y-97748185D01*
X141753007Y-97741252D01*
X141729807Y-97727857D01*
X141699976Y-97715501D01*
X141646389Y-97679695D01*
X141617134Y-97662805D01*
X141609126Y-97654797D01*
X141602114Y-97650112D01*
X141518887Y-97566885D01*
X141514201Y-97559872D01*
X141506195Y-97551866D01*
X141489306Y-97522614D01*
X141453498Y-97469023D01*
X141441140Y-97439189D01*
X141427748Y-97415993D01*
X141420815Y-97390120D01*
X141408457Y-97360284D01*
X141395882Y-97297067D01*
X141387142Y-97264446D01*
X141387142Y-97253124D01*
X141385496Y-97244849D01*
X141385496Y-97127150D01*
X141387142Y-97118874D01*
X141387142Y-97107554D01*
X141395881Y-97074935D01*
X141408457Y-97011715D01*
X141420816Y-96981876D01*
X141427748Y-96956007D01*
X141441139Y-96932813D01*
X141453498Y-96902976D01*
X141489310Y-96849378D01*
X141506195Y-96820134D01*
X141514199Y-96812129D01*
X141518887Y-96805114D01*
X141602114Y-96721887D01*
X141609129Y-96717199D01*
X141617134Y-96709195D01*
X141646378Y-96692310D01*
X141699976Y-96656498D01*
X141729813Y-96644139D01*
X141753007Y-96630748D01*
X141778876Y-96623816D01*
X141808715Y-96611457D01*
X141871936Y-96598881D01*
X141904554Y-96590142D01*
X141916075Y-96590101D01*
X141924295Y-96588467D01*
X143380094Y-96585007D01*
X143380153Y-96585009D01*
X143383000Y-96585000D01*
X143392122Y-96585597D01*
G37*
G36*
X158792122Y-96585597D02*
G01*
X158838815Y-96587892D01*
X158844562Y-96589035D01*
X158861446Y-96590142D01*
X158894063Y-96598881D01*
X158957284Y-96611457D01*
X158987120Y-96623815D01*
X159012993Y-96630748D01*
X159036189Y-96644140D01*
X159066023Y-96656498D01*
X159119614Y-96692306D01*
X159148866Y-96709195D01*
X159156872Y-96717201D01*
X159163885Y-96721887D01*
X159247112Y-96805114D01*
X159251797Y-96812126D01*
X159259805Y-96820134D01*
X159276695Y-96849389D01*
X159312501Y-96902976D01*
X159324857Y-96932807D01*
X159338252Y-96956007D01*
X159345185Y-96981883D01*
X159357542Y-97011715D01*
X159370116Y-97074928D01*
X159378858Y-97107554D01*
X159378858Y-97118875D01*
X159380504Y-97127150D01*
X159380504Y-97244849D01*
X159378858Y-97253123D01*
X159378858Y-97264446D01*
X159370115Y-97297073D01*
X159357542Y-97360284D01*
X159345186Y-97390113D01*
X159338252Y-97415993D01*
X159324855Y-97439195D01*
X159312501Y-97469023D01*
X159276700Y-97522603D01*
X159259805Y-97551866D01*
X159251795Y-97559875D01*
X159247112Y-97566885D01*
X159163885Y-97650112D01*
X159156875Y-97654795D01*
X159148866Y-97662805D01*
X159119603Y-97679700D01*
X159066023Y-97715501D01*
X159036195Y-97727855D01*
X159012993Y-97741252D01*
X158987113Y-97748186D01*
X158957284Y-97760542D01*
X158894080Y-97773113D01*
X158861446Y-97781858D01*
X158849918Y-97781898D01*
X158841704Y-97783532D01*
X157385905Y-97786992D01*
X157385865Y-97786990D01*
X157383000Y-97787000D01*
X157373819Y-97786398D01*
X157327184Y-97784107D01*
X157321443Y-97782965D01*
X157304554Y-97781858D01*
X157271924Y-97773115D01*
X157208715Y-97760542D01*
X157178883Y-97748185D01*
X157153007Y-97741252D01*
X157129807Y-97727857D01*
X157099976Y-97715501D01*
X157046389Y-97679695D01*
X157017134Y-97662805D01*
X157009126Y-97654797D01*
X157002114Y-97650112D01*
X156918887Y-97566885D01*
X156914201Y-97559872D01*
X156906195Y-97551866D01*
X156889306Y-97522614D01*
X156853498Y-97469023D01*
X156841140Y-97439189D01*
X156827748Y-97415993D01*
X156820815Y-97390120D01*
X156808457Y-97360284D01*
X156795882Y-97297067D01*
X156787142Y-97264446D01*
X156787142Y-97253124D01*
X156785496Y-97244849D01*
X156785496Y-97127150D01*
X156787142Y-97118874D01*
X156787142Y-97107554D01*
X156795881Y-97074935D01*
X156808457Y-97011715D01*
X156820816Y-96981876D01*
X156827748Y-96956007D01*
X156841139Y-96932813D01*
X156853498Y-96902976D01*
X156889310Y-96849378D01*
X156906195Y-96820134D01*
X156914199Y-96812129D01*
X156918887Y-96805114D01*
X157002114Y-96721887D01*
X157009129Y-96717199D01*
X157017134Y-96709195D01*
X157046378Y-96692310D01*
X157099976Y-96656498D01*
X157129813Y-96644139D01*
X157153007Y-96630748D01*
X157178876Y-96623816D01*
X157208715Y-96611457D01*
X157271936Y-96598881D01*
X157304554Y-96590142D01*
X157316075Y-96590101D01*
X157324295Y-96588467D01*
X158780094Y-96585007D01*
X158780153Y-96585009D01*
X158783000Y-96585000D01*
X158792122Y-96585597D01*
G37*
G36*
X143392122Y-94585597D02*
G01*
X143438815Y-94587892D01*
X143444562Y-94589035D01*
X143461446Y-94590142D01*
X143494063Y-94598881D01*
X143557284Y-94611457D01*
X143587120Y-94623815D01*
X143612993Y-94630748D01*
X143636189Y-94644140D01*
X143666023Y-94656498D01*
X143719614Y-94692306D01*
X143748866Y-94709195D01*
X143756872Y-94717201D01*
X143763885Y-94721887D01*
X143847112Y-94805114D01*
X143851797Y-94812126D01*
X143859805Y-94820134D01*
X143876695Y-94849389D01*
X143912501Y-94902976D01*
X143924857Y-94932807D01*
X143938252Y-94956007D01*
X143945185Y-94981883D01*
X143957542Y-95011715D01*
X143970116Y-95074928D01*
X143978858Y-95107554D01*
X143978858Y-95118875D01*
X143980504Y-95127150D01*
X143980504Y-95244849D01*
X143978858Y-95253123D01*
X143978858Y-95264446D01*
X143970115Y-95297073D01*
X143957542Y-95360284D01*
X143945186Y-95390113D01*
X143938252Y-95415993D01*
X143924855Y-95439195D01*
X143912501Y-95469023D01*
X143876700Y-95522603D01*
X143859805Y-95551866D01*
X143851795Y-95559875D01*
X143847112Y-95566885D01*
X143763885Y-95650112D01*
X143756875Y-95654795D01*
X143748866Y-95662805D01*
X143719603Y-95679700D01*
X143666023Y-95715501D01*
X143636195Y-95727855D01*
X143612993Y-95741252D01*
X143587113Y-95748186D01*
X143557284Y-95760542D01*
X143494080Y-95773113D01*
X143461446Y-95781858D01*
X143449918Y-95781898D01*
X143441704Y-95783532D01*
X141985905Y-95786992D01*
X141985865Y-95786990D01*
X141983000Y-95787000D01*
X141973819Y-95786398D01*
X141927184Y-95784107D01*
X141921443Y-95782965D01*
X141904554Y-95781858D01*
X141871924Y-95773115D01*
X141808715Y-95760542D01*
X141778883Y-95748185D01*
X141753007Y-95741252D01*
X141729807Y-95727857D01*
X141699976Y-95715501D01*
X141646389Y-95679695D01*
X141617134Y-95662805D01*
X141609126Y-95654797D01*
X141602114Y-95650112D01*
X141518887Y-95566885D01*
X141514201Y-95559872D01*
X141506195Y-95551866D01*
X141489306Y-95522614D01*
X141453498Y-95469023D01*
X141441140Y-95439189D01*
X141427748Y-95415993D01*
X141420815Y-95390120D01*
X141408457Y-95360284D01*
X141395882Y-95297067D01*
X141387142Y-95264446D01*
X141387142Y-95253124D01*
X141385496Y-95244849D01*
X141385496Y-95127150D01*
X141387142Y-95118874D01*
X141387142Y-95107554D01*
X141395881Y-95074935D01*
X141408457Y-95011715D01*
X141420816Y-94981876D01*
X141427748Y-94956007D01*
X141441139Y-94932813D01*
X141453498Y-94902976D01*
X141489310Y-94849378D01*
X141506195Y-94820134D01*
X141514199Y-94812129D01*
X141518887Y-94805114D01*
X141602114Y-94721887D01*
X141609129Y-94717199D01*
X141617134Y-94709195D01*
X141646378Y-94692310D01*
X141699976Y-94656498D01*
X141729813Y-94644139D01*
X141753007Y-94630748D01*
X141778876Y-94623816D01*
X141808715Y-94611457D01*
X141871936Y-94598881D01*
X141904554Y-94590142D01*
X141916075Y-94590101D01*
X141924295Y-94588467D01*
X143380094Y-94585007D01*
X143380153Y-94585009D01*
X143383000Y-94585000D01*
X143392122Y-94585597D01*
G37*
G36*
X158792122Y-94585597D02*
G01*
X158838815Y-94587892D01*
X158844562Y-94589035D01*
X158861446Y-94590142D01*
X158894063Y-94598881D01*
X158957284Y-94611457D01*
X158987120Y-94623815D01*
X159012993Y-94630748D01*
X159036189Y-94644140D01*
X159066023Y-94656498D01*
X159119614Y-94692306D01*
X159148866Y-94709195D01*
X159156872Y-94717201D01*
X159163885Y-94721887D01*
X159247112Y-94805114D01*
X159251797Y-94812126D01*
X159259805Y-94820134D01*
X159276695Y-94849389D01*
X159312501Y-94902976D01*
X159324857Y-94932807D01*
X159338252Y-94956007D01*
X159345185Y-94981883D01*
X159357542Y-95011715D01*
X159370116Y-95074928D01*
X159378858Y-95107554D01*
X159378858Y-95118875D01*
X159380504Y-95127150D01*
X159380504Y-95244849D01*
X159378858Y-95253123D01*
X159378858Y-95264446D01*
X159370115Y-95297073D01*
X159357542Y-95360284D01*
X159345186Y-95390113D01*
X159338252Y-95415993D01*
X159324855Y-95439195D01*
X159312501Y-95469023D01*
X159276700Y-95522603D01*
X159259805Y-95551866D01*
X159251795Y-95559875D01*
X159247112Y-95566885D01*
X159163885Y-95650112D01*
X159156875Y-95654795D01*
X159148866Y-95662805D01*
X159119603Y-95679700D01*
X159066023Y-95715501D01*
X159036195Y-95727855D01*
X159012993Y-95741252D01*
X158987113Y-95748186D01*
X158957284Y-95760542D01*
X158894080Y-95773113D01*
X158861446Y-95781858D01*
X158849918Y-95781898D01*
X158841704Y-95783532D01*
X157385905Y-95786992D01*
X157385865Y-95786990D01*
X157383000Y-95787000D01*
X157373819Y-95786398D01*
X157327184Y-95784107D01*
X157321443Y-95782965D01*
X157304554Y-95781858D01*
X157271924Y-95773115D01*
X157208715Y-95760542D01*
X157178883Y-95748185D01*
X157153007Y-95741252D01*
X157129807Y-95727857D01*
X157099976Y-95715501D01*
X157046389Y-95679695D01*
X157017134Y-95662805D01*
X157009126Y-95654797D01*
X157002114Y-95650112D01*
X156918887Y-95566885D01*
X156914201Y-95559872D01*
X156906195Y-95551866D01*
X156889306Y-95522614D01*
X156853498Y-95469023D01*
X156841140Y-95439189D01*
X156827748Y-95415993D01*
X156820815Y-95390120D01*
X156808457Y-95360284D01*
X156795882Y-95297067D01*
X156787142Y-95264446D01*
X156787142Y-95253124D01*
X156785496Y-95244849D01*
X156785496Y-95127150D01*
X156787142Y-95118874D01*
X156787142Y-95107554D01*
X156795881Y-95074935D01*
X156808457Y-95011715D01*
X156820816Y-94981876D01*
X156827748Y-94956007D01*
X156841139Y-94932813D01*
X156853498Y-94902976D01*
X156889310Y-94849378D01*
X156906195Y-94820134D01*
X156914199Y-94812129D01*
X156918887Y-94805114D01*
X157002114Y-94721887D01*
X157009129Y-94717199D01*
X157017134Y-94709195D01*
X157046378Y-94692310D01*
X157099976Y-94656498D01*
X157129813Y-94644139D01*
X157153007Y-94630748D01*
X157178876Y-94623816D01*
X157208715Y-94611457D01*
X157271936Y-94598881D01*
X157304554Y-94590142D01*
X157316075Y-94590101D01*
X157324295Y-94588467D01*
X158780094Y-94585007D01*
X158780153Y-94585009D01*
X158783000Y-94585000D01*
X158792122Y-94585597D01*
G37*
G36*
X177572738Y-93177417D02*
G01*
X177618723Y-93177417D01*
X177669939Y-93186990D01*
X177726840Y-93192595D01*
X177770061Y-93205706D01*
X177809274Y-93213036D01*
X177863585Y-93234076D01*
X177924000Y-93252403D01*
X177958520Y-93270854D01*
X177990032Y-93283062D01*
X178044777Y-93316959D01*
X178105704Y-93349525D01*
X178131306Y-93370536D01*
X178154848Y-93385113D01*
X178207012Y-93432667D01*
X178264969Y-93480231D01*
X178282142Y-93501157D01*
X178298101Y-93515705D01*
X178344429Y-93577053D01*
X178395675Y-93639496D01*
X178405583Y-93658034D01*
X178414922Y-93670400D01*
X178452074Y-93745013D01*
X178492797Y-93821200D01*
X178497140Y-93835517D01*
X178501328Y-93843928D01*
X178526067Y-93930876D01*
X178552605Y-94018360D01*
X178553476Y-94027211D01*
X178554377Y-94030375D01*
X178563738Y-94131402D01*
X178572800Y-94223400D01*
X178563738Y-94315405D01*
X178554377Y-94416424D01*
X178553476Y-94419587D01*
X178552605Y-94428440D01*
X178526062Y-94515938D01*
X178501328Y-94602871D01*
X178497141Y-94611279D01*
X178492797Y-94625600D01*
X178452067Y-94701799D01*
X178414922Y-94776399D01*
X178405585Y-94788762D01*
X178395675Y-94807304D01*
X178344420Y-94869757D01*
X178298101Y-94931094D01*
X178282145Y-94945638D01*
X178264969Y-94966569D01*
X178207001Y-95014141D01*
X178154848Y-95061686D01*
X178131311Y-95076259D01*
X178105704Y-95097275D01*
X178044765Y-95129847D01*
X177990032Y-95163737D01*
X177958526Y-95175942D01*
X177924000Y-95194397D01*
X177863573Y-95212727D01*
X177809274Y-95233763D01*
X177770068Y-95241091D01*
X177726840Y-95254205D01*
X177669936Y-95259809D01*
X177618723Y-95269383D01*
X177572738Y-95269383D01*
X177521800Y-95274400D01*
X177470862Y-95269383D01*
X177424877Y-95269383D01*
X177373663Y-95259809D01*
X177316760Y-95254205D01*
X177273532Y-95241092D01*
X177234325Y-95233763D01*
X177180021Y-95212725D01*
X177119600Y-95194397D01*
X177085075Y-95175943D01*
X177053567Y-95163737D01*
X176998827Y-95129843D01*
X176937896Y-95097275D01*
X176912291Y-95076261D01*
X176888751Y-95061686D01*
X176836588Y-95014133D01*
X176778631Y-94966569D01*
X176761456Y-94945642D01*
X176745498Y-94931094D01*
X176699167Y-94869742D01*
X176647925Y-94807304D01*
X176638016Y-94788766D01*
X176628677Y-94776399D01*
X176591517Y-94701772D01*
X176550803Y-94625600D01*
X176546460Y-94611284D01*
X176542271Y-94602871D01*
X176517521Y-94515885D01*
X176490995Y-94428440D01*
X176490123Y-94419592D01*
X176489222Y-94416424D01*
X176479844Y-94315233D01*
X176470800Y-94223400D01*
X176479844Y-94131573D01*
X176489222Y-94030375D01*
X176490123Y-94027205D01*
X176490995Y-94018360D01*
X176517516Y-93930929D01*
X176542271Y-93843928D01*
X176546461Y-93835512D01*
X176550803Y-93821200D01*
X176591510Y-93745041D01*
X176628677Y-93670400D01*
X176638018Y-93658029D01*
X176647925Y-93639496D01*
X176699157Y-93577068D01*
X176745498Y-93515705D01*
X176761460Y-93501153D01*
X176778631Y-93480231D01*
X176836577Y-93432675D01*
X176888751Y-93385113D01*
X176912296Y-93370534D01*
X176937896Y-93349525D01*
X176998815Y-93316963D01*
X177053567Y-93283062D01*
X177085082Y-93270852D01*
X177119600Y-93252403D01*
X177180009Y-93234077D01*
X177234325Y-93213036D01*
X177273539Y-93205705D01*
X177316760Y-93192595D01*
X177373660Y-93186990D01*
X177424877Y-93177417D01*
X177470862Y-93177417D01*
X177521800Y-93172400D01*
X177572738Y-93177417D01*
G37*
G36*
X185041317Y-93176282D02*
G01*
X185057862Y-93187338D01*
X185068918Y-93203883D01*
X185072800Y-93223400D01*
X185072800Y-95223400D01*
X185068918Y-95242917D01*
X185057862Y-95259462D01*
X185041317Y-95270518D01*
X185021800Y-95274400D01*
X183021800Y-95274400D01*
X183002283Y-95270518D01*
X182985738Y-95259462D01*
X182974682Y-95242917D01*
X182970800Y-95223400D01*
X182970800Y-93223400D01*
X182974682Y-93203883D01*
X182985738Y-93187338D01*
X183002283Y-93176282D01*
X183021800Y-93172400D01*
X185021800Y-93172400D01*
X185041317Y-93176282D01*
G37*
G36*
X143392122Y-92585597D02*
G01*
X143438815Y-92587892D01*
X143444562Y-92589035D01*
X143461446Y-92590142D01*
X143494063Y-92598881D01*
X143557284Y-92611457D01*
X143587120Y-92623815D01*
X143612993Y-92630748D01*
X143636189Y-92644140D01*
X143666023Y-92656498D01*
X143719614Y-92692306D01*
X143748866Y-92709195D01*
X143756872Y-92717201D01*
X143763885Y-92721887D01*
X143847112Y-92805114D01*
X143851797Y-92812126D01*
X143859805Y-92820134D01*
X143876695Y-92849389D01*
X143912501Y-92902976D01*
X143924857Y-92932807D01*
X143938252Y-92956007D01*
X143945185Y-92981883D01*
X143957542Y-93011715D01*
X143970116Y-93074928D01*
X143978858Y-93107554D01*
X143978858Y-93118875D01*
X143980504Y-93127150D01*
X143980504Y-93244849D01*
X143978858Y-93253123D01*
X143978858Y-93264446D01*
X143970115Y-93297073D01*
X143957542Y-93360284D01*
X143945186Y-93390113D01*
X143938252Y-93415993D01*
X143924855Y-93439195D01*
X143912501Y-93469023D01*
X143876700Y-93522603D01*
X143859805Y-93551866D01*
X143851795Y-93559875D01*
X143847112Y-93566885D01*
X143763885Y-93650112D01*
X143756875Y-93654795D01*
X143748866Y-93662805D01*
X143719603Y-93679700D01*
X143666023Y-93715501D01*
X143636195Y-93727855D01*
X143612993Y-93741252D01*
X143587113Y-93748186D01*
X143557284Y-93760542D01*
X143494080Y-93773113D01*
X143461446Y-93781858D01*
X143449918Y-93781898D01*
X143441704Y-93783532D01*
X141985905Y-93786992D01*
X141985865Y-93786990D01*
X141983000Y-93787000D01*
X141973819Y-93786398D01*
X141927184Y-93784107D01*
X141921443Y-93782965D01*
X141904554Y-93781858D01*
X141871924Y-93773115D01*
X141808715Y-93760542D01*
X141778883Y-93748185D01*
X141753007Y-93741252D01*
X141729807Y-93727857D01*
X141699976Y-93715501D01*
X141646389Y-93679695D01*
X141617134Y-93662805D01*
X141609126Y-93654797D01*
X141602114Y-93650112D01*
X141518887Y-93566885D01*
X141514201Y-93559872D01*
X141506195Y-93551866D01*
X141489306Y-93522614D01*
X141453498Y-93469023D01*
X141441140Y-93439189D01*
X141427748Y-93415993D01*
X141420815Y-93390120D01*
X141408457Y-93360284D01*
X141395882Y-93297067D01*
X141387142Y-93264446D01*
X141387142Y-93253124D01*
X141385496Y-93244849D01*
X141385496Y-93127150D01*
X141387142Y-93118874D01*
X141387142Y-93107554D01*
X141395881Y-93074935D01*
X141408457Y-93011715D01*
X141420816Y-92981876D01*
X141427748Y-92956007D01*
X141441139Y-92932813D01*
X141453498Y-92902976D01*
X141489310Y-92849378D01*
X141506195Y-92820134D01*
X141514199Y-92812129D01*
X141518887Y-92805114D01*
X141602114Y-92721887D01*
X141609129Y-92717199D01*
X141617134Y-92709195D01*
X141646378Y-92692310D01*
X141699976Y-92656498D01*
X141729813Y-92644139D01*
X141753007Y-92630748D01*
X141778876Y-92623816D01*
X141808715Y-92611457D01*
X141871936Y-92598881D01*
X141904554Y-92590142D01*
X141916075Y-92590101D01*
X141924295Y-92588467D01*
X143380094Y-92585007D01*
X143380153Y-92585009D01*
X143383000Y-92585000D01*
X143392122Y-92585597D01*
G37*
G36*
X158792122Y-92585597D02*
G01*
X158838815Y-92587892D01*
X158844562Y-92589035D01*
X158861446Y-92590142D01*
X158894063Y-92598881D01*
X158957284Y-92611457D01*
X158987120Y-92623815D01*
X159012993Y-92630748D01*
X159036189Y-92644140D01*
X159066023Y-92656498D01*
X159119614Y-92692306D01*
X159148866Y-92709195D01*
X159156872Y-92717201D01*
X159163885Y-92721887D01*
X159247112Y-92805114D01*
X159251797Y-92812126D01*
X159259805Y-92820134D01*
X159276695Y-92849389D01*
X159312501Y-92902976D01*
X159324857Y-92932807D01*
X159338252Y-92956007D01*
X159345185Y-92981883D01*
X159357542Y-93011715D01*
X159370116Y-93074928D01*
X159378858Y-93107554D01*
X159378858Y-93118875D01*
X159380504Y-93127150D01*
X159380504Y-93244849D01*
X159378858Y-93253123D01*
X159378858Y-93264446D01*
X159370115Y-93297073D01*
X159357542Y-93360284D01*
X159345186Y-93390113D01*
X159338252Y-93415993D01*
X159324855Y-93439195D01*
X159312501Y-93469023D01*
X159276700Y-93522603D01*
X159259805Y-93551866D01*
X159251795Y-93559875D01*
X159247112Y-93566885D01*
X159163885Y-93650112D01*
X159156875Y-93654795D01*
X159148866Y-93662805D01*
X159119603Y-93679700D01*
X159066023Y-93715501D01*
X159036195Y-93727855D01*
X159012993Y-93741252D01*
X158987113Y-93748186D01*
X158957284Y-93760542D01*
X158894080Y-93773113D01*
X158861446Y-93781858D01*
X158849918Y-93781898D01*
X158841704Y-93783532D01*
X157385905Y-93786992D01*
X157385865Y-93786990D01*
X157383000Y-93787000D01*
X157373819Y-93786398D01*
X157327184Y-93784107D01*
X157321443Y-93782965D01*
X157304554Y-93781858D01*
X157271924Y-93773115D01*
X157208715Y-93760542D01*
X157178883Y-93748185D01*
X157153007Y-93741252D01*
X157129807Y-93727857D01*
X157099976Y-93715501D01*
X157046389Y-93679695D01*
X157017134Y-93662805D01*
X157009126Y-93654797D01*
X157002114Y-93650112D01*
X156918887Y-93566885D01*
X156914201Y-93559872D01*
X156906195Y-93551866D01*
X156889306Y-93522614D01*
X156853498Y-93469023D01*
X156841140Y-93439189D01*
X156827748Y-93415993D01*
X156820815Y-93390120D01*
X156808457Y-93360284D01*
X156795882Y-93297067D01*
X156787142Y-93264446D01*
X156787142Y-93253124D01*
X156785496Y-93244849D01*
X156785496Y-93127150D01*
X156787142Y-93118874D01*
X156787142Y-93107554D01*
X156795881Y-93074935D01*
X156808457Y-93011715D01*
X156820816Y-92981876D01*
X156827748Y-92956007D01*
X156841139Y-92932813D01*
X156853498Y-92902976D01*
X156889310Y-92849378D01*
X156906195Y-92820134D01*
X156914199Y-92812129D01*
X156918887Y-92805114D01*
X157002114Y-92721887D01*
X157009129Y-92717199D01*
X157017134Y-92709195D01*
X157046378Y-92692310D01*
X157099976Y-92656498D01*
X157129813Y-92644139D01*
X157153007Y-92630748D01*
X157178876Y-92623816D01*
X157208715Y-92611457D01*
X157271936Y-92598881D01*
X157304554Y-92590142D01*
X157316075Y-92590101D01*
X157324295Y-92588467D01*
X158780094Y-92585007D01*
X158780153Y-92585009D01*
X158783000Y-92585000D01*
X158792122Y-92585597D01*
G37*
G36*
X100783602Y-90526097D02*
G01*
X100824694Y-90526097D01*
X100870454Y-90534651D01*
X100922529Y-90539780D01*
X100962089Y-90551780D01*
X100997109Y-90558327D01*
X101045615Y-90577118D01*
X101100930Y-90593898D01*
X101132532Y-90610789D01*
X101160654Y-90621684D01*
X101209511Y-90651935D01*
X101265345Y-90681779D01*
X101288807Y-90701033D01*
X101309782Y-90714021D01*
X101356254Y-90756386D01*
X101409457Y-90800048D01*
X101425222Y-90819258D01*
X101439398Y-90832181D01*
X101480555Y-90886681D01*
X101527726Y-90944160D01*
X101536846Y-90961224D01*
X101545097Y-90972149D01*
X101577923Y-91038073D01*
X101615607Y-91108575D01*
X101619626Y-91121823D01*
X101623280Y-91129162D01*
X101644862Y-91205014D01*
X101669725Y-91286976D01*
X101670541Y-91295269D01*
X101671278Y-91297857D01*
X101678935Y-91380489D01*
X101687998Y-91472507D01*
X101678934Y-91564533D01*
X101671278Y-91647156D01*
X101670542Y-91649742D01*
X101669725Y-91658038D01*
X101644857Y-91740014D01*
X101623280Y-91815851D01*
X101619626Y-91823187D01*
X101615607Y-91836439D01*
X101577915Y-91906954D01*
X101545097Y-91972864D01*
X101536848Y-91983786D01*
X101527726Y-92000854D01*
X101480545Y-92058343D01*
X101439398Y-92112832D01*
X101425225Y-92125751D01*
X101409457Y-92144966D01*
X101356243Y-92188636D01*
X101309782Y-92230992D01*
X101288812Y-92243976D01*
X101265345Y-92263235D01*
X101209500Y-92293084D01*
X101160654Y-92323329D01*
X101132539Y-92334220D01*
X101100930Y-92351116D01*
X101045603Y-92367899D01*
X100997109Y-92386686D01*
X100962096Y-92393231D01*
X100922529Y-92405234D01*
X100870451Y-92410363D01*
X100824694Y-92418917D01*
X100783602Y-92418917D01*
X100736998Y-92423507D01*
X100690394Y-92418917D01*
X100649302Y-92418917D01*
X100603543Y-92410363D01*
X100551467Y-92405234D01*
X100511900Y-92393231D01*
X100476886Y-92386686D01*
X100428387Y-92367897D01*
X100373066Y-92351116D01*
X100341459Y-92334221D01*
X100313341Y-92323329D01*
X100264488Y-92293080D01*
X100208651Y-92263235D01*
X100185186Y-92243978D01*
X100164213Y-92230992D01*
X100117742Y-92188628D01*
X100064539Y-92144966D01*
X100048773Y-92125755D01*
X100034597Y-92112832D01*
X99993437Y-92058328D01*
X99946270Y-92000854D01*
X99937149Y-91983791D01*
X99928898Y-91972864D01*
X99896065Y-91906927D01*
X99858389Y-91836439D01*
X99854370Y-91823192D01*
X99850715Y-91815851D01*
X99829122Y-91739961D01*
X99804271Y-91658038D01*
X99803454Y-91649748D01*
X99802717Y-91647156D01*
X99795044Y-91564361D01*
X99785998Y-91472507D01*
X99795043Y-91380660D01*
X99802717Y-91297857D01*
X99803454Y-91295264D01*
X99804271Y-91286976D01*
X99829117Y-91205067D01*
X99850715Y-91129162D01*
X99854371Y-91121818D01*
X99858389Y-91108575D01*
X99896058Y-91038100D01*
X99928898Y-90972149D01*
X99937151Y-90961219D01*
X99946270Y-90944160D01*
X99993428Y-90886697D01*
X100034597Y-90832181D01*
X100048776Y-90819254D01*
X100064539Y-90800048D01*
X100117731Y-90756394D01*
X100164213Y-90714021D01*
X100185191Y-90701031D01*
X100208651Y-90681779D01*
X100264476Y-90651939D01*
X100313341Y-90621684D01*
X100341465Y-90610788D01*
X100373066Y-90593898D01*
X100428375Y-90577119D01*
X100476886Y-90558327D01*
X100511907Y-90551780D01*
X100551467Y-90539780D01*
X100603540Y-90534651D01*
X100649302Y-90526097D01*
X100690394Y-90526097D01*
X100736998Y-90521507D01*
X100783602Y-90526097D01*
G37*
G36*
X103323602Y-90526097D02*
G01*
X103364694Y-90526097D01*
X103410454Y-90534651D01*
X103462529Y-90539780D01*
X103502089Y-90551780D01*
X103537109Y-90558327D01*
X103585615Y-90577118D01*
X103640930Y-90593898D01*
X103672532Y-90610789D01*
X103700654Y-90621684D01*
X103749511Y-90651935D01*
X103805345Y-90681779D01*
X103828807Y-90701033D01*
X103849782Y-90714021D01*
X103896254Y-90756386D01*
X103949457Y-90800048D01*
X103965222Y-90819258D01*
X103979398Y-90832181D01*
X104020555Y-90886681D01*
X104067726Y-90944160D01*
X104076846Y-90961224D01*
X104085097Y-90972149D01*
X104117923Y-91038073D01*
X104155607Y-91108575D01*
X104159626Y-91121823D01*
X104163280Y-91129162D01*
X104184862Y-91205014D01*
X104209725Y-91286976D01*
X104210541Y-91295269D01*
X104211278Y-91297857D01*
X104218935Y-91380489D01*
X104227998Y-91472507D01*
X104218934Y-91564533D01*
X104211278Y-91647156D01*
X104210542Y-91649742D01*
X104209725Y-91658038D01*
X104184857Y-91740014D01*
X104163280Y-91815851D01*
X104159626Y-91823187D01*
X104155607Y-91836439D01*
X104117915Y-91906954D01*
X104085097Y-91972864D01*
X104076848Y-91983786D01*
X104067726Y-92000854D01*
X104020545Y-92058343D01*
X103979398Y-92112832D01*
X103965225Y-92125751D01*
X103949457Y-92144966D01*
X103896243Y-92188636D01*
X103849782Y-92230992D01*
X103828812Y-92243976D01*
X103805345Y-92263235D01*
X103749500Y-92293084D01*
X103700654Y-92323329D01*
X103672539Y-92334220D01*
X103640930Y-92351116D01*
X103585603Y-92367899D01*
X103537109Y-92386686D01*
X103502096Y-92393231D01*
X103462529Y-92405234D01*
X103410451Y-92410363D01*
X103364694Y-92418917D01*
X103323602Y-92418917D01*
X103276998Y-92423507D01*
X103230394Y-92418917D01*
X103189302Y-92418917D01*
X103143543Y-92410363D01*
X103091467Y-92405234D01*
X103051900Y-92393231D01*
X103016886Y-92386686D01*
X102968387Y-92367897D01*
X102913066Y-92351116D01*
X102881459Y-92334221D01*
X102853341Y-92323329D01*
X102804488Y-92293080D01*
X102748651Y-92263235D01*
X102725186Y-92243978D01*
X102704213Y-92230992D01*
X102657742Y-92188628D01*
X102604539Y-92144966D01*
X102588773Y-92125755D01*
X102574597Y-92112832D01*
X102533437Y-92058328D01*
X102486270Y-92000854D01*
X102477149Y-91983791D01*
X102468898Y-91972864D01*
X102436065Y-91906927D01*
X102398389Y-91836439D01*
X102394370Y-91823192D01*
X102390715Y-91815851D01*
X102369122Y-91739961D01*
X102344271Y-91658038D01*
X102343454Y-91649748D01*
X102342717Y-91647156D01*
X102335044Y-91564361D01*
X102325998Y-91472507D01*
X102335043Y-91380660D01*
X102342717Y-91297857D01*
X102343454Y-91295264D01*
X102344271Y-91286976D01*
X102369117Y-91205067D01*
X102390715Y-91129162D01*
X102394371Y-91121818D01*
X102398389Y-91108575D01*
X102436058Y-91038100D01*
X102468898Y-90972149D01*
X102477151Y-90961219D01*
X102486270Y-90944160D01*
X102533428Y-90886697D01*
X102574597Y-90832181D01*
X102588776Y-90819254D01*
X102604539Y-90800048D01*
X102657731Y-90756394D01*
X102704213Y-90714021D01*
X102725191Y-90701031D01*
X102748651Y-90681779D01*
X102804476Y-90651939D01*
X102853341Y-90621684D01*
X102881465Y-90610788D01*
X102913066Y-90593898D01*
X102968375Y-90577119D01*
X103016886Y-90558327D01*
X103051907Y-90551780D01*
X103091467Y-90539780D01*
X103143540Y-90534651D01*
X103189302Y-90526097D01*
X103230394Y-90526097D01*
X103276998Y-90521507D01*
X103323602Y-90526097D01*
G37*
G36*
X106736515Y-90525389D02*
G01*
X106753060Y-90536445D01*
X106764116Y-90552990D01*
X106767998Y-90572507D01*
X106767998Y-92372507D01*
X106764116Y-92392024D01*
X106753060Y-92408569D01*
X106736515Y-92419625D01*
X106716998Y-92423507D01*
X104916998Y-92423507D01*
X104897481Y-92419625D01*
X104880936Y-92408569D01*
X104869880Y-92392024D01*
X104865998Y-92372507D01*
X104865998Y-90572507D01*
X104869880Y-90552990D01*
X104880936Y-90536445D01*
X104897481Y-90525389D01*
X104916998Y-90521507D01*
X106716998Y-90521507D01*
X106736515Y-90525389D01*
G37*
G36*
X143952517Y-90588882D02*
G01*
X143969062Y-90599938D01*
X143980118Y-90616483D01*
X143984000Y-90636000D01*
X143984000Y-91736000D01*
X143980118Y-91755517D01*
X143969062Y-91772062D01*
X143952517Y-91783118D01*
X143933000Y-91787000D01*
X141433000Y-91787000D01*
X141413483Y-91783118D01*
X141396938Y-91772062D01*
X141385882Y-91755517D01*
X141382000Y-91736000D01*
X141382000Y-90636000D01*
X141385882Y-90616483D01*
X141396938Y-90599938D01*
X141413483Y-90588882D01*
X141433000Y-90585000D01*
X143933000Y-90585000D01*
X143952517Y-90588882D01*
G37*
G36*
X158792122Y-90585597D02*
G01*
X158838815Y-90587892D01*
X158844562Y-90589035D01*
X158861446Y-90590142D01*
X158894063Y-90598881D01*
X158957284Y-90611457D01*
X158987120Y-90623815D01*
X159012993Y-90630748D01*
X159036189Y-90644140D01*
X159066023Y-90656498D01*
X159119614Y-90692306D01*
X159148866Y-90709195D01*
X159156872Y-90717201D01*
X159163885Y-90721887D01*
X159247112Y-90805114D01*
X159251797Y-90812126D01*
X159259805Y-90820134D01*
X159276695Y-90849389D01*
X159312501Y-90902976D01*
X159324857Y-90932807D01*
X159338252Y-90956007D01*
X159345185Y-90981883D01*
X159357542Y-91011715D01*
X159370116Y-91074928D01*
X159378858Y-91107554D01*
X159378858Y-91118875D01*
X159380504Y-91127150D01*
X159380504Y-91244849D01*
X159378858Y-91253123D01*
X159378858Y-91264446D01*
X159370115Y-91297073D01*
X159357542Y-91360284D01*
X159345186Y-91390113D01*
X159338252Y-91415993D01*
X159324855Y-91439195D01*
X159312501Y-91469023D01*
X159276700Y-91522603D01*
X159259805Y-91551866D01*
X159251795Y-91559875D01*
X159247112Y-91566885D01*
X159163885Y-91650112D01*
X159156875Y-91654795D01*
X159148866Y-91662805D01*
X159119603Y-91679700D01*
X159066023Y-91715501D01*
X159036195Y-91727855D01*
X159012993Y-91741252D01*
X158987113Y-91748186D01*
X158957284Y-91760542D01*
X158894080Y-91773113D01*
X158861446Y-91781858D01*
X158849918Y-91781898D01*
X158841704Y-91783532D01*
X157385905Y-91786992D01*
X157385865Y-91786990D01*
X157383000Y-91787000D01*
X157373819Y-91786398D01*
X157327184Y-91784107D01*
X157321443Y-91782965D01*
X157304554Y-91781858D01*
X157271924Y-91773115D01*
X157208715Y-91760542D01*
X157178883Y-91748185D01*
X157153007Y-91741252D01*
X157129807Y-91727857D01*
X157099976Y-91715501D01*
X157046389Y-91679695D01*
X157017134Y-91662805D01*
X157009126Y-91654797D01*
X157002114Y-91650112D01*
X156918887Y-91566885D01*
X156914201Y-91559872D01*
X156906195Y-91551866D01*
X156889306Y-91522614D01*
X156853498Y-91469023D01*
X156841140Y-91439189D01*
X156827748Y-91415993D01*
X156820815Y-91390120D01*
X156808457Y-91360284D01*
X156795882Y-91297067D01*
X156787142Y-91264446D01*
X156787142Y-91253124D01*
X156785496Y-91244849D01*
X156785496Y-91127150D01*
X156787142Y-91118874D01*
X156787142Y-91107554D01*
X156795881Y-91074935D01*
X156808457Y-91011715D01*
X156820816Y-90981876D01*
X156827748Y-90956007D01*
X156841139Y-90932813D01*
X156853498Y-90902976D01*
X156889310Y-90849378D01*
X156906195Y-90820134D01*
X156914199Y-90812129D01*
X156918887Y-90805114D01*
X157002114Y-90721887D01*
X157009129Y-90717199D01*
X157017134Y-90709195D01*
X157046378Y-90692310D01*
X157099976Y-90656498D01*
X157129813Y-90644139D01*
X157153007Y-90630748D01*
X157178876Y-90623816D01*
X157208715Y-90611457D01*
X157271936Y-90598881D01*
X157304554Y-90590142D01*
X157316075Y-90590101D01*
X157324295Y-90588467D01*
X158780094Y-90585007D01*
X158780153Y-90585009D01*
X158783000Y-90585000D01*
X158792122Y-90585597D01*
G37*
G36*
X177572738Y-88677417D02*
G01*
X177618723Y-88677417D01*
X177669939Y-88686990D01*
X177726840Y-88692595D01*
X177770061Y-88705706D01*
X177809274Y-88713036D01*
X177863585Y-88734076D01*
X177924000Y-88752403D01*
X177958520Y-88770854D01*
X177990032Y-88783062D01*
X178044777Y-88816959D01*
X178105704Y-88849525D01*
X178131306Y-88870536D01*
X178154848Y-88885113D01*
X178207012Y-88932667D01*
X178264969Y-88980231D01*
X178282142Y-89001157D01*
X178298101Y-89015705D01*
X178344429Y-89077053D01*
X178395675Y-89139496D01*
X178405583Y-89158034D01*
X178414922Y-89170400D01*
X178452074Y-89245013D01*
X178492797Y-89321200D01*
X178497140Y-89335517D01*
X178501328Y-89343928D01*
X178526067Y-89430876D01*
X178552605Y-89518360D01*
X178553476Y-89527211D01*
X178554377Y-89530375D01*
X178563738Y-89631402D01*
X178572800Y-89723400D01*
X178563738Y-89815405D01*
X178554377Y-89916424D01*
X178553476Y-89919587D01*
X178552605Y-89928440D01*
X178526062Y-90015938D01*
X178501328Y-90102871D01*
X178497141Y-90111279D01*
X178492797Y-90125600D01*
X178452067Y-90201799D01*
X178414922Y-90276399D01*
X178405585Y-90288762D01*
X178395675Y-90307304D01*
X178344420Y-90369757D01*
X178298101Y-90431094D01*
X178282145Y-90445638D01*
X178264969Y-90466569D01*
X178207001Y-90514141D01*
X178154848Y-90561686D01*
X178131311Y-90576259D01*
X178105704Y-90597275D01*
X178044765Y-90629847D01*
X177990032Y-90663737D01*
X177958526Y-90675942D01*
X177924000Y-90694397D01*
X177863573Y-90712727D01*
X177809274Y-90733763D01*
X177770068Y-90741091D01*
X177726840Y-90754205D01*
X177669936Y-90759809D01*
X177618723Y-90769383D01*
X177572738Y-90769383D01*
X177521800Y-90774400D01*
X177470862Y-90769383D01*
X177424877Y-90769383D01*
X177373663Y-90759809D01*
X177316760Y-90754205D01*
X177273532Y-90741092D01*
X177234325Y-90733763D01*
X177180021Y-90712725D01*
X177119600Y-90694397D01*
X177085075Y-90675943D01*
X177053567Y-90663737D01*
X176998827Y-90629843D01*
X176937896Y-90597275D01*
X176912291Y-90576261D01*
X176888751Y-90561686D01*
X176836588Y-90514133D01*
X176778631Y-90466569D01*
X176761456Y-90445642D01*
X176745498Y-90431094D01*
X176699167Y-90369742D01*
X176647925Y-90307304D01*
X176638016Y-90288766D01*
X176628677Y-90276399D01*
X176591517Y-90201772D01*
X176550803Y-90125600D01*
X176546460Y-90111284D01*
X176542271Y-90102871D01*
X176517521Y-90015885D01*
X176490995Y-89928440D01*
X176490123Y-89919592D01*
X176489222Y-89916424D01*
X176479844Y-89815233D01*
X176470800Y-89723400D01*
X176479844Y-89631573D01*
X176489222Y-89530375D01*
X176490123Y-89527205D01*
X176490995Y-89518360D01*
X176517516Y-89430929D01*
X176542271Y-89343928D01*
X176546461Y-89335512D01*
X176550803Y-89321200D01*
X176591510Y-89245041D01*
X176628677Y-89170400D01*
X176638018Y-89158029D01*
X176647925Y-89139496D01*
X176699157Y-89077068D01*
X176745498Y-89015705D01*
X176761460Y-89001153D01*
X176778631Y-88980231D01*
X176836577Y-88932675D01*
X176888751Y-88885113D01*
X176912296Y-88870534D01*
X176937896Y-88849525D01*
X176998815Y-88816963D01*
X177053567Y-88783062D01*
X177085082Y-88770852D01*
X177119600Y-88752403D01*
X177180009Y-88734077D01*
X177234325Y-88713036D01*
X177273539Y-88705705D01*
X177316760Y-88692595D01*
X177373660Y-88686990D01*
X177424877Y-88677417D01*
X177470862Y-88677417D01*
X177521800Y-88672400D01*
X177572738Y-88677417D01*
G37*
G36*
X184072738Y-88677417D02*
G01*
X184118723Y-88677417D01*
X184169939Y-88686990D01*
X184226840Y-88692595D01*
X184270061Y-88705706D01*
X184309274Y-88713036D01*
X184363585Y-88734076D01*
X184424000Y-88752403D01*
X184458520Y-88770854D01*
X184490032Y-88783062D01*
X184544777Y-88816959D01*
X184605704Y-88849525D01*
X184631306Y-88870536D01*
X184654848Y-88885113D01*
X184707012Y-88932667D01*
X184764969Y-88980231D01*
X184782142Y-89001157D01*
X184798101Y-89015705D01*
X184844429Y-89077053D01*
X184895675Y-89139496D01*
X184905583Y-89158034D01*
X184914922Y-89170400D01*
X184952074Y-89245013D01*
X184992797Y-89321200D01*
X184997140Y-89335517D01*
X185001328Y-89343928D01*
X185026067Y-89430876D01*
X185052605Y-89518360D01*
X185053476Y-89527211D01*
X185054377Y-89530375D01*
X185063738Y-89631402D01*
X185072800Y-89723400D01*
X185063738Y-89815405D01*
X185054377Y-89916424D01*
X185053476Y-89919587D01*
X185052605Y-89928440D01*
X185026062Y-90015938D01*
X185001328Y-90102871D01*
X184997141Y-90111279D01*
X184992797Y-90125600D01*
X184952067Y-90201799D01*
X184914922Y-90276399D01*
X184905585Y-90288762D01*
X184895675Y-90307304D01*
X184844420Y-90369757D01*
X184798101Y-90431094D01*
X184782145Y-90445638D01*
X184764969Y-90466569D01*
X184707001Y-90514141D01*
X184654848Y-90561686D01*
X184631311Y-90576259D01*
X184605704Y-90597275D01*
X184544765Y-90629847D01*
X184490032Y-90663737D01*
X184458526Y-90675942D01*
X184424000Y-90694397D01*
X184363573Y-90712727D01*
X184309274Y-90733763D01*
X184270068Y-90741091D01*
X184226840Y-90754205D01*
X184169936Y-90759809D01*
X184118723Y-90769383D01*
X184072738Y-90769383D01*
X184021800Y-90774400D01*
X183970862Y-90769383D01*
X183924877Y-90769383D01*
X183873663Y-90759809D01*
X183816760Y-90754205D01*
X183773532Y-90741092D01*
X183734325Y-90733763D01*
X183680021Y-90712725D01*
X183619600Y-90694397D01*
X183585075Y-90675943D01*
X183553567Y-90663737D01*
X183498827Y-90629843D01*
X183437896Y-90597275D01*
X183412291Y-90576261D01*
X183388751Y-90561686D01*
X183336588Y-90514133D01*
X183278631Y-90466569D01*
X183261456Y-90445642D01*
X183245498Y-90431094D01*
X183199167Y-90369742D01*
X183147925Y-90307304D01*
X183138016Y-90288766D01*
X183128677Y-90276399D01*
X183091517Y-90201772D01*
X183050803Y-90125600D01*
X183046460Y-90111284D01*
X183042271Y-90102871D01*
X183017521Y-90015885D01*
X182990995Y-89928440D01*
X182990123Y-89919592D01*
X182989222Y-89916424D01*
X182979844Y-89815233D01*
X182970800Y-89723400D01*
X182979844Y-89631573D01*
X182989222Y-89530375D01*
X182990123Y-89527205D01*
X182990995Y-89518360D01*
X183017516Y-89430929D01*
X183042271Y-89343928D01*
X183046461Y-89335512D01*
X183050803Y-89321200D01*
X183091510Y-89245041D01*
X183128677Y-89170400D01*
X183138018Y-89158029D01*
X183147925Y-89139496D01*
X183199157Y-89077068D01*
X183245498Y-89015705D01*
X183261460Y-89001153D01*
X183278631Y-88980231D01*
X183336577Y-88932675D01*
X183388751Y-88885113D01*
X183412296Y-88870534D01*
X183437896Y-88849525D01*
X183498815Y-88816963D01*
X183553567Y-88783062D01*
X183585082Y-88770852D01*
X183619600Y-88752403D01*
X183680009Y-88734077D01*
X183734325Y-88713036D01*
X183773539Y-88705705D01*
X183816760Y-88692595D01*
X183873660Y-88686990D01*
X183924877Y-88677417D01*
X183970862Y-88677417D01*
X184021800Y-88672400D01*
X184072738Y-88677417D01*
G37*
G36*
X130028517Y-83684882D02*
G01*
X130045062Y-83695938D01*
X130056118Y-83712483D01*
X130060000Y-83732000D01*
X130060000Y-85432000D01*
X130056118Y-85451517D01*
X130045062Y-85468062D01*
X130028517Y-85479118D01*
X130009000Y-85483000D01*
X128309000Y-85483000D01*
X128289483Y-85479118D01*
X128272938Y-85468062D01*
X128261882Y-85451517D01*
X128258000Y-85432000D01*
X128258000Y-83732000D01*
X128261882Y-83712483D01*
X128272938Y-83695938D01*
X128289483Y-83684882D01*
X128309000Y-83681000D01*
X130009000Y-83681000D01*
X130028517Y-83684882D01*
G37*
G36*
X131742983Y-83685936D02*
G01*
X131793180Y-83685936D01*
X131836524Y-83695149D01*
X131874659Y-83698905D01*
X131922566Y-83713437D01*
X131977424Y-83725098D01*
X132012530Y-83740728D01*
X132043566Y-83750143D01*
X132092884Y-83776504D01*
X132149500Y-83801711D01*
X132175822Y-83820835D01*
X132199232Y-83833348D01*
X132246988Y-83872540D01*
X132301887Y-83912427D01*
X132319711Y-83932223D01*
X132335675Y-83945324D01*
X132378572Y-83997594D01*
X132427924Y-84052405D01*
X132438292Y-84070363D01*
X132447651Y-84081767D01*
X132482273Y-84146542D01*
X132522104Y-84215530D01*
X132526685Y-84229630D01*
X132530856Y-84237433D01*
X132553852Y-84313242D01*
X132580311Y-84394672D01*
X132581242Y-84403532D01*
X132582094Y-84406340D01*
X132590384Y-84490513D01*
X132600000Y-84582000D01*
X132590383Y-84673494D01*
X132582094Y-84757659D01*
X132581242Y-84760466D01*
X132580311Y-84769328D01*
X132553848Y-84850771D01*
X132530856Y-84926566D01*
X132526686Y-84934366D01*
X132522104Y-84948470D01*
X132482266Y-85017470D01*
X132447651Y-85082232D01*
X132438294Y-85093633D01*
X132427924Y-85111595D01*
X132378563Y-85166415D01*
X132335675Y-85218675D01*
X132319714Y-85231773D01*
X132301887Y-85251573D01*
X132246977Y-85291467D01*
X132199232Y-85330651D01*
X132175827Y-85343161D01*
X132149500Y-85362289D01*
X132092873Y-85387500D01*
X132043566Y-85413856D01*
X132012537Y-85423268D01*
X131977424Y-85438902D01*
X131922555Y-85450564D01*
X131874659Y-85465094D01*
X131836532Y-85468849D01*
X131793180Y-85478064D01*
X131742973Y-85478064D01*
X131699000Y-85482395D01*
X131655027Y-85478064D01*
X131604820Y-85478064D01*
X131561467Y-85468849D01*
X131523340Y-85465094D01*
X131475441Y-85450563D01*
X131420576Y-85438902D01*
X131385464Y-85423269D01*
X131354433Y-85413856D01*
X131305120Y-85387498D01*
X131248500Y-85362289D01*
X131222175Y-85343163D01*
X131198767Y-85330651D01*
X131151013Y-85291460D01*
X131096113Y-85251573D01*
X131078287Y-85231776D01*
X131062324Y-85218675D01*
X131019425Y-85166402D01*
X130970076Y-85111595D01*
X130959708Y-85093637D01*
X130950348Y-85082232D01*
X130915719Y-85017447D01*
X130875896Y-84948470D01*
X130871315Y-84934371D01*
X130867143Y-84926566D01*
X130844136Y-84850725D01*
X130817689Y-84769328D01*
X130816758Y-84760471D01*
X130815905Y-84757659D01*
X130807600Y-84673342D01*
X130798000Y-84582000D01*
X130807599Y-84490664D01*
X130815905Y-84406340D01*
X130816758Y-84403527D01*
X130817689Y-84394672D01*
X130844132Y-84313288D01*
X130867143Y-84237433D01*
X130871315Y-84229626D01*
X130875896Y-84215530D01*
X130915712Y-84146565D01*
X130950348Y-84081767D01*
X130959710Y-84070359D01*
X130970076Y-84052405D01*
X131019416Y-83997607D01*
X131062324Y-83945324D01*
X131078291Y-83932219D01*
X131096113Y-83912427D01*
X131151002Y-83872546D01*
X131198767Y-83833348D01*
X131222180Y-83820833D01*
X131248500Y-83801711D01*
X131305109Y-83776506D01*
X131354433Y-83750143D01*
X131385471Y-83740727D01*
X131420576Y-83725098D01*
X131475430Y-83713438D01*
X131523340Y-83698905D01*
X131561476Y-83695148D01*
X131604820Y-83685936D01*
X131655016Y-83685936D01*
X131699000Y-83681604D01*
X131742983Y-83685936D01*
G37*
G36*
X134282983Y-83685936D02*
G01*
X134333180Y-83685936D01*
X134376524Y-83695149D01*
X134414659Y-83698905D01*
X134462566Y-83713437D01*
X134517424Y-83725098D01*
X134552530Y-83740728D01*
X134583566Y-83750143D01*
X134632884Y-83776504D01*
X134689500Y-83801711D01*
X134715822Y-83820835D01*
X134739232Y-83833348D01*
X134786988Y-83872540D01*
X134841887Y-83912427D01*
X134859711Y-83932223D01*
X134875675Y-83945324D01*
X134918572Y-83997594D01*
X134967924Y-84052405D01*
X134978292Y-84070363D01*
X134987651Y-84081767D01*
X135022273Y-84146542D01*
X135062104Y-84215530D01*
X135066685Y-84229630D01*
X135070856Y-84237433D01*
X135093852Y-84313242D01*
X135120311Y-84394672D01*
X135121242Y-84403532D01*
X135122094Y-84406340D01*
X135130384Y-84490513D01*
X135140000Y-84582000D01*
X135130383Y-84673494D01*
X135122094Y-84757659D01*
X135121242Y-84760466D01*
X135120311Y-84769328D01*
X135093848Y-84850771D01*
X135070856Y-84926566D01*
X135066686Y-84934366D01*
X135062104Y-84948470D01*
X135022266Y-85017470D01*
X134987651Y-85082232D01*
X134978294Y-85093633D01*
X134967924Y-85111595D01*
X134918563Y-85166415D01*
X134875675Y-85218675D01*
X134859714Y-85231773D01*
X134841887Y-85251573D01*
X134786977Y-85291467D01*
X134739232Y-85330651D01*
X134715827Y-85343161D01*
X134689500Y-85362289D01*
X134632873Y-85387500D01*
X134583566Y-85413856D01*
X134552537Y-85423268D01*
X134517424Y-85438902D01*
X134462555Y-85450564D01*
X134414659Y-85465094D01*
X134376532Y-85468849D01*
X134333180Y-85478064D01*
X134282973Y-85478064D01*
X134239000Y-85482395D01*
X134195027Y-85478064D01*
X134144820Y-85478064D01*
X134101467Y-85468849D01*
X134063340Y-85465094D01*
X134015441Y-85450563D01*
X133960576Y-85438902D01*
X133925464Y-85423269D01*
X133894433Y-85413856D01*
X133845120Y-85387498D01*
X133788500Y-85362289D01*
X133762175Y-85343163D01*
X133738767Y-85330651D01*
X133691013Y-85291460D01*
X133636113Y-85251573D01*
X133618287Y-85231776D01*
X133602324Y-85218675D01*
X133559425Y-85166402D01*
X133510076Y-85111595D01*
X133499708Y-85093637D01*
X133490348Y-85082232D01*
X133455719Y-85017447D01*
X133415896Y-84948470D01*
X133411315Y-84934371D01*
X133407143Y-84926566D01*
X133384136Y-84850725D01*
X133357689Y-84769328D01*
X133356758Y-84760471D01*
X133355905Y-84757659D01*
X133347600Y-84673342D01*
X133338000Y-84582000D01*
X133347599Y-84490664D01*
X133355905Y-84406340D01*
X133356758Y-84403527D01*
X133357689Y-84394672D01*
X133384132Y-84313288D01*
X133407143Y-84237433D01*
X133411315Y-84229626D01*
X133415896Y-84215530D01*
X133455712Y-84146565D01*
X133490348Y-84081767D01*
X133499710Y-84070359D01*
X133510076Y-84052405D01*
X133559416Y-83997607D01*
X133602324Y-83945324D01*
X133618291Y-83932219D01*
X133636113Y-83912427D01*
X133691002Y-83872546D01*
X133738767Y-83833348D01*
X133762180Y-83820833D01*
X133788500Y-83801711D01*
X133845109Y-83776506D01*
X133894433Y-83750143D01*
X133925471Y-83740727D01*
X133960576Y-83725098D01*
X134015430Y-83713438D01*
X134063340Y-83698905D01*
X134101476Y-83695148D01*
X134144820Y-83685936D01*
X134195016Y-83685936D01*
X134239000Y-83681604D01*
X134282983Y-83685936D01*
G37*
G36*
X165080517Y-83176882D02*
G01*
X165097062Y-83187938D01*
X165108118Y-83204483D01*
X165112000Y-83224000D01*
X165112000Y-84924000D01*
X165108118Y-84943517D01*
X165097062Y-84960062D01*
X165080517Y-84971118D01*
X165061000Y-84975000D01*
X163361000Y-84975000D01*
X163341483Y-84971118D01*
X163324938Y-84960062D01*
X163313882Y-84943517D01*
X163310000Y-84924000D01*
X163310000Y-83224000D01*
X163313882Y-83204483D01*
X163324938Y-83187938D01*
X163341483Y-83176882D01*
X163361000Y-83173000D01*
X165061000Y-83173000D01*
X165080517Y-83176882D01*
G37*
G36*
X174224517Y-83176882D02*
G01*
X174241062Y-83187938D01*
X174252118Y-83204483D01*
X174256000Y-83224000D01*
X174256000Y-84924000D01*
X174252118Y-84943517D01*
X174241062Y-84960062D01*
X174224517Y-84971118D01*
X174205000Y-84975000D01*
X172505000Y-84975000D01*
X172485483Y-84971118D01*
X172468938Y-84960062D01*
X172457882Y-84943517D01*
X172454000Y-84924000D01*
X172454000Y-83224000D01*
X172457882Y-83204483D01*
X172468938Y-83187938D01*
X172485483Y-83176882D01*
X172505000Y-83173000D01*
X174205000Y-83173000D01*
X174224517Y-83176882D01*
G37*
G36*
X166794983Y-83177936D02*
G01*
X166845180Y-83177936D01*
X166888524Y-83187149D01*
X166926659Y-83190905D01*
X166974566Y-83205437D01*
X167029424Y-83217098D01*
X167064530Y-83232728D01*
X167095566Y-83242143D01*
X167144884Y-83268504D01*
X167201500Y-83293711D01*
X167227822Y-83312835D01*
X167251232Y-83325348D01*
X167298988Y-83364540D01*
X167353887Y-83404427D01*
X167371711Y-83424223D01*
X167387675Y-83437324D01*
X167430572Y-83489594D01*
X167479924Y-83544405D01*
X167490292Y-83562363D01*
X167499651Y-83573767D01*
X167534273Y-83638542D01*
X167574104Y-83707530D01*
X167578685Y-83721630D01*
X167582856Y-83729433D01*
X167605852Y-83805242D01*
X167632311Y-83886672D01*
X167633242Y-83895532D01*
X167634094Y-83898340D01*
X167642384Y-83982513D01*
X167652000Y-84074000D01*
X167642383Y-84165494D01*
X167634094Y-84249659D01*
X167633242Y-84252466D01*
X167632311Y-84261328D01*
X167605848Y-84342771D01*
X167582856Y-84418566D01*
X167578686Y-84426366D01*
X167574104Y-84440470D01*
X167534266Y-84509470D01*
X167499651Y-84574232D01*
X167490294Y-84585633D01*
X167479924Y-84603595D01*
X167430563Y-84658415D01*
X167387675Y-84710675D01*
X167371714Y-84723773D01*
X167353887Y-84743573D01*
X167298977Y-84783467D01*
X167251232Y-84822651D01*
X167227827Y-84835161D01*
X167201500Y-84854289D01*
X167144873Y-84879500D01*
X167095566Y-84905856D01*
X167064537Y-84915268D01*
X167029424Y-84930902D01*
X166974555Y-84942564D01*
X166926659Y-84957094D01*
X166888532Y-84960849D01*
X166845180Y-84970064D01*
X166794973Y-84970064D01*
X166751000Y-84974395D01*
X166707027Y-84970064D01*
X166656820Y-84970064D01*
X166613467Y-84960849D01*
X166575340Y-84957094D01*
X166527441Y-84942563D01*
X166472576Y-84930902D01*
X166437464Y-84915269D01*
X166406433Y-84905856D01*
X166357120Y-84879498D01*
X166300500Y-84854289D01*
X166274175Y-84835163D01*
X166250767Y-84822651D01*
X166203013Y-84783460D01*
X166148113Y-84743573D01*
X166130287Y-84723776D01*
X166114324Y-84710675D01*
X166071425Y-84658402D01*
X166022076Y-84603595D01*
X166011708Y-84585637D01*
X166002348Y-84574232D01*
X165967719Y-84509447D01*
X165927896Y-84440470D01*
X165923315Y-84426371D01*
X165919143Y-84418566D01*
X165896136Y-84342725D01*
X165869689Y-84261328D01*
X165868758Y-84252471D01*
X165867905Y-84249659D01*
X165859600Y-84165342D01*
X165850000Y-84074000D01*
X165859599Y-83982664D01*
X165867905Y-83898340D01*
X165868758Y-83895527D01*
X165869689Y-83886672D01*
X165896132Y-83805288D01*
X165919143Y-83729433D01*
X165923315Y-83721626D01*
X165927896Y-83707530D01*
X165967712Y-83638565D01*
X166002348Y-83573767D01*
X166011710Y-83562359D01*
X166022076Y-83544405D01*
X166071416Y-83489607D01*
X166114324Y-83437324D01*
X166130291Y-83424219D01*
X166148113Y-83404427D01*
X166203002Y-83364546D01*
X166250767Y-83325348D01*
X166274180Y-83312833D01*
X166300500Y-83293711D01*
X166357109Y-83268506D01*
X166406433Y-83242143D01*
X166437471Y-83232727D01*
X166472576Y-83217098D01*
X166527430Y-83205438D01*
X166575340Y-83190905D01*
X166613476Y-83187148D01*
X166656820Y-83177936D01*
X166707016Y-83177936D01*
X166751000Y-83173604D01*
X166794983Y-83177936D01*
G37*
G36*
X175938983Y-83177936D02*
G01*
X175989180Y-83177936D01*
X176032524Y-83187149D01*
X176070659Y-83190905D01*
X176118566Y-83205437D01*
X176173424Y-83217098D01*
X176208530Y-83232728D01*
X176239566Y-83242143D01*
X176288884Y-83268504D01*
X176345500Y-83293711D01*
X176371822Y-83312835D01*
X176395232Y-83325348D01*
X176442988Y-83364540D01*
X176497887Y-83404427D01*
X176515711Y-83424223D01*
X176531675Y-83437324D01*
X176574572Y-83489594D01*
X176623924Y-83544405D01*
X176634292Y-83562363D01*
X176643651Y-83573767D01*
X176678273Y-83638542D01*
X176718104Y-83707530D01*
X176722685Y-83721630D01*
X176726856Y-83729433D01*
X176749852Y-83805242D01*
X176776311Y-83886672D01*
X176777242Y-83895532D01*
X176778094Y-83898340D01*
X176786384Y-83982513D01*
X176796000Y-84074000D01*
X176786383Y-84165494D01*
X176778094Y-84249659D01*
X176777242Y-84252466D01*
X176776311Y-84261328D01*
X176749848Y-84342771D01*
X176726856Y-84418566D01*
X176722686Y-84426366D01*
X176718104Y-84440470D01*
X176678266Y-84509470D01*
X176643651Y-84574232D01*
X176634294Y-84585633D01*
X176623924Y-84603595D01*
X176574563Y-84658415D01*
X176531675Y-84710675D01*
X176515714Y-84723773D01*
X176497887Y-84743573D01*
X176442977Y-84783467D01*
X176395232Y-84822651D01*
X176371827Y-84835161D01*
X176345500Y-84854289D01*
X176288873Y-84879500D01*
X176239566Y-84905856D01*
X176208537Y-84915268D01*
X176173424Y-84930902D01*
X176118555Y-84942564D01*
X176070659Y-84957094D01*
X176032532Y-84960849D01*
X175989180Y-84970064D01*
X175938973Y-84970064D01*
X175895000Y-84974395D01*
X175851027Y-84970064D01*
X175800820Y-84970064D01*
X175757467Y-84960849D01*
X175719340Y-84957094D01*
X175671441Y-84942563D01*
X175616576Y-84930902D01*
X175581464Y-84915269D01*
X175550433Y-84905856D01*
X175501120Y-84879498D01*
X175444500Y-84854289D01*
X175418175Y-84835163D01*
X175394767Y-84822651D01*
X175347013Y-84783460D01*
X175292113Y-84743573D01*
X175274287Y-84723776D01*
X175258324Y-84710675D01*
X175215425Y-84658402D01*
X175166076Y-84603595D01*
X175155708Y-84585637D01*
X175146348Y-84574232D01*
X175111719Y-84509447D01*
X175071896Y-84440470D01*
X175067315Y-84426371D01*
X175063143Y-84418566D01*
X175040136Y-84342725D01*
X175013689Y-84261328D01*
X175012758Y-84252471D01*
X175011905Y-84249659D01*
X175003600Y-84165342D01*
X174994000Y-84074000D01*
X175003599Y-83982664D01*
X175011905Y-83898340D01*
X175012758Y-83895527D01*
X175013689Y-83886672D01*
X175040132Y-83805288D01*
X175063143Y-83729433D01*
X175067315Y-83721626D01*
X175071896Y-83707530D01*
X175111712Y-83638565D01*
X175146348Y-83573767D01*
X175155710Y-83562359D01*
X175166076Y-83544405D01*
X175215416Y-83489607D01*
X175258324Y-83437324D01*
X175274291Y-83424219D01*
X175292113Y-83404427D01*
X175347002Y-83364546D01*
X175394767Y-83325348D01*
X175418180Y-83312833D01*
X175444500Y-83293711D01*
X175501109Y-83268506D01*
X175550433Y-83242143D01*
X175581471Y-83232727D01*
X175616576Y-83217098D01*
X175671430Y-83205438D01*
X175719340Y-83190905D01*
X175757476Y-83187148D01*
X175800820Y-83177936D01*
X175851016Y-83177936D01*
X175895000Y-83173604D01*
X175938983Y-83177936D01*
G37*
M02*
