G04 #@! TF.GenerationSoftware,KiCad,Pcbnew,8.0.2*
G04 #@! TF.CreationDate,2024-08-12T21:40:22+02:00*
G04 #@! TF.ProjectId,12v_stripe_controller_mini,3132765f-7374-4726-9970-655f636f6e74,rev?*
G04 #@! TF.SameCoordinates,Original*
G04 #@! TF.FileFunction,Paste,Top*
G04 #@! TF.FilePolarity,Positive*
%FSLAX46Y46*%
G04 Gerber Fmt 4.6, Leading zero omitted, Abs format (unit mm)*
G04 Created by KiCad (PCBNEW 8.0.2) date 2024-08-12 21:40:22*
%MOMM*%
%LPD*%
G01*
G04 APERTURE LIST*
%ADD10R,2.500000X1.700000*%
%ADD11R,1.200000X1.200000*%
%ADD12R,0.900000X1.700000*%
%ADD13R,2.200000X1.500000*%
%ADD14R,2.200000X3.800000*%
G04 APERTURE END LIST*
D10*
X116779666Y-91472507D03*
X120779666Y-91472507D03*
X116811666Y-98584507D03*
X120811666Y-98584507D03*
X116811666Y-105823507D03*
X120811666Y-105823507D03*
X116811666Y-112808507D03*
X120811666Y-112808507D03*
D11*
X124918666Y-91472507D03*
X127118666Y-91472507D03*
X124918666Y-98584507D03*
X127118666Y-98584507D03*
X124791666Y-105823507D03*
X126991666Y-105823507D03*
X124791666Y-112808507D03*
X126991666Y-112808507D03*
D12*
X130156666Y-88932507D03*
X133056666Y-88932507D03*
X130283666Y-96044507D03*
X133183666Y-96044507D03*
X130283666Y-103156507D03*
X133183666Y-103156507D03*
X130283666Y-110268507D03*
X133183666Y-110268507D03*
X173789000Y-114554000D03*
X170889000Y-114554000D03*
X173789000Y-104394000D03*
X170889000Y-104394000D03*
X173789000Y-94234000D03*
X170889000Y-94234000D03*
X173789000Y-109474000D03*
X170889000Y-109474000D03*
X173789000Y-99314000D03*
X170889000Y-99314000D03*
X173789000Y-89154000D03*
X170889000Y-89154000D03*
X130156666Y-91472507D03*
X133056666Y-91472507D03*
X130283666Y-98584507D03*
X133183666Y-98584507D03*
X130283666Y-105823507D03*
X133183666Y-105823507D03*
X130283666Y-112808507D03*
X133183666Y-112808507D03*
D13*
X111989000Y-128538000D03*
X111989000Y-126238000D03*
X111989000Y-123938000D03*
D14*
X105689000Y-126238000D03*
M02*
