M48
; DRILL file {KiCad 8.0.2} date 2024-08-12T21:40:15+0200
; FORMAT={-:-/ absolute / inch / decimal}
; #@! TF.CreationDate,2024-08-12T21:40:15+02:00
; #@! TF.GenerationSoftware,Kicad,Pcbnew,8.0.2
; #@! TF.FileFunction,Plated,1,2,PTH
FMAT,2
INCH
; #@! TA.AperFunction,Plated,PTH,ViaDrill
T1C0.0157
; #@! TA.AperFunction,Plated,PTH,ComponentDrill
T2C0.0236
; #@! TA.AperFunction,Plated,PTH,ComponentDrill
T3C0.0256
; #@! TA.AperFunction,Plated,PTH,ComponentDrill
T4C0.0394
; #@! TA.AperFunction,Plated,PTH,ComponentDrill
T5C0.0598
%
G90
G05
T1
X4.775Y-3.725
X4.775Y-4.0
X4.775Y-4.3
X4.875Y-3.65
X4.875Y-3.925
X4.875Y-4.225
X4.875Y-4.4
X5.225Y-3.425
X5.25Y-4.25
X5.275Y-3.675
X5.275Y-3.95
X5.325Y-4.175
X5.325Y-4.275
X5.375Y-4.125
X5.375Y-4.35
X5.425Y-3.6
X5.45Y-4.3
X5.75Y-4.475
X6.375Y-4.625
X6.45Y-3.975
X6.475Y-4.6
X6.55Y-4.15
X6.6Y-4.3
X6.625Y-4.125
X6.625Y-4.625
T2
X5.585Y-4.33
X5.585Y-4.3891
T3
X5.645Y-3.59
X5.645Y-3.6687
X5.645Y-3.7475
X5.645Y-3.8262
X5.645Y-3.905
X5.645Y-3.9837
X5.645Y-4.0624
X5.645Y-4.1412
X5.7233Y-4.1806
X5.8021Y-4.1806
X5.8808Y-4.1806
X5.9596Y-4.1806
X6.0383Y-4.1806
X6.117Y-4.1806
X6.1962Y-3.59
X6.1962Y-3.6687
X6.1962Y-3.7475
X6.1962Y-3.8262
X6.1962Y-3.905
X6.1962Y-3.9837
X6.1962Y-4.0624
X6.1962Y-4.1412
T4
X3.9614Y-4.4413
X3.966Y-3.6013
X3.9664Y-3.8813
X3.9664Y-4.1663
X4.0614Y-4.4413
X4.066Y-3.6013
X4.0664Y-3.8813
X4.0664Y-4.1663
X4.1614Y-4.4413
X4.166Y-3.6013
X4.1664Y-3.8813
X4.1664Y-4.1663
X5.085Y-3.33
X5.185Y-3.33
X5.285Y-3.33
X5.335Y-4.95
X5.335Y-5.05
X5.575Y-4.95
X5.575Y-5.05
X5.815Y-4.95
X5.815Y-5.05
X5.925Y-4.48
X6.025Y-4.48
X6.055Y-4.95
X6.055Y-5.05
X6.125Y-4.48
X6.225Y-4.48
X6.465Y-3.31
X6.555Y-5.04
X6.565Y-3.31
X6.655Y-5.04
X6.755Y-5.04
X6.825Y-3.31
X6.855Y-5.04
X6.925Y-3.31
X6.955Y-5.04
X6.989Y-3.5324
X6.989Y-3.7096
X6.989Y-3.9324
X6.989Y-4.1096
X6.989Y-4.3324
X6.989Y-4.5096
X7.245Y-3.5324
X7.245Y-3.7096
X7.245Y-3.9324
X7.245Y-4.1096
X7.245Y-4.3324
X7.245Y-4.5096
T5
X4.795Y-4.95
X4.995Y-4.95
M30
