G04 #@! TF.GenerationSoftware,KiCad,Pcbnew,9.0.1*
G04 #@! TF.CreationDate,2025-06-13T20:53:16+02:00*
G04 #@! TF.ProjectId,Hue_Ambience_clone,4875655f-416d-4626-9965-6e63655f636c,rev?*
G04 #@! TF.SameCoordinates,Original*
G04 #@! TF.FileFunction,Copper,L2,Bot*
G04 #@! TF.FilePolarity,Positive*
%FSLAX46Y46*%
G04 Gerber Fmt 4.6, Leading zero omitted, Abs format (unit mm)*
G04 Created by KiCad (PCBNEW 9.0.1) date 2025-06-13 20:53:16*
%MOMM*%
%LPD*%
G01*
G04 APERTURE LIST*
G04 #@! TA.AperFunction,ComponentPad*
%ADD10C,1.800000*%
G04 #@! TD*
G04 #@! TA.AperFunction,ComponentPad*
%ADD11O,2.200000X2.200000*%
G04 #@! TD*
G04 #@! TA.AperFunction,ComponentPad*
%ADD12R,2.200000X2.200000*%
G04 #@! TD*
G04 #@! TA.AperFunction,ComponentPad*
%ADD13C,2.020000*%
G04 #@! TD*
G04 #@! TA.AperFunction,ComponentPad*
%ADD14O,1.600000X1.600000*%
G04 #@! TD*
G04 #@! TA.AperFunction,ComponentPad*
%ADD15C,1.600000*%
G04 #@! TD*
G04 #@! TA.AperFunction,ComponentPad*
%ADD16C,2.200000*%
G04 #@! TD*
G04 #@! TA.AperFunction,Conductor*
%ADD17C,0.250000*%
G04 #@! TD*
G04 APERTURE END LIST*
D10*
X125292001Y-83123025D03*
X125292001Y-105983025D03*
X127832001Y-83123025D03*
X127832001Y-105983025D03*
X130372001Y-83123025D03*
X130372001Y-105983025D03*
X132912001Y-83123025D03*
X132912001Y-105983025D03*
X135452001Y-83123025D03*
X135452001Y-105983025D03*
X137992001Y-83123025D03*
X137992001Y-105983025D03*
X140532001Y-83123025D03*
X140532001Y-105983025D03*
X143072001Y-83123025D03*
X143072001Y-105983025D03*
D11*
X140208000Y-100711000D03*
D12*
X140208000Y-88011000D03*
D13*
X157734000Y-94742000D03*
X157734000Y-97282000D03*
X157734000Y-106807000D03*
X157734000Y-104267000D03*
X157734000Y-101727000D03*
X157734000Y-82677000D03*
X157734000Y-85217000D03*
X157734000Y-87757000D03*
X157734000Y-90297000D03*
D14*
X125349000Y-96901000D03*
D15*
X135509000Y-96901000D03*
X125349000Y-92075000D03*
D14*
X135509000Y-92075000D03*
D13*
X94889000Y-98691700D03*
X94889000Y-96151700D03*
X94889000Y-93611700D03*
X94889000Y-91071700D03*
D16*
X105114401Y-105295700D03*
X105114401Y-98795700D03*
X100614401Y-98795700D03*
D12*
X100614401Y-105295700D03*
X100604000Y-91198700D03*
D16*
X100604000Y-84698700D03*
X105104000Y-84698700D03*
X105104000Y-91198700D03*
D11*
X145288000Y-100711000D03*
D12*
X145288000Y-88011000D03*
D13*
X166497000Y-94742000D03*
X166497000Y-97282000D03*
D17*
X145288000Y-88011000D02*
X145288000Y-89361000D01*
X157734000Y-94742000D02*
X142742000Y-94742000D01*
X140208000Y-92208000D02*
X140208000Y-88011000D01*
X142742000Y-94742000D02*
X140208000Y-92208000D01*
X164258000Y-94742000D02*
X166497000Y-94742000D01*
X146387999Y-99611001D02*
X162138999Y-99611001D01*
X145288000Y-100711000D02*
X146387999Y-99611001D01*
X162138999Y-99611001D02*
X163250000Y-98500000D01*
X163250000Y-98500000D02*
X163250000Y-95750000D01*
X163250000Y-95750000D02*
X164258000Y-94742000D01*
G04 #@! TA.AperFunction,NonConductor*
G36*
X108916621Y-80045502D02*
G01*
X108963114Y-80099158D01*
X108974500Y-80151500D01*
X108974500Y-83095029D01*
X108983855Y-83145071D01*
X108986000Y-83168223D01*
X108986000Y-83754127D01*
X108965998Y-83822248D01*
X108947372Y-83842507D01*
X108948525Y-83843660D01*
X108849505Y-83942679D01*
X108849497Y-83942689D01*
X108783610Y-84056809D01*
X108783608Y-84056814D01*
X108749500Y-84184108D01*
X108749500Y-84315892D01*
X108751148Y-84322042D01*
X108783607Y-84443183D01*
X108783610Y-84443190D01*
X108852205Y-84562000D01*
X108868943Y-84630996D01*
X108852205Y-84688000D01*
X108783610Y-84806809D01*
X108783608Y-84806814D01*
X108749500Y-84934108D01*
X108749500Y-85065892D01*
X108752038Y-85075363D01*
X108783607Y-85193183D01*
X108783610Y-85193190D01*
X108852205Y-85312000D01*
X108868943Y-85380996D01*
X108852205Y-85438000D01*
X108783610Y-85556809D01*
X108783608Y-85556814D01*
X108749500Y-85684108D01*
X108749500Y-85815892D01*
X108774467Y-85909073D01*
X108783607Y-85943183D01*
X108783610Y-85943190D01*
X108849497Y-86057310D01*
X108849505Y-86057320D01*
X108948525Y-86156340D01*
X108946088Y-86158776D01*
X108978554Y-86203198D01*
X108986000Y-86245872D01*
X108986000Y-86831776D01*
X108983855Y-86854928D01*
X108974500Y-86904974D01*
X108974500Y-103095029D01*
X108983855Y-103145071D01*
X108986000Y-103168223D01*
X108986000Y-103754127D01*
X108965998Y-103822248D01*
X108947372Y-103842507D01*
X108948525Y-103843660D01*
X108849505Y-103942679D01*
X108849497Y-103942689D01*
X108783610Y-104056809D01*
X108783607Y-104056816D01*
X108780394Y-104068809D01*
X108749500Y-104184108D01*
X108749500Y-104315892D01*
X108774467Y-104409073D01*
X108783607Y-104443183D01*
X108783610Y-104443190D01*
X108852205Y-104562000D01*
X108868943Y-104630996D01*
X108852205Y-104688000D01*
X108783610Y-104806809D01*
X108783608Y-104806814D01*
X108749500Y-104934108D01*
X108749500Y-105065892D01*
X108774467Y-105159073D01*
X108783607Y-105193183D01*
X108783610Y-105193190D01*
X108852205Y-105312000D01*
X108868943Y-105380996D01*
X108852205Y-105438000D01*
X108783610Y-105556809D01*
X108783608Y-105556814D01*
X108749500Y-105684108D01*
X108749500Y-105815892D01*
X108774467Y-105909073D01*
X108783607Y-105943183D01*
X108783610Y-105943190D01*
X108849497Y-106057310D01*
X108849505Y-106057320D01*
X108948525Y-106156340D01*
X108946088Y-106158776D01*
X108978554Y-106203198D01*
X108986000Y-106245872D01*
X108986000Y-106831776D01*
X108983855Y-106854928D01*
X108975862Y-106897690D01*
X108974500Y-106904974D01*
X108974500Y-109848500D01*
X108954498Y-109916621D01*
X108900842Y-109963114D01*
X108848500Y-109974500D01*
X90151500Y-109974500D01*
X90083379Y-109954498D01*
X90036886Y-109900842D01*
X90025500Y-109848500D01*
X90025500Y-104147050D01*
X99005901Y-104147050D01*
X99005901Y-106444349D01*
X99012410Y-106504896D01*
X99012412Y-106504904D01*
X99063511Y-106641902D01*
X99063513Y-106641907D01*
X99151139Y-106758961D01*
X99268193Y-106846587D01*
X99268195Y-106846588D01*
X99268197Y-106846589D01*
X99316470Y-106864594D01*
X99405196Y-106897688D01*
X99405204Y-106897690D01*
X99465751Y-106904199D01*
X99465756Y-106904199D01*
X99465763Y-106904200D01*
X99465769Y-106904200D01*
X101763033Y-106904200D01*
X101763039Y-106904200D01*
X101763046Y-106904199D01*
X101763050Y-106904199D01*
X101823597Y-106897690D01*
X101823600Y-106897689D01*
X101823602Y-106897689D01*
X101960605Y-106846589D01*
X102077662Y-106758961D01*
X102165290Y-106641904D01*
X102216390Y-106504901D01*
X102222901Y-106444338D01*
X102222901Y-105169108D01*
X103505901Y-105169108D01*
X103505901Y-105422292D01*
X103545507Y-105672358D01*
X103545508Y-105672363D01*
X103549325Y-105684109D01*
X103623745Y-105913150D01*
X103729868Y-106121427D01*
X103738690Y-106138741D01*
X103751477Y-106156340D01*
X103887506Y-106343568D01*
X103887508Y-106343570D01*
X103887510Y-106343573D01*
X104066527Y-106522590D01*
X104066530Y-106522592D01*
X104066533Y-106522595D01*
X104271363Y-106671413D01*
X104496951Y-106786356D01*
X104737743Y-106864594D01*
X104987809Y-106904200D01*
X104987812Y-106904200D01*
X105240990Y-106904200D01*
X105240993Y-106904200D01*
X105491059Y-106864594D01*
X105731851Y-106786356D01*
X105957439Y-106671413D01*
X106162269Y-106522595D01*
X106341296Y-106343568D01*
X106490114Y-106138738D01*
X106605057Y-105913150D01*
X106683295Y-105672358D01*
X106722901Y-105422292D01*
X106722901Y-105169108D01*
X106683295Y-104919042D01*
X106605057Y-104678250D01*
X106490114Y-104452662D01*
X106341296Y-104247832D01*
X106341293Y-104247829D01*
X106341291Y-104247826D01*
X106162274Y-104068809D01*
X106162271Y-104068807D01*
X106162269Y-104068805D01*
X105988686Y-103942689D01*
X105957442Y-103919989D01*
X105957441Y-103919988D01*
X105957439Y-103919987D01*
X105731851Y-103805044D01*
X105731848Y-103805043D01*
X105731846Y-103805042D01*
X105491064Y-103726807D01*
X105491060Y-103726806D01*
X105491059Y-103726806D01*
X105240993Y-103687200D01*
X104987809Y-103687200D01*
X104737743Y-103726806D01*
X104737737Y-103726807D01*
X104496955Y-103805042D01*
X104496949Y-103805045D01*
X104271359Y-103919989D01*
X104066530Y-104068807D01*
X104066527Y-104068809D01*
X103887510Y-104247826D01*
X103887508Y-104247829D01*
X103738690Y-104452658D01*
X103623746Y-104678248D01*
X103623743Y-104678254D01*
X103545508Y-104919036D01*
X103545507Y-104919041D01*
X103545507Y-104919042D01*
X103505901Y-105169108D01*
X102222901Y-105169108D01*
X102222901Y-104147062D01*
X102222900Y-104147050D01*
X102216391Y-104086503D01*
X102216389Y-104086495D01*
X102165290Y-103949497D01*
X102165288Y-103949492D01*
X102077662Y-103832438D01*
X101960608Y-103744812D01*
X101960603Y-103744810D01*
X101823605Y-103693711D01*
X101823597Y-103693709D01*
X101763050Y-103687200D01*
X101763039Y-103687200D01*
X99465763Y-103687200D01*
X99465751Y-103687200D01*
X99405204Y-103693709D01*
X99405196Y-103693711D01*
X99268198Y-103744810D01*
X99268193Y-103744812D01*
X99151139Y-103832438D01*
X99063513Y-103949492D01*
X99063511Y-103949497D01*
X99012412Y-104086495D01*
X99012410Y-104086503D01*
X99005901Y-104147050D01*
X90025500Y-104147050D01*
X90025500Y-90952191D01*
X93370500Y-90952191D01*
X93370500Y-91191209D01*
X93407890Y-91427283D01*
X93407891Y-91427288D01*
X93481748Y-91654597D01*
X93481750Y-91654602D01*
X93590262Y-91867568D01*
X93730753Y-92060937D01*
X93730755Y-92060939D01*
X93730757Y-92060942D01*
X93899756Y-92229941D01*
X93899759Y-92229943D01*
X93899763Y-92229947D01*
X93913277Y-92239765D01*
X93956629Y-92295987D01*
X93962704Y-92366723D01*
X93929572Y-92429515D01*
X93913281Y-92443630D01*
X93901035Y-92452528D01*
X93899756Y-92453458D01*
X93730757Y-92622457D01*
X93730755Y-92622460D01*
X93590264Y-92815828D01*
X93481751Y-93028796D01*
X93481748Y-93028802D01*
X93407891Y-93256111D01*
X93407890Y-93256116D01*
X93407890Y-93256117D01*
X93370500Y-93492191D01*
X93370500Y-93731209D01*
X93407890Y-93967283D01*
X93407891Y-93967288D01*
X93481748Y-94194597D01*
X93481750Y-94194602D01*
X93590262Y-94407568D01*
X93730753Y-94600937D01*
X93730755Y-94600939D01*
X93730757Y-94600942D01*
X93899756Y-94769941D01*
X93899759Y-94769943D01*
X93899763Y-94769947D01*
X93913277Y-94779765D01*
X93956629Y-94835987D01*
X93962704Y-94906723D01*
X93929572Y-94969515D01*
X93913281Y-94983630D01*
X93901035Y-94992528D01*
X93899756Y-94993458D01*
X93730757Y-95162457D01*
X93730755Y-95162460D01*
X93590264Y-95355828D01*
X93481751Y-95568796D01*
X93481748Y-95568802D01*
X93407891Y-95796111D01*
X93407890Y-95796116D01*
X93407890Y-95796117D01*
X93370500Y-96032191D01*
X93370500Y-96271209D01*
X93407890Y-96507283D01*
X93407891Y-96507288D01*
X93481748Y-96734597D01*
X93481750Y-96734602D01*
X93590262Y-96947568D01*
X93730753Y-97140937D01*
X93730755Y-97140939D01*
X93730757Y-97140942D01*
X93899756Y-97309941D01*
X93899759Y-97309943D01*
X93899763Y-97309947D01*
X93913277Y-97319765D01*
X93956629Y-97375987D01*
X93962704Y-97446723D01*
X93929572Y-97509515D01*
X93913281Y-97523630D01*
X93901035Y-97532528D01*
X93899756Y-97533458D01*
X93730757Y-97702457D01*
X93730755Y-97702460D01*
X93590264Y-97895828D01*
X93481751Y-98108796D01*
X93481748Y-98108802D01*
X93407891Y-98336111D01*
X93407890Y-98336116D01*
X93407890Y-98336117D01*
X93370500Y-98572191D01*
X93370500Y-98811209D01*
X93388093Y-98922288D01*
X93407891Y-99047288D01*
X93481748Y-99274597D01*
X93481750Y-99274602D01*
X93590262Y-99487568D01*
X93730753Y-99680937D01*
X93730755Y-99680939D01*
X93730757Y-99680942D01*
X93899757Y-99849942D01*
X93899760Y-99849944D01*
X93899763Y-99849947D01*
X94093132Y-99990438D01*
X94306098Y-100098950D01*
X94533411Y-100172808D01*
X94533412Y-100172808D01*
X94533417Y-100172810D01*
X94769491Y-100210200D01*
X94769494Y-100210200D01*
X95008506Y-100210200D01*
X95008509Y-100210200D01*
X95244583Y-100172810D01*
X95471902Y-100098950D01*
X95684868Y-99990438D01*
X95878237Y-99849947D01*
X96047247Y-99680937D01*
X96187738Y-99487568D01*
X96296250Y-99274602D01*
X96370110Y-99047283D01*
X96407500Y-98811209D01*
X96407500Y-98669108D01*
X99005901Y-98669108D01*
X99005901Y-98922292D01*
X99045507Y-99172358D01*
X99045508Y-99172363D01*
X99078726Y-99274597D01*
X99123745Y-99413150D01*
X99238688Y-99638738D01*
X99387506Y-99843568D01*
X99387508Y-99843570D01*
X99387510Y-99843573D01*
X99566527Y-100022590D01*
X99566530Y-100022592D01*
X99566533Y-100022595D01*
X99771363Y-100171413D01*
X99996951Y-100286356D01*
X100237743Y-100364594D01*
X100487809Y-100404200D01*
X100487812Y-100404200D01*
X100740990Y-100404200D01*
X100740993Y-100404200D01*
X100991059Y-100364594D01*
X101231851Y-100286356D01*
X101457439Y-100171413D01*
X101662269Y-100022595D01*
X101841296Y-99843568D01*
X101990114Y-99638738D01*
X102105057Y-99413150D01*
X102183295Y-99172358D01*
X102222901Y-98922292D01*
X102222901Y-98669108D01*
X103505901Y-98669108D01*
X103505901Y-98922292D01*
X103545507Y-99172358D01*
X103545508Y-99172363D01*
X103578726Y-99274597D01*
X103623745Y-99413150D01*
X103738688Y-99638738D01*
X103887506Y-99843568D01*
X103887508Y-99843570D01*
X103887510Y-99843573D01*
X104066527Y-100022590D01*
X104066530Y-100022592D01*
X104066533Y-100022595D01*
X104271363Y-100171413D01*
X104496951Y-100286356D01*
X104737743Y-100364594D01*
X104987809Y-100404200D01*
X104987812Y-100404200D01*
X105240990Y-100404200D01*
X105240993Y-100404200D01*
X105491059Y-100364594D01*
X105731851Y-100286356D01*
X105957439Y-100171413D01*
X106162269Y-100022595D01*
X106341296Y-99843568D01*
X106490114Y-99638738D01*
X106605057Y-99413150D01*
X106683295Y-99172358D01*
X106722901Y-98922292D01*
X106722901Y-98669108D01*
X106683295Y-98419042D01*
X106605057Y-98178250D01*
X106490114Y-97952662D01*
X106341296Y-97747832D01*
X106341293Y-97747829D01*
X106341291Y-97747826D01*
X106162274Y-97568809D01*
X106162271Y-97568807D01*
X106162269Y-97568805D01*
X105957439Y-97419987D01*
X105731851Y-97305044D01*
X105731848Y-97305043D01*
X105731846Y-97305042D01*
X105491064Y-97226807D01*
X105491060Y-97226806D01*
X105491059Y-97226806D01*
X105240993Y-97187200D01*
X104987809Y-97187200D01*
X104737743Y-97226806D01*
X104737737Y-97226807D01*
X104496955Y-97305042D01*
X104496949Y-97305045D01*
X104271359Y-97419989D01*
X104066530Y-97568807D01*
X104066527Y-97568809D01*
X103887510Y-97747826D01*
X103887508Y-97747829D01*
X103738690Y-97952658D01*
X103623746Y-98178248D01*
X103623743Y-98178254D01*
X103545508Y-98419036D01*
X103545507Y-98419041D01*
X103545507Y-98419042D01*
X103505901Y-98669108D01*
X102222901Y-98669108D01*
X102183295Y-98419042D01*
X102105057Y-98178250D01*
X101990114Y-97952662D01*
X101841296Y-97747832D01*
X101841293Y-97747829D01*
X101841291Y-97747826D01*
X101662274Y-97568809D01*
X101662271Y-97568807D01*
X101662269Y-97568805D01*
X101457439Y-97419987D01*
X101231851Y-97305044D01*
X101231848Y-97305043D01*
X101231846Y-97305042D01*
X100991064Y-97226807D01*
X100991060Y-97226806D01*
X100991059Y-97226806D01*
X100740993Y-97187200D01*
X100487809Y-97187200D01*
X100237743Y-97226806D01*
X100237737Y-97226807D01*
X99996955Y-97305042D01*
X99996949Y-97305045D01*
X99771359Y-97419989D01*
X99566530Y-97568807D01*
X99566527Y-97568809D01*
X99387510Y-97747826D01*
X99387508Y-97747829D01*
X99238690Y-97952658D01*
X99123746Y-98178248D01*
X99123743Y-98178254D01*
X99045508Y-98419036D01*
X99045507Y-98419041D01*
X99045507Y-98419042D01*
X99005901Y-98669108D01*
X96407500Y-98669108D01*
X96407500Y-98572191D01*
X96370110Y-98336117D01*
X96296250Y-98108798D01*
X96187738Y-97895832D01*
X96047247Y-97702463D01*
X96047244Y-97702460D01*
X96047242Y-97702457D01*
X95878243Y-97533458D01*
X95878239Y-97533455D01*
X95878237Y-97533453D01*
X95864723Y-97523635D01*
X95821371Y-97467416D01*
X95815294Y-97396680D01*
X95848425Y-97333888D01*
X95864716Y-97319770D01*
X95878237Y-97309947D01*
X96047247Y-97140937D01*
X96187738Y-96947568D01*
X96296250Y-96734602D01*
X96370110Y-96507283D01*
X96407500Y-96271209D01*
X96407500Y-96032191D01*
X96370110Y-95796117D01*
X96296250Y-95568798D01*
X96187738Y-95355832D01*
X96047247Y-95162463D01*
X96047244Y-95162460D01*
X96047242Y-95162457D01*
X95878243Y-94993458D01*
X95878239Y-94993455D01*
X95878237Y-94993453D01*
X95864723Y-94983635D01*
X95821371Y-94927416D01*
X95815294Y-94856680D01*
X95848425Y-94793888D01*
X95864716Y-94779770D01*
X95878237Y-94769947D01*
X96047247Y-94600937D01*
X96187738Y-94407568D01*
X96296250Y-94194602D01*
X96370110Y-93967283D01*
X96407500Y-93731209D01*
X96407500Y-93492191D01*
X96370110Y-93256117D01*
X96296250Y-93028798D01*
X96187738Y-92815832D01*
X96047247Y-92622463D01*
X96047244Y-92622460D01*
X96047242Y-92622457D01*
X95878243Y-92453458D01*
X95878239Y-92453455D01*
X95878237Y-92453453D01*
X95864723Y-92443635D01*
X95821371Y-92387416D01*
X95815294Y-92316680D01*
X95848425Y-92253888D01*
X95864716Y-92239770D01*
X95878237Y-92229947D01*
X96047247Y-92060937D01*
X96187738Y-91867568D01*
X96296250Y-91654602D01*
X96370110Y-91427283D01*
X96407500Y-91191209D01*
X96407500Y-90952191D01*
X96370110Y-90716117D01*
X96296250Y-90488798D01*
X96187738Y-90275832D01*
X96047247Y-90082463D01*
X96047244Y-90082460D01*
X96047242Y-90082457D01*
X96014835Y-90050050D01*
X98995500Y-90050050D01*
X98995500Y-92347349D01*
X99002009Y-92407896D01*
X99002011Y-92407904D01*
X99053110Y-92544902D01*
X99053112Y-92544907D01*
X99140738Y-92661961D01*
X99257792Y-92749587D01*
X99257794Y-92749588D01*
X99257796Y-92749589D01*
X99306069Y-92767594D01*
X99394795Y-92800688D01*
X99394803Y-92800690D01*
X99455350Y-92807199D01*
X99455355Y-92807199D01*
X99455362Y-92807200D01*
X99455368Y-92807200D01*
X101752632Y-92807200D01*
X101752638Y-92807200D01*
X101752645Y-92807199D01*
X101752649Y-92807199D01*
X101813196Y-92800690D01*
X101813199Y-92800689D01*
X101813201Y-92800689D01*
X101950204Y-92749589D01*
X102067261Y-92661961D01*
X102154889Y-92544904D01*
X102205989Y-92407901D01*
X102208192Y-92387416D01*
X102212499Y-92347349D01*
X102212500Y-92347332D01*
X102212500Y-91072108D01*
X103495500Y-91072108D01*
X103495500Y-91325292D01*
X103535106Y-91575358D01*
X103535107Y-91575363D01*
X103560854Y-91654603D01*
X103613344Y-91816150D01*
X103728287Y-92041738D01*
X103728289Y-92041741D01*
X103765083Y-92092383D01*
X103877105Y-92246568D01*
X103877107Y-92246570D01*
X103877109Y-92246573D01*
X104056126Y-92425590D01*
X104056129Y-92425592D01*
X104056132Y-92425595D01*
X104260962Y-92574413D01*
X104486550Y-92689356D01*
X104727342Y-92767594D01*
X104977408Y-92807200D01*
X104977411Y-92807200D01*
X105230589Y-92807200D01*
X105230592Y-92807200D01*
X105480658Y-92767594D01*
X105721450Y-92689356D01*
X105947038Y-92574413D01*
X106151868Y-92425595D01*
X106330895Y-92246568D01*
X106479713Y-92041738D01*
X106594656Y-91816150D01*
X106672894Y-91575358D01*
X106712500Y-91325292D01*
X106712500Y-91072108D01*
X106672894Y-90822042D01*
X106594656Y-90581250D01*
X106479713Y-90355662D01*
X106330895Y-90150832D01*
X106330892Y-90150829D01*
X106330890Y-90150826D01*
X106151873Y-89971809D01*
X106151870Y-89971807D01*
X106151868Y-89971805D01*
X105947038Y-89822987D01*
X105721450Y-89708044D01*
X105721447Y-89708043D01*
X105721445Y-89708042D01*
X105480663Y-89629807D01*
X105480659Y-89629806D01*
X105480658Y-89629806D01*
X105230592Y-89590200D01*
X104977408Y-89590200D01*
X104727342Y-89629806D01*
X104727336Y-89629807D01*
X104486554Y-89708042D01*
X104486548Y-89708045D01*
X104260958Y-89822989D01*
X104056129Y-89971807D01*
X104056126Y-89971809D01*
X103877109Y-90150826D01*
X103877107Y-90150829D01*
X103728289Y-90355658D01*
X103613345Y-90581248D01*
X103613342Y-90581254D01*
X103535107Y-90822036D01*
X103535106Y-90822041D01*
X103535106Y-90822042D01*
X103495500Y-91072108D01*
X102212500Y-91072108D01*
X102212500Y-90050067D01*
X102212499Y-90050050D01*
X102205990Y-89989503D01*
X102205988Y-89989495D01*
X102154889Y-89852497D01*
X102154887Y-89852492D01*
X102067261Y-89735438D01*
X101950207Y-89647812D01*
X101950202Y-89647810D01*
X101813204Y-89596711D01*
X101813196Y-89596709D01*
X101752649Y-89590200D01*
X101752638Y-89590200D01*
X99455362Y-89590200D01*
X99455350Y-89590200D01*
X99394803Y-89596709D01*
X99394795Y-89596711D01*
X99257797Y-89647810D01*
X99257792Y-89647812D01*
X99140738Y-89735438D01*
X99053112Y-89852492D01*
X99053110Y-89852497D01*
X99002011Y-89989495D01*
X99002009Y-89989503D01*
X98995500Y-90050050D01*
X96014835Y-90050050D01*
X95878242Y-89913457D01*
X95878239Y-89913455D01*
X95878237Y-89913453D01*
X95684868Y-89772962D01*
X95471902Y-89664450D01*
X95471899Y-89664449D01*
X95471897Y-89664448D01*
X95244586Y-89590591D01*
X95244590Y-89590591D01*
X95200643Y-89583630D01*
X95008509Y-89553200D01*
X94769491Y-89553200D01*
X94533417Y-89590590D01*
X94533411Y-89590591D01*
X94306102Y-89664448D01*
X94306096Y-89664451D01*
X94093128Y-89772964D01*
X93899760Y-89913455D01*
X93899757Y-89913457D01*
X93730757Y-90082457D01*
X93730755Y-90082460D01*
X93590264Y-90275828D01*
X93481751Y-90488796D01*
X93481748Y-90488802D01*
X93407891Y-90716111D01*
X93407890Y-90716116D01*
X93407890Y-90716117D01*
X93370500Y-90952191D01*
X90025500Y-90952191D01*
X90025500Y-84572108D01*
X98995500Y-84572108D01*
X98995500Y-84825292D01*
X99033607Y-85065892D01*
X99035107Y-85075363D01*
X99113342Y-85316145D01*
X99113344Y-85316150D01*
X99228287Y-85541738D01*
X99377105Y-85746568D01*
X99377107Y-85746570D01*
X99377109Y-85746573D01*
X99556126Y-85925590D01*
X99556129Y-85925592D01*
X99556132Y-85925595D01*
X99760962Y-86074413D01*
X99986550Y-86189356D01*
X100227342Y-86267594D01*
X100477408Y-86307200D01*
X100477411Y-86307200D01*
X100730589Y-86307200D01*
X100730592Y-86307200D01*
X100980658Y-86267594D01*
X101221450Y-86189356D01*
X101447038Y-86074413D01*
X101651868Y-85925595D01*
X101830895Y-85746568D01*
X101979713Y-85541738D01*
X102094656Y-85316150D01*
X102172894Y-85075358D01*
X102212500Y-84825292D01*
X102212500Y-84572108D01*
X103495500Y-84572108D01*
X103495500Y-84825292D01*
X103533607Y-85065892D01*
X103535107Y-85075363D01*
X103613342Y-85316145D01*
X103613344Y-85316150D01*
X103728287Y-85541738D01*
X103877105Y-85746568D01*
X103877107Y-85746570D01*
X103877109Y-85746573D01*
X104056126Y-85925590D01*
X104056129Y-85925592D01*
X104056132Y-85925595D01*
X104260962Y-86074413D01*
X104486550Y-86189356D01*
X104727342Y-86267594D01*
X104977408Y-86307200D01*
X104977411Y-86307200D01*
X105230589Y-86307200D01*
X105230592Y-86307200D01*
X105480658Y-86267594D01*
X105721450Y-86189356D01*
X105947038Y-86074413D01*
X106151868Y-85925595D01*
X106330895Y-85746568D01*
X106479713Y-85541738D01*
X106594656Y-85316150D01*
X106672894Y-85075358D01*
X106712500Y-84825292D01*
X106712500Y-84572108D01*
X106672894Y-84322042D01*
X106594656Y-84081250D01*
X106479713Y-83855662D01*
X106330895Y-83650832D01*
X106330892Y-83650829D01*
X106330890Y-83650826D01*
X106151873Y-83471809D01*
X106151870Y-83471807D01*
X106151868Y-83471805D01*
X105947038Y-83322987D01*
X105721450Y-83208044D01*
X105721447Y-83208043D01*
X105721445Y-83208042D01*
X105480663Y-83129807D01*
X105480659Y-83129806D01*
X105480658Y-83129806D01*
X105230592Y-83090200D01*
X104977408Y-83090200D01*
X104727342Y-83129806D01*
X104727336Y-83129807D01*
X104486554Y-83208042D01*
X104486548Y-83208045D01*
X104260958Y-83322989D01*
X104056129Y-83471807D01*
X104056126Y-83471809D01*
X103877109Y-83650826D01*
X103877107Y-83650829D01*
X103728289Y-83855658D01*
X103613345Y-84081248D01*
X103613342Y-84081254D01*
X103535107Y-84322036D01*
X103535106Y-84322041D01*
X103535106Y-84322042D01*
X103495500Y-84572108D01*
X102212500Y-84572108D01*
X102172894Y-84322042D01*
X102094656Y-84081250D01*
X101979713Y-83855662D01*
X101830895Y-83650832D01*
X101830892Y-83650829D01*
X101830890Y-83650826D01*
X101651873Y-83471809D01*
X101651870Y-83471807D01*
X101651868Y-83471805D01*
X101447038Y-83322987D01*
X101221450Y-83208044D01*
X101221447Y-83208043D01*
X101221445Y-83208042D01*
X100980663Y-83129807D01*
X100980659Y-83129806D01*
X100980658Y-83129806D01*
X100730592Y-83090200D01*
X100477408Y-83090200D01*
X100227342Y-83129806D01*
X100227336Y-83129807D01*
X99986554Y-83208042D01*
X99986548Y-83208045D01*
X99760958Y-83322989D01*
X99556129Y-83471807D01*
X99556126Y-83471809D01*
X99377109Y-83650826D01*
X99377107Y-83650829D01*
X99228289Y-83855658D01*
X99113345Y-84081248D01*
X99113342Y-84081254D01*
X99035107Y-84322036D01*
X99035106Y-84322041D01*
X99035106Y-84322042D01*
X98995500Y-84572108D01*
X90025500Y-84572108D01*
X90025500Y-80151500D01*
X90045502Y-80083379D01*
X90099158Y-80036886D01*
X90151500Y-80025500D01*
X108848500Y-80025500D01*
X108916621Y-80045502D01*
G37*
G04 #@! TD.AperFunction*
G04 #@! TA.AperFunction,Conductor*
G36*
X170757991Y-80045502D02*
G01*
X170804484Y-80099158D01*
X170815868Y-80150723D01*
X170952562Y-102309897D01*
X170972636Y-105564154D01*
X170974498Y-105865918D01*
X170974500Y-105866695D01*
X170974500Y-109848500D01*
X170954498Y-109916621D01*
X170900842Y-109963114D01*
X170848500Y-109974500D01*
X111151500Y-109974500D01*
X111083379Y-109954498D01*
X111036886Y-109900842D01*
X111025500Y-109848500D01*
X111025500Y-106904977D01*
X111025500Y-106904973D01*
X111007724Y-106809884D01*
X111000145Y-106769337D01*
X110998000Y-106746185D01*
X110998000Y-106257491D01*
X111018002Y-106189370D01*
X111051917Y-106157032D01*
X111050762Y-106155527D01*
X111057306Y-106150504D01*
X111057314Y-106150500D01*
X111150500Y-106057314D01*
X111216392Y-105943186D01*
X111250500Y-105815892D01*
X111250500Y-105684108D01*
X111245163Y-105664188D01*
X113127271Y-105664188D01*
X113127271Y-105917811D01*
X113160373Y-106169249D01*
X113160374Y-106169255D01*
X113160375Y-106169257D01*
X113226016Y-106414233D01*
X113323071Y-106648545D01*
X113323072Y-106648546D01*
X113323077Y-106648556D01*
X113449877Y-106868180D01*
X113449882Y-106868187D01*
X113604265Y-107069383D01*
X113604284Y-107069404D01*
X113783595Y-107248715D01*
X113783616Y-107248734D01*
X113969705Y-107391525D01*
X113984816Y-107403120D01*
X114204455Y-107529929D01*
X114438767Y-107626984D01*
X114683743Y-107692625D01*
X114683749Y-107692625D01*
X114683750Y-107692626D01*
X114712601Y-107696424D01*
X114935191Y-107725729D01*
X114935198Y-107725729D01*
X115188802Y-107725729D01*
X115188809Y-107725729D01*
X115440257Y-107692625D01*
X115685233Y-107626984D01*
X115919545Y-107529929D01*
X116139184Y-107403120D01*
X116340392Y-107248727D01*
X116519727Y-107069392D01*
X116674120Y-106868184D01*
X116800929Y-106648545D01*
X116897984Y-106414233D01*
X116963625Y-106169257D01*
X116996729Y-105917809D01*
X116996729Y-105872174D01*
X123883501Y-105872174D01*
X123883501Y-106093876D01*
X123917878Y-106310924D01*
X123918184Y-106312854D01*
X123965539Y-106458597D01*
X123986693Y-106523701D01*
X124070150Y-106687494D01*
X124087346Y-106721243D01*
X124217659Y-106900603D01*
X124374422Y-107057366D01*
X124390991Y-107069404D01*
X124553786Y-107187682D01*
X124751325Y-107288333D01*
X124962177Y-107356843D01*
X125181150Y-107391525D01*
X125181153Y-107391525D01*
X125402849Y-107391525D01*
X125402852Y-107391525D01*
X125621825Y-107356843D01*
X125832677Y-107288333D01*
X126030216Y-107187682D01*
X126209577Y-107057368D01*
X126233916Y-107033029D01*
X126261863Y-107005083D01*
X126366339Y-106900606D01*
X126366344Y-106900601D01*
X126460375Y-106771177D01*
X126516595Y-106727826D01*
X126587331Y-106721751D01*
X126650123Y-106754882D01*
X126664244Y-106771179D01*
X126672824Y-106782988D01*
X126672825Y-106782988D01*
X127341310Y-106114503D01*
X127358620Y-106179106D01*
X127425499Y-106294945D01*
X127520081Y-106389527D01*
X127635920Y-106456406D01*
X127700519Y-106473715D01*
X127032036Y-107142198D01*
X127032036Y-107142199D01*
X127094048Y-107187254D01*
X127291515Y-107287868D01*
X127291517Y-107287869D01*
X127502290Y-107356354D01*
X127721192Y-107391025D01*
X127942810Y-107391025D01*
X128161711Y-107356354D01*
X128372484Y-107287869D01*
X128372486Y-107287868D01*
X128569955Y-107187253D01*
X128569957Y-107187252D01*
X128631964Y-107142200D01*
X128631965Y-107142199D01*
X127963481Y-106473715D01*
X128028082Y-106456406D01*
X128143921Y-106389527D01*
X128238503Y-106294945D01*
X128305382Y-106179106D01*
X128322691Y-106114504D01*
X128991175Y-106782988D01*
X128999755Y-106771180D01*
X129055977Y-106727826D01*
X129126714Y-106721751D01*
X129189505Y-106754883D01*
X129203626Y-106771178D01*
X129297658Y-106900601D01*
X129297660Y-106900603D01*
X129297663Y-106900607D01*
X129454422Y-107057366D01*
X129470991Y-107069404D01*
X129633786Y-107187682D01*
X129831325Y-107288333D01*
X130042177Y-107356843D01*
X130261150Y-107391525D01*
X130261153Y-107391525D01*
X130482849Y-107391525D01*
X130482852Y-107391525D01*
X130701825Y-107356843D01*
X130912677Y-107288333D01*
X131110216Y-107187682D01*
X131289577Y-107057368D01*
X131446344Y-106900601D01*
X131540066Y-106771604D01*
X131596287Y-106728251D01*
X131667023Y-106722176D01*
X131729815Y-106755307D01*
X131743933Y-106771601D01*
X131837658Y-106900601D01*
X131837660Y-106900603D01*
X131837662Y-106900606D01*
X131994422Y-107057366D01*
X132010991Y-107069404D01*
X132173786Y-107187682D01*
X132371325Y-107288333D01*
X132582177Y-107356843D01*
X132801150Y-107391525D01*
X132801153Y-107391525D01*
X133022849Y-107391525D01*
X133022852Y-107391525D01*
X133241825Y-107356843D01*
X133452677Y-107288333D01*
X133650216Y-107187682D01*
X133829577Y-107057368D01*
X133986344Y-106900601D01*
X134080066Y-106771604D01*
X134136287Y-106728251D01*
X134207023Y-106722176D01*
X134269815Y-106755307D01*
X134283933Y-106771601D01*
X134377658Y-106900601D01*
X134377660Y-106900603D01*
X134377662Y-106900606D01*
X134534422Y-107057366D01*
X134550991Y-107069404D01*
X134713786Y-107187682D01*
X134911325Y-107288333D01*
X135122177Y-107356843D01*
X135341150Y-107391525D01*
X135341153Y-107391525D01*
X135562849Y-107391525D01*
X135562852Y-107391525D01*
X135781825Y-107356843D01*
X135992677Y-107288333D01*
X136190216Y-107187682D01*
X136369577Y-107057368D01*
X136526344Y-106900601D01*
X136620066Y-106771604D01*
X136676287Y-106728251D01*
X136747023Y-106722176D01*
X136809815Y-106755307D01*
X136823933Y-106771601D01*
X136917658Y-106900601D01*
X136917660Y-106900603D01*
X136917662Y-106900606D01*
X137074422Y-107057366D01*
X137090991Y-107069404D01*
X137253786Y-107187682D01*
X137451325Y-107288333D01*
X137662177Y-107356843D01*
X137881150Y-107391525D01*
X137881153Y-107391525D01*
X138102849Y-107391525D01*
X138102852Y-107391525D01*
X138321825Y-107356843D01*
X138532677Y-107288333D01*
X138730216Y-107187682D01*
X138909577Y-107057368D01*
X139066344Y-106900601D01*
X139160066Y-106771604D01*
X139216287Y-106728251D01*
X139287023Y-106722176D01*
X139349815Y-106755307D01*
X139363933Y-106771601D01*
X139457658Y-106900601D01*
X139457660Y-106900603D01*
X139457662Y-106900606D01*
X139614422Y-107057366D01*
X139630991Y-107069404D01*
X139793786Y-107187682D01*
X139991325Y-107288333D01*
X140202177Y-107356843D01*
X140421150Y-107391525D01*
X140421153Y-107391525D01*
X140642849Y-107391525D01*
X140642852Y-107391525D01*
X140861825Y-107356843D01*
X141072677Y-107288333D01*
X141270216Y-107187682D01*
X141449577Y-107057368D01*
X141606344Y-106900601D01*
X141700066Y-106771604D01*
X141756287Y-106728251D01*
X141827023Y-106722176D01*
X141889815Y-106755307D01*
X141903933Y-106771601D01*
X141997658Y-106900601D01*
X141997660Y-106900603D01*
X141997662Y-106900606D01*
X142154422Y-107057366D01*
X142170991Y-107069404D01*
X142333786Y-107187682D01*
X142531325Y-107288333D01*
X142742177Y-107356843D01*
X142961150Y-107391525D01*
X142961153Y-107391525D01*
X143182849Y-107391525D01*
X143182852Y-107391525D01*
X143401825Y-107356843D01*
X143612677Y-107288333D01*
X143810216Y-107187682D01*
X143989577Y-107057368D01*
X144146344Y-106900601D01*
X144276658Y-106721240D01*
X144377309Y-106523701D01*
X144445819Y-106312849D01*
X144480501Y-106093876D01*
X144480501Y-105872174D01*
X144445819Y-105653201D01*
X144377309Y-105442349D01*
X144276658Y-105244810D01*
X144146666Y-105065892D01*
X144146342Y-105065446D01*
X143989579Y-104908683D01*
X143810219Y-104778370D01*
X143810218Y-104778369D01*
X143810216Y-104778368D01*
X143612677Y-104677717D01*
X143612674Y-104677716D01*
X143612672Y-104677715D01*
X143401830Y-104609208D01*
X143401826Y-104609207D01*
X143401825Y-104609207D01*
X143182852Y-104574525D01*
X142961150Y-104574525D01*
X142742177Y-104609207D01*
X142742171Y-104609208D01*
X142531329Y-104677715D01*
X142531323Y-104677718D01*
X142333782Y-104778370D01*
X142154422Y-104908683D01*
X141997659Y-105065446D01*
X141903937Y-105194444D01*
X141847714Y-105237798D01*
X141776978Y-105243873D01*
X141714186Y-105210741D01*
X141700065Y-105194444D01*
X141606342Y-105065446D01*
X141449579Y-104908683D01*
X141270219Y-104778370D01*
X141270218Y-104778369D01*
X141270216Y-104778368D01*
X141072677Y-104677717D01*
X141072674Y-104677716D01*
X141072672Y-104677715D01*
X140861830Y-104609208D01*
X140861826Y-104609207D01*
X140861825Y-104609207D01*
X140642852Y-104574525D01*
X140421150Y-104574525D01*
X140202177Y-104609207D01*
X140202171Y-104609208D01*
X139991329Y-104677715D01*
X139991323Y-104677718D01*
X139793782Y-104778370D01*
X139614422Y-104908683D01*
X139457659Y-105065446D01*
X139363937Y-105194444D01*
X139307714Y-105237798D01*
X139236978Y-105243873D01*
X139174186Y-105210741D01*
X139160065Y-105194444D01*
X139066342Y-105065446D01*
X138909579Y-104908683D01*
X138730219Y-104778370D01*
X138730218Y-104778369D01*
X138730216Y-104778368D01*
X138532677Y-104677717D01*
X138532674Y-104677716D01*
X138532672Y-104677715D01*
X138321830Y-104609208D01*
X138321826Y-104609207D01*
X138321825Y-104609207D01*
X138102852Y-104574525D01*
X137881150Y-104574525D01*
X137662177Y-104609207D01*
X137662171Y-104609208D01*
X137451329Y-104677715D01*
X137451323Y-104677718D01*
X137253782Y-104778370D01*
X137074422Y-104908683D01*
X136917659Y-105065446D01*
X136823937Y-105194444D01*
X136767714Y-105237798D01*
X136696978Y-105243873D01*
X136634186Y-105210741D01*
X136620065Y-105194444D01*
X136526342Y-105065446D01*
X136369579Y-104908683D01*
X136190219Y-104778370D01*
X136190218Y-104778369D01*
X136190216Y-104778368D01*
X135992677Y-104677717D01*
X135992674Y-104677716D01*
X135992672Y-104677715D01*
X135781830Y-104609208D01*
X135781826Y-104609207D01*
X135781825Y-104609207D01*
X135562852Y-104574525D01*
X135341150Y-104574525D01*
X135122177Y-104609207D01*
X135122171Y-104609208D01*
X134911329Y-104677715D01*
X134911323Y-104677718D01*
X134713782Y-104778370D01*
X134534422Y-104908683D01*
X134377659Y-105065446D01*
X134283937Y-105194444D01*
X134227714Y-105237798D01*
X134156978Y-105243873D01*
X134094186Y-105210741D01*
X134080065Y-105194444D01*
X133986342Y-105065446D01*
X133829579Y-104908683D01*
X133650219Y-104778370D01*
X133650218Y-104778369D01*
X133650216Y-104778368D01*
X133452677Y-104677717D01*
X133452674Y-104677716D01*
X133452672Y-104677715D01*
X133241830Y-104609208D01*
X133241826Y-104609207D01*
X133241825Y-104609207D01*
X133022852Y-104574525D01*
X132801150Y-104574525D01*
X132582177Y-104609207D01*
X132582171Y-104609208D01*
X132371329Y-104677715D01*
X132371323Y-104677718D01*
X132173782Y-104778370D01*
X131994422Y-104908683D01*
X131837659Y-105065446D01*
X131743937Y-105194444D01*
X131687714Y-105237798D01*
X131616978Y-105243873D01*
X131554186Y-105210741D01*
X131540065Y-105194444D01*
X131446342Y-105065446D01*
X131289579Y-104908683D01*
X131110219Y-104778370D01*
X131110218Y-104778369D01*
X131110216Y-104778368D01*
X130912677Y-104677717D01*
X130912674Y-104677716D01*
X130912672Y-104677715D01*
X130701830Y-104609208D01*
X130701826Y-104609207D01*
X130701825Y-104609207D01*
X130482852Y-104574525D01*
X130261150Y-104574525D01*
X130042177Y-104609207D01*
X130042171Y-104609208D01*
X129831329Y-104677715D01*
X129831323Y-104677718D01*
X129633782Y-104778370D01*
X129454422Y-104908683D01*
X129297659Y-105065446D01*
X129203628Y-105194869D01*
X129147405Y-105238223D01*
X129076669Y-105244298D01*
X129013877Y-105211166D01*
X128999757Y-105194870D01*
X128991176Y-105183060D01*
X128991174Y-105183060D01*
X128322691Y-105851543D01*
X128305382Y-105786944D01*
X128238503Y-105671105D01*
X128143921Y-105576523D01*
X128028082Y-105509644D01*
X127963480Y-105492334D01*
X128631964Y-104823849D01*
X128569953Y-104778795D01*
X128372486Y-104678181D01*
X128372484Y-104678180D01*
X128161711Y-104609695D01*
X127942810Y-104575025D01*
X127721192Y-104575025D01*
X127502290Y-104609695D01*
X127291517Y-104678180D01*
X127291515Y-104678181D01*
X127094044Y-104778797D01*
X127032036Y-104823848D01*
X127032036Y-104823850D01*
X127700520Y-105492334D01*
X127635920Y-105509644D01*
X127520081Y-105576523D01*
X127425499Y-105671105D01*
X127358620Y-105786944D01*
X127341310Y-105851544D01*
X126672826Y-105183060D01*
X126672824Y-105183060D01*
X126664245Y-105194869D01*
X126608022Y-105238222D01*
X126537286Y-105244297D01*
X126474494Y-105211165D01*
X126460373Y-105194868D01*
X126366342Y-105065446D01*
X126209579Y-104908683D01*
X126030219Y-104778370D01*
X126030218Y-104778369D01*
X126030216Y-104778368D01*
X125832677Y-104677717D01*
X125832674Y-104677716D01*
X125832672Y-104677715D01*
X125621830Y-104609208D01*
X125621826Y-104609207D01*
X125621825Y-104609207D01*
X125402852Y-104574525D01*
X125181150Y-104574525D01*
X124962177Y-104609207D01*
X124962171Y-104609208D01*
X124751329Y-104677715D01*
X124751323Y-104677718D01*
X124553782Y-104778370D01*
X124374422Y-104908683D01*
X124217659Y-105065446D01*
X124087346Y-105244806D01*
X123986694Y-105442347D01*
X123986691Y-105442353D01*
X123918184Y-105653195D01*
X123918183Y-105653200D01*
X123918183Y-105653201D01*
X123883501Y-105872174D01*
X116996729Y-105872174D01*
X116996729Y-105664191D01*
X116963625Y-105412743D01*
X116897984Y-105167767D01*
X116800929Y-104933455D01*
X116711636Y-104778795D01*
X116674122Y-104713819D01*
X116674117Y-104713812D01*
X116519734Y-104512616D01*
X116519715Y-104512595D01*
X116340404Y-104333284D01*
X116340383Y-104333265D01*
X116222150Y-104242542D01*
X116139187Y-104178882D01*
X116139180Y-104178877D01*
X115919556Y-104052077D01*
X115919551Y-104052074D01*
X115919545Y-104052071D01*
X115685233Y-103955016D01*
X115440257Y-103889375D01*
X115440255Y-103889374D01*
X115440249Y-103889373D01*
X115188811Y-103856271D01*
X115188809Y-103856271D01*
X114935191Y-103856271D01*
X114935188Y-103856271D01*
X114683750Y-103889373D01*
X114484809Y-103942679D01*
X114438767Y-103955016D01*
X114300334Y-104012357D01*
X114204453Y-104052072D01*
X114204443Y-104052077D01*
X113984819Y-104178877D01*
X113984812Y-104178882D01*
X113783616Y-104333265D01*
X113783595Y-104333284D01*
X113604284Y-104512595D01*
X113604265Y-104512616D01*
X113449882Y-104713812D01*
X113449877Y-104713819D01*
X113323077Y-104933443D01*
X113323072Y-104933453D01*
X113226016Y-105167767D01*
X113160373Y-105412750D01*
X113127271Y-105664188D01*
X111245163Y-105664188D01*
X111216392Y-105556814D01*
X111150500Y-105442686D01*
X111150498Y-105442684D01*
X111147794Y-105438000D01*
X111131056Y-105369005D01*
X111147794Y-105312000D01*
X111150498Y-105307315D01*
X111150500Y-105307314D01*
X111216392Y-105193186D01*
X111250500Y-105065892D01*
X111250500Y-104934108D01*
X111216392Y-104806814D01*
X111150500Y-104692686D01*
X111150498Y-104692684D01*
X111147794Y-104688000D01*
X111131056Y-104619005D01*
X111147794Y-104562000D01*
X111150498Y-104557315D01*
X111150500Y-104557314D01*
X111216392Y-104443186D01*
X111250500Y-104315892D01*
X111250500Y-104184108D01*
X111216392Y-104056814D01*
X111157619Y-103955016D01*
X111150502Y-103942689D01*
X111150494Y-103942679D01*
X111057321Y-103849506D01*
X111057316Y-103849502D01*
X111057314Y-103849500D01*
X111057310Y-103849498D01*
X111050764Y-103844475D01*
X111052285Y-103842491D01*
X111012003Y-103800238D01*
X110998000Y-103742509D01*
X110998000Y-103253808D01*
X111000146Y-103230654D01*
X111025500Y-103095027D01*
X111025500Y-103000000D01*
X111025500Y-102991715D01*
X111025500Y-100457000D01*
X138620186Y-100457000D01*
X139719562Y-100457000D01*
X139695482Y-100498708D01*
X139658000Y-100638591D01*
X139658000Y-100783409D01*
X139695482Y-100923292D01*
X139719562Y-100965000D01*
X138620186Y-100965000D01*
X138639596Y-101087545D01*
X138717806Y-101328253D01*
X138717809Y-101328259D01*
X138832717Y-101553779D01*
X138981488Y-101758544D01*
X138981490Y-101758547D01*
X139160452Y-101937509D01*
X139160455Y-101937511D01*
X139365220Y-102086282D01*
X139590740Y-102201190D01*
X139590746Y-102201193D01*
X139831454Y-102279403D01*
X139831453Y-102279403D01*
X139954000Y-102298812D01*
X139954000Y-101199438D01*
X139995708Y-101223518D01*
X140135591Y-101261000D01*
X140280409Y-101261000D01*
X140420292Y-101223518D01*
X140462000Y-101199438D01*
X140462000Y-102298812D01*
X140584545Y-102279403D01*
X140825253Y-102201193D01*
X140825259Y-102201190D01*
X141050779Y-102086282D01*
X141255544Y-101937511D01*
X141255547Y-101937509D01*
X141434509Y-101758547D01*
X141434511Y-101758544D01*
X141583282Y-101553779D01*
X141698190Y-101328259D01*
X141698193Y-101328253D01*
X141776403Y-101087545D01*
X141795814Y-100965000D01*
X140696438Y-100965000D01*
X140720518Y-100923292D01*
X140758000Y-100783409D01*
X140758000Y-100638591D01*
X140720518Y-100498708D01*
X140696438Y-100457000D01*
X141795813Y-100457000D01*
X141776403Y-100334454D01*
X141698193Y-100093746D01*
X141698190Y-100093740D01*
X141583282Y-99868220D01*
X141434511Y-99663455D01*
X141434509Y-99663452D01*
X141255547Y-99484490D01*
X141255544Y-99484488D01*
X141050779Y-99335717D01*
X140825259Y-99220809D01*
X140825253Y-99220806D01*
X140584545Y-99142596D01*
X140462000Y-99123186D01*
X140462000Y-100222561D01*
X140420292Y-100198482D01*
X140280409Y-100161000D01*
X140135591Y-100161000D01*
X139995708Y-100198482D01*
X139954000Y-100222561D01*
X139954000Y-99123186D01*
X139831454Y-99142596D01*
X139590746Y-99220806D01*
X139590740Y-99220809D01*
X139365220Y-99335717D01*
X139160455Y-99484488D01*
X139160452Y-99484490D01*
X138981490Y-99663452D01*
X138981488Y-99663455D01*
X138832717Y-99868220D01*
X138717809Y-100093740D01*
X138717806Y-100093746D01*
X138639596Y-100334454D01*
X138620186Y-100457000D01*
X111025500Y-100457000D01*
X111025500Y-96798019D01*
X124040500Y-96798019D01*
X124040500Y-97003981D01*
X124072720Y-97207408D01*
X124136366Y-97403290D01*
X124229871Y-97586803D01*
X124350932Y-97753430D01*
X124350934Y-97753432D01*
X124350936Y-97753435D01*
X124496564Y-97899063D01*
X124496567Y-97899065D01*
X124496570Y-97899068D01*
X124663197Y-98020129D01*
X124846710Y-98113634D01*
X125042592Y-98177280D01*
X125246019Y-98209500D01*
X125246022Y-98209500D01*
X125451978Y-98209500D01*
X125451981Y-98209500D01*
X125655408Y-98177280D01*
X125851290Y-98113634D01*
X126034803Y-98020129D01*
X126201430Y-97899068D01*
X126347068Y-97753430D01*
X126468129Y-97586803D01*
X126561634Y-97403290D01*
X126625280Y-97207408D01*
X126657500Y-97003981D01*
X126657500Y-96798019D01*
X134200500Y-96798019D01*
X134200500Y-97003981D01*
X134232720Y-97207408D01*
X134296366Y-97403290D01*
X134389871Y-97586803D01*
X134510932Y-97753430D01*
X134510934Y-97753432D01*
X134510936Y-97753435D01*
X134656564Y-97899063D01*
X134656567Y-97899065D01*
X134656570Y-97899068D01*
X134823197Y-98020129D01*
X135006710Y-98113634D01*
X135202592Y-98177280D01*
X135406019Y-98209500D01*
X135406022Y-98209500D01*
X135611978Y-98209500D01*
X135611981Y-98209500D01*
X135815408Y-98177280D01*
X136011290Y-98113634D01*
X136194803Y-98020129D01*
X136361430Y-97899068D01*
X136507068Y-97753430D01*
X136628129Y-97586803D01*
X136721634Y-97403290D01*
X136785280Y-97207408D01*
X136817500Y-97003981D01*
X136817500Y-96798019D01*
X136785280Y-96594592D01*
X136721634Y-96398710D01*
X136628129Y-96215197D01*
X136507068Y-96048570D01*
X136507065Y-96048567D01*
X136507063Y-96048564D01*
X136361435Y-95902936D01*
X136361432Y-95902934D01*
X136361430Y-95902932D01*
X136194803Y-95781871D01*
X136011290Y-95688366D01*
X136011287Y-95688365D01*
X136011285Y-95688364D01*
X135815412Y-95624721D01*
X135815410Y-95624720D01*
X135815408Y-95624720D01*
X135611981Y-95592500D01*
X135406019Y-95592500D01*
X135202592Y-95624720D01*
X135202590Y-95624720D01*
X135202587Y-95624721D01*
X135006714Y-95688364D01*
X135006708Y-95688367D01*
X134823193Y-95781873D01*
X134656567Y-95902934D01*
X134656564Y-95902936D01*
X134510936Y-96048564D01*
X134510934Y-96048567D01*
X134389873Y-96215193D01*
X134296367Y-96398708D01*
X134296364Y-96398714D01*
X134232721Y-96594587D01*
X134232720Y-96594590D01*
X134232720Y-96594592D01*
X134200500Y-96798019D01*
X126657500Y-96798019D01*
X126625280Y-96594592D01*
X126561634Y-96398710D01*
X126468129Y-96215197D01*
X126347068Y-96048570D01*
X126347065Y-96048567D01*
X126347063Y-96048564D01*
X126201435Y-95902936D01*
X126201432Y-95902934D01*
X126201430Y-95902932D01*
X126034803Y-95781871D01*
X125851290Y-95688366D01*
X125851287Y-95688365D01*
X125851285Y-95688364D01*
X125655412Y-95624721D01*
X125655410Y-95624720D01*
X125655408Y-95624720D01*
X125451981Y-95592500D01*
X125246019Y-95592500D01*
X125042592Y-95624720D01*
X125042590Y-95624720D01*
X125042587Y-95624721D01*
X124846714Y-95688364D01*
X124846708Y-95688367D01*
X124663193Y-95781873D01*
X124496567Y-95902934D01*
X124496564Y-95902936D01*
X124350936Y-96048564D01*
X124350934Y-96048567D01*
X124229873Y-96215193D01*
X124136367Y-96398708D01*
X124136364Y-96398714D01*
X124072721Y-96594587D01*
X124072720Y-96594590D01*
X124072720Y-96594592D01*
X124040500Y-96798019D01*
X111025500Y-96798019D01*
X111025500Y-91972019D01*
X124040500Y-91972019D01*
X124040500Y-92177981D01*
X124072720Y-92381408D01*
X124072721Y-92381412D01*
X124113876Y-92508075D01*
X124136366Y-92577290D01*
X124229871Y-92760803D01*
X124350932Y-92927430D01*
X124350934Y-92927432D01*
X124350936Y-92927435D01*
X124496564Y-93073063D01*
X124496567Y-93073065D01*
X124496570Y-93073068D01*
X124663197Y-93194129D01*
X124846710Y-93287634D01*
X125042592Y-93351280D01*
X125246019Y-93383500D01*
X125246022Y-93383500D01*
X125451978Y-93383500D01*
X125451981Y-93383500D01*
X125655408Y-93351280D01*
X125851290Y-93287634D01*
X126034803Y-93194129D01*
X126201430Y-93073068D01*
X126347068Y-92927430D01*
X126468129Y-92760803D01*
X126561634Y-92577290D01*
X126625280Y-92381408D01*
X126657500Y-92177981D01*
X126657500Y-91972019D01*
X134200500Y-91972019D01*
X134200500Y-92177981D01*
X134232720Y-92381408D01*
X134232721Y-92381412D01*
X134273876Y-92508075D01*
X134296366Y-92577290D01*
X134389871Y-92760803D01*
X134510932Y-92927430D01*
X134510934Y-92927432D01*
X134510936Y-92927435D01*
X134656564Y-93073063D01*
X134656567Y-93073065D01*
X134656570Y-93073068D01*
X134823197Y-93194129D01*
X135006710Y-93287634D01*
X135202592Y-93351280D01*
X135406019Y-93383500D01*
X135406022Y-93383500D01*
X135611978Y-93383500D01*
X135611981Y-93383500D01*
X135815408Y-93351280D01*
X136011290Y-93287634D01*
X136194803Y-93194129D01*
X136361430Y-93073068D01*
X136507068Y-92927430D01*
X136628129Y-92760803D01*
X136721634Y-92577290D01*
X136785280Y-92381408D01*
X136817500Y-92177981D01*
X136817500Y-91972019D01*
X136785280Y-91768592D01*
X136721634Y-91572710D01*
X136628129Y-91389197D01*
X136507068Y-91222570D01*
X136507065Y-91222567D01*
X136507063Y-91222564D01*
X136361435Y-91076936D01*
X136361432Y-91076934D01*
X136361430Y-91076932D01*
X136194803Y-90955871D01*
X136011290Y-90862366D01*
X136011287Y-90862365D01*
X136011285Y-90862364D01*
X135815412Y-90798721D01*
X135815410Y-90798720D01*
X135815408Y-90798720D01*
X135611981Y-90766500D01*
X135406019Y-90766500D01*
X135202592Y-90798720D01*
X135202590Y-90798720D01*
X135202587Y-90798721D01*
X135006714Y-90862364D01*
X135006708Y-90862367D01*
X134823193Y-90955873D01*
X134656567Y-91076934D01*
X134656564Y-91076936D01*
X134510936Y-91222564D01*
X134510934Y-91222567D01*
X134389873Y-91389193D01*
X134296367Y-91572708D01*
X134296364Y-91572714D01*
X134232721Y-91768587D01*
X134232720Y-91768590D01*
X134232720Y-91768592D01*
X134200500Y-91972019D01*
X126657500Y-91972019D01*
X126625280Y-91768592D01*
X126561634Y-91572710D01*
X126468129Y-91389197D01*
X126347068Y-91222570D01*
X126347065Y-91222567D01*
X126347063Y-91222564D01*
X126201435Y-91076936D01*
X126201432Y-91076934D01*
X126201430Y-91076932D01*
X126034803Y-90955871D01*
X125851290Y-90862366D01*
X125851287Y-90862365D01*
X125851285Y-90862364D01*
X125655412Y-90798721D01*
X125655410Y-90798720D01*
X125655408Y-90798720D01*
X125451981Y-90766500D01*
X125246019Y-90766500D01*
X125042592Y-90798720D01*
X125042590Y-90798720D01*
X125042587Y-90798721D01*
X124846714Y-90862364D01*
X124846708Y-90862367D01*
X124663193Y-90955873D01*
X124496567Y-91076934D01*
X124496564Y-91076936D01*
X124350936Y-91222564D01*
X124350934Y-91222567D01*
X124229873Y-91389193D01*
X124136367Y-91572708D01*
X124136364Y-91572714D01*
X124072721Y-91768587D01*
X124072720Y-91768590D01*
X124072720Y-91768592D01*
X124040500Y-91972019D01*
X111025500Y-91972019D01*
X111025500Y-86989438D01*
X111025500Y-86904973D01*
X111017542Y-86862402D01*
X111017532Y-86862350D01*
X138599500Y-86862350D01*
X138599500Y-89159649D01*
X138606009Y-89220196D01*
X138606011Y-89220204D01*
X138657110Y-89357202D01*
X138657112Y-89357207D01*
X138744738Y-89474261D01*
X138861792Y-89561887D01*
X138861794Y-89561888D01*
X138861796Y-89561889D01*
X138920875Y-89583924D01*
X138998795Y-89612988D01*
X138998803Y-89612990D01*
X139059350Y-89619499D01*
X139059355Y-89619499D01*
X139059362Y-89619500D01*
X139448500Y-89619500D01*
X139516621Y-89639502D01*
X139563114Y-89693158D01*
X139574500Y-89745500D01*
X139574500Y-92145606D01*
X139574500Y-92270394D01*
X139598845Y-92392785D01*
X139646600Y-92508075D01*
X139715929Y-92611833D01*
X142338167Y-95234071D01*
X142441925Y-95303400D01*
X142557215Y-95351155D01*
X142679606Y-95375500D01*
X142804394Y-95375500D01*
X156275318Y-95375500D01*
X156343439Y-95395502D01*
X156387585Y-95444297D01*
X156435263Y-95537870D01*
X156498364Y-95624720D01*
X156575753Y-95731237D01*
X156575755Y-95731239D01*
X156575757Y-95731242D01*
X156744756Y-95900241D01*
X156744759Y-95900243D01*
X156744763Y-95900247D01*
X156758277Y-95910065D01*
X156801629Y-95966287D01*
X156807704Y-96037023D01*
X156774572Y-96099815D01*
X156758281Y-96113930D01*
X156746035Y-96122828D01*
X156744756Y-96123758D01*
X156575757Y-96292757D01*
X156575755Y-96292760D01*
X156435264Y-96486128D01*
X156326751Y-96699096D01*
X156326748Y-96699102D01*
X156252891Y-96926411D01*
X156252890Y-96926416D01*
X156252890Y-96926417D01*
X156215500Y-97162491D01*
X156215500Y-97401509D01*
X156244848Y-97586806D01*
X156252891Y-97637588D01*
X156290531Y-97753432D01*
X156326750Y-97864902D01*
X156435262Y-98077868D01*
X156575753Y-98271237D01*
X156575755Y-98271239D01*
X156575757Y-98271242D01*
X156744757Y-98440242D01*
X156744760Y-98440244D01*
X156744763Y-98440247D01*
X156938132Y-98580738D01*
X157151098Y-98689250D01*
X157241272Y-98718549D01*
X157281648Y-98731668D01*
X157340254Y-98771741D01*
X157367891Y-98837138D01*
X157355784Y-98907095D01*
X157307778Y-98959401D01*
X157242712Y-98977501D01*
X146325599Y-98977501D01*
X146203216Y-99001845D01*
X146203208Y-99001847D01*
X146169446Y-99015831D01*
X146169446Y-99015832D01*
X146087924Y-99049600D01*
X145984167Y-99118928D01*
X145984159Y-99118934D01*
X145942913Y-99160180D01*
X145880601Y-99194205D01*
X145814883Y-99190917D01*
X145664663Y-99142107D01*
X145664659Y-99142106D01*
X145664658Y-99142106D01*
X145414592Y-99102500D01*
X145161408Y-99102500D01*
X144911342Y-99142106D01*
X144911336Y-99142107D01*
X144670554Y-99220342D01*
X144670548Y-99220345D01*
X144444958Y-99335289D01*
X144240129Y-99484107D01*
X144240126Y-99484109D01*
X144061109Y-99663126D01*
X144061107Y-99663129D01*
X143912289Y-99867958D01*
X143797345Y-100093548D01*
X143797342Y-100093554D01*
X143719107Y-100334336D01*
X143719106Y-100334341D01*
X143719106Y-100334342D01*
X143679500Y-100584408D01*
X143679500Y-100837592D01*
X143712937Y-101048708D01*
X143719107Y-101087663D01*
X143775428Y-101261000D01*
X143797344Y-101328450D01*
X143912287Y-101554038D01*
X144061105Y-101758868D01*
X144061107Y-101758870D01*
X144061109Y-101758873D01*
X144240126Y-101937890D01*
X144240129Y-101937892D01*
X144240132Y-101937895D01*
X144444962Y-102086713D01*
X144670550Y-102201656D01*
X144911342Y-102279894D01*
X145161408Y-102319500D01*
X145161411Y-102319500D01*
X145414589Y-102319500D01*
X145414592Y-102319500D01*
X145664658Y-102279894D01*
X145905450Y-102201656D01*
X146131038Y-102086713D01*
X146335868Y-101937895D01*
X146514895Y-101758868D01*
X146663713Y-101554038D01*
X146778656Y-101328450D01*
X146856894Y-101087658D01*
X146896500Y-100837592D01*
X146896500Y-100584408D01*
X146865742Y-100390209D01*
X146874842Y-100319801D01*
X146920564Y-100265487D01*
X146988392Y-100244514D01*
X146990191Y-100244501D01*
X156803269Y-100244501D01*
X156871390Y-100264503D01*
X156917883Y-100318159D01*
X156927987Y-100388433D01*
X156898493Y-100453013D01*
X156877330Y-100472437D01*
X156744760Y-100568754D01*
X156575757Y-100737757D01*
X156575755Y-100737760D01*
X156435264Y-100931128D01*
X156326751Y-101144096D01*
X156326748Y-101144102D01*
X156252891Y-101371411D01*
X156252890Y-101371416D01*
X156252890Y-101371417D01*
X156215500Y-101607491D01*
X156215500Y-101846509D01*
X156229974Y-101937895D01*
X156252891Y-102082588D01*
X156326748Y-102309897D01*
X156326750Y-102309902D01*
X156435262Y-102522868D01*
X156575753Y-102716237D01*
X156575755Y-102716239D01*
X156575757Y-102716242D01*
X156744757Y-102885242D01*
X156744760Y-102885244D01*
X156744763Y-102885247D01*
X156802925Y-102927504D01*
X156846279Y-102983726D01*
X156852563Y-103026354D01*
X157600885Y-103774676D01*
X157537147Y-103791755D01*
X157420853Y-103858898D01*
X157325898Y-103953853D01*
X157258755Y-104070147D01*
X157241676Y-104133885D01*
X156496074Y-103388283D01*
X156496072Y-103388283D01*
X156435692Y-103471391D01*
X156327215Y-103684288D01*
X156327212Y-103684294D01*
X156253379Y-103911528D01*
X156216000Y-104147534D01*
X156216000Y-104386465D01*
X156253379Y-104622471D01*
X156327212Y-104849705D01*
X156327215Y-104849711D01*
X156435689Y-105062603D01*
X156435690Y-105062604D01*
X156496073Y-105145715D01*
X157241676Y-104400112D01*
X157258755Y-104463853D01*
X157325898Y-104580147D01*
X157420853Y-104675102D01*
X157537147Y-104742245D01*
X157600886Y-104759323D01*
X156851534Y-105508674D01*
X156839879Y-105564154D01*
X156802926Y-105606494D01*
X156744763Y-105648752D01*
X156744757Y-105648757D01*
X156575757Y-105817757D01*
X156575755Y-105817760D01*
X156435264Y-106011128D01*
X156326751Y-106224096D01*
X156326748Y-106224102D01*
X156252891Y-106451411D01*
X156252890Y-106451416D01*
X156252890Y-106451417D01*
X156215500Y-106687491D01*
X156215500Y-106926509D01*
X156249662Y-107142199D01*
X156252891Y-107162588D01*
X156316145Y-107357263D01*
X156326750Y-107389902D01*
X156435262Y-107602868D01*
X156575753Y-107796237D01*
X156575755Y-107796239D01*
X156575757Y-107796242D01*
X156744757Y-107965242D01*
X156744760Y-107965244D01*
X156744763Y-107965247D01*
X156938132Y-108105738D01*
X157151098Y-108214250D01*
X157378411Y-108288108D01*
X157378412Y-108288108D01*
X157378417Y-108288110D01*
X157614491Y-108325500D01*
X157614494Y-108325500D01*
X157853506Y-108325500D01*
X157853509Y-108325500D01*
X158089583Y-108288110D01*
X158316902Y-108214250D01*
X158529868Y-108105738D01*
X158723237Y-107965247D01*
X158892247Y-107796237D01*
X159032738Y-107602868D01*
X159141250Y-107389902D01*
X159215110Y-107162583D01*
X159252500Y-106926509D01*
X159252500Y-106687491D01*
X159215110Y-106451417D01*
X159141250Y-106224098D01*
X159032738Y-106011132D01*
X158892247Y-105817763D01*
X158892244Y-105817760D01*
X158892242Y-105817757D01*
X158826101Y-105751616D01*
X158826091Y-105751607D01*
X158738672Y-105664188D01*
X165451271Y-105664188D01*
X165451271Y-105917811D01*
X165484373Y-106169249D01*
X165484374Y-106169255D01*
X165484375Y-106169257D01*
X165550016Y-106414233D01*
X165647071Y-106648545D01*
X165647072Y-106648546D01*
X165647077Y-106648556D01*
X165773877Y-106868180D01*
X165773882Y-106868187D01*
X165928265Y-107069383D01*
X165928284Y-107069404D01*
X166107595Y-107248715D01*
X166107616Y-107248734D01*
X166293705Y-107391525D01*
X166308816Y-107403120D01*
X166528455Y-107529929D01*
X166762767Y-107626984D01*
X167007743Y-107692625D01*
X167007749Y-107692625D01*
X167007750Y-107692626D01*
X167036601Y-107696424D01*
X167259191Y-107725729D01*
X167259198Y-107725729D01*
X167512802Y-107725729D01*
X167512809Y-107725729D01*
X167764257Y-107692625D01*
X168009233Y-107626984D01*
X168243545Y-107529929D01*
X168463184Y-107403120D01*
X168664392Y-107248727D01*
X168843727Y-107069392D01*
X168998120Y-106868184D01*
X169124929Y-106648545D01*
X169221984Y-106414233D01*
X169287625Y-106169257D01*
X169320729Y-105917809D01*
X169320729Y-105664191D01*
X169287625Y-105412743D01*
X169221984Y-105167767D01*
X169124929Y-104933455D01*
X169035636Y-104778795D01*
X168998122Y-104713819D01*
X168998117Y-104713812D01*
X168843734Y-104512616D01*
X168843715Y-104512595D01*
X168664404Y-104333284D01*
X168664383Y-104333265D01*
X168463187Y-104178882D01*
X168463180Y-104178877D01*
X168243556Y-104052077D01*
X168243551Y-104052074D01*
X168243545Y-104052071D01*
X168009233Y-103955016D01*
X167764257Y-103889375D01*
X167764255Y-103889374D01*
X167764249Y-103889373D01*
X167512811Y-103856271D01*
X167512809Y-103856271D01*
X167259191Y-103856271D01*
X167259188Y-103856271D01*
X167007750Y-103889373D01*
X166808809Y-103942679D01*
X166762767Y-103955016D01*
X166624334Y-104012357D01*
X166528453Y-104052072D01*
X166528443Y-104052077D01*
X166308819Y-104178877D01*
X166308812Y-104178882D01*
X166107616Y-104333265D01*
X166107595Y-104333284D01*
X165928284Y-104512595D01*
X165928265Y-104512616D01*
X165773882Y-104713812D01*
X165773877Y-104713819D01*
X165647077Y-104933443D01*
X165647072Y-104933453D01*
X165550016Y-105167767D01*
X165484373Y-105412750D01*
X165451271Y-105664188D01*
X158738672Y-105664188D01*
X158723237Y-105648753D01*
X158659864Y-105602710D01*
X158655065Y-105598411D01*
X158639623Y-105573490D01*
X158621719Y-105550271D01*
X158620621Y-105542823D01*
X158617670Y-105538061D01*
X158617896Y-105524336D01*
X158615435Y-105507644D01*
X157867114Y-104759323D01*
X157930853Y-104742245D01*
X158047147Y-104675102D01*
X158142102Y-104580147D01*
X158209245Y-104463853D01*
X158226323Y-104400114D01*
X158971924Y-105145715D01*
X158971926Y-105145715D01*
X159032308Y-105062607D01*
X159140784Y-104849711D01*
X159140787Y-104849705D01*
X159214620Y-104622471D01*
X159252000Y-104386465D01*
X159252000Y-104147534D01*
X159214620Y-103911528D01*
X159140787Y-103684294D01*
X159140784Y-103684288D01*
X159032307Y-103471391D01*
X158971926Y-103388283D01*
X158971925Y-103388283D01*
X158226323Y-104133885D01*
X158209245Y-104070147D01*
X158142102Y-103953853D01*
X158047147Y-103858898D01*
X157930853Y-103791755D01*
X157867113Y-103774676D01*
X158616464Y-103025324D01*
X158628118Y-102969847D01*
X158665072Y-102927506D01*
X158723237Y-102885247D01*
X158892247Y-102716237D01*
X159032738Y-102522868D01*
X159141250Y-102309902D01*
X159215110Y-102082583D01*
X159252500Y-101846509D01*
X159252500Y-101607491D01*
X159215110Y-101371417D01*
X159141250Y-101144098D01*
X159032738Y-100931132D01*
X158892247Y-100737763D01*
X158892244Y-100737760D01*
X158892242Y-100737757D01*
X158723239Y-100568754D01*
X158590670Y-100472437D01*
X158547316Y-100416214D01*
X158541241Y-100345478D01*
X158574373Y-100282687D01*
X158636193Y-100247775D01*
X158664731Y-100244501D01*
X162201392Y-100244501D01*
X162201393Y-100244501D01*
X162323784Y-100220156D01*
X162439074Y-100172401D01*
X162542832Y-100103072D01*
X163742072Y-98903833D01*
X163811401Y-98800075D01*
X163845168Y-98718552D01*
X163859155Y-98684785D01*
X163883500Y-98562394D01*
X163883500Y-96064594D01*
X163903502Y-95996473D01*
X163920405Y-95975499D01*
X164483499Y-95412405D01*
X164545811Y-95378379D01*
X164572594Y-95375500D01*
X165038318Y-95375500D01*
X165106439Y-95395502D01*
X165150585Y-95444297D01*
X165198263Y-95537870D01*
X165261364Y-95624720D01*
X165338753Y-95731237D01*
X165338755Y-95731239D01*
X165338757Y-95731242D01*
X165507756Y-95900241D01*
X165507759Y-95900243D01*
X165507763Y-95900247D01*
X165521277Y-95910065D01*
X165564629Y-95966287D01*
X165570704Y-96037023D01*
X165537572Y-96099815D01*
X165521281Y-96113930D01*
X165509035Y-96122828D01*
X165507756Y-96123758D01*
X165338757Y-96292757D01*
X165338755Y-96292760D01*
X165198264Y-96486128D01*
X165089751Y-96699096D01*
X165089748Y-96699102D01*
X165015891Y-96926411D01*
X165015890Y-96926416D01*
X165015890Y-96926417D01*
X164978500Y-97162491D01*
X164978500Y-97401509D01*
X165007848Y-97586806D01*
X165015891Y-97637588D01*
X165053531Y-97753432D01*
X165089750Y-97864902D01*
X165198262Y-98077868D01*
X165338753Y-98271237D01*
X165338755Y-98271239D01*
X165338757Y-98271242D01*
X165507757Y-98440242D01*
X165507760Y-98440244D01*
X165507763Y-98440247D01*
X165701132Y-98580738D01*
X165914098Y-98689250D01*
X166141411Y-98763108D01*
X166141412Y-98763108D01*
X166141417Y-98763110D01*
X166377491Y-98800500D01*
X166377494Y-98800500D01*
X166616506Y-98800500D01*
X166616509Y-98800500D01*
X166852583Y-98763110D01*
X167079902Y-98689250D01*
X167292868Y-98580738D01*
X167486237Y-98440247D01*
X167655247Y-98271237D01*
X167795738Y-98077868D01*
X167904250Y-97864902D01*
X167978110Y-97637583D01*
X168015500Y-97401509D01*
X168015500Y-97162491D01*
X167978110Y-96926417D01*
X167904250Y-96699098D01*
X167795738Y-96486132D01*
X167655247Y-96292763D01*
X167655244Y-96292760D01*
X167655242Y-96292757D01*
X167486243Y-96123758D01*
X167486239Y-96123755D01*
X167486237Y-96123753D01*
X167472723Y-96113935D01*
X167429371Y-96057716D01*
X167423294Y-95986980D01*
X167456425Y-95924188D01*
X167472716Y-95910070D01*
X167486237Y-95900247D01*
X167655247Y-95731237D01*
X167795738Y-95537868D01*
X167904250Y-95324902D01*
X167978110Y-95097583D01*
X168015500Y-94861509D01*
X168015500Y-94622491D01*
X167978110Y-94386417D01*
X167904250Y-94159098D01*
X167795738Y-93946132D01*
X167655247Y-93752763D01*
X167655244Y-93752760D01*
X167655242Y-93752757D01*
X167486242Y-93583757D01*
X167486239Y-93583755D01*
X167486237Y-93583753D01*
X167292868Y-93443262D01*
X167079902Y-93334750D01*
X167079899Y-93334749D01*
X167079897Y-93334748D01*
X166852586Y-93260891D01*
X166852590Y-93260891D01*
X166808643Y-93253930D01*
X166616509Y-93223500D01*
X166377491Y-93223500D01*
X166141417Y-93260890D01*
X166141411Y-93260891D01*
X165914102Y-93334748D01*
X165914096Y-93334751D01*
X165701128Y-93443264D01*
X165507760Y-93583755D01*
X165507757Y-93583757D01*
X165338757Y-93752757D01*
X165338755Y-93752760D01*
X165198263Y-93946129D01*
X165150585Y-94039703D01*
X165101836Y-94091318D01*
X165038318Y-94108500D01*
X164195603Y-94108500D01*
X164122568Y-94123028D01*
X164073215Y-94132845D01*
X164073213Y-94132845D01*
X164073212Y-94132846D01*
X163957923Y-94180601D01*
X163854171Y-94249926D01*
X163854164Y-94249931D01*
X162757931Y-95346164D01*
X162757926Y-95346171D01*
X162688601Y-95449923D01*
X162640846Y-95565212D01*
X162616500Y-95687603D01*
X162616500Y-98185404D01*
X162596498Y-98253525D01*
X162579596Y-98274499D01*
X161913500Y-98940596D01*
X161851187Y-98974621D01*
X161824404Y-98977501D01*
X158225288Y-98977501D01*
X158157167Y-98957499D01*
X158110674Y-98903843D01*
X158100570Y-98833569D01*
X158130064Y-98768989D01*
X158186352Y-98731668D01*
X158316902Y-98689250D01*
X158529868Y-98580738D01*
X158723237Y-98440247D01*
X158892247Y-98271237D01*
X159032738Y-98077868D01*
X159141250Y-97864902D01*
X159215110Y-97637583D01*
X159252500Y-97401509D01*
X159252500Y-97162491D01*
X159215110Y-96926417D01*
X159141250Y-96699098D01*
X159032738Y-96486132D01*
X158892247Y-96292763D01*
X158892244Y-96292760D01*
X158892242Y-96292757D01*
X158723243Y-96123758D01*
X158723239Y-96123755D01*
X158723237Y-96123753D01*
X158709723Y-96113935D01*
X158666371Y-96057716D01*
X158660294Y-95986980D01*
X158693425Y-95924188D01*
X158709716Y-95910070D01*
X158723237Y-95900247D01*
X158892247Y-95731237D01*
X159032738Y-95537868D01*
X159141250Y-95324902D01*
X159215110Y-95097583D01*
X159252500Y-94861509D01*
X159252500Y-94622491D01*
X159215110Y-94386417D01*
X159141250Y-94159098D01*
X159032738Y-93946132D01*
X158892247Y-93752763D01*
X158892244Y-93752760D01*
X158892242Y-93752757D01*
X158723242Y-93583757D01*
X158723239Y-93583755D01*
X158723237Y-93583753D01*
X158529868Y-93443262D01*
X158316902Y-93334750D01*
X158316899Y-93334749D01*
X158316897Y-93334748D01*
X158089586Y-93260891D01*
X158089590Y-93260891D01*
X158045643Y-93253930D01*
X157853509Y-93223500D01*
X157614491Y-93223500D01*
X157378417Y-93260890D01*
X157378411Y-93260891D01*
X157151102Y-93334748D01*
X157151096Y-93334751D01*
X156938128Y-93443264D01*
X156744760Y-93583755D01*
X156744757Y-93583757D01*
X156575757Y-93752757D01*
X156575755Y-93752760D01*
X156435263Y-93946129D01*
X156387585Y-94039703D01*
X156338836Y-94091318D01*
X156275318Y-94108500D01*
X143056594Y-94108500D01*
X142988473Y-94088498D01*
X142967499Y-94071595D01*
X140878405Y-91982501D01*
X140844379Y-91920189D01*
X140841500Y-91893406D01*
X140841500Y-89745500D01*
X140861502Y-89677379D01*
X140915158Y-89630886D01*
X140967500Y-89619500D01*
X141356632Y-89619500D01*
X141356638Y-89619500D01*
X141356645Y-89619499D01*
X141356649Y-89619499D01*
X141417196Y-89612990D01*
X141417199Y-89612989D01*
X141417201Y-89612989D01*
X141554204Y-89561889D01*
X141554799Y-89561444D01*
X141671261Y-89474261D01*
X141758887Y-89357207D01*
X141758887Y-89357206D01*
X141758889Y-89357204D01*
X141809989Y-89220201D01*
X141816500Y-89159638D01*
X141816500Y-86862402D01*
X143680000Y-86862402D01*
X143680000Y-87757000D01*
X144799562Y-87757000D01*
X144775482Y-87798708D01*
X144738000Y-87938591D01*
X144738000Y-88083409D01*
X144775482Y-88223292D01*
X144799562Y-88265000D01*
X143680000Y-88265000D01*
X143680000Y-89159597D01*
X143686505Y-89220093D01*
X143737555Y-89356964D01*
X143737555Y-89356965D01*
X143825095Y-89473904D01*
X143942034Y-89561444D01*
X144078906Y-89612494D01*
X144139402Y-89618999D01*
X144139415Y-89619000D01*
X145034000Y-89619000D01*
X145034000Y-88499438D01*
X145075708Y-88523518D01*
X145215591Y-88561000D01*
X145360409Y-88561000D01*
X145500292Y-88523518D01*
X145542000Y-88499438D01*
X145542000Y-89619000D01*
X146436585Y-89619000D01*
X146436597Y-89618999D01*
X146497093Y-89612494D01*
X146633964Y-89561444D01*
X146633965Y-89561444D01*
X146750904Y-89473904D01*
X146838444Y-89356965D01*
X146838444Y-89356964D01*
X146889494Y-89220093D01*
X146895999Y-89159597D01*
X146896000Y-89159585D01*
X146896000Y-88265000D01*
X145776438Y-88265000D01*
X145800518Y-88223292D01*
X145838000Y-88083409D01*
X145838000Y-87938591D01*
X145800518Y-87798708D01*
X145776438Y-87757000D01*
X146896000Y-87757000D01*
X146896000Y-86862414D01*
X146895999Y-86862402D01*
X146889494Y-86801906D01*
X146838444Y-86665035D01*
X146838444Y-86665034D01*
X146750904Y-86548095D01*
X146633965Y-86460555D01*
X146497093Y-86409505D01*
X146436597Y-86403000D01*
X145542000Y-86403000D01*
X145542000Y-87522561D01*
X145500292Y-87498482D01*
X145360409Y-87461000D01*
X145215591Y-87461000D01*
X145075708Y-87498482D01*
X145034000Y-87522561D01*
X145034000Y-86403000D01*
X144139402Y-86403000D01*
X144078906Y-86409505D01*
X143942035Y-86460555D01*
X143942034Y-86460555D01*
X143825095Y-86548095D01*
X143737555Y-86665034D01*
X143737555Y-86665035D01*
X143686505Y-86801906D01*
X143680000Y-86862402D01*
X141816500Y-86862402D01*
X141816500Y-86862362D01*
X141816499Y-86862350D01*
X141809990Y-86801803D01*
X141809988Y-86801795D01*
X141778791Y-86718156D01*
X141758889Y-86664796D01*
X141758888Y-86664794D01*
X141758887Y-86664792D01*
X141671261Y-86547738D01*
X141554207Y-86460112D01*
X141554202Y-86460110D01*
X141417204Y-86409011D01*
X141417196Y-86409009D01*
X141356649Y-86402500D01*
X141356638Y-86402500D01*
X139059362Y-86402500D01*
X139059350Y-86402500D01*
X138998803Y-86409009D01*
X138998795Y-86409011D01*
X138861797Y-86460110D01*
X138861792Y-86460112D01*
X138744738Y-86547738D01*
X138657112Y-86664792D01*
X138657110Y-86664797D01*
X138606011Y-86801795D01*
X138606009Y-86801803D01*
X138599500Y-86862350D01*
X111017532Y-86862350D01*
X111000145Y-86769338D01*
X110998000Y-86746185D01*
X110998000Y-86257491D01*
X111018002Y-86189370D01*
X111051917Y-86157032D01*
X111050762Y-86155527D01*
X111057306Y-86150504D01*
X111057314Y-86150500D01*
X111150500Y-86057314D01*
X111216392Y-85943186D01*
X111250500Y-85815892D01*
X111250500Y-85684108D01*
X111216392Y-85556814D01*
X111150500Y-85442686D01*
X111150498Y-85442684D01*
X111147794Y-85438000D01*
X111131056Y-85369005D01*
X111147794Y-85312000D01*
X111150498Y-85307315D01*
X111150500Y-85307314D01*
X111216392Y-85193186D01*
X111250500Y-85065892D01*
X111250500Y-84934108D01*
X111216392Y-84806814D01*
X111150500Y-84692686D01*
X111150498Y-84692684D01*
X111147794Y-84688000D01*
X111131056Y-84619005D01*
X111147794Y-84562000D01*
X111150498Y-84557315D01*
X111150500Y-84557314D01*
X111216392Y-84443186D01*
X111250500Y-84315892D01*
X111250500Y-84184108D01*
X111216392Y-84056814D01*
X111150500Y-83942686D01*
X111150498Y-83942684D01*
X111150494Y-83942679D01*
X111057321Y-83849506D01*
X111057316Y-83849502D01*
X111057314Y-83849500D01*
X111057310Y-83849498D01*
X111050764Y-83844475D01*
X111052285Y-83842491D01*
X111012003Y-83800238D01*
X110998000Y-83742509D01*
X110998000Y-83312188D01*
X113127271Y-83312188D01*
X113127271Y-83565811D01*
X113160373Y-83817249D01*
X113160374Y-83817255D01*
X113160375Y-83817257D01*
X113226016Y-84062233D01*
X113323071Y-84296545D01*
X113323072Y-84296546D01*
X113323077Y-84296556D01*
X113449877Y-84516180D01*
X113449882Y-84516187D01*
X113604265Y-84717383D01*
X113604284Y-84717404D01*
X113783595Y-84896715D01*
X113783616Y-84896734D01*
X113984812Y-85051117D01*
X113984819Y-85051122D01*
X114065138Y-85097494D01*
X114204455Y-85177929D01*
X114438767Y-85274984D01*
X114683743Y-85340625D01*
X114683749Y-85340625D01*
X114683750Y-85340626D01*
X114712601Y-85344424D01*
X114935191Y-85373729D01*
X114935198Y-85373729D01*
X115188802Y-85373729D01*
X115188809Y-85373729D01*
X115440257Y-85340625D01*
X115685233Y-85274984D01*
X115919545Y-85177929D01*
X116058867Y-85097491D01*
X156215500Y-85097491D01*
X156215500Y-85336509D01*
X156250393Y-85556816D01*
X156252891Y-85572588D01*
X156326748Y-85799897D01*
X156326750Y-85799902D01*
X156435262Y-86012868D01*
X156575753Y-86206237D01*
X156575755Y-86206239D01*
X156575757Y-86206242D01*
X156744757Y-86375242D01*
X156744760Y-86375244D01*
X156744763Y-86375247D01*
X156802925Y-86417504D01*
X156846279Y-86473726D01*
X156852563Y-86516354D01*
X157600885Y-87264676D01*
X157537147Y-87281755D01*
X157420853Y-87348898D01*
X157325898Y-87443853D01*
X157258755Y-87560147D01*
X157241676Y-87623885D01*
X156496074Y-86878283D01*
X156496072Y-86878283D01*
X156435692Y-86961391D01*
X156327215Y-87174288D01*
X156327212Y-87174294D01*
X156253379Y-87401528D01*
X156216000Y-87637534D01*
X156216000Y-87876465D01*
X156253379Y-88112471D01*
X156327212Y-88339705D01*
X156327215Y-88339711D01*
X156435689Y-88552603D01*
X156435690Y-88552604D01*
X156496073Y-88635715D01*
X157241676Y-87890112D01*
X157258755Y-87953853D01*
X157325898Y-88070147D01*
X157420853Y-88165102D01*
X157537147Y-88232245D01*
X157600886Y-88249323D01*
X156851534Y-88998674D01*
X156839879Y-89054154D01*
X156802926Y-89096494D01*
X156744763Y-89138752D01*
X156744757Y-89138757D01*
X156575757Y-89307757D01*
X156575755Y-89307760D01*
X156435264Y-89501128D01*
X156326751Y-89714096D01*
X156326748Y-89714102D01*
X156252891Y-89941411D01*
X156252890Y-89941416D01*
X156252890Y-89941417D01*
X156215500Y-90177491D01*
X156215500Y-90416509D01*
X156252890Y-90652583D01*
X156252891Y-90652588D01*
X156326748Y-90879897D01*
X156326750Y-90879902D01*
X156435262Y-91092868D01*
X156575753Y-91286237D01*
X156575755Y-91286239D01*
X156575757Y-91286242D01*
X156744757Y-91455242D01*
X156744760Y-91455244D01*
X156744763Y-91455247D01*
X156938132Y-91595738D01*
X157151098Y-91704250D01*
X157378411Y-91778108D01*
X157378412Y-91778108D01*
X157378417Y-91778110D01*
X157614491Y-91815500D01*
X157614494Y-91815500D01*
X157853506Y-91815500D01*
X157853509Y-91815500D01*
X158089583Y-91778110D01*
X158316902Y-91704250D01*
X158529868Y-91595738D01*
X158723237Y-91455247D01*
X158892247Y-91286237D01*
X159032738Y-91092868D01*
X159141250Y-90879902D01*
X159215110Y-90652583D01*
X159252500Y-90416509D01*
X159252500Y-90177491D01*
X159215110Y-89941417D01*
X159141250Y-89714098D01*
X159032738Y-89501132D01*
X158892247Y-89307763D01*
X158892244Y-89307760D01*
X158892242Y-89307757D01*
X158723243Y-89138758D01*
X158723239Y-89138755D01*
X158723237Y-89138753D01*
X158665071Y-89096493D01*
X158621719Y-89040271D01*
X158615435Y-88997644D01*
X157867114Y-88249323D01*
X157930853Y-88232245D01*
X158047147Y-88165102D01*
X158142102Y-88070147D01*
X158209245Y-87953853D01*
X158226323Y-87890114D01*
X158971924Y-88635715D01*
X158971926Y-88635715D01*
X159032308Y-88552607D01*
X159140784Y-88339711D01*
X159140787Y-88339705D01*
X159214620Y-88112471D01*
X159252000Y-87876465D01*
X159252000Y-87637534D01*
X159214620Y-87401528D01*
X159140787Y-87174294D01*
X159140784Y-87174288D01*
X159032307Y-86961391D01*
X158971926Y-86878283D01*
X158971925Y-86878283D01*
X158226323Y-87623885D01*
X158209245Y-87560147D01*
X158142102Y-87443853D01*
X158047147Y-87348898D01*
X157930853Y-87281755D01*
X157867113Y-87264676D01*
X158616464Y-86515324D01*
X158628118Y-86459847D01*
X158665072Y-86417506D01*
X158723237Y-86375247D01*
X158892247Y-86206237D01*
X159032738Y-86012868D01*
X159141250Y-85799902D01*
X159215110Y-85572583D01*
X159252500Y-85336509D01*
X159252500Y-85097491D01*
X159215110Y-84861417D01*
X159141250Y-84634098D01*
X159032738Y-84421132D01*
X158892247Y-84227763D01*
X158892244Y-84227760D01*
X158892242Y-84227757D01*
X158723243Y-84058758D01*
X158723239Y-84058755D01*
X158723237Y-84058753D01*
X158665071Y-84016493D01*
X158621719Y-83960271D01*
X158615435Y-83917644D01*
X157867114Y-83169323D01*
X157930853Y-83152245D01*
X158047147Y-83085102D01*
X158142102Y-82990147D01*
X158209245Y-82873853D01*
X158226323Y-82810114D01*
X158971924Y-83555715D01*
X158971926Y-83555715D01*
X159032308Y-83472607D01*
X159114046Y-83312188D01*
X165451271Y-83312188D01*
X165451271Y-83565811D01*
X165484373Y-83817249D01*
X165484374Y-83817255D01*
X165484375Y-83817257D01*
X165550016Y-84062233D01*
X165647071Y-84296545D01*
X165647072Y-84296546D01*
X165647077Y-84296556D01*
X165773877Y-84516180D01*
X165773882Y-84516187D01*
X165928265Y-84717383D01*
X165928284Y-84717404D01*
X166107595Y-84896715D01*
X166107616Y-84896734D01*
X166308812Y-85051117D01*
X166308819Y-85051122D01*
X166389138Y-85097494D01*
X166528455Y-85177929D01*
X166762767Y-85274984D01*
X167007743Y-85340625D01*
X167007749Y-85340625D01*
X167007750Y-85340626D01*
X167036601Y-85344424D01*
X167259191Y-85373729D01*
X167259198Y-85373729D01*
X167512802Y-85373729D01*
X167512809Y-85373729D01*
X167764257Y-85340625D01*
X168009233Y-85274984D01*
X168243545Y-85177929D01*
X168463184Y-85051120D01*
X168664392Y-84896727D01*
X168843727Y-84717392D01*
X168998120Y-84516184D01*
X169124929Y-84296545D01*
X169221984Y-84062233D01*
X169287625Y-83817257D01*
X169320729Y-83565809D01*
X169320729Y-83312191D01*
X169287625Y-83060743D01*
X169221984Y-82815767D01*
X169124929Y-82581455D01*
X169011396Y-82384810D01*
X168998122Y-82361819D01*
X168998117Y-82361812D01*
X168843734Y-82160616D01*
X168843715Y-82160595D01*
X168664404Y-81981284D01*
X168664383Y-81981265D01*
X168463187Y-81826882D01*
X168463180Y-81826877D01*
X168243556Y-81700077D01*
X168243551Y-81700074D01*
X168243545Y-81700071D01*
X168009233Y-81603016D01*
X167764257Y-81537375D01*
X167764255Y-81537374D01*
X167764249Y-81537373D01*
X167512811Y-81504271D01*
X167512809Y-81504271D01*
X167259191Y-81504271D01*
X167259188Y-81504271D01*
X167007750Y-81537373D01*
X166762767Y-81603016D01*
X166528453Y-81700072D01*
X166528443Y-81700077D01*
X166308819Y-81826877D01*
X166308812Y-81826882D01*
X166107616Y-81981265D01*
X166107595Y-81981284D01*
X165928284Y-82160595D01*
X165928265Y-82160616D01*
X165773882Y-82361812D01*
X165773877Y-82361819D01*
X165647077Y-82581443D01*
X165647072Y-82581453D01*
X165647071Y-82581455D01*
X165607495Y-82677001D01*
X165550016Y-82815767D01*
X165484373Y-83060750D01*
X165451271Y-83312188D01*
X159114046Y-83312188D01*
X159140783Y-83259713D01*
X159140788Y-83259702D01*
X159214620Y-83032471D01*
X159252000Y-82796465D01*
X159252000Y-82557534D01*
X159214620Y-82321528D01*
X159140787Y-82094294D01*
X159140784Y-82094288D01*
X159032307Y-81881391D01*
X158971926Y-81798283D01*
X158971925Y-81798283D01*
X158226323Y-82543885D01*
X158209245Y-82480147D01*
X158142102Y-82363853D01*
X158047147Y-82268898D01*
X157930853Y-82201755D01*
X157867113Y-82184676D01*
X158612715Y-81439073D01*
X158529604Y-81378690D01*
X158529603Y-81378689D01*
X158316711Y-81270215D01*
X158316705Y-81270212D01*
X158089471Y-81196379D01*
X157853466Y-81159000D01*
X157614534Y-81159000D01*
X157378528Y-81196379D01*
X157151294Y-81270212D01*
X157151288Y-81270215D01*
X156938391Y-81378692D01*
X156855283Y-81439072D01*
X156855283Y-81439074D01*
X157600885Y-82184676D01*
X157537147Y-82201755D01*
X157420853Y-82268898D01*
X157325898Y-82363853D01*
X157258755Y-82480147D01*
X157241676Y-82543885D01*
X156496074Y-81798283D01*
X156496072Y-81798283D01*
X156435692Y-81881391D01*
X156327215Y-82094288D01*
X156327212Y-82094294D01*
X156253379Y-82321528D01*
X156216000Y-82557534D01*
X156216000Y-82796465D01*
X156253379Y-83032471D01*
X156327212Y-83259705D01*
X156327215Y-83259711D01*
X156435689Y-83472603D01*
X156435690Y-83472604D01*
X156496073Y-83555715D01*
X157241676Y-82810112D01*
X157258755Y-82873853D01*
X157325898Y-82990147D01*
X157420853Y-83085102D01*
X157537147Y-83152245D01*
X157600886Y-83169323D01*
X156851534Y-83918674D01*
X156839879Y-83974154D01*
X156802926Y-84016494D01*
X156744763Y-84058752D01*
X156744757Y-84058757D01*
X156575757Y-84227757D01*
X156575755Y-84227760D01*
X156435264Y-84421128D01*
X156326751Y-84634096D01*
X156326748Y-84634102D01*
X156252891Y-84861411D01*
X156252890Y-84861416D01*
X156252890Y-84861417D01*
X156215500Y-85097491D01*
X116058867Y-85097491D01*
X116139184Y-85051120D01*
X116291677Y-84934108D01*
X116340383Y-84896734D01*
X116340383Y-84896733D01*
X116340392Y-84896727D01*
X116519727Y-84717392D01*
X116674120Y-84516184D01*
X116800929Y-84296545D01*
X116897984Y-84062233D01*
X116963625Y-83817257D01*
X116996729Y-83565809D01*
X116996729Y-83312191D01*
X116963625Y-83060743D01*
X116950611Y-83012174D01*
X123883501Y-83012174D01*
X123883501Y-83233876D01*
X123918183Y-83452849D01*
X123918184Y-83452854D01*
X123986691Y-83663696D01*
X123986693Y-83663701D01*
X124087344Y-83861240D01*
X124087346Y-83861243D01*
X124217659Y-84040603D01*
X124374422Y-84197366D01*
X124374425Y-84197368D01*
X124553786Y-84327682D01*
X124751325Y-84428333D01*
X124962177Y-84496843D01*
X125181150Y-84531525D01*
X125181153Y-84531525D01*
X125402849Y-84531525D01*
X125402852Y-84531525D01*
X125621825Y-84496843D01*
X125832677Y-84428333D01*
X126030216Y-84327682D01*
X126209577Y-84197368D01*
X126366344Y-84040601D01*
X126460066Y-83911604D01*
X126516287Y-83868251D01*
X126587023Y-83862176D01*
X126649815Y-83895307D01*
X126663933Y-83911601D01*
X126757658Y-84040601D01*
X126757660Y-84040603D01*
X126757662Y-84040606D01*
X126914422Y-84197366D01*
X126914425Y-84197368D01*
X127093786Y-84327682D01*
X127291325Y-84428333D01*
X127502177Y-84496843D01*
X127721150Y-84531525D01*
X127721153Y-84531525D01*
X127942849Y-84531525D01*
X127942852Y-84531525D01*
X128161825Y-84496843D01*
X128372677Y-84428333D01*
X128570216Y-84327682D01*
X128749577Y-84197368D01*
X128906344Y-84040601D01*
X129000066Y-83911604D01*
X129056287Y-83868251D01*
X129127023Y-83862176D01*
X129189815Y-83895307D01*
X129203933Y-83911601D01*
X129297658Y-84040601D01*
X129297660Y-84040603D01*
X129297662Y-84040606D01*
X129454422Y-84197366D01*
X129454425Y-84197368D01*
X129633786Y-84327682D01*
X129831325Y-84428333D01*
X130042177Y-84496843D01*
X130261150Y-84531525D01*
X130261153Y-84531525D01*
X130482849Y-84531525D01*
X130482852Y-84531525D01*
X130701825Y-84496843D01*
X130912677Y-84428333D01*
X131110216Y-84327682D01*
X131289577Y-84197368D01*
X131446344Y-84040601D01*
X131540066Y-83911604D01*
X131596287Y-83868251D01*
X131667023Y-83862176D01*
X131729815Y-83895307D01*
X131743933Y-83911601D01*
X131837658Y-84040601D01*
X131837660Y-84040603D01*
X131837662Y-84040606D01*
X131994422Y-84197366D01*
X131994425Y-84197368D01*
X132173786Y-84327682D01*
X132371325Y-84428333D01*
X132582177Y-84496843D01*
X132801150Y-84531525D01*
X132801153Y-84531525D01*
X133022849Y-84531525D01*
X133022852Y-84531525D01*
X133241825Y-84496843D01*
X133452677Y-84428333D01*
X133650216Y-84327682D01*
X133829577Y-84197368D01*
X133986344Y-84040601D01*
X134080066Y-83911604D01*
X134136287Y-83868251D01*
X134207023Y-83862176D01*
X134269815Y-83895307D01*
X134283933Y-83911601D01*
X134377658Y-84040601D01*
X134377660Y-84040603D01*
X134377662Y-84040606D01*
X134534422Y-84197366D01*
X134534425Y-84197368D01*
X134713786Y-84327682D01*
X134911325Y-84428333D01*
X135122177Y-84496843D01*
X135341150Y-84531525D01*
X135341153Y-84531525D01*
X135562849Y-84531525D01*
X135562852Y-84531525D01*
X135781825Y-84496843D01*
X135992677Y-84428333D01*
X136190216Y-84327682D01*
X136369577Y-84197368D01*
X136526344Y-84040601D01*
X136620066Y-83911604D01*
X136676287Y-83868251D01*
X136747023Y-83862176D01*
X136809815Y-83895307D01*
X136823933Y-83911601D01*
X136917658Y-84040601D01*
X136917660Y-84040603D01*
X136917662Y-84040606D01*
X137074422Y-84197366D01*
X137074425Y-84197368D01*
X137253786Y-84327682D01*
X137451325Y-84428333D01*
X137662177Y-84496843D01*
X137881150Y-84531525D01*
X137881153Y-84531525D01*
X138102849Y-84531525D01*
X138102852Y-84531525D01*
X138321825Y-84496843D01*
X138532677Y-84428333D01*
X138730216Y-84327682D01*
X138909577Y-84197368D01*
X139066344Y-84040601D01*
X139160066Y-83911604D01*
X139216287Y-83868251D01*
X139287023Y-83862176D01*
X139349815Y-83895307D01*
X139363933Y-83911601D01*
X139457658Y-84040601D01*
X139457660Y-84040603D01*
X139457662Y-84040606D01*
X139614422Y-84197366D01*
X139614425Y-84197368D01*
X139793786Y-84327682D01*
X139991325Y-84428333D01*
X140202177Y-84496843D01*
X140421150Y-84531525D01*
X140421153Y-84531525D01*
X140642849Y-84531525D01*
X140642852Y-84531525D01*
X140861825Y-84496843D01*
X141072677Y-84428333D01*
X141270216Y-84327682D01*
X141449577Y-84197368D01*
X141606344Y-84040601D01*
X141700066Y-83911604D01*
X141756287Y-83868251D01*
X141827023Y-83862176D01*
X141889815Y-83895307D01*
X141903933Y-83911601D01*
X141997658Y-84040601D01*
X141997660Y-84040603D01*
X141997662Y-84040606D01*
X142154422Y-84197366D01*
X142154425Y-84197368D01*
X142333786Y-84327682D01*
X142531325Y-84428333D01*
X142742177Y-84496843D01*
X142961150Y-84531525D01*
X142961153Y-84531525D01*
X143182849Y-84531525D01*
X143182852Y-84531525D01*
X143401825Y-84496843D01*
X143612677Y-84428333D01*
X143810216Y-84327682D01*
X143989577Y-84197368D01*
X144146344Y-84040601D01*
X144276658Y-83861240D01*
X144377309Y-83663701D01*
X144445819Y-83452849D01*
X144480501Y-83233876D01*
X144480501Y-83012174D01*
X144445819Y-82793201D01*
X144377309Y-82582349D01*
X144276658Y-82384810D01*
X144146344Y-82205449D01*
X144146342Y-82205446D01*
X143989579Y-82048683D01*
X143810219Y-81918370D01*
X143810218Y-81918369D01*
X143810216Y-81918368D01*
X143612677Y-81817717D01*
X143612674Y-81817716D01*
X143612672Y-81817715D01*
X143401830Y-81749208D01*
X143401826Y-81749207D01*
X143401825Y-81749207D01*
X143182852Y-81714525D01*
X142961150Y-81714525D01*
X142742177Y-81749207D01*
X142742171Y-81749208D01*
X142531329Y-81817715D01*
X142531323Y-81817718D01*
X142333782Y-81918370D01*
X142154422Y-82048683D01*
X141997659Y-82205446D01*
X141903937Y-82334444D01*
X141847714Y-82377798D01*
X141776978Y-82383873D01*
X141714186Y-82350741D01*
X141700065Y-82334444D01*
X141606342Y-82205446D01*
X141449579Y-82048683D01*
X141270219Y-81918370D01*
X141270218Y-81918369D01*
X141270216Y-81918368D01*
X141072677Y-81817717D01*
X141072674Y-81817716D01*
X141072672Y-81817715D01*
X140861830Y-81749208D01*
X140861826Y-81749207D01*
X140861825Y-81749207D01*
X140642852Y-81714525D01*
X140421150Y-81714525D01*
X140202177Y-81749207D01*
X140202171Y-81749208D01*
X139991329Y-81817715D01*
X139991323Y-81817718D01*
X139793782Y-81918370D01*
X139614422Y-82048683D01*
X139457659Y-82205446D01*
X139363937Y-82334444D01*
X139307714Y-82377798D01*
X139236978Y-82383873D01*
X139174186Y-82350741D01*
X139160065Y-82334444D01*
X139066342Y-82205446D01*
X138909579Y-82048683D01*
X138730219Y-81918370D01*
X138730218Y-81918369D01*
X138730216Y-81918368D01*
X138532677Y-81817717D01*
X138532674Y-81817716D01*
X138532672Y-81817715D01*
X138321830Y-81749208D01*
X138321826Y-81749207D01*
X138321825Y-81749207D01*
X138102852Y-81714525D01*
X137881150Y-81714525D01*
X137662177Y-81749207D01*
X137662171Y-81749208D01*
X137451329Y-81817715D01*
X137451323Y-81817718D01*
X137253782Y-81918370D01*
X137074422Y-82048683D01*
X136917659Y-82205446D01*
X136823937Y-82334444D01*
X136767714Y-82377798D01*
X136696978Y-82383873D01*
X136634186Y-82350741D01*
X136620065Y-82334444D01*
X136526342Y-82205446D01*
X136369579Y-82048683D01*
X136190219Y-81918370D01*
X136190218Y-81918369D01*
X136190216Y-81918368D01*
X135992677Y-81817717D01*
X135992674Y-81817716D01*
X135992672Y-81817715D01*
X135781830Y-81749208D01*
X135781826Y-81749207D01*
X135781825Y-81749207D01*
X135562852Y-81714525D01*
X135341150Y-81714525D01*
X135122177Y-81749207D01*
X135122171Y-81749208D01*
X134911329Y-81817715D01*
X134911323Y-81817718D01*
X134713782Y-81918370D01*
X134534422Y-82048683D01*
X134377659Y-82205446D01*
X134283937Y-82334444D01*
X134227714Y-82377798D01*
X134156978Y-82383873D01*
X134094186Y-82350741D01*
X134080065Y-82334444D01*
X133986342Y-82205446D01*
X133829579Y-82048683D01*
X133650219Y-81918370D01*
X133650218Y-81918369D01*
X133650216Y-81918368D01*
X133452677Y-81817717D01*
X133452674Y-81817716D01*
X133452672Y-81817715D01*
X133241830Y-81749208D01*
X133241826Y-81749207D01*
X133241825Y-81749207D01*
X133022852Y-81714525D01*
X132801150Y-81714525D01*
X132582177Y-81749207D01*
X132582171Y-81749208D01*
X132371329Y-81817715D01*
X132371323Y-81817718D01*
X132173782Y-81918370D01*
X131994422Y-82048683D01*
X131837659Y-82205446D01*
X131743937Y-82334444D01*
X131687714Y-82377798D01*
X131616978Y-82383873D01*
X131554186Y-82350741D01*
X131540065Y-82334444D01*
X131446342Y-82205446D01*
X131289579Y-82048683D01*
X131110219Y-81918370D01*
X131110218Y-81918369D01*
X131110216Y-81918368D01*
X130912677Y-81817717D01*
X130912674Y-81817716D01*
X130912672Y-81817715D01*
X130701830Y-81749208D01*
X130701826Y-81749207D01*
X130701825Y-81749207D01*
X130482852Y-81714525D01*
X130261150Y-81714525D01*
X130042177Y-81749207D01*
X130042171Y-81749208D01*
X129831329Y-81817715D01*
X129831323Y-81817718D01*
X129633782Y-81918370D01*
X129454422Y-82048683D01*
X129297659Y-82205446D01*
X129203937Y-82334444D01*
X129147714Y-82377798D01*
X129076978Y-82383873D01*
X129014186Y-82350741D01*
X129000065Y-82334444D01*
X128906342Y-82205446D01*
X128749579Y-82048683D01*
X128570219Y-81918370D01*
X128570218Y-81918369D01*
X128570216Y-81918368D01*
X128372677Y-81817717D01*
X128372674Y-81817716D01*
X128372672Y-81817715D01*
X128161830Y-81749208D01*
X128161826Y-81749207D01*
X128161825Y-81749207D01*
X127942852Y-81714525D01*
X127721150Y-81714525D01*
X127502177Y-81749207D01*
X127502171Y-81749208D01*
X127291329Y-81817715D01*
X127291323Y-81817718D01*
X127093782Y-81918370D01*
X126914422Y-82048683D01*
X126757659Y-82205446D01*
X126663937Y-82334444D01*
X126607714Y-82377798D01*
X126536978Y-82383873D01*
X126474186Y-82350741D01*
X126460065Y-82334444D01*
X126366342Y-82205446D01*
X126209579Y-82048683D01*
X126030219Y-81918370D01*
X126030218Y-81918369D01*
X126030216Y-81918368D01*
X125832677Y-81817717D01*
X125832674Y-81817716D01*
X125832672Y-81817715D01*
X125621830Y-81749208D01*
X125621826Y-81749207D01*
X125621825Y-81749207D01*
X125402852Y-81714525D01*
X125181150Y-81714525D01*
X124962177Y-81749207D01*
X124962171Y-81749208D01*
X124751329Y-81817715D01*
X124751323Y-81817718D01*
X124553782Y-81918370D01*
X124374422Y-82048683D01*
X124217659Y-82205446D01*
X124087346Y-82384806D01*
X123986694Y-82582347D01*
X123986691Y-82582353D01*
X123918184Y-82793195D01*
X123918184Y-82793197D01*
X123918183Y-82793201D01*
X123883501Y-83012174D01*
X116950611Y-83012174D01*
X116897984Y-82815767D01*
X116800929Y-82581455D01*
X116687396Y-82384810D01*
X116674122Y-82361819D01*
X116674117Y-82361812D01*
X116519734Y-82160616D01*
X116519715Y-82160595D01*
X116340404Y-81981284D01*
X116340383Y-81981265D01*
X116139187Y-81826882D01*
X116139180Y-81826877D01*
X115919556Y-81700077D01*
X115919551Y-81700074D01*
X115919545Y-81700071D01*
X115685233Y-81603016D01*
X115440257Y-81537375D01*
X115440255Y-81537374D01*
X115440249Y-81537373D01*
X115188811Y-81504271D01*
X115188809Y-81504271D01*
X114935191Y-81504271D01*
X114935188Y-81504271D01*
X114683750Y-81537373D01*
X114438767Y-81603016D01*
X114204453Y-81700072D01*
X114204443Y-81700077D01*
X113984819Y-81826877D01*
X113984812Y-81826882D01*
X113783616Y-81981265D01*
X113783595Y-81981284D01*
X113604284Y-82160595D01*
X113604265Y-82160616D01*
X113449882Y-82361812D01*
X113449877Y-82361819D01*
X113323077Y-82581443D01*
X113323072Y-82581453D01*
X113323071Y-82581455D01*
X113283495Y-82677001D01*
X113226016Y-82815767D01*
X113160373Y-83060750D01*
X113127271Y-83312188D01*
X110998000Y-83312188D01*
X110998000Y-83253808D01*
X111000146Y-83230654D01*
X111007724Y-83190116D01*
X111025500Y-83095027D01*
X111025500Y-83000000D01*
X111025500Y-82991715D01*
X111025500Y-80151500D01*
X111045502Y-80083379D01*
X111099158Y-80036886D01*
X111151500Y-80025500D01*
X170689870Y-80025500D01*
X170757991Y-80045502D01*
G37*
G04 #@! TD.AperFunction*
M02*
