M48
; DRILL file {KiCad 9.0.1} date 2025-06-13T20:53:07+0200
; FORMAT={-:-/ absolute / metric / decimal}
; #@! TF.CreationDate,2025-06-13T20:53:07+02:00
; #@! TF.GenerationSoftware,Kicad,Pcbnew,9.0.1
; #@! TF.FileFunction,Plated,1,2,PTH
FMAT,2
METRIC
; #@! TA.AperFunction,Plated,PTH,ComponentDrill
T1C0.800
; #@! TA.AperFunction,Plated,PTH,ComponentDrill
T2C1.016
; #@! TA.AperFunction,Plated,PTH,ComponentDrill
T3C1.020
; #@! TA.AperFunction,Plated,PTH,ComponentDrill
T4C1.100
; #@! TA.AperFunction,Plated,PTH,ComponentDrill
T5C1.200
%
G90
G05
T1
X125.349Y-92.075
X125.349Y-96.901
X135.509Y-92.075
X135.509Y-96.901
T2
X125.292Y-83.123
X125.292Y-105.983
X127.832Y-83.123
X127.832Y-105.983
X130.372Y-83.123
X130.372Y-105.983
X132.912Y-83.123
X132.912Y-105.983
X135.452Y-83.123
X135.452Y-105.983
X137.992Y-83.123
X137.992Y-105.983
X140.532Y-83.123
X140.532Y-105.983
X143.072Y-83.123
X143.072Y-105.983
T3
X94.889Y-91.072
X94.889Y-93.612
X94.889Y-96.152
X94.889Y-98.692
X157.734Y-82.677
X157.734Y-85.217
X157.734Y-87.757
X157.734Y-90.297
X157.734Y-94.742
X157.734Y-97.282
X157.734Y-101.727
X157.734Y-104.267
X157.734Y-106.807
X166.497Y-94.742
X166.497Y-97.282
T4
X140.208Y-88.011
X140.208Y-100.711
X145.288Y-88.011
X145.288Y-100.711
T5
X100.604Y-84.699
X100.604Y-91.199
X100.614Y-98.796
X100.614Y-105.296
X105.104Y-84.699
X105.104Y-91.199
X105.114Y-98.796
X105.114Y-105.296
M30
