G04 #@! TF.GenerationSoftware,KiCad,Pcbnew,9.0.1*
G04 #@! TF.CreationDate,2025-06-13T20:53:16+02:00*
G04 #@! TF.ProjectId,Hue_Ambience_clone,4875655f-416d-4626-9965-6e63655f636c,rev?*
G04 #@! TF.SameCoordinates,Original*
G04 #@! TF.FileFunction,Soldermask,Bot*
G04 #@! TF.FilePolarity,Negative*
%FSLAX46Y46*%
G04 Gerber Fmt 4.6, Leading zero omitted, Abs format (unit mm)*
G04 Created by KiCad (PCBNEW 9.0.1) date 2025-06-13 20:53:16*
%MOMM*%
%LPD*%
G01*
G04 APERTURE LIST*
G04 APERTURE END LIST*
G36*
X157826389Y-105751109D02*
G01*
X157837996Y-105751109D01*
X157883356Y-105760131D01*
X157981595Y-105775691D01*
X158013190Y-105785957D01*
X158041992Y-105791686D01*
X158082636Y-105808521D01*
X158139879Y-105827121D01*
X158193512Y-105854448D01*
X158234152Y-105871282D01*
X158258564Y-105887593D01*
X158288167Y-105902677D01*
X158368640Y-105961144D01*
X158407091Y-105986836D01*
X158415297Y-105995042D01*
X158422812Y-106000502D01*
X158540497Y-106118187D01*
X158545956Y-106125701D01*
X158554164Y-106133909D01*
X158579858Y-106172364D01*
X158638322Y-106252832D01*
X158653404Y-106282432D01*
X158669718Y-106306848D01*
X158686553Y-106347492D01*
X158713878Y-106401120D01*
X158732475Y-106458356D01*
X158749314Y-106499008D01*
X158755044Y-106527814D01*
X158765308Y-106559404D01*
X158780866Y-106657635D01*
X158789891Y-106703004D01*
X158789891Y-106714611D01*
X158791344Y-106723785D01*
X158791344Y-106890214D01*
X158789891Y-106899387D01*
X158789891Y-106910996D01*
X158780865Y-106956368D01*
X158765308Y-107054595D01*
X158755044Y-107086182D01*
X158749314Y-107114992D01*
X158732473Y-107155647D01*
X158713878Y-107212879D01*
X158686556Y-107266501D01*
X158669718Y-107307152D01*
X158653401Y-107331570D01*
X158638322Y-107361167D01*
X158579867Y-107441623D01*
X158554164Y-107480091D01*
X158545954Y-107488300D01*
X158540497Y-107495812D01*
X158422812Y-107613497D01*
X158415300Y-107618954D01*
X158407091Y-107627164D01*
X158368623Y-107652867D01*
X158288167Y-107711322D01*
X158258570Y-107726401D01*
X158234152Y-107742718D01*
X158193501Y-107759556D01*
X158139879Y-107786878D01*
X158082647Y-107805473D01*
X158041992Y-107822314D01*
X158013182Y-107828044D01*
X157981595Y-107838308D01*
X157883366Y-107853866D01*
X157837996Y-107862891D01*
X157826389Y-107862891D01*
X157817215Y-107864344D01*
X157650785Y-107864344D01*
X157641611Y-107862891D01*
X157630004Y-107862891D01*
X157584635Y-107853866D01*
X157486404Y-107838308D01*
X157454814Y-107828044D01*
X157426008Y-107822314D01*
X157385356Y-107805475D01*
X157328120Y-107786878D01*
X157274492Y-107759553D01*
X157233848Y-107742718D01*
X157209432Y-107726404D01*
X157179832Y-107711322D01*
X157099364Y-107652858D01*
X157060909Y-107627164D01*
X157052701Y-107618956D01*
X157045187Y-107613497D01*
X156927502Y-107495812D01*
X156922042Y-107488297D01*
X156913836Y-107480091D01*
X156888144Y-107441640D01*
X156829677Y-107361167D01*
X156814593Y-107331564D01*
X156798282Y-107307152D01*
X156781448Y-107266512D01*
X156754121Y-107212879D01*
X156735521Y-107155636D01*
X156718686Y-107114992D01*
X156712957Y-107086190D01*
X156702691Y-107054595D01*
X156687132Y-106956358D01*
X156678109Y-106910996D01*
X156678109Y-106899388D01*
X156676656Y-106890214D01*
X156676656Y-106723785D01*
X156678109Y-106714610D01*
X156678109Y-106703004D01*
X156687131Y-106657645D01*
X156702691Y-106559404D01*
X156712957Y-106527807D01*
X156718686Y-106499008D01*
X156735520Y-106458367D01*
X156754121Y-106401120D01*
X156781450Y-106347482D01*
X156798282Y-106306848D01*
X156814591Y-106282438D01*
X156829677Y-106252832D01*
X156888152Y-106172347D01*
X156913836Y-106133909D01*
X156922039Y-106125705D01*
X156927502Y-106118187D01*
X157045187Y-106000502D01*
X157052705Y-105995039D01*
X157060909Y-105986836D01*
X157099347Y-105961152D01*
X157179832Y-105902677D01*
X157209438Y-105887591D01*
X157233848Y-105871282D01*
X157274482Y-105854450D01*
X157328120Y-105827121D01*
X157385367Y-105808520D01*
X157426008Y-105791686D01*
X157454807Y-105785957D01*
X157486404Y-105775691D01*
X157584645Y-105760131D01*
X157630004Y-105751109D01*
X157641611Y-105751109D01*
X157650785Y-105749656D01*
X157817215Y-105749656D01*
X157826389Y-105751109D01*
G37*
G36*
X125374554Y-105036604D02*
G01*
X125385215Y-105036604D01*
X125426866Y-105044889D01*
X125513917Y-105058676D01*
X125541919Y-105067774D01*
X125568062Y-105072975D01*
X125604957Y-105088257D01*
X125655785Y-105104773D01*
X125703400Y-105129034D01*
X125740299Y-105144318D01*
X125762464Y-105159128D01*
X125788694Y-105172493D01*
X125859991Y-105224293D01*
X125895309Y-105247892D01*
X125902847Y-105255430D01*
X125909371Y-105260170D01*
X126014855Y-105365654D01*
X126019594Y-105372177D01*
X126027134Y-105379717D01*
X126050735Y-105415039D01*
X126102532Y-105486331D01*
X126115895Y-105512558D01*
X126130708Y-105534727D01*
X126145994Y-105571630D01*
X126170252Y-105619240D01*
X126186765Y-105670060D01*
X126202051Y-105706964D01*
X126207252Y-105733111D01*
X126216349Y-105761108D01*
X126230135Y-105848150D01*
X126238422Y-105889811D01*
X126238422Y-105900472D01*
X126239684Y-105908440D01*
X126239684Y-106057609D01*
X126238422Y-106065576D01*
X126238422Y-106076239D01*
X126230134Y-106117902D01*
X126216349Y-106204941D01*
X126207252Y-106232935D01*
X126202051Y-106259086D01*
X126186763Y-106295993D01*
X126170252Y-106346809D01*
X126145996Y-106394413D01*
X126130708Y-106431323D01*
X126115893Y-106453495D01*
X126102532Y-106479718D01*
X126050743Y-106550998D01*
X126027134Y-106586333D01*
X126019592Y-106593874D01*
X126014855Y-106600395D01*
X125909371Y-106705879D01*
X125902850Y-106710616D01*
X125895309Y-106718158D01*
X125859974Y-106741767D01*
X125788694Y-106793556D01*
X125762471Y-106806917D01*
X125740299Y-106821732D01*
X125703389Y-106837020D01*
X125655785Y-106861276D01*
X125604969Y-106877787D01*
X125568062Y-106893075D01*
X125541911Y-106898276D01*
X125513917Y-106907373D01*
X125426876Y-106921158D01*
X125385215Y-106929446D01*
X125374554Y-106929446D01*
X125366586Y-106930708D01*
X125217416Y-106930708D01*
X125209448Y-106929446D01*
X125198787Y-106929446D01*
X125157126Y-106921159D01*
X125070084Y-106907373D01*
X125042087Y-106898276D01*
X125015940Y-106893075D01*
X124979036Y-106877789D01*
X124928216Y-106861276D01*
X124880606Y-106837018D01*
X124843703Y-106821732D01*
X124821534Y-106806919D01*
X124795307Y-106793556D01*
X124724015Y-106741759D01*
X124688693Y-106718158D01*
X124681153Y-106710618D01*
X124674630Y-106705879D01*
X124569146Y-106600395D01*
X124564406Y-106593871D01*
X124556868Y-106586333D01*
X124533269Y-106551015D01*
X124481469Y-106479718D01*
X124468104Y-106453488D01*
X124453294Y-106431323D01*
X124438010Y-106394424D01*
X124413749Y-106346809D01*
X124397233Y-106295981D01*
X124381951Y-106259086D01*
X124376750Y-106232943D01*
X124367652Y-106204941D01*
X124353865Y-106117892D01*
X124345580Y-106076239D01*
X124345580Y-106065577D01*
X124344318Y-106057609D01*
X124344318Y-105908440D01*
X124345580Y-105900471D01*
X124345580Y-105889811D01*
X124353864Y-105848161D01*
X124367652Y-105761108D01*
X124376751Y-105733103D01*
X124381951Y-105706964D01*
X124397232Y-105670071D01*
X124413749Y-105619240D01*
X124438012Y-105571620D01*
X124453294Y-105534727D01*
X124468102Y-105512564D01*
X124481469Y-105486331D01*
X124533278Y-105415021D01*
X124556868Y-105379717D01*
X124564403Y-105372181D01*
X124569146Y-105365654D01*
X124674630Y-105260170D01*
X124681157Y-105255427D01*
X124688693Y-105247892D01*
X124723997Y-105224302D01*
X124795307Y-105172493D01*
X124821540Y-105159126D01*
X124843703Y-105144318D01*
X124880596Y-105129036D01*
X124928216Y-105104773D01*
X124979047Y-105088256D01*
X125015940Y-105072975D01*
X125042079Y-105067775D01*
X125070084Y-105058676D01*
X125157137Y-105044888D01*
X125198787Y-105036604D01*
X125209448Y-105036604D01*
X125217416Y-105035342D01*
X125366586Y-105035342D01*
X125374554Y-105036604D01*
G37*
G36*
X127914554Y-105036604D02*
G01*
X127925215Y-105036604D01*
X127966866Y-105044889D01*
X128053917Y-105058676D01*
X128081919Y-105067774D01*
X128108062Y-105072975D01*
X128144957Y-105088257D01*
X128195785Y-105104773D01*
X128243400Y-105129034D01*
X128280299Y-105144318D01*
X128302464Y-105159128D01*
X128328694Y-105172493D01*
X128399991Y-105224293D01*
X128435309Y-105247892D01*
X128442847Y-105255430D01*
X128449371Y-105260170D01*
X128554855Y-105365654D01*
X128559594Y-105372177D01*
X128567134Y-105379717D01*
X128590735Y-105415039D01*
X128642532Y-105486331D01*
X128655895Y-105512558D01*
X128670708Y-105534727D01*
X128685994Y-105571630D01*
X128710252Y-105619240D01*
X128726765Y-105670060D01*
X128742051Y-105706964D01*
X128747252Y-105733111D01*
X128756349Y-105761108D01*
X128770135Y-105848150D01*
X128778422Y-105889811D01*
X128778422Y-105900472D01*
X128779684Y-105908440D01*
X128779684Y-106057609D01*
X128778422Y-106065576D01*
X128778422Y-106076239D01*
X128770134Y-106117902D01*
X128756349Y-106204941D01*
X128747252Y-106232935D01*
X128742051Y-106259086D01*
X128726763Y-106295993D01*
X128710252Y-106346809D01*
X128685996Y-106394413D01*
X128670708Y-106431323D01*
X128655893Y-106453495D01*
X128642532Y-106479718D01*
X128590743Y-106550998D01*
X128567134Y-106586333D01*
X128559592Y-106593874D01*
X128554855Y-106600395D01*
X128449371Y-106705879D01*
X128442850Y-106710616D01*
X128435309Y-106718158D01*
X128399974Y-106741767D01*
X128328694Y-106793556D01*
X128302471Y-106806917D01*
X128280299Y-106821732D01*
X128243389Y-106837020D01*
X128195785Y-106861276D01*
X128144969Y-106877787D01*
X128108062Y-106893075D01*
X128081911Y-106898276D01*
X128053917Y-106907373D01*
X127966876Y-106921158D01*
X127925215Y-106929446D01*
X127914554Y-106929446D01*
X127906586Y-106930708D01*
X127757416Y-106930708D01*
X127749448Y-106929446D01*
X127738787Y-106929446D01*
X127697126Y-106921159D01*
X127610084Y-106907373D01*
X127582087Y-106898276D01*
X127555940Y-106893075D01*
X127519036Y-106877789D01*
X127468216Y-106861276D01*
X127420606Y-106837018D01*
X127383703Y-106821732D01*
X127361534Y-106806919D01*
X127335307Y-106793556D01*
X127264015Y-106741759D01*
X127228693Y-106718158D01*
X127221153Y-106710618D01*
X127214630Y-106705879D01*
X127109146Y-106600395D01*
X127104406Y-106593871D01*
X127096868Y-106586333D01*
X127073269Y-106551015D01*
X127021469Y-106479718D01*
X127008104Y-106453488D01*
X126993294Y-106431323D01*
X126978010Y-106394424D01*
X126953749Y-106346809D01*
X126937233Y-106295981D01*
X126921951Y-106259086D01*
X126916750Y-106232943D01*
X126907652Y-106204941D01*
X126893865Y-106117892D01*
X126885580Y-106076239D01*
X126885580Y-106065577D01*
X126884318Y-106057609D01*
X126884318Y-105908440D01*
X126885580Y-105900471D01*
X126885580Y-105889811D01*
X126893864Y-105848161D01*
X126907652Y-105761108D01*
X126916751Y-105733103D01*
X126921951Y-105706964D01*
X126937232Y-105670071D01*
X126953749Y-105619240D01*
X126978012Y-105571620D01*
X126993294Y-105534727D01*
X127008102Y-105512564D01*
X127021469Y-105486331D01*
X127073278Y-105415021D01*
X127096868Y-105379717D01*
X127104403Y-105372181D01*
X127109146Y-105365654D01*
X127214630Y-105260170D01*
X127221157Y-105255427D01*
X127228693Y-105247892D01*
X127263997Y-105224302D01*
X127335307Y-105172493D01*
X127361540Y-105159126D01*
X127383703Y-105144318D01*
X127420596Y-105129036D01*
X127468216Y-105104773D01*
X127519047Y-105088256D01*
X127555940Y-105072975D01*
X127582079Y-105067775D01*
X127610084Y-105058676D01*
X127697137Y-105044888D01*
X127738787Y-105036604D01*
X127749448Y-105036604D01*
X127757416Y-105035342D01*
X127906586Y-105035342D01*
X127914554Y-105036604D01*
G37*
G36*
X130454554Y-105036604D02*
G01*
X130465215Y-105036604D01*
X130506866Y-105044889D01*
X130593917Y-105058676D01*
X130621919Y-105067774D01*
X130648062Y-105072975D01*
X130684957Y-105088257D01*
X130735785Y-105104773D01*
X130783400Y-105129034D01*
X130820299Y-105144318D01*
X130842464Y-105159128D01*
X130868694Y-105172493D01*
X130939991Y-105224293D01*
X130975309Y-105247892D01*
X130982847Y-105255430D01*
X130989371Y-105260170D01*
X131094855Y-105365654D01*
X131099594Y-105372177D01*
X131107134Y-105379717D01*
X131130735Y-105415039D01*
X131182532Y-105486331D01*
X131195895Y-105512558D01*
X131210708Y-105534727D01*
X131225994Y-105571630D01*
X131250252Y-105619240D01*
X131266765Y-105670060D01*
X131282051Y-105706964D01*
X131287252Y-105733111D01*
X131296349Y-105761108D01*
X131310135Y-105848150D01*
X131318422Y-105889811D01*
X131318422Y-105900472D01*
X131319684Y-105908440D01*
X131319684Y-106057609D01*
X131318422Y-106065576D01*
X131318422Y-106076239D01*
X131310134Y-106117902D01*
X131296349Y-106204941D01*
X131287252Y-106232935D01*
X131282051Y-106259086D01*
X131266763Y-106295993D01*
X131250252Y-106346809D01*
X131225996Y-106394413D01*
X131210708Y-106431323D01*
X131195893Y-106453495D01*
X131182532Y-106479718D01*
X131130743Y-106550998D01*
X131107134Y-106586333D01*
X131099592Y-106593874D01*
X131094855Y-106600395D01*
X130989371Y-106705879D01*
X130982850Y-106710616D01*
X130975309Y-106718158D01*
X130939974Y-106741767D01*
X130868694Y-106793556D01*
X130842471Y-106806917D01*
X130820299Y-106821732D01*
X130783389Y-106837020D01*
X130735785Y-106861276D01*
X130684969Y-106877787D01*
X130648062Y-106893075D01*
X130621911Y-106898276D01*
X130593917Y-106907373D01*
X130506876Y-106921158D01*
X130465215Y-106929446D01*
X130454554Y-106929446D01*
X130446586Y-106930708D01*
X130297416Y-106930708D01*
X130289448Y-106929446D01*
X130278787Y-106929446D01*
X130237126Y-106921159D01*
X130150084Y-106907373D01*
X130122087Y-106898276D01*
X130095940Y-106893075D01*
X130059036Y-106877789D01*
X130008216Y-106861276D01*
X129960606Y-106837018D01*
X129923703Y-106821732D01*
X129901534Y-106806919D01*
X129875307Y-106793556D01*
X129804015Y-106741759D01*
X129768693Y-106718158D01*
X129761153Y-106710618D01*
X129754630Y-106705879D01*
X129649146Y-106600395D01*
X129644406Y-106593871D01*
X129636868Y-106586333D01*
X129613269Y-106551015D01*
X129561469Y-106479718D01*
X129548104Y-106453488D01*
X129533294Y-106431323D01*
X129518010Y-106394424D01*
X129493749Y-106346809D01*
X129477233Y-106295981D01*
X129461951Y-106259086D01*
X129456750Y-106232943D01*
X129447652Y-106204941D01*
X129433865Y-106117892D01*
X129425580Y-106076239D01*
X129425580Y-106065577D01*
X129424318Y-106057609D01*
X129424318Y-105908440D01*
X129425580Y-105900471D01*
X129425580Y-105889811D01*
X129433864Y-105848161D01*
X129447652Y-105761108D01*
X129456751Y-105733103D01*
X129461951Y-105706964D01*
X129477232Y-105670071D01*
X129493749Y-105619240D01*
X129518012Y-105571620D01*
X129533294Y-105534727D01*
X129548102Y-105512564D01*
X129561469Y-105486331D01*
X129613278Y-105415021D01*
X129636868Y-105379717D01*
X129644403Y-105372181D01*
X129649146Y-105365654D01*
X129754630Y-105260170D01*
X129761157Y-105255427D01*
X129768693Y-105247892D01*
X129803997Y-105224302D01*
X129875307Y-105172493D01*
X129901540Y-105159126D01*
X129923703Y-105144318D01*
X129960596Y-105129036D01*
X130008216Y-105104773D01*
X130059047Y-105088256D01*
X130095940Y-105072975D01*
X130122079Y-105067775D01*
X130150084Y-105058676D01*
X130237137Y-105044888D01*
X130278787Y-105036604D01*
X130289448Y-105036604D01*
X130297416Y-105035342D01*
X130446586Y-105035342D01*
X130454554Y-105036604D01*
G37*
G36*
X132994554Y-105036604D02*
G01*
X133005215Y-105036604D01*
X133046866Y-105044889D01*
X133133917Y-105058676D01*
X133161919Y-105067774D01*
X133188062Y-105072975D01*
X133224957Y-105088257D01*
X133275785Y-105104773D01*
X133323400Y-105129034D01*
X133360299Y-105144318D01*
X133382464Y-105159128D01*
X133408694Y-105172493D01*
X133479991Y-105224293D01*
X133515309Y-105247892D01*
X133522847Y-105255430D01*
X133529371Y-105260170D01*
X133634855Y-105365654D01*
X133639594Y-105372177D01*
X133647134Y-105379717D01*
X133670735Y-105415039D01*
X133722532Y-105486331D01*
X133735895Y-105512558D01*
X133750708Y-105534727D01*
X133765994Y-105571630D01*
X133790252Y-105619240D01*
X133806765Y-105670060D01*
X133822051Y-105706964D01*
X133827252Y-105733111D01*
X133836349Y-105761108D01*
X133850135Y-105848150D01*
X133858422Y-105889811D01*
X133858422Y-105900472D01*
X133859684Y-105908440D01*
X133859684Y-106057609D01*
X133858422Y-106065576D01*
X133858422Y-106076239D01*
X133850134Y-106117902D01*
X133836349Y-106204941D01*
X133827252Y-106232935D01*
X133822051Y-106259086D01*
X133806763Y-106295993D01*
X133790252Y-106346809D01*
X133765996Y-106394413D01*
X133750708Y-106431323D01*
X133735893Y-106453495D01*
X133722532Y-106479718D01*
X133670743Y-106550998D01*
X133647134Y-106586333D01*
X133639592Y-106593874D01*
X133634855Y-106600395D01*
X133529371Y-106705879D01*
X133522850Y-106710616D01*
X133515309Y-106718158D01*
X133479974Y-106741767D01*
X133408694Y-106793556D01*
X133382471Y-106806917D01*
X133360299Y-106821732D01*
X133323389Y-106837020D01*
X133275785Y-106861276D01*
X133224969Y-106877787D01*
X133188062Y-106893075D01*
X133161911Y-106898276D01*
X133133917Y-106907373D01*
X133046876Y-106921158D01*
X133005215Y-106929446D01*
X132994554Y-106929446D01*
X132986586Y-106930708D01*
X132837416Y-106930708D01*
X132829448Y-106929446D01*
X132818787Y-106929446D01*
X132777126Y-106921159D01*
X132690084Y-106907373D01*
X132662087Y-106898276D01*
X132635940Y-106893075D01*
X132599036Y-106877789D01*
X132548216Y-106861276D01*
X132500606Y-106837018D01*
X132463703Y-106821732D01*
X132441534Y-106806919D01*
X132415307Y-106793556D01*
X132344015Y-106741759D01*
X132308693Y-106718158D01*
X132301153Y-106710618D01*
X132294630Y-106705879D01*
X132189146Y-106600395D01*
X132184406Y-106593871D01*
X132176868Y-106586333D01*
X132153269Y-106551015D01*
X132101469Y-106479718D01*
X132088104Y-106453488D01*
X132073294Y-106431323D01*
X132058010Y-106394424D01*
X132033749Y-106346809D01*
X132017233Y-106295981D01*
X132001951Y-106259086D01*
X131996750Y-106232943D01*
X131987652Y-106204941D01*
X131973865Y-106117892D01*
X131965580Y-106076239D01*
X131965580Y-106065577D01*
X131964318Y-106057609D01*
X131964318Y-105908440D01*
X131965580Y-105900471D01*
X131965580Y-105889811D01*
X131973864Y-105848161D01*
X131987652Y-105761108D01*
X131996751Y-105733103D01*
X132001951Y-105706964D01*
X132017232Y-105670071D01*
X132033749Y-105619240D01*
X132058012Y-105571620D01*
X132073294Y-105534727D01*
X132088102Y-105512564D01*
X132101469Y-105486331D01*
X132153278Y-105415021D01*
X132176868Y-105379717D01*
X132184403Y-105372181D01*
X132189146Y-105365654D01*
X132294630Y-105260170D01*
X132301157Y-105255427D01*
X132308693Y-105247892D01*
X132343997Y-105224302D01*
X132415307Y-105172493D01*
X132441540Y-105159126D01*
X132463703Y-105144318D01*
X132500596Y-105129036D01*
X132548216Y-105104773D01*
X132599047Y-105088256D01*
X132635940Y-105072975D01*
X132662079Y-105067775D01*
X132690084Y-105058676D01*
X132777137Y-105044888D01*
X132818787Y-105036604D01*
X132829448Y-105036604D01*
X132837416Y-105035342D01*
X132986586Y-105035342D01*
X132994554Y-105036604D01*
G37*
G36*
X135534554Y-105036604D02*
G01*
X135545215Y-105036604D01*
X135586866Y-105044889D01*
X135673917Y-105058676D01*
X135701919Y-105067774D01*
X135728062Y-105072975D01*
X135764957Y-105088257D01*
X135815785Y-105104773D01*
X135863400Y-105129034D01*
X135900299Y-105144318D01*
X135922464Y-105159128D01*
X135948694Y-105172493D01*
X136019991Y-105224293D01*
X136055309Y-105247892D01*
X136062847Y-105255430D01*
X136069371Y-105260170D01*
X136174855Y-105365654D01*
X136179594Y-105372177D01*
X136187134Y-105379717D01*
X136210735Y-105415039D01*
X136262532Y-105486331D01*
X136275895Y-105512558D01*
X136290708Y-105534727D01*
X136305994Y-105571630D01*
X136330252Y-105619240D01*
X136346765Y-105670060D01*
X136362051Y-105706964D01*
X136367252Y-105733111D01*
X136376349Y-105761108D01*
X136390135Y-105848150D01*
X136398422Y-105889811D01*
X136398422Y-105900472D01*
X136399684Y-105908440D01*
X136399684Y-106057609D01*
X136398422Y-106065576D01*
X136398422Y-106076239D01*
X136390134Y-106117902D01*
X136376349Y-106204941D01*
X136367252Y-106232935D01*
X136362051Y-106259086D01*
X136346763Y-106295993D01*
X136330252Y-106346809D01*
X136305996Y-106394413D01*
X136290708Y-106431323D01*
X136275893Y-106453495D01*
X136262532Y-106479718D01*
X136210743Y-106550998D01*
X136187134Y-106586333D01*
X136179592Y-106593874D01*
X136174855Y-106600395D01*
X136069371Y-106705879D01*
X136062850Y-106710616D01*
X136055309Y-106718158D01*
X136019974Y-106741767D01*
X135948694Y-106793556D01*
X135922471Y-106806917D01*
X135900299Y-106821732D01*
X135863389Y-106837020D01*
X135815785Y-106861276D01*
X135764969Y-106877787D01*
X135728062Y-106893075D01*
X135701911Y-106898276D01*
X135673917Y-106907373D01*
X135586876Y-106921158D01*
X135545215Y-106929446D01*
X135534554Y-106929446D01*
X135526586Y-106930708D01*
X135377416Y-106930708D01*
X135369448Y-106929446D01*
X135358787Y-106929446D01*
X135317126Y-106921159D01*
X135230084Y-106907373D01*
X135202087Y-106898276D01*
X135175940Y-106893075D01*
X135139036Y-106877789D01*
X135088216Y-106861276D01*
X135040606Y-106837018D01*
X135003703Y-106821732D01*
X134981534Y-106806919D01*
X134955307Y-106793556D01*
X134884015Y-106741759D01*
X134848693Y-106718158D01*
X134841153Y-106710618D01*
X134834630Y-106705879D01*
X134729146Y-106600395D01*
X134724406Y-106593871D01*
X134716868Y-106586333D01*
X134693269Y-106551015D01*
X134641469Y-106479718D01*
X134628104Y-106453488D01*
X134613294Y-106431323D01*
X134598010Y-106394424D01*
X134573749Y-106346809D01*
X134557233Y-106295981D01*
X134541951Y-106259086D01*
X134536750Y-106232943D01*
X134527652Y-106204941D01*
X134513865Y-106117892D01*
X134505580Y-106076239D01*
X134505580Y-106065577D01*
X134504318Y-106057609D01*
X134504318Y-105908440D01*
X134505580Y-105900471D01*
X134505580Y-105889811D01*
X134513864Y-105848161D01*
X134527652Y-105761108D01*
X134536751Y-105733103D01*
X134541951Y-105706964D01*
X134557232Y-105670071D01*
X134573749Y-105619240D01*
X134598012Y-105571620D01*
X134613294Y-105534727D01*
X134628102Y-105512564D01*
X134641469Y-105486331D01*
X134693278Y-105415021D01*
X134716868Y-105379717D01*
X134724403Y-105372181D01*
X134729146Y-105365654D01*
X134834630Y-105260170D01*
X134841157Y-105255427D01*
X134848693Y-105247892D01*
X134883997Y-105224302D01*
X134955307Y-105172493D01*
X134981540Y-105159126D01*
X135003703Y-105144318D01*
X135040596Y-105129036D01*
X135088216Y-105104773D01*
X135139047Y-105088256D01*
X135175940Y-105072975D01*
X135202079Y-105067775D01*
X135230084Y-105058676D01*
X135317137Y-105044888D01*
X135358787Y-105036604D01*
X135369448Y-105036604D01*
X135377416Y-105035342D01*
X135526586Y-105035342D01*
X135534554Y-105036604D01*
G37*
G36*
X138074554Y-105036604D02*
G01*
X138085215Y-105036604D01*
X138126866Y-105044889D01*
X138213917Y-105058676D01*
X138241919Y-105067774D01*
X138268062Y-105072975D01*
X138304957Y-105088257D01*
X138355785Y-105104773D01*
X138403400Y-105129034D01*
X138440299Y-105144318D01*
X138462464Y-105159128D01*
X138488694Y-105172493D01*
X138559991Y-105224293D01*
X138595309Y-105247892D01*
X138602847Y-105255430D01*
X138609371Y-105260170D01*
X138714855Y-105365654D01*
X138719594Y-105372177D01*
X138727134Y-105379717D01*
X138750735Y-105415039D01*
X138802532Y-105486331D01*
X138815895Y-105512558D01*
X138830708Y-105534727D01*
X138845994Y-105571630D01*
X138870252Y-105619240D01*
X138886765Y-105670060D01*
X138902051Y-105706964D01*
X138907252Y-105733111D01*
X138916349Y-105761108D01*
X138930135Y-105848150D01*
X138938422Y-105889811D01*
X138938422Y-105900472D01*
X138939684Y-105908440D01*
X138939684Y-106057609D01*
X138938422Y-106065576D01*
X138938422Y-106076239D01*
X138930134Y-106117902D01*
X138916349Y-106204941D01*
X138907252Y-106232935D01*
X138902051Y-106259086D01*
X138886763Y-106295993D01*
X138870252Y-106346809D01*
X138845996Y-106394413D01*
X138830708Y-106431323D01*
X138815893Y-106453495D01*
X138802532Y-106479718D01*
X138750743Y-106550998D01*
X138727134Y-106586333D01*
X138719592Y-106593874D01*
X138714855Y-106600395D01*
X138609371Y-106705879D01*
X138602850Y-106710616D01*
X138595309Y-106718158D01*
X138559974Y-106741767D01*
X138488694Y-106793556D01*
X138462471Y-106806917D01*
X138440299Y-106821732D01*
X138403389Y-106837020D01*
X138355785Y-106861276D01*
X138304969Y-106877787D01*
X138268062Y-106893075D01*
X138241911Y-106898276D01*
X138213917Y-106907373D01*
X138126876Y-106921158D01*
X138085215Y-106929446D01*
X138074554Y-106929446D01*
X138066586Y-106930708D01*
X137917416Y-106930708D01*
X137909448Y-106929446D01*
X137898787Y-106929446D01*
X137857126Y-106921159D01*
X137770084Y-106907373D01*
X137742087Y-106898276D01*
X137715940Y-106893075D01*
X137679036Y-106877789D01*
X137628216Y-106861276D01*
X137580606Y-106837018D01*
X137543703Y-106821732D01*
X137521534Y-106806919D01*
X137495307Y-106793556D01*
X137424015Y-106741759D01*
X137388693Y-106718158D01*
X137381153Y-106710618D01*
X137374630Y-106705879D01*
X137269146Y-106600395D01*
X137264406Y-106593871D01*
X137256868Y-106586333D01*
X137233269Y-106551015D01*
X137181469Y-106479718D01*
X137168104Y-106453488D01*
X137153294Y-106431323D01*
X137138010Y-106394424D01*
X137113749Y-106346809D01*
X137097233Y-106295981D01*
X137081951Y-106259086D01*
X137076750Y-106232943D01*
X137067652Y-106204941D01*
X137053865Y-106117892D01*
X137045580Y-106076239D01*
X137045580Y-106065577D01*
X137044318Y-106057609D01*
X137044318Y-105908440D01*
X137045580Y-105900471D01*
X137045580Y-105889811D01*
X137053864Y-105848161D01*
X137067652Y-105761108D01*
X137076751Y-105733103D01*
X137081951Y-105706964D01*
X137097232Y-105670071D01*
X137113749Y-105619240D01*
X137138012Y-105571620D01*
X137153294Y-105534727D01*
X137168102Y-105512564D01*
X137181469Y-105486331D01*
X137233278Y-105415021D01*
X137256868Y-105379717D01*
X137264403Y-105372181D01*
X137269146Y-105365654D01*
X137374630Y-105260170D01*
X137381157Y-105255427D01*
X137388693Y-105247892D01*
X137423997Y-105224302D01*
X137495307Y-105172493D01*
X137521540Y-105159126D01*
X137543703Y-105144318D01*
X137580596Y-105129036D01*
X137628216Y-105104773D01*
X137679047Y-105088256D01*
X137715940Y-105072975D01*
X137742079Y-105067775D01*
X137770084Y-105058676D01*
X137857137Y-105044888D01*
X137898787Y-105036604D01*
X137909448Y-105036604D01*
X137917416Y-105035342D01*
X138066586Y-105035342D01*
X138074554Y-105036604D01*
G37*
G36*
X140614554Y-105036604D02*
G01*
X140625215Y-105036604D01*
X140666866Y-105044889D01*
X140753917Y-105058676D01*
X140781919Y-105067774D01*
X140808062Y-105072975D01*
X140844957Y-105088257D01*
X140895785Y-105104773D01*
X140943400Y-105129034D01*
X140980299Y-105144318D01*
X141002464Y-105159128D01*
X141028694Y-105172493D01*
X141099991Y-105224293D01*
X141135309Y-105247892D01*
X141142847Y-105255430D01*
X141149371Y-105260170D01*
X141254855Y-105365654D01*
X141259594Y-105372177D01*
X141267134Y-105379717D01*
X141290735Y-105415039D01*
X141342532Y-105486331D01*
X141355895Y-105512558D01*
X141370708Y-105534727D01*
X141385994Y-105571630D01*
X141410252Y-105619240D01*
X141426765Y-105670060D01*
X141442051Y-105706964D01*
X141447252Y-105733111D01*
X141456349Y-105761108D01*
X141470135Y-105848150D01*
X141478422Y-105889811D01*
X141478422Y-105900472D01*
X141479684Y-105908440D01*
X141479684Y-106057609D01*
X141478422Y-106065576D01*
X141478422Y-106076239D01*
X141470134Y-106117902D01*
X141456349Y-106204941D01*
X141447252Y-106232935D01*
X141442051Y-106259086D01*
X141426763Y-106295993D01*
X141410252Y-106346809D01*
X141385996Y-106394413D01*
X141370708Y-106431323D01*
X141355893Y-106453495D01*
X141342532Y-106479718D01*
X141290743Y-106550998D01*
X141267134Y-106586333D01*
X141259592Y-106593874D01*
X141254855Y-106600395D01*
X141149371Y-106705879D01*
X141142850Y-106710616D01*
X141135309Y-106718158D01*
X141099974Y-106741767D01*
X141028694Y-106793556D01*
X141002471Y-106806917D01*
X140980299Y-106821732D01*
X140943389Y-106837020D01*
X140895785Y-106861276D01*
X140844969Y-106877787D01*
X140808062Y-106893075D01*
X140781911Y-106898276D01*
X140753917Y-106907373D01*
X140666876Y-106921158D01*
X140625215Y-106929446D01*
X140614554Y-106929446D01*
X140606586Y-106930708D01*
X140457416Y-106930708D01*
X140449448Y-106929446D01*
X140438787Y-106929446D01*
X140397126Y-106921159D01*
X140310084Y-106907373D01*
X140282087Y-106898276D01*
X140255940Y-106893075D01*
X140219036Y-106877789D01*
X140168216Y-106861276D01*
X140120606Y-106837018D01*
X140083703Y-106821732D01*
X140061534Y-106806919D01*
X140035307Y-106793556D01*
X139964015Y-106741759D01*
X139928693Y-106718158D01*
X139921153Y-106710618D01*
X139914630Y-106705879D01*
X139809146Y-106600395D01*
X139804406Y-106593871D01*
X139796868Y-106586333D01*
X139773269Y-106551015D01*
X139721469Y-106479718D01*
X139708104Y-106453488D01*
X139693294Y-106431323D01*
X139678010Y-106394424D01*
X139653749Y-106346809D01*
X139637233Y-106295981D01*
X139621951Y-106259086D01*
X139616750Y-106232943D01*
X139607652Y-106204941D01*
X139593865Y-106117892D01*
X139585580Y-106076239D01*
X139585580Y-106065577D01*
X139584318Y-106057609D01*
X139584318Y-105908440D01*
X139585580Y-105900471D01*
X139585580Y-105889811D01*
X139593864Y-105848161D01*
X139607652Y-105761108D01*
X139616751Y-105733103D01*
X139621951Y-105706964D01*
X139637232Y-105670071D01*
X139653749Y-105619240D01*
X139678012Y-105571620D01*
X139693294Y-105534727D01*
X139708102Y-105512564D01*
X139721469Y-105486331D01*
X139773278Y-105415021D01*
X139796868Y-105379717D01*
X139804403Y-105372181D01*
X139809146Y-105365654D01*
X139914630Y-105260170D01*
X139921157Y-105255427D01*
X139928693Y-105247892D01*
X139963997Y-105224302D01*
X140035307Y-105172493D01*
X140061540Y-105159126D01*
X140083703Y-105144318D01*
X140120596Y-105129036D01*
X140168216Y-105104773D01*
X140219047Y-105088256D01*
X140255940Y-105072975D01*
X140282079Y-105067775D01*
X140310084Y-105058676D01*
X140397137Y-105044888D01*
X140438787Y-105036604D01*
X140449448Y-105036604D01*
X140457416Y-105035342D01*
X140606586Y-105035342D01*
X140614554Y-105036604D01*
G37*
G36*
X143154554Y-105036604D02*
G01*
X143165215Y-105036604D01*
X143206866Y-105044889D01*
X143293917Y-105058676D01*
X143321919Y-105067774D01*
X143348062Y-105072975D01*
X143384957Y-105088257D01*
X143435785Y-105104773D01*
X143483400Y-105129034D01*
X143520299Y-105144318D01*
X143542464Y-105159128D01*
X143568694Y-105172493D01*
X143639991Y-105224293D01*
X143675309Y-105247892D01*
X143682847Y-105255430D01*
X143689371Y-105260170D01*
X143794855Y-105365654D01*
X143799594Y-105372177D01*
X143807134Y-105379717D01*
X143830735Y-105415039D01*
X143882532Y-105486331D01*
X143895895Y-105512558D01*
X143910708Y-105534727D01*
X143925994Y-105571630D01*
X143950252Y-105619240D01*
X143966765Y-105670060D01*
X143982051Y-105706964D01*
X143987252Y-105733111D01*
X143996349Y-105761108D01*
X144010135Y-105848150D01*
X144018422Y-105889811D01*
X144018422Y-105900472D01*
X144019684Y-105908440D01*
X144019684Y-106057609D01*
X144018422Y-106065576D01*
X144018422Y-106076239D01*
X144010134Y-106117902D01*
X143996349Y-106204941D01*
X143987252Y-106232935D01*
X143982051Y-106259086D01*
X143966763Y-106295993D01*
X143950252Y-106346809D01*
X143925996Y-106394413D01*
X143910708Y-106431323D01*
X143895893Y-106453495D01*
X143882532Y-106479718D01*
X143830743Y-106550998D01*
X143807134Y-106586333D01*
X143799592Y-106593874D01*
X143794855Y-106600395D01*
X143689371Y-106705879D01*
X143682850Y-106710616D01*
X143675309Y-106718158D01*
X143639974Y-106741767D01*
X143568694Y-106793556D01*
X143542471Y-106806917D01*
X143520299Y-106821732D01*
X143483389Y-106837020D01*
X143435785Y-106861276D01*
X143384969Y-106877787D01*
X143348062Y-106893075D01*
X143321911Y-106898276D01*
X143293917Y-106907373D01*
X143206876Y-106921158D01*
X143165215Y-106929446D01*
X143154554Y-106929446D01*
X143146586Y-106930708D01*
X142997416Y-106930708D01*
X142989448Y-106929446D01*
X142978787Y-106929446D01*
X142937126Y-106921159D01*
X142850084Y-106907373D01*
X142822087Y-106898276D01*
X142795940Y-106893075D01*
X142759036Y-106877789D01*
X142708216Y-106861276D01*
X142660606Y-106837018D01*
X142623703Y-106821732D01*
X142601534Y-106806919D01*
X142575307Y-106793556D01*
X142504015Y-106741759D01*
X142468693Y-106718158D01*
X142461153Y-106710618D01*
X142454630Y-106705879D01*
X142349146Y-106600395D01*
X142344406Y-106593871D01*
X142336868Y-106586333D01*
X142313269Y-106551015D01*
X142261469Y-106479718D01*
X142248104Y-106453488D01*
X142233294Y-106431323D01*
X142218010Y-106394424D01*
X142193749Y-106346809D01*
X142177233Y-106295981D01*
X142161951Y-106259086D01*
X142156750Y-106232943D01*
X142147652Y-106204941D01*
X142133865Y-106117892D01*
X142125580Y-106076239D01*
X142125580Y-106065577D01*
X142124318Y-106057609D01*
X142124318Y-105908440D01*
X142125580Y-105900471D01*
X142125580Y-105889811D01*
X142133864Y-105848161D01*
X142147652Y-105761108D01*
X142156751Y-105733103D01*
X142161951Y-105706964D01*
X142177232Y-105670071D01*
X142193749Y-105619240D01*
X142218012Y-105571620D01*
X142233294Y-105534727D01*
X142248102Y-105512564D01*
X142261469Y-105486331D01*
X142313278Y-105415021D01*
X142336868Y-105379717D01*
X142344403Y-105372181D01*
X142349146Y-105365654D01*
X142454630Y-105260170D01*
X142461157Y-105255427D01*
X142468693Y-105247892D01*
X142503997Y-105224302D01*
X142575307Y-105172493D01*
X142601540Y-105159126D01*
X142623703Y-105144318D01*
X142660596Y-105129036D01*
X142708216Y-105104773D01*
X142759047Y-105088256D01*
X142795940Y-105072975D01*
X142822079Y-105067775D01*
X142850084Y-105058676D01*
X142937137Y-105044888D01*
X142978787Y-105036604D01*
X142989448Y-105036604D01*
X142997416Y-105035342D01*
X143146586Y-105035342D01*
X143154554Y-105036604D01*
G37*
G36*
X101733918Y-104148582D02*
G01*
X101750463Y-104159638D01*
X101761519Y-104176183D01*
X101765401Y-104195700D01*
X101765401Y-106395700D01*
X101761519Y-106415217D01*
X101750463Y-106431762D01*
X101733918Y-106442818D01*
X101714401Y-106446700D01*
X99514401Y-106446700D01*
X99494884Y-106442818D01*
X99478339Y-106431762D01*
X99467283Y-106415217D01*
X99463401Y-106395700D01*
X99463401Y-104195700D01*
X99467283Y-104176183D01*
X99478339Y-104159638D01*
X99494884Y-104148582D01*
X99514401Y-104144700D01*
X101714401Y-104144700D01*
X101733918Y-104148582D01*
G37*
G36*
X105383097Y-104176502D02*
G01*
X105554870Y-104232315D01*
X105715797Y-104314311D01*
X105861916Y-104420473D01*
X105989628Y-104548185D01*
X106095790Y-104694304D01*
X106177786Y-104855231D01*
X106233599Y-105027004D01*
X106261853Y-105205394D01*
X106261853Y-105386006D01*
X106233599Y-105564396D01*
X106177786Y-105736169D01*
X106095790Y-105897096D01*
X105989628Y-106043215D01*
X105861916Y-106170927D01*
X105715797Y-106277089D01*
X105554870Y-106359085D01*
X105383097Y-106414898D01*
X105204707Y-106443152D01*
X105024095Y-106443152D01*
X104845705Y-106414898D01*
X104673932Y-106359085D01*
X104513005Y-106277089D01*
X104366886Y-106170927D01*
X104239174Y-106043215D01*
X104133012Y-105897096D01*
X104051016Y-105736169D01*
X103995203Y-105564396D01*
X103966949Y-105386006D01*
X103966949Y-105205394D01*
X103995203Y-105027004D01*
X104051016Y-104855231D01*
X104133012Y-104694304D01*
X104239174Y-104548185D01*
X104366886Y-104420473D01*
X104513005Y-104314311D01*
X104673932Y-104232315D01*
X104845705Y-104176502D01*
X105024095Y-104148248D01*
X105204707Y-104148248D01*
X105383097Y-104176502D01*
G37*
G36*
X109365188Y-103971912D02*
G01*
X109433237Y-104011201D01*
X109488799Y-104066763D01*
X109528088Y-104134812D01*
X109548425Y-104210712D01*
X109548425Y-104289288D01*
X109528088Y-104365188D01*
X109488799Y-104433237D01*
X109433237Y-104488799D01*
X109365188Y-104528088D01*
X109361192Y-104529158D01*
X109320191Y-104552831D01*
X109320191Y-104697169D01*
X109361194Y-104720841D01*
X109365188Y-104721912D01*
X109433237Y-104761201D01*
X109488799Y-104816763D01*
X109528088Y-104884812D01*
X109548425Y-104960712D01*
X109548425Y-105039288D01*
X109528088Y-105115188D01*
X109488799Y-105183237D01*
X109433237Y-105238799D01*
X109365188Y-105278088D01*
X109361192Y-105279158D01*
X109320191Y-105302831D01*
X109320191Y-105447169D01*
X109361194Y-105470841D01*
X109365188Y-105471912D01*
X109433237Y-105511201D01*
X109488799Y-105566763D01*
X109528088Y-105634812D01*
X109548425Y-105710712D01*
X109548425Y-105789288D01*
X109528088Y-105865188D01*
X109488799Y-105933237D01*
X109433237Y-105988799D01*
X109365188Y-106028088D01*
X109289288Y-106048425D01*
X109210712Y-106048425D01*
X109134812Y-106028088D01*
X109066763Y-105988799D01*
X109011201Y-105933237D01*
X108971912Y-105865188D01*
X108951575Y-105789288D01*
X108951575Y-105710712D01*
X108971912Y-105634812D01*
X109011201Y-105566763D01*
X109066763Y-105511201D01*
X109134812Y-105471912D01*
X109138800Y-105470843D01*
X109179808Y-105447168D01*
X109179808Y-105302832D01*
X109138802Y-105279157D01*
X109134812Y-105278088D01*
X109066763Y-105238799D01*
X109011201Y-105183237D01*
X108971912Y-105115188D01*
X108951575Y-105039288D01*
X108951575Y-104960712D01*
X108971912Y-104884812D01*
X109011201Y-104816763D01*
X109066763Y-104761201D01*
X109134812Y-104721912D01*
X109138800Y-104720843D01*
X109179808Y-104697168D01*
X109179808Y-104552832D01*
X109138802Y-104529157D01*
X109134812Y-104528088D01*
X109066763Y-104488799D01*
X109011201Y-104433237D01*
X108971912Y-104365188D01*
X108951575Y-104289288D01*
X108951575Y-104210712D01*
X108971912Y-104134812D01*
X109011201Y-104066763D01*
X109066763Y-104011201D01*
X109134812Y-103971912D01*
X109210712Y-103951575D01*
X109289288Y-103951575D01*
X109365188Y-103971912D01*
G37*
G36*
X110865188Y-103971912D02*
G01*
X110933237Y-104011201D01*
X110988799Y-104066763D01*
X111028088Y-104134812D01*
X111048425Y-104210712D01*
X111048425Y-104289288D01*
X111028088Y-104365188D01*
X110988799Y-104433237D01*
X110933237Y-104488799D01*
X110865188Y-104528088D01*
X110861192Y-104529158D01*
X110820191Y-104552831D01*
X110820191Y-104697169D01*
X110861194Y-104720841D01*
X110865188Y-104721912D01*
X110933237Y-104761201D01*
X110988799Y-104816763D01*
X111028088Y-104884812D01*
X111048425Y-104960712D01*
X111048425Y-105039288D01*
X111028088Y-105115188D01*
X110988799Y-105183237D01*
X110933237Y-105238799D01*
X110865188Y-105278088D01*
X110861192Y-105279158D01*
X110820191Y-105302831D01*
X110820191Y-105447169D01*
X110861194Y-105470841D01*
X110865188Y-105471912D01*
X110933237Y-105511201D01*
X110988799Y-105566763D01*
X111028088Y-105634812D01*
X111048425Y-105710712D01*
X111048425Y-105789288D01*
X111028088Y-105865188D01*
X110988799Y-105933237D01*
X110933237Y-105988799D01*
X110865188Y-106028088D01*
X110789288Y-106048425D01*
X110710712Y-106048425D01*
X110634812Y-106028088D01*
X110566763Y-105988799D01*
X110511201Y-105933237D01*
X110471912Y-105865188D01*
X110451575Y-105789288D01*
X110451575Y-105710712D01*
X110471912Y-105634812D01*
X110511201Y-105566763D01*
X110566763Y-105511201D01*
X110634812Y-105471912D01*
X110638800Y-105470843D01*
X110679808Y-105447168D01*
X110679808Y-105302832D01*
X110638802Y-105279157D01*
X110634812Y-105278088D01*
X110566763Y-105238799D01*
X110511201Y-105183237D01*
X110471912Y-105115188D01*
X110451575Y-105039288D01*
X110451575Y-104960712D01*
X110471912Y-104884812D01*
X110511201Y-104816763D01*
X110566763Y-104761201D01*
X110634812Y-104721912D01*
X110638800Y-104720843D01*
X110679808Y-104697168D01*
X110679808Y-104552832D01*
X110638802Y-104529157D01*
X110634812Y-104528088D01*
X110566763Y-104488799D01*
X110511201Y-104433237D01*
X110471912Y-104365188D01*
X110451575Y-104289288D01*
X110451575Y-104210712D01*
X110471912Y-104134812D01*
X110511201Y-104066763D01*
X110566763Y-104011201D01*
X110634812Y-103971912D01*
X110710712Y-103951575D01*
X110789288Y-103951575D01*
X110865188Y-103971912D01*
G37*
G36*
X157826389Y-103211109D02*
G01*
X157837996Y-103211109D01*
X157883356Y-103220131D01*
X157981595Y-103235691D01*
X158013190Y-103245957D01*
X158041992Y-103251686D01*
X158082636Y-103268521D01*
X158139879Y-103287121D01*
X158193512Y-103314448D01*
X158234152Y-103331282D01*
X158258564Y-103347593D01*
X158288167Y-103362677D01*
X158368640Y-103421144D01*
X158407091Y-103446836D01*
X158415297Y-103455042D01*
X158422812Y-103460502D01*
X158540497Y-103578187D01*
X158545956Y-103585701D01*
X158554164Y-103593909D01*
X158579858Y-103632364D01*
X158638322Y-103712832D01*
X158653404Y-103742432D01*
X158669718Y-103766848D01*
X158686553Y-103807492D01*
X158713878Y-103861120D01*
X158732475Y-103918356D01*
X158749314Y-103959008D01*
X158755044Y-103987814D01*
X158765308Y-104019404D01*
X158780866Y-104117635D01*
X158789891Y-104163004D01*
X158789891Y-104174611D01*
X158791344Y-104183785D01*
X158791344Y-104350214D01*
X158789891Y-104359387D01*
X158789891Y-104370996D01*
X158780865Y-104416368D01*
X158765308Y-104514595D01*
X158755044Y-104546182D01*
X158749314Y-104574992D01*
X158732473Y-104615647D01*
X158713878Y-104672879D01*
X158686556Y-104726501D01*
X158669718Y-104767152D01*
X158653401Y-104791570D01*
X158638322Y-104821167D01*
X158579867Y-104901623D01*
X158554164Y-104940091D01*
X158545954Y-104948300D01*
X158540497Y-104955812D01*
X158422812Y-105073497D01*
X158415300Y-105078954D01*
X158407091Y-105087164D01*
X158368623Y-105112867D01*
X158288167Y-105171322D01*
X158258570Y-105186401D01*
X158234152Y-105202718D01*
X158193501Y-105219556D01*
X158139879Y-105246878D01*
X158082647Y-105265473D01*
X158041992Y-105282314D01*
X158013182Y-105288044D01*
X157981595Y-105298308D01*
X157883366Y-105313866D01*
X157837996Y-105322891D01*
X157826389Y-105322891D01*
X157817215Y-105324344D01*
X157650785Y-105324344D01*
X157641611Y-105322891D01*
X157630004Y-105322891D01*
X157584635Y-105313866D01*
X157486404Y-105298308D01*
X157454814Y-105288044D01*
X157426008Y-105282314D01*
X157385356Y-105265475D01*
X157328120Y-105246878D01*
X157274492Y-105219553D01*
X157233848Y-105202718D01*
X157209432Y-105186404D01*
X157179832Y-105171322D01*
X157099364Y-105112858D01*
X157060909Y-105087164D01*
X157052701Y-105078956D01*
X157045187Y-105073497D01*
X156927502Y-104955812D01*
X156922042Y-104948297D01*
X156913836Y-104940091D01*
X156888144Y-104901640D01*
X156829677Y-104821167D01*
X156814593Y-104791564D01*
X156798282Y-104767152D01*
X156781448Y-104726512D01*
X156754121Y-104672879D01*
X156735521Y-104615636D01*
X156718686Y-104574992D01*
X156712957Y-104546190D01*
X156702691Y-104514595D01*
X156687132Y-104416358D01*
X156678109Y-104370996D01*
X156678109Y-104359388D01*
X156676656Y-104350214D01*
X156676656Y-104183785D01*
X156678109Y-104174610D01*
X156678109Y-104163004D01*
X156687131Y-104117645D01*
X156702691Y-104019404D01*
X156712957Y-103987807D01*
X156718686Y-103959008D01*
X156735520Y-103918367D01*
X156754121Y-103861120D01*
X156781450Y-103807482D01*
X156798282Y-103766848D01*
X156814591Y-103742438D01*
X156829677Y-103712832D01*
X156888152Y-103632347D01*
X156913836Y-103593909D01*
X156922039Y-103585705D01*
X156927502Y-103578187D01*
X157045187Y-103460502D01*
X157052705Y-103455039D01*
X157060909Y-103446836D01*
X157099347Y-103421152D01*
X157179832Y-103362677D01*
X157209438Y-103347591D01*
X157233848Y-103331282D01*
X157274482Y-103314450D01*
X157328120Y-103287121D01*
X157385367Y-103268520D01*
X157426008Y-103251686D01*
X157454807Y-103245957D01*
X157486404Y-103235691D01*
X157584645Y-103220131D01*
X157630004Y-103211109D01*
X157641611Y-103211109D01*
X157650785Y-103209656D01*
X157817215Y-103209656D01*
X157826389Y-103211109D01*
G37*
G36*
X157826389Y-100671109D02*
G01*
X157837996Y-100671109D01*
X157883356Y-100680131D01*
X157981595Y-100695691D01*
X158013190Y-100705957D01*
X158041992Y-100711686D01*
X158082636Y-100728521D01*
X158139879Y-100747121D01*
X158193512Y-100774448D01*
X158234152Y-100791282D01*
X158258564Y-100807593D01*
X158288167Y-100822677D01*
X158368640Y-100881144D01*
X158407091Y-100906836D01*
X158415297Y-100915042D01*
X158422812Y-100920502D01*
X158540497Y-101038187D01*
X158545956Y-101045701D01*
X158554164Y-101053909D01*
X158579858Y-101092364D01*
X158638322Y-101172832D01*
X158653404Y-101202432D01*
X158669718Y-101226848D01*
X158686553Y-101267492D01*
X158713878Y-101321120D01*
X158732475Y-101378356D01*
X158749314Y-101419008D01*
X158755044Y-101447814D01*
X158765308Y-101479404D01*
X158780866Y-101577635D01*
X158789891Y-101623004D01*
X158789891Y-101634611D01*
X158791344Y-101643785D01*
X158791344Y-101810214D01*
X158789891Y-101819387D01*
X158789891Y-101830996D01*
X158780865Y-101876368D01*
X158765308Y-101974595D01*
X158755044Y-102006182D01*
X158749314Y-102034992D01*
X158732473Y-102075647D01*
X158713878Y-102132879D01*
X158686556Y-102186501D01*
X158669718Y-102227152D01*
X158653401Y-102251570D01*
X158638322Y-102281167D01*
X158579867Y-102361623D01*
X158554164Y-102400091D01*
X158545954Y-102408300D01*
X158540497Y-102415812D01*
X158422812Y-102533497D01*
X158415300Y-102538954D01*
X158407091Y-102547164D01*
X158368623Y-102572867D01*
X158288167Y-102631322D01*
X158258570Y-102646401D01*
X158234152Y-102662718D01*
X158193501Y-102679556D01*
X158139879Y-102706878D01*
X158082647Y-102725473D01*
X158041992Y-102742314D01*
X158013182Y-102748044D01*
X157981595Y-102758308D01*
X157883366Y-102773866D01*
X157837996Y-102782891D01*
X157826389Y-102782891D01*
X157817215Y-102784344D01*
X157650785Y-102784344D01*
X157641611Y-102782891D01*
X157630004Y-102782891D01*
X157584635Y-102773866D01*
X157486404Y-102758308D01*
X157454814Y-102748044D01*
X157426008Y-102742314D01*
X157385356Y-102725475D01*
X157328120Y-102706878D01*
X157274492Y-102679553D01*
X157233848Y-102662718D01*
X157209432Y-102646404D01*
X157179832Y-102631322D01*
X157099364Y-102572858D01*
X157060909Y-102547164D01*
X157052701Y-102538956D01*
X157045187Y-102533497D01*
X156927502Y-102415812D01*
X156922042Y-102408297D01*
X156913836Y-102400091D01*
X156888144Y-102361640D01*
X156829677Y-102281167D01*
X156814593Y-102251564D01*
X156798282Y-102227152D01*
X156781448Y-102186512D01*
X156754121Y-102132879D01*
X156735521Y-102075636D01*
X156718686Y-102034992D01*
X156712957Y-102006190D01*
X156702691Y-101974595D01*
X156687132Y-101876358D01*
X156678109Y-101830996D01*
X156678109Y-101819388D01*
X156676656Y-101810214D01*
X156676656Y-101643785D01*
X156678109Y-101634610D01*
X156678109Y-101623004D01*
X156687131Y-101577645D01*
X156702691Y-101479404D01*
X156712957Y-101447807D01*
X156718686Y-101419008D01*
X156735520Y-101378367D01*
X156754121Y-101321120D01*
X156781450Y-101267482D01*
X156798282Y-101226848D01*
X156814591Y-101202438D01*
X156829677Y-101172832D01*
X156888152Y-101092347D01*
X156913836Y-101053909D01*
X156922039Y-101045705D01*
X156927502Y-101038187D01*
X157045187Y-100920502D01*
X157052705Y-100915039D01*
X157060909Y-100906836D01*
X157099347Y-100881152D01*
X157179832Y-100822677D01*
X157209438Y-100807591D01*
X157233848Y-100791282D01*
X157274482Y-100774450D01*
X157328120Y-100747121D01*
X157385367Y-100728520D01*
X157426008Y-100711686D01*
X157454807Y-100705957D01*
X157486404Y-100695691D01*
X157584645Y-100680131D01*
X157630004Y-100671109D01*
X157641611Y-100671109D01*
X157650785Y-100669656D01*
X157817215Y-100669656D01*
X157826389Y-100671109D01*
G37*
G36*
X140476696Y-99591802D02*
G01*
X140648469Y-99647615D01*
X140809396Y-99729611D01*
X140955515Y-99835773D01*
X141083227Y-99963485D01*
X141189389Y-100109604D01*
X141271385Y-100270531D01*
X141327198Y-100442304D01*
X141355452Y-100620694D01*
X141355452Y-100801306D01*
X141327198Y-100979696D01*
X141271385Y-101151469D01*
X141189389Y-101312396D01*
X141083227Y-101458515D01*
X140955515Y-101586227D01*
X140809396Y-101692389D01*
X140648469Y-101774385D01*
X140476696Y-101830198D01*
X140298306Y-101858452D01*
X140117694Y-101858452D01*
X139939304Y-101830198D01*
X139767531Y-101774385D01*
X139606604Y-101692389D01*
X139460485Y-101586227D01*
X139332773Y-101458515D01*
X139226611Y-101312396D01*
X139144615Y-101151469D01*
X139088802Y-100979696D01*
X139060548Y-100801306D01*
X139060548Y-100620694D01*
X139088802Y-100442304D01*
X139144615Y-100270531D01*
X139226611Y-100109604D01*
X139332773Y-99963485D01*
X139460485Y-99835773D01*
X139606604Y-99729611D01*
X139767531Y-99647615D01*
X139939304Y-99591802D01*
X140117694Y-99563548D01*
X140298306Y-99563548D01*
X140476696Y-99591802D01*
G37*
G36*
X145556696Y-99591802D02*
G01*
X145728469Y-99647615D01*
X145889396Y-99729611D01*
X146035515Y-99835773D01*
X146163227Y-99963485D01*
X146269389Y-100109604D01*
X146351385Y-100270531D01*
X146407198Y-100442304D01*
X146435452Y-100620694D01*
X146435452Y-100801306D01*
X146407198Y-100979696D01*
X146351385Y-101151469D01*
X146269389Y-101312396D01*
X146163227Y-101458515D01*
X146035515Y-101586227D01*
X145889396Y-101692389D01*
X145728469Y-101774385D01*
X145556696Y-101830198D01*
X145378306Y-101858452D01*
X145197694Y-101858452D01*
X145019304Y-101830198D01*
X144847531Y-101774385D01*
X144686604Y-101692389D01*
X144540485Y-101586227D01*
X144412773Y-101458515D01*
X144306611Y-101312396D01*
X144224615Y-101151469D01*
X144168802Y-100979696D01*
X144140548Y-100801306D01*
X144140548Y-100620694D01*
X144168802Y-100442304D01*
X144224615Y-100270531D01*
X144306611Y-100109604D01*
X144412773Y-99963485D01*
X144540485Y-99835773D01*
X144686604Y-99729611D01*
X144847531Y-99647615D01*
X145019304Y-99591802D01*
X145197694Y-99563548D01*
X145378306Y-99563548D01*
X145556696Y-99591802D01*
G37*
G36*
X100883097Y-97676502D02*
G01*
X101054870Y-97732315D01*
X101215797Y-97814311D01*
X101361916Y-97920473D01*
X101489628Y-98048185D01*
X101595790Y-98194304D01*
X101677786Y-98355231D01*
X101733599Y-98527004D01*
X101761853Y-98705394D01*
X101761853Y-98886006D01*
X101733599Y-99064396D01*
X101677786Y-99236169D01*
X101595790Y-99397096D01*
X101489628Y-99543215D01*
X101361916Y-99670927D01*
X101215797Y-99777089D01*
X101054870Y-99859085D01*
X100883097Y-99914898D01*
X100704707Y-99943152D01*
X100524095Y-99943152D01*
X100345705Y-99914898D01*
X100173932Y-99859085D01*
X100013005Y-99777089D01*
X99866886Y-99670927D01*
X99739174Y-99543215D01*
X99633012Y-99397096D01*
X99551016Y-99236169D01*
X99495203Y-99064396D01*
X99466949Y-98886006D01*
X99466949Y-98705394D01*
X99495203Y-98527004D01*
X99551016Y-98355231D01*
X99633012Y-98194304D01*
X99739174Y-98048185D01*
X99866886Y-97920473D01*
X100013005Y-97814311D01*
X100173932Y-97732315D01*
X100345705Y-97676502D01*
X100524095Y-97648248D01*
X100704707Y-97648248D01*
X100883097Y-97676502D01*
G37*
G36*
X105383097Y-97676502D02*
G01*
X105554870Y-97732315D01*
X105715797Y-97814311D01*
X105861916Y-97920473D01*
X105989628Y-98048185D01*
X106095790Y-98194304D01*
X106177786Y-98355231D01*
X106233599Y-98527004D01*
X106261853Y-98705394D01*
X106261853Y-98886006D01*
X106233599Y-99064396D01*
X106177786Y-99236169D01*
X106095790Y-99397096D01*
X105989628Y-99543215D01*
X105861916Y-99670927D01*
X105715797Y-99777089D01*
X105554870Y-99859085D01*
X105383097Y-99914898D01*
X105204707Y-99943152D01*
X105024095Y-99943152D01*
X104845705Y-99914898D01*
X104673932Y-99859085D01*
X104513005Y-99777089D01*
X104366886Y-99670927D01*
X104239174Y-99543215D01*
X104133012Y-99397096D01*
X104051016Y-99236169D01*
X103995203Y-99064396D01*
X103966949Y-98886006D01*
X103966949Y-98705394D01*
X103995203Y-98527004D01*
X104051016Y-98355231D01*
X104133012Y-98194304D01*
X104239174Y-98048185D01*
X104366886Y-97920473D01*
X104513005Y-97814311D01*
X104673932Y-97732315D01*
X104845705Y-97676502D01*
X105024095Y-97648248D01*
X105204707Y-97648248D01*
X105383097Y-97676502D01*
G37*
G36*
X94981389Y-97635809D02*
G01*
X94992996Y-97635809D01*
X95038356Y-97644831D01*
X95136595Y-97660391D01*
X95168190Y-97670657D01*
X95196992Y-97676386D01*
X95237636Y-97693221D01*
X95294879Y-97711821D01*
X95348512Y-97739148D01*
X95389152Y-97755982D01*
X95413564Y-97772293D01*
X95443167Y-97787377D01*
X95523640Y-97845844D01*
X95562091Y-97871536D01*
X95570297Y-97879742D01*
X95577812Y-97885202D01*
X95695497Y-98002887D01*
X95700956Y-98010401D01*
X95709164Y-98018609D01*
X95734858Y-98057064D01*
X95793322Y-98137532D01*
X95808404Y-98167132D01*
X95824718Y-98191548D01*
X95841553Y-98232192D01*
X95868878Y-98285820D01*
X95887475Y-98343056D01*
X95904314Y-98383708D01*
X95910044Y-98412514D01*
X95920308Y-98444104D01*
X95935866Y-98542335D01*
X95944891Y-98587704D01*
X95944891Y-98599311D01*
X95946344Y-98608485D01*
X95946344Y-98774914D01*
X95944891Y-98784087D01*
X95944891Y-98795696D01*
X95935865Y-98841068D01*
X95920308Y-98939295D01*
X95910044Y-98970882D01*
X95904314Y-98999692D01*
X95887473Y-99040347D01*
X95868878Y-99097579D01*
X95841556Y-99151201D01*
X95824718Y-99191852D01*
X95808401Y-99216270D01*
X95793322Y-99245867D01*
X95734867Y-99326323D01*
X95709164Y-99364791D01*
X95700954Y-99373000D01*
X95695497Y-99380512D01*
X95577812Y-99498197D01*
X95570300Y-99503654D01*
X95562091Y-99511864D01*
X95523623Y-99537567D01*
X95443167Y-99596022D01*
X95413570Y-99611101D01*
X95389152Y-99627418D01*
X95348501Y-99644256D01*
X95294879Y-99671578D01*
X95237647Y-99690173D01*
X95196992Y-99707014D01*
X95168182Y-99712744D01*
X95136595Y-99723008D01*
X95038366Y-99738566D01*
X94992996Y-99747591D01*
X94981389Y-99747591D01*
X94972215Y-99749044D01*
X94805785Y-99749044D01*
X94796611Y-99747591D01*
X94785004Y-99747591D01*
X94739635Y-99738566D01*
X94641404Y-99723008D01*
X94609814Y-99712744D01*
X94581008Y-99707014D01*
X94540356Y-99690175D01*
X94483120Y-99671578D01*
X94429492Y-99644253D01*
X94388848Y-99627418D01*
X94364432Y-99611104D01*
X94334832Y-99596022D01*
X94254364Y-99537558D01*
X94215909Y-99511864D01*
X94207701Y-99503656D01*
X94200187Y-99498197D01*
X94082502Y-99380512D01*
X94077042Y-99372997D01*
X94068836Y-99364791D01*
X94043144Y-99326340D01*
X93984677Y-99245867D01*
X93969593Y-99216264D01*
X93953282Y-99191852D01*
X93936448Y-99151212D01*
X93909121Y-99097579D01*
X93890521Y-99040336D01*
X93873686Y-98999692D01*
X93867957Y-98970890D01*
X93857691Y-98939295D01*
X93842132Y-98841058D01*
X93833109Y-98795696D01*
X93833109Y-98784088D01*
X93831656Y-98774914D01*
X93831656Y-98608485D01*
X93833109Y-98599310D01*
X93833109Y-98587704D01*
X93842131Y-98542345D01*
X93857691Y-98444104D01*
X93867957Y-98412507D01*
X93873686Y-98383708D01*
X93890520Y-98343067D01*
X93909121Y-98285820D01*
X93936450Y-98232182D01*
X93953282Y-98191548D01*
X93969591Y-98167138D01*
X93984677Y-98137532D01*
X94043152Y-98057047D01*
X94068836Y-98018609D01*
X94077039Y-98010405D01*
X94082502Y-98002887D01*
X94200187Y-97885202D01*
X94207705Y-97879739D01*
X94215909Y-97871536D01*
X94254347Y-97845852D01*
X94334832Y-97787377D01*
X94364438Y-97772291D01*
X94388848Y-97755982D01*
X94429482Y-97739150D01*
X94483120Y-97711821D01*
X94540367Y-97693220D01*
X94581008Y-97676386D01*
X94609807Y-97670657D01*
X94641404Y-97660391D01*
X94739645Y-97644831D01*
X94785004Y-97635809D01*
X94796611Y-97635809D01*
X94805785Y-97634356D01*
X94972215Y-97634356D01*
X94981389Y-97635809D01*
G37*
G36*
X157826389Y-96226109D02*
G01*
X157837996Y-96226109D01*
X157883356Y-96235131D01*
X157981595Y-96250691D01*
X158013190Y-96260957D01*
X158041992Y-96266686D01*
X158082636Y-96283521D01*
X158139879Y-96302121D01*
X158193512Y-96329448D01*
X158234152Y-96346282D01*
X158258564Y-96362593D01*
X158288167Y-96377677D01*
X158368640Y-96436144D01*
X158407091Y-96461836D01*
X158415297Y-96470042D01*
X158422812Y-96475502D01*
X158540497Y-96593187D01*
X158545956Y-96600701D01*
X158554164Y-96608909D01*
X158579858Y-96647364D01*
X158638322Y-96727832D01*
X158653404Y-96757432D01*
X158669718Y-96781848D01*
X158686553Y-96822492D01*
X158713878Y-96876120D01*
X158732475Y-96933356D01*
X158749314Y-96974008D01*
X158755044Y-97002814D01*
X158765308Y-97034404D01*
X158780866Y-97132635D01*
X158789891Y-97178004D01*
X158789891Y-97189611D01*
X158791344Y-97198785D01*
X158791344Y-97365214D01*
X158789891Y-97374387D01*
X158789891Y-97385996D01*
X158780865Y-97431368D01*
X158765308Y-97529595D01*
X158755044Y-97561182D01*
X158749314Y-97589992D01*
X158732473Y-97630647D01*
X158713878Y-97687879D01*
X158686556Y-97741501D01*
X158669718Y-97782152D01*
X158653401Y-97806570D01*
X158638322Y-97836167D01*
X158579867Y-97916623D01*
X158554164Y-97955091D01*
X158545954Y-97963300D01*
X158540497Y-97970812D01*
X158422812Y-98088497D01*
X158415300Y-98093954D01*
X158407091Y-98102164D01*
X158368623Y-98127867D01*
X158288167Y-98186322D01*
X158258570Y-98201401D01*
X158234152Y-98217718D01*
X158193501Y-98234556D01*
X158139879Y-98261878D01*
X158082647Y-98280473D01*
X158041992Y-98297314D01*
X158013182Y-98303044D01*
X157981595Y-98313308D01*
X157883366Y-98328866D01*
X157837996Y-98337891D01*
X157826389Y-98337891D01*
X157817215Y-98339344D01*
X157650785Y-98339344D01*
X157641611Y-98337891D01*
X157630004Y-98337891D01*
X157584635Y-98328866D01*
X157486404Y-98313308D01*
X157454814Y-98303044D01*
X157426008Y-98297314D01*
X157385356Y-98280475D01*
X157328120Y-98261878D01*
X157274492Y-98234553D01*
X157233848Y-98217718D01*
X157209432Y-98201404D01*
X157179832Y-98186322D01*
X157099364Y-98127858D01*
X157060909Y-98102164D01*
X157052701Y-98093956D01*
X157045187Y-98088497D01*
X156927502Y-97970812D01*
X156922042Y-97963297D01*
X156913836Y-97955091D01*
X156888144Y-97916640D01*
X156829677Y-97836167D01*
X156814593Y-97806564D01*
X156798282Y-97782152D01*
X156781448Y-97741512D01*
X156754121Y-97687879D01*
X156735521Y-97630636D01*
X156718686Y-97589992D01*
X156712957Y-97561190D01*
X156702691Y-97529595D01*
X156687132Y-97431358D01*
X156678109Y-97385996D01*
X156678109Y-97374388D01*
X156676656Y-97365214D01*
X156676656Y-97198785D01*
X156678109Y-97189610D01*
X156678109Y-97178004D01*
X156687131Y-97132645D01*
X156702691Y-97034404D01*
X156712957Y-97002807D01*
X156718686Y-96974008D01*
X156735520Y-96933367D01*
X156754121Y-96876120D01*
X156781450Y-96822482D01*
X156798282Y-96781848D01*
X156814591Y-96757438D01*
X156829677Y-96727832D01*
X156888152Y-96647347D01*
X156913836Y-96608909D01*
X156922039Y-96600705D01*
X156927502Y-96593187D01*
X157045187Y-96475502D01*
X157052705Y-96470039D01*
X157060909Y-96461836D01*
X157099347Y-96436152D01*
X157179832Y-96377677D01*
X157209438Y-96362591D01*
X157233848Y-96346282D01*
X157274482Y-96329450D01*
X157328120Y-96302121D01*
X157385367Y-96283520D01*
X157426008Y-96266686D01*
X157454807Y-96260957D01*
X157486404Y-96250691D01*
X157584645Y-96235131D01*
X157630004Y-96226109D01*
X157641611Y-96226109D01*
X157650785Y-96224656D01*
X157817215Y-96224656D01*
X157826389Y-96226109D01*
G37*
G36*
X166589389Y-96226109D02*
G01*
X166600996Y-96226109D01*
X166646356Y-96235131D01*
X166744595Y-96250691D01*
X166776190Y-96260957D01*
X166804992Y-96266686D01*
X166845636Y-96283521D01*
X166902879Y-96302121D01*
X166956512Y-96329448D01*
X166997152Y-96346282D01*
X167021564Y-96362593D01*
X167051167Y-96377677D01*
X167131640Y-96436144D01*
X167170091Y-96461836D01*
X167178297Y-96470042D01*
X167185812Y-96475502D01*
X167303497Y-96593187D01*
X167308956Y-96600701D01*
X167317164Y-96608909D01*
X167342858Y-96647364D01*
X167401322Y-96727832D01*
X167416404Y-96757432D01*
X167432718Y-96781848D01*
X167449553Y-96822492D01*
X167476878Y-96876120D01*
X167495475Y-96933356D01*
X167512314Y-96974008D01*
X167518044Y-97002814D01*
X167528308Y-97034404D01*
X167543866Y-97132635D01*
X167552891Y-97178004D01*
X167552891Y-97189611D01*
X167554344Y-97198785D01*
X167554344Y-97365214D01*
X167552891Y-97374387D01*
X167552891Y-97385996D01*
X167543865Y-97431368D01*
X167528308Y-97529595D01*
X167518044Y-97561182D01*
X167512314Y-97589992D01*
X167495473Y-97630647D01*
X167476878Y-97687879D01*
X167449556Y-97741501D01*
X167432718Y-97782152D01*
X167416401Y-97806570D01*
X167401322Y-97836167D01*
X167342867Y-97916623D01*
X167317164Y-97955091D01*
X167308954Y-97963300D01*
X167303497Y-97970812D01*
X167185812Y-98088497D01*
X167178300Y-98093954D01*
X167170091Y-98102164D01*
X167131623Y-98127867D01*
X167051167Y-98186322D01*
X167021570Y-98201401D01*
X166997152Y-98217718D01*
X166956501Y-98234556D01*
X166902879Y-98261878D01*
X166845647Y-98280473D01*
X166804992Y-98297314D01*
X166776182Y-98303044D01*
X166744595Y-98313308D01*
X166646366Y-98328866D01*
X166600996Y-98337891D01*
X166589389Y-98337891D01*
X166580215Y-98339344D01*
X166413785Y-98339344D01*
X166404611Y-98337891D01*
X166393004Y-98337891D01*
X166347635Y-98328866D01*
X166249404Y-98313308D01*
X166217814Y-98303044D01*
X166189008Y-98297314D01*
X166148356Y-98280475D01*
X166091120Y-98261878D01*
X166037492Y-98234553D01*
X165996848Y-98217718D01*
X165972432Y-98201404D01*
X165942832Y-98186322D01*
X165862364Y-98127858D01*
X165823909Y-98102164D01*
X165815701Y-98093956D01*
X165808187Y-98088497D01*
X165690502Y-97970812D01*
X165685042Y-97963297D01*
X165676836Y-97955091D01*
X165651144Y-97916640D01*
X165592677Y-97836167D01*
X165577593Y-97806564D01*
X165561282Y-97782152D01*
X165544448Y-97741512D01*
X165517121Y-97687879D01*
X165498521Y-97630636D01*
X165481686Y-97589992D01*
X165475957Y-97561190D01*
X165465691Y-97529595D01*
X165450132Y-97431358D01*
X165441109Y-97385996D01*
X165441109Y-97374388D01*
X165439656Y-97365214D01*
X165439656Y-97198785D01*
X165441109Y-97189610D01*
X165441109Y-97178004D01*
X165450131Y-97132645D01*
X165465691Y-97034404D01*
X165475957Y-97002807D01*
X165481686Y-96974008D01*
X165498520Y-96933367D01*
X165517121Y-96876120D01*
X165544450Y-96822482D01*
X165561282Y-96781848D01*
X165577591Y-96757438D01*
X165592677Y-96727832D01*
X165651152Y-96647347D01*
X165676836Y-96608909D01*
X165685039Y-96600705D01*
X165690502Y-96593187D01*
X165808187Y-96475502D01*
X165815705Y-96470039D01*
X165823909Y-96461836D01*
X165862347Y-96436152D01*
X165942832Y-96377677D01*
X165972438Y-96362591D01*
X165996848Y-96346282D01*
X166037482Y-96329450D01*
X166091120Y-96302121D01*
X166148367Y-96283520D01*
X166189008Y-96266686D01*
X166217807Y-96260957D01*
X166249404Y-96250691D01*
X166347645Y-96235131D01*
X166393004Y-96226109D01*
X166404611Y-96226109D01*
X166413785Y-96224656D01*
X166580215Y-96224656D01*
X166589389Y-96226109D01*
G37*
G36*
X125596032Y-96086644D02*
G01*
X125750159Y-96150485D01*
X125888869Y-96243168D01*
X126006832Y-96361131D01*
X126099515Y-96499841D01*
X126163356Y-96653968D01*
X126195902Y-96817587D01*
X126195902Y-96984413D01*
X126163356Y-97148032D01*
X126099515Y-97302159D01*
X126006832Y-97440869D01*
X125888869Y-97558832D01*
X125750159Y-97651515D01*
X125596032Y-97715356D01*
X125432413Y-97747902D01*
X125265587Y-97747902D01*
X125101968Y-97715356D01*
X124947841Y-97651515D01*
X124809131Y-97558832D01*
X124691168Y-97440869D01*
X124598485Y-97302159D01*
X124534644Y-97148032D01*
X124502098Y-96984413D01*
X124502098Y-96817587D01*
X124534644Y-96653968D01*
X124598485Y-96499841D01*
X124691168Y-96361131D01*
X124809131Y-96243168D01*
X124947841Y-96150485D01*
X125101968Y-96086644D01*
X125265587Y-96054098D01*
X125432413Y-96054098D01*
X125596032Y-96086644D01*
G37*
G36*
X135756032Y-96086644D02*
G01*
X135910159Y-96150485D01*
X136048869Y-96243168D01*
X136166832Y-96361131D01*
X136259515Y-96499841D01*
X136323356Y-96653968D01*
X136355902Y-96817587D01*
X136355902Y-96984413D01*
X136323356Y-97148032D01*
X136259515Y-97302159D01*
X136166832Y-97440869D01*
X136048869Y-97558832D01*
X135910159Y-97651515D01*
X135756032Y-97715356D01*
X135592413Y-97747902D01*
X135425587Y-97747902D01*
X135261968Y-97715356D01*
X135107841Y-97651515D01*
X134969131Y-97558832D01*
X134851168Y-97440869D01*
X134758485Y-97302159D01*
X134694644Y-97148032D01*
X134662098Y-96984413D01*
X134662098Y-96817587D01*
X134694644Y-96653968D01*
X134758485Y-96499841D01*
X134851168Y-96361131D01*
X134969131Y-96243168D01*
X135107841Y-96150485D01*
X135261968Y-96086644D01*
X135425587Y-96054098D01*
X135592413Y-96054098D01*
X135756032Y-96086644D01*
G37*
G36*
X94981389Y-95095809D02*
G01*
X94992996Y-95095809D01*
X95038356Y-95104831D01*
X95136595Y-95120391D01*
X95168190Y-95130657D01*
X95196992Y-95136386D01*
X95237636Y-95153221D01*
X95294879Y-95171821D01*
X95348512Y-95199148D01*
X95389152Y-95215982D01*
X95413564Y-95232293D01*
X95443167Y-95247377D01*
X95523640Y-95305844D01*
X95562091Y-95331536D01*
X95570297Y-95339742D01*
X95577812Y-95345202D01*
X95695497Y-95462887D01*
X95700956Y-95470401D01*
X95709164Y-95478609D01*
X95734858Y-95517064D01*
X95793322Y-95597532D01*
X95808404Y-95627132D01*
X95824718Y-95651548D01*
X95841553Y-95692192D01*
X95868878Y-95745820D01*
X95887475Y-95803056D01*
X95904314Y-95843708D01*
X95910044Y-95872514D01*
X95920308Y-95904104D01*
X95935866Y-96002335D01*
X95944891Y-96047704D01*
X95944891Y-96059311D01*
X95946344Y-96068485D01*
X95946344Y-96234914D01*
X95944891Y-96244087D01*
X95944891Y-96255696D01*
X95935865Y-96301068D01*
X95920308Y-96399295D01*
X95910044Y-96430882D01*
X95904314Y-96459692D01*
X95887473Y-96500347D01*
X95868878Y-96557579D01*
X95841556Y-96611201D01*
X95824718Y-96651852D01*
X95808401Y-96676270D01*
X95793322Y-96705867D01*
X95734867Y-96786323D01*
X95709164Y-96824791D01*
X95700954Y-96833000D01*
X95695497Y-96840512D01*
X95577812Y-96958197D01*
X95570300Y-96963654D01*
X95562091Y-96971864D01*
X95523623Y-96997567D01*
X95443167Y-97056022D01*
X95413570Y-97071101D01*
X95389152Y-97087418D01*
X95348501Y-97104256D01*
X95294879Y-97131578D01*
X95237647Y-97150173D01*
X95196992Y-97167014D01*
X95168182Y-97172744D01*
X95136595Y-97183008D01*
X95038366Y-97198566D01*
X94992996Y-97207591D01*
X94981389Y-97207591D01*
X94972215Y-97209044D01*
X94805785Y-97209044D01*
X94796611Y-97207591D01*
X94785004Y-97207591D01*
X94739635Y-97198566D01*
X94641404Y-97183008D01*
X94609814Y-97172744D01*
X94581008Y-97167014D01*
X94540356Y-97150175D01*
X94483120Y-97131578D01*
X94429492Y-97104253D01*
X94388848Y-97087418D01*
X94364432Y-97071104D01*
X94334832Y-97056022D01*
X94254364Y-96997558D01*
X94215909Y-96971864D01*
X94207701Y-96963656D01*
X94200187Y-96958197D01*
X94082502Y-96840512D01*
X94077042Y-96832997D01*
X94068836Y-96824791D01*
X94043144Y-96786340D01*
X93984677Y-96705867D01*
X93969593Y-96676264D01*
X93953282Y-96651852D01*
X93936448Y-96611212D01*
X93909121Y-96557579D01*
X93890521Y-96500336D01*
X93873686Y-96459692D01*
X93867957Y-96430890D01*
X93857691Y-96399295D01*
X93842132Y-96301058D01*
X93833109Y-96255696D01*
X93833109Y-96244088D01*
X93831656Y-96234914D01*
X93831656Y-96068485D01*
X93833109Y-96059310D01*
X93833109Y-96047704D01*
X93842131Y-96002345D01*
X93857691Y-95904104D01*
X93867957Y-95872507D01*
X93873686Y-95843708D01*
X93890520Y-95803067D01*
X93909121Y-95745820D01*
X93936450Y-95692182D01*
X93953282Y-95651548D01*
X93969591Y-95627138D01*
X93984677Y-95597532D01*
X94043152Y-95517047D01*
X94068836Y-95478609D01*
X94077039Y-95470405D01*
X94082502Y-95462887D01*
X94200187Y-95345202D01*
X94207705Y-95339739D01*
X94215909Y-95331536D01*
X94254347Y-95305852D01*
X94334832Y-95247377D01*
X94364438Y-95232291D01*
X94388848Y-95215982D01*
X94429482Y-95199150D01*
X94483120Y-95171821D01*
X94540367Y-95153220D01*
X94581008Y-95136386D01*
X94609807Y-95130657D01*
X94641404Y-95120391D01*
X94739645Y-95104831D01*
X94785004Y-95095809D01*
X94796611Y-95095809D01*
X94805785Y-95094356D01*
X94972215Y-95094356D01*
X94981389Y-95095809D01*
G37*
G36*
X157826389Y-93686109D02*
G01*
X157837996Y-93686109D01*
X157883356Y-93695131D01*
X157981595Y-93710691D01*
X158013190Y-93720957D01*
X158041992Y-93726686D01*
X158082636Y-93743521D01*
X158139879Y-93762121D01*
X158193512Y-93789448D01*
X158234152Y-93806282D01*
X158258564Y-93822593D01*
X158288167Y-93837677D01*
X158368640Y-93896144D01*
X158407091Y-93921836D01*
X158415297Y-93930042D01*
X158422812Y-93935502D01*
X158540497Y-94053187D01*
X158545956Y-94060701D01*
X158554164Y-94068909D01*
X158579858Y-94107364D01*
X158638322Y-94187832D01*
X158653404Y-94217432D01*
X158669718Y-94241848D01*
X158686553Y-94282492D01*
X158713878Y-94336120D01*
X158732475Y-94393356D01*
X158749314Y-94434008D01*
X158755044Y-94462814D01*
X158765308Y-94494404D01*
X158780866Y-94592635D01*
X158789891Y-94638004D01*
X158789891Y-94649611D01*
X158791344Y-94658785D01*
X158791344Y-94825214D01*
X158789891Y-94834387D01*
X158789891Y-94845996D01*
X158780865Y-94891368D01*
X158765308Y-94989595D01*
X158755044Y-95021182D01*
X158749314Y-95049992D01*
X158732473Y-95090647D01*
X158713878Y-95147879D01*
X158686556Y-95201501D01*
X158669718Y-95242152D01*
X158653401Y-95266570D01*
X158638322Y-95296167D01*
X158579867Y-95376623D01*
X158554164Y-95415091D01*
X158545954Y-95423300D01*
X158540497Y-95430812D01*
X158422812Y-95548497D01*
X158415300Y-95553954D01*
X158407091Y-95562164D01*
X158368623Y-95587867D01*
X158288167Y-95646322D01*
X158258570Y-95661401D01*
X158234152Y-95677718D01*
X158193501Y-95694556D01*
X158139879Y-95721878D01*
X158082647Y-95740473D01*
X158041992Y-95757314D01*
X158013182Y-95763044D01*
X157981595Y-95773308D01*
X157883366Y-95788866D01*
X157837996Y-95797891D01*
X157826389Y-95797891D01*
X157817215Y-95799344D01*
X157650785Y-95799344D01*
X157641611Y-95797891D01*
X157630004Y-95797891D01*
X157584635Y-95788866D01*
X157486404Y-95773308D01*
X157454814Y-95763044D01*
X157426008Y-95757314D01*
X157385356Y-95740475D01*
X157328120Y-95721878D01*
X157274492Y-95694553D01*
X157233848Y-95677718D01*
X157209432Y-95661404D01*
X157179832Y-95646322D01*
X157099364Y-95587858D01*
X157060909Y-95562164D01*
X157052701Y-95553956D01*
X157045187Y-95548497D01*
X156927502Y-95430812D01*
X156922042Y-95423297D01*
X156913836Y-95415091D01*
X156888144Y-95376640D01*
X156829677Y-95296167D01*
X156814593Y-95266564D01*
X156798282Y-95242152D01*
X156781448Y-95201512D01*
X156754121Y-95147879D01*
X156735521Y-95090636D01*
X156718686Y-95049992D01*
X156712957Y-95021190D01*
X156702691Y-94989595D01*
X156687132Y-94891358D01*
X156678109Y-94845996D01*
X156678109Y-94834388D01*
X156676656Y-94825214D01*
X156676656Y-94658785D01*
X156678109Y-94649610D01*
X156678109Y-94638004D01*
X156687131Y-94592645D01*
X156702691Y-94494404D01*
X156712957Y-94462807D01*
X156718686Y-94434008D01*
X156735520Y-94393367D01*
X156754121Y-94336120D01*
X156781450Y-94282482D01*
X156798282Y-94241848D01*
X156814591Y-94217438D01*
X156829677Y-94187832D01*
X156888152Y-94107347D01*
X156913836Y-94068909D01*
X156922039Y-94060705D01*
X156927502Y-94053187D01*
X157045187Y-93935502D01*
X157052705Y-93930039D01*
X157060909Y-93921836D01*
X157099347Y-93896152D01*
X157179832Y-93837677D01*
X157209438Y-93822591D01*
X157233848Y-93806282D01*
X157274482Y-93789450D01*
X157328120Y-93762121D01*
X157385367Y-93743520D01*
X157426008Y-93726686D01*
X157454807Y-93720957D01*
X157486404Y-93710691D01*
X157584645Y-93695131D01*
X157630004Y-93686109D01*
X157641611Y-93686109D01*
X157650785Y-93684656D01*
X157817215Y-93684656D01*
X157826389Y-93686109D01*
G37*
G36*
X166589389Y-93686109D02*
G01*
X166600996Y-93686109D01*
X166646356Y-93695131D01*
X166744595Y-93710691D01*
X166776190Y-93720957D01*
X166804992Y-93726686D01*
X166845636Y-93743521D01*
X166902879Y-93762121D01*
X166956512Y-93789448D01*
X166997152Y-93806282D01*
X167021564Y-93822593D01*
X167051167Y-93837677D01*
X167131640Y-93896144D01*
X167170091Y-93921836D01*
X167178297Y-93930042D01*
X167185812Y-93935502D01*
X167303497Y-94053187D01*
X167308956Y-94060701D01*
X167317164Y-94068909D01*
X167342858Y-94107364D01*
X167401322Y-94187832D01*
X167416404Y-94217432D01*
X167432718Y-94241848D01*
X167449553Y-94282492D01*
X167476878Y-94336120D01*
X167495475Y-94393356D01*
X167512314Y-94434008D01*
X167518044Y-94462814D01*
X167528308Y-94494404D01*
X167543866Y-94592635D01*
X167552891Y-94638004D01*
X167552891Y-94649611D01*
X167554344Y-94658785D01*
X167554344Y-94825214D01*
X167552891Y-94834387D01*
X167552891Y-94845996D01*
X167543865Y-94891368D01*
X167528308Y-94989595D01*
X167518044Y-95021182D01*
X167512314Y-95049992D01*
X167495473Y-95090647D01*
X167476878Y-95147879D01*
X167449556Y-95201501D01*
X167432718Y-95242152D01*
X167416401Y-95266570D01*
X167401322Y-95296167D01*
X167342867Y-95376623D01*
X167317164Y-95415091D01*
X167308954Y-95423300D01*
X167303497Y-95430812D01*
X167185812Y-95548497D01*
X167178300Y-95553954D01*
X167170091Y-95562164D01*
X167131623Y-95587867D01*
X167051167Y-95646322D01*
X167021570Y-95661401D01*
X166997152Y-95677718D01*
X166956501Y-95694556D01*
X166902879Y-95721878D01*
X166845647Y-95740473D01*
X166804992Y-95757314D01*
X166776182Y-95763044D01*
X166744595Y-95773308D01*
X166646366Y-95788866D01*
X166600996Y-95797891D01*
X166589389Y-95797891D01*
X166580215Y-95799344D01*
X166413785Y-95799344D01*
X166404611Y-95797891D01*
X166393004Y-95797891D01*
X166347635Y-95788866D01*
X166249404Y-95773308D01*
X166217814Y-95763044D01*
X166189008Y-95757314D01*
X166148356Y-95740475D01*
X166091120Y-95721878D01*
X166037492Y-95694553D01*
X165996848Y-95677718D01*
X165972432Y-95661404D01*
X165942832Y-95646322D01*
X165862364Y-95587858D01*
X165823909Y-95562164D01*
X165815701Y-95553956D01*
X165808187Y-95548497D01*
X165690502Y-95430812D01*
X165685042Y-95423297D01*
X165676836Y-95415091D01*
X165651144Y-95376640D01*
X165592677Y-95296167D01*
X165577593Y-95266564D01*
X165561282Y-95242152D01*
X165544448Y-95201512D01*
X165517121Y-95147879D01*
X165498521Y-95090636D01*
X165481686Y-95049992D01*
X165475957Y-95021190D01*
X165465691Y-94989595D01*
X165450132Y-94891358D01*
X165441109Y-94845996D01*
X165441109Y-94834388D01*
X165439656Y-94825214D01*
X165439656Y-94658785D01*
X165441109Y-94649610D01*
X165441109Y-94638004D01*
X165450131Y-94592645D01*
X165465691Y-94494404D01*
X165475957Y-94462807D01*
X165481686Y-94434008D01*
X165498520Y-94393367D01*
X165517121Y-94336120D01*
X165544450Y-94282482D01*
X165561282Y-94241848D01*
X165577591Y-94217438D01*
X165592677Y-94187832D01*
X165651152Y-94107347D01*
X165676836Y-94068909D01*
X165685039Y-94060705D01*
X165690502Y-94053187D01*
X165808187Y-93935502D01*
X165815705Y-93930039D01*
X165823909Y-93921836D01*
X165862347Y-93896152D01*
X165942832Y-93837677D01*
X165972438Y-93822591D01*
X165996848Y-93806282D01*
X166037482Y-93789450D01*
X166091120Y-93762121D01*
X166148367Y-93743520D01*
X166189008Y-93726686D01*
X166217807Y-93720957D01*
X166249404Y-93710691D01*
X166347645Y-93695131D01*
X166393004Y-93686109D01*
X166404611Y-93686109D01*
X166413785Y-93684656D01*
X166580215Y-93684656D01*
X166589389Y-93686109D01*
G37*
G36*
X94981389Y-92555809D02*
G01*
X94992996Y-92555809D01*
X95038356Y-92564831D01*
X95136595Y-92580391D01*
X95168190Y-92590657D01*
X95196992Y-92596386D01*
X95237636Y-92613221D01*
X95294879Y-92631821D01*
X95348512Y-92659148D01*
X95389152Y-92675982D01*
X95413564Y-92692293D01*
X95443167Y-92707377D01*
X95523640Y-92765844D01*
X95562091Y-92791536D01*
X95570297Y-92799742D01*
X95577812Y-92805202D01*
X95695497Y-92922887D01*
X95700956Y-92930401D01*
X95709164Y-92938609D01*
X95734858Y-92977064D01*
X95793322Y-93057532D01*
X95808404Y-93087132D01*
X95824718Y-93111548D01*
X95841553Y-93152192D01*
X95868878Y-93205820D01*
X95887475Y-93263056D01*
X95904314Y-93303708D01*
X95910044Y-93332514D01*
X95920308Y-93364104D01*
X95935866Y-93462335D01*
X95944891Y-93507704D01*
X95944891Y-93519311D01*
X95946344Y-93528485D01*
X95946344Y-93694914D01*
X95944891Y-93704087D01*
X95944891Y-93715696D01*
X95935865Y-93761068D01*
X95920308Y-93859295D01*
X95910044Y-93890882D01*
X95904314Y-93919692D01*
X95887473Y-93960347D01*
X95868878Y-94017579D01*
X95841556Y-94071201D01*
X95824718Y-94111852D01*
X95808401Y-94136270D01*
X95793322Y-94165867D01*
X95734867Y-94246323D01*
X95709164Y-94284791D01*
X95700954Y-94293000D01*
X95695497Y-94300512D01*
X95577812Y-94418197D01*
X95570300Y-94423654D01*
X95562091Y-94431864D01*
X95523623Y-94457567D01*
X95443167Y-94516022D01*
X95413570Y-94531101D01*
X95389152Y-94547418D01*
X95348501Y-94564256D01*
X95294879Y-94591578D01*
X95237647Y-94610173D01*
X95196992Y-94627014D01*
X95168182Y-94632744D01*
X95136595Y-94643008D01*
X95038366Y-94658566D01*
X94992996Y-94667591D01*
X94981389Y-94667591D01*
X94972215Y-94669044D01*
X94805785Y-94669044D01*
X94796611Y-94667591D01*
X94785004Y-94667591D01*
X94739635Y-94658566D01*
X94641404Y-94643008D01*
X94609814Y-94632744D01*
X94581008Y-94627014D01*
X94540356Y-94610175D01*
X94483120Y-94591578D01*
X94429492Y-94564253D01*
X94388848Y-94547418D01*
X94364432Y-94531104D01*
X94334832Y-94516022D01*
X94254364Y-94457558D01*
X94215909Y-94431864D01*
X94207701Y-94423656D01*
X94200187Y-94418197D01*
X94082502Y-94300512D01*
X94077042Y-94292997D01*
X94068836Y-94284791D01*
X94043144Y-94246340D01*
X93984677Y-94165867D01*
X93969593Y-94136264D01*
X93953282Y-94111852D01*
X93936448Y-94071212D01*
X93909121Y-94017579D01*
X93890521Y-93960336D01*
X93873686Y-93919692D01*
X93867957Y-93890890D01*
X93857691Y-93859295D01*
X93842132Y-93761058D01*
X93833109Y-93715696D01*
X93833109Y-93704088D01*
X93831656Y-93694914D01*
X93831656Y-93528485D01*
X93833109Y-93519310D01*
X93833109Y-93507704D01*
X93842131Y-93462345D01*
X93857691Y-93364104D01*
X93867957Y-93332507D01*
X93873686Y-93303708D01*
X93890520Y-93263067D01*
X93909121Y-93205820D01*
X93936450Y-93152182D01*
X93953282Y-93111548D01*
X93969591Y-93087138D01*
X93984677Y-93057532D01*
X94043152Y-92977047D01*
X94068836Y-92938609D01*
X94077039Y-92930405D01*
X94082502Y-92922887D01*
X94200187Y-92805202D01*
X94207705Y-92799739D01*
X94215909Y-92791536D01*
X94254347Y-92765852D01*
X94334832Y-92707377D01*
X94364438Y-92692291D01*
X94388848Y-92675982D01*
X94429482Y-92659150D01*
X94483120Y-92631821D01*
X94540367Y-92613220D01*
X94581008Y-92596386D01*
X94609807Y-92590657D01*
X94641404Y-92580391D01*
X94739645Y-92564831D01*
X94785004Y-92555809D01*
X94796611Y-92555809D01*
X94805785Y-92554356D01*
X94972215Y-92554356D01*
X94981389Y-92555809D01*
G37*
G36*
X125596032Y-91260644D02*
G01*
X125750159Y-91324485D01*
X125888869Y-91417168D01*
X126006832Y-91535131D01*
X126099515Y-91673841D01*
X126163356Y-91827968D01*
X126195902Y-91991587D01*
X126195902Y-92158413D01*
X126163356Y-92322032D01*
X126099515Y-92476159D01*
X126006832Y-92614869D01*
X125888869Y-92732832D01*
X125750159Y-92825515D01*
X125596032Y-92889356D01*
X125432413Y-92921902D01*
X125265587Y-92921902D01*
X125101968Y-92889356D01*
X124947841Y-92825515D01*
X124809131Y-92732832D01*
X124691168Y-92614869D01*
X124598485Y-92476159D01*
X124534644Y-92322032D01*
X124502098Y-92158413D01*
X124502098Y-91991587D01*
X124534644Y-91827968D01*
X124598485Y-91673841D01*
X124691168Y-91535131D01*
X124809131Y-91417168D01*
X124947841Y-91324485D01*
X125101968Y-91260644D01*
X125265587Y-91228098D01*
X125432413Y-91228098D01*
X125596032Y-91260644D01*
G37*
G36*
X135756032Y-91260644D02*
G01*
X135910159Y-91324485D01*
X136048869Y-91417168D01*
X136166832Y-91535131D01*
X136259515Y-91673841D01*
X136323356Y-91827968D01*
X136355902Y-91991587D01*
X136355902Y-92158413D01*
X136323356Y-92322032D01*
X136259515Y-92476159D01*
X136166832Y-92614869D01*
X136048869Y-92732832D01*
X135910159Y-92825515D01*
X135756032Y-92889356D01*
X135592413Y-92921902D01*
X135425587Y-92921902D01*
X135261968Y-92889356D01*
X135107841Y-92825515D01*
X134969131Y-92732832D01*
X134851168Y-92614869D01*
X134758485Y-92476159D01*
X134694644Y-92322032D01*
X134662098Y-92158413D01*
X134662098Y-91991587D01*
X134694644Y-91827968D01*
X134758485Y-91673841D01*
X134851168Y-91535131D01*
X134969131Y-91417168D01*
X135107841Y-91324485D01*
X135261968Y-91260644D01*
X135425587Y-91228098D01*
X135592413Y-91228098D01*
X135756032Y-91260644D01*
G37*
G36*
X101723517Y-90051582D02*
G01*
X101740062Y-90062638D01*
X101751118Y-90079183D01*
X101755000Y-90098700D01*
X101755000Y-92298700D01*
X101751118Y-92318217D01*
X101740062Y-92334762D01*
X101723517Y-92345818D01*
X101704000Y-92349700D01*
X99504000Y-92349700D01*
X99484483Y-92345818D01*
X99467938Y-92334762D01*
X99456882Y-92318217D01*
X99453000Y-92298700D01*
X99453000Y-90098700D01*
X99456882Y-90079183D01*
X99467938Y-90062638D01*
X99484483Y-90051582D01*
X99504000Y-90047700D01*
X101704000Y-90047700D01*
X101723517Y-90051582D01*
G37*
G36*
X105372696Y-90079502D02*
G01*
X105544469Y-90135315D01*
X105705396Y-90217311D01*
X105851515Y-90323473D01*
X105979227Y-90451185D01*
X106085389Y-90597304D01*
X106167385Y-90758231D01*
X106223198Y-90930004D01*
X106251452Y-91108394D01*
X106251452Y-91289006D01*
X106223198Y-91467396D01*
X106167385Y-91639169D01*
X106085389Y-91800096D01*
X105979227Y-91946215D01*
X105851515Y-92073927D01*
X105705396Y-92180089D01*
X105544469Y-92262085D01*
X105372696Y-92317898D01*
X105194306Y-92346152D01*
X105013694Y-92346152D01*
X104835304Y-92317898D01*
X104663531Y-92262085D01*
X104502604Y-92180089D01*
X104356485Y-92073927D01*
X104228773Y-91946215D01*
X104122611Y-91800096D01*
X104040615Y-91639169D01*
X103984802Y-91467396D01*
X103956548Y-91289006D01*
X103956548Y-91108394D01*
X103984802Y-90930004D01*
X104040615Y-90758231D01*
X104122611Y-90597304D01*
X104228773Y-90451185D01*
X104356485Y-90323473D01*
X104502604Y-90217311D01*
X104663531Y-90135315D01*
X104835304Y-90079502D01*
X105013694Y-90051248D01*
X105194306Y-90051248D01*
X105372696Y-90079502D01*
G37*
G36*
X94981389Y-90015809D02*
G01*
X94992996Y-90015809D01*
X95038356Y-90024831D01*
X95136595Y-90040391D01*
X95168190Y-90050657D01*
X95196992Y-90056386D01*
X95237636Y-90073221D01*
X95294879Y-90091821D01*
X95348512Y-90119148D01*
X95389152Y-90135982D01*
X95413564Y-90152293D01*
X95443167Y-90167377D01*
X95523640Y-90225844D01*
X95562091Y-90251536D01*
X95570297Y-90259742D01*
X95577812Y-90265202D01*
X95695497Y-90382887D01*
X95700956Y-90390401D01*
X95709164Y-90398609D01*
X95734858Y-90437064D01*
X95793322Y-90517532D01*
X95808404Y-90547132D01*
X95824718Y-90571548D01*
X95841553Y-90612192D01*
X95868878Y-90665820D01*
X95887475Y-90723056D01*
X95904314Y-90763708D01*
X95910044Y-90792514D01*
X95920308Y-90824104D01*
X95935866Y-90922335D01*
X95944891Y-90967704D01*
X95944891Y-90979311D01*
X95946344Y-90988485D01*
X95946344Y-91154914D01*
X95944891Y-91164087D01*
X95944891Y-91175696D01*
X95935865Y-91221068D01*
X95920308Y-91319295D01*
X95910044Y-91350882D01*
X95904314Y-91379692D01*
X95887473Y-91420347D01*
X95868878Y-91477579D01*
X95841556Y-91531201D01*
X95824718Y-91571852D01*
X95808401Y-91596270D01*
X95793322Y-91625867D01*
X95734867Y-91706323D01*
X95709164Y-91744791D01*
X95700954Y-91753000D01*
X95695497Y-91760512D01*
X95577812Y-91878197D01*
X95570300Y-91883654D01*
X95562091Y-91891864D01*
X95523623Y-91917567D01*
X95443167Y-91976022D01*
X95413570Y-91991101D01*
X95389152Y-92007418D01*
X95348501Y-92024256D01*
X95294879Y-92051578D01*
X95237647Y-92070173D01*
X95196992Y-92087014D01*
X95168182Y-92092744D01*
X95136595Y-92103008D01*
X95038366Y-92118566D01*
X94992996Y-92127591D01*
X94981389Y-92127591D01*
X94972215Y-92129044D01*
X94805785Y-92129044D01*
X94796611Y-92127591D01*
X94785004Y-92127591D01*
X94739635Y-92118566D01*
X94641404Y-92103008D01*
X94609814Y-92092744D01*
X94581008Y-92087014D01*
X94540356Y-92070175D01*
X94483120Y-92051578D01*
X94429492Y-92024253D01*
X94388848Y-92007418D01*
X94364432Y-91991104D01*
X94334832Y-91976022D01*
X94254364Y-91917558D01*
X94215909Y-91891864D01*
X94207701Y-91883656D01*
X94200187Y-91878197D01*
X94082502Y-91760512D01*
X94077042Y-91752997D01*
X94068836Y-91744791D01*
X94043144Y-91706340D01*
X93984677Y-91625867D01*
X93969593Y-91596264D01*
X93953282Y-91571852D01*
X93936448Y-91531212D01*
X93909121Y-91477579D01*
X93890521Y-91420336D01*
X93873686Y-91379692D01*
X93867957Y-91350890D01*
X93857691Y-91319295D01*
X93842132Y-91221058D01*
X93833109Y-91175696D01*
X93833109Y-91164088D01*
X93831656Y-91154914D01*
X93831656Y-90988485D01*
X93833109Y-90979310D01*
X93833109Y-90967704D01*
X93842131Y-90922345D01*
X93857691Y-90824104D01*
X93867957Y-90792507D01*
X93873686Y-90763708D01*
X93890520Y-90723067D01*
X93909121Y-90665820D01*
X93936450Y-90612182D01*
X93953282Y-90571548D01*
X93969591Y-90547138D01*
X93984677Y-90517532D01*
X94043152Y-90437047D01*
X94068836Y-90398609D01*
X94077039Y-90390405D01*
X94082502Y-90382887D01*
X94200187Y-90265202D01*
X94207705Y-90259739D01*
X94215909Y-90251536D01*
X94254347Y-90225852D01*
X94334832Y-90167377D01*
X94364438Y-90152291D01*
X94388848Y-90135982D01*
X94429482Y-90119150D01*
X94483120Y-90091821D01*
X94540367Y-90073220D01*
X94581008Y-90056386D01*
X94609807Y-90050657D01*
X94641404Y-90040391D01*
X94739645Y-90024831D01*
X94785004Y-90015809D01*
X94796611Y-90015809D01*
X94805785Y-90014356D01*
X94972215Y-90014356D01*
X94981389Y-90015809D01*
G37*
G36*
X157826389Y-89241109D02*
G01*
X157837996Y-89241109D01*
X157883356Y-89250131D01*
X157981595Y-89265691D01*
X158013190Y-89275957D01*
X158041992Y-89281686D01*
X158082636Y-89298521D01*
X158139879Y-89317121D01*
X158193512Y-89344448D01*
X158234152Y-89361282D01*
X158258564Y-89377593D01*
X158288167Y-89392677D01*
X158368640Y-89451144D01*
X158407091Y-89476836D01*
X158415297Y-89485042D01*
X158422812Y-89490502D01*
X158540497Y-89608187D01*
X158545956Y-89615701D01*
X158554164Y-89623909D01*
X158579858Y-89662364D01*
X158638322Y-89742832D01*
X158653404Y-89772432D01*
X158669718Y-89796848D01*
X158686553Y-89837492D01*
X158713878Y-89891120D01*
X158732475Y-89948356D01*
X158749314Y-89989008D01*
X158755044Y-90017814D01*
X158765308Y-90049404D01*
X158780866Y-90147635D01*
X158789891Y-90193004D01*
X158789891Y-90204611D01*
X158791344Y-90213785D01*
X158791344Y-90380214D01*
X158789891Y-90389387D01*
X158789891Y-90400996D01*
X158780865Y-90446368D01*
X158765308Y-90544595D01*
X158755044Y-90576182D01*
X158749314Y-90604992D01*
X158732473Y-90645647D01*
X158713878Y-90702879D01*
X158686556Y-90756501D01*
X158669718Y-90797152D01*
X158653401Y-90821570D01*
X158638322Y-90851167D01*
X158579867Y-90931623D01*
X158554164Y-90970091D01*
X158545954Y-90978300D01*
X158540497Y-90985812D01*
X158422812Y-91103497D01*
X158415300Y-91108954D01*
X158407091Y-91117164D01*
X158368623Y-91142867D01*
X158288167Y-91201322D01*
X158258570Y-91216401D01*
X158234152Y-91232718D01*
X158193501Y-91249556D01*
X158139879Y-91276878D01*
X158082647Y-91295473D01*
X158041992Y-91312314D01*
X158013182Y-91318044D01*
X157981595Y-91328308D01*
X157883366Y-91343866D01*
X157837996Y-91352891D01*
X157826389Y-91352891D01*
X157817215Y-91354344D01*
X157650785Y-91354344D01*
X157641611Y-91352891D01*
X157630004Y-91352891D01*
X157584635Y-91343866D01*
X157486404Y-91328308D01*
X157454814Y-91318044D01*
X157426008Y-91312314D01*
X157385356Y-91295475D01*
X157328120Y-91276878D01*
X157274492Y-91249553D01*
X157233848Y-91232718D01*
X157209432Y-91216404D01*
X157179832Y-91201322D01*
X157099364Y-91142858D01*
X157060909Y-91117164D01*
X157052701Y-91108956D01*
X157045187Y-91103497D01*
X156927502Y-90985812D01*
X156922042Y-90978297D01*
X156913836Y-90970091D01*
X156888144Y-90931640D01*
X156829677Y-90851167D01*
X156814593Y-90821564D01*
X156798282Y-90797152D01*
X156781448Y-90756512D01*
X156754121Y-90702879D01*
X156735521Y-90645636D01*
X156718686Y-90604992D01*
X156712957Y-90576190D01*
X156702691Y-90544595D01*
X156687132Y-90446358D01*
X156678109Y-90400996D01*
X156678109Y-90389388D01*
X156676656Y-90380214D01*
X156676656Y-90213785D01*
X156678109Y-90204610D01*
X156678109Y-90193004D01*
X156687131Y-90147645D01*
X156702691Y-90049404D01*
X156712957Y-90017807D01*
X156718686Y-89989008D01*
X156735520Y-89948367D01*
X156754121Y-89891120D01*
X156781450Y-89837482D01*
X156798282Y-89796848D01*
X156814591Y-89772438D01*
X156829677Y-89742832D01*
X156888152Y-89662347D01*
X156913836Y-89623909D01*
X156922039Y-89615705D01*
X156927502Y-89608187D01*
X157045187Y-89490502D01*
X157052705Y-89485039D01*
X157060909Y-89476836D01*
X157099347Y-89451152D01*
X157179832Y-89392677D01*
X157209438Y-89377591D01*
X157233848Y-89361282D01*
X157274482Y-89344450D01*
X157328120Y-89317121D01*
X157385367Y-89298520D01*
X157426008Y-89281686D01*
X157454807Y-89275957D01*
X157486404Y-89265691D01*
X157584645Y-89250131D01*
X157630004Y-89241109D01*
X157641611Y-89241109D01*
X157650785Y-89239656D01*
X157817215Y-89239656D01*
X157826389Y-89241109D01*
G37*
G36*
X141327517Y-86863882D02*
G01*
X141344062Y-86874938D01*
X141355118Y-86891483D01*
X141359000Y-86911000D01*
X141359000Y-89111000D01*
X141355118Y-89130517D01*
X141344062Y-89147062D01*
X141327517Y-89158118D01*
X141308000Y-89162000D01*
X139108000Y-89162000D01*
X139088483Y-89158118D01*
X139071938Y-89147062D01*
X139060882Y-89130517D01*
X139057000Y-89111000D01*
X139057000Y-86911000D01*
X139060882Y-86891483D01*
X139071938Y-86874938D01*
X139088483Y-86863882D01*
X139108000Y-86860000D01*
X141308000Y-86860000D01*
X141327517Y-86863882D01*
G37*
G36*
X146407517Y-86863882D02*
G01*
X146424062Y-86874938D01*
X146435118Y-86891483D01*
X146439000Y-86911000D01*
X146439000Y-89111000D01*
X146435118Y-89130517D01*
X146424062Y-89147062D01*
X146407517Y-89158118D01*
X146388000Y-89162000D01*
X144188000Y-89162000D01*
X144168483Y-89158118D01*
X144151938Y-89147062D01*
X144140882Y-89130517D01*
X144137000Y-89111000D01*
X144137000Y-86911000D01*
X144140882Y-86891483D01*
X144151938Y-86874938D01*
X144168483Y-86863882D01*
X144188000Y-86860000D01*
X146388000Y-86860000D01*
X146407517Y-86863882D01*
G37*
G36*
X157826389Y-86701109D02*
G01*
X157837996Y-86701109D01*
X157883356Y-86710131D01*
X157981595Y-86725691D01*
X158013190Y-86735957D01*
X158041992Y-86741686D01*
X158082636Y-86758521D01*
X158139879Y-86777121D01*
X158193512Y-86804448D01*
X158234152Y-86821282D01*
X158258564Y-86837593D01*
X158288167Y-86852677D01*
X158368640Y-86911144D01*
X158407091Y-86936836D01*
X158415297Y-86945042D01*
X158422812Y-86950502D01*
X158540497Y-87068187D01*
X158545956Y-87075701D01*
X158554164Y-87083909D01*
X158579858Y-87122364D01*
X158638322Y-87202832D01*
X158653404Y-87232432D01*
X158669718Y-87256848D01*
X158686553Y-87297492D01*
X158713878Y-87351120D01*
X158732475Y-87408356D01*
X158749314Y-87449008D01*
X158755044Y-87477814D01*
X158765308Y-87509404D01*
X158780866Y-87607635D01*
X158789891Y-87653004D01*
X158789891Y-87664611D01*
X158791344Y-87673785D01*
X158791344Y-87840214D01*
X158789891Y-87849387D01*
X158789891Y-87860996D01*
X158780865Y-87906368D01*
X158765308Y-88004595D01*
X158755044Y-88036182D01*
X158749314Y-88064992D01*
X158732473Y-88105647D01*
X158713878Y-88162879D01*
X158686556Y-88216501D01*
X158669718Y-88257152D01*
X158653401Y-88281570D01*
X158638322Y-88311167D01*
X158579867Y-88391623D01*
X158554164Y-88430091D01*
X158545954Y-88438300D01*
X158540497Y-88445812D01*
X158422812Y-88563497D01*
X158415300Y-88568954D01*
X158407091Y-88577164D01*
X158368623Y-88602867D01*
X158288167Y-88661322D01*
X158258570Y-88676401D01*
X158234152Y-88692718D01*
X158193501Y-88709556D01*
X158139879Y-88736878D01*
X158082647Y-88755473D01*
X158041992Y-88772314D01*
X158013182Y-88778044D01*
X157981595Y-88788308D01*
X157883366Y-88803866D01*
X157837996Y-88812891D01*
X157826389Y-88812891D01*
X157817215Y-88814344D01*
X157650785Y-88814344D01*
X157641611Y-88812891D01*
X157630004Y-88812891D01*
X157584635Y-88803866D01*
X157486404Y-88788308D01*
X157454814Y-88778044D01*
X157426008Y-88772314D01*
X157385356Y-88755475D01*
X157328120Y-88736878D01*
X157274492Y-88709553D01*
X157233848Y-88692718D01*
X157209432Y-88676404D01*
X157179832Y-88661322D01*
X157099364Y-88602858D01*
X157060909Y-88577164D01*
X157052701Y-88568956D01*
X157045187Y-88563497D01*
X156927502Y-88445812D01*
X156922042Y-88438297D01*
X156913836Y-88430091D01*
X156888144Y-88391640D01*
X156829677Y-88311167D01*
X156814593Y-88281564D01*
X156798282Y-88257152D01*
X156781448Y-88216512D01*
X156754121Y-88162879D01*
X156735521Y-88105636D01*
X156718686Y-88064992D01*
X156712957Y-88036190D01*
X156702691Y-88004595D01*
X156687132Y-87906358D01*
X156678109Y-87860996D01*
X156678109Y-87849388D01*
X156676656Y-87840214D01*
X156676656Y-87673785D01*
X156678109Y-87664610D01*
X156678109Y-87653004D01*
X156687131Y-87607645D01*
X156702691Y-87509404D01*
X156712957Y-87477807D01*
X156718686Y-87449008D01*
X156735520Y-87408367D01*
X156754121Y-87351120D01*
X156781450Y-87297482D01*
X156798282Y-87256848D01*
X156814591Y-87232438D01*
X156829677Y-87202832D01*
X156888152Y-87122347D01*
X156913836Y-87083909D01*
X156922039Y-87075705D01*
X156927502Y-87068187D01*
X157045187Y-86950502D01*
X157052705Y-86945039D01*
X157060909Y-86936836D01*
X157099347Y-86911152D01*
X157179832Y-86852677D01*
X157209438Y-86837591D01*
X157233848Y-86821282D01*
X157274482Y-86804450D01*
X157328120Y-86777121D01*
X157385367Y-86758520D01*
X157426008Y-86741686D01*
X157454807Y-86735957D01*
X157486404Y-86725691D01*
X157584645Y-86710131D01*
X157630004Y-86701109D01*
X157641611Y-86701109D01*
X157650785Y-86699656D01*
X157817215Y-86699656D01*
X157826389Y-86701109D01*
G37*
G36*
X157826389Y-84161109D02*
G01*
X157837996Y-84161109D01*
X157883356Y-84170131D01*
X157981595Y-84185691D01*
X158013190Y-84195957D01*
X158041992Y-84201686D01*
X158082636Y-84218521D01*
X158139879Y-84237121D01*
X158193512Y-84264448D01*
X158234152Y-84281282D01*
X158258564Y-84297593D01*
X158288167Y-84312677D01*
X158368640Y-84371144D01*
X158407091Y-84396836D01*
X158415297Y-84405042D01*
X158422812Y-84410502D01*
X158540497Y-84528187D01*
X158545956Y-84535701D01*
X158554164Y-84543909D01*
X158579858Y-84582364D01*
X158638322Y-84662832D01*
X158653404Y-84692432D01*
X158669718Y-84716848D01*
X158686553Y-84757492D01*
X158713878Y-84811120D01*
X158732475Y-84868356D01*
X158749314Y-84909008D01*
X158755044Y-84937814D01*
X158765308Y-84969404D01*
X158780866Y-85067635D01*
X158789891Y-85113004D01*
X158789891Y-85124611D01*
X158791344Y-85133785D01*
X158791344Y-85300214D01*
X158789891Y-85309387D01*
X158789891Y-85320996D01*
X158780865Y-85366368D01*
X158765308Y-85464595D01*
X158755044Y-85496182D01*
X158749314Y-85524992D01*
X158732473Y-85565647D01*
X158713878Y-85622879D01*
X158686556Y-85676501D01*
X158669718Y-85717152D01*
X158653401Y-85741570D01*
X158638322Y-85771167D01*
X158579867Y-85851623D01*
X158554164Y-85890091D01*
X158545954Y-85898300D01*
X158540497Y-85905812D01*
X158422812Y-86023497D01*
X158415300Y-86028954D01*
X158407091Y-86037164D01*
X158368623Y-86062867D01*
X158288167Y-86121322D01*
X158258570Y-86136401D01*
X158234152Y-86152718D01*
X158193501Y-86169556D01*
X158139879Y-86196878D01*
X158082647Y-86215473D01*
X158041992Y-86232314D01*
X158013182Y-86238044D01*
X157981595Y-86248308D01*
X157883366Y-86263866D01*
X157837996Y-86272891D01*
X157826389Y-86272891D01*
X157817215Y-86274344D01*
X157650785Y-86274344D01*
X157641611Y-86272891D01*
X157630004Y-86272891D01*
X157584635Y-86263866D01*
X157486404Y-86248308D01*
X157454814Y-86238044D01*
X157426008Y-86232314D01*
X157385356Y-86215475D01*
X157328120Y-86196878D01*
X157274492Y-86169553D01*
X157233848Y-86152718D01*
X157209432Y-86136404D01*
X157179832Y-86121322D01*
X157099364Y-86062858D01*
X157060909Y-86037164D01*
X157052701Y-86028956D01*
X157045187Y-86023497D01*
X156927502Y-85905812D01*
X156922042Y-85898297D01*
X156913836Y-85890091D01*
X156888144Y-85851640D01*
X156829677Y-85771167D01*
X156814593Y-85741564D01*
X156798282Y-85717152D01*
X156781448Y-85676512D01*
X156754121Y-85622879D01*
X156735521Y-85565636D01*
X156718686Y-85524992D01*
X156712957Y-85496190D01*
X156702691Y-85464595D01*
X156687132Y-85366358D01*
X156678109Y-85320996D01*
X156678109Y-85309388D01*
X156676656Y-85300214D01*
X156676656Y-85133785D01*
X156678109Y-85124610D01*
X156678109Y-85113004D01*
X156687131Y-85067645D01*
X156702691Y-84969404D01*
X156712957Y-84937807D01*
X156718686Y-84909008D01*
X156735520Y-84868367D01*
X156754121Y-84811120D01*
X156781450Y-84757482D01*
X156798282Y-84716848D01*
X156814591Y-84692438D01*
X156829677Y-84662832D01*
X156888152Y-84582347D01*
X156913836Y-84543909D01*
X156922039Y-84535705D01*
X156927502Y-84528187D01*
X157045187Y-84410502D01*
X157052705Y-84405039D01*
X157060909Y-84396836D01*
X157099347Y-84371152D01*
X157179832Y-84312677D01*
X157209438Y-84297591D01*
X157233848Y-84281282D01*
X157274482Y-84264450D01*
X157328120Y-84237121D01*
X157385367Y-84218520D01*
X157426008Y-84201686D01*
X157454807Y-84195957D01*
X157486404Y-84185691D01*
X157584645Y-84170131D01*
X157630004Y-84161109D01*
X157641611Y-84161109D01*
X157650785Y-84159656D01*
X157817215Y-84159656D01*
X157826389Y-84161109D01*
G37*
G36*
X109365188Y-83971912D02*
G01*
X109433237Y-84011201D01*
X109488799Y-84066763D01*
X109528088Y-84134812D01*
X109548425Y-84210712D01*
X109548425Y-84289288D01*
X109528088Y-84365188D01*
X109488799Y-84433237D01*
X109433237Y-84488799D01*
X109365188Y-84528088D01*
X109361192Y-84529158D01*
X109320191Y-84552831D01*
X109320191Y-84697169D01*
X109361194Y-84720841D01*
X109365188Y-84721912D01*
X109433237Y-84761201D01*
X109488799Y-84816763D01*
X109528088Y-84884812D01*
X109548425Y-84960712D01*
X109548425Y-85039288D01*
X109528088Y-85115188D01*
X109488799Y-85183237D01*
X109433237Y-85238799D01*
X109365188Y-85278088D01*
X109361192Y-85279158D01*
X109320191Y-85302831D01*
X109320191Y-85447169D01*
X109361194Y-85470841D01*
X109365188Y-85471912D01*
X109433237Y-85511201D01*
X109488799Y-85566763D01*
X109528088Y-85634812D01*
X109548425Y-85710712D01*
X109548425Y-85789288D01*
X109528088Y-85865188D01*
X109488799Y-85933237D01*
X109433237Y-85988799D01*
X109365188Y-86028088D01*
X109289288Y-86048425D01*
X109210712Y-86048425D01*
X109134812Y-86028088D01*
X109066763Y-85988799D01*
X109011201Y-85933237D01*
X108971912Y-85865188D01*
X108951575Y-85789288D01*
X108951575Y-85710712D01*
X108971912Y-85634812D01*
X109011201Y-85566763D01*
X109066763Y-85511201D01*
X109134812Y-85471912D01*
X109138800Y-85470843D01*
X109179808Y-85447168D01*
X109179808Y-85302832D01*
X109138802Y-85279157D01*
X109134812Y-85278088D01*
X109066763Y-85238799D01*
X109011201Y-85183237D01*
X108971912Y-85115188D01*
X108951575Y-85039288D01*
X108951575Y-84960712D01*
X108971912Y-84884812D01*
X109011201Y-84816763D01*
X109066763Y-84761201D01*
X109134812Y-84721912D01*
X109138800Y-84720843D01*
X109179808Y-84697168D01*
X109179808Y-84552832D01*
X109138802Y-84529157D01*
X109134812Y-84528088D01*
X109066763Y-84488799D01*
X109011201Y-84433237D01*
X108971912Y-84365188D01*
X108951575Y-84289288D01*
X108951575Y-84210712D01*
X108971912Y-84134812D01*
X109011201Y-84066763D01*
X109066763Y-84011201D01*
X109134812Y-83971912D01*
X109210712Y-83951575D01*
X109289288Y-83951575D01*
X109365188Y-83971912D01*
G37*
G36*
X110865188Y-83971912D02*
G01*
X110933237Y-84011201D01*
X110988799Y-84066763D01*
X111028088Y-84134812D01*
X111048425Y-84210712D01*
X111048425Y-84289288D01*
X111028088Y-84365188D01*
X110988799Y-84433237D01*
X110933237Y-84488799D01*
X110865188Y-84528088D01*
X110861192Y-84529158D01*
X110820191Y-84552831D01*
X110820191Y-84697169D01*
X110861194Y-84720841D01*
X110865188Y-84721912D01*
X110933237Y-84761201D01*
X110988799Y-84816763D01*
X111028088Y-84884812D01*
X111048425Y-84960712D01*
X111048425Y-85039288D01*
X111028088Y-85115188D01*
X110988799Y-85183237D01*
X110933237Y-85238799D01*
X110865188Y-85278088D01*
X110861192Y-85279158D01*
X110820191Y-85302831D01*
X110820191Y-85447169D01*
X110861194Y-85470841D01*
X110865188Y-85471912D01*
X110933237Y-85511201D01*
X110988799Y-85566763D01*
X111028088Y-85634812D01*
X111048425Y-85710712D01*
X111048425Y-85789288D01*
X111028088Y-85865188D01*
X110988799Y-85933237D01*
X110933237Y-85988799D01*
X110865188Y-86028088D01*
X110789288Y-86048425D01*
X110710712Y-86048425D01*
X110634812Y-86028088D01*
X110566763Y-85988799D01*
X110511201Y-85933237D01*
X110471912Y-85865188D01*
X110451575Y-85789288D01*
X110451575Y-85710712D01*
X110471912Y-85634812D01*
X110511201Y-85566763D01*
X110566763Y-85511201D01*
X110634812Y-85471912D01*
X110638800Y-85470843D01*
X110679808Y-85447168D01*
X110679808Y-85302832D01*
X110638802Y-85279157D01*
X110634812Y-85278088D01*
X110566763Y-85238799D01*
X110511201Y-85183237D01*
X110471912Y-85115188D01*
X110451575Y-85039288D01*
X110451575Y-84960712D01*
X110471912Y-84884812D01*
X110511201Y-84816763D01*
X110566763Y-84761201D01*
X110634812Y-84721912D01*
X110638800Y-84720843D01*
X110679808Y-84697168D01*
X110679808Y-84552832D01*
X110638802Y-84529157D01*
X110634812Y-84528088D01*
X110566763Y-84488799D01*
X110511201Y-84433237D01*
X110471912Y-84365188D01*
X110451575Y-84289288D01*
X110451575Y-84210712D01*
X110471912Y-84134812D01*
X110511201Y-84066763D01*
X110566763Y-84011201D01*
X110634812Y-83971912D01*
X110710712Y-83951575D01*
X110789288Y-83951575D01*
X110865188Y-83971912D01*
G37*
G36*
X100872696Y-83579502D02*
G01*
X101044469Y-83635315D01*
X101205396Y-83717311D01*
X101351515Y-83823473D01*
X101479227Y-83951185D01*
X101585389Y-84097304D01*
X101667385Y-84258231D01*
X101723198Y-84430004D01*
X101751452Y-84608394D01*
X101751452Y-84789006D01*
X101723198Y-84967396D01*
X101667385Y-85139169D01*
X101585389Y-85300096D01*
X101479227Y-85446215D01*
X101351515Y-85573927D01*
X101205396Y-85680089D01*
X101044469Y-85762085D01*
X100872696Y-85817898D01*
X100694306Y-85846152D01*
X100513694Y-85846152D01*
X100335304Y-85817898D01*
X100163531Y-85762085D01*
X100002604Y-85680089D01*
X99856485Y-85573927D01*
X99728773Y-85446215D01*
X99622611Y-85300096D01*
X99540615Y-85139169D01*
X99484802Y-84967396D01*
X99456548Y-84789006D01*
X99456548Y-84608394D01*
X99484802Y-84430004D01*
X99540615Y-84258231D01*
X99622611Y-84097304D01*
X99728773Y-83951185D01*
X99856485Y-83823473D01*
X100002604Y-83717311D01*
X100163531Y-83635315D01*
X100335304Y-83579502D01*
X100513694Y-83551248D01*
X100694306Y-83551248D01*
X100872696Y-83579502D01*
G37*
G36*
X105372696Y-83579502D02*
G01*
X105544469Y-83635315D01*
X105705396Y-83717311D01*
X105851515Y-83823473D01*
X105979227Y-83951185D01*
X106085389Y-84097304D01*
X106167385Y-84258231D01*
X106223198Y-84430004D01*
X106251452Y-84608394D01*
X106251452Y-84789006D01*
X106223198Y-84967396D01*
X106167385Y-85139169D01*
X106085389Y-85300096D01*
X105979227Y-85446215D01*
X105851515Y-85573927D01*
X105705396Y-85680089D01*
X105544469Y-85762085D01*
X105372696Y-85817898D01*
X105194306Y-85846152D01*
X105013694Y-85846152D01*
X104835304Y-85817898D01*
X104663531Y-85762085D01*
X104502604Y-85680089D01*
X104356485Y-85573927D01*
X104228773Y-85446215D01*
X104122611Y-85300096D01*
X104040615Y-85139169D01*
X103984802Y-84967396D01*
X103956548Y-84789006D01*
X103956548Y-84608394D01*
X103984802Y-84430004D01*
X104040615Y-84258231D01*
X104122611Y-84097304D01*
X104228773Y-83951185D01*
X104356485Y-83823473D01*
X104502604Y-83717311D01*
X104663531Y-83635315D01*
X104835304Y-83579502D01*
X105013694Y-83551248D01*
X105194306Y-83551248D01*
X105372696Y-83579502D01*
G37*
G36*
X125374554Y-82176604D02*
G01*
X125385215Y-82176604D01*
X125426866Y-82184889D01*
X125513917Y-82198676D01*
X125541919Y-82207774D01*
X125568062Y-82212975D01*
X125604957Y-82228257D01*
X125655785Y-82244773D01*
X125703400Y-82269034D01*
X125740299Y-82284318D01*
X125762464Y-82299128D01*
X125788694Y-82312493D01*
X125859991Y-82364293D01*
X125895309Y-82387892D01*
X125902847Y-82395430D01*
X125909371Y-82400170D01*
X126014855Y-82505654D01*
X126019594Y-82512177D01*
X126027134Y-82519717D01*
X126050735Y-82555039D01*
X126102532Y-82626331D01*
X126115895Y-82652558D01*
X126130708Y-82674727D01*
X126145994Y-82711630D01*
X126170252Y-82759240D01*
X126186765Y-82810060D01*
X126202051Y-82846964D01*
X126207252Y-82873111D01*
X126216349Y-82901108D01*
X126230135Y-82988150D01*
X126238422Y-83029811D01*
X126238422Y-83040472D01*
X126239684Y-83048440D01*
X126239684Y-83197609D01*
X126238422Y-83205576D01*
X126238422Y-83216239D01*
X126230134Y-83257902D01*
X126216349Y-83344941D01*
X126207252Y-83372935D01*
X126202051Y-83399086D01*
X126186763Y-83435993D01*
X126170252Y-83486809D01*
X126145996Y-83534413D01*
X126130708Y-83571323D01*
X126115893Y-83593495D01*
X126102532Y-83619718D01*
X126050743Y-83690998D01*
X126027134Y-83726333D01*
X126019592Y-83733874D01*
X126014855Y-83740395D01*
X125909371Y-83845879D01*
X125902850Y-83850616D01*
X125895309Y-83858158D01*
X125859974Y-83881767D01*
X125788694Y-83933556D01*
X125762471Y-83946917D01*
X125740299Y-83961732D01*
X125703389Y-83977020D01*
X125655785Y-84001276D01*
X125604969Y-84017787D01*
X125568062Y-84033075D01*
X125541911Y-84038276D01*
X125513917Y-84047373D01*
X125426876Y-84061158D01*
X125385215Y-84069446D01*
X125374554Y-84069446D01*
X125366586Y-84070708D01*
X125217416Y-84070708D01*
X125209448Y-84069446D01*
X125198787Y-84069446D01*
X125157126Y-84061159D01*
X125070084Y-84047373D01*
X125042087Y-84038276D01*
X125015940Y-84033075D01*
X124979036Y-84017789D01*
X124928216Y-84001276D01*
X124880606Y-83977018D01*
X124843703Y-83961732D01*
X124821534Y-83946919D01*
X124795307Y-83933556D01*
X124724015Y-83881759D01*
X124688693Y-83858158D01*
X124681153Y-83850618D01*
X124674630Y-83845879D01*
X124569146Y-83740395D01*
X124564406Y-83733871D01*
X124556868Y-83726333D01*
X124533269Y-83691015D01*
X124481469Y-83619718D01*
X124468104Y-83593488D01*
X124453294Y-83571323D01*
X124438010Y-83534424D01*
X124413749Y-83486809D01*
X124397233Y-83435981D01*
X124381951Y-83399086D01*
X124376750Y-83372943D01*
X124367652Y-83344941D01*
X124353865Y-83257892D01*
X124345580Y-83216239D01*
X124345580Y-83205577D01*
X124344318Y-83197609D01*
X124344318Y-83048440D01*
X124345580Y-83040471D01*
X124345580Y-83029811D01*
X124353864Y-82988161D01*
X124367652Y-82901108D01*
X124376751Y-82873103D01*
X124381951Y-82846964D01*
X124397232Y-82810071D01*
X124413749Y-82759240D01*
X124438012Y-82711620D01*
X124453294Y-82674727D01*
X124468102Y-82652564D01*
X124481469Y-82626331D01*
X124533278Y-82555021D01*
X124556868Y-82519717D01*
X124564403Y-82512181D01*
X124569146Y-82505654D01*
X124674630Y-82400170D01*
X124681157Y-82395427D01*
X124688693Y-82387892D01*
X124723997Y-82364302D01*
X124795307Y-82312493D01*
X124821540Y-82299126D01*
X124843703Y-82284318D01*
X124880596Y-82269036D01*
X124928216Y-82244773D01*
X124979047Y-82228256D01*
X125015940Y-82212975D01*
X125042079Y-82207775D01*
X125070084Y-82198676D01*
X125157137Y-82184888D01*
X125198787Y-82176604D01*
X125209448Y-82176604D01*
X125217416Y-82175342D01*
X125366586Y-82175342D01*
X125374554Y-82176604D01*
G37*
G36*
X127914554Y-82176604D02*
G01*
X127925215Y-82176604D01*
X127966866Y-82184889D01*
X128053917Y-82198676D01*
X128081919Y-82207774D01*
X128108062Y-82212975D01*
X128144957Y-82228257D01*
X128195785Y-82244773D01*
X128243400Y-82269034D01*
X128280299Y-82284318D01*
X128302464Y-82299128D01*
X128328694Y-82312493D01*
X128399991Y-82364293D01*
X128435309Y-82387892D01*
X128442847Y-82395430D01*
X128449371Y-82400170D01*
X128554855Y-82505654D01*
X128559594Y-82512177D01*
X128567134Y-82519717D01*
X128590735Y-82555039D01*
X128642532Y-82626331D01*
X128655895Y-82652558D01*
X128670708Y-82674727D01*
X128685994Y-82711630D01*
X128710252Y-82759240D01*
X128726765Y-82810060D01*
X128742051Y-82846964D01*
X128747252Y-82873111D01*
X128756349Y-82901108D01*
X128770135Y-82988150D01*
X128778422Y-83029811D01*
X128778422Y-83040472D01*
X128779684Y-83048440D01*
X128779684Y-83197609D01*
X128778422Y-83205576D01*
X128778422Y-83216239D01*
X128770134Y-83257902D01*
X128756349Y-83344941D01*
X128747252Y-83372935D01*
X128742051Y-83399086D01*
X128726763Y-83435993D01*
X128710252Y-83486809D01*
X128685996Y-83534413D01*
X128670708Y-83571323D01*
X128655893Y-83593495D01*
X128642532Y-83619718D01*
X128590743Y-83690998D01*
X128567134Y-83726333D01*
X128559592Y-83733874D01*
X128554855Y-83740395D01*
X128449371Y-83845879D01*
X128442850Y-83850616D01*
X128435309Y-83858158D01*
X128399974Y-83881767D01*
X128328694Y-83933556D01*
X128302471Y-83946917D01*
X128280299Y-83961732D01*
X128243389Y-83977020D01*
X128195785Y-84001276D01*
X128144969Y-84017787D01*
X128108062Y-84033075D01*
X128081911Y-84038276D01*
X128053917Y-84047373D01*
X127966876Y-84061158D01*
X127925215Y-84069446D01*
X127914554Y-84069446D01*
X127906586Y-84070708D01*
X127757416Y-84070708D01*
X127749448Y-84069446D01*
X127738787Y-84069446D01*
X127697126Y-84061159D01*
X127610084Y-84047373D01*
X127582087Y-84038276D01*
X127555940Y-84033075D01*
X127519036Y-84017789D01*
X127468216Y-84001276D01*
X127420606Y-83977018D01*
X127383703Y-83961732D01*
X127361534Y-83946919D01*
X127335307Y-83933556D01*
X127264015Y-83881759D01*
X127228693Y-83858158D01*
X127221153Y-83850618D01*
X127214630Y-83845879D01*
X127109146Y-83740395D01*
X127104406Y-83733871D01*
X127096868Y-83726333D01*
X127073269Y-83691015D01*
X127021469Y-83619718D01*
X127008104Y-83593488D01*
X126993294Y-83571323D01*
X126978010Y-83534424D01*
X126953749Y-83486809D01*
X126937233Y-83435981D01*
X126921951Y-83399086D01*
X126916750Y-83372943D01*
X126907652Y-83344941D01*
X126893865Y-83257892D01*
X126885580Y-83216239D01*
X126885580Y-83205577D01*
X126884318Y-83197609D01*
X126884318Y-83048440D01*
X126885580Y-83040471D01*
X126885580Y-83029811D01*
X126893864Y-82988161D01*
X126907652Y-82901108D01*
X126916751Y-82873103D01*
X126921951Y-82846964D01*
X126937232Y-82810071D01*
X126953749Y-82759240D01*
X126978012Y-82711620D01*
X126993294Y-82674727D01*
X127008102Y-82652564D01*
X127021469Y-82626331D01*
X127073278Y-82555021D01*
X127096868Y-82519717D01*
X127104403Y-82512181D01*
X127109146Y-82505654D01*
X127214630Y-82400170D01*
X127221157Y-82395427D01*
X127228693Y-82387892D01*
X127263997Y-82364302D01*
X127335307Y-82312493D01*
X127361540Y-82299126D01*
X127383703Y-82284318D01*
X127420596Y-82269036D01*
X127468216Y-82244773D01*
X127519047Y-82228256D01*
X127555940Y-82212975D01*
X127582079Y-82207775D01*
X127610084Y-82198676D01*
X127697137Y-82184888D01*
X127738787Y-82176604D01*
X127749448Y-82176604D01*
X127757416Y-82175342D01*
X127906586Y-82175342D01*
X127914554Y-82176604D01*
G37*
G36*
X130454554Y-82176604D02*
G01*
X130465215Y-82176604D01*
X130506866Y-82184889D01*
X130593917Y-82198676D01*
X130621919Y-82207774D01*
X130648062Y-82212975D01*
X130684957Y-82228257D01*
X130735785Y-82244773D01*
X130783400Y-82269034D01*
X130820299Y-82284318D01*
X130842464Y-82299128D01*
X130868694Y-82312493D01*
X130939991Y-82364293D01*
X130975309Y-82387892D01*
X130982847Y-82395430D01*
X130989371Y-82400170D01*
X131094855Y-82505654D01*
X131099594Y-82512177D01*
X131107134Y-82519717D01*
X131130735Y-82555039D01*
X131182532Y-82626331D01*
X131195895Y-82652558D01*
X131210708Y-82674727D01*
X131225994Y-82711630D01*
X131250252Y-82759240D01*
X131266765Y-82810060D01*
X131282051Y-82846964D01*
X131287252Y-82873111D01*
X131296349Y-82901108D01*
X131310135Y-82988150D01*
X131318422Y-83029811D01*
X131318422Y-83040472D01*
X131319684Y-83048440D01*
X131319684Y-83197609D01*
X131318422Y-83205576D01*
X131318422Y-83216239D01*
X131310134Y-83257902D01*
X131296349Y-83344941D01*
X131287252Y-83372935D01*
X131282051Y-83399086D01*
X131266763Y-83435993D01*
X131250252Y-83486809D01*
X131225996Y-83534413D01*
X131210708Y-83571323D01*
X131195893Y-83593495D01*
X131182532Y-83619718D01*
X131130743Y-83690998D01*
X131107134Y-83726333D01*
X131099592Y-83733874D01*
X131094855Y-83740395D01*
X130989371Y-83845879D01*
X130982850Y-83850616D01*
X130975309Y-83858158D01*
X130939974Y-83881767D01*
X130868694Y-83933556D01*
X130842471Y-83946917D01*
X130820299Y-83961732D01*
X130783389Y-83977020D01*
X130735785Y-84001276D01*
X130684969Y-84017787D01*
X130648062Y-84033075D01*
X130621911Y-84038276D01*
X130593917Y-84047373D01*
X130506876Y-84061158D01*
X130465215Y-84069446D01*
X130454554Y-84069446D01*
X130446586Y-84070708D01*
X130297416Y-84070708D01*
X130289448Y-84069446D01*
X130278787Y-84069446D01*
X130237126Y-84061159D01*
X130150084Y-84047373D01*
X130122087Y-84038276D01*
X130095940Y-84033075D01*
X130059036Y-84017789D01*
X130008216Y-84001276D01*
X129960606Y-83977018D01*
X129923703Y-83961732D01*
X129901534Y-83946919D01*
X129875307Y-83933556D01*
X129804015Y-83881759D01*
X129768693Y-83858158D01*
X129761153Y-83850618D01*
X129754630Y-83845879D01*
X129649146Y-83740395D01*
X129644406Y-83733871D01*
X129636868Y-83726333D01*
X129613269Y-83691015D01*
X129561469Y-83619718D01*
X129548104Y-83593488D01*
X129533294Y-83571323D01*
X129518010Y-83534424D01*
X129493749Y-83486809D01*
X129477233Y-83435981D01*
X129461951Y-83399086D01*
X129456750Y-83372943D01*
X129447652Y-83344941D01*
X129433865Y-83257892D01*
X129425580Y-83216239D01*
X129425580Y-83205577D01*
X129424318Y-83197609D01*
X129424318Y-83048440D01*
X129425580Y-83040471D01*
X129425580Y-83029811D01*
X129433864Y-82988161D01*
X129447652Y-82901108D01*
X129456751Y-82873103D01*
X129461951Y-82846964D01*
X129477232Y-82810071D01*
X129493749Y-82759240D01*
X129518012Y-82711620D01*
X129533294Y-82674727D01*
X129548102Y-82652564D01*
X129561469Y-82626331D01*
X129613278Y-82555021D01*
X129636868Y-82519717D01*
X129644403Y-82512181D01*
X129649146Y-82505654D01*
X129754630Y-82400170D01*
X129761157Y-82395427D01*
X129768693Y-82387892D01*
X129803997Y-82364302D01*
X129875307Y-82312493D01*
X129901540Y-82299126D01*
X129923703Y-82284318D01*
X129960596Y-82269036D01*
X130008216Y-82244773D01*
X130059047Y-82228256D01*
X130095940Y-82212975D01*
X130122079Y-82207775D01*
X130150084Y-82198676D01*
X130237137Y-82184888D01*
X130278787Y-82176604D01*
X130289448Y-82176604D01*
X130297416Y-82175342D01*
X130446586Y-82175342D01*
X130454554Y-82176604D01*
G37*
G36*
X132994554Y-82176604D02*
G01*
X133005215Y-82176604D01*
X133046866Y-82184889D01*
X133133917Y-82198676D01*
X133161919Y-82207774D01*
X133188062Y-82212975D01*
X133224957Y-82228257D01*
X133275785Y-82244773D01*
X133323400Y-82269034D01*
X133360299Y-82284318D01*
X133382464Y-82299128D01*
X133408694Y-82312493D01*
X133479991Y-82364293D01*
X133515309Y-82387892D01*
X133522847Y-82395430D01*
X133529371Y-82400170D01*
X133634855Y-82505654D01*
X133639594Y-82512177D01*
X133647134Y-82519717D01*
X133670735Y-82555039D01*
X133722532Y-82626331D01*
X133735895Y-82652558D01*
X133750708Y-82674727D01*
X133765994Y-82711630D01*
X133790252Y-82759240D01*
X133806765Y-82810060D01*
X133822051Y-82846964D01*
X133827252Y-82873111D01*
X133836349Y-82901108D01*
X133850135Y-82988150D01*
X133858422Y-83029811D01*
X133858422Y-83040472D01*
X133859684Y-83048440D01*
X133859684Y-83197609D01*
X133858422Y-83205576D01*
X133858422Y-83216239D01*
X133850134Y-83257902D01*
X133836349Y-83344941D01*
X133827252Y-83372935D01*
X133822051Y-83399086D01*
X133806763Y-83435993D01*
X133790252Y-83486809D01*
X133765996Y-83534413D01*
X133750708Y-83571323D01*
X133735893Y-83593495D01*
X133722532Y-83619718D01*
X133670743Y-83690998D01*
X133647134Y-83726333D01*
X133639592Y-83733874D01*
X133634855Y-83740395D01*
X133529371Y-83845879D01*
X133522850Y-83850616D01*
X133515309Y-83858158D01*
X133479974Y-83881767D01*
X133408694Y-83933556D01*
X133382471Y-83946917D01*
X133360299Y-83961732D01*
X133323389Y-83977020D01*
X133275785Y-84001276D01*
X133224969Y-84017787D01*
X133188062Y-84033075D01*
X133161911Y-84038276D01*
X133133917Y-84047373D01*
X133046876Y-84061158D01*
X133005215Y-84069446D01*
X132994554Y-84069446D01*
X132986586Y-84070708D01*
X132837416Y-84070708D01*
X132829448Y-84069446D01*
X132818787Y-84069446D01*
X132777126Y-84061159D01*
X132690084Y-84047373D01*
X132662087Y-84038276D01*
X132635940Y-84033075D01*
X132599036Y-84017789D01*
X132548216Y-84001276D01*
X132500606Y-83977018D01*
X132463703Y-83961732D01*
X132441534Y-83946919D01*
X132415307Y-83933556D01*
X132344015Y-83881759D01*
X132308693Y-83858158D01*
X132301153Y-83850618D01*
X132294630Y-83845879D01*
X132189146Y-83740395D01*
X132184406Y-83733871D01*
X132176868Y-83726333D01*
X132153269Y-83691015D01*
X132101469Y-83619718D01*
X132088104Y-83593488D01*
X132073294Y-83571323D01*
X132058010Y-83534424D01*
X132033749Y-83486809D01*
X132017233Y-83435981D01*
X132001951Y-83399086D01*
X131996750Y-83372943D01*
X131987652Y-83344941D01*
X131973865Y-83257892D01*
X131965580Y-83216239D01*
X131965580Y-83205577D01*
X131964318Y-83197609D01*
X131964318Y-83048440D01*
X131965580Y-83040471D01*
X131965580Y-83029811D01*
X131973864Y-82988161D01*
X131987652Y-82901108D01*
X131996751Y-82873103D01*
X132001951Y-82846964D01*
X132017232Y-82810071D01*
X132033749Y-82759240D01*
X132058012Y-82711620D01*
X132073294Y-82674727D01*
X132088102Y-82652564D01*
X132101469Y-82626331D01*
X132153278Y-82555021D01*
X132176868Y-82519717D01*
X132184403Y-82512181D01*
X132189146Y-82505654D01*
X132294630Y-82400170D01*
X132301157Y-82395427D01*
X132308693Y-82387892D01*
X132343997Y-82364302D01*
X132415307Y-82312493D01*
X132441540Y-82299126D01*
X132463703Y-82284318D01*
X132500596Y-82269036D01*
X132548216Y-82244773D01*
X132599047Y-82228256D01*
X132635940Y-82212975D01*
X132662079Y-82207775D01*
X132690084Y-82198676D01*
X132777137Y-82184888D01*
X132818787Y-82176604D01*
X132829448Y-82176604D01*
X132837416Y-82175342D01*
X132986586Y-82175342D01*
X132994554Y-82176604D01*
G37*
G36*
X135534554Y-82176604D02*
G01*
X135545215Y-82176604D01*
X135586866Y-82184889D01*
X135673917Y-82198676D01*
X135701919Y-82207774D01*
X135728062Y-82212975D01*
X135764957Y-82228257D01*
X135815785Y-82244773D01*
X135863400Y-82269034D01*
X135900299Y-82284318D01*
X135922464Y-82299128D01*
X135948694Y-82312493D01*
X136019991Y-82364293D01*
X136055309Y-82387892D01*
X136062847Y-82395430D01*
X136069371Y-82400170D01*
X136174855Y-82505654D01*
X136179594Y-82512177D01*
X136187134Y-82519717D01*
X136210735Y-82555039D01*
X136262532Y-82626331D01*
X136275895Y-82652558D01*
X136290708Y-82674727D01*
X136305994Y-82711630D01*
X136330252Y-82759240D01*
X136346765Y-82810060D01*
X136362051Y-82846964D01*
X136367252Y-82873111D01*
X136376349Y-82901108D01*
X136390135Y-82988150D01*
X136398422Y-83029811D01*
X136398422Y-83040472D01*
X136399684Y-83048440D01*
X136399684Y-83197609D01*
X136398422Y-83205576D01*
X136398422Y-83216239D01*
X136390134Y-83257902D01*
X136376349Y-83344941D01*
X136367252Y-83372935D01*
X136362051Y-83399086D01*
X136346763Y-83435993D01*
X136330252Y-83486809D01*
X136305996Y-83534413D01*
X136290708Y-83571323D01*
X136275893Y-83593495D01*
X136262532Y-83619718D01*
X136210743Y-83690998D01*
X136187134Y-83726333D01*
X136179592Y-83733874D01*
X136174855Y-83740395D01*
X136069371Y-83845879D01*
X136062850Y-83850616D01*
X136055309Y-83858158D01*
X136019974Y-83881767D01*
X135948694Y-83933556D01*
X135922471Y-83946917D01*
X135900299Y-83961732D01*
X135863389Y-83977020D01*
X135815785Y-84001276D01*
X135764969Y-84017787D01*
X135728062Y-84033075D01*
X135701911Y-84038276D01*
X135673917Y-84047373D01*
X135586876Y-84061158D01*
X135545215Y-84069446D01*
X135534554Y-84069446D01*
X135526586Y-84070708D01*
X135377416Y-84070708D01*
X135369448Y-84069446D01*
X135358787Y-84069446D01*
X135317126Y-84061159D01*
X135230084Y-84047373D01*
X135202087Y-84038276D01*
X135175940Y-84033075D01*
X135139036Y-84017789D01*
X135088216Y-84001276D01*
X135040606Y-83977018D01*
X135003703Y-83961732D01*
X134981534Y-83946919D01*
X134955307Y-83933556D01*
X134884015Y-83881759D01*
X134848693Y-83858158D01*
X134841153Y-83850618D01*
X134834630Y-83845879D01*
X134729146Y-83740395D01*
X134724406Y-83733871D01*
X134716868Y-83726333D01*
X134693269Y-83691015D01*
X134641469Y-83619718D01*
X134628104Y-83593488D01*
X134613294Y-83571323D01*
X134598010Y-83534424D01*
X134573749Y-83486809D01*
X134557233Y-83435981D01*
X134541951Y-83399086D01*
X134536750Y-83372943D01*
X134527652Y-83344941D01*
X134513865Y-83257892D01*
X134505580Y-83216239D01*
X134505580Y-83205577D01*
X134504318Y-83197609D01*
X134504318Y-83048440D01*
X134505580Y-83040471D01*
X134505580Y-83029811D01*
X134513864Y-82988161D01*
X134527652Y-82901108D01*
X134536751Y-82873103D01*
X134541951Y-82846964D01*
X134557232Y-82810071D01*
X134573749Y-82759240D01*
X134598012Y-82711620D01*
X134613294Y-82674727D01*
X134628102Y-82652564D01*
X134641469Y-82626331D01*
X134693278Y-82555021D01*
X134716868Y-82519717D01*
X134724403Y-82512181D01*
X134729146Y-82505654D01*
X134834630Y-82400170D01*
X134841157Y-82395427D01*
X134848693Y-82387892D01*
X134883997Y-82364302D01*
X134955307Y-82312493D01*
X134981540Y-82299126D01*
X135003703Y-82284318D01*
X135040596Y-82269036D01*
X135088216Y-82244773D01*
X135139047Y-82228256D01*
X135175940Y-82212975D01*
X135202079Y-82207775D01*
X135230084Y-82198676D01*
X135317137Y-82184888D01*
X135358787Y-82176604D01*
X135369448Y-82176604D01*
X135377416Y-82175342D01*
X135526586Y-82175342D01*
X135534554Y-82176604D01*
G37*
G36*
X138074554Y-82176604D02*
G01*
X138085215Y-82176604D01*
X138126866Y-82184889D01*
X138213917Y-82198676D01*
X138241919Y-82207774D01*
X138268062Y-82212975D01*
X138304957Y-82228257D01*
X138355785Y-82244773D01*
X138403400Y-82269034D01*
X138440299Y-82284318D01*
X138462464Y-82299128D01*
X138488694Y-82312493D01*
X138559991Y-82364293D01*
X138595309Y-82387892D01*
X138602847Y-82395430D01*
X138609371Y-82400170D01*
X138714855Y-82505654D01*
X138719594Y-82512177D01*
X138727134Y-82519717D01*
X138750735Y-82555039D01*
X138802532Y-82626331D01*
X138815895Y-82652558D01*
X138830708Y-82674727D01*
X138845994Y-82711630D01*
X138870252Y-82759240D01*
X138886765Y-82810060D01*
X138902051Y-82846964D01*
X138907252Y-82873111D01*
X138916349Y-82901108D01*
X138930135Y-82988150D01*
X138938422Y-83029811D01*
X138938422Y-83040472D01*
X138939684Y-83048440D01*
X138939684Y-83197609D01*
X138938422Y-83205576D01*
X138938422Y-83216239D01*
X138930134Y-83257902D01*
X138916349Y-83344941D01*
X138907252Y-83372935D01*
X138902051Y-83399086D01*
X138886763Y-83435993D01*
X138870252Y-83486809D01*
X138845996Y-83534413D01*
X138830708Y-83571323D01*
X138815893Y-83593495D01*
X138802532Y-83619718D01*
X138750743Y-83690998D01*
X138727134Y-83726333D01*
X138719592Y-83733874D01*
X138714855Y-83740395D01*
X138609371Y-83845879D01*
X138602850Y-83850616D01*
X138595309Y-83858158D01*
X138559974Y-83881767D01*
X138488694Y-83933556D01*
X138462471Y-83946917D01*
X138440299Y-83961732D01*
X138403389Y-83977020D01*
X138355785Y-84001276D01*
X138304969Y-84017787D01*
X138268062Y-84033075D01*
X138241911Y-84038276D01*
X138213917Y-84047373D01*
X138126876Y-84061158D01*
X138085215Y-84069446D01*
X138074554Y-84069446D01*
X138066586Y-84070708D01*
X137917416Y-84070708D01*
X137909448Y-84069446D01*
X137898787Y-84069446D01*
X137857126Y-84061159D01*
X137770084Y-84047373D01*
X137742087Y-84038276D01*
X137715940Y-84033075D01*
X137679036Y-84017789D01*
X137628216Y-84001276D01*
X137580606Y-83977018D01*
X137543703Y-83961732D01*
X137521534Y-83946919D01*
X137495307Y-83933556D01*
X137424015Y-83881759D01*
X137388693Y-83858158D01*
X137381153Y-83850618D01*
X137374630Y-83845879D01*
X137269146Y-83740395D01*
X137264406Y-83733871D01*
X137256868Y-83726333D01*
X137233269Y-83691015D01*
X137181469Y-83619718D01*
X137168104Y-83593488D01*
X137153294Y-83571323D01*
X137138010Y-83534424D01*
X137113749Y-83486809D01*
X137097233Y-83435981D01*
X137081951Y-83399086D01*
X137076750Y-83372943D01*
X137067652Y-83344941D01*
X137053865Y-83257892D01*
X137045580Y-83216239D01*
X137045580Y-83205577D01*
X137044318Y-83197609D01*
X137044318Y-83048440D01*
X137045580Y-83040471D01*
X137045580Y-83029811D01*
X137053864Y-82988161D01*
X137067652Y-82901108D01*
X137076751Y-82873103D01*
X137081951Y-82846964D01*
X137097232Y-82810071D01*
X137113749Y-82759240D01*
X137138012Y-82711620D01*
X137153294Y-82674727D01*
X137168102Y-82652564D01*
X137181469Y-82626331D01*
X137233278Y-82555021D01*
X137256868Y-82519717D01*
X137264403Y-82512181D01*
X137269146Y-82505654D01*
X137374630Y-82400170D01*
X137381157Y-82395427D01*
X137388693Y-82387892D01*
X137423997Y-82364302D01*
X137495307Y-82312493D01*
X137521540Y-82299126D01*
X137543703Y-82284318D01*
X137580596Y-82269036D01*
X137628216Y-82244773D01*
X137679047Y-82228256D01*
X137715940Y-82212975D01*
X137742079Y-82207775D01*
X137770084Y-82198676D01*
X137857137Y-82184888D01*
X137898787Y-82176604D01*
X137909448Y-82176604D01*
X137917416Y-82175342D01*
X138066586Y-82175342D01*
X138074554Y-82176604D01*
G37*
G36*
X140614554Y-82176604D02*
G01*
X140625215Y-82176604D01*
X140666866Y-82184889D01*
X140753917Y-82198676D01*
X140781919Y-82207774D01*
X140808062Y-82212975D01*
X140844957Y-82228257D01*
X140895785Y-82244773D01*
X140943400Y-82269034D01*
X140980299Y-82284318D01*
X141002464Y-82299128D01*
X141028694Y-82312493D01*
X141099991Y-82364293D01*
X141135309Y-82387892D01*
X141142847Y-82395430D01*
X141149371Y-82400170D01*
X141254855Y-82505654D01*
X141259594Y-82512177D01*
X141267134Y-82519717D01*
X141290735Y-82555039D01*
X141342532Y-82626331D01*
X141355895Y-82652558D01*
X141370708Y-82674727D01*
X141385994Y-82711630D01*
X141410252Y-82759240D01*
X141426765Y-82810060D01*
X141442051Y-82846964D01*
X141447252Y-82873111D01*
X141456349Y-82901108D01*
X141470135Y-82988150D01*
X141478422Y-83029811D01*
X141478422Y-83040472D01*
X141479684Y-83048440D01*
X141479684Y-83197609D01*
X141478422Y-83205576D01*
X141478422Y-83216239D01*
X141470134Y-83257902D01*
X141456349Y-83344941D01*
X141447252Y-83372935D01*
X141442051Y-83399086D01*
X141426763Y-83435993D01*
X141410252Y-83486809D01*
X141385996Y-83534413D01*
X141370708Y-83571323D01*
X141355893Y-83593495D01*
X141342532Y-83619718D01*
X141290743Y-83690998D01*
X141267134Y-83726333D01*
X141259592Y-83733874D01*
X141254855Y-83740395D01*
X141149371Y-83845879D01*
X141142850Y-83850616D01*
X141135309Y-83858158D01*
X141099974Y-83881767D01*
X141028694Y-83933556D01*
X141002471Y-83946917D01*
X140980299Y-83961732D01*
X140943389Y-83977020D01*
X140895785Y-84001276D01*
X140844969Y-84017787D01*
X140808062Y-84033075D01*
X140781911Y-84038276D01*
X140753917Y-84047373D01*
X140666876Y-84061158D01*
X140625215Y-84069446D01*
X140614554Y-84069446D01*
X140606586Y-84070708D01*
X140457416Y-84070708D01*
X140449448Y-84069446D01*
X140438787Y-84069446D01*
X140397126Y-84061159D01*
X140310084Y-84047373D01*
X140282087Y-84038276D01*
X140255940Y-84033075D01*
X140219036Y-84017789D01*
X140168216Y-84001276D01*
X140120606Y-83977018D01*
X140083703Y-83961732D01*
X140061534Y-83946919D01*
X140035307Y-83933556D01*
X139964015Y-83881759D01*
X139928693Y-83858158D01*
X139921153Y-83850618D01*
X139914630Y-83845879D01*
X139809146Y-83740395D01*
X139804406Y-83733871D01*
X139796868Y-83726333D01*
X139773269Y-83691015D01*
X139721469Y-83619718D01*
X139708104Y-83593488D01*
X139693294Y-83571323D01*
X139678010Y-83534424D01*
X139653749Y-83486809D01*
X139637233Y-83435981D01*
X139621951Y-83399086D01*
X139616750Y-83372943D01*
X139607652Y-83344941D01*
X139593865Y-83257892D01*
X139585580Y-83216239D01*
X139585580Y-83205577D01*
X139584318Y-83197609D01*
X139584318Y-83048440D01*
X139585580Y-83040471D01*
X139585580Y-83029811D01*
X139593864Y-82988161D01*
X139607652Y-82901108D01*
X139616751Y-82873103D01*
X139621951Y-82846964D01*
X139637232Y-82810071D01*
X139653749Y-82759240D01*
X139678012Y-82711620D01*
X139693294Y-82674727D01*
X139708102Y-82652564D01*
X139721469Y-82626331D01*
X139773278Y-82555021D01*
X139796868Y-82519717D01*
X139804403Y-82512181D01*
X139809146Y-82505654D01*
X139914630Y-82400170D01*
X139921157Y-82395427D01*
X139928693Y-82387892D01*
X139963997Y-82364302D01*
X140035307Y-82312493D01*
X140061540Y-82299126D01*
X140083703Y-82284318D01*
X140120596Y-82269036D01*
X140168216Y-82244773D01*
X140219047Y-82228256D01*
X140255940Y-82212975D01*
X140282079Y-82207775D01*
X140310084Y-82198676D01*
X140397137Y-82184888D01*
X140438787Y-82176604D01*
X140449448Y-82176604D01*
X140457416Y-82175342D01*
X140606586Y-82175342D01*
X140614554Y-82176604D01*
G37*
G36*
X143154554Y-82176604D02*
G01*
X143165215Y-82176604D01*
X143206866Y-82184889D01*
X143293917Y-82198676D01*
X143321919Y-82207774D01*
X143348062Y-82212975D01*
X143384957Y-82228257D01*
X143435785Y-82244773D01*
X143483400Y-82269034D01*
X143520299Y-82284318D01*
X143542464Y-82299128D01*
X143568694Y-82312493D01*
X143639991Y-82364293D01*
X143675309Y-82387892D01*
X143682847Y-82395430D01*
X143689371Y-82400170D01*
X143794855Y-82505654D01*
X143799594Y-82512177D01*
X143807134Y-82519717D01*
X143830735Y-82555039D01*
X143882532Y-82626331D01*
X143895895Y-82652558D01*
X143910708Y-82674727D01*
X143925994Y-82711630D01*
X143950252Y-82759240D01*
X143966765Y-82810060D01*
X143982051Y-82846964D01*
X143987252Y-82873111D01*
X143996349Y-82901108D01*
X144010135Y-82988150D01*
X144018422Y-83029811D01*
X144018422Y-83040472D01*
X144019684Y-83048440D01*
X144019684Y-83197609D01*
X144018422Y-83205576D01*
X144018422Y-83216239D01*
X144010134Y-83257902D01*
X143996349Y-83344941D01*
X143987252Y-83372935D01*
X143982051Y-83399086D01*
X143966763Y-83435993D01*
X143950252Y-83486809D01*
X143925996Y-83534413D01*
X143910708Y-83571323D01*
X143895893Y-83593495D01*
X143882532Y-83619718D01*
X143830743Y-83690998D01*
X143807134Y-83726333D01*
X143799592Y-83733874D01*
X143794855Y-83740395D01*
X143689371Y-83845879D01*
X143682850Y-83850616D01*
X143675309Y-83858158D01*
X143639974Y-83881767D01*
X143568694Y-83933556D01*
X143542471Y-83946917D01*
X143520299Y-83961732D01*
X143483389Y-83977020D01*
X143435785Y-84001276D01*
X143384969Y-84017787D01*
X143348062Y-84033075D01*
X143321911Y-84038276D01*
X143293917Y-84047373D01*
X143206876Y-84061158D01*
X143165215Y-84069446D01*
X143154554Y-84069446D01*
X143146586Y-84070708D01*
X142997416Y-84070708D01*
X142989448Y-84069446D01*
X142978787Y-84069446D01*
X142937126Y-84061159D01*
X142850084Y-84047373D01*
X142822087Y-84038276D01*
X142795940Y-84033075D01*
X142759036Y-84017789D01*
X142708216Y-84001276D01*
X142660606Y-83977018D01*
X142623703Y-83961732D01*
X142601534Y-83946919D01*
X142575307Y-83933556D01*
X142504015Y-83881759D01*
X142468693Y-83858158D01*
X142461153Y-83850618D01*
X142454630Y-83845879D01*
X142349146Y-83740395D01*
X142344406Y-83733871D01*
X142336868Y-83726333D01*
X142313269Y-83691015D01*
X142261469Y-83619718D01*
X142248104Y-83593488D01*
X142233294Y-83571323D01*
X142218010Y-83534424D01*
X142193749Y-83486809D01*
X142177233Y-83435981D01*
X142161951Y-83399086D01*
X142156750Y-83372943D01*
X142147652Y-83344941D01*
X142133865Y-83257892D01*
X142125580Y-83216239D01*
X142125580Y-83205577D01*
X142124318Y-83197609D01*
X142124318Y-83048440D01*
X142125580Y-83040471D01*
X142125580Y-83029811D01*
X142133864Y-82988161D01*
X142147652Y-82901108D01*
X142156751Y-82873103D01*
X142161951Y-82846964D01*
X142177232Y-82810071D01*
X142193749Y-82759240D01*
X142218012Y-82711620D01*
X142233294Y-82674727D01*
X142248102Y-82652564D01*
X142261469Y-82626331D01*
X142313278Y-82555021D01*
X142336868Y-82519717D01*
X142344403Y-82512181D01*
X142349146Y-82505654D01*
X142454630Y-82400170D01*
X142461157Y-82395427D01*
X142468693Y-82387892D01*
X142503997Y-82364302D01*
X142575307Y-82312493D01*
X142601540Y-82299126D01*
X142623703Y-82284318D01*
X142660596Y-82269036D01*
X142708216Y-82244773D01*
X142759047Y-82228256D01*
X142795940Y-82212975D01*
X142822079Y-82207775D01*
X142850084Y-82198676D01*
X142937137Y-82184888D01*
X142978787Y-82176604D01*
X142989448Y-82176604D01*
X142997416Y-82175342D01*
X143146586Y-82175342D01*
X143154554Y-82176604D01*
G37*
G36*
X157826389Y-81621109D02*
G01*
X157837996Y-81621109D01*
X157883356Y-81630131D01*
X157981595Y-81645691D01*
X158013190Y-81655957D01*
X158041992Y-81661686D01*
X158082636Y-81678521D01*
X158139879Y-81697121D01*
X158193512Y-81724448D01*
X158234152Y-81741282D01*
X158258564Y-81757593D01*
X158288167Y-81772677D01*
X158368640Y-81831144D01*
X158407091Y-81856836D01*
X158415297Y-81865042D01*
X158422812Y-81870502D01*
X158540497Y-81988187D01*
X158545956Y-81995701D01*
X158554164Y-82003909D01*
X158579858Y-82042364D01*
X158638322Y-82122832D01*
X158653404Y-82152432D01*
X158669718Y-82176848D01*
X158686553Y-82217492D01*
X158713878Y-82271120D01*
X158732475Y-82328356D01*
X158749314Y-82369008D01*
X158755044Y-82397814D01*
X158765308Y-82429404D01*
X158780866Y-82527635D01*
X158789891Y-82573004D01*
X158789891Y-82584611D01*
X158791344Y-82593785D01*
X158791344Y-82760214D01*
X158789891Y-82769387D01*
X158789891Y-82780996D01*
X158780865Y-82826368D01*
X158765308Y-82924595D01*
X158755044Y-82956182D01*
X158749314Y-82984992D01*
X158732473Y-83025647D01*
X158713878Y-83082879D01*
X158686556Y-83136501D01*
X158669718Y-83177152D01*
X158653401Y-83201570D01*
X158638322Y-83231167D01*
X158579867Y-83311623D01*
X158554164Y-83350091D01*
X158545954Y-83358300D01*
X158540497Y-83365812D01*
X158422812Y-83483497D01*
X158415300Y-83488954D01*
X158407091Y-83497164D01*
X158368623Y-83522867D01*
X158288167Y-83581322D01*
X158258570Y-83596401D01*
X158234152Y-83612718D01*
X158193501Y-83629556D01*
X158139879Y-83656878D01*
X158082647Y-83675473D01*
X158041992Y-83692314D01*
X158013182Y-83698044D01*
X157981595Y-83708308D01*
X157883366Y-83723866D01*
X157837996Y-83732891D01*
X157826389Y-83732891D01*
X157817215Y-83734344D01*
X157650785Y-83734344D01*
X157641611Y-83732891D01*
X157630004Y-83732891D01*
X157584635Y-83723866D01*
X157486404Y-83708308D01*
X157454814Y-83698044D01*
X157426008Y-83692314D01*
X157385356Y-83675475D01*
X157328120Y-83656878D01*
X157274492Y-83629553D01*
X157233848Y-83612718D01*
X157209432Y-83596404D01*
X157179832Y-83581322D01*
X157099364Y-83522858D01*
X157060909Y-83497164D01*
X157052701Y-83488956D01*
X157045187Y-83483497D01*
X156927502Y-83365812D01*
X156922042Y-83358297D01*
X156913836Y-83350091D01*
X156888144Y-83311640D01*
X156829677Y-83231167D01*
X156814593Y-83201564D01*
X156798282Y-83177152D01*
X156781448Y-83136512D01*
X156754121Y-83082879D01*
X156735521Y-83025636D01*
X156718686Y-82984992D01*
X156712957Y-82956190D01*
X156702691Y-82924595D01*
X156687132Y-82826358D01*
X156678109Y-82780996D01*
X156678109Y-82769388D01*
X156676656Y-82760214D01*
X156676656Y-82593785D01*
X156678109Y-82584610D01*
X156678109Y-82573004D01*
X156687131Y-82527645D01*
X156702691Y-82429404D01*
X156712957Y-82397807D01*
X156718686Y-82369008D01*
X156735520Y-82328367D01*
X156754121Y-82271120D01*
X156781450Y-82217482D01*
X156798282Y-82176848D01*
X156814591Y-82152438D01*
X156829677Y-82122832D01*
X156888152Y-82042347D01*
X156913836Y-82003909D01*
X156922039Y-81995705D01*
X156927502Y-81988187D01*
X157045187Y-81870502D01*
X157052705Y-81865039D01*
X157060909Y-81856836D01*
X157099347Y-81831152D01*
X157179832Y-81772677D01*
X157209438Y-81757591D01*
X157233848Y-81741282D01*
X157274482Y-81724450D01*
X157328120Y-81697121D01*
X157385367Y-81678520D01*
X157426008Y-81661686D01*
X157454807Y-81655957D01*
X157486404Y-81645691D01*
X157584645Y-81630131D01*
X157630004Y-81621109D01*
X157641611Y-81621109D01*
X157650785Y-81619656D01*
X157817215Y-81619656D01*
X157826389Y-81621109D01*
G37*
M02*
