G04 #@! TF.GenerationSoftware,KiCad,Pcbnew,9.0.1*
G04 #@! TF.CreationDate,2025-06-13T20:53:16+02:00*
G04 #@! TF.ProjectId,Hue_Ambience_clone,4875655f-416d-4626-9965-6e63655f636c,rev?*
G04 #@! TF.SameCoordinates,Original*
G04 #@! TF.FileFunction,Profile,NP*
%FSLAX46Y46*%
G04 Gerber Fmt 4.6, Leading zero omitted, Abs format (unit mm)*
G04 Created by KiCad (PCBNEW 9.0.1) date 2025-06-13 20:53:16*
%MOMM*%
%LPD*%
G01*
G04 APERTURE LIST*
G04 #@! TA.AperFunction,Profile*
%ADD10C,0.050000*%
G04 #@! TD*
G04 APERTURE END LIST*
D10*
X109000000Y-103000000D02*
X109000000Y-87000000D01*
X109000000Y-110000000D02*
X109000000Y-107000000D01*
X111000000Y-107000000D02*
X111000000Y-110000000D01*
X111000000Y-87000000D02*
X111000000Y-103000000D01*
X111000000Y-83000000D02*
X111000000Y-80000000D01*
X109000000Y-80000000D02*
X109000000Y-83000000D01*
X111000000Y-83000000D02*
G75*
G02*
X109000000Y-83000000I-1000000J0D01*
G01*
X109000000Y-87000000D02*
G75*
G02*
X111000000Y-87000000I1000000J0D01*
G01*
X111000000Y-103000000D02*
G75*
G02*
X109000000Y-103000000I-1000000J0D01*
G01*
X109000000Y-107000000D02*
G75*
G02*
X111000000Y-107000000I1000000J0D01*
G01*
X90000000Y-80000000D02*
X109000000Y-80000000D01*
X90000000Y-110000000D02*
X90000000Y-80000000D01*
X109000000Y-110000000D02*
X90000000Y-110000000D01*
X171000000Y-110000000D02*
X171000000Y-80000000D01*
X111000000Y-110000000D02*
X171000000Y-110000000D01*
X171000000Y-80000000D02*
X111000000Y-80000000D01*
X169295229Y-83439000D02*
G75*
G02*
X165476771Y-83439000I-1909229J0D01*
G01*
X165476771Y-83439000D02*
G75*
G02*
X169295229Y-83439000I1909229J0D01*
G01*
X169295229Y-105791000D02*
G75*
G02*
X165476771Y-105791000I-1909229J0D01*
G01*
X165476771Y-105791000D02*
G75*
G02*
X169295229Y-105791000I1909229J0D01*
G01*
X116971229Y-105791000D02*
G75*
G02*
X113152771Y-105791000I-1909229J0D01*
G01*
X113152771Y-105791000D02*
G75*
G02*
X116971229Y-105791000I1909229J0D01*
G01*
X116971229Y-83439000D02*
G75*
G02*
X113152771Y-83439000I-1909229J0D01*
G01*
X113152771Y-83439000D02*
G75*
G02*
X116971229Y-83439000I1909229J0D01*
G01*
M02*
